<svg width="277" height="150" viewBox="0 0 277 150" fill="none" xmlns="http://www.w3.org/2000/svg">
<g clip-path="url(#clip0_2213_90)">
<path fill-rule="evenodd" clip-rule="evenodd" d="M0 0H277V120H257.919L238 150L218.081 120H0V0ZM52.416 40.448V41.852H55.368V40.448H52.416ZM58.968 40.448H62.892V37.928H58.968V36.524H63.864V33.68H59.2915C59.3464 33.5833 59.4019 33.4857 59.4578 33.3872C59.7412 32.8882 60.0364 32.3682 60.336 31.844L57.5421 31.232H62.6663C63.6846 31.8258 65.4266 33.1179 66.132 33.788C67.3151 31.912 68.2839 29.5203 69.0646 26.84H69.408V30.656C69.4417 33.9915 68.4348 41.2054 63.4069 45.776H58.968V44.372H62.892V41.852H58.968V40.448ZM55.368 44.372H52.416V45.776H55.368V44.372ZM52.416 48.692V50.132H48.78V41.6447C48.4169 42.1301 48.0442 42.5852 47.664 43.004C47.268 42.176 46.152 40.376 45.504 39.584C47.4122 37.5023 49.0195 34.4176 49.9713 31.232H47.124V24.032H54.792V31.232H51.4329L53.604 31.808C53.4105 32.4314 53.1978 33.0573 52.9676 33.68H55.7141C56.0262 32.8491 56.3113 31.9679 56.5018 31.232H55.872V24.032H63.72V29.2236C65.3581 25.789 66.3033 21.1012 66.78 16.364L71.028 16.976C70.7688 19.0046 70.439 21.019 70.031 22.952H75.708H76.32L76.932 22.7L79.776 23.708C79.416 27.236 78.732 31.232 77.868 33.932L74.808 32.204C75.0847 30.7743 75.3171 28.8128 75.4863 26.84H73.548V30.656C73.512 34.148 74.664 42.104 80.064 46.496C79.308 47.396 78.12 49.196 77.508 50.24C73.62 47.144 71.856 41.06 71.496 38C71.028 41.132 68.976 47.036 64.692 50.24C64.4912 49.8385 64.158 49.2713 63.786 48.692H52.416ZM55.368 36.524V37.928H52.416V36.524H55.368ZM49.932 18.56H46.26V21.692H49.932V23.456H53.676V21.692H57.06V23.456H60.876V21.692H64.692V18.56H60.876V16.472H57.06V18.56H53.676V16.472H49.932V18.56ZM49.932 28.676V26.552H51.804V28.676H49.932ZM58.68 28.676V26.552H60.732V28.676H58.68ZM97.272 42.068V30.476H89.496V34.472H93.24V42.4445C91.8375 43.6542 90.2965 44.8628 88.992 45.776L91.044 49.916C91.1649 49.8003 91.2844 49.6859 91.4028 49.5726C92.9413 48.1002 94.2737 46.8251 95.544 45.488C97.704 48.296 100.656 49.376 105.048 49.556C109.548 49.736 117.54 49.664 122.148 49.448C122.328 48.26 122.976 46.352 123.444 45.416C118.332 45.812 109.476 45.92 105.012 45.74C101.304 45.56 98.676 44.516 97.272 42.068ZM92.664 17.228L89.28 19.352C91.116 21.188 93.276 23.816 94.104 25.58L97.776 23.168C96.804 21.368 94.572 18.92 92.664 17.228ZM117.72 18.632H109.98V19.5242L107.1 16.436C105.911 17.4418 104.078 18.6024 102.298 19.5027L100.224 18.956V37.0051C99.472 37.1737 98.7701 37.3265 98.136 37.46L99.252 41.276C102.168 40.52 105.84 39.548 109.188 38.612L108.72 34.94C107.202 35.3373 105.661 35.7234 104.184 36.0807V22.4467C106.101 21.6959 108.165 20.7537 109.98 19.7028V44.66H113.904V22.268H117.72V36.92C117.72 37.316 117.576 37.46 117.18 37.46C116.784 37.496 115.56 37.496 114.336 37.46C114.876 38.396 115.38 40.016 115.56 41.06C117.648 41.06 119.16 41.024 120.276 40.412C121.392 39.764 121.716 38.756 121.716 36.992V18.632H119.916H117.72ZM146.988 20.936H133.848V25.148H146.988V33.528C143.839 38.403 138.199 42.9156 132.3 45.2C133.272 46.064 134.676 47.828 135.36 48.908C139.684 46.9159 143.73 43.7598 146.988 39.9596V50.24H151.524V39.7301C154.796 43.6064 158.888 46.8618 163.26 48.872C163.98 47.648 165.384 45.848 166.464 44.912C161.036 42.9238 155.829 39.0822 152.59 34.8178C153.583 35.3635 154.812 36.143 155.448 36.668C156.314 35.8022 157.124 34.7555 157.852 33.5695C159.658 35.0681 161.514 36.6485 162.54 37.748L165.528 34.76C164.189 33.5087 161.698 31.5987 159.614 30.0189C160.101 28.7878 160.506 27.4788 160.812 26.12L156.636 25.364C155.913 28.8427 154.333 32.0579 152.085 34.1266C151.889 33.8477 151.702 33.5674 151.524 33.286V25.148H165.168V20.936H151.524V16.436H146.988V20.936ZM140.76 33.7551C139.583 35.7173 138.189 37.4044 136.62 38.72C135.9 37.928 134.244 36.524 133.272 35.876C136.44 33.572 138.636 29.756 139.644 25.364L143.856 26.156C143.511 27.5172 143.084 28.8276 142.582 30.0711C143.886 31.1897 145.254 32.4002 146.052 33.248L143.208 36.272C142.636 35.5856 141.731 34.6772 140.76 33.7551ZM194.436 18.704H176.076V22.556H180.826C180.374 24.2928 179.758 26.243 179.13 27.927C177.997 27.9537 176.946 27.9756 176.004 27.992L176.256 31.988C180.303 31.8194 185.834 31.5876 191.222 31.2927C191.569 31.9631 191.856 32.5898 192.06 33.14L195.48 31.196C194.58 28.928 192.276 25.616 190.26 23.168L187.056 24.86C187.715 25.7102 188.397 26.6641 189.045 27.6406C187.128 27.7043 185.23 27.763 183.428 27.8143C184.159 26.1704 184.915 24.332 185.633 22.5871C185.637 22.5767 185.642 22.5664 185.646 22.556H194.436V18.704ZM183.132 35.84H177.156V39.692H183.132V44.3214C180.34 44.6326 177.77 44.9035 175.68 45.092L176.328 49.412C181.26 48.8 188.172 47.9 194.616 47.036L194.508 43.004L193.896 43.076C191.752 43.3283 189.559 43.5863 187.416 43.834V39.692H193.32V35.84H187.416V32.348H183.132V35.84ZM199.908 20.828H195.768V41.204H199.908V20.828ZM208.188 17.444H203.976V45.056C203.976 45.704 203.76 45.884 203.112 45.92C202.998 45.92 202.846 45.9209 202.663 45.922C201.695 45.9278 199.853 45.9388 198.036 45.848C198.648 47.072 199.26 49.016 199.44 50.24C202.5 50.24 204.84 50.096 206.28 49.412C207.72 48.728 208.188 47.54 208.188 45.092V17.444ZM223.596 49.088L224.748 51.968C229.212 50.636 231.876 47.324 231.876 43.256C231.876 40.232 230.508 38.288 227.988 38.288C226.044 38.288 224.424 39.512 224.424 41.528C224.424 43.616 226.08 44.768 227.88 44.768C228.004 44.768 228.127 44.7618 228.249 44.7493C228.024 46.608 226.397 48.1877 223.596 49.088ZM49.716 65.976L47.844 68.892C50.328 69.648 53.748 70.944 55.404 71.844L57.348 68.568C55.548 67.704 52.128 66.552 49.716 65.976ZM53.5503 73.4129C50.8039 74.0454 48.2055 74.6439 46.26 75.012L47.88 78.756C50.58 78 53.892 77.028 57.024 76.092L57.005 75.93C57.5947 76.5554 58.3003 77.6294 58.7311 78.468H51.156V93.156H56.4788C53.9734 94.4112 50.0226 95.5468 46.476 96.216C47.448 96.936 48.924 98.52 49.68 99.384C53.352 98.34 58.032 96.54 60.984 94.632L57.6705 93.156H68.3002L65.016 95.028C68.652 96.396 72.36 98.124 74.376 99.348L79.416 97.404C76.9706 96.1985 72.7789 94.4988 69.1105 93.156H75.348V79.0633C76.0883 79.2465 76.8904 79.4089 77.76 79.548C78.156 78.468 79.092 76.848 79.884 75.984C72.5709 75.1464 70.5337 73.1844 69.7477 70.872H73.7558C73.3073 71.6318 72.8215 72.3411 72.36 72.888L75.708 73.896C76.896 72.564 78.192 70.404 79.128 68.424L76.284 67.704L75.636 67.848H75.024H64.9306C65.2672 67.2603 65.5817 66.6598 65.88 66.048L62.1 65.436C61.128 67.524 59.364 69.936 56.736 71.736C57.744 72.132 59.22 73.032 59.976 73.788C61.0909 72.8785 62.0443 71.9033 62.8778 70.872H65.4938C64.6823 73.4395 62.7276 75.0177 57.0027 75.9097L56.628 72.708C55.5989 72.941 54.5645 73.1793 53.5503 73.4129ZM67.8044 74.5758C66.5202 76.2725 64.4676 77.5483 61.1133 78.468H73.3472C70.5449 77.4736 68.871 76.106 67.8044 74.5758ZM55.332 86.568V85.02H70.992V86.568H55.332ZM55.332 90.6V89.016H70.992V90.6H55.332ZM55.332 82.572V81.06H70.992V82.572H55.332ZM117.288 66.84H115.056H103.32V70.944H106.848V78.648C106.848 78.7437 106.848 78.8397 106.848 78.936H102.924V82.968H106.695C106.34 87.2766 105.219 91.7537 101.88 95.4627V86.388H94.536H92.844H90.9V98.772H94.536V97.332H101.88V96.7495C102.779 97.4875 103.795 98.546 104.328 99.276C109.088 94.631 110.468 88.6615 110.832 82.968H114.336V78.936H110.952C110.952 78.8518 110.952 78.7678 110.952 78.684V70.944H115.061C115.077 84.7557 115.191 97.4773 119.124 98.952C121.428 99.96 123.336 98.736 123.912 93.084C123.3 92.436 122.22 90.708 121.536 89.592C121.464 92.076 121.212 94.596 120.996 94.524C119.268 94.02 119.124 79.116 119.484 66.84H117.288ZM94.536 93.912H98.208V89.808H94.536V93.912ZM101.844 76.488H90.972V79.728H101.844V76.488ZM101.736 66.552H91.08V69.828H101.736V66.552ZM101.844 81.384H90.972V84.66H101.844V81.384ZM103.032 71.412H89.244V74.832H103.032V71.412ZM153.9 88.98H132.912V92.256H140.947L139.032 93.84C140.724 95.064 142.884 96.9 143.784 98.124L146.952 95.46C146.115 94.5111 144.607 93.281 143.166 92.256H153.9V95.028C153.9 95.46 153.756 95.568 153.18 95.568C152.64 95.604 150.624 95.64 148.86 95.532C149.4 96.576 150.012 98.124 150.192 99.24C152.892 99.24 154.836 99.204 156.24 98.664C157.716 98.088 158.076 97.08 158.076 95.136V92.256H165.888V88.98H158.076V87.5001C160.808 87.4725 163.432 87.4138 165.348 87.324C165.528 86.352 166.032 84.804 166.392 84.012C161.388 84.372 151.956 84.48 147.564 84.3C144.504 84.192 142.308 83.364 141.156 81.384V74.364H133.056V77.64H137.232V81.9947C135.713 82.8621 134.104 83.6938 132.732 84.336L134.244 87.756C134.592 87.5347 134.934 87.3178 135.271 87.1041C136.853 86.1017 138.321 85.1713 139.716 84.192C141.516 86.46 143.928 87.288 147.6 87.432C149.25 87.4856 151.495 87.5143 153.9 87.518V88.98ZM147.581 68.388H142.236V71.304H151.565C151.496 71.6798 151.417 72.06 151.337 72.42H145.08V83.22H162.9V72.42H155.034C155.184 72.074 155.344 71.7015 155.51 71.304H165.852V68.388H160.504C161.007 67.6982 161.558 66.9062 162.108 66.012L158.04 65.328C157.692 66.2133 157.067 67.404 156.505 68.388H151.577C151.188 67.439 150.534 66.2696 149.904 65.4L146.376 66.048C146.801 66.7418 147.24 67.6025 147.581 68.388ZM136.728 65.832L133.92 68.172C135.72 69.54 137.88 71.52 138.816 72.888L141.768 70.26C140.76 68.892 138.528 67.056 136.728 65.832ZM149.076 78.36V77.244H158.724V78.36H149.076ZM149.076 81.312V80.196H158.724V81.312H149.076ZM149.076 75.408V74.328H158.724V75.408H149.076ZM185.22 87.72V86.532H199.764V87.72H185.22ZM185.22 90.996V89.808H199.764V90.996H185.22ZM185.22 84.444V83.292H199.764V84.444H185.22ZM204.048 81.06H181.152V93.192H185.744C184.777 94.8935 182.514 95.5973 175.608 95.964C176.292 96.756 177.192 98.304 177.444 99.24C186.188 98.4151 189.004 96.7132 190.106 93.192H194.076V94.668C194.076 97.908 195.156 98.844 199.476 98.844H204.804C207.936 98.844 209.016 97.872 209.448 94.164C208.368 93.984 206.748 93.444 205.92 92.904C205.74 95.244 205.524 95.604 204.372 95.604H200.016C198.576 95.604 198.288 95.532 198.288 94.632V93.192H204.048V81.06ZM195.984 71.7258C195.419 72.3724 194.786 72.9898 194.076 73.572C193.48 72.8105 192.336 71.775 191.484 71.2775V76.128H187.02V77.604H192.528V80.016H177.408V66.516H192.204V68.964H187.02V70.224H191.484V70.9996C193.589 69.4014 194.892 67.3525 195.588 65.472L199.296 66.084C199.135 66.4963 198.964 66.9046 198.781 67.308H208.764V69.972H197.319C197.093 70.3141 196.853 70.6503 196.598 70.98H207.144V73.356H195.984V71.7258ZM183.636 70.224V68.964H181.08V70.224H183.636ZM181.08 72.492V73.896H187.848V72.492H181.08ZM181.08 76.128V77.604H183.636V76.128H181.08ZM203.76 78.108V76.308H205.236V78.108H203.76ZM200.196 78.108V76.308H201.672V78.108H200.196ZM196.704 78.108V76.308H198.108V78.108H196.704ZM208.224 74.328H193.86V80.088H208.224V74.328ZM220.824 87.468H225.108L226.008 70.296H219.924L220.824 87.468ZM220.752 91.176C220.152 91.608 219.852 92.376 219.852 93.48C219.852 94.536 220.152 95.304 220.752 95.784C221.352 96.24 222.084 96.468 222.948 96.468C223.788 96.468 224.508 96.24 225.108 95.784C225.708 95.304 226.008 94.536 226.008 93.48C226.008 92.376 225.708 91.608 225.108 91.176C224.508 90.72 223.788 90.492 222.948 90.492C222.084 90.492 221.352 90.72 220.752 91.176Z" fill="white"/>
</g>
<defs>
<clipPath id="clip0_2213_90">
<rect width="277" height="150" fill="white"/>
</clipPath>
</defs>
</svg>
