<svg width="277" height="150" viewBox="0 0 277 150" fill="none" xmlns="http://www.w3.org/2000/svg">
<g clip-path="url(#clip0_2213_90)">
<path fill-rule="evenodd" clip-rule="evenodd" d="M0 0H277V120H257.919L238 150L218.081 120H0V0ZM52.416 40.448V41.852H55.368V40.448H52.416ZM58.968 40.448H62.892V37.928H58.968V36.524H63.864V33.68H59.2915C59.3464 33.5833 59.4019 33.4857 59.4578 33.3872C59.7412 32.8882 60.0364 32.3682 60.336 31.844L57.5421 31.232H62.6663C63.6846 31.8258 65.4266 33.1179 66.132 33.788C67.3151 31.912 68.2839 29.5203 69.0646 26.84H69.408V30.656C69.4417 33.9915 68.4348 41.2054 63.4069 45.776H58.968V44.372H62.892V41.852H58.968V40.448ZM55.368 44.372H52.416V45.776H55.368V44.372ZM52.416 48.692V50.132H48.78V41.6447C48.4169 42.1301 48.0442 42.5852 47.664 43.004C47.268 42.176 46.152 40.376 45.504 39.584C47.4122 37.5023 49.0195 34.4176 49.9713 31.232H47.124V24.032H54.792V31.232H51.4329L53.604 31.808C53.4105 32.4314 53.1978 33.0573 52.9676 33.68H55.7141C56.0262 32.8491 56.3113 31.9679 56.5018 31.232H55.872V24.032H63.72V29.2236C65.3581 25.789 66.3033 21.1012 66.78 16.364L71.028 16.976C70.7688 19.0046 70.439 21.019 70.031 22.952H75.708H76.32L76.932 22.7L79.776 23.708C79.416 27.236 78.732 31.232 77.868 33.932L74.808 32.204C75.0847 30.7743 75.3171 28.8128 75.4863 26.84H73.548V30.656C73.512 34.148 74.664 42.104 80.064 46.496C79.308 47.396 78.12 49.196 77.508 50.24C73.62 47.144 71.856 41.06 71.496 38C71.028 41.132 68.976 47.036 64.692 50.24C64.4912 49.8385 64.158 49.2713 63.786 48.692H52.416ZM55.368 36.524V37.928H52.416V36.524H55.368ZM49.932 18.56H46.26V21.692H49.932V23.456H53.676V21.692H57.06V23.456H60.876V21.692H64.692V18.56H60.876V16.472H57.06V18.56H53.676V16.472H49.932V18.56ZM49.932 28.676V26.552H51.804V28.676H49.932ZM58.68 28.676V26.552H60.732V28.676H58.68ZM97.272 42.068V30.476H89.496V34.472H93.24V42.4445C91.8375 43.6542 90.2965 44.8628 88.992 45.776L91.044 49.916C91.1649 49.8003 91.2844 49.6859 91.4028 49.5726C92.9413 48.1002 94.2737 46.8251 95.544 45.488C97.704 48.296 100.656 49.376 105.048 49.556C109.548 49.736 117.54 49.664 122.148 49.448C122.328 48.26 122.976 46.352 123.444 45.416C118.332 45.812 109.476 45.92 105.012 45.74C101.304 45.56 98.676 44.516 97.272 42.068ZM92.664 17.228L89.28 19.352C91.116 21.188 93.276 23.816 94.104 25.58L97.776 23.168C96.804 21.368 94.572 18.92 92.664 17.228ZM117.72 18.632H109.98V19.5242L107.1 16.436C105.911 17.4418 104.078 18.6024 102.298 19.5027L100.224 18.956V37.0051C99.472 37.1737 98.7701 37.3265 98.136 37.46L99.252 41.276C102.168 40.52 105.84 39.548 109.188 38.612L108.72 34.94C107.202 35.3373 105.661 35.7234 104.184 36.0807V22.4467C106.101 21.6959 108.165 20.7537 109.98 19.7028V44.66H113.904V22.268H117.72V36.92C117.72 37.316 117.576 37.46 117.18 37.46C116.784 37.496 115.56 37.496 114.336 37.46C114.876 38.396 115.38 40.016 115.56 41.06C117.648 41.06 119.16 41.024 120.276 40.412C121.392 39.764 121.716 38.756 121.716 36.992V18.632H119.916H117.72ZM146.988 20.936H133.848V25.148H146.988V33.528C143.839 38.403 138.199 42.9156 132.3 45.2C133.272 46.064 134.676 47.828 135.36 48.908C139.684 46.9159 143.73 43.7598 146.988 39.9596V50.24H151.524V39.7301C154.796 43.6064 158.888 46.8618 163.26 48.872C163.98 47.648 165.384 45.848 166.464 44.912C161.036 42.9238 155.829 39.0822 152.59 34.8178C153.583 35.3635 154.812 36.143 155.448 36.668C156.314 35.8022 157.124 34.7555 157.852 33.5695C159.658 35.0681 161.514 36.6485 162.54 37.748L165.528 34.76C164.189 33.5087 161.698 31.5987 159.614 30.0189C160.101 28.7878 160.506 27.4788 160.812 26.12L156.636 25.364C155.913 28.8427 154.333 32.0579 152.085 34.1266C151.889 33.8477 151.702 33.5674 151.524 33.286V25.148H165.168V20.936H151.524V16.436H146.988V20.936ZM140.76 33.7551C139.583 35.7173 138.189 37.4044 136.62 38.72C135.9 37.928 134.244 36.524 133.272 35.876C136.44 33.572 138.636 29.756 139.644 25.364L143.856 26.156C143.511 27.5172 143.084 28.8276 142.582 30.0711C143.886 31.1897 145.254 32.4002 146.052 33.248L143.208 36.272C142.636 35.5856 141.731 34.6772 140.76 33.7551ZM194.436 18.704H176.076V22.556H180.826C180.374 24.2928 179.758 26.243 179.13 27.927C177.997 27.9537 176.946 27.9756 176.004 27.992L176.256 31.988C180.303 31.8194 185.834 31.5876 191.222 31.2927C191.569 31.9631 191.856 32.5898 192.06 33.14L195.48 31.196C194.58 28.928 192.276 25.616 190.26 23.168L187.056 24.86C187.715 25.7102 188.397 26.6641 189.045 27.6406C187.128 27.7043 185.23 27.763 183.428 27.8143C184.159 26.1704 184.915 24.332 185.633 22.5871C185.637 22.5767 185.642 22.5664 185.646 22.556H194.436V18.704ZM183.132 35.84H177.156V39.692H183.132V44.3214C180.34 44.6326 177.77 44.9035 175.68 45.092L176.328 49.412C181.26 48.8 188.172 47.9 194.616 47.036L194.508 43.004L193.896 43.076C191.752 43.3283 189.559 43.5863 187.416 43.834V39.692H193.32V35.84H187.416V32.348H183.132V35.84ZM199.908 20.828H195.768V41.204H199.908V20.828ZM208.188 17.444H203.976V45.056C203.976 45.704 203.76 45.884 203.112 45.92C202.998 45.92 202.846 45.9209 202.663 45.922C201.695 45.9278 199.853 45.9388 198.036 45.848C198.648 47.072 199.26 49.016 199.44 50.24C202.5 50.24 204.84 50.096 206.28 49.412C207.72 48.728 208.188 47.54 208.188 45.092V17.444ZM223.596 49.088L224.748 51.968C229.212 50.636 231.876 47.324 231.876 43.256C231.876 40.232 230.508 38.288 227.988 38.288C226.044 38.288 224.424 39.512 224.424 41.528C224.424 43.616 226.08 44.768 227.88 44.768C228.004 44.768 228.127 44.7618 228.249 44.7493C228.024 46.608 226.397 48.1877 223.596 49.088ZM61.596 83.868L59.508 84.516C59.7082 84.8345 59.9038 85.1805 60.0884 85.5374C59.3975 85.5875 58.7217 85.6345 58.067 85.6787C59.44 84.3887 60.9233 82.8322 62.172 81.456L59.94 80.448C59.4427 81.1501 58.7848 81.989 58.0631 82.8414C57.8358 82.5877 57.5712 82.3207 57.2841 82.0511C58.0858 81.1918 59.0648 79.976 60.012 78.792L59.452 78.576H61.776V66.804H51.912H50.364H47.808V99.24H51.912V78.576H57.0852C56.693 79.2654 56.1971 80.0527 55.728 80.7317C55.4476 80.5153 55.1684 80.3104 54.9 80.124L53.496 81.78C54.534 82.5585 55.7336 83.6371 56.5215 84.5721C56.0891 85.0324 55.6574 85.47 55.244 85.8626C55.0244 85.8765 54.8092 85.8901 54.5987 85.9035C54.1079 85.9345 53.6429 85.9639 53.208 85.992L53.46 88.332C55.7095 88.1666 58.2933 87.9404 61.0159 87.6813C61.1145 87.9669 61.1955 88.2354 61.2547 88.476H59.112V91.86C59.112 91.9683 59.1104 92.0763 59.1066 92.184H56.952V89.052H54.288V94.56H58.411C57.8207 95.4081 56.7561 96.156 54.864 96.72C55.476 97.26 56.376 98.376 56.736 99.06C61.308 97.476 61.992 94.776 61.992 91.968V88.476H61.4777L63.1899 87.8767L63.288 88.332C64.2076 88.2471 65.1884 88.1678 66.2084 88.0853C67.5123 87.9798 68.8804 87.8692 70.2671 87.7351C70.3957 88.1059 70.4963 88.4545 70.56 88.764L72.828 88.008C72.54 86.784 71.676 84.984 70.776 83.688L68.616 84.3C68.8667 84.7073 69.1143 85.151 69.3457 85.6056C68.4933 85.6617 67.6668 85.7144 66.8755 85.7631C68.3019 84.4561 69.8118 82.9153 71.1 81.528L68.796 80.484C68.2868 81.1912 67.6165 82.0262 66.8789 82.8733C66.6362 82.6077 66.3601 82.3291 66.0638 82.048C66.9095 81.1428 67.8837 79.9544 68.832 78.792L68.2766 78.576H74.196V94.272C74.196 94.74 74.052 94.92 73.584 94.92C73.116 94.92 71.676 94.92 70.344 94.848C70.884 95.964 71.424 97.908 71.568 99.06C73.944 99.06 75.6 98.988 76.824 98.268C78.048 97.548 78.372 96.36 78.372 94.308V66.804H76.356H74.196H64.116V78.576H65.7992C65.4072 79.2411 64.9219 79.9867 64.4521 80.6519C64.1672 80.4257 63.8842 80.2114 63.612 80.016L62.064 81.6C63.1687 82.4497 64.4293 83.6338 65.2674 84.6261C64.8137 85.0923 64.3594 85.5357 63.9227 85.9339C63.53 85.9549 63.1531 85.9741 62.7939 85.9915C62.4569 85.2649 62.0314 84.5117 61.596 83.868ZM74.196 69.72H68.22V71.412H74.196V69.72ZM74.196 74.004H68.22V75.66H74.196V74.004ZM51.912 75.66H57.708V74.004H51.912V75.66ZM51.912 71.412H57.708V69.72H51.912V71.412ZM66.636 88.476H63.72V98.556H66.636V94.56H71.568V89.052H68.904V92.184H66.636V88.476ZM95.22 70.944H89.568V74.94H93.0483C92.9699 83.9437 92.705 91.5394 88.812 96.252C89.892 97.008 91.26 98.448 91.908 99.492C95.2936 95.4243 96.4981 89.5834 96.9652 82.716H99.8886C99.7438 91.1143 99.5201 94.1418 99.036 94.884C98.748 95.316 98.46 95.424 97.992 95.424C97.416 95.424 96.444 95.424 95.256 95.316C95.868 96.396 96.3 98.052 96.372 99.204C97.884 99.276 99.324 99.24 100.224 99.096C101.268 98.88 101.988 98.556 102.672 97.512C103.608 96.216 103.788 91.968 103.968 80.52C104.004 80.016 104.004 78.792 104.004 78.792H101.304H99.936H97.1583C97.2007 77.5336 97.2288 76.2483 97.2503 74.94H105.264V70.944H99.504V65.472H95.22V70.944ZM105.516 81.96C109.116 79.296 111.996 74.256 113.364 70.296C114.768 74.364 117.648 79.26 121.284 81.924C121.86 80.484 122.652 78.72 123.444 77.532C120.024 75.48 117.072 70.332 115.344 65.292H111.096C109.872 69.72 107.028 75.336 103.536 77.856C104.22 78.9 105.12 80.7 105.516 81.96ZM112.032 79.116L109.188 81.816C111.456 83.4 114.156 85.776 115.344 87.468L118.404 84.408C117.108 82.752 114.3 80.592 112.032 79.116ZM108.72 88.332L106.092 91.68C110.34 93.624 115.632 96.864 118.08 99.276L120.924 95.46C118.332 93.084 112.86 90.096 108.72 88.332ZM157.248 65.616H153.036V69.396H145.044V76.524H147.708V79.692H163.116V76.488H165.888V69.396H157.248V65.616ZM161.892 75.984V73.068H148.86V75.984H161.892ZM165.744 82.284H145.548V86.136H149.523C149.199 91.1671 148.102 94.0913 142.308 95.82C143.136 96.612 144.216 98.196 144.576 99.24C151.633 96.8768 153.153 92.7179 153.612 86.136H156.24V93.984C156.24 97.692 156.96 98.916 160.128 98.916H162.54C165.06 98.916 166.068 97.548 166.428 92.472C165.348 92.22 163.62 91.536 162.828 90.888C162.756 94.56 162.648 95.136 162.072 95.136H160.848C160.38 95.136 160.308 94.992 160.308 93.948V86.136H165.744V82.284ZM141.12 66.984H133.956V99.276H137.736V70.836H140.524C139.948 73.298 139.166 76.4377 138.456 78.72C140.508 81.132 140.976 83.364 140.976 85.056C140.976 86.064 140.796 86.784 140.364 87.108C140.112 87.324 139.752 87.396 139.356 87.396C138.98 87.4273 138.576 87.4041 138.051 87.3738C137.973 87.3693 137.892 87.3647 137.808 87.36C138.384 88.404 138.708 90.024 138.744 91.068C139.572 91.068 140.436 91.032 141.084 90.96C141.876 90.852 142.56 90.6 143.136 90.204C144.288 89.412 144.756 87.9 144.756 85.56C144.756 83.472 144.324 81.06 142.092 78.252C143.136 75.444 144.324 71.52 145.26 68.424L142.452 66.84L141.84 66.984H141.12ZM192.492 67.2H176.508V71.124H192.492V67.2ZM197.879 81.78C197.56 87.3551 196.195 94.3605 191.412 99.204C190.836 98.268 189.216 96.792 188.208 96.288C193.248 91.176 193.716 84.012 193.716 78.648V68.64L196.714 69.3479C200.079 68.3665 203.428 67.0691 205.56 65.796L209.34 69.036C206.045 70.6679 201.856 71.9837 197.964 72.9386V77.64H209.592V81.78H206.352V99.276H202.068V81.78H197.879ZM180.036 73.824H177.66V83.004C177.66 87.18 177.444 92.832 175.068 96.72C175.968 97.188 177.768 98.556 178.452 99.312C180.705 95.7596 181.475 90.5621 181.691 86.136H191.736V73.824H181.764H180.036ZM181.764 77.712V82.284H187.56V77.712H181.764ZM220.824 87.468H225.108L226.008 70.296H219.924L220.824 87.468ZM220.752 91.176C220.152 91.608 219.852 92.376 219.852 93.48C219.852 94.536 220.152 95.304 220.752 95.784C221.352 96.24 222.084 96.468 222.948 96.468C223.788 96.468 224.508 96.24 225.108 95.784C225.708 95.304 226.008 94.536 226.008 93.48C226.008 92.376 225.708 91.608 225.108 91.176C224.508 90.72 223.788 90.492 222.948 90.492C222.084 90.492 221.352 90.72 220.752 91.176Z" fill="white"/>
</g>
<defs>
<clipPath id="clip0_2213_90">
<rect width="277" height="150" fill="white"/>
</clipPath>
</defs>
</svg>
