<svg width="278" height="150" viewBox="0 0 278 150" fill="none" xmlns="http://www.w3.org/2000/svg">
<path fill-rule="evenodd" clip-rule="evenodd" d="M0.763672 0H277.764V120H258.682L238.764 150L218.845 120H0.763672V0ZM55.1797 39.448V40.852H58.1317V39.448H55.1797ZM61.7317 39.448H65.6557V36.928H61.7317V35.524H66.6277V32.68H62.0552C62.1101 32.5833 62.1656 32.4857 62.2215 32.3872C62.5049 31.8882 62.8001 31.3682 63.0997 30.844L60.3058 30.232H65.43C66.4483 30.8258 68.1903 32.1179 68.8957 32.788C70.0787 30.912 71.0476 28.5203 71.8282 25.84H72.1717V29.656C72.2054 32.9915 71.1985 40.2054 66.1705 44.776H61.7317V43.372H65.6557V40.852H61.7317V39.448ZM58.1317 43.372H55.1797V44.776H58.1317V43.372ZM55.1797 47.692V49.132H51.5437V40.6447C51.1806 41.1301 50.8079 41.5852 50.4277 42.004C50.0317 41.176 48.9157 39.376 48.2677 38.584C50.1759 36.5023 51.7831 33.4176 52.735 30.232H49.8877V23.032H57.5557V30.232H54.1966L56.3677 30.808C56.1742 31.4314 55.9615 32.0573 55.7313 32.68H58.4778C58.7899 31.8491 59.075 30.9679 59.2655 30.232H58.6357V23.032H66.4837V28.2236C68.1218 24.789 69.067 20.1012 69.5437 15.364L73.7917 15.976C73.5325 18.0046 73.2027 20.019 72.7946 21.952H78.4717H79.0837L79.6957 21.7L82.5397 22.708C82.1797 26.236 81.4957 30.232 80.6317 32.932L77.5717 31.204C77.8484 29.7743 78.0808 27.8128 78.25 25.84H76.3117V29.656C76.2757 33.148 77.4277 41.104 82.8277 45.496C82.0717 46.396 80.8837 48.196 80.2717 49.24C76.3837 46.144 74.6197 40.06 74.2597 37C73.7917 40.132 71.7397 46.036 67.4557 49.24C67.2549 48.8385 66.9216 48.2713 66.5497 47.692H55.1797ZM58.1317 35.524V36.928H55.1797V35.524H58.1317ZM52.6957 17.56H49.0237V20.692H52.6957V22.456H56.4397V20.692H59.8237V22.456H63.6397V20.692H67.4557V17.56H63.6397V15.472H59.8237V17.56H56.4397V15.472H52.6957V17.56ZM52.6957 27.676V25.552H54.5677V27.676H52.6957ZM61.4437 27.676V25.552H63.4957V27.676H61.4437ZM100.036 41.068V29.476H92.2597V33.472H96.0037V41.4445C94.6011 42.6542 93.0602 43.8628 91.7557 44.776L93.8077 48.916C93.9285 48.8003 94.0481 48.6859 94.1664 48.5726C95.705 47.1002 97.0374 45.8251 98.3077 44.488C100.468 47.296 103.42 48.376 107.812 48.556C112.312 48.736 120.304 48.664 124.912 48.448C125.092 47.26 125.74 45.352 126.208 44.416C121.096 44.812 112.24 44.92 107.776 44.74C104.068 44.56 101.44 43.516 100.036 41.068ZM95.4277 16.228L92.0437 18.352C93.8797 20.188 96.0397 22.816 96.8677 24.58L100.54 22.168C99.5677 20.368 97.3357 17.92 95.4277 16.228ZM120.484 17.632H112.744V18.5242L109.864 15.436C108.675 16.4418 106.841 17.6024 105.062 18.5027L102.988 17.956V36.0051C102.236 36.1737 101.534 36.3265 100.9 36.46L102.016 40.276C104.932 39.52 108.604 38.548 111.952 37.612L111.484 33.94C109.965 34.3373 108.425 34.7234 106.948 35.0807V21.4467C108.864 20.6959 110.929 19.7537 112.744 18.7028V43.66H116.668V21.268H120.484V35.92C120.484 36.316 120.34 36.46 119.944 36.46C119.548 36.496 118.324 36.496 117.1 36.46C117.64 37.396 118.144 39.016 118.324 40.06C120.412 40.06 121.924 40.024 123.04 39.412C124.156 38.764 124.48 37.756 124.48 35.992V17.632H122.68H120.484ZM149.752 19.936H136.612V24.148H149.752V32.528C146.602 37.403 140.962 41.9156 135.064 44.2C136.036 45.064 137.44 46.828 138.124 47.908C142.448 45.9159 146.494 42.7598 149.752 38.9596V49.24H154.288V38.7301C157.56 42.6064 161.652 45.8618 166.024 47.872C166.744 46.648 168.148 44.848 169.228 43.912C163.8 41.9238 158.593 38.0822 155.354 33.8178C156.347 34.3635 157.576 35.143 158.212 35.668C159.077 34.8022 159.888 33.7555 160.615 32.5695C162.422 34.0681 164.277 35.6485 165.304 36.748L168.292 33.76C166.953 32.5087 164.462 30.5987 162.377 29.0189C162.864 27.7878 163.27 26.4788 163.576 25.12L159.4 24.364C158.676 27.8427 157.096 31.0579 154.849 33.1266C154.653 32.8477 154.466 32.5674 154.288 32.286V24.148H167.932V19.936H154.288V15.436H149.752V19.936ZM143.524 32.7551C142.347 34.7173 140.952 36.4044 139.384 37.72C138.664 36.928 137.008 35.524 136.036 34.876C139.204 32.572 141.4 28.756 142.408 24.364L146.62 25.156C146.275 26.5172 145.848 27.8276 145.346 29.0711C146.65 30.1897 148.018 31.4002 148.816 32.248L145.972 35.272C145.4 34.5856 144.495 33.6772 143.524 32.7551ZM197.2 17.704H178.84V21.556H183.589C183.137 23.2928 182.521 25.243 181.894 26.927C180.761 26.9537 179.709 26.9756 178.768 26.992L179.02 30.988C183.066 30.8194 188.597 30.5876 193.986 30.2927C194.332 30.9631 194.62 31.5898 194.824 32.14L198.244 30.196C197.344 27.928 195.04 24.616 193.024 22.168L189.82 23.86C190.478 24.7102 191.161 25.6641 191.809 26.6406C189.892 26.7043 187.994 26.763 186.192 26.8143C186.923 25.1704 187.679 23.332 188.397 21.5871C188.401 21.5767 188.405 21.5664 188.409 21.556H197.2V17.704ZM185.896 34.84H179.92V38.692H185.896V43.3214C183.103 43.6326 180.533 43.9035 178.444 44.092L179.092 48.412C184.024 47.8 190.936 46.9 197.38 46.036L197.272 42.004L196.66 42.076C194.516 42.3283 192.323 42.5863 190.18 42.834V38.692H196.084V34.84H190.18V31.348H185.896V34.84ZM202.672 19.828H198.532V40.204H202.672V19.828ZM210.952 16.444H206.74V44.056C206.74 44.704 206.524 44.884 205.876 44.92C205.761 44.92 205.61 44.9209 205.427 44.922C204.459 44.9278 202.617 44.9388 200.8 44.848C201.412 46.072 202.024 48.016 202.204 49.24C205.264 49.24 207.604 49.096 209.044 48.412C210.484 47.728 210.952 46.54 210.952 44.092V16.444ZM64.3597 82.868L62.2717 83.516C62.4719 83.8345 62.6674 84.1805 62.852 84.5374C62.1612 84.5875 61.4854 84.6345 60.8307 84.6787C62.2037 83.3887 63.6869 81.8322 64.9357 80.456L62.7037 79.448C62.2063 80.1501 61.5485 80.989 60.8268 81.8414C60.5994 81.5877 60.3349 81.3207 60.0477 81.0511C60.8494 80.1918 61.8284 78.976 62.7757 77.792L62.2157 77.576H64.5397V65.804H54.6757H53.1277H50.5717V98.24H54.6757V77.576H59.8488C59.4567 78.2654 58.9608 79.0527 58.4917 79.7317C58.2113 79.5153 57.9321 79.3104 57.6637 79.124L56.2597 80.78C57.2976 81.5585 58.4972 82.6371 59.2852 83.5721C58.8527 84.0324 58.4211 84.47 58.0076 84.8626C57.788 84.8765 57.5728 84.8901 57.3624 84.9035C56.8716 84.9345 56.4066 84.9639 55.9717 84.992L56.2237 87.332C58.4731 87.1666 61.0569 86.9404 63.7796 86.6813C63.8782 86.9669 63.9592 87.2354 64.0184 87.476H61.8757V90.86C61.8757 90.9683 61.8741 91.0763 61.8703 91.184H59.7157V88.052H57.0517V93.56H61.1746C60.5844 94.4081 59.5198 95.156 57.6277 95.72C58.2397 96.26 59.1397 97.376 59.4997 98.06C64.0717 96.476 64.7557 93.776 64.7557 90.968V87.476H64.2414L65.9536 86.8767L66.0517 87.332C66.9713 87.2471 67.952 87.1678 68.9721 87.0853C70.276 86.9798 71.6441 86.8692 73.0308 86.7351C73.1594 87.1059 73.26 87.4545 73.3237 87.764L75.5917 87.008C75.3037 85.784 74.4397 83.984 73.5397 82.688L71.3797 83.3C71.6303 83.7073 71.878 84.151 72.1094 84.6056C71.257 84.6617 70.4305 84.7144 69.6392 84.7631C71.0656 83.4561 72.5755 81.9153 73.8637 80.528L71.5597 79.484C71.0505 80.1912 70.3801 81.0262 69.6425 81.8733C69.3999 81.6077 69.1237 81.3291 68.8275 81.048C69.6731 80.1428 70.6474 78.9544 71.5957 77.792L71.0402 77.576H76.9597V93.272C76.9597 93.74 76.8157 93.92 76.3477 93.92C75.8797 93.92 74.4397 93.92 73.1077 93.848C73.6477 94.964 74.1877 96.908 74.3317 98.06C76.7077 98.06 78.3637 97.988 79.5877 97.268C80.8117 96.548 81.1357 95.36 81.1357 93.308V65.804H79.1197H76.9597H66.8797V77.576H68.5629C68.1709 78.2411 67.6855 78.9867 67.2157 79.6519C66.9308 79.4257 66.6478 79.2114 66.3757 79.016L64.8277 80.6C65.9323 81.4497 67.193 82.6338 68.031 83.6261C67.5774 84.0923 67.1231 84.5357 66.6863 84.9339C66.2936 84.9549 65.9168 84.9741 65.5576 84.9915C65.2206 84.2649 64.7951 83.5117 64.3597 82.868ZM76.9597 68.72H70.9837V70.412H76.9597V68.72ZM76.9597 73.004H70.9837V74.66H76.9597V73.004ZM54.6757 74.66H60.4717V73.004H54.6757V74.66ZM54.6757 70.412H60.4717V68.72H54.6757V70.412ZM69.3997 87.476H66.4837V97.556H69.3997V93.56H74.3317V88.052H71.6677V91.184H69.3997V87.476ZM97.9837 69.944H92.3317V73.94H95.812C95.7336 82.9437 95.4687 90.5394 91.5757 95.252C92.6557 96.008 94.0237 97.448 94.6717 98.492C98.0572 94.4243 99.2618 88.5834 99.7289 81.716H102.652C102.507 90.1143 102.284 93.1418 101.8 93.884C101.512 94.316 101.224 94.424 100.756 94.424C100.18 94.424 99.2077 94.424 98.0197 94.316C98.6317 95.396 99.0637 97.052 99.1357 98.204C100.648 98.276 102.088 98.24 102.988 98.096C104.032 97.88 104.752 97.556 105.436 96.512C106.372 95.216 106.552 90.968 106.732 79.52C106.768 79.016 106.768 77.792 106.768 77.792H104.068H102.7H99.922C99.9644 76.5336 99.9925 75.2483 100.014 73.94H108.028V69.944H102.268V64.472H97.9837V69.944ZM108.28 80.96C111.88 78.296 114.76 73.256 116.128 69.296C117.532 73.364 120.412 78.26 124.048 80.924C124.624 79.484 125.416 77.72 126.208 76.532C122.788 74.48 119.836 69.332 118.108 64.292H113.86C112.636 68.72 109.792 74.336 106.3 76.856C106.984 77.9 107.884 79.7 108.28 80.96ZM114.796 78.116L111.952 80.816C114.22 82.4 116.92 84.776 118.108 86.468L121.168 83.408C119.872 81.752 117.064 79.592 114.796 78.116ZM111.484 87.332L108.856 90.68C113.104 92.624 118.396 95.864 120.844 98.276L123.688 94.46C121.096 92.084 115.624 89.096 111.484 87.332ZM160.012 64.616H155.8V68.396H147.808V75.524H150.472V78.692H165.88V75.488H168.652V68.396H160.012V64.616ZM164.656 74.984V72.068H151.624V74.984H164.656ZM168.508 81.284H148.312V85.136H152.287C151.963 90.1671 150.866 93.0913 145.072 94.82C145.9 95.612 146.98 97.196 147.34 98.24C154.397 95.8768 155.917 91.7179 156.376 85.136H159.004V92.984C159.004 96.692 159.724 97.916 162.892 97.916H165.304C167.824 97.916 168.832 96.548 169.192 91.472C168.112 91.22 166.384 90.536 165.592 89.888C165.52 93.56 165.412 94.136 164.836 94.136H163.612C163.144 94.136 163.072 93.992 163.072 92.948V85.136H168.508V81.284ZM143.884 65.984H136.72V98.276H140.5V69.836H143.287C142.711 72.298 141.93 75.4377 141.22 77.72C143.272 80.132 143.74 82.364 143.74 84.056C143.74 85.064 143.56 85.784 143.128 86.108C142.876 86.324 142.516 86.396 142.12 86.396C141.743 86.4273 141.34 86.4041 140.814 86.3738C140.736 86.3693 140.655 86.3647 140.572 86.36C141.148 87.404 141.472 89.024 141.508 90.068C142.336 90.068 143.2 90.032 143.848 89.96C144.64 89.852 145.324 89.6 145.9 89.204C147.052 88.412 147.52 86.9 147.52 84.56C147.52 82.472 147.088 80.06 144.856 77.252C145.9 74.444 147.088 70.52 148.024 67.424L145.216 65.84L144.604 65.984H143.884ZM195.256 66.2H179.272V70.124H195.256V66.2ZM200.643 80.78C200.323 86.3551 198.959 93.3605 194.176 98.204C193.6 97.268 191.98 95.792 190.972 95.288C196.012 90.176 196.48 83.012 196.48 77.648V67.64L199.478 68.3479C202.843 67.3665 206.192 66.0691 208.324 64.796L212.104 68.036C208.809 69.6679 204.619 70.9837 200.728 71.9386V76.64H212.356V80.78H209.116V98.276H204.832V80.78H200.643ZM182.8 72.824H180.424V82.004C180.424 86.18 180.208 91.832 177.832 95.72C178.732 96.188 180.532 97.556 181.216 98.312C183.468 94.7596 184.238 89.5621 184.455 85.136H194.5V72.824H184.528H182.8ZM184.528 76.712V81.284H190.324V76.712H184.528ZM223.588 86.468H227.872L228.772 69.296H222.688L223.588 86.468ZM223.516 90.176C222.916 90.608 222.616 91.376 222.616 92.48C222.616 93.536 222.916 94.304 223.516 94.784C224.116 95.24 224.848 95.468 225.712 95.468C226.552 95.468 227.272 95.24 227.872 94.784C228.472 94.304 228.772 93.536 228.772 92.48C228.772 91.376 228.472 90.608 227.872 90.176C227.272 89.72 226.552 89.492 225.712 89.492C224.848 89.492 224.116 89.72 223.516 90.176Z" fill="white"/>
</svg>
