<svg width="220" height="220" viewBox="0 0 220 220" fill="none" xmlns="http://www.w3.org/2000/svg">
<rect width="220" height="220" fill="#0F0F0F" fill-opacity="0.3"/>
<path d="M188.312 25.3125C188.561 25.3125 188.8 25.4113 188.975 25.5871C189.151 25.7629 189.25 26.0014 189.25 26.25V37.5C189.25 37.7486 189.151 37.9871 188.975 38.1629C188.8 38.3387 188.561 38.4375 188.312 38.4375C188.064 38.4375 187.825 38.3387 187.65 38.1629C187.474 37.9871 187.375 37.7486 187.375 37.5V26.25C187.375 26.0014 187.474 25.7629 187.65 25.5871C187.825 25.4113 188.064 25.3125 188.312 25.3125ZM193 25.3125C193.249 25.3125 193.487 25.4113 193.663 25.5871C193.839 25.7629 193.938 26.0014 193.938 26.25V37.5C193.938 37.7486 193.839 37.9871 193.663 38.1629C193.487 38.3387 193.249 38.4375 193 38.4375C192.751 38.4375 192.513 38.3387 192.337 38.1629C192.161 37.9871 192.062 37.7486 192.062 37.5V26.25C192.062 26.0014 192.161 25.7629 192.337 25.5871C192.513 25.4113 192.751 25.3125 193 25.3125ZM198.625 26.25C198.625 26.0014 198.526 25.7629 198.35 25.5871C198.175 25.4113 197.936 25.3125 197.688 25.3125C197.439 25.3125 197.2 25.4113 197.025 25.5871C196.849 25.7629 196.75 26.0014 196.75 26.25V37.5C196.75 37.7486 196.849 37.9871 197.025 38.1629C197.2 38.3387 197.439 38.4375 197.688 38.4375C197.936 38.4375 198.175 38.3387 198.35 38.1629C198.526 37.9871 198.625 37.7486 198.625 37.5V26.25Z" fill="white"/>
<path fill-rule="evenodd" clip-rule="evenodd" d="M205.188 20.625C205.188 21.1223 204.99 21.5992 204.638 21.9508C204.287 22.3025 203.81 22.5 203.312 22.5H202.375V39.375C202.375 40.3696 201.98 41.3234 201.277 42.0266C200.573 42.7299 199.62 43.125 198.625 43.125H187.375C186.38 43.125 185.427 42.7299 184.723 42.0266C184.02 41.3234 183.625 40.3696 183.625 39.375V22.5H182.688C182.19 22.5 181.713 22.3025 181.362 21.9508C181.01 21.5992 180.812 21.1223 180.812 20.625V18.75C180.812 18.2527 181.01 17.7758 181.362 17.4242C181.713 17.0725 182.19 16.875 182.688 16.875H189.25C189.25 16.3777 189.448 15.9008 189.799 15.5492C190.151 15.1975 190.628 15 191.125 15H194.875C195.372 15 195.849 15.1975 196.201 15.5492C196.552 15.9008 196.75 16.3777 196.75 16.875H203.312C203.81 16.875 204.287 17.0725 204.638 17.4242C204.99 17.7758 205.188 18.2527 205.188 18.75V20.625ZM185.721 22.5L185.5 22.6106V39.375C185.5 39.8723 185.698 40.3492 186.049 40.7008C186.401 41.0525 186.878 41.25 187.375 41.25H198.625C199.122 41.25 199.599 41.0525 199.951 40.7008C200.302 40.3492 200.5 39.8723 200.5 39.375V22.6106L200.279 22.5H185.721ZM182.688 20.625V18.75H203.312V20.625H182.688Z" fill="white"/>
</svg>
