<svg width="221" height="220" viewBox="0 0 221 220" fill="none" xmlns="http://www.w3.org/2000/svg">
<path d="M137.692 110.637L133.254 114.129L138.503 116.212C150.386 120.928 160.762 128.789 168.519 138.953C176.274 149.115 181.117 161.196 182.531 173.9C182.645 174.979 182.328 176.059 181.651 176.906C181.005 177.713 180.081 178.247 179.063 178.404H178.466H178.456L178.446 178.404C177.427 178.41 176.443 178.039 175.682 177.362C174.921 176.685 174.438 175.75 174.326 174.738L174.326 174.732C172.618 159.532 165.37 145.494 153.967 135.3C142.564 125.105 127.804 119.47 112.508 119.47C97.2124 119.47 82.4528 125.105 71.0493 135.3C59.6459 145.494 52.398 159.532 50.6906 174.732L50.6897 174.74C50.569 175.838 50.0171 176.842 49.1555 177.533L51.1886 180.069L49.1555 177.533C48.2939 178.224 47.1932 178.544 46.0954 178.424C44.9977 178.303 43.9929 177.751 43.302 176.889L40.7693 178.92L43.302 176.889C42.96 176.463 42.7053 175.973 42.5525 175.448C42.3999 174.923 42.352 174.374 42.4115 173.831C43.8175 161.161 48.6354 149.109 56.3517 138.961C64.0683 128.813 74.3941 120.949 86.2284 116.208L91.4509 114.116L87.0293 110.637C80.3353 105.37 75.4493 98.148 73.051 89.9752C70.6527 81.8024 70.8615 73.0852 73.6481 65.0366C76.4348 56.9879 81.6609 50.0079 88.5993 45.0677C95.5376 40.1274 103.843 37.4727 112.361 37.4727C120.878 37.4727 129.184 40.1274 136.122 45.0677C143.061 50.0079 148.287 56.9879 151.073 65.0366C153.86 73.0852 154.069 81.8024 151.67 89.9752C149.272 98.148 144.386 105.37 137.692 110.637ZM94.178 105.693C99.5601 109.289 105.888 111.209 112.361 111.209C121.041 111.209 129.365 107.76 135.503 101.623C141.641 95.485 145.089 87.1605 145.089 78.4804C145.089 72.0074 143.169 65.6798 139.573 60.2976C135.977 54.9155 130.866 50.7207 124.885 48.2435C118.905 45.7664 112.324 45.1183 105.976 46.3811C99.6272 47.6439 93.7956 50.761 89.2184 55.3381C84.6413 59.9152 81.5243 65.7468 80.2614 72.0955C78.9986 78.4441 79.6467 85.0247 82.1239 91.005C84.601 96.9853 88.7958 102.097 94.178 105.693Z" fill="black" stroke="white" stroke-width="6.5"/>
<circle cx="110.023" cy="110" r="109.5" stroke="black"/>
</svg>
