<svg width="1143" height="570" viewBox="0 0 1143 570" fill="none" xmlns="http://www.w3.org/2000/svg">
<g clip-path="url(#clip0_2358_55)">
<path d="M1143 0H0V570H1143V0Z" fill="#0F0F0F" fill-opacity="0.3"/>
<path d="M1111.31 25.3125C1111.56 25.3125 1111.8 25.4113 1111.98 25.5871C1112.15 25.7629 1112.25 26.0014 1112.25 26.25V37.5C1112.25 37.7486 1112.15 37.9871 1111.98 38.1629C1111.8 38.3387 1111.56 38.4375 1111.31 38.4375C1111.06 38.4375 1110.82 38.3387 1110.65 38.1629C1110.47 37.9871 1110.38 37.7486 1110.38 37.5V26.25C1110.38 26.0014 1110.47 25.7629 1110.65 25.5871C1110.82 25.4113 1111.06 25.3125 1111.31 25.3125ZM1116 25.3125C1116.25 25.3125 1116.49 25.4113 1116.66 25.5871C1116.84 25.7629 1116.94 26.0014 1116.94 26.25V37.5C1116.94 37.7486 1116.84 37.9871 1116.66 38.1629C1116.49 38.3387 1116.25 38.4375 1116 38.4375C1115.75 38.4375 1115.51 38.3387 1115.34 38.1629C1115.16 37.9871 1115.06 37.7486 1115.06 37.5V26.25C1115.06 26.0014 1115.16 25.7629 1115.34 25.5871C1115.51 25.4113 1115.75 25.3125 1116 25.3125ZM1121.62 26.25C1121.62 26.0014 1121.53 25.7629 1121.35 25.5871C1121.18 25.4113 1120.94 25.3125 1120.69 25.3125C1120.44 25.3125 1120.2 25.4113 1120.02 25.5871C1119.85 25.7629 1119.75 26.0014 1119.75 26.25V37.5C1119.75 37.7486 1119.85 37.9871 1120.02 38.1629C1120.2 38.3387 1120.44 38.4375 1120.69 38.4375C1120.94 38.4375 1121.18 38.3387 1121.35 38.1629C1121.53 37.9871 1121.62 37.7486 1121.62 37.5V26.25Z" fill="white"/>
<path fill-rule="evenodd" clip-rule="evenodd" d="M1128.19 20.625C1128.19 21.1223 1127.99 21.5992 1127.64 21.9508C1127.29 22.3025 1126.81 22.5 1126.31 22.5H1125.37V39.375C1125.37 40.3696 1124.98 41.3234 1124.28 42.0266C1123.57 42.7299 1122.62 43.125 1121.62 43.125H1110.37C1109.38 43.125 1108.43 42.7299 1107.72 42.0266C1107.02 41.3234 1106.62 40.3696 1106.62 39.375V22.5H1105.69C1105.19 22.5 1104.71 22.3025 1104.36 21.9508C1104.01 21.5992 1103.81 21.1223 1103.81 20.625V18.75C1103.81 18.2527 1104.01 17.7758 1104.36 17.4242C1104.71 17.0725 1105.19 16.875 1105.69 16.875H1112.25C1112.25 16.3777 1112.45 15.9008 1112.8 15.5492C1113.15 15.1975 1113.63 15 1114.12 15H1117.87C1118.37 15 1118.85 15.1975 1119.2 15.5492C1119.55 15.9008 1119.75 16.3777 1119.75 16.875H1126.31C1126.81 16.875 1127.29 17.0725 1127.64 17.4242C1127.99 17.7758 1128.19 18.2527 1128.19 18.75V20.625ZM1108.72 22.5L1108.5 22.6106V39.375C1108.5 39.8723 1108.7 40.3492 1109.05 40.7008C1109.4 41.0525 1109.88 41.25 1110.37 41.25H1121.62C1122.12 41.25 1122.6 41.0525 1122.95 40.7008C1123.3 40.3492 1123.5 39.8723 1123.5 39.375V22.6106L1123.28 22.5H1108.72ZM1105.69 20.625V18.75H1126.31V20.625H1105.69Z" fill="white"/>
</g>
<defs>
<clipPath id="clip0_2358_55">
<rect width="1143" height="570" fill="white"/>
</clipPath>
</defs>
</svg>
