<svg width="220" height="220" viewBox="0 0 220 220" fill="none" xmlns="http://www.w3.org/2000/svg">
<circle cx="110" cy="110" r="109.5" fill="white" fill-opacity="0.5" stroke="#34424F"/>
<path d="M109.808 103.446C90.636 103.446 63.4534 129.944 63.4534 146.671C63.4534 154.204 69.9261 158.705 80.7736 158.705C92.5651 158.705 100.351 153.291 109.808 153.291C119.347 153.291 127.155 158.705 138.842 158.705C149.69 158.705 156.163 154.204 156.163 146.671C156.163 129.944 128.98 103.446 109.808 103.446ZM74.2502 100.724C71.7393 93.2444 64.0039 88.4006 56.9734 89.9029C49.943 91.4053 46.2805 98.6861 48.7913 106.165C51.3022 113.645 59.0376 118.489 66.0681 116.986C73.0985 115.484 76.761 108.203 74.2502 100.724ZM94.7041 96.2383C102.174 94.4812 105.911 85.4585 103.053 76.0861C100.194 66.7136 91.8215 60.5423 84.3516 62.2994C76.8818 64.0565 73.1444 73.0792 76.0029 82.4516C78.8615 91.824 87.2367 97.9975 94.7041 96.2383ZM162.64 89.9051C155.61 88.4027 147.877 93.2465 145.363 100.726C142.853 108.205 146.515 115.486 153.546 116.988C160.576 118.491 168.309 113.647 170.822 106.168C173.333 98.6882 169.671 91.4074 162.64 89.9051ZM124.912 96.2383C132.382 97.9953 140.755 91.824 143.613 82.4516C146.472 73.0792 142.734 64.0586 135.264 62.2994C127.795 60.5402 119.422 66.7136 116.563 76.0861C113.705 85.4585 117.442 94.4812 124.912 96.2383Z" fill="black"/>
</svg>
