<svg width="277" height="150" viewBox="0 0 277 150" fill="none" xmlns="http://www.w3.org/2000/svg">
<g clip-path="url(#clip0_2214_97)">
<path fill-rule="evenodd" clip-rule="evenodd" d="M0 0H277V120H257.919L238 150L218.081 120H0V0ZM52.416 40.448V41.852H55.368V40.448H52.416ZM58.968 40.448H62.892V37.928H58.968V36.524H63.864V33.68H59.2915C59.3464 33.5833 59.4019 33.4857 59.4578 33.3872C59.7412 32.8882 60.0364 32.3682 60.336 31.844L57.5421 31.232H62.6663C63.6846 31.8258 65.4266 33.1179 66.132 33.788C67.3151 31.912 68.2839 29.5203 69.0646 26.84H69.408V30.656C69.4417 33.9915 68.4348 41.2054 63.4069 45.776H58.968V44.372H62.892V41.852H58.968V40.448ZM55.368 44.372H52.416V45.776H55.368V44.372ZM52.416 48.692V50.132H48.78V41.6447C48.4169 42.1301 48.0442 42.5852 47.664 43.004C47.268 42.176 46.152 40.376 45.504 39.584C47.4122 37.5023 49.0195 34.4176 49.9713 31.232H47.124V24.032H54.792V31.232H51.4329L53.604 31.808C53.4105 32.4314 53.1978 33.0573 52.9676 33.68H55.7141C56.0262 32.8491 56.3113 31.9679 56.5018 31.232H55.872V24.032H63.72V29.2236C65.3581 25.789 66.3033 21.1012 66.78 16.364L71.028 16.976C70.7688 19.0046 70.439 21.019 70.031 22.952H75.708H76.32L76.932 22.7L79.776 23.708C79.416 27.236 78.732 31.232 77.868 33.932L74.808 32.204C75.0847 30.7743 75.3171 28.8128 75.4863 26.84H73.548V30.656C73.512 34.148 74.664 42.104 80.064 46.496C79.308 47.396 78.12 49.196 77.508 50.24C73.62 47.144 71.856 41.06 71.496 38C71.028 41.132 68.976 47.036 64.692 50.24C64.4912 49.8385 64.158 49.2713 63.786 48.692H52.416ZM55.368 36.524V37.928H52.416V36.524H55.368ZM49.932 18.56H46.26V21.692H49.932V23.456H53.676V21.692H57.06V23.456H60.876V21.692H64.692V18.56H60.876V16.472H57.06V18.56H53.676V16.472H49.932V18.56ZM49.932 28.676V26.552H51.804V28.676H49.932ZM58.68 28.676V26.552H60.732V28.676H58.68ZM97.272 42.068V30.476H89.496V34.472H93.24V42.4445C91.8375 43.6542 90.2965 44.8628 88.992 45.776L91.044 49.916C91.1649 49.8003 91.2844 49.6859 91.4028 49.5726C92.9413 48.1002 94.2737 46.8251 95.544 45.488C97.704 48.296 100.656 49.376 105.048 49.556C109.548 49.736 117.54 49.664 122.148 49.448C122.328 48.26 122.976 46.352 123.444 45.416C118.332 45.812 109.476 45.92 105.012 45.74C101.304 45.56 98.676 44.516 97.272 42.068ZM92.664 17.228L89.28 19.352C91.116 21.188 93.276 23.816 94.104 25.58L97.776 23.168C96.804 21.368 94.572 18.92 92.664 17.228ZM117.72 18.632H109.98V19.5242L107.1 16.436C105.911 17.4418 104.078 18.6024 102.298 19.5027L100.224 18.956V37.0051C99.472 37.1737 98.7701 37.3265 98.136 37.46L99.252 41.276C102.168 40.52 105.84 39.548 109.188 38.612L108.72 34.94C107.202 35.3373 105.661 35.7234 104.184 36.0807V22.4467C106.101 21.6959 108.165 20.7537 109.98 19.7028V44.66H113.904V22.268H117.72V36.92C117.72 37.316 117.576 37.46 117.18 37.46C116.784 37.496 115.56 37.496 114.336 37.46C114.876 38.396 115.38 40.016 115.56 41.06C117.648 41.06 119.16 41.024 120.276 40.412C121.392 39.764 121.716 38.756 121.716 36.992V18.632H119.916H117.72ZM146.988 20.936H133.848V25.148H146.988V33.528C143.839 38.403 138.199 42.9156 132.3 45.2C133.272 46.064 134.676 47.828 135.36 48.908C139.684 46.9159 143.73 43.7598 146.988 39.9596V50.24H151.524V39.7301C154.796 43.6064 158.888 46.8618 163.26 48.872C163.98 47.648 165.384 45.848 166.464 44.912C161.036 42.9238 155.829 39.0822 152.59 34.8178C153.583 35.3635 154.812 36.143 155.448 36.668C156.314 35.8022 157.124 34.7555 157.852 33.5695C159.658 35.0681 161.514 36.6485 162.54 37.748L165.528 34.76C164.189 33.5087 161.698 31.5987 159.614 30.0189C160.101 28.7878 160.506 27.4788 160.812 26.12L156.636 25.364C155.913 28.8427 154.333 32.0579 152.085 34.1266C151.889 33.8477 151.702 33.5674 151.524 33.286V25.148H165.168V20.936H151.524V16.436H146.988V20.936ZM140.76 33.7551C139.583 35.7173 138.189 37.4044 136.62 38.72C135.9 37.928 134.244 36.524 133.272 35.876C136.44 33.572 138.636 29.756 139.644 25.364L143.856 26.156C143.511 27.5172 143.084 28.8276 142.582 30.0711C143.886 31.1897 145.254 32.4002 146.052 33.248L143.208 36.272C142.636 35.5856 141.731 34.6772 140.76 33.7551ZM194.436 18.704H176.076V22.556H180.826C180.374 24.2928 179.758 26.243 179.13 27.927C177.997 27.9537 176.946 27.9756 176.004 27.992L176.256 31.988C180.303 31.8194 185.834 31.5876 191.222 31.2927C191.569 31.9631 191.856 32.5898 192.06 33.14L195.48 31.196C194.58 28.928 192.276 25.616 190.26 23.168L187.056 24.86C187.715 25.7102 188.397 26.6641 189.045 27.6406C187.128 27.7043 185.23 27.763 183.428 27.8143C184.159 26.1704 184.915 24.332 185.633 22.5871C185.637 22.5767 185.642 22.5664 185.646 22.556H194.436V18.704ZM183.132 35.84H177.156V39.692H183.132V44.3214C180.34 44.6326 177.77 44.9035 175.68 45.092L176.328 49.412C181.26 48.8 188.172 47.9 194.616 47.036L194.508 43.004L193.896 43.076C191.752 43.3283 189.559 43.5863 187.416 43.834V39.692H193.32V35.84H187.416V32.348H183.132V35.84ZM199.908 20.828H195.768V41.204H199.908V20.828ZM208.188 17.444H203.976V45.056C203.976 45.704 203.76 45.884 203.112 45.92C202.998 45.92 202.846 45.9209 202.663 45.922C201.695 45.9278 199.853 45.9388 198.036 45.848C198.648 47.072 199.26 49.016 199.44 50.24C202.5 50.24 204.84 50.096 206.28 49.412C207.72 48.728 208.188 47.54 208.188 45.092V17.444ZM223.596 49.088L224.748 51.968C229.212 50.636 231.876 47.324 231.876 43.256C231.876 40.232 230.508 38.288 227.988 38.288C226.044 38.288 224.424 39.512 224.424 41.528C224.424 43.616 226.08 44.768 227.88 44.768C228.004 44.768 228.127 44.7618 228.249 44.7493C228.024 46.608 226.397 48.1877 223.596 49.088ZM79.956 85.956L76.5 83.364C75.6684 84.4497 74.4217 85.7874 73.1976 86.9681C72.4892 85.5503 71.9598 84.0794 71.568 82.6595V82.536H78.408V69H70.9542C71.4978 68.0967 72.0549 67.1084 72.576 66.12L67.68 65.364C67.4074 66.4546 66.9299 67.7841 66.424 69H60.768V82.536H67.716V85.7029L65.592 84.84L64.944 84.948H64.188H60.1209L60.516 84.768C60.084 82.716 58.716 79.548 57.276 77.1L54.288 78.36C54.6758 79.0832 55.0575 79.8766 55.4135 80.6895C54.35 80.7538 53.296 80.8158 52.2718 80.8748C54.5548 77.9656 57.0245 74.3771 59.004 71.34L55.512 69.72C54.6382 71.484 53.4776 73.5425 52.2167 75.567C51.8951 75.1126 51.5176 74.6369 51.1065 74.1573C52.2764 72.3148 53.6099 69.7742 54.8457 67.4199C54.9607 67.2007 55.0749 66.9832 55.188 66.768L51.444 65.472C50.8263 67.3251 49.8078 69.7393 48.8072 71.7429C48.5307 71.4778 48.2561 71.2223 47.988 70.98L45.864 73.86C47.3224 75.3475 48.9934 77.3077 49.9964 78.9364C49.4629 79.699 48.9305 80.4251 48.4115 81.0928C47.8974 81.1214 47.4015 81.1488 46.9276 81.1751C46.52 81.1976 46.1287 81.2193 45.756 81.24L46.224 84.948C47.257 84.8702 48.3893 84.7856 49.5851 84.6963C50.1326 84.6554 50.6934 84.6135 51.264 84.5708V99.24H54.972V84.2922C55.5565 84.248 56.1435 84.2034 56.7297 84.1587C56.972 84.9239 57.1607 85.6358 57.276 86.244L59.832 85.0796V88.476H63.291C62.0982 91.3696 60.1494 93.5806 57.744 94.92C58.536 95.496 59.868 96.972 60.408 97.8C63.742 95.7377 66.3869 91.969 67.716 86.5564V95.1C67.716 95.46 67.608 95.568 67.176 95.568C66.78 95.568 65.448 95.568 64.188 95.532C64.656 96.612 65.124 98.16 65.232 99.24C67.428 99.24 68.976 99.168 70.164 98.592C71.316 97.98 71.568 96.972 71.568 95.136V90.9675C73.0271 93.6687 75.0762 96.1827 77.904 97.764C78.444 96.684 79.704 95.064 80.496 94.272C78.1973 93.26 76.4154 91.7197 75.0382 89.9308C76.4148 88.8999 77.9702 87.6068 79.4782 86.3531C79.6381 86.2202 79.7974 86.0877 79.956 85.956ZM64.656 79.188V77.316H74.304V79.188H64.656ZM64.656 74.22V72.312H74.304V74.22H64.656ZM58.284 86.46L55.26 87.396C56.052 89.376 56.736 92.004 56.844 93.66L60.048 92.652C59.832 90.96 59.112 88.44 58.284 86.46ZM50.76 87.18L47.304 86.604C47.016 89.628 46.476 92.868 45.468 94.992L45.5389 95.0228C46.3836 95.3899 47.9001 96.049 48.6 96.504C49.644 94.2 50.4 90.636 50.76 87.18ZM107.352 80.592V93.12H122.652V97.476H89.748V93.12H102.708V65.868H107.352V76.236H120.132V80.592H107.352ZM143.352 66.948H133.164V70.692H141.593C140.877 71.7198 140.062 72.7487 139.259 73.5968C138.139 72.9724 137.003 72.3937 135.972 71.916L133.812 74.76C135.836 75.7599 138.191 77.1729 140.037 78.54H132.336V82.356H137.7V94.524C137.7 94.956 137.556 95.064 137.052 95.064C136.548 95.064 134.856 95.064 133.308 95.028C133.884 96.18 134.46 97.944 134.604 99.168C137.052 99.168 138.852 99.096 140.148 98.412C141.516 97.764 141.84 96.612 141.84 94.632V82.356H144.031C143.621 84.0481 143.166 85.6866 142.776 86.856L145.98 87.576C146.772 85.416 147.78 82.032 148.536 79.008L145.872 78.396L145.296 78.54H144.756H143.603L144.576 77.208C144.004 76.6699 143.24 76.0863 142.37 75.4965C144.208 73.5869 146.079 71.1251 147.492 68.8913V70.476H154.355C154.26 71.2651 154.135 72.0961 154.001 72.888H148.716V92.004H164.844V72.888H158.318C158.577 72.1246 158.842 71.3084 159.102 70.476H165.924V66.84H147.492V68.4758L145.044 66.732L144.252 66.948H143.352ZM152.676 83.58V81.276H160.704V83.58H152.676ZM152.676 88.836V86.532H160.704V88.836H152.676ZM152.676 78.324V76.056H160.704V78.324H152.676ZM155.772 94.344L152.244 92.04C150.66 93.588 147.492 95.532 144.684 96.54C145.62 97.26 146.88 98.556 147.564 99.348C150.372 98.268 153.792 96.252 155.772 94.344ZM160.668 92.292L157.464 94.452C159.516 95.892 162.18 98.016 163.44 99.348L166.824 96.936C165.42 95.568 162.684 93.588 160.668 92.292ZM195.804 79.98L192.348 81.744C194.184 84.336 196.092 87.828 196.74 90.06L200.52 88.116C199.728 85.812 197.676 82.464 195.804 79.98ZM194.55 75.624C193.596 77.4168 192.56 79.0162 191.484 80.304C190.725 79.6712 189.159 78.5936 188.058 77.9264C189.32 80.186 190.494 82.8493 190.908 84.696L187.632 86.208C187.513 85.6432 187.326 84.9856 187.089 84.2773C186.416 84.3291 185.744 84.38 185.076 84.4296V99.276H181.224V84.7061C179.287 84.8402 177.461 84.959 175.86 85.056L175.5 81.312C176.306 81.286 177.206 81.2537 178.176 81.2162C178.732 80.5189 179.301 79.7549 179.868 78.9503C178.792 77.3495 177.043 75.4222 175.536 74.004L177.552 71.016C177.835 71.257 178.124 71.5117 178.414 71.7759C179.434 69.7753 180.459 67.3607 181.08 65.472L184.896 66.804C183.576 69.3159 182.083 72.1446 180.777 74.1306C181.255 74.6559 181.69 75.1732 182.052 75.6561C183.338 73.5999 184.516 71.5053 185.4 69.72L189.036 71.232C186.984 74.4208 184.42 78.1222 182.083 81.053C183.268 81.0004 184.497 80.9431 185.74 80.8824C185.347 80.0174 184.925 79.1684 184.5 78.396L187.56 77.064C187.643 77.2032 187.726 77.3448 187.809 77.4885C190.463 74.6276 192.59 70.0138 193.752 65.4L198.216 66.372C197.72 68.1306 197.12 69.8814 196.441 71.556H204.624H206.46H208.8C208.8 71.556 208.8 72.996 208.764 73.536C208.224 89.412 207.756 95.136 206.244 97.044C205.236 98.412 204.264 98.808 202.752 99.06C201.42 99.24 199.224 99.24 197.1 99.132C197.028 97.908 196.452 96.036 195.66 94.812C197.928 94.992 200.016 94.992 200.952 94.992C201.672 94.992 202.104 94.884 202.5 94.38C203.597 93.2493 204.111 87.9716 204.524 75.624H194.55ZM188.316 86.388L185.148 87.432C186.012 89.628 186.948 92.544 187.272 94.416L190.656 93.192C190.224 91.356 189.252 88.548 188.316 86.388ZM180.612 87.216L177.048 86.604C176.76 89.664 176.184 92.868 175.14 94.992C176.04 95.352 177.66 96.108 178.416 96.576C179.46 94.272 180.252 90.672 180.612 87.216ZM220.824 87.468H225.108L226.008 70.296H219.924L220.824 87.468ZM220.752 91.176C220.152 91.608 219.852 92.376 219.852 93.48C219.852 94.536 220.152 95.304 220.752 95.784C221.352 96.24 222.084 96.468 222.948 96.468C223.788 96.468 224.508 96.24 225.108 95.784C225.708 95.304 226.008 94.536 226.008 93.48C226.008 92.376 225.708 91.608 225.108 91.176C224.508 90.72 223.788 90.492 222.948 90.492C222.084 90.492 221.352 90.72 220.752 91.176Z" fill="white"/>
</g>
<defs>
<clipPath id="clip0_2214_97">
<rect width="277" height="150" fill="white"/>
</clipPath>
</defs>
</svg>
