<svg width="68" height="101" viewBox="0 0 68 101" fill="none" xmlns="http://www.w3.org/2000/svg">
<path fill-rule="evenodd" clip-rule="evenodd" d="M24.3712 6.37307C21.0419 5.8909 18.2343 6.25099 15.7356 7.7015C13.0554 9.2574 10.9767 11.9325 8.95593 15.4497C5.42753 21.5912 3.14461 31.4799 1.86206 41.1987C0.572883 50.9676 0.257583 60.8664 0.816777 67.1892C0.900454 68.1353 1.73588 68.8346 2.68275 68.7509C3.62962 68.6673 4.32938 67.8326 4.2457 66.8864C3.71484 60.884 4.00792 51.2483 5.2748 41.6483C6.54829 31.9982 8.76909 22.6836 11.9413 17.1622C13.8753 13.7958 15.5831 11.768 17.4649 10.6756C19.2753 9.62459 21.4865 9.30584 24.7582 9.92468C27.0744 10.3628 29.1184 11.9032 30.1525 15.1113C30.4439 16.0154 31.4136 16.5123 32.3184 16.2211C33.2232 15.9299 33.7204 14.9609 33.429 14.0569C32.3976 10.857 30.491 8.66518 28.1095 7.45962C29.0891 6.55108 30.3069 5.62747 31.6291 4.89006C33.9114 3.6172 36.1119 3.11137 37.7958 3.66206C40.5798 4.57254 42.1155 6.20911 43.0031 8.0946C43.1118 8.32554 43.2113 8.56142 43.3022 8.80151C43.3105 8.82534 43.3194 8.84903 43.3288 8.87259C43.9868 10.6486 44.183 12.6494 44.183 14.5841C44.183 15.5339 44.9536 16.3039 45.9042 16.3039C46.8547 16.3039 47.6253 15.5339 47.6253 14.5841C47.6253 12.8536 47.4875 10.8783 46.9579 8.93322C47.5559 8.57484 48.1899 8.29316 48.8573 8.18546C49.7931 8.03445 51.0038 8.19148 52.5084 9.52254C54.0769 10.9102 54.883 12.8797 55.2167 14.8685C55.5152 16.6478 55.4094 18.2999 55.2288 19.2474C55.0509 20.1804 55.6637 21.0809 56.5975 21.2586C57.5312 21.4363 58.4324 20.824 58.6103 19.891C58.7447 19.1859 58.8409 18.2728 58.8462 17.2416C59.7501 17.7493 60.6925 18.4318 61.5203 19.3043C63.1033 20.9728 64.2781 23.337 63.983 26.6394C63.3321 33.9237 59.6694 40.0047 57.9985 42.0395C57.746 42.347 57.608 42.7325 57.608 43.1303V65.3157C57.608 66.2655 58.3785 67.0355 59.3291 67.0355C60.2797 67.0355 61.0503 66.2655 61.0503 65.3157V43.7242C63.1428 40.954 66.7303 34.571 67.4117 26.9452C67.805 22.5429 66.1955 19.2325 64.0184 16.9379C62.2587 15.0831 60.1366 13.8938 58.4001 13.2549C57.8803 11.0721 56.8175 8.74067 54.7903 6.94726C52.5772 4.9894 50.345 4.46124 48.3085 4.78987C47.306 4.95162 46.4092 5.31297 45.6445 5.72334C44.3151 3.41739 42.1715 1.47398 38.8665 0.393109C35.8169 -0.604252 32.5385 0.443752 29.9514 1.88665C27.7272 3.12716 25.725 4.81671 24.3712 6.37307Z" fill="white"/>
<path d="M50.1277 21.1421C46.397 21.1421 45.8317 26.3757 45.9825 30.2978C46.1216 33.9156 48.4696 38.5899 50.1277 38.5899C51.7858 38.5899 52.776 35.0197 53.0639 33.2346C53.6396 29.2038 53.8584 21.1421 50.1277 21.1421Z" fill="white"/>
<path d="M59.109 30.2978C56.6219 30.2978 57.0247 37.323 57.6004 41.1811C57.6004 41.1811 61.4002 37.2374 61.4002 34.0984C61.4002 33.2346 61.5961 30.2978 59.109 30.2978Z" fill="white"/>
<path fill-rule="evenodd" clip-rule="evenodd" d="M48.007 24.7333C47.4956 26.2832 47.3843 28.3579 47.4578 30.2524C47.5182 31.8119 48.0721 33.6766 48.8149 35.1481C49.1849 35.881 49.5703 36.4531 49.9101 36.8193C50.0558 36.9762 50.1625 37.0635 50.2297 37.1111C50.2538 37.0899 50.2831 37.0615 50.3178 37.0238C50.5057 36.8192 50.7219 36.4719 50.9381 35.9845C51.3645 35.023 51.6576 33.8239 51.7907 33.0111C52.0678 31.0798 52.2496 28.2268 51.9341 25.9057C51.7744 24.7304 51.5034 23.8229 51.1521 23.2465C50.8327 22.7226 50.5414 22.5962 50.2212 22.5962C49.6502 22.5962 49.2569 22.7804 48.9354 23.0864C48.5812 23.4235 48.2605 23.9651 48.007 24.7333ZM50.1478 37.1696C50.1478 37.1694 50.1504 37.168 50.1556 37.1663C50.1504 37.169 50.1478 37.1699 50.1478 37.1696ZM47.0231 21.1084C47.8518 20.3197 48.9275 19.8552 50.2212 19.8552C51.7655 19.8552 52.8453 20.7281 53.5158 21.828C54.1543 22.8755 54.4919 24.2164 54.6717 25.5394C55.0347 28.2098 54.8209 31.3454 54.5235 33.4111C54.5228 33.4163 54.522 33.4214 54.5212 33.4266C54.5207 33.4296 54.5203 33.4326 54.5198 33.4356C54.3642 34.3927 54.0193 35.8419 53.4665 37.0884C53.1921 37.7073 52.832 38.3558 52.3592 38.8704C51.8874 39.3838 51.1724 39.8984 50.2212 39.8984C49.1984 39.8984 48.3916 39.2293 47.878 38.6759C47.3072 38.0608 46.7864 37.2499 46.3451 36.3756C45.4652 34.6325 44.776 32.3859 44.6974 30.3577C44.6201 28.3628 44.716 25.8979 45.3818 23.8804C45.7169 22.8649 46.2273 21.8659 47.0231 21.1084ZM57.691 41.0975L58.6855 42.0485C58.3204 42.4245 57.7717 42.5619 57.2705 42.403C56.7692 42.244 56.4026 41.8162 56.3249 41.2999C56.0299 39.3387 55.7718 36.5356 55.9183 34.1821C55.9905 33.0225 56.1669 31.8482 56.5608 30.921C56.9493 30.0066 57.75 28.9346 59.199 28.9346C60.1144 28.9346 60.9019 29.2119 61.513 29.7403C62.0991 30.247 62.4171 30.8929 62.5953 31.4612C62.8978 32.4263 62.8798 33.4864 62.8722 33.9362C62.8712 33.9919 62.8704 34.0382 62.8704 34.0739C62.8704 36.0836 61.6912 38.1434 60.7273 39.5308C60.2193 40.2621 59.714 40.8856 59.3364 41.3259C59.147 41.5468 58.988 41.7236 58.8748 41.8468C58.8181 41.9085 58.7728 41.9569 58.7406 41.9909C58.7245 42.0079 58.7118 42.0213 58.7025 42.0309L58.6913 42.0426L58.6877 42.0463L58.6859 42.0481C58.6857 42.0483 58.6855 42.0485 57.691 41.0975ZM58.6754 34.3511C58.6125 35.3622 58.6343 36.4924 58.7054 37.601C59.5146 36.3646 60.1081 35.0754 60.1081 34.0739C60.1081 34.0052 60.1086 33.934 60.1092 33.861C60.113 33.3672 60.1175 32.7855 59.9575 32.2753C59.8739 32.0086 59.7747 31.8728 59.6983 31.8067C59.651 31.7658 59.5453 31.6891 59.2734 31.6771C59.2368 31.7228 59.1792 31.8141 59.1063 31.9857C58.8945 32.4843 58.7414 33.2908 58.6754 34.3511ZM59.3178 31.6372C59.3183 31.6399 59.3091 31.6497 59.2891 31.6588C59.3074 31.6391 59.3174 31.6346 59.3178 31.6372Z" fill="white"/>
<path d="M23.4612 25.8787C22.428 27.6057 22.956 31.4509 21.5668 34.1683C18.1235 40.9037 23.1163 44.3589 26.5604 43.6681C30.0046 42.9772 31.21 32.9605 28.9713 27.4339C26.7326 21.9074 24.4944 24.1517 23.4612 25.8787Z" fill="white"/>
<path d="M42.4038 29.678C41.8527 37.0006 38.0413 37.3345 36.2044 36.5861C32.5881 34.5141 34.3101 28.8145 36.2044 21.5609C38.0987 14.3074 43.0926 20.5247 42.4038 29.678Z" fill="white"/>
<path fill-rule="evenodd" clip-rule="evenodd" d="M41.4503 18.5322C43.1383 20.6927 44.2298 24.9251 43.8707 29.6942C43.5803 33.5516 42.4041 35.9451 40.685 37.1881C38.9599 38.4353 37.024 38.2821 35.7781 37.7748C35.7214 37.7517 35.6663 37.7248 35.6132 37.6944C33.0799 36.2437 32.629 33.5548 32.8569 30.8136C33.0609 28.3593 33.8436 25.3856 34.6719 22.2387C34.7689 21.8703 34.8664 21.4995 34.9638 21.1269C35.2227 20.136 35.5535 19.2974 35.9679 18.635C36.3795 17.9769 36.9265 17.4107 37.6441 17.1192C39.2544 16.4652 40.6354 17.4893 41.4503 18.5322ZM38.3026 20.1021C38.0839 20.4517 37.8442 21.0049 37.6295 21.8267C37.5338 22.1928 37.4392 22.553 37.3462 22.9071C36.5003 26.1266 35.7856 28.8471 35.603 31.0429C35.4055 33.4188 35.872 34.6144 36.899 35.2479C37.4882 35.4602 38.3309 35.4845 39.0729 34.948C39.8568 34.3812 40.8622 32.9482 41.1229 29.4863C41.4527 25.1061 40.3914 21.6567 39.2807 20.2352C39.0144 19.8943 38.8071 19.7506 38.6997 19.7013C38.6844 19.6943 38.6725 19.6898 38.6638 19.687C38.6202 19.7124 38.4865 19.808 38.3026 20.1021ZM38.6458 19.6823C38.6458 19.6822 38.6461 19.6823 38.6466 19.6824L38.6458 19.6823ZM25.4766 25.5378C25.2119 25.7866 24.9539 26.1349 24.7334 26.5031C24.6042 26.7191 24.4791 27.0866 24.3708 27.6815C24.2776 28.1936 24.2137 28.7657 24.1401 29.4255C24.1294 29.5216 24.1185 29.6195 24.1072 29.7193C23.9397 31.2064 23.7095 33.0936 22.8834 34.7086C21.3405 37.7249 21.8184 39.6722 22.6614 40.7652C23.5836 41.9609 25.1624 42.4642 26.3814 42.2198C26.6128 42.1735 27.0673 41.8974 27.5652 40.9041C28.0372 39.9624 28.41 38.6338 28.6236 37.0842C29.0534 33.9662 28.7891 30.3414 27.7862 27.8669C27.2594 26.5672 26.7851 25.8636 26.4305 25.5099C26.2607 25.3405 26.1404 25.2735 26.078 25.2475C26.0227 25.2244 25.9945 25.2251 25.9769 25.2266C25.9226 25.2315 25.7526 25.2783 25.4766 25.5378ZM28.3744 23.5522C29.1015 24.2776 29.7466 25.3651 30.3392 26.8274C31.5753 29.877 31.8277 34.0204 31.3533 37.4622C31.1148 39.1924 30.6803 40.8416 30.0275 42.1441C29.4005 43.395 28.4126 44.6294 26.9218 44.9282C24.6963 45.3744 22.056 44.4961 20.4813 42.4545C18.8274 40.3103 18.5305 37.1645 20.4313 33.4485C20.9945 32.3473 21.1949 30.9547 21.369 29.4094C21.3796 29.3157 21.3901 29.221 21.4007 29.1257C21.4727 28.478 21.5481 27.7997 21.6599 27.1857C21.7867 26.4896 21.9831 25.7293 22.3705 25.0821C22.6667 24.5872 23.0761 24.0077 23.5916 23.5231C24.0959 23.049 24.8193 22.5567 25.7336 22.4754C26.7135 22.3883 27.6165 22.7962 28.3744 23.5522Z" fill="white"/>
<path d="M42.8183 40.6296C40.0582 40.6296 34.5381 49.0036 32.1231 53.1906C29.0463 58.5247 29.777 64.8912 35.5731 64.8912C41.3692 64.8912 42.8183 62.1381 44.3708 60.5895C45.7967 63.3426 48.7292 65.0094 50.0634 64.8912C54.7221 64.4783 54.5485 57.0908 52.4785 53.1906C50.4085 49.0036 45.5783 40.6296 42.8183 40.6296Z" fill="white"/>
<path fill-rule="evenodd" clip-rule="evenodd" d="M38.343 46.2723C36.3659 48.8256 34.4167 51.9102 33.2294 53.9691C31.8101 56.4304 31.3533 58.9986 31.7758 60.8248C31.9821 61.7168 32.3845 62.3887 32.939 62.8402C33.4876 63.287 34.2958 63.6083 35.4831 63.6083C38.1398 63.6083 39.6687 62.9842 40.6888 62.2816C41.2159 61.9187 41.6473 61.5072 42.0562 61.0696C42.1858 60.9308 42.3381 60.7604 42.4984 60.581C42.7673 60.2802 43.0588 59.954 43.3042 59.7091C43.6156 59.3985 44.0568 59.2547 44.492 59.3222C44.9271 59.3898 45.3038 59.6604 45.5059 60.0508C46.0986 61.1956 47.0216 62.1392 47.9468 62.7796C48.4068 63.098 48.8434 63.3247 49.2078 63.462C49.5965 63.6085 49.8072 63.6175 49.8498 63.6137C50.6036 63.5469 51.1157 63.2214 51.4992 62.7081C51.9134 62.1537 52.209 61.3278 52.3319 60.2816C52.5794 58.1729 52.0715 55.6309 51.1672 53.9267C51.161 53.915 51.155 53.9033 51.1492 53.8914C50.1333 51.8362 48.4416 48.7581 46.6803 46.2128C45.7965 44.9356 44.9275 43.8399 44.146 43.0786C43.7554 42.6981 43.4194 42.4336 43.1453 42.2712C43.0108 42.1915 42.9065 42.1455 42.8316 42.1206C42.7618 42.0974 42.7292 42.0963 42.7275 42.0962C42.7257 42.0963 42.6874 42.0974 42.6051 42.1241C42.5195 42.1518 42.4031 42.2016 42.2547 42.2855C41.9533 42.4558 41.5851 42.729 41.1571 43.1149C40.3014 43.8866 39.3347 44.9917 38.343 46.2723ZM40.8947 39.8895C41.419 39.5932 42.0488 39.3427 42.7275 39.3427C43.4131 39.3427 44.0382 39.5976 44.5547 39.9038C45.0811 40.2157 45.5914 40.6383 46.074 41.1084C47.0389 42.0484 48.0241 43.3083 48.9514 44.6484C50.8073 47.3304 52.5609 50.5239 53.6159 52.6564C54.7752 54.852 55.3848 57.9451 55.0729 60.602C54.9156 61.9422 54.5106 63.2847 53.7119 64.3538C52.8824 65.4639 51.6694 66.2168 50.0941 66.3565C49.4696 66.4118 48.8135 66.2568 48.2327 66.0379C47.6275 65.8099 46.9918 65.4698 46.3737 65.042C45.5873 64.4976 44.7905 63.7839 44.1004 62.9198C44.0919 62.9288 44.0834 62.938 44.0748 62.9471C43.5943 63.4614 43.0102 64.0288 42.2565 64.5478C40.7152 65.6092 38.6219 66.3619 35.4831 66.3619C33.7726 66.3619 32.3161 65.8872 31.1939 64.9734C30.0775 64.0643 29.4029 62.8109 29.0867 61.4441C28.4641 58.7527 29.1802 55.4696 30.8373 52.5959L32.0078 53.2678L30.8373 52.5959C32.0649 50.4671 34.0828 47.2702 36.1591 44.5888C37.1942 43.2522 38.2757 42.0017 39.3066 41.0721C39.8219 40.6074 40.3565 40.1936 40.8947 39.8895Z" fill="white"/>
<path fill-rule="evenodd" clip-rule="evenodd" d="M14.1571 72.9507C14.6854 72.6462 15.3617 72.8255 15.6677 73.3512L20.1756 81.0957L20.683 73.8263C20.7153 73.3635 21.0359 72.9707 21.4844 72.8442C21.933 72.7178 22.413 72.8849 22.6845 73.262L28.4921 81.3305V73.9025C28.4921 73.295 28.987 72.8026 29.5975 72.8026C30.2081 72.8026 30.703 73.295 30.703 73.9025V84.7553C30.703 85.2332 30.3929 85.6564 29.9356 85.8025C29.4783 85.9487 28.9785 85.7843 28.6988 85.3958L22.6757 77.0279L22.131 84.8315C22.0974 85.3138 21.7512 85.7176 21.2779 85.8268C20.8046 85.936 20.3152 85.7249 20.0717 85.3066L13.7545 74.4538C13.4485 73.9281 13.6288 73.2551 14.1571 72.9507Z" fill="white"/>
<path fill-rule="evenodd" clip-rule="evenodd" d="M9.28528 72.8366C9.77195 72.7122 10.2807 72.9348 10.521 73.3772L16.413 84.2256C16.7033 84.7601 16.5068 85.4295 15.9741 85.7207C15.4414 86.012 14.7742 85.8148 14.4839 85.2803L10.655 78.2304V84.753C10.655 85.3617 10.1632 85.8551 9.55648 85.8551C8.94981 85.8551 8.45801 85.3617 8.45801 84.753V73.9046C8.45801 73.4007 8.79861 72.961 9.28528 72.8366Z" fill="white"/>
<path fill-rule="evenodd" clip-rule="evenodd" d="M2.73065 75.0132V78.3081C3.15375 78.2994 3.47666 78.2358 3.70543 78.1177C3.86182 78.037 3.97755 77.9287 4.06647 77.7569C4.16312 77.5701 4.25588 77.2519 4.25588 76.7196C4.25588 75.6997 3.93129 75.3914 3.67089 75.2448C3.44479 75.1176 3.13211 75.04 2.73065 75.0132ZM2.73065 80.5088C3.39545 80.4987 4.08621 80.3919 4.69738 80.0764C5.23097 79.8009 5.68721 79.3756 5.99775 78.7754C6.30057 78.1901 6.43477 77.4977 6.43477 76.7196C6.43477 75.1186 5.85148 73.9536 4.73192 73.3234C3.73937 72.7647 2.52886 72.7564 1.54737 72.8421C0.984154 72.8913 0.551758 73.3672 0.551758 73.938V84.7552C0.551758 85.3627 1.03952 85.8552 1.6412 85.8552C2.24289 85.8552 2.73065 85.3627 2.73065 84.7552V80.5088Z" fill="white"/>
<path fill-rule="evenodd" clip-rule="evenodd" d="M50.9246 72.9507C51.4529 72.6462 52.1293 72.8255 52.4353 73.3512L56.9432 81.0957L57.4505 73.8263C57.4828 73.3635 57.8034 72.9707 58.252 72.8442C58.7005 72.7178 59.1806 72.8849 59.452 73.262L65.2597 81.3305V73.9025C65.2597 73.295 65.7546 72.8026 66.3651 72.8026C66.9756 72.8026 67.4706 73.295 67.4706 73.9025V84.7553C67.4706 85.2332 67.1604 85.6564 66.7031 85.8025C66.2459 85.9487 65.7461 85.7843 65.4664 85.3958L59.4433 77.0279L58.8986 84.8315C58.865 85.3138 58.5188 85.7176 58.0455 85.8268C57.5722 85.936 57.0828 85.7249 56.8393 85.3066L50.5221 74.4538C50.2161 73.9281 50.3963 73.2551 50.9246 72.9507Z" fill="white"/>
<path fill-rule="evenodd" clip-rule="evenodd" d="M46.0529 72.8366C46.5395 72.7122 47.0483 72.9348 47.2886 73.3772L53.1806 84.2256C53.4709 84.7601 53.2744 85.4295 52.7417 85.7207C52.2089 86.012 51.5418 85.8148 51.2515 85.2803L47.4225 78.2304V84.753C47.4225 85.3617 46.9307 85.8551 46.3241 85.8551C45.7174 85.8551 45.2256 85.3617 45.2256 84.753V73.9046C45.2256 73.4007 45.5662 72.961 46.0529 72.8366Z" fill="white"/>
<path fill-rule="evenodd" clip-rule="evenodd" d="M39.4992 75.0134V78.3082C39.9223 78.2995 40.2452 78.2359 40.474 78.1178C40.6304 78.0371 40.7461 77.9289 40.835 77.757C40.9317 77.5702 41.0244 77.252 41.0244 76.7197C41.0244 75.6998 40.6998 75.3916 40.4394 75.245C40.2133 75.1177 39.9007 75.0401 39.4992 75.0134ZM39.4992 80.509C40.164 80.4988 40.8548 80.392 41.4659 80.0765C41.9995 79.801 42.4558 79.3758 42.7663 78.7755C43.0691 78.1903 43.2033 77.4978 43.2033 76.7197C43.2033 75.1187 42.62 73.9537 41.5005 73.3235C40.5079 72.7648 39.2974 72.7566 38.3159 72.8422C37.7527 72.8914 37.3203 73.3673 37.3203 73.9381V84.7554C37.3203 85.3628 37.8081 85.8553 38.4098 85.8553C39.0114 85.8553 39.4992 85.3628 39.4992 84.7554V80.509Z" fill="white"/>
<path d="M2.43508 91.6918C2.55573 91.7898 2.61982 91.9179 2.62736 92.0761C2.6349 92.2269 2.58966 92.3625 2.49163 92.4831C2.3936 92.5961 2.26918 92.6602 2.11837 92.6753C1.9751 92.6828 1.84691 92.6376 1.7338 92.5396C1.46988 92.306 1.12678 92.0234 0.704508 91.6918C0.591399 91.6014 0.523533 91.4846 0.500911 91.3414C0.48583 91.1906 0.527304 91.0588 0.625331 90.9457C0.723359 90.8251 0.847779 90.7573 0.998591 90.7422C1.1494 90.7272 1.28513 90.7648 1.40578 90.8553C1.89592 91.2396 2.23902 91.5185 2.43508 91.6918ZM1.42841 95.1961C0.953347 94.7741 0.542385 94.4312 0.195517 94.1675C0.082408 94.077 0.0183129 93.9602 0.00323169 93.817C-0.0118495 93.6738 0.0258535 93.5457 0.116341 93.4327C0.214369 93.3196 0.335018 93.2556 0.47829 93.2405C0.629102 93.2179 0.764833 93.2518 0.885482 93.3422C1.27759 93.6286 1.68856 93.964 2.11837 94.3483C2.23902 94.4538 2.30312 94.5819 2.31066 94.7327C2.32574 94.8834 2.28426 95.019 2.18624 95.1396C2.08821 95.2527 1.96379 95.3167 1.81298 95.3318C1.6697 95.3393 1.54151 95.2941 1.42841 95.1961ZM2.20886 96.6657C2.35213 96.726 2.4577 96.8277 2.52556 96.9709C2.59343 97.1066 2.60097 97.246 2.54819 97.3892C2.20886 98.3463 1.80167 99.2243 1.32661 100.023C1.24366 100.159 1.12301 100.242 0.964658 100.272C0.806306 100.309 0.659264 100.283 0.523533 100.193C0.395343 100.11 0.312396 99.9892 0.274693 99.8309C0.23699 99.6727 0.259612 99.5257 0.342559 99.3901C0.817617 98.5912 1.20973 97.7886 1.51889 96.9822C1.57168 96.839 1.66216 96.7373 1.79035 96.677C1.92609 96.6167 2.06559 96.613 2.20886 96.6657ZM9.02933 93.0031L9.26686 92.4944C9.28948 92.4417 9.27063 92.4153 9.21031 92.4153H7.55892C7.49859 92.4153 7.46843 92.4492 7.46843 92.517V94.0657C7.46843 94.1335 7.49859 94.1675 7.55892 94.1675H9.199C9.33473 94.1675 9.45161 94.2164 9.54963 94.3144C9.64766 94.4124 9.69668 94.5292 9.69668 94.6648C9.69668 95.0115 9.63635 95.3318 9.5157 95.6257C9.10097 96.628 8.59575 97.4796 8.00004 98.1805C7.9548 98.2408 7.95857 98.2898 8.01135 98.3274C8.5769 98.7269 9.26309 99.0622 10.0699 99.3335C10.2057 99.3788 10.3075 99.4654 10.3753 99.5935C10.4432 99.7141 10.4583 99.846 10.4206 99.9892C10.3829 100.132 10.2999 100.238 10.1717 100.306C10.0511 100.381 9.91912 100.4 9.77585 100.362C8.8182 100.076 7.95857 99.6538 7.19697 99.0961C7.15172 99.0585 7.09894 99.0622 7.03861 99.1074C6.3675 99.635 5.58705 100.046 4.69726 100.34C4.55398 100.392 4.41071 100.381 4.26744 100.306C4.13171 100.238 4.03368 100.132 3.97336 99.9892C3.92057 99.8535 3.92811 99.7216 3.99598 99.5935C4.06385 99.4654 4.16564 99.375 4.30137 99.3222C5.00265 99.0735 5.62852 98.7419 6.17899 98.3274C6.23177 98.2822 6.23931 98.2408 6.20161 98.2031C5.68885 97.6454 5.25526 97.0048 4.90085 96.2814C4.83299 96.1457 4.82545 96.0101 4.87823 95.8744C4.93856 95.7388 5.03658 95.6408 5.17231 95.5805C5.31559 95.5202 5.45509 95.5202 5.59082 95.5805C5.73409 95.6332 5.83966 95.7275 5.90752 95.8631C6.20161 96.4359 6.56733 96.9596 7.00468 97.4344C7.05746 97.4872 7.10271 97.4872 7.14041 97.4344C7.65317 96.839 8.08299 96.108 8.42985 95.2414C8.44494 95.1886 8.42231 95.1622 8.36199 95.1622H4.44842C4.38055 95.1622 4.34662 95.1961 4.34662 95.264C4.34662 97.1857 4.02614 98.7645 3.38519 100C3.30979 100.144 3.19291 100.219 3.03455 100.227C2.88374 100.242 2.75932 100.189 2.66129 100.068C2.39737 99.7669 2.34836 99.4202 2.51425 99.0283C2.98931 97.913 3.22684 96.3756 3.22684 94.4161V92.0422C3.22684 91.8689 3.28716 91.7182 3.40781 91.5901C3.536 91.4619 3.68682 91.3979 3.86025 91.3979H6.17899C6.23931 91.3979 6.26947 91.364 6.26947 91.2962V90.9118C6.26947 90.746 6.32603 90.6066 6.43914 90.4935C6.55978 90.3805 6.70306 90.324 6.86895 90.324C7.03484 90.324 7.17434 90.3805 7.28745 90.4935C7.4081 90.6066 7.46843 90.746 7.46843 90.9118V91.2962C7.46843 91.364 7.49859 91.3979 7.55892 91.3979H9.92289C10.0662 91.3979 10.1868 91.4469 10.2848 91.5448C10.3829 91.6428 10.4319 91.7634 10.4319 91.9066C10.4319 92.2533 10.3716 92.5811 10.2509 92.8901C10.168 93.1086 10.0775 93.3083 9.97945 93.4892C9.91158 93.6248 9.80601 93.7153 9.66274 93.7605C9.51947 93.8057 9.37997 93.7944 9.24424 93.7266C9.11605 93.6588 9.02933 93.5532 8.98409 93.4101C8.94639 93.2669 8.96147 93.1312 9.02933 93.0031ZM6.26947 94.0657V92.517C6.26947 92.4492 6.23931 92.4153 6.17899 92.4153H4.44842C4.38055 92.4153 4.34662 92.4492 4.34662 92.517V94.0657C4.34662 94.1335 4.38055 94.1675 4.44842 94.1675H6.17899C6.23931 94.1675 6.26947 94.1335 6.26947 94.0657Z" fill="white"/>
<path d="M13.746 91.6918C13.8666 91.7898 13.9307 91.9179 13.9383 92.0761C13.9458 92.2269 13.9006 92.3625 13.8025 92.4831C13.7045 92.5961 13.5801 92.6602 13.4293 92.6753C13.286 92.6828 13.1578 92.6376 13.0447 92.5396C12.7808 92.306 12.4377 92.0234 12.0154 91.6918C11.9023 91.6014 11.8344 91.4846 11.8118 91.3414C11.7967 91.1906 11.8382 91.0588 11.9362 90.9457C12.0343 90.8251 12.1587 90.7573 12.3095 90.7422C12.4603 90.7272 12.596 90.7648 12.7167 90.8553C13.2068 91.2396 13.5499 91.5185 13.746 91.6918ZM12.7393 95.1961C12.2642 94.7741 11.8533 94.4312 11.5064 94.1675C11.3933 94.077 11.3292 93.9602 11.3141 93.817C11.2991 93.6738 11.3368 93.5457 11.4272 93.4327C11.5253 93.3196 11.6459 93.2556 11.7892 93.2405C11.94 93.2179 12.0757 93.2518 12.1964 93.3422C12.5885 93.6286 12.9995 93.964 13.4293 94.3483C13.5499 94.4538 13.614 94.5819 13.6216 94.7327C13.6366 94.8834 13.5952 95.019 13.4971 95.1396C13.3991 95.2527 13.2747 95.3167 13.1239 95.3318C12.9806 95.3393 12.8524 95.2941 12.7393 95.1961ZM13.5198 96.6657C13.663 96.726 13.7686 96.8277 13.8365 96.9709C13.9043 97.1066 13.9119 97.246 13.8591 97.3892C13.5198 98.3463 13.1126 99.2243 12.6375 100.023C12.5546 100.159 12.4339 100.242 12.2756 100.272C12.1172 100.309 11.9702 100.283 11.8344 100.193C11.7062 100.11 11.6233 99.9892 11.5856 99.8309C11.5479 99.6727 11.5705 99.5257 11.6535 99.3901C12.1285 98.5912 12.5206 97.7886 12.8298 96.9822C12.8826 96.839 12.9731 96.7373 13.1013 96.677C13.237 96.6167 13.3765 96.613 13.5198 96.6657ZM20.3402 93.0031L20.5778 92.4944C20.6004 92.4417 20.5815 92.4153 20.5212 92.4153H18.8698C18.8095 92.4153 18.7793 92.4492 18.7793 92.517V94.0657C18.7793 94.1335 18.8095 94.1675 18.8698 94.1675H20.5099C20.6456 94.1675 20.7625 94.2164 20.8605 94.3144C20.9586 94.4124 21.0076 94.5292 21.0076 94.6648C21.0076 95.0115 20.9473 95.3318 20.8266 95.6257C20.4119 96.628 19.9067 97.4796 19.3109 98.1805C19.2657 98.2408 19.2695 98.2898 19.3223 98.3274C19.8878 98.7269 20.574 99.0622 21.3808 99.3335C21.5166 99.3788 21.6184 99.4654 21.6862 99.5935C21.7541 99.7141 21.7692 99.846 21.7315 99.9892C21.6938 100.132 21.6108 100.238 21.4826 100.306C21.362 100.381 21.23 100.4 21.0868 100.362C20.1291 100.076 19.2695 99.6538 18.5079 99.0961C18.4626 99.0585 18.4098 99.0622 18.3495 99.1074C17.6784 99.635 16.898 100.046 16.0082 100.34C15.8649 100.392 15.7216 100.381 15.5783 100.306C15.4426 100.238 15.3446 100.132 15.2843 99.9892C15.2315 99.8535 15.239 99.7216 15.3069 99.5935C15.3747 99.4654 15.4765 99.375 15.6123 99.3222C16.3136 99.0735 16.9394 98.7419 17.4899 98.3274C17.5427 98.2822 17.5502 98.2408 17.5125 98.2031C16.9997 97.6454 16.5662 97.0048 16.2118 96.2814C16.1439 96.1457 16.1364 96.0101 16.1891 95.8744C16.2495 95.7388 16.3475 95.6408 16.4832 95.5805C16.6265 95.5202 16.766 95.5202 16.9017 95.5805C17.045 95.6332 17.1506 95.7275 17.2184 95.8631C17.5125 96.4359 17.8782 96.9596 18.3156 97.4344C18.3684 97.4872 18.4136 97.4872 18.4513 97.4344C18.9641 96.839 19.3939 96.108 19.7408 95.2414C19.7558 95.1886 19.7332 95.1622 19.6729 95.1622H15.7593C15.6915 95.1622 15.6575 95.1961 15.6575 95.264C15.6575 97.1857 15.337 98.7645 14.6961 100C14.6207 100.144 14.5038 100.219 14.3455 100.227C14.1946 100.242 14.0702 100.189 13.9722 100.068C13.7083 99.7669 13.6593 99.4202 13.8252 99.0283C14.3002 97.913 14.5377 96.3756 14.5377 94.4161V92.0422C14.5377 91.8689 14.5981 91.7182 14.7187 91.5901C14.8469 91.4619 14.9977 91.3979 15.1712 91.3979H17.4899C17.5502 91.3979 17.5804 91.364 17.5804 91.2962V90.9118C17.5804 90.746 17.6369 90.6066 17.75 90.4935C17.8707 90.3805 18.014 90.324 18.1799 90.324C18.3457 90.324 18.4852 90.3805 18.5984 90.4935C18.719 90.6066 18.7793 90.746 18.7793 90.9118V91.2962C18.7793 91.364 18.8095 91.3979 18.8698 91.3979H21.2338C21.3771 91.3979 21.4977 91.4469 21.5957 91.5448C21.6938 91.6428 21.7428 91.7634 21.7428 91.9066C21.7428 92.2533 21.6825 92.5811 21.5618 92.8901C21.4789 93.1086 21.3884 93.3083 21.2904 93.4892C21.2225 93.6248 21.1169 93.7153 20.9736 93.7605C20.8304 93.8057 20.6909 93.7944 20.5551 93.7266C20.427 93.6588 20.3402 93.5532 20.295 93.4101C20.2573 93.2669 20.2724 93.1312 20.3402 93.0031ZM17.5804 94.0657V92.517C17.5804 92.4492 17.5502 92.4153 17.4899 92.4153H15.7593C15.6915 92.4153 15.6575 92.4492 15.6575 92.517V94.0657C15.6575 94.1335 15.6915 94.1675 15.7593 94.1675H17.4899C17.5502 94.1675 17.5804 94.1335 17.5804 94.0657Z" fill="white"/>
<path d="M23.1906 100.441C23.0549 100.449 22.9342 100.407 22.8286 100.317C22.7306 100.227 22.6778 100.114 22.6703 99.9779C22.6627 99.8422 22.7042 99.7216 22.7947 99.6161C22.8852 99.5182 22.9983 99.4654 23.134 99.4579C24.0012 99.4051 24.5894 99.3674 24.8985 99.3448C24.9589 99.3448 24.989 99.3072 24.989 99.2318V98.8474C24.989 98.7796 24.9589 98.7457 24.8985 98.7457H23.2924C23.1717 98.7457 23.0662 98.7043 22.9757 98.6214C22.8852 98.5309 22.8399 98.4216 22.8399 98.2935C22.8399 98.1654 22.8852 98.0599 22.9757 97.977C23.0662 97.8866 23.1717 97.8414 23.2924 97.8414H24.8985C24.9589 97.8414 24.989 97.8112 24.989 97.7509V97.4344C24.989 97.3666 24.9589 97.3327 24.8985 97.3327H24.1294H23.643C23.4696 97.3327 23.3188 97.2686 23.1906 97.1405C23.0624 97.0124 22.9983 96.8617 22.9983 96.6883V94.4727C22.9983 94.2993 23.0624 94.1486 23.1906 94.0205C23.3188 93.8924 23.4696 93.8283 23.643 93.8283H24.8985C24.9589 93.8283 24.989 93.7982 24.989 93.7379V93.4214C24.989 93.3535 24.9589 93.3196 24.8985 93.3196H23.2019C23.0812 93.3196 22.9757 93.2782 22.8852 93.1953C22.7947 93.1048 22.7495 92.9956 22.7495 92.8675C22.7495 92.7393 22.7947 92.6338 22.8852 92.5509C22.9757 92.4605 23.0812 92.4153 23.2019 92.4153H24.8985C24.9589 92.4153 24.989 92.3814 24.989 92.3135V91.9518C24.989 91.8915 24.9589 91.8614 24.8985 91.8614C24.25 91.9066 23.7712 91.9367 23.462 91.9518C23.3263 91.9593 23.2057 91.9141 23.1001 91.8162C23.0021 91.7182 22.9493 91.6014 22.9417 91.4657C22.9342 91.3301 22.9757 91.2133 23.0662 91.1153C23.1642 91.0173 23.2811 90.9646 23.4168 90.957C24.7666 90.8892 26.1578 90.7535 27.5905 90.5501C27.7338 90.5275 27.862 90.5576 27.9751 90.6405C28.0882 90.7234 28.1523 90.8364 28.1674 90.9796C28.1825 91.1228 28.1485 91.2509 28.0656 91.364C27.9826 91.4695 27.8695 91.5335 27.7263 91.5562C27.4322 91.6014 26.9609 91.6617 26.3124 91.737C26.2445 91.7521 26.2106 91.786 26.2106 91.8388V92.3135C26.2106 92.3814 26.2445 92.4153 26.3124 92.4153H27.8167C28.0354 92.4153 28.1787 92.5246 28.2466 92.7431C28.2616 92.7883 28.2918 92.7959 28.337 92.7657C28.42 92.7054 28.518 92.6753 28.6311 92.6753H29.208C29.2759 92.6753 29.3098 92.6414 29.3098 92.5735C29.3249 91.9104 29.3324 91.379 29.3324 90.9796C29.3324 90.8214 29.389 90.6895 29.5021 90.584C29.6152 90.4709 29.7509 90.4144 29.9093 90.4144C30.0676 90.4144 30.1996 90.4709 30.3051 90.584C30.4107 90.6895 30.4635 90.8214 30.4635 90.9796C30.4635 91.379 30.456 91.9104 30.4409 92.5735C30.4409 92.6414 30.471 92.6753 30.5314 92.6753H32.2619C32.4354 92.6753 32.5862 92.7393 32.7144 92.8675C32.8426 92.988 32.9067 93.135 32.9067 93.3083V93.3988C32.9067 94.5367 32.8991 95.4712 32.884 96.2022C32.8765 96.9332 32.8463 97.5738 32.7935 98.124C32.7483 98.6666 32.6993 99.0773 32.6465 99.3561C32.5937 99.6274 32.507 99.846 32.3863 100.012C32.2657 100.178 32.1451 100.276 32.0244 100.306C31.9037 100.343 31.7341 100.362 31.5154 100.362C31.4023 100.362 31.0743 100.34 30.5314 100.294C30.373 100.287 30.241 100.223 30.1355 100.102C30.0299 99.9892 29.9771 99.8535 29.9771 99.6953C29.9771 99.5445 30.0299 99.424 30.1355 99.3335C30.2486 99.2356 30.3768 99.1941 30.5201 99.2092C30.784 99.2393 31.0026 99.2544 31.1761 99.2544C31.2515 99.2544 31.3156 99.228 31.3684 99.1753C31.4212 99.115 31.4702 98.9906 31.5154 98.8022C31.5682 98.6063 31.6059 98.3274 31.6285 97.9657C31.6587 97.5964 31.6813 97.099 31.6964 96.4735C31.7115 95.8405 31.719 95.0643 31.719 94.1448V93.7831C31.719 93.7228 31.6851 93.6927 31.6172 93.6927H30.4974C30.4296 93.6927 30.3956 93.7228 30.3956 93.7831C30.3127 95.3356 30.1581 96.5979 29.9319 97.5701C29.7132 98.5347 29.3965 99.3712 28.9818 100.08C28.9064 100.215 28.7895 100.298 28.6311 100.328C28.4728 100.366 28.3257 100.343 28.19 100.26C28.0694 100.185 27.9902 100.076 27.9525 99.9327C27.9449 99.9176 27.9299 99.9063 27.9072 99.8987C27.8921 99.8912 27.8808 99.895 27.8733 99.9101C27.7979 99.9779 27.7149 100.016 27.6245 100.023C26.1691 100.219 24.6912 100.358 23.1906 100.441ZM26.2106 94.8005V95.1396C26.2106 95.2075 26.2445 95.2414 26.3124 95.2414H26.9571C27.0174 95.2414 27.0476 95.2075 27.0476 95.1396V94.8005C27.0476 94.7402 27.0174 94.7101 26.9571 94.7101H26.3124C26.2445 94.7101 26.2106 94.7402 26.2106 94.8005ZM26.2106 96.0214V96.3605C26.2106 96.4283 26.2445 96.4622 26.3124 96.4622H26.9571C27.0174 96.4622 27.0476 96.4283 27.0476 96.3605V96.0214C27.0476 95.9535 27.0174 95.9196 26.9571 95.9196H26.3124C26.2445 95.9196 26.2106 95.9535 26.2106 96.0214ZM26.2106 98.8474V99.1301C26.2106 99.1903 26.2408 99.2205 26.3011 99.2205C26.7309 99.1753 27.1494 99.1301 27.5566 99.0848C27.7602 99.0622 27.9072 99.1451 27.9977 99.3335C28.0053 99.3486 28.0166 99.3599 28.0317 99.3674C28.0543 99.3674 28.0731 99.3599 28.0882 99.3448C28.4275 98.7269 28.6915 97.9883 28.88 97.1292C29.0685 96.2701 29.1967 95.1547 29.2645 93.7831C29.2645 93.7228 29.2344 93.6927 29.1741 93.6927H28.6311C28.5105 93.6927 28.4049 93.655 28.3144 93.5796C28.2239 93.5043 28.1636 93.4101 28.1334 93.297C28.1184 93.2367 28.0882 93.2217 28.043 93.2518C27.9751 93.297 27.8997 93.3196 27.8167 93.3196H26.3124C26.2445 93.3196 26.2106 93.3535 26.2106 93.4214V93.7379C26.2106 93.7982 26.2445 93.8283 26.3124 93.8283H27.4774C27.6508 93.8283 27.8017 93.8924 27.9299 94.0205C28.058 94.1486 28.1221 94.2993 28.1221 94.4727V96.6883C28.1221 96.8617 28.058 97.0124 27.9299 97.1405C27.8017 97.2686 27.6508 97.3327 27.4774 97.3327H26.3124C26.2445 97.3327 26.2106 97.3666 26.2106 97.4344V97.7509C26.2106 97.8112 26.2445 97.8414 26.3124 97.8414H27.6697C27.7979 97.8414 27.9035 97.8866 27.9864 97.977C28.0769 98.0599 28.1221 98.1654 28.1221 98.2935C28.1221 98.4216 28.0769 98.5309 27.9864 98.6214C27.9035 98.7043 27.7979 98.7457 27.6697 98.7457H26.3124C26.2445 98.7457 26.2106 98.7796 26.2106 98.8474ZM24.1294 94.8005V95.1396C24.1294 95.2075 24.1633 95.2414 24.2312 95.2414H24.8985C24.9589 95.2414 24.989 95.2075 24.989 95.1396V94.8005C24.989 94.7402 24.9589 94.7101 24.8985 94.7101H24.2312C24.1633 94.7101 24.1294 94.7402 24.1294 94.8005ZM24.8985 96.4622C24.9589 96.4622 24.989 96.4283 24.989 96.3605V96.0214C24.989 95.9535 24.9589 95.9196 24.8985 95.9196H24.2312C24.1633 95.9196 24.1294 95.9535 24.1294 96.0214V96.3605C24.1294 96.4283 24.1633 96.4622 24.2312 96.4622H24.8985Z" fill="white"/>
<path d="M34.3318 95.1961C34.1885 95.166 34.0792 95.0906 34.0038 94.9701C33.9284 94.8419 33.9095 94.7063 33.9473 94.5631C34.181 93.5382 34.3507 92.4793 34.4562 91.3866C34.4713 91.2434 34.5316 91.1266 34.6372 91.0362C34.7428 90.9457 34.8672 90.9043 35.0105 90.9118C35.1537 90.9269 35.2706 90.9834 35.3611 91.0814C35.4516 91.1793 35.4931 91.2999 35.4855 91.4431C35.478 91.5863 35.4591 91.7935 35.429 92.0648C35.429 92.1251 35.4591 92.1553 35.5195 92.1553H35.6778C35.7381 92.1553 35.7683 92.1251 35.7683 92.0648V91.0248C35.7683 90.859 35.8249 90.7196 35.938 90.6066C36.0586 90.4935 36.2019 90.437 36.3678 90.437C36.5337 90.437 36.6732 90.4935 36.7863 90.6066C36.8994 90.7196 36.956 90.859 36.956 91.0248V92.0648C36.956 92.1251 36.9899 92.1553 37.0578 92.1553H37.5554C37.6987 92.1553 37.8194 92.2043 37.9174 92.3022C38.0154 92.4002 38.0644 92.5208 38.0644 92.664C38.0644 92.8072 38.0154 92.9277 37.9174 93.0257C37.8194 93.1237 37.6987 93.1727 37.5554 93.1727H37.0578C36.9899 93.1727 36.956 93.2066 36.956 93.2744V95.7275C36.956 95.7877 36.9861 95.8103 37.0464 95.7953C37.1068 95.7802 37.2048 95.7576 37.3405 95.7275C37.4763 95.6898 37.5781 95.6596 37.6459 95.637C37.7741 95.5993 37.891 95.6182 37.9966 95.6935C38.1021 95.7689 38.1624 95.8706 38.1775 95.9988C38.1926 96.1495 38.1549 96.2889 38.0644 96.417C37.9815 96.5451 37.8721 96.628 37.7364 96.6657C37.4348 96.7561 37.2086 96.8202 37.0578 96.8579C36.9899 96.873 36.956 96.9144 36.956 96.9822V100.023C36.956 100.189 36.8994 100.328 36.7863 100.441C36.6732 100.554 36.5337 100.611 36.3678 100.611C36.2019 100.611 36.0586 100.554 35.938 100.441C35.8249 100.328 35.7683 100.189 35.7683 100.023V97.2761C35.7683 97.2083 35.7381 97.1819 35.6778 97.197C35.3837 97.2648 35.0067 97.3477 34.5467 97.4457C34.411 97.4759 34.2866 97.4495 34.1735 97.3666C34.0604 97.2761 33.9963 97.1593 33.9812 97.0161C33.9661 96.873 34 96.7448 34.083 96.6318C34.1659 96.5112 34.279 96.4359 34.4223 96.4057C34.9652 96.3077 35.3875 96.2211 35.6891 96.1457C35.7419 96.1382 35.7683 96.0967 35.7683 96.0214V93.2744C35.7683 93.2066 35.7381 93.1727 35.6778 93.1727H35.3837C35.3234 93.1727 35.2857 93.2066 35.2706 93.2744C35.1801 93.8019 35.0783 94.3144 34.9652 94.8118C34.9351 94.955 34.8559 95.0643 34.7277 95.1396C34.6071 95.215 34.4751 95.2338 34.3318 95.1961ZM42.3513 99.3674C42.487 99.3674 42.5926 99.2732 42.668 99.0848C42.7434 98.8964 42.815 98.4556 42.8829 97.7622C42.9507 97.0614 43.0073 96.0251 43.0525 94.6535C43.045 94.646 43.0374 94.6385 43.0299 94.6309C42.6604 95.7689 42.1627 96.824 41.5369 97.7961C40.911 98.7608 40.2022 99.5709 39.4104 100.227C39.2822 100.325 39.139 100.366 38.9806 100.351C38.8298 100.336 38.7016 100.264 38.596 100.136C38.498 100.016 38.4565 99.8799 38.4716 99.7292C38.4942 99.586 38.5659 99.4616 38.6865 99.3561C39.6065 98.5874 40.3982 97.6341 41.0618 96.4961C41.7254 95.3506 42.2118 94.0996 42.5209 92.7431C42.536 92.6753 42.5134 92.6414 42.4531 92.6414H41.7405C41.6726 92.6414 41.6311 92.6715 41.616 92.7318C41.322 93.7341 40.9223 94.6761 40.4171 95.5579C39.9119 96.4396 39.3539 97.1782 38.7431 97.7735C38.63 97.879 38.4942 97.928 38.3359 97.9205C38.1851 97.9054 38.0569 97.8376 37.9513 97.717C37.8533 97.5964 37.808 97.4608 37.8156 97.3101C37.8307 97.1518 37.8948 97.0199 38.0079 96.9144C39.1239 95.8443 39.9609 94.4501 40.5189 92.7318C40.534 92.6715 40.5113 92.6414 40.451 92.6414H39.7611C39.7007 92.6414 39.6555 92.6677 39.6253 92.7205C39.2483 93.557 38.8185 94.2918 38.3359 94.9248C38.2529 95.0379 38.1361 95.0982 37.9852 95.1057C37.842 95.1057 37.7213 95.053 37.6233 94.9475C37.5177 94.8419 37.4612 94.7101 37.4536 94.5518C37.4461 94.3935 37.4876 94.2541 37.5781 94.1335C38.2869 93.1538 38.8223 92.0385 39.1842 90.7875C39.2294 90.6367 39.3162 90.5199 39.4444 90.437C39.5801 90.3466 39.7271 90.3089 39.8855 90.324C40.0363 90.3391 40.1532 90.4106 40.2361 90.5388C40.3191 90.6593 40.3379 90.7912 40.2927 90.9344C40.2323 91.1454 40.172 91.3338 40.1117 91.4996C40.0966 91.5599 40.1192 91.5901 40.1796 91.5901H43.6068C43.7802 91.5901 43.9272 91.6579 44.0479 91.7935C44.1761 91.9217 44.2364 92.0724 44.2289 92.2457C44.1912 94.2127 44.1459 95.7312 44.0931 96.8014C44.0479 97.8715 43.9649 98.6854 43.8443 99.2431C43.7312 99.7932 43.6068 100.129 43.471 100.249C43.3428 100.377 43.1468 100.441 42.8829 100.441C42.5134 100.441 42.0006 100.423 41.3446 100.385C41.1938 100.377 41.0656 100.317 40.96 100.204C40.8544 100.098 40.7979 99.9703 40.7903 99.8196C40.7828 99.6764 40.8281 99.5559 40.9261 99.4579C41.0316 99.3599 41.1561 99.3147 41.2993 99.3222C41.8573 99.3524 42.208 99.3674 42.3513 99.3674Z" fill="white"/>
<path d="M48.1537 91.3301C48.1462 91.3376 48.1387 91.3527 48.1311 91.3753C48.1236 91.3979 48.1198 91.413 48.1198 91.4205C48.0896 91.4808 48.1085 91.5109 48.1764 91.5109H49.9182C50.0012 91.5109 50.0728 91.5411 50.1332 91.6014C50.1935 91.6617 50.2236 91.7333 50.2236 91.8162C50.2236 91.899 50.1935 91.9744 50.1332 92.0422C50.0728 92.1025 50.0012 92.1327 49.9182 92.1327H49.2735C49.2132 92.1327 49.183 92.1666 49.183 92.2344V92.404C49.183 92.4718 49.2132 92.5057 49.2735 92.5057H50.0087C50.0992 92.5057 50.1746 92.5359 50.235 92.5961C50.3028 92.6564 50.3368 92.7318 50.3368 92.8222C50.3368 92.9127 50.3028 92.9918 50.235 93.0596C50.1746 93.1199 50.0992 93.1501 50.0087 93.1501H49.4997C49.4847 93.1501 49.4734 93.1576 49.4658 93.1727C49.4583 93.1877 49.4583 93.2028 49.4658 93.2179C49.5789 93.3309 49.6996 93.4214 49.8278 93.4892C49.9635 93.5721 50.0502 93.6851 50.0879 93.8283C50.1256 93.9715 50.0955 94.1034 49.9974 94.224L49.9182 94.3144C49.9107 94.3219 49.9069 94.3332 49.9069 94.3483C49.9145 94.3634 49.9258 94.3709 49.9409 94.3709H50.0314C50.1294 94.3709 50.2123 94.4048 50.2802 94.4727C50.3556 94.5405 50.3933 94.6272 50.3933 94.7327C50.3933 94.8382 50.3556 94.9248 50.2802 94.9927C50.2123 95.0605 50.1294 95.0944 50.0314 95.0944H46.2309C46.0575 95.0944 45.9066 95.0341 45.7785 94.9135C45.6503 94.7854 45.5862 94.6347 45.5862 94.4614V91.104C45.5862 90.9306 45.6503 90.7799 45.7785 90.6518C45.9066 90.5237 46.0575 90.4596 46.2309 90.4596H50.0653C50.1709 90.4596 50.2613 90.4973 50.3368 90.5727C50.4122 90.648 50.4499 90.7385 50.4499 90.844C50.4499 90.9495 50.4122 91.0399 50.3368 91.1153C50.2613 91.1906 50.1709 91.2283 50.0653 91.2283H48.2895C48.2291 91.2283 48.1839 91.2622 48.1537 91.3301ZM47.5543 92.4266C47.5166 92.4793 47.5279 92.5057 47.5882 92.5057H48.0067C48.067 92.5057 48.0972 92.4718 48.0972 92.404V92.2344C48.0972 92.1666 48.067 92.1327 48.0067 92.1327H47.8484C47.788 92.1327 47.739 92.159 47.7013 92.2118C47.6184 92.3399 47.5694 92.4115 47.5543 92.4266ZM46.6833 91.3301V92.0648C46.6833 92.0799 46.6909 92.0912 46.7059 92.0988C46.7286 92.1063 46.7437 92.1025 46.7512 92.0875C46.9246 91.8538 47.083 91.5976 47.2262 91.3188C47.2564 91.2585 47.2376 91.2283 47.1697 91.2283H46.7851C46.7173 91.2283 46.6833 91.2622 46.6833 91.3301ZM46.6833 92.4718V93.6361C46.6833 93.6964 46.7173 93.719 46.7851 93.704C47.23 93.5759 47.5618 93.4138 47.7805 93.2179C47.7956 93.2028 47.7956 93.1877 47.7805 93.1727C47.7729 93.1576 47.7616 93.1501 47.7466 93.1501H47.4638C47.313 93.1501 47.181 93.0973 47.0679 92.9918C46.9623 92.8788 46.9095 92.7469 46.9095 92.5961C46.9095 92.5359 46.8869 92.4944 46.8417 92.4718L46.7738 92.4266C46.7587 92.4115 46.7399 92.4115 46.7173 92.4266C46.6946 92.4341 46.6833 92.4492 46.6833 92.4718ZM47.1584 94.3709C47.1735 94.3709 47.1848 94.3596 47.1923 94.337C47.1999 94.3144 47.1961 94.2993 47.181 94.2918L46.7625 93.8735C46.7474 93.8585 46.7286 93.8547 46.7059 93.8622C46.6909 93.8698 46.6833 93.8811 46.6833 93.8961V94.2692C46.6833 94.337 46.7173 94.3709 46.7851 94.3709H47.1584ZM48.5949 93.6927C48.3008 93.9715 47.9615 94.1863 47.5769 94.337C47.5694 94.3521 47.5694 94.3634 47.5769 94.3709H49.5789C49.5865 94.3709 49.5902 94.3672 49.5902 94.3596C49.5902 94.3446 49.5865 94.3332 49.5789 94.3257C49.2698 94.1901 48.987 93.9828 48.7306 93.704C48.6854 93.6512 48.6401 93.6475 48.5949 93.6927ZM55.257 90.957C55.3927 90.9721 55.5021 91.0324 55.585 91.1379C55.668 91.2359 55.7019 91.3527 55.6868 91.4883C55.634 91.8727 55.5285 92.1063 55.3701 92.1892C55.2193 92.2646 54.8423 92.3022 54.239 92.3022C53.7187 92.3022 53.3982 92.2796 53.2776 92.2344C53.1645 92.1892 53.1079 92.0724 53.1079 91.884V91.2962C53.1079 91.2359 53.0778 91.2057 53.0174 91.2057H52.3275C52.2596 91.2057 52.2257 91.2396 52.2257 91.3075C52.2106 91.8124 51.9768 92.2043 51.5244 92.4831C51.5169 92.4906 51.5131 92.5019 51.5131 92.517C51.5131 92.5246 51.5206 92.5283 51.5357 92.5283H54.8724C54.978 92.5283 55.0685 92.566 55.1439 92.6414C55.2193 92.7167 55.257 92.8072 55.257 92.9127C55.257 93.184 55.174 93.4063 55.0082 93.5796C54.8046 93.7906 54.567 93.9828 54.2956 94.1561C54.2805 94.1637 54.2729 94.1788 54.2729 94.2014C54.2729 94.2164 54.2805 94.2277 54.2956 94.2353C54.5142 94.288 54.8196 94.3483 55.2118 94.4161C55.3173 94.4312 55.3965 94.4877 55.4493 94.5857C55.5096 94.6837 55.5247 94.7854 55.4945 94.8909C55.4644 95.0115 55.3965 95.1057 55.2909 95.1735C55.1854 95.2338 55.0722 95.2527 54.9516 95.2301C54.288 95.1019 53.6999 94.9475 53.1871 94.7666C53.1268 94.744 53.0664 94.744 53.0061 94.7666C52.4707 94.955 51.8788 95.1095 51.2303 95.2301C51.1097 95.2527 50.9966 95.2338 50.891 95.1735C50.7854 95.1057 50.7175 95.0115 50.6874 94.8909C50.6572 94.7854 50.6723 94.6837 50.7326 94.5857C50.793 94.4877 50.8759 94.4312 50.9815 94.4161C51.3736 94.3559 51.6564 94.3031 51.8298 94.2579C51.8449 94.2503 51.8524 94.239 51.8524 94.224C51.86 94.2089 51.8562 94.1976 51.8411 94.1901C51.7657 94.1524 51.596 94.0544 51.3321 93.8961C51.2265 93.8283 51.1738 93.7341 51.1738 93.6135C51.1813 93.4854 51.2379 93.3912 51.3434 93.3309C51.351 93.3234 51.3547 93.3159 51.3547 93.3083C51.3547 93.2932 51.3472 93.2857 51.3321 93.2857H51.0267C50.9211 93.2857 50.8307 93.2518 50.7553 93.184C50.6874 93.1086 50.6535 93.0182 50.6535 92.9127C50.6535 92.8072 50.6874 92.7167 50.7553 92.6414C50.8307 92.566 50.9211 92.5283 51.0267 92.5283H51.0946C51.1097 92.5208 51.1172 92.5057 51.1172 92.4831L50.891 92.3135C50.7779 92.2156 50.7251 92.095 50.7326 91.9518C50.7477 91.8011 50.8118 91.6654 50.9249 91.5448C51.0531 91.4017 51.1398 91.2396 51.1851 91.0588C51.2303 90.8779 51.3095 90.7272 51.4226 90.6066C51.5432 90.4785 51.6865 90.4144 51.8524 90.4144H53.5943C53.7677 90.4144 53.9185 90.4785 54.0467 90.6066C54.1749 90.7272 54.239 90.8741 54.239 91.0475V91.4318C54.239 91.4846 54.2503 91.5185 54.2729 91.5335C54.2956 91.5411 54.371 91.5448 54.4992 91.5448C54.5821 91.5448 54.6387 91.5373 54.6688 91.5222C54.699 91.4996 54.7216 91.4544 54.7367 91.3866C54.7669 91.2585 54.8272 91.153 54.9177 91.0701C55.0157 90.9872 55.1288 90.9495 55.257 90.957ZM52.1012 93.2857C52.0862 93.2857 52.0749 93.2932 52.0673 93.3083C52.0673 93.3234 52.0749 93.3347 52.0899 93.3422C52.3539 93.5156 52.6517 93.6701 52.9835 93.8057C53.0287 93.8208 53.0853 93.817 53.1532 93.7944C53.4548 93.6512 53.6999 93.5043 53.8884 93.3535C53.9035 93.3385 53.9072 93.3234 53.8997 93.3083C53.8921 93.2932 53.8808 93.2857 53.8658 93.2857H52.1012ZM45.7106 96.2248C45.5975 96.2248 45.4995 96.1872 45.4165 96.1118C45.3411 96.0289 45.3034 95.9309 45.3034 95.8179C45.3034 95.7048 45.3411 95.6106 45.4165 95.5353C45.4995 95.4524 45.5975 95.4109 45.7106 95.4109H55.1891C55.3022 95.4109 55.3965 95.4524 55.4719 95.5353C55.5548 95.6106 55.5963 95.7048 55.5963 95.8179C55.5963 95.9309 55.5548 96.0289 55.4719 96.1118C55.3965 96.1872 55.3022 96.2248 55.1891 96.2248H52.1917C52.1239 96.2248 52.0899 96.2588 52.0899 96.3266V96.4509C52.0899 96.5112 52.1239 96.5414 52.1917 96.5414H54.3634C54.5369 96.5414 54.6839 96.6054 54.8046 96.7335C54.9327 96.8617 54.9968 97.0124 54.9968 97.1857V100.159C54.9968 100.325 54.9403 100.464 54.8272 100.577C54.7141 100.69 54.5746 100.747 54.4087 100.747H54.1598C54.0618 100.747 53.9789 100.713 53.911 100.645C53.8507 100.585 53.8205 100.505 53.8205 100.407C53.8205 100.377 53.8017 100.362 53.764 100.362H47.1358C47.0981 100.362 47.0792 100.377 47.0792 100.407C47.0792 100.505 47.0453 100.585 46.9774 100.645C46.9171 100.713 46.8379 100.747 46.7399 100.747H46.491C46.3251 100.747 46.1856 100.69 46.0725 100.577C45.9594 100.464 45.9029 100.325 45.9029 100.159V97.1857C45.9029 97.0124 45.9632 96.8617 46.0838 96.7335C46.212 96.6054 46.3629 96.5414 46.5363 96.5414H48.5722C48.6326 96.5414 48.6627 96.5112 48.6627 96.4509V96.3266C48.6627 96.2588 48.6326 96.2248 48.5722 96.2248H45.7106ZM47.0792 97.4005V97.7848C47.0792 97.8451 47.1094 97.8753 47.1697 97.8753C47.969 97.7848 48.4365 97.6266 48.5722 97.4005C48.6024 97.3402 48.5836 97.3101 48.5157 97.3101H47.181C47.1131 97.3101 47.0792 97.3402 47.0792 97.4005ZM47.0792 98.1353V98.4857C47.0792 98.546 47.1131 98.5761 47.181 98.5761H47.6334C47.6485 98.5761 47.6598 98.5686 47.6674 98.5535C47.6749 98.5385 47.6711 98.5272 47.6561 98.5196L47.1584 98.1014C47.1056 98.0637 47.0792 98.075 47.0792 98.1353ZM53.8205 99.4918V99.3788C53.8205 99.3109 53.7866 99.277 53.7187 99.277H47.181C47.1131 99.277 47.0792 99.3109 47.0792 99.3788V99.4918C47.0792 99.5596 47.1131 99.5935 47.181 99.5935H53.7187C53.7866 99.5935 53.8205 99.5596 53.8205 99.4918ZM52.0899 97.4005V97.5361C52.0899 97.604 52.1201 97.6454 52.1804 97.6605C52.2483 97.668 52.4745 97.6718 52.8591 97.6718H53.7187C53.7866 97.6718 53.8205 97.6417 53.8205 97.5814V97.4005C53.8205 97.3402 53.7866 97.3101 53.7187 97.3101H52.1917C52.1239 97.3101 52.0899 97.3402 52.0899 97.4005ZM49.8278 96.3266V96.4509C49.8278 96.5112 49.8617 96.5414 49.9296 96.5414H50.8344C50.9023 96.5414 50.9362 96.5112 50.9362 96.4509V96.3266C50.9362 96.2588 50.9023 96.2248 50.8344 96.2248H49.9296C49.8617 96.2248 49.8278 96.2588 49.8278 96.3266ZM49.7599 97.4118C49.7071 97.6756 49.5563 97.8979 49.3075 98.0788C49.0586 98.2596 48.6627 98.4179 48.1198 98.5535C48.1198 98.5611 48.1236 98.5686 48.1311 98.5761H53.7187C53.7866 98.5761 53.8205 98.546 53.8205 98.4857V98.4179C53.8205 98.3576 53.7866 98.3274 53.7187 98.3274H52.1804C51.6601 98.3274 51.3208 98.286 51.1624 98.2031C51.0116 98.1202 50.9362 97.9506 50.9362 97.6944V97.4005C50.9362 97.3402 50.9023 97.3101 50.8344 97.3101H49.873C49.8127 97.3101 49.775 97.344 49.7599 97.4118Z" fill="white"/>
<path d="M57.8585 100.385C57.7529 100.498 57.621 100.554 57.4626 100.554C57.3043 100.554 57.1685 100.498 57.0554 100.385C56.9499 100.279 56.8971 100.147 56.8971 99.9892V91.364C56.8971 91.1906 56.9612 91.0399 57.0894 90.9118C57.2175 90.7837 57.3684 90.7196 57.5418 90.7196H60.0528C60.181 90.7196 60.2903 90.7648 60.3808 90.8553C60.4713 90.9457 60.5166 91.055 60.5166 91.1831C60.5166 91.2735 60.509 91.4017 60.4939 91.5675C60.4939 91.6051 60.509 91.6089 60.5392 91.5788C60.6598 91.4582 60.8106 91.3979 60.9916 91.3979H62.5978C62.6656 91.3979 62.6996 91.364 62.6996 91.2962V90.8892C62.6996 90.7234 62.7599 90.5802 62.8805 90.4596C63.0087 90.3315 63.1558 90.2675 63.3217 90.2675C63.4876 90.2675 63.6308 90.3315 63.7515 90.4596C63.8797 90.5802 63.9438 90.7234 63.9438 90.8892V91.2962C63.9438 91.364 63.9739 91.3979 64.0342 91.3979H66.0702C66.2437 91.3979 66.3945 91.4619 66.5227 91.5901C66.6508 91.7182 66.7149 91.8689 66.7149 92.0422V93.1727C66.7149 93.3385 66.6546 93.4817 66.534 93.6022C66.4209 93.7153 66.2813 93.7718 66.1155 93.7718C66.0778 93.7718 66.0212 93.7643 65.9458 93.7492C65.8855 93.7341 65.8553 93.753 65.8553 93.8057C65.8402 93.9338 65.7874 94.0431 65.697 94.1335C65.6065 94.2164 65.4971 94.2579 65.3689 94.2579H61.659C61.5308 94.2579 61.4214 94.2164 61.3309 94.1335C61.2405 94.0431 61.1877 93.9338 61.1726 93.8057C61.1726 93.753 61.1424 93.7341 61.0821 93.7492C61.0218 93.7643 60.969 93.7718 60.9238 93.7718C60.7654 93.7718 60.6297 93.7153 60.5166 93.6022C60.4035 93.4892 60.3469 93.3535 60.3469 93.1953V92.2231C60.3394 92.2156 60.328 92.2156 60.313 92.2231C60.0113 93.0069 59.6946 93.7002 59.3629 94.3031C59.3251 94.3634 59.3289 94.4199 59.3742 94.4727C59.9472 95.2338 60.2338 96.0251 60.2338 96.8466C60.2338 97.359 60.1245 97.7472 59.9058 98.0109C59.6946 98.2672 59.3628 98.4141 58.9104 98.4518C58.7671 98.4593 58.6389 98.4179 58.5258 98.3274C58.4203 98.237 58.3524 98.1202 58.3222 97.977C58.2996 97.8564 58.326 97.7509 58.4014 97.6605C58.4844 97.5625 58.5899 97.5022 58.7181 97.4796C58.884 97.4419 58.9971 97.3628 59.0574 97.2422C59.1253 97.1141 59.1593 96.8993 59.1593 96.5979C59.1593 96.0477 58.9594 95.5014 58.5598 94.9588C58.3034 94.6121 58.2732 94.2579 58.4693 93.8961C58.8388 93.2104 59.1517 92.4906 59.4081 91.737C59.4232 91.6843 59.4006 91.6579 59.3402 91.6579H58.13C58.0621 91.6579 58.0282 91.688 58.0282 91.7483V99.9892C58.0282 100.147 57.9716 100.279 57.8585 100.385ZM61.5119 92.4831V93.1953C61.5119 93.2556 61.5421 93.2782 61.6024 93.2631H61.659H65.3689H65.4255C65.4934 93.2782 65.5273 93.2593 65.5273 93.2066V93.1727V92.4831C65.5273 92.4153 65.4934 92.3814 65.4255 92.3814H61.6024C61.5421 92.3814 61.5119 92.4153 61.5119 92.4831ZM66.3982 97.5927C66.549 97.6077 66.6735 97.6718 66.7715 97.7848C66.8771 97.8979 66.9261 98.0298 66.9185 98.1805C66.9035 98.4744 66.8884 98.7156 66.8733 98.904C66.8657 99.0924 66.8431 99.2732 66.8054 99.4466C66.7753 99.6199 66.7451 99.7518 66.7149 99.8422C66.6923 99.9402 66.6395 100.031 66.5566 100.114C66.4812 100.196 66.4133 100.253 66.353 100.283C66.3002 100.313 66.1984 100.34 66.0476 100.362C65.9043 100.385 65.7761 100.396 65.663 100.396C65.5499 100.404 65.3802 100.407 65.154 100.407C64.6337 100.407 64.2642 100.381 64.0456 100.328C63.8269 100.283 63.6798 100.2 63.6044 100.08C63.529 99.959 63.4913 99.7518 63.4913 99.4579V96.417C63.4913 96.3492 63.4574 96.3153 63.3895 96.3153H62.9936C62.9258 96.3153 62.8918 96.3454 62.8918 96.4057C62.8541 97.4005 62.6392 98.1993 62.2471 98.8022C61.855 99.4051 61.2103 99.9138 60.313 100.328C60.1622 100.396 60.0076 100.407 59.8492 100.362C59.6984 100.317 59.5778 100.227 59.4873 100.091C59.4119 99.9703 59.393 99.8422 59.4307 99.7066C59.476 99.5709 59.5627 99.473 59.6909 99.4127C60.4072 99.0886 60.92 98.7043 61.2291 98.2596C61.5383 97.8074 61.7117 97.1932 61.7494 96.417C61.7494 96.3492 61.7193 96.3153 61.659 96.3153H60.8559C60.7126 96.3153 60.592 96.2663 60.4939 96.1683C60.3959 96.0703 60.3469 95.9498 60.3469 95.8066C60.3469 95.6634 60.3959 95.5428 60.4939 95.4448C60.592 95.3469 60.7126 95.2979 60.8559 95.2979H66.1946C66.3379 95.2979 66.4586 95.3469 66.5566 95.4448C66.6621 95.5428 66.7149 95.6634 66.7149 95.8066C66.7149 95.9498 66.6621 96.0703 66.5566 96.1683C66.4586 96.2663 66.3379 96.3153 66.1946 96.3153H64.7695C64.7091 96.3153 64.679 96.3492 64.679 96.417V99.0283C64.679 99.2092 64.7016 99.3147 64.7468 99.3448C64.7921 99.375 64.9467 99.3901 65.2106 99.3901C65.3689 99.3901 65.4783 99.3863 65.5386 99.3788C65.5989 99.3637 65.6555 99.3109 65.7083 99.2205C65.7686 99.1301 65.8025 99.0057 65.8101 98.8474C65.8251 98.6892 65.8365 98.433 65.844 98.0788C65.8515 97.928 65.9081 97.8074 66.0137 97.717C66.1268 97.619 66.255 97.5776 66.3982 97.5927Z" fill="white"/>
</svg>
