<svg width="50" height="50" viewBox="0 0 50 50" fill="none" xmlns="http://www.w3.org/2000/svg">
<path d="M31.8957 18.1046C37.7303 23.9453 37.6503 33.3095 31.9308 39.0606C31.9201 39.0723 31.9074 39.085 31.8957 39.0968L25.3332 45.6592C19.5451 51.4473 10.1283 51.4465 4.34106 45.6592C-1.44702 39.8721 -1.44702 30.4542 4.34106 24.6671L7.96468 21.0435C8.92562 20.0825 10.5805 20.7212 10.6301 22.0792C10.6934 23.8099 11.0037 25.5486 11.5764 27.2277C11.7703 27.7963 11.6318 28.4252 11.207 28.85L9.92894 30.128C7.19203 32.8649 7.10619 37.3214 9.81614 40.085C12.5529 42.8759 17.0511 42.8925 19.8088 40.1348L26.3713 33.5733C29.1243 30.8203 29.1128 26.3705 26.3713 23.629C26.0099 23.2683 25.6458 22.988 25.3614 22.7922C25.1602 22.654 24.9941 22.4708 24.8764 22.2571C24.7586 22.0433 24.6924 21.805 24.683 21.5611C24.6443 20.5292 25.01 19.4658 25.8254 18.6504L27.8814 16.5943C28.4206 16.0551 29.2664 15.9889 29.8916 16.4252C30.6076 16.9252 31.2782 17.4871 31.8957 18.1046ZM45.6588 4.34076C39.8717 -1.44653 30.4548 -1.44731 24.6667 4.34076L18.1042 10.9033C18.0925 10.915 18.0798 10.9277 18.0691 10.9394C12.3497 16.6905 12.2696 26.0547 18.1042 31.8954C18.7217 32.5128 19.3923 33.0748 20.1082 33.5747C20.7334 34.011 21.5793 33.9447 22.1184 33.4056L24.1744 31.3495C24.9898 30.5341 25.3555 29.4707 25.3168 28.4388C25.3075 28.1949 25.2412 27.9566 25.1235 27.7429C25.0057 27.5291 24.8396 27.3459 24.6384 27.2077C24.354 27.0119 23.9899 26.7316 23.6285 26.3709C20.887 23.6294 20.8755 19.1796 23.6285 16.4266L30.191 9.86507C32.9487 7.10736 37.4469 7.12396 40.1837 9.91487C42.8936 12.6785 42.8079 17.135 40.0709 19.8719L38.7928 21.1499C38.368 21.5747 38.2295 22.2036 38.4234 22.7722C38.9961 24.4513 39.3064 26.19 39.3697 27.9207C39.4194 29.2787 41.0742 29.9174 42.0351 28.9564L45.6587 25.3328C51.4469 19.5458 51.4469 10.1279 45.6588 4.34076Z" fill="#34424F"/>
</svg>
