<svg width="690" height="120" viewBox="0 0 690 120" fill="none" xmlns="http://www.w3.org/2000/svg">
<g clip-path="url(#clip0_2213_82)">
<path fill-rule="evenodd" clip-rule="evenodd" d="M0 0H653V40.0019L690 64.7368L653 89.4717V120H0V0ZM60.3 69.9V71.85H64.4V69.9H60.3ZM69.4 69.9H74.85V66.4H69.4V64.45H76.2V60.5H69.8493C69.9256 60.3657 70.0026 60.2301 70.0803 60.0934C70.4739 59.4002 70.8839 58.6781 71.3 57.95L67.4196 57.1H74.5366C75.9509 57.9247 78.3703 59.7193 79.35 60.65C80.9931 58.0444 82.3387 54.7226 83.423 51H83.9V56.3C83.9468 60.9326 82.5484 70.952 75.5651 77.3H69.4V75.35H74.85V71.85H69.4V69.9ZM64.4 75.35H60.3V77.3H64.4V75.35ZM60.3 81.35V83.35H55.25V71.5621C54.7457 72.2363 54.2281 72.8683 53.7 73.45C53.15 72.3 51.6 69.8 50.7 68.7C53.3503 65.8088 55.5826 61.5244 56.9046 57.1H52.95V47.1H63.6V57.1H58.9346L61.95 57.9C61.6813 58.7659 61.3858 59.6351 61.0661 60.5H64.8807C65.3142 59.346 65.7102 58.1221 65.9747 57.1H65.1V47.1H76V54.3105C78.2752 49.5403 79.5879 43.0294 80.25 36.45L86.15 37.3C85.79 40.1175 85.332 42.9153 84.7652 45.6H92.65H93.5L94.35 45.25L98.3 46.65C97.8 51.55 96.85 57.1 95.65 60.85L91.4 58.45C91.7843 56.4643 92.1071 53.74 92.3421 51H89.65V56.3C89.6 61.15 91.2 72.2 98.7 78.3C97.65 79.55 96 82.05 95.15 83.5C89.75 79.2 87.3 70.75 86.8 66.5C86.15 70.85 83.3 79.05 77.35 83.5C77.0712 82.9423 76.6083 82.1546 76.0917 81.35H60.3ZM64.4 64.45V66.4H60.3V64.45H64.4ZM56.85 39.5H51.75V43.85H56.85V46.3H62.05V43.85H66.75V46.3H72.05V43.85H77.35V39.5H72.05V36.6H66.75V39.5H62.05V36.6H56.85V39.5ZM56.85 53.55V50.6H59.45V53.55H56.85ZM69 53.55V50.6H71.85V53.55H69ZM122.6 72.15V56.05H111.8V61.6H117V72.6729C115.052 74.353 112.912 76.0317 111.1 77.3L113.95 83.05C114.118 82.8894 114.284 82.7305 114.448 82.5733C116.585 80.5282 118.436 78.7572 120.2 76.9C123.2 80.8 127.3 82.3 133.4 82.55C139.65 82.8 150.75 82.7 157.15 82.4C157.4 80.75 158.3 78.1 158.95 76.8C151.85 77.35 139.55 77.5 133.35 77.25C128.2 77 124.55 75.55 122.6 72.15ZM116.2 37.65L111.5 40.6C114.05 43.15 117.05 46.8 118.2 49.25L123.3 45.9C121.95 43.4 118.85 40 116.2 37.65ZM151 39.6H140.25V40.8391L136.25 36.55C134.599 37.9469 132.052 39.5589 129.58 40.8094L126.7 40.05V65.1181C125.656 65.3523 124.681 65.5646 123.8 65.75L125.35 71.05C129.4 70 134.5 68.65 139.15 67.35L138.5 62.25C136.391 62.8018 134.251 63.3381 132.2 63.8344V44.8983C134.862 43.8555 137.729 42.5469 140.25 41.0873V75.75H145.7V44.65H151V65C151 65.55 150.8 65.75 150.25 65.75C149.7 65.8 148 65.8 146.3 65.75C147.05 67.05 147.75 69.3 148 70.75C150.9 70.75 153 70.7 154.55 69.85C156.1 68.95 156.55 67.55 156.55 65.1V39.6H154.05H151ZM191.65 42.8H173.4V48.65H191.65V60.2888C187.276 67.0598 179.442 73.3272 171.25 76.5C172.6 77.7 174.55 80.15 175.5 81.65C181.506 78.8832 187.125 74.4997 191.65 69.2217V83.5H197.95V68.9029C202.495 74.2867 208.178 78.8081 214.25 81.6C215.25 79.9 217.2 77.4 218.7 76.1C211.161 73.3387 203.93 68.003 199.431 62.0803C200.81 62.8381 202.517 63.9208 203.4 64.65C204.603 63.4475 205.728 61.9937 206.739 60.3465C209.248 62.4279 211.825 64.6229 213.25 66.15L217.4 62C215.541 60.2621 212.081 57.6094 209.185 55.4152C209.862 53.7053 210.425 51.8873 210.85 50L205.05 48.95C204.045 53.7816 201.851 58.247 198.729 61.1202C198.457 60.7329 198.197 60.3436 197.95 59.9528V48.65H216.9V42.8H197.95V36.55H191.65V42.8ZM183 60.6043C181.366 63.3296 179.429 65.6727 177.25 67.5C176.25 66.4 173.95 64.45 172.6 63.55C177 60.35 180.05 55.05 181.45 48.95L187.3 50.05C186.821 51.9405 186.228 53.7606 185.531 55.4876C187.342 57.0413 189.242 58.7225 190.35 59.9L186.4 64.1C185.606 63.1467 184.348 61.885 183 60.6043ZM257.55 39.7H232.05V45.05H238.647C238.019 47.4622 237.163 50.1708 236.292 52.5097C234.718 52.5468 233.258 52.5773 231.95 52.6L232.3 58.15C237.92 57.9158 245.602 57.5939 253.086 57.1842C253.568 58.1154 253.967 58.9859 254.25 59.75L259 57.05C257.75 53.9 254.55 49.3 251.75 45.9L247.3 48.25C248.215 49.4309 249.163 50.7557 250.063 52.112C247.4 52.2004 244.764 52.2819 242.261 52.3532C243.276 50.0698 244.327 47.5161 245.324 45.0925C245.33 45.0783 245.336 45.0642 245.341 45.05H257.55V39.7ZM241.85 63.5H233.55V68.85H241.85V75.2797C237.972 75.712 234.402 76.0881 231.5 76.35L232.4 82.35C239.25 81.5 248.85 80.25 257.8 79.05L257.65 73.45L256.801 73.5498C253.823 73.9003 250.776 74.2588 247.8 74.6028V68.85H256V63.5H247.8V58.65H241.85V63.5ZM265.15 42.65H259.4V70.95H265.15V42.65ZM276.65 37.95H270.8V76.3C270.8 77.2 270.5 77.45 269.6 77.5C269.441 77.5 269.231 77.5013 268.977 77.5028C267.632 77.5108 265.073 77.5262 262.55 77.4C263.4 79.1 264.25 81.8 264.5 83.5C268.75 83.5 272 83.3 274 82.35C276 81.4 276.65 79.75 276.65 76.35V37.95ZM298.05 81.9L299.65 85.9C305.85 84.05 309.55 79.45 309.55 73.8C309.55 69.6 307.65 66.9 304.15 66.9C301.45 66.9 299.2 68.6 299.2 71.4C299.2 74.3 301.5 75.9 304 75.9C304.172 75.9 304.343 75.8914 304.513 75.874C304.2 78.4555 301.94 80.6496 298.05 81.9ZM356.55 37.3L353.95 41.35C357.4 42.4 362.15 44.2 364.45 45.45L367.15 40.9C364.65 39.7 359.9 38.1 356.55 37.3ZM361.876 47.6289C358.061 48.5075 354.452 49.3388 351.75 49.85L354 55.05C357.75 54 362.35 52.65 366.7 51.35L366.674 51.125C367.493 51.9937 368.473 53.4853 369.071 54.65H358.55V75.05H365.943C362.463 76.7934 356.976 78.3706 352.05 79.3C353.4 80.3 355.45 82.5 356.5 83.7C361.6 82.25 368.1 79.75 372.2 77.1L367.598 75.05H382.361L377.8 77.65C382.85 79.55 388 81.95 390.8 83.65L397.8 80.95C394.404 79.2757 388.582 76.915 383.487 75.05H392.15V55.4769C393.178 55.7313 394.292 55.9567 395.5 56.15C396.05 54.65 397.35 52.4 398.45 51.2C388.293 50.0366 385.464 47.3116 384.372 44.1H389.939C389.316 45.1553 388.641 46.1404 388 46.9L392.65 48.3C394.3 46.45 396.1 43.45 397.4 40.7L393.45 39.7L392.55 39.9H391.7H377.681C378.149 39.0837 378.586 38.2498 379 37.4L373.75 36.55C372.4 39.45 369.95 42.8 366.3 45.3C367.7 45.85 369.75 47.1 370.8 48.15C372.348 46.8868 373.673 45.5323 374.83 44.1H378.464C377.337 47.6659 374.622 49.8579 366.67 51.0968L366.15 46.65C364.721 46.9736 363.284 47.3045 361.876 47.6289ZM381.673 49.2442C379.889 51.6007 377.038 53.3727 372.38 54.65H389.371C385.479 53.2689 383.154 51.3694 381.673 49.2442ZM364.35 65.9V63.75H386.1V65.9H364.35ZM364.35 71.5V69.3H386.1V71.5H364.35ZM364.35 60.35V58.25H386.1V60.35H364.35ZM447.3 38.5H431V44.2H435.9V54.9C435.9 55.033 435.9 55.1663 435.899 55.3H430.45V60.9H435.688C435.195 66.8841 433.637 73.1024 429 78.2538V65.65H418.8H416.45H413.75V82.85H418.8V80.85H429V80.041C430.249 81.0659 431.659 82.5361 432.4 83.55C439.011 77.0986 440.927 68.8076 441.433 60.9H446.3V55.3H441.6C441.6 55.1831 441.6 55.0664 441.6 54.95V44.2H447.308C447.33 63.3829 447.488 81.0518 452.95 83.1C456.15 84.5 458.8 82.8 459.6 74.95C458.75 74.05 457.25 71.65 456.3 70.1C456.2 73.55 455.85 77.05 455.55 76.95C453.15 76.25 452.95 55.55 453.45 38.5H450.4H447.3ZM418.8 76.1H423.9V70.4H418.8V76.1ZM428.95 51.9H413.85V56.4H428.95V51.9ZM428.8 38.1H414V42.65H428.8V38.1ZM428.95 58.7H413.85V63.25H428.95V58.7ZM430.6 44.85H411.45V49.6H430.6V44.85ZM501.25 69.25H472.1V73.8H483.26L480.6 76C482.95 77.7 485.95 80.25 487.2 81.95L491.6 78.25C490.437 76.9321 488.343 75.2236 486.342 73.8H501.25V77.65C501.25 78.25 501.05 78.4 500.25 78.4C499.5 78.45 496.7 78.5 494.25 78.35C495 79.8 495.85 81.95 496.1 83.5C499.85 83.5 502.55 83.45 504.5 82.7C506.55 81.9 507.05 80.5 507.05 77.8V73.8H517.9V69.25H507.05V67.1945C510.844 67.1562 514.489 67.0747 517.15 66.95C517.4 65.6 518.1 63.45 518.6 62.35C511.65 62.85 498.55 63 492.45 62.75C488.2 62.6 485.15 61.45 483.55 58.7V48.95H472.3V53.5H478.1V59.5482C475.99 60.753 473.756 61.908 471.85 62.8L473.95 67.55C474.433 67.2426 474.908 66.9414 475.376 66.6448C477.574 65.2524 479.613 63.9602 481.55 62.6C484.05 65.75 487.4 66.9 492.5 67.1C494.792 67.1745 497.909 67.2143 501.25 67.2194V69.25ZM492.474 40.65H485.05V44.7H498.007C497.911 45.2219 497.802 45.75 497.69 46.25H489V61.25H513.75V46.25H502.825C503.033 45.7694 503.255 45.2521 503.486 44.7H517.85V40.65H510.422C511.121 39.692 511.886 38.592 512.65 37.35L507 36.4C506.517 37.6295 505.648 39.2833 504.868 40.65H498.023C497.484 39.332 496.575 37.7078 495.7 36.5L490.8 37.4C491.391 38.3636 492 39.559 492.474 40.65ZM477.4 37.1L473.5 40.35C476 42.25 479 45 480.3 46.9L484.4 43.25C483 41.35 479.9 38.8 477.4 37.1ZM494.55 54.5V52.95H507.95V54.5H494.55ZM494.55 58.6V57.05H507.95V58.6H494.55ZM494.55 50.4V48.9H507.95V50.4H494.55ZM544.75 67.5V65.85H564.95V67.5H544.75ZM544.75 72.05V70.4H564.95V72.05H544.75ZM544.75 62.95V61.35H564.95V62.95H544.75ZM570.9 58.25H539.1V75.1H545.478C544.135 77.4632 540.991 78.4407 531.4 78.95C532.35 80.05 533.6 82.2 533.95 83.5C546.094 82.3543 550.006 79.9906 551.537 75.1H557.05V77.15C557.05 81.65 558.55 82.95 564.55 82.95H571.95C576.3 82.95 577.8 81.6 578.4 76.45C576.9 76.2 574.65 75.45 573.5 74.7C573.25 77.95 572.95 78.45 571.35 78.45H565.3C563.3 78.45 562.9 78.35 562.9 77.1V75.1H570.9V58.25ZM559.7 45.2859C558.915 46.1839 558.037 47.0414 557.05 47.85C556.222 46.7924 554.633 45.3541 553.45 44.6632V51.4H547.25V53.45H554.9V56.8H533.9V38.05H554.45V41.45H547.25V43.2H553.45V44.2773C556.373 42.0575 558.183 39.2118 559.15 36.6L564.3 37.45C564.077 38.0226 563.839 38.5897 563.585 39.15H577.45V42.85H561.554C561.24 43.3251 560.907 43.7921 560.552 44.25H575.2V47.55H559.7V45.2859ZM542.55 43.2V41.45H539V43.2H542.55ZM539 46.35V48.3H548.4V46.35H539ZM539 51.4V53.45H542.55V51.4H539ZM570.5 54.15V51.65H572.55V54.15H570.5ZM565.55 54.15V51.65H567.6V54.15H565.55ZM560.7 54.15V51.65H562.65V54.15H560.7ZM576.7 48.9H556.75V56.9H576.7V48.9ZM594.2 67.15H600.15L601.4 43.3H592.95L594.2 67.15ZM594.1 72.3C593.267 72.9 592.85 73.9667 592.85 75.5C592.85 76.9667 593.267 78.0333 594.1 78.7C594.933 79.3333 595.95 79.65 597.15 79.65C598.317 79.65 599.317 79.3333 600.15 78.7C600.983 78.0333 601.4 76.9667 601.4 75.5C601.4 73.9667 600.983 72.9 600.15 72.3C599.317 71.6667 598.317 71.35 597.15 71.35C595.95 71.35 594.933 71.6667 594.1 72.3Z" fill="white"/>
</g>
<defs>
<clipPath id="clip0_2213_82">
<rect width="690" height="120" fill="white"/>
</clipPath>
</defs>
</svg>
