<svg width="313" height="271" viewBox="0 0 313 271" fill="none" xmlns="http://www.w3.org/2000/svg">
<rect width="91.2913" height="38.038" rx="19.019" transform="matrix(-2.38035e-07 -1 -1 7.23387e-08 271.066 265.295)" fill="#7D5951"/>
<rect width="91.2913" height="38.038" rx="19.019" transform="matrix(-2.87875e-07 -1 -1 5.98148e-08 101.793 265.295)" fill="#7D5951"/>
<rect width="96.997" height="38.038" rx="19.019" transform="matrix(-3.195e-07 -1 -1 5.38222e-08 290.082 271)" fill="#9C6D58"/>
<rect width="38.038" height="38.038" rx="19.019" transform="matrix(-3.195e-07 -1 -1 5.38222e-08 312.908 115.047)" fill="#7D5951"/>
<rect width="96.997" height="38.038" rx="19.019" transform="matrix(-2.91999e-07 -1 -1 5.88912e-08 120.816 271)" fill="#9C6D58"/>
<rect x="56.1484" y="72.8262" width="237.738" height="157.932" rx="50" transform="rotate(-0.0744137 56.1484 72.8262)" fill="#A06A5F"/>
<rect x="8.97461" y="72.8398" width="237.738" height="110.113" rx="55.0564" transform="rotate(-0.0744137 8.97461 72.8398)" fill="#A06A5F"/>
<path d="M19.0285 129.787C9.53823 129.787 2.26344 112.838 7.43024 102.764C9.1781 99.3567 28.3886 98.4057 30.6268 102.764C35.7983 112.835 28.5188 129.787 19.0285 129.787Z" fill="black"/>
<ellipse cx="4.75476" cy="6.65666" rx="4.75476" ry="6.65666" transform="matrix(-1 0 0 1 60.8691 90.334)" fill="black"/>
<ellipse cx="4.75476" cy="6.65666" rx="4.75476" ry="6.65666" transform="matrix(-1 0 0 1 41.8477 84.6289)" fill="black"/>
<path d="M55.1738 137.883C55.1738 141.687 53.1282 149.294 44.9458 149.294C36.7634 149.294 34.4079 141.687 34.2529 137.883" stroke="black" stroke-width="5" stroke-linecap="round"/>
<path d="M93.5977 100.277C99.291 95.4031 109.229 83.9626 103.435 77.1941C97.6399 70.4256 84.585 78.2255 78.7818 82.9715" stroke="black" stroke-width="5" stroke-linecap="round"/>
<path d="M19.7812 92.6641C14.0879 87.7899 4.14974 76.3493 9.94437 69.5808C15.739 62.8123 28.7939 70.6122 34.5971 75.3582" stroke="black" stroke-width="5" stroke-linecap="round"/>
<ellipse cx="64.8245" cy="34.2355" rx="27.3069" ry="34.2355" fill="#EFF794"/>
<ellipse cx="64.8245" cy="34.2355" rx="27.3069" ry="34.2355" fill="#EFF794"/>
<path d="M46.7363 23.9141C40.6499 23.2482 28.4025 22.5976 28.1044 25.3218C27.8064 28.046 39.8935 30.1619 45.9743 30.8794" stroke="black" stroke-width="5" stroke-linecap="round"/>
<path d="M45.9414 31.168C39.855 30.5021 27.6075 29.8515 27.3095 32.5757C27.0115 35.2999 39.0986 37.4158 45.1794 38.1333" stroke="black" stroke-width="5" stroke-linecap="round"/>
<path d="M56.5723 63.1758L58.3695 82.9457" stroke="black" stroke-width="5" stroke-linecap="round"/>
<path d="M70.0527 63.2559L71.85 83.0258" stroke="black" stroke-width="5" stroke-linecap="round"/>
<path d="M73.3828 47.6612C76.4215 52.9356 83.9576 62.9571 89.7919 60.8473C95.6263 58.7375 89.1842 47.6612 85.2339 42.3867" stroke="black" stroke-width="5" stroke-linecap="round"/>
<ellipse cx="52.7811" cy="16.4758" rx="2.03783" ry="2.85296" transform="rotate(23.9716 52.7811 16.4758)" fill="black"/>
<ellipse cx="61.2244" cy="17.552" rx="2.03783" ry="2.85296" transform="rotate(23.9716 61.2244 17.552)" fill="black"/>
</svg>
