<svg width="177" height="120" viewBox="0 0 177 120" fill="none" xmlns="http://www.w3.org/2000/svg">
<rect width="51.4283" height="21.4284" rx="10.7142" transform="matrix(-2.38035e-07 -1 -1 7.23387e-08 152.703 116.777)" fill="#7D5951"/>
<rect width="51.4283" height="21.4284" rx="10.7142" transform="matrix(-2.87875e-07 -1 -1 5.98148e-08 57.3457 116.777)" fill="#7D5951"/>
<rect width="54.6426" height="21.4284" rx="10.7142" transform="matrix(-3.195e-07 -1 -1 5.38222e-08 163.416 119.992)" fill="#9C6D58"/>
<rect width="21.4285" height="21.4284" rx="10.7142" transform="matrix(-3.195e-07 -1 -1 5.38222e-08 176.273 32.1367)" fill="#7D5951"/>
<rect width="54.6426" height="21.4284" rx="10.7142" transform="matrix(-2.91999e-07 -1 -1 5.88912e-08 68.0605 119.992)" fill="#9C6D58"/>
<rect x="31.6309" y="8.35352" width="133.928" height="88.97" rx="30" transform="rotate(-0.0744137 31.6309 8.35352)" fill="#A06A5F"/>
<rect x="5.05469" y="8.35938" width="133.928" height="62.0313" rx="30" transform="rotate(-0.0744137 5.05469 8.35938)" fill="#A06A5F"/>
<path d="M10.7177 40.4395C5.37143 40.4395 1.27323 30.8911 4.1839 25.2164C5.16855 23.2967 15.9906 22.761 17.2515 25.2164C20.1648 30.8897 16.064 40.4395 10.7177 40.4395Z" fill="black"/>
<ellipse cx="2.67856" cy="3.74998" rx="2.67856" ry="3.74998" transform="matrix(-1 0 0 1 34.2891 18.2148)" fill="black"/>
<ellipse cx="2.67856" cy="3.74998" rx="2.67856" ry="3.74998" transform="matrix(-1 0 0 1 23.5742 15)" fill="black"/>
<path d="M31.082 45C31.082 47.1428 29.9297 51.4285 25.3202 51.4285C20.7107 51.4285 19.3837 47.1428 19.2964 45" stroke="black" stroke-width="5" stroke-linecap="round"/>
<path d="M52.7266 23.8145C55.9339 21.0686 61.5325 14.6237 58.2681 10.8107C55.0037 6.99768 47.6493 11.3917 44.3802 14.0653" stroke="black" stroke-width="5" stroke-linecap="round"/>
<path d="M11.1426 19.5273C7.93525 16.7815 2.33668 10.3366 5.60104 6.52356C8.86541 2.71057 16.2198 7.10458 19.489 9.77821" stroke="black" stroke-width="5" stroke-linecap="round"/>
</svg>
