<svg width="86" height="105" viewBox="0 0 86 105" fill="none" xmlns="http://www.w3.org/2000/svg">
<ellipse cx="49.5" cy="42" rx="33.5" ry="42" fill="#EFF794"/>
<ellipse cx="49.5" cy="42" rx="33.5" ry="42" fill="#EFF794"/>
<path d="M27.3086 29.3379C19.8418 28.521 4.8167 27.7228 4.45108 31.0649C4.08547 34.4069 18.9139 37.0027 26.3738 37.8829" stroke="black" stroke-width="5" stroke-linecap="round"/>
<path d="M26.3359 38.2344C18.8691 37.4175 3.84404 36.6193 3.47842 39.9613C3.11281 43.3034 17.9412 45.8992 25.4011 46.7794" stroke="black" stroke-width="5" stroke-linecap="round"/>
<path d="M39.377 77.502L41.5818 101.756" stroke="black" stroke-width="5" stroke-linecap="round"/>
<path d="M55.916 77.6016L58.1209 101.855" stroke="black" stroke-width="5" stroke-linecap="round"/>
<path d="M60 58.4707C63.7279 64.9414 72.9731 77.2356 80.1306 74.6474C87.2882 72.0591 79.3851 58.4707 74.5388 52" stroke="black" stroke-width="5" stroke-linecap="round"/>
<ellipse cx="34.7276" cy="20.2138" rx="2.5" ry="3.5" transform="rotate(23.9716 34.7276 20.2138)" fill="black"/>
<ellipse cx="45.085" cy="21.5361" rx="2.5" ry="3.5" transform="rotate(23.9716 45.085 21.5361)" fill="black"/>
</svg>
