<svg width="158" height="207" viewBox="0 0 158 207" fill="none" xmlns="http://www.w3.org/2000/svg">
<rect y="141.199" width="64.1196" height="51.1623" rx="25.5811" transform="rotate(-0.0744137 0 141.199)" fill="#07A55A"/>
<rect width="24.144" height="17.7432" rx="8.87162" transform="matrix(-4.01042e-07 -1 -1 4.2936e-08 124.281 205.211)" fill="#016D3A"/>
<rect width="24.144" height="16.3784" rx="8.18918" transform="matrix(-4.85012e-07 -1 -1 3.55026e-08 62.8633 205.211)" fill="#016D3A"/>
<rect width="25.9324" height="16.3784" rx="8.18918" transform="matrix(-5.38294e-07 -1 -1 3.19457e-08 132.471 207)" fill="#07A55A"/>
<rect width="25.9324" height="17.7432" rx="8.87162" transform="matrix(-5.0985e-07 -1 -1 3.37279e-08 72.416 207)" fill="#07A55A"/>
<path d="M151.578 168.101C151.578 202.399 123.774 189.257 89.4764 189.257C55.1787 189.257 27.375 202.399 27.375 168.101C27.375 133.804 55.1787 106 89.4764 106C123.774 106 151.578 133.804 151.578 168.101Z" fill="#07A55A"/>
<path d="M42.3887 164.689H137.247" stroke="black" stroke-width="5" stroke-linecap="round"/>
<path d="M51.9414 141.486H128.374" stroke="black" stroke-width="5" stroke-linecap="round"/>
<path d="M42.3887 164.689H137.929" stroke="black" stroke-width="5" stroke-linecap="round"/>
<path d="M51.9414 141.486H128.374" stroke="black" stroke-width="5" stroke-linecap="round"/>
<path d="M90.1582 119.648L90.1582 176.412" stroke="black" stroke-width="5" stroke-linecap="round"/>
<path d="M116.092 127.018L116.092 176.973" stroke="black" stroke-width="5" stroke-linecap="round"/>
<path d="M64.2266 127.018L64.2266 176.973" stroke="black" stroke-width="5" stroke-linecap="round"/>
<path d="M137.928 184.703C142.768 187.048 152.88 190.849 154.604 187.291C156.328 183.733 147.143 178.018 142.335 175.606" stroke="black" stroke-width="5" stroke-linecap="round"/>
<ellipse cx="3.65587" cy="5.11822" rx="3.65587" ry="5.11822" transform="matrix(-1 0 0 1 27.8613 152.404)" fill="black"/>
<ellipse cx="3.65587" cy="5.11822" rx="3.65587" ry="5.11822" transform="matrix(-1 0 0 1 16.9434 152.404)" fill="black"/>
<path d="M29.3555 172.879C25.2609 179.703 10.9298 172.879 10.9298 172.879" stroke="black" stroke-width="5" stroke-linecap="round"/>
<rect width="19.4576" height="9.72881" rx="4.8644" transform="matrix(-3.08612e-07 -1 -1 5.57956e-08 118.047 117.609)" fill="#A58B90"/>
<rect width="19.4576" height="9.72881" rx="4.8644" transform="matrix(-3.08612e-07 -1 -1 5.57956e-08 70.793 117.609)" fill="#A58B90"/>
<rect width="20.8475" height="9.72881" rx="4.8644" transform="matrix(-1.65773e-07 -1 -1 1.03733e-07 122.91 119)" fill="#B5ACAC"/>
<rect width="20.8475" height="9.72881" rx="4.8644" transform="matrix(-1.65773e-07 -1 -1 1.03733e-07 75.6562 119)" fill="#B5ACAC"/>
<rect width="72.9661" height="45.8644" rx="22.9322" transform="matrix(1 -8.74228e-08 -8.74228e-08 -1 54.1152 112.051)" fill="#DBDCDE"/>
<rect width="83" height="33" rx="16.5" transform="matrix(1 -8.74228e-08 -8.74228e-08 -1 39.9648 112)" fill="#DBDCDE"/>
<path d="M118.818 73.3398C121.46 71.5516 127.355 68.8782 129.8 72.4908C132.246 76.1035 127.666 80.72 125.071 82.5767" stroke="black" stroke-width="5" stroke-linecap="round"/>
<path d="M59.5233 81.2554C67.1022 68.2454 79.5504 40.4608 84.902 43.7647C90.2537 47.0686 72.4663 71.3703 64.9274 84.4035" stroke="black" stroke-width="5" stroke-linecap="round"/>
<path d="M52.8198 80.2043C57.4853 65.8888 63.7955 36.1041 69.7235 38.2055C75.6514 40.3068 63.3877 67.8125 58.7662 82.1422" stroke="black" stroke-width="5" stroke-linecap="round"/>
<ellipse cx="1.73729" cy="2.4322" rx="1.73729" ry="2.4322" transform="matrix(-1 0 0 1 57.5898 90.5078)" fill="black"/>
<ellipse cx="1.73729" cy="2.4322" rx="1.73729" ry="2.4322" transform="matrix(-1 0 0 1 50.6406 88.4238)" fill="black"/>
<path d="M57.5898 103.711C57.5898 105.101 56.8424 107.88 53.8527 107.88C50.8631 107.88 50.0024 105.101 49.9458 103.711" stroke="black" stroke-width="5" stroke-linecap="round"/>
<path d="M44.9342 102.163C46.8111 102.259 48.403 99.3522 47.4721 97.5282C47.1573 96.9112 43.3666 96.5487 42.8845 97.2925C41.7707 99.011 43.0573 102.066 44.9342 102.163Z" fill="black"/>
<rect width="21" height="24" rx="10.5" transform="matrix(-1.65773e-07 -1 -1 1.03733e-07 117.965 104)" fill="#B5ACAC"/>
<rect width="11" height="12" rx="5.5" transform="matrix(-1.65773e-07 -1 -1 1.03733e-07 92.9648 87)" fill="#B5ACAC"/>
<ellipse cx="107.934" cy="28.875" rx="23.0312" ry="28.875" fill="#EFF794"/>
<ellipse cx="107.934" cy="28.875" rx="23.0312" ry="28.875" fill="#EFF794"/>
<path d="M92.6777 20.1699C87.5443 19.6083 77.2146 19.0596 76.9632 21.3572C76.7118 23.6549 86.9064 25.4395 92.0351 26.0446" stroke="black" stroke-width="5" stroke-linecap="round"/>
<path d="M92.0078 26.2871C86.8744 25.7255 76.5446 25.1768 76.2933 27.4744C76.0419 29.7721 86.2364 31.5567 91.3651 32.1618" stroke="black" stroke-width="5" stroke-linecap="round"/>
<path d="M100.975 53.2832L102.49 69.9576" stroke="black" stroke-width="5" stroke-linecap="round"/>
<path d="M112.344 53.3516L113.86 70.0259" stroke="black" stroke-width="5" stroke-linecap="round"/>
<path d="M115.152 40.1986C117.715 44.6472 124.071 53.0995 128.992 51.3201C133.913 49.5406 128.48 40.1986 125.148 35.75" stroke="black" stroke-width="5" stroke-linecap="round"/>
<ellipse cx="97.7765" cy="13.897" rx="1.71875" ry="2.40625" transform="rotate(23.9716 97.7765 13.897)" fill="black"/>
<ellipse cx="104.898" cy="14.8052" rx="1.71875" ry="2.40625" transform="rotate(23.9716 104.898 14.8052)" fill="black"/>
</svg>
