<svg width="153" height="136" viewBox="0 0 153 136" fill="none" xmlns="http://www.w3.org/2000/svg">
<rect x="50.3926" y="114.57" width="44" height="13" rx="6.5" transform="rotate(-99.8074 50.3926 114.57)" fill="#AC8055"/>
<rect x="123.203" y="122.271" width="51.1707" height="13" rx="6.5" transform="rotate(-141.062 123.203 122.271)" fill="#AC8055"/>
<rect x="44.0059" y="118.719" width="47" height="13" rx="6.5" transform="rotate(-99.8074 44.0059 118.719)" fill="#E4B180"/>
<rect x="121.691" y="130.051" width="62.2599" height="13" rx="6.5" transform="rotate(-141.062 121.691 130.051)" fill="#E4B180"/>
<ellipse cx="111.044" cy="77.3952" rx="30.8349" ry="26.3727" transform="rotate(20.1926 111.044 77.3952)" fill="#E4B180"/>
<ellipse cx="65.6761" cy="68.5521" rx="41.6999" ry="24.3586" transform="rotate(20.1926 65.6761 68.5521)" fill="#E4B180"/>
<path d="M110.635 53.4258C109.102 49.9503 104.959 43.4743 100.653 45.3736C96.3482 47.2729 98.1752 54.7706 99.6269 58.282" stroke="black" stroke-width="5" stroke-linecap="round"/>
<path d="M137.58 71.4102C141.08 69.9338 147.704 66.09 146.201 62.5257C144.697 58.9613 137.264 60.8879 133.736 62.2968" stroke="black" stroke-width="5" stroke-linecap="round"/>
<ellipse cx="107.039" cy="67.4774" rx="2.9196" ry="4.3794" transform="rotate(20.1926 107.039 67.4774)" fill="black"/>
<ellipse cx="126.219" cy="74.5321" rx="2.9196" ry="4.3794" transform="rotate(20.1926 126.219 74.5321)" fill="black"/>
<path d="M104.262 76.4844C103.583 78.3308 103.153 82.3652 106.867 83.7312C110.581 85.0971 113.008 81.7974 113.758 79.9768" stroke="black" stroke-width="5" stroke-linecap="round"/>
<path d="M113.758 79.9766C113.079 81.823 112.649 85.8574 116.363 87.2234C120.077 88.5893 122.504 85.2896 123.254 83.469" stroke="black" stroke-width="5" stroke-linecap="round"/>
<path d="M114.153 80.1223C116.691 81.0558 120.12 77.7403 119.619 74.8363C119.449 73.854 114.395 71.7381 113.415 72.5546C111.151 74.441 111.615 79.1887 114.153 80.1223Z" fill="black"/>
<path d="M131.893 81.7697L143.33 82.8314" stroke="black" stroke-width="5" stroke-linecap="round"/>
<path d="M97.9599 69.6017L88.5609 63.0006" stroke="black" stroke-width="5" stroke-linecap="round"/>
<path d="M130 86.9121L141.069 90.983" stroke="black" stroke-width="5" stroke-linecap="round"/>
<path d="M96.0684 74.7461L84.9996 70.6752" stroke="black" stroke-width="5" stroke-linecap="round"/>
<path d="M35.0564 57.5201C34.2231 46.1867 35.057 21.0207 14.5565 17.0198C-2.73124 13.6458 2.05651 4.51976 11.5565 5.01976C21.0565 5.51976 37.0564 15.0201 42.0564 29.5201C45.7284 40.1688 44.5564 45.3535 45.5564 48.5201" stroke="black" stroke-width="5" stroke-linecap="round"/>
<path d="M4.86719 29.1003C9.85237 28.5755 14.2342 29.1312 15.9112 34.1621" stroke="black" stroke-width="5" stroke-linecap="round"/>
<path d="M5.375 38.502C6.29914 39.118 7.47516 39.081 8.38887 39.8542C9.13108 40.4822 9.55331 41.1094 9.913 42.0086" stroke="black" stroke-width="5" stroke-linecap="round"/>
</svg>
