<svg width="194" height="245" viewBox="0 0 194 245" fill="none" xmlns="http://www.w3.org/2000/svg">
<rect width="29.2211" height="13" rx="6.5" transform="matrix(0.476531 -0.879158 -0.879158 -0.476531 39.8086 154.221)" fill="#016D3A"/>
<rect width="29.2211" height="13" rx="6.5" transform="matrix(0.99925 0.038726 0.0387261 -0.99925 13.1387 152.455)" fill="#016D3A"/>
<rect width="17.7976" height="13" rx="6.5" transform="matrix(0.522105 -0.852881 -0.852881 -0.522105 18.252 159.725)" fill="#016D3A"/>
<rect width="40" height="13" rx="6.5" transform="matrix(-2.06325e-07 -1 -1 8.34564e-08 80 245)" fill="#016D3A"/>
<rect x="166" y="46" width="31" height="72" rx="15.5" transform="rotate(90 166 46)" fill="#FFB800"/>
<rect x="166" y="15" width="31" height="72" rx="15.5" transform="rotate(90 166 15)" fill="#FFB800"/>
<rect x="166" y="77" width="30" height="72" rx="15" transform="rotate(90 166 77)" fill="#FFB800"/>
<rect x="166" y="107" width="31" height="72" rx="15.5" transform="rotate(90 166 107)" fill="#FFB800"/>
<rect x="166" y="138" width="31" height="72" rx="15.5" transform="rotate(90 166 138)" fill="#FFB800"/>
<rect y="12.1953" width="149.599" height="88.97" rx="44.485" transform="rotate(-0.0744137 0 12.1953)" fill="#07A55A"/>
<rect x="82.0078" y="13.1562" width="67.4307" height="156.445" rx="33.7154" transform="rotate(-0.0744137 82.0078 13.1562)" fill="#07A55A"/>
<rect x="42.877" y="46.0664" width="106.916" height="176.459" rx="53.4581" transform="rotate(-0.0744137 42.877 46.0664)" fill="#07A55A"/>
<rect x="49.2754" y="109.262" width="73.7074" height="93.8364" rx="36.8537" transform="rotate(-0.0744137 49.2754 109.262)" fill="#BEFD6F"/>
<rect x="128" y="138.02" width="15.991" height="20.3581" rx="7.99551" transform="rotate(-0.0744137 128 138.02)" fill="#058448"/>
<rect x="132" y="114.016" width="11.9844" height="15.2573" rx="5.99222" transform="rotate(-0.0744137 132 114.016)" fill="#058448"/>
<rect x="134" y="86.0117" width="9.98573" height="12.7128" rx="4.99287" transform="rotate(-0.0744137 134 86.0117)" fill="#058448"/>
<rect x="111" y="91.0117" width="9.41892" height="11.9912" rx="4.70946" transform="rotate(-0.0744137 111 91.0117)" fill="#058448"/>
<rect width="5.98673" height="7.62167" rx="2.99336" transform="matrix(-0.999999 0.00129876 0.00129876 0.999999 130.986 103)" fill="#058448"/>
<ellipse cx="2.67856" cy="3.74998" rx="2.67856" ry="3.74998" transform="matrix(-1 0 0 1 119.357 19)" fill="black"/>
<ellipse cx="2.67856" cy="3.74998" rx="2.67856" ry="3.74998" transform="matrix(-1 0 0 1 102.357 14)" fill="black"/>
<path d="M72.5 60C72.5 65 66.6333 75 43.1667 75C19.7 75 13.4444 72.5 13 67.5" stroke="black" stroke-width="5" stroke-linecap="round"/>
<path d="M56 73.9121C57.1127 76.883 59.9792 82.5847 62.543 81.6245C65.1069 80.6642 63.6195 74.446 62.5553 71.4569" stroke="black" stroke-width="5" stroke-linecap="round"/>
<path d="M62.5547 71.4551C63.6674 74.426 66.5339 80.1277 69.0977 79.1674C71.6615 78.2072 70.1742 71.9889 69.11 68.9998" stroke="black" stroke-width="5" stroke-linecap="round"/>
<rect width="42" height="12" rx="5.99998" transform="matrix(-7.43358e-07 -1 -1 2.31331e-08 117 245)" fill="#07A55A"/>
<rect width="29.2211" height="13" rx="6.5" transform="matrix(0.476531 -0.879158 -0.879158 -0.476531 117.682 154.221)" fill="#07A55A"/>
<rect width="29.2211" height="13" rx="6.5" transform="matrix(0.99925 0.038726 0.0387261 -0.99925 91.0117 152.455)" fill="#07A55A"/>
<rect width="17.7976" height="13" rx="6.5" transform="matrix(0.522105 -0.852881 -0.852881 -0.522105 96.125 159.725)" fill="#07A55A"/>
<path d="M145.457 179.576C160.931 176.471 191.738 169.552 191.168 166.712C190.598 163.871 159.485 169.263 144 172.314" stroke="black" stroke-width="5" stroke-linecap="round"/>
<ellipse cx="2.67856" cy="3.74998" rx="2.67856" ry="3.74998" transform="matrix(-1 0 0 1 29.0723 44.2148)" fill="black"/>
<ellipse cx="2.67856" cy="3.74998" rx="2.67856" ry="3.74998" transform="matrix(-1 0 0 1 18.3574 41)" fill="black"/>
<path d="M129.49 23.7188C130.598 19.5837 130.97 10.8196 123.594 8.84322C116.218 6.86682 111.879 14.5679 110.631 18.6655" stroke="black" stroke-width="5" stroke-linecap="round"/>
<path d="M109.859 18.459C110.967 14.324 111.339 5.55985 103.963 3.58345C96.5872 1.60705 92.2479 9.30811 91.0002 13.4057" stroke="black" stroke-width="5" stroke-linecap="round"/>
</svg>
