<svg width="189" height="105" viewBox="0 0 189 105" fill="none" xmlns="http://www.w3.org/2000/svg">
<rect x="33.2793" y="101.525" width="44.2354" height="19.9773" rx="9.98863" transform="rotate(-90 33.2793 101.525)" fill="#BF9E4A"/>
<rect x="142.279" y="101.525" width="44.2354" height="19.9773" rx="9.98863" transform="rotate(-90 142.279 101.525)" fill="#BF9E4A"/>
<rect x="23.291" y="104.379" width="47.0893" height="19.9773" rx="9.98863" transform="rotate(-90 23.291 104.379)" fill="#EFC66E"/>
<rect x="132.291" y="104.379" width="47.0893" height="19.9773" rx="9.98863" transform="rotate(-90 132.291 104.379)" fill="#EFC66E"/>
<rect x="17" y="12" width="125" height="69" rx="34.5" fill="#EFC66E"/>
<rect x="84.291" y="3" width="95" height="78" rx="39" fill="#EFC66E"/>
<rect x="63.291" y="12" width="58" height="60" rx="29" fill="#EFC66E"/>
<rect x="136.291" y="41" width="52" height="28" rx="14" fill="#EFC66E"/>
<path d="M111.291 25C111.291 35.6667 113.344 57 121.558 57C129.771 57 132.135 35.6667 132.291 25" stroke="black" stroke-width="5" stroke-linecap="round"/>
<path d="M37.2637 25.373C30.7643 16.9152 17.0347 0.560967 14.1117 2.80718C11.1886 5.05339 23.3459 22.6158 29.7899 31.1162" stroke="black" stroke-width="5" stroke-linecap="round"/>
<path d="M152.793 35.1953C151.847 31.8439 149.025 25.4038 145.303 26.4544C141.581 27.5049 142.401 34.5101 143.277 37.8813" stroke="black" stroke-width="5" stroke-linecap="round"/>
<path d="M171.734 30.2266C171.025 26.8173 168.695 20.1884 165.052 20.9467C161.409 21.7049 161.779 28.7417 162.42 32.1653" stroke="black" stroke-width="5" stroke-linecap="round"/>
<path d="M179.291 52C182.855 52 185.587 45.774 183.647 42.0738C182.991 40.822 175.776 40.4727 174.936 42.0738C172.994 45.7731 175.727 52 179.291 52Z" fill="black"/>
<path d="M3 21.873C5.20714 24.1964 7.30785 25.9007 9.93467 27.6519" stroke="black" stroke-width="5" stroke-linecap="round"/>
<path d="M10.5117 17.25C10.6201 20.176 11.8385 21.772 13.9791 23.6068" stroke="black" stroke-width="5" stroke-linecap="round"/>
<path d="M157.291 57C157.291 59.6667 158.66 65 164.135 65C169.611 65 171.187 59.6667 171.291 57" stroke="black" stroke-width="5" stroke-linecap="round"/>
</svg>
