<svg width="444" height="105" viewBox="0 0 444 105" fill="none" xmlns="http://www.w3.org/2000/svg">
<rect x="33.9883" y="101.523" width="44.2354" height="19.9773" rx="9.98863" transform="rotate(-90 33.9883 101.523)" fill="#BF9E4A"/>
<rect x="397.279" y="101.523" width="44.2354" height="19.9773" rx="9.98863" transform="rotate(-90 397.279 101.523)" fill="#BF9E4A"/>
<rect x="24" y="104.379" width="47.0893" height="19.9773" rx="9.98863" transform="rotate(-90 24 104.379)" fill="#EFC66E"/>
<rect x="387.291" y="104.377" width="47.0893" height="19.9773" rx="9.98863" transform="rotate(-90 387.291 104.377)" fill="#EFC66E"/>
<rect x="16" y="12" width="410" height="69" rx="34.5" fill="#EFC66E"/>
<rect x="339.291" y="2.99805" width="95" height="78" rx="39" fill="#EFC66E"/>
<rect x="391.291" y="40.998" width="52" height="28" rx="14" fill="#EFC66E"/>
<path d="M366.291 24.998C366.291 35.6647 368.344 56.998 376.558 56.998C384.771 56.998 387.135 35.6647 387.291 24.998" stroke="black" stroke-width="5" stroke-linecap="round"/>
<path d="M37.2637 25.373C30.7643 16.9152 17.0347 0.560967 14.1117 2.80718C11.1886 5.05339 23.3459 22.6158 29.7899 31.1162" stroke="black" stroke-width="5" stroke-linecap="round"/>
<path d="M407.793 35.1934C406.847 31.842 404.025 25.4019 400.303 26.4524C396.581 27.503 397.401 34.5081 398.277 37.8794" stroke="black" stroke-width="5" stroke-linecap="round"/>
<path d="M426.734 30.2246C426.025 26.8154 423.695 20.1864 420.052 20.9447C416.409 21.703 416.779 28.7398 417.42 32.1634" stroke="black" stroke-width="5" stroke-linecap="round"/>
<path d="M434.291 51.998C437.855 51.998 440.587 45.772 438.647 42.0718C437.991 40.8201 430.776 40.4708 429.936 42.0718C427.994 45.7711 430.727 51.998 434.291 51.998Z" fill="black"/>
<path d="M3 21.873C5.20714 24.1964 7.30785 25.9007 9.93467 27.6519" stroke="black" stroke-width="5" stroke-linecap="round"/>
<path d="M10.5117 17.248C10.6201 20.1741 11.8385 21.7701 13.9791 23.6048" stroke="black" stroke-width="5" stroke-linecap="round"/>
<path d="M412.291 56.998C412.291 59.6647 413.66 64.998 419.135 64.998C424.611 64.998 426.187 59.6647 426.291 56.998" stroke="black" stroke-width="5" stroke-linecap="round"/>
</svg>
