<svg width="188" height="207" viewBox="0 0 188 207" fill="none" xmlns="http://www.w3.org/2000/svg">
<rect width="44.2354" height="19.9773" rx="9.98863" transform="matrix(-2.80556e-07 -1 -1 6.13751e-08 155.012 203.525)" fill="#BF9E4A"/>
<rect width="47.0893" height="19.9773" rx="9.98863" transform="matrix(-2.66242e-07 -1 -1 6.45885e-08 165 206.379)" fill="#EFC66E"/>
<rect width="125" height="69" rx="34.5" transform="matrix(-1 0 0 1 171.291 114)" fill="#EFC66E"/>
<rect width="95" height="78" rx="39" transform="matrix(-1 0 0 1 104 105)" fill="#EFC66E"/>
<rect width="58" height="60" rx="29" transform="matrix(-1 0 0 1 125 114)" fill="#EFC66E"/>
<path d="M151.027 127.373C157.527 118.915 171.256 102.561 174.179 104.807C177.102 107.053 164.945 124.616 158.501 133.116" stroke="black" stroke-width="5" stroke-linecap="round"/>
<path d="M177.779 119.25C177.671 122.176 176.453 123.772 174.312 125.607" stroke="black" stroke-width="5" stroke-linecap="round"/>
<rect width="44" height="13" rx="6.5" transform="matrix(0.170337 -0.985386 -0.985386 -0.170337 128.898 112.57)" fill="#AC8055"/>
<rect width="51.1707" height="13" rx="6.5" transform="matrix(0.777826 -0.628479 -0.628479 -0.777827 56.0879 120.271)" fill="#AC8055"/>
<rect width="47" height="13" rx="6.5" transform="matrix(0.170337 -0.985386 -0.985386 -0.170337 135.285 116.719)" fill="#E4B180"/>
<rect width="62.2599" height="13" rx="6.5" transform="matrix(0.777826 -0.628479 -0.628479 -0.777827 57.5996 128.051)" fill="#E4B180"/>
<ellipse cx="30.8349" cy="26.3727" rx="30.8349" ry="26.3727" transform="matrix(-0.938538 0.345177 0.345177 0.938538 88.084 40)" fill="#E4B180"/>
<ellipse cx="41.6999" cy="24.3586" rx="41.6999" ry="24.3586" transform="matrix(-0.938538 0.345177 0.345177 0.938538 144.344 29.2969)" fill="#E4B180"/>
<path d="M83.2227 72.7461L94.2914 68.6752" stroke="black" stroke-width="5" stroke-linecap="round"/>
<path d="M144.235 55.5201C145.068 44.1867 144.234 19.0207 164.735 15.0198C182.022 11.6458 177.235 2.51976 167.735 3.01976C158.235 3.51976 142.235 13.0201 137.235 27.5201C133.563 38.1688 134.735 43.3535 133.735 46.5201" stroke="black" stroke-width="5" stroke-linecap="round"/>
<path d="M174.424 27.1003C169.439 26.5755 165.057 27.1312 163.38 32.1621" stroke="black" stroke-width="5" stroke-linecap="round"/>
<path d="M173.916 36.502C172.992 37.118 171.816 37.081 170.902 37.8542C170.16 38.4822 169.738 39.1094 169.378 40.0086" stroke="black" stroke-width="5" stroke-linecap="round"/>
<path d="M68.6562 51.4258C70.1895 47.9503 74.3322 41.4743 78.6375 43.3736C82.9428 45.2729 81.1158 52.7706 79.6641 56.282" stroke="black" stroke-width="5" stroke-linecap="round"/>
<path d="M41.7109 69.4102C38.211 67.9338 31.5869 64.09 33.0904 60.5257C34.5939 56.9613 42.0267 58.8879 45.5551 60.2968" stroke="black" stroke-width="5" stroke-linecap="round"/>
<ellipse cx="2.9196" cy="4.3794" rx="2.9196" ry="4.3794" transform="matrix(-0.938538 0.345177 0.345177 0.938538 73.4805 60.3594)" fill="black"/>
<ellipse cx="2.9196" cy="4.3794" rx="2.9196" ry="4.3794" transform="matrix(-0.938538 0.345177 0.345177 0.938538 54.3008 67.4141)" fill="black"/>
<path d="M75.0293 74.4844C75.7084 76.3308 76.1381 80.3652 72.4241 81.7312C68.71 83.0971 66.2827 79.7974 65.5332 77.9768" stroke="black" stroke-width="5" stroke-linecap="round"/>
<path d="M65.5332 77.9766C66.2123 79.823 66.642 83.8574 62.928 85.2234C59.2139 86.5893 56.7866 83.2896 56.0371 81.469" stroke="black" stroke-width="5" stroke-linecap="round"/>
<path d="M65.1379 78.1223C62.5997 79.0558 59.1714 75.7403 59.6722 72.8363C59.8416 71.854 64.8965 69.7381 65.8763 70.5546C68.1404 72.441 67.6762 77.1887 65.1379 78.1223Z" fill="black"/>
<path d="M47.3975 79.7697L35.9613 80.8314" stroke="black" stroke-width="5" stroke-linecap="round"/>
<path d="M81.3311 67.6037L90.7301 61.0026" stroke="black" stroke-width="5" stroke-linecap="round"/>
<path d="M49.291 84.9121L38.2223 88.983" stroke="black" stroke-width="5" stroke-linecap="round"/>
<rect width="44.2354" height="19.9773" rx="9.98863" transform="matrix(-2.80556e-07 -1 -1 6.13751e-08 46.0117 203.527)" fill="#BF9E4A"/>
<rect width="47.0893" height="19.9773" rx="9.98863" transform="matrix(-2.66242e-07 -1 -1 6.45885e-08 56 206.381)" fill="#EFC66E"/>
<rect width="52" height="28" rx="14" transform="matrix(-1 0 0 1 52 143)" fill="#EFC66E"/>
<path d="M77 127C77 137.667 74.9467 159 66.7333 159C58.52 159 56.1556 137.667 56 127" stroke="black" stroke-width="5" stroke-linecap="round"/>
<path d="M35.498 137.197C36.444 133.846 39.2664 127.406 42.9882 128.456C46.71 129.507 45.8895 136.512 45.0141 139.883" stroke="black" stroke-width="5" stroke-linecap="round"/>
<path d="M16.5566 132.229C17.2663 128.819 19.5962 122.19 23.2392 122.949C26.8822 123.707 26.5118 130.744 25.8711 134.167" stroke="black" stroke-width="5" stroke-linecap="round"/>
<path d="M8.99964 154C5.43569 154 2.70374 147.774 4.64407 144.074C5.30045 142.822 12.5147 142.473 13.3552 144.074C15.2973 147.773 12.5636 154 8.99964 154Z" fill="black"/>
<path d="M185.291 123.875C183.084 126.198 180.983 127.903 178.356 129.654" stroke="black" stroke-width="5" stroke-linecap="round"/>
<path d="M31 159C31 161.667 29.6311 167 24.1556 167C18.68 167 17.1037 161.667 17 159" stroke="black" stroke-width="5" stroke-linecap="round"/>
</svg>
