<svg width="132" height="831" viewBox="0 0 132 831" fill="none" xmlns="http://www.w3.org/2000/svg">
<rect width="62" height="14" rx="7" transform="matrix(-1.38184e-07 -1 -1 1.2461e-07 85 826)" fill="#D7B70F"/>
<rect width="62" height="14" rx="7" transform="matrix(-1.38184e-07 -1 -1 1.2461e-07 59 826)" fill="#D7B70F"/>
<rect width="67" height="14" rx="7" transform="matrix(-1.31134e-07 -1 -1 1.31134e-07 92 831)" fill="#F6E518"/>
<rect width="67" height="14" rx="7" transform="matrix(-1.31134e-07 -1 -1 1.31134e-07 66 831)" fill="#F6E518"/>
<rect x="69" y="19" width="755" height="49" rx="24.5" transform="rotate(90 69 19)" fill="#F6E518"/>
<rect x="20" y="694" width="96" height="80" rx="30" fill="#F6E518"/>
<ellipse cx="32.5" cy="40.5" rx="2.5" ry="3.5" fill="black"/>
<ellipse cx="41.5" cy="40.5" rx="2.5" ry="3.5" fill="black"/>
<path d="M56 49C56 56.6667 56.9778 72 60.8889 72C64.8 72 65.9259 56.6667 66 49" stroke="black" stroke-width="5" stroke-linecap="round"/>
<path d="M27 49C19 49 3 49.6844 3 52.4222C3 55.16 19 55.9481 27 56" stroke="black" stroke-width="5" stroke-linecap="round"/>
<path d="M27 56C19 56 3 56.6844 3 59.4222C3 62.16 19 62.9481 27 63" stroke="black" stroke-width="5" stroke-linecap="round"/>
<circle cx="36" cy="621" r="13" fill="#CE9C63"/>
<circle cx="36" cy="508" r="13" fill="#CE9C63"/>
<circle cx="36" cy="400" r="13" fill="#CE9C63"/>
<circle cx="36" cy="287" r="13" fill="#CE9C63"/>
<circle cx="36" cy="182" r="13" fill="#CE9C63"/>
<circle cx="36" cy="100" r="13" fill="#CE9C63"/>
<circle cx="39" cy="643" r="4" fill="#CE9C63"/>
<circle cx="59" cy="617" r="4" fill="#CE9C63"/>
<circle cx="27" cy="648" r="4" fill="#CE9C63"/>
<circle cx="39" cy="530" r="4" fill="#CE9C63"/>
<circle cx="59" cy="504" r="4" fill="#CE9C63"/>
<circle cx="80" cy="725" r="13" fill="#CE9C63"/>
<circle cx="39" cy="422" r="4" fill="#CE9C63"/>
<circle cx="39" cy="309" r="4" fill="#CE9C63"/>
<circle cx="39" cy="204" r="4" fill="#CE9C63"/>
<circle cx="39" cy="122" r="4" fill="#CE9C63"/>
<circle cx="59" cy="396" r="4" fill="#CE9C63"/>
<circle cx="59" cy="283" r="4" fill="#CE9C63"/>
<circle cx="59" cy="178" r="4" fill="#CE9C63"/>
<circle cx="59" cy="96" r="4" fill="#CE9C63"/>
<circle cx="56.5" cy="641.5" r="9.5" fill="#CE9C63"/>
<circle cx="27" cy="535" r="4" fill="#CE9C63"/>
<circle cx="29.5" cy="692.5" r="9.5" fill="#CE9C63"/>
<circle cx="49.5" cy="702.5" r="9.5" fill="#CE9C63"/>
<circle cx="43" cy="668" r="16" fill="#CE9C63"/>
<circle cx="56.5" cy="528.5" r="9.5" fill="#CE9C63"/>
<circle cx="29.5" cy="579.5" r="9.5" fill="#CE9C63"/>
<circle cx="49.5" cy="589.5" r="9.5" fill="#CE9C63"/>
<circle cx="43" cy="555" r="16" fill="#CE9C63"/>
<circle cx="27" cy="427" r="4" fill="#CE9C63"/>
<circle cx="27" cy="314" r="4" fill="#CE9C63"/>
<circle cx="27" cy="209" r="4" fill="#CE9C63"/>
<circle cx="27" cy="127" r="4" fill="#CE9C63"/>
<circle cx="74" cy="701" r="4" fill="#CE9C63"/>
<circle cx="90.5" cy="751.5" r="12.5" fill="#CE9C63"/>
<circle cx="103" cy="728" r="7" fill="#CE9C63"/>
<circle cx="56.5" cy="420.5" r="9.5" fill="#CE9C63"/>
<circle cx="56.5" cy="307.5" r="9.5" fill="#CE9C63"/>
<circle cx="56.5" cy="202.5" r="9.5" fill="#CE9C63"/>
<circle cx="56.5" cy="120.5" r="9.5" fill="#CE9C63"/>
<circle cx="29.5" cy="471.5" r="9.5" fill="#CE9C63"/>
<circle cx="29.5" cy="358.5" r="9.5" fill="#CE9C63"/>
<circle cx="29.5" cy="253.5" r="9.5" fill="#CE9C63"/>
<circle cx="49.5" cy="481.5" r="9.5" fill="#CE9C63"/>
<circle cx="49.5" cy="368.5" r="9.5" fill="#CE9C63"/>
<circle cx="49.5" cy="263.5" r="9.5" fill="#CE9C63"/>
<circle cx="43" cy="447" r="16" fill="#CE9C63"/>
<circle cx="43" cy="334" r="16" fill="#CE9C63"/>
<circle cx="43" cy="229" r="16" fill="#CE9C63"/>
<circle cx="43" cy="147" r="16" fill="#CE9C63"/>
<circle cx="43" cy="745" r="16" fill="#CE9C63"/>
<circle cx="56" cy="722" r="7" fill="#CE9C63"/>
<circle cx="30" cy="722" r="7" fill="#CE9C63"/>
<path d="M52.5 30V3" stroke="black" stroke-width="5" stroke-linecap="round"/>
<path d="M110 715L129.092 734.092" stroke="black" stroke-width="5" stroke-linecap="round"/>
<path d="M43 24L43 3" stroke="black" stroke-width="5" stroke-linecap="round"/>
</svg>
