<svg width="159" height="124" viewBox="0 0 159 124" fill="none" xmlns="http://www.w3.org/2000/svg">
<rect width="51.4283" height="21.4284" rx="10.7142" transform="matrix(-2.38035e-07 -1 -1 7.23387e-08 139.143 120.785)" fill="#BB6F8E"/>
<rect width="51.4283" height="21.4284" rx="10.7142" transform="matrix(-2.87875e-07 -1 -1 5.98148e-08 76.7852 120.785)" fill="#BB6F8E"/>
<rect width="54.6426" height="21.4284" rx="10.7142" transform="matrix(-3.195e-07 -1 -1 5.38222e-08 149.855 124)" fill="#FFADCE"/>
<rect width="54.6426" height="21.4284" rx="10.7142" transform="matrix(-2.91999e-07 -1 -1 5.88912e-08 87.5 124)" fill="#FFADCE"/>
<rect y="12.3594" width="149.599" height="88.97" rx="30" transform="rotate(-0.0744137 0 12.3594)" fill="#FFADCE"/>
<ellipse cx="2.67856" cy="3.74998" rx="2.67856" ry="3.74998" transform="matrix(-1 0 0 1 25.4297 27.2148)" fill="black"/>
<ellipse cx="2.67856" cy="3.74998" rx="2.67856" ry="3.74998" transform="matrix(-1 0 0 1 14.7148 24)" fill="black"/>
<ellipse cx="2.67856" cy="3.74998" rx="2.67856" ry="3.74998" transform="matrix(-1 0 0 1 61.4297 22.2148)" fill="black"/>
<ellipse cx="2.67856" cy="3.74998" rx="2.67856" ry="3.74998" transform="matrix(-1 0 0 1 50.7148 19)" fill="black"/>
<path d="M66.3574 60C66.3574 65 60.4908 75 37.0241 75C13.5574 75 7.30187 72.5 6.85742 67.5" stroke="black" stroke-width="5" stroke-linecap="round"/>
<path d="M75.3574 15C75.3574 11 74.673 3 71.9352 3C69.1974 3 68.4093 11 68.3574 15" stroke="black" stroke-width="5" stroke-linecap="round"/>
<path d="M68.3574 15C68.3574 11 67.673 3 64.9352 3C62.1974 3 61.4093 11 61.3574 15" stroke="black" stroke-width="5" stroke-linecap="round"/>
<path d="M144.357 29L155.857 57.5" stroke="black" stroke-width="5" stroke-linecap="round"/>
</svg>
