<svg width="233" height="227" viewBox="0 0 233 227" fill="none" xmlns="http://www.w3.org/2000/svg">
<rect width="75.8931" height="31.6221" rx="15.8111" transform="matrix(-2.38035e-07 -1 -1 7.23387e-08 205.334 221.816)" fill="#BB6F8E"/>
<rect width="75.8931" height="31.6221" rx="15.8111" transform="matrix(-2.87875e-07 -1 -1 5.98148e-08 113.312 221.816)" fill="#BB6F8E"/>
<rect width="80.6365" height="31.6221" rx="15.8111" transform="matrix(-3.195e-07 -1 -1 5.38222e-08 221.143 226.561)" fill="#FFADCE"/>
<rect width="80.6365" height="31.6221" rx="15.8111" transform="matrix(-2.91999e-07 -1 -1 5.88912e-08 129.125 226.561)" fill="#FFADCE"/>
<rect y="61.8125" width="220.765" height="131.294" rx="40" transform="rotate(-0.0744137 0 61.8125)" fill="#FFADCE"/>
<ellipse cx="3.95277" cy="5.53387" rx="3.95277" ry="5.53387" transform="matrix(-1 0 0 1 37.5293 83.7344)" fill="black"/>
<ellipse cx="3.95277" cy="5.53387" rx="3.95277" ry="5.53387" transform="matrix(-1 0 0 1 21.7168 78.9902)" fill="black"/>
<ellipse cx="3.95277" cy="5.53387" rx="3.95277" ry="5.53387" transform="matrix(-1 0 0 1 90.6523 76.3555)" fill="black"/>
<ellipse cx="3.95277" cy="5.53387" rx="3.95277" ry="5.53387" transform="matrix(-1 0 0 1 74.8398 71.6113)" fill="black"/>
<path d="M97.9258 132.117C97.9258 139.496 89.2683 154.253 54.6383 154.253C20.0084 154.253 10.777 150.564 10.1212 143.185" stroke="black" stroke-width="5" stroke-linecap="round"/>
<path d="M111.207 65.709C111.207 59.8062 110.197 48.0005 106.157 48.0005C102.117 48.0005 100.954 59.8062 100.877 65.709" stroke="black" stroke-width="5" stroke-linecap="round"/>
<path d="M100.877 65.709C100.877 59.8062 99.8669 48.0005 95.8268 48.0005C91.7866 48.0005 90.6235 59.8062 90.547 65.709" stroke="black" stroke-width="5" stroke-linecap="round"/>
<path d="M213.029 86.3691L230 128.427" stroke="black" stroke-width="5" stroke-linecap="round"/>
<rect x="117" y="25.7891" width="46.9787" height="37.4852" rx="18.7426" transform="rotate(-0.0744137 117 25.7891)" fill="#07A55A"/>
<rect width="17.6897" height="13" rx="6.5" transform="matrix(-4.01042e-07 -1 -1 4.2936e-08 208.057 72.6895)" fill="#016D3A"/>
<rect width="17.6897" height="12" rx="6" transform="matrix(-4.85012e-07 -1 -1 3.55026e-08 163.057 72.6895)" fill="#016D3A"/>
<rect width="19" height="12" rx="5.99999" transform="matrix(-5.38294e-07 -1 -1 3.19457e-08 214.057 74)" fill="#07A55A"/>
<rect width="19" height="13" rx="6.5" transform="matrix(-5.0985e-07 -1 -1 3.37279e-08 170.057 74)" fill="#07A55A"/>
<path d="M228.057 45.5C228.057 70.629 207.686 61 182.557 61C157.428 61 137.057 70.629 137.057 45.5C137.057 20.371 157.428 0 182.557 0C207.686 0 228.057 20.371 228.057 45.5Z" fill="#07A55A"/>
<path d="M148.057 43H217.557" stroke="black" stroke-width="5" stroke-linecap="round"/>
<path d="M155.057 26H211.057" stroke="black" stroke-width="5" stroke-linecap="round"/>
<path d="M148.057 43H218.057" stroke="black" stroke-width="5" stroke-linecap="round"/>
<path d="M155.057 26H211.057" stroke="black" stroke-width="5" stroke-linecap="round"/>
<path d="M183.057 10L183.057 51.5893" stroke="black" stroke-width="5" stroke-linecap="round"/>
<path d="M202.057 15.3984L202.057 51.9998" stroke="black" stroke-width="5" stroke-linecap="round"/>
<path d="M164.057 15.3984L164.057 51.9998" stroke="black" stroke-width="5" stroke-linecap="round"/>
<path d="M218.057 57.6641C221.603 59.3822 229.012 62.1669 230.275 59.5599C231.538 56.953 224.808 52.7661 221.286 50.9986" stroke="black" stroke-width="5" stroke-linecap="round"/>
<ellipse cx="2.67856" cy="3.74998" rx="2.67856" ry="3.74998" transform="matrix(-1 0 0 1 137.414 34)" fill="black"/>
<ellipse cx="2.67856" cy="3.74998" rx="2.67856" ry="3.74998" transform="matrix(-1 0 0 1 129.414 34)" fill="black"/>
<path d="M138.508 49.0004C135.508 54.0004 125.008 49.0004 125.008 49.0004" stroke="black" stroke-width="5" stroke-linecap="round"/>
</svg>
