<svg width="175" height="194" viewBox="0 0 175 194" fill="none" xmlns="http://www.w3.org/2000/svg">
<rect x="125.432" y="25.3984" width="77.909" height="34.9247" rx="17.4624" transform="rotate(115.043 125.432 25.3984)" fill="#C7966A"/>
<rect width="27.1848" height="12.5371" rx="6.26854" transform="matrix(0.924309 0.381644 0.381644 -0.924309 19.8926 100.373)" fill="#C7966A"/>
<rect width="36.0038" height="12.5371" rx="6.26854" transform="matrix(0.751501 -0.659732 -0.659732 -0.751501 8.27148 121.83)" fill="#C7966A"/>
<rect width="34.1268" height="12.5371" rx="6.26854" transform="matrix(0.995509 -0.0946654 -0.0946654 -0.995509 25.4434 120.459)" fill="#E1B186"/>
<rect width="41.3478" height="12.5371" rx="6.26854" transform="matrix(0.270831 -0.962627 -0.962627 -0.270831 26.5898 149.764)" fill="#E1B186"/>
<rect x="131.371" y="168.375" width="27.1848" height="12.5371" rx="6.26854" transform="rotate(-106.026 131.371 168.375)" fill="#C7966A"/>
<rect x="108.748" y="177.523" width="36.0038" height="12.5371" rx="6.26854" transform="rotate(-42.311 108.748 177.523)" fill="#C7966A"/>
<rect x="111.404" y="189.846" width="16.1191" height="12.5371" rx="6.26854" transform="rotate(-90 111.404 189.846)" fill="#C7966A"/>
<rect x="112.031" y="160.615" width="34.1268" height="12.5371" rx="6.26854" transform="rotate(-78.1584 112.031 160.615)" fill="#E1B186"/>
<rect x="83.0332" y="156.203" width="41.3478" height="12.5371" rx="6.26854" transform="rotate(-9.30416 83.0332 156.203)" fill="#E1B186"/>
<rect x="96.1816" y="154.928" width="21.4921" height="12.5371" rx="6.26854" transform="rotate(90 96.1816 154.928)" fill="#E1B186"/>
<rect x="115.1" y="28.4785" width="107.461" height="34.9247" rx="17.4624" transform="rotate(115.043 115.1 28.4785)" fill="#E1B186"/>
<rect x="62.6094" y="58.3164" width="111.938" height="58.2079" rx="29.1039" transform="rotate(25.0432 62.6094 58.3164)" fill="#E1B186"/>
<path d="M143.641 113.302C144.088 110.615 152.6 102.792 158.864 105.242C169.163 109.271 172.446 143.749 172.297 163.002" stroke="black" stroke-width="5" stroke-linecap="round"/>
<path d="M146.775 120.914C159.76 111.957 159.462 143.748 159.312 163.001" stroke="black" stroke-width="5" stroke-linecap="round"/>
<path d="M156.625 114.639C161.103 118.675 166.028 124.943 166.028 168.824" stroke="black" stroke-width="5" stroke-linecap="round"/>
<rect x="115.912" y="44.3164" width="52.1329" height="34.9247" rx="17.4624" transform="rotate(152.359 115.912 44.3164)" fill="#E1B186"/>
<rect x="90.918" y="48.9043" width="27.6907" height="27.5212" rx="13.7606" transform="rotate(152.359 90.918 48.9043)" fill="#C7966A"/>
<ellipse cx="88.432" cy="27.383" rx="2.23876" ry="3.13427" transform="rotate(25.0432 88.432 27.383)" fill="black"/>
<ellipse cx="95.7328" cy="30.7951" rx="2.23876" ry="3.13427" transform="rotate(25.0432 95.7328 30.7951)" fill="black"/>
<path d="M65.8125 43.0059C64.928 44.8989 63.7936 48.9816 66.3322 50.1677C68.8707 51.3537 71.3705 47.909 72.303 46.0384" stroke="black" stroke-width="5" stroke-linecap="round"/>
<path d="M72.663 41.4242C73.2928 42.2541 76.4536 40.0019 77.7022 37.8335C78.1246 37.0999 77 35.2579 76.1628 35.8049C74.2284 37.0689 72.0331 40.5943 72.663 41.4242Z" fill="black"/>
<path d="M69.1239 39.7686C68.0832 39.818 67.7826 35.9486 68.6446 33.5995C68.9363 32.8048 71.0707 32.4855 71.1883 33.4787C71.46 35.7733 70.1645 39.7191 69.1239 39.7686Z" fill="black"/>
<path d="M91.5176 19.2207C90.9592 15.7362 89.202 8.86994 86.6406 9.28043C84.0792 9.69092 84.4586 16.778 84.9685 20.2702" stroke="black" stroke-width="5" stroke-linecap="round"/>
<path d="M107.221 35.2695C110.538 34.0651 116.95 31.0466 116.065 28.6083C115.18 26.1699 108.291 27.8769 104.957 29.0352" stroke="black" stroke-width="5" stroke-linecap="round"/>
</svg>
