<svg width="266" height="285" viewBox="0 0 266 285" fill="none" xmlns="http://www.w3.org/2000/svg">
<rect x="184.906" y="37.4434" width="114.85" height="51.4846" rx="25.7423" transform="rotate(115.043 184.906 37.4434)" fill="#C7966A"/>
<rect width="40.0747" height="18.4817" rx="9.24083" transform="matrix(0.924309 0.381644 0.381644 -0.924309 29.3242 147.967)" fill="#C7966A"/>
<rect width="53.0753" height="18.4817" rx="9.24083" transform="matrix(0.751501 -0.659732 -0.659732 -0.751501 12.1934 179.598)" fill="#C7966A"/>
<rect width="50.3083" height="18.4817" rx="9.24083" transform="matrix(0.995509 -0.0946654 -0.0946654 -0.995509 37.5078 177.576)" fill="#E1B186"/>
<rect width="60.9533" height="18.4817" rx="9.24083" transform="matrix(0.270831 -0.962627 -0.962627 -0.270831 39.1973 220.777)" fill="#E1B186"/>
<rect x="193.662" y="248.213" width="40.0747" height="18.4816" rx="9.24082" transform="rotate(-106.026 193.662 248.213)" fill="#C7966A"/>
<rect x="160.312" y="261.699" width="53.0753" height="18.4817" rx="9.24083" transform="rotate(-42.311 160.312 261.699)" fill="#C7966A"/>
<rect x="164.229" y="279.863" width="23.7621" height="18.4817" rx="9.24083" transform="rotate(-90 164.229 279.863)" fill="#C7966A"/>
<rect x="165.152" y="236.773" width="50.3083" height="18.4817" rx="9.24083" transform="rotate(-78.1584 165.152 236.773)" fill="#E1B186"/>
<rect x="122.404" y="230.27" width="60.9533" height="18.4817" rx="9.24083" transform="rotate(-9.30416 122.404 230.27)" fill="#E1B186"/>
<rect x="141.787" y="228.389" width="31.6829" height="18.4817" rx="9.24083" transform="rotate(90 141.787 228.389)" fill="#E1B186"/>
<rect x="169.674" y="41.9824" width="158.414" height="51.4846" rx="25.7423" transform="rotate(115.043 169.674 41.9824)" fill="#E1B186"/>
<rect x="92.2949" y="85.9688" width="165.015" height="85.8077" rx="42.9039" transform="rotate(25.0432 92.2949 85.9688)" fill="#E1B186"/>
<path d="M211.748 167.025C212.408 163.065 224.955 151.532 234.19 155.144C249.371 161.083 254.212 211.909 253.992 240.292" stroke="black" stroke-width="5" stroke-linecap="round"/>
<path d="M216.369 178.247C235.511 165.044 235.071 211.908 234.851 240.291" stroke="black" stroke-width="5" stroke-linecap="round"/>
<path d="M230.889 168.996C237.489 174.946 244.75 184.186 244.75 248.874" stroke="black" stroke-width="5" stroke-linecap="round"/>
<rect x="170.871" y="65.3301" width="76.8523" height="51.4846" rx="25.7423" transform="rotate(152.359 170.871 65.3301)" fill="#E1B186"/>
<rect x="134.025" y="72.0938" width="40.8206" height="40.5706" rx="20.2853" transform="rotate(152.359 134.025 72.0938)" fill="#C7966A"/>
<ellipse cx="130.362" cy="40.3663" rx="3.3003" ry="4.62042" transform="rotate(25.0432 130.362 40.3663)" fill="black"/>
<ellipse cx="141.124" cy="45.3956" rx="3.3003" ry="4.62042" transform="rotate(25.0432 141.124 45.3956)" fill="black"/>
<path d="M97.0156 63.3965C95.7117 66.1872 94.0395 72.2057 97.7817 73.9541C101.524 75.7026 105.209 70.6245 106.584 67.867" stroke="black" stroke-width="5" stroke-linecap="round"/>
<path d="M107.115 61.0642C108.044 62.2877 112.703 58.9676 114.544 55.7709C115.167 54.6895 113.509 51.9741 112.274 52.7805C109.423 54.6437 106.187 59.8408 107.115 61.0642Z" fill="black"/>
<path d="M101.898 58.6237C100.364 58.6966 99.9211 52.9924 101.192 49.5295C101.622 48.358 104.768 47.8874 104.942 49.3514C105.342 52.7341 103.432 58.5509 101.898 58.6237Z" fill="black"/>
<path d="M134.91 28.3359C134.087 23.1993 131.497 13.0773 127.721 13.6824C123.945 14.2875 124.504 24.735 125.256 29.8831" stroke="black" stroke-width="5" stroke-linecap="round"/>
<path d="M158.059 51.9941C162.948 50.2186 172.402 45.7688 171.097 42.1744C169.791 38.5799 159.636 41.0963 154.721 42.8038" stroke="black" stroke-width="5" stroke-linecap="round"/>
<rect width="62" height="14" rx="7" transform="matrix(0.952631 -0.304129 -0.304129 -0.952631 174.176 150.174)" fill="#A58B90"/>
<rect width="62" height="14" rx="7" transform="matrix(0.952631 -0.304129 -0.304129 -0.952631 166.27 125.406)" fill="#A58B90"/>
<rect width="67" height="14" rx="7" transform="matrix(0.952631 -0.304129 -0.304129 -0.952631 171.543 158.363)" fill="#B5ACAC"/>
<rect width="67" height="14" rx="7" transform="matrix(0.952631 -0.304129 -0.304129 -0.952631 163.635 133.596)" fill="#B5ACAC"/>
<rect width="105" height="66" rx="30" transform="matrix(0.304129 0.952631 0.952631 -0.304129 164.297 56.7539)" fill="#B5ACAC"/>
<path d="M187.288 82.7386C182.534 84.2562 176.18 76.9297 177.157 71.058C177.488 69.0717 186.958 65.5234 188.776 67.3487C192.977 71.566 192.041 81.221 187.288 82.7386Z" fill="black"/>
<ellipse cx="2.5" cy="3.5" rx="2.5" ry="3.5" transform="matrix(-0.952631 0.304129 0.304129 0.952631 201.936 56.2852)" fill="black"/>
<ellipse cx="2.5" cy="3.5" rx="2.5" ry="3.5" transform="matrix(-0.952631 0.304129 0.304129 0.952631 191.498 56.4688)" fill="black"/>
<path d="M246.084 127.219C248.195 128.88 251.975 132.766 250.203 135.018C248.431 137.271 243.698 134.596 241.553 132.977" stroke="black" stroke-width="5" stroke-linecap="round"/>
<path d="M219.09 47.0879C221.526 44.7067 227.034 40.5939 229.574 43.1926C232.114 45.7913 227.972 51.3018 225.584 53.7323" stroke="black" stroke-width="5" stroke-linecap="round"/>
<path d="M225.852 54.0059C228.288 51.6246 233.795 47.5119 236.335 50.1106C238.875 52.7093 234.734 58.2198 232.346 60.6503" stroke="black" stroke-width="5" stroke-linecap="round"/>
<path d="M177.498 61.2539C174.848 59.1131 169.973 54.3053 171.673 52.2006C173.374 50.0958 179.163 53.7715 181.845 55.8725" stroke="black" stroke-width="5" stroke-linecap="round"/>
<path d="M182.023 55.6523C179.373 53.5115 174.498 48.7037 176.199 46.599C177.899 44.4943 183.689 48.17 186.371 50.2709" stroke="black" stroke-width="5" stroke-linecap="round"/>
<path d="M206.688 81.0117C207.296 82.917 207.488 87.0546 203.389 88.363C199.291 89.6715 196.894 86.2376 196.209 84.3571" stroke="black" stroke-width="5" stroke-linecap="round"/>
</svg>
