<svg width="71" height="100" viewBox="0 0 71 100" fill="none" xmlns="http://www.w3.org/2000/svg">
<ellipse cx="35.5" cy="29.5" rx="35.5" ry="29.5" fill="#A58CC3"/>
<path d="M16.4707 50.0684C16.4707 50.0684 17.4617 66.3384 15.8744 76.0433C14.5103 84.3836 14.7097 84.215 10.0002 95.4669" stroke="black" stroke-width="5" stroke-linecap="round"/>
<path d="M53.9062 50.0684C53.9062 50.0684 52.9152 66.3384 54.5025 76.0433C55.8667 84.3836 55.6672 84.215 60.3767 95.4669" stroke="black" stroke-width="5" stroke-linecap="round"/>
<path d="M25.6779 50C25.6779 50 26.4027 64.0926 25.6779 72.9687C24.9524 81.8523 22 95 22 95" stroke="black" stroke-width="5" stroke-linecap="round"/>
<path d="M36 50V97" stroke="black" stroke-width="5" stroke-linecap="round"/>
<path d="M45.4538 50C45.4538 50 44.4328 64.5033 45.4538 73.4694C46.532 82.9378 51 96 51 96" stroke="black" stroke-width="5" stroke-linecap="round"/>
<path d="M33 24C33 27.6667 33.9778 35 37.8889 35C41.8 35 42.9259 27.6667 43 24" stroke="black" stroke-width="5" stroke-linecap="round"/>
<path d="M26.8171 22.5097C26.9315 25.5519 26.153 28.0508 23.7193 28.1423C21.2855 28.2338 20.3215 25.8004 20.2071 22.7583C20.0927 19.7161 20.8713 17.2172 23.305 17.1257C25.7387 17.0342 26.7027 19.4676 26.8171 22.5097Z" fill="black"/>
<path d="M55.8171 21.5097C55.9315 24.5519 55.4572 27.0394 52.7193 27.1423C49.9813 27.2453 49.3215 24.8004 49.2071 21.7583C49.0927 18.7161 49.567 16.2287 52.305 16.1257C55.0429 16.0228 55.7027 18.4676 55.8171 21.5097Z" fill="black"/>
</svg>
