<svg width="341" height="106" viewBox="0 0 341 106" fill="none" xmlns="http://www.w3.org/2000/svg">
<g clip-path="url(#clip0_2214_195)">
<path fill-rule="evenodd" clip-rule="evenodd" d="M36.6177 9.79732C31.4995 9.05609 27.1833 9.60965 23.3422 11.8395C19.2219 14.2314 16.0262 18.3438 12.9197 23.7509C7.49552 33.1921 3.98599 48.394 2.01432 63.3347C0.0324762 78.3525 -0.452235 93.57 0.407414 103.29C0.536051 104.744 1.82035 105.819 3.27597 105.691C4.7316 105.562 5.80734 104.279 5.6787 102.825C4.8626 93.597 5.31317 78.7841 7.26073 64.026C9.21847 49.1909 12.6325 34.8715 17.5091 26.3834C20.4823 21.2083 23.1076 18.091 26.0005 16.4116C28.7837 14.7959 32.183 14.3059 37.2126 15.2572C40.7732 15.9307 43.9155 18.2988 45.5052 23.2306C45.9532 24.6205 47.4439 25.3843 48.8349 24.9367C50.2258 24.489 50.9902 22.9994 50.5422 21.6096C48.9566 16.6904 46.0256 13.321 42.3645 11.4677C43.8705 10.071 45.7426 8.65112 47.7752 7.51748C51.2837 5.56072 54.6667 4.78311 57.2552 5.62968C61.5351 7.02937 63.896 9.54526 65.2604 12.4438C65.4276 12.7989 65.5805 13.1615 65.7203 13.5306C65.7331 13.5672 65.7467 13.6036 65.7612 13.6398C66.7727 16.3701 67.0744 19.4459 67.0744 22.4201C67.0744 23.8803 68.259 25.064 69.7203 25.064C71.1816 25.064 72.3662 23.8803 72.3662 22.4201C72.3662 19.7599 72.1543 16.7233 71.3402 13.733C72.2594 13.1821 73.2341 12.7491 74.2601 12.5835C75.6987 12.3514 77.56 12.5928 79.873 14.639C82.2843 16.7722 83.5234 19.8 84.0364 22.8573C84.4954 25.5926 84.3326 28.1324 84.055 29.589C83.7815 31.0234 84.7236 32.4076 86.1591 32.6808C87.5946 32.954 88.9799 32.0127 89.2533 30.5784C89.46 29.4944 89.6079 28.0908 89.616 26.5055C91.0055 27.2859 92.4544 28.3353 93.727 29.6765C96.1605 32.2415 97.9665 35.876 97.5129 40.9527C96.5123 52.1509 90.8816 61.4992 88.3129 64.6273C87.9247 65.1 87.7125 65.6927 87.7125 66.3043V100.41C87.7125 101.87 88.8971 103.054 90.3584 103.054C91.8197 103.054 93.0043 101.87 93.0043 100.41V67.2173C96.2212 62.9586 101.736 53.146 102.784 41.4229C103.388 34.6552 100.914 29.5662 97.5673 26.0387C94.8621 23.1873 91.5997 21.359 88.9303 20.3767C88.1311 17.0212 86.4973 13.437 83.3808 10.68C79.9787 7.67021 76.5472 6.85827 73.4164 7.36346C71.8754 7.61213 70.4967 8.16763 69.321 8.79849C67.2774 5.25355 63.9821 2.26596 58.9013 0.604326C54.2131 -0.928917 49.1732 0.682181 45.1961 2.90035C41.7768 4.80738 38.6988 7.40473 36.6177 9.79732Z" fill="#34424F"/>
<path d="M76.2122 32.502C70.477 32.502 69.6079 40.5476 69.8397 46.5771C70.0536 52.1387 73.6632 59.3244 76.2122 59.3244C78.7611 59.3244 80.2834 53.836 80.726 51.0918C81.611 44.8952 81.9473 32.502 76.2122 32.502Z" fill="#34424F"/>
<path d="M90.0195 46.5762C86.196 46.5762 86.8153 57.376 87.7003 63.3071C87.7003 63.3071 93.5417 57.2444 93.5417 52.4187C93.5417 51.0909 93.8429 46.5762 90.0195 46.5762Z" fill="#34424F"/>
<path fill-rule="evenodd" clip-rule="evenodd" d="M72.9527 38.0224C72.1665 40.405 71.9955 43.5945 72.1083 46.507C72.2013 48.9043 73.0528 51.771 74.1947 54.0331C74.7635 55.1598 75.356 56.0394 75.8783 56.6022C76.1022 56.8435 76.2664 56.9777 76.3697 57.0509C76.4067 57.0183 76.4518 56.9746 76.5051 56.9166C76.794 56.6022 77.1263 56.0683 77.4586 55.3189C78.1141 53.8408 78.5647 51.9975 78.7693 50.7479C79.1953 47.7789 79.4749 43.393 78.9899 39.8248C78.7443 38.018 78.3278 36.6229 77.7877 35.7369C77.2967 34.9313 76.8489 34.737 76.3565 34.737C75.4787 34.737 74.8741 35.0203 74.3799 35.4907C73.8354 36.009 73.3424 36.8415 72.9527 38.0224ZM76.2438 57.1408C76.2438 57.1404 76.2477 57.1383 76.2557 57.1356C76.2477 57.1398 76.2438 57.1412 76.2438 57.1408ZM71.4402 32.4499C72.7141 31.2374 74.3678 30.5234 76.3565 30.5234C78.7306 30.5234 80.3907 31.8653 81.4213 33.5562C82.403 35.1665 82.922 37.2279 83.1984 39.2617C83.7564 43.3669 83.4277 48.1872 82.9705 51.3629C82.9694 51.3708 82.9682 51.3787 82.967 51.3866C82.9662 51.3912 82.9655 51.3958 82.9648 51.4004C82.7256 52.8719 82.1954 55.0997 81.3456 57.0159C80.9237 57.9674 80.3702 58.9642 79.6433 59.7554C78.9181 60.5447 77.8189 61.3357 76.3565 61.3357C74.7842 61.3357 73.5439 60.3072 72.7544 59.4564C71.8769 58.5109 71.0763 57.2643 70.3978 55.9201C69.0451 53.2406 67.9857 49.7868 67.8649 46.6689C67.746 43.6021 67.8935 39.8127 68.9169 36.7113C69.432 35.1502 70.2167 33.6144 71.4402 32.4499ZM87.8399 63.1792L89.3688 64.6412C88.8074 65.2191 87.9639 65.4304 87.1934 65.186C86.4229 64.9416 85.8592 64.2841 85.7398 63.4902C85.2863 60.4754 84.8895 56.1661 85.1147 52.5481C85.2257 50.7654 85.4969 48.9602 86.1025 47.5348C86.6997 46.129 87.9305 44.4811 90.1581 44.4811C91.5654 44.4811 92.7761 44.9074 93.7155 45.7197C94.6165 46.4987 95.1053 47.4915 95.3792 48.3653C95.8443 49.8489 95.8167 51.4786 95.8049 52.1701C95.8035 52.2557 95.8023 52.3269 95.8023 52.3817C95.8023 55.4713 93.9895 58.6377 92.5076 60.7707C91.7266 61.8948 90.9498 62.8534 90.3694 63.5303C90.0782 63.8699 89.8338 64.1416 89.6597 64.3311C89.5726 64.4259 89.5029 64.5003 89.4535 64.5525C89.4288 64.5786 89.4091 64.5992 89.3949 64.6141L89.3776 64.632L89.3721 64.6377L89.3688 64.6412C89.3685 64.6415 89.3688 64.6412 87.8399 63.1792ZM89.3532 52.8079C89.2565 54.3623 89.29 56.0997 89.3994 57.8039C90.6434 55.9032 91.5556 53.9213 91.5556 52.3817C91.5556 52.2761 91.5565 52.1667 91.5574 52.0544C91.5632 51.2953 91.5701 50.4011 91.3243 49.6168C91.1957 49.2067 91.0431 48.998 90.9257 48.8964C90.853 48.8336 90.6905 48.7156 90.2725 48.6972C90.2162 48.7674 90.1277 48.9078 90.0156 49.1716C89.69 49.9381 89.4547 51.178 89.3532 52.8079ZM90.3408 48.6359C90.3415 48.64 90.3275 48.6551 90.2967 48.669C90.3248 48.6387 90.3402 48.6318 90.3408 48.6359Z" fill="#34424F"/>
<path d="M35.2183 39.7826C33.6299 42.4375 34.4416 48.3487 32.306 52.5262C27.0126 62.8805 34.6881 68.1921 39.9828 67.1301C45.2774 66.0681 47.1305 50.6693 43.689 42.1734C40.2475 33.6775 36.8067 37.1276 35.2183 39.7826Z" fill="#34424F"/>
<path d="M64.3379 45.6234C63.4907 56.8805 57.6313 57.3938 54.8075 56.2433C49.2482 53.058 51.8955 44.2959 54.8075 33.145C57.7196 21.9942 65.3968 31.5521 64.3379 45.6234Z" fill="#34424F"/>
<path fill-rule="evenodd" clip-rule="evenodd" d="M62.873 28.4902C65.4681 31.8115 67.146 38.3181 66.594 45.6495C66.1475 51.5795 64.3394 55.2591 61.6966 57.1699C59.0446 59.0873 56.0685 58.8517 54.1532 58.0718C54.0661 58.0363 53.9814 57.995 53.8997 57.9483C50.0053 55.7182 49.3121 51.5845 49.6625 47.3703C49.9762 43.5974 51.1794 39.0259 52.4527 34.1882C52.6017 33.6219 52.7518 33.0518 52.9014 32.479C53.2994 30.9558 53.808 29.6666 54.445 28.6482C55.0777 27.6365 55.9186 26.7662 57.0219 26.3181C59.4973 25.3127 61.6204 26.8869 62.873 28.4902ZM58.0342 30.9036C57.698 31.4411 57.3295 32.2915 56.9994 33.5548C56.8523 34.1177 56.7069 34.6714 56.5638 35.2158C55.2635 40.165 54.1647 44.3474 53.8841 47.723C53.5804 51.3754 54.2976 53.2134 55.8764 54.1873C56.7822 54.5137 58.0777 54.551 59.2184 53.7262C60.4235 52.8549 61.9691 50.652 62.3698 45.33C62.8768 38.5963 61.2452 33.2935 59.5379 31.1082C59.1284 30.5841 58.8098 30.3632 58.6447 30.2875C58.6212 30.2768 58.6029 30.2699 58.5895 30.2655C58.5224 30.3046 58.3169 30.4516 58.0342 30.9036ZM58.5617 30.2582L58.5631 30.2584L58.5617 30.2582ZM38.3168 39.2599C37.9098 39.6425 37.5131 40.1778 37.1743 40.744C36.9755 41.0759 36.7833 41.6409 36.6168 42.5555C36.4734 43.3427 36.3753 44.2222 36.2622 45.2365C36.2457 45.3842 36.2289 45.5347 36.2116 45.6882C35.9541 47.9743 35.6001 50.8754 34.3302 53.3582C31.9583 57.9952 32.6929 60.9887 33.9889 62.669C35.4067 64.5072 37.8336 65.2809 39.7076 64.9052C40.0634 64.8339 40.7621 64.4095 41.5275 62.8826C42.2531 61.4349 42.8263 59.3925 43.1546 57.0102C43.8153 52.2168 43.4091 46.6445 41.8673 42.8405C41.0575 40.8424 40.3283 39.7608 39.7832 39.217C39.5221 38.9566 39.3372 38.8536 39.2413 38.8136C39.1563 38.7781 39.1129 38.7792 39.0859 38.7816C39.0023 38.789 38.7411 38.8611 38.3168 39.2599ZM42.7715 36.2075C43.8893 37.3226 44.881 38.9945 45.792 41.2424C47.6922 45.9306 48.0803 52.3002 47.351 57.5913C46.9843 60.2512 46.3164 62.7865 45.3128 64.7888C44.3489 66.7118 42.8303 68.6094 40.5384 69.0689C37.1171 69.7547 33.0582 68.4046 30.6375 65.266C28.095 61.9697 27.6384 57.1337 30.5605 51.421C31.4264 49.7282 31.7345 47.5873 32.0022 45.2117C32.0184 45.0677 32.0346 44.9221 32.0509 44.7755C32.1616 43.7798 32.2775 42.7372 32.4494 41.7932C32.6442 40.7231 32.9462 39.5543 33.5417 38.5594C33.9971 37.7986 34.6264 36.9077 35.4189 36.1627C36.1942 35.4339 37.3062 34.677 38.7118 34.5521C40.2182 34.4182 41.6065 35.0453 42.7715 36.2075Z" fill="#34424F"/>
<path d="M64.9773 62.459C60.7342 62.459 52.2482 75.3323 48.5355 81.769C43.8057 89.9691 44.9289 99.7563 53.8393 99.7563C62.7496 99.7563 64.9773 95.524 67.364 93.1433C69.5559 97.3756 74.0642 99.9381 76.1153 99.7563C83.2771 99.1217 83.0102 87.7648 79.8279 81.769C76.6456 75.3323 69.2203 62.459 64.9773 62.459Z" fill="#34424F"/>
<path fill-rule="evenodd" clip-rule="evenodd" d="M58.0951 71.1354C55.0557 75.0605 52.0591 79.8025 50.234 82.9676C48.0521 86.7514 47.3499 90.6995 47.9993 93.5069C48.3165 94.8781 48.9351 95.9111 49.7875 96.6052C50.6309 97.2921 51.8733 97.786 53.6985 97.786C57.7827 97.786 60.1331 96.8265 61.7013 95.7465C62.5116 95.1885 63.1747 94.556 63.8033 93.8832C64.0026 93.6699 64.2367 93.408 64.4832 93.1322C64.8965 92.6697 65.3447 92.1682 65.7219 91.7918C66.2006 91.3142 66.879 91.0932 67.5479 91.197C68.2168 91.3008 68.7959 91.7169 69.1066 92.317C70.0178 94.0769 71.4366 95.5275 72.859 96.512C73.5662 97.0015 74.2374 97.3499 74.7975 97.561C75.3952 97.7863 75.719 97.8001 75.7846 97.7943C76.9434 97.6916 77.7306 97.1912 78.3201 96.4021C78.9568 95.5498 79.4113 94.2801 79.6002 92.6719C79.9807 89.4301 79.1999 85.5223 77.8098 82.9024C77.8003 82.8845 77.791 82.8664 77.782 82.8483C76.2204 79.6888 73.6197 74.9568 70.9121 71.0439C69.5534 69.0804 68.2174 67.396 67.0161 66.2257C66.4156 65.6408 65.8991 65.2342 65.4777 64.9844C65.271 64.8619 65.1106 64.7913 64.9954 64.753C64.8881 64.7173 64.838 64.7155 64.8353 64.7154C64.8325 64.7155 64.7737 64.7173 64.6472 64.7583C64.5156 64.8009 64.3367 64.8775 64.1086 65.0064C63.6453 65.2682 63.0791 65.6882 62.4212 66.2815C61.1058 67.4678 59.6196 69.1667 58.0951 71.1354ZM62.0178 61.3231C62.8239 60.8676 63.7921 60.4824 64.8354 60.4824C65.8894 60.4824 66.8503 60.8744 67.6444 61.345C68.4536 61.8246 69.238 62.4742 69.9799 63.1969C71.4633 64.6419 72.9779 66.5788 74.4034 68.6389C77.2565 72.762 79.9523 77.6714 81.574 80.9496C83.3563 84.3249 84.2934 89.08 83.814 93.1643C83.5721 95.2248 82.9495 97.2886 81.7216 98.932C80.4466 100.639 78.5817 101.796 76.16 102.011C75.2001 102.096 74.1914 101.858 73.2985 101.521C72.3682 101.171 71.3908 100.648 70.4407 99.9901C69.2317 99.1532 68.0068 98.0559 66.9459 96.7275C66.9329 96.7414 66.9198 96.7555 66.9066 96.7696C66.168 97.5602 65.27 98.4324 64.1114 99.2303C61.7419 100.862 58.5238 102.019 53.6985 102.019C51.069 102.019 48.8299 101.29 47.1048 99.8846C45.3886 98.4869 44.3515 96.5601 43.8654 94.4589C42.9082 90.3214 44.0092 85.2743 46.5566 80.8566C48.4437 77.584 51.5459 72.6695 54.7378 68.5474C56.329 66.4925 57.9917 64.5702 59.5764 63.1411C60.3687 62.4267 61.1905 61.7905 62.0178 61.3231Z" fill="#34424F"/>
<path fill-rule="evenodd" clip-rule="evenodd" d="M178.059 15.4511C179.666 14.525 181.723 15.0705 182.653 16.6694L196.365 40.2253L197.908 18.1144C198.006 16.7068 198.981 15.5119 200.346 15.1273C201.71 14.7426 203.17 15.251 203.996 16.3981L221.66 40.9393V18.3462C221.66 16.4984 223.166 15.0006 225.023 15.0006C226.88 15.0006 228.385 16.4984 228.385 18.3462V51.3563C228.385 52.8099 227.442 54.0972 226.051 54.5417C224.66 54.9862 223.14 54.4862 222.289 53.3044L203.969 27.8526L202.313 51.5881C202.21 53.055 201.157 54.2834 199.718 54.6155C198.278 54.9476 196.789 54.3055 196.049 53.0331L176.834 20.023C175.904 18.4241 176.452 16.3772 178.059 15.4511Z" fill="#34424F"/>
<path fill-rule="evenodd" clip-rule="evenodd" d="M163.239 15.1041C164.719 14.7257 166.267 15.4027 166.998 16.7485L184.919 49.7453C185.802 51.371 185.204 53.407 183.584 54.2929C181.963 55.1788 179.934 54.579 179.051 52.9534L167.405 31.5102V51.3493C167.405 53.2007 165.909 54.7016 164.064 54.7016C162.219 54.7016 160.723 53.2007 160.723 51.3493V18.3526C160.723 16.8199 161.759 15.4825 163.239 15.1041Z" fill="#34424F"/>
<path fill-rule="evenodd" clip-rule="evenodd" d="M143.305 21.725V31.7467C144.592 31.7204 145.574 31.5268 146.27 31.1676C146.746 30.922 147.098 30.5929 147.368 30.0701C147.662 29.5019 147.944 28.5341 147.944 26.915C147.944 23.8129 146.957 22.8753 146.165 22.4295C145.477 22.0424 144.526 21.8065 143.305 21.725ZM143.305 38.4406C145.327 38.4097 147.428 38.0849 149.287 37.1252C150.91 36.2874 152.298 34.9938 153.242 33.1682C154.163 31.3879 154.572 29.2818 154.572 26.915C154.572 22.0455 152.798 18.502 149.392 16.5852C146.373 14.8858 142.691 14.8607 139.706 15.1213C137.993 15.2708 136.678 16.7184 136.678 18.4545V51.3566C136.678 53.2043 138.161 54.7022 139.991 54.7022C141.822 54.7022 143.305 53.2043 143.305 51.3566V38.4406Z" fill="#34424F"/>
<path fill-rule="evenodd" clip-rule="evenodd" d="M289.895 15.4511C291.501 14.525 293.559 15.0705 294.489 16.6694L308.201 40.2253L309.744 18.1144C309.842 16.7068 310.817 15.5119 312.182 15.1273C313.546 14.7426 315.006 15.251 315.832 16.3981L333.496 40.9393V18.3462C333.496 16.4984 335.002 15.0006 336.859 15.0006C338.716 15.0006 340.221 16.4984 340.221 18.3462V51.3563C340.221 52.8099 339.278 54.0972 337.887 54.5417C336.496 54.9862 334.976 54.4862 334.125 53.3044L315.805 27.8526L314.148 51.5881C314.046 53.055 312.993 54.2834 311.554 54.6155C310.114 54.9476 308.625 54.3055 307.885 53.0331L288.67 20.023C287.739 18.4241 288.288 16.3772 289.895 15.4511Z" fill="#34424F"/>
<path fill-rule="evenodd" clip-rule="evenodd" d="M275.077 15.1041C276.557 14.7257 278.105 15.4027 278.836 16.7485L296.757 49.7453C297.64 51.371 297.042 53.407 295.422 54.2929C293.801 55.1788 291.772 54.579 290.889 52.9534L279.243 31.5102V51.3493C279.243 53.2007 277.747 54.7016 275.902 54.7016C274.056 54.7016 272.561 53.2007 272.561 51.3493V18.3526C272.561 16.8199 273.597 15.4825 275.077 15.1041Z" fill="#34424F"/>
<path fill-rule="evenodd" clip-rule="evenodd" d="M255.143 21.725V31.7467C256.43 31.7204 257.412 31.5268 258.108 31.1676C258.584 30.922 258.936 30.5929 259.206 30.0701C259.5 29.5019 259.782 28.5341 259.782 26.915C259.782 23.8129 258.795 22.8753 258.003 22.4295C257.315 22.0424 256.364 21.8065 255.143 21.725ZM255.143 38.4406C257.165 38.4097 259.266 38.0849 261.125 37.1252C262.748 36.2874 264.136 34.9938 265.08 33.1682C266.001 31.3879 266.41 29.2818 266.41 26.915C266.41 22.0455 264.635 18.502 261.23 16.5852C258.211 14.8858 254.529 14.8607 251.544 15.1213C249.831 15.2708 248.516 16.7184 248.516 18.4545V51.3566C248.516 53.2043 249.999 54.7022 251.829 54.7022C253.659 54.7022 255.143 53.2043 255.143 51.3566V38.4406Z" fill="#34424F"/>
<path d="M147.216 73.1772V76.6899H161.742V73.1772H147.216ZM147.279 81.0886V84.4747H160.445V81.0886H147.279ZM152.533 69V82.9873H156.235V69H152.533ZM145.222 73.1772V81.2785C145.222 85.8987 144.937 92.3544 141.741 96.7848C142.659 97.1329 144.273 98.0823 144.937 98.6835C148.324 93.9051 148.862 86.4367 148.862 81.3101V73.1772H145.222ZM160.856 73.1772V73.7152C160.413 75.6772 159.653 78.1139 158.957 79.6013L162.249 80.5506C163.135 78.8101 164.116 76.1519 164.844 73.7152L162.059 73.0506L161.457 73.1772H160.856ZM151.615 83.2722L148.355 84.1899C150.982 91.2468 155.444 96.3101 162.47 98.7152C163.008 97.7342 164.084 96.2468 164.939 95.4873C158.293 93.6203 153.767 89.0949 151.615 83.2722ZM136.867 71.9747C138.639 72.9557 141.203 74.4747 142.437 75.4241L144.652 72.3544C143.355 71.4684 140.728 70.0759 138.988 69.2215L136.867 71.9747ZM135 80.5823C136.836 81.5316 139.462 82.9873 140.697 83.9367L142.88 80.7722C141.551 79.8861 138.893 78.557 137.12 77.7658L135 80.5823ZM135.633 96.1203L139.019 98.3987C140.665 95.2975 142.374 91.6266 143.798 88.2405L140.823 85.962C139.209 89.6962 137.12 93.6835 135.633 96.1203ZM159.084 81.0886V81.7848C157.47 89.0633 152.786 93.5253 146.488 95.6456C147.248 96.3101 148.419 97.8924 148.893 98.7785C155.508 96.2468 160.729 90.8671 162.881 82.0063L160.508 80.9937L159.843 81.0886H159.084Z" fill="#34424F"/>
<path d="M182.028 73.1772V76.6899H196.554V73.1772H182.028ZM182.092 81.0886V84.4747H195.257V81.0886H182.092ZM187.345 69V82.9873H191.048V69H187.345ZM180.034 73.1772V81.2785C180.034 85.8987 179.75 92.3544 176.553 96.7848C177.471 97.1329 179.085 98.0823 179.75 98.6835C183.136 93.9051 183.674 86.4367 183.674 81.3101V73.1772H180.034ZM195.668 73.1772V73.7152C195.225 75.6772 194.466 78.1139 193.769 79.6013L197.061 80.5506C197.947 78.8101 198.928 76.1519 199.656 73.7152L196.871 73.0506L196.27 73.1772H195.668ZM186.427 83.2722L183.168 84.1899C185.794 91.2468 190.257 96.3101 197.282 98.7152C197.82 97.7342 198.896 96.2468 199.751 95.4873C193.105 93.6203 188.579 89.0949 186.427 83.2722ZM171.679 71.9747C173.452 72.9557 176.015 74.4747 177.249 75.4241L179.465 72.3544C178.167 71.4684 175.54 70.0759 173.8 69.2215L171.679 71.9747ZM169.812 80.5823C171.648 81.5316 174.275 82.9873 175.509 83.9367L177.693 80.7722C176.363 79.8861 173.705 78.557 171.933 77.7658L169.812 80.5823ZM170.445 96.1203L173.832 98.3987C175.477 95.2975 177.186 91.6266 178.61 88.2405L175.635 85.962C174.021 89.6962 171.933 93.6835 170.445 96.1203ZM193.896 81.0886V81.7848C192.282 89.0633 187.598 93.5253 181.3 95.6456C182.06 96.3101 183.231 97.8924 183.706 98.7785C190.32 96.2468 195.542 90.8671 197.694 82.0063L195.32 80.9937L194.656 81.0886H193.896Z" fill="#34424F"/>
<path d="M205.606 89.5063V92.1962H220.385V89.5063H205.606ZM204.878 74.443V77.1962H220.702V74.443H204.878ZM211.176 72.1962V94.8861H214.594V72.1962H211.176ZM204.72 94.538L205.163 97.7025C209.277 97.3228 215.037 96.7532 220.417 96.1835L220.385 93.3038C214.688 93.8101 208.644 94.2532 204.72 94.538ZM208.739 84.443H217.094V85.8987H208.739V84.443ZM208.739 80.8038H217.094V82.2278H208.739V80.8038ZM205.701 78.4304V88.2722H220.227V78.4304H205.701ZM218.676 69.1899C215.195 69.9494 209.688 70.519 204.973 70.7405C205.321 71.4684 205.669 72.6709 205.796 73.4304C210.543 73.3354 216.303 72.8608 220.353 72.038L218.676 69.1899ZM220.702 76.1835V79.6646H231.652V76.1835H220.702ZM230.133 76.1835V77.0063C229.879 89.2532 229.626 93.7152 228.898 94.6646C228.613 95.1076 228.297 95.2025 227.822 95.2025C227.189 95.2025 225.987 95.2025 224.626 95.0759C225.227 96.0886 225.639 97.6392 225.733 98.6835C227.221 98.7468 228.708 98.7468 229.689 98.557C230.734 98.3671 231.462 98.019 232.158 96.943C233.202 95.519 233.455 90.8987 233.74 77.8608C233.74 77.4177 233.772 76.1835 233.772 76.1835H230.133ZM223.74 69.5696C223.708 82.1962 224.056 91.057 217.379 96.1519C218.233 96.7848 219.467 98.0823 220.005 99C227.316 93.2405 227.348 83.0823 227.379 69.5696H223.74Z" fill="#34424F"/>
<path d="M254.913 69.0316C253.963 73.7152 252.191 78.2405 249.659 81.0253C250.45 81.5 251.938 82.5759 252.539 83.1456C255.102 79.981 257.191 74.9494 258.33 69.6962L254.913 69.0316ZM265.546 73.9684V74.7911C265.04 88.2405 264.438 93.1456 263.552 94.2532C263.173 94.6962 262.888 94.8544 262.413 94.8544C261.812 94.8544 260.736 94.8228 259.565 94.6962C260.134 95.7405 260.514 97.3544 260.609 98.4304C262.002 98.4937 263.331 98.4937 264.217 98.3038C265.261 98.1139 265.958 97.7342 266.685 96.6582C267.888 95.0759 268.458 89.8861 269.059 75.6772C269.091 75.2025 269.122 73.9684 269.122 73.9684H265.546ZM255.862 73.9684L254.121 77.481H267.16V73.9684H255.862ZM258.077 75.1076C256.875 80.4241 254.09 86.3734 250.419 89.2532C251.4 89.7911 252.602 90.6772 253.33 91.4051C256.78 88.1772 259.565 81.9114 260.831 76.4684L258.077 75.1076ZM262.476 75.4557C261.02 83.5886 257.761 91.8481 252.222 95.8038C253.267 96.3101 254.596 97.2595 255.324 98.019C260.546 93.6519 263.9 85.0443 265.42 76.8165L262.476 75.4557ZM239.405 86.2785L240.323 89.9177C243.678 88.9367 248.013 87.6392 252.001 86.4051L251.495 83.0506C247.127 84.2848 242.507 85.5823 239.405 86.2785ZM245.102 69.0316V98.7468H248.583V69.0316H245.102ZM240.924 70.8354C240.639 74.6013 240.101 78.557 239.089 81.0886C239.848 81.4684 241.209 82.3544 241.779 82.7975C242.918 79.981 243.678 75.5506 244.089 71.3734L240.924 70.8354ZM241.779 75.1392L241.083 78.7785H251.21V75.1392H241.779Z" fill="#34424F"/>
<path d="M279.977 96.1519V98.1456H298.554V96.1519H279.977ZM279.977 93.4304V95.2975H298.554V93.4304H279.977ZM275.452 84.2848V86.6899H303.238V84.2848H275.452ZM277.002 87.7025V98.7468H280.42V89.6646H298.08V98.7468H301.656V87.7025H277.002ZM281.243 71.9114C280.832 72.9873 280.167 74.0633 279.249 74.8861C279.787 75.1392 280.705 75.7089 281.117 76.0253C282.034 75.1076 282.921 73.7468 283.395 72.4177L281.243 71.9114ZM290.421 75.7722V77.9241H299.536V75.7722H290.421ZM281.338 73.3038V75.0127H288.364V73.3038H281.338ZM279.503 75.962V77.7658H288.902V75.962H279.503ZM292.668 69.7911V72.3228H298.301V69.7911H292.668ZM298.871 75.7722V76.1203C297.573 79.3165 293.902 81.0886 289.567 81.7532C290.073 82.3228 290.706 83.3671 290.991 84.0316C296.023 82.9873 300.074 80.8671 301.783 76.3101L299.979 75.7089L299.441 75.7722H298.871ZM293.902 77.7025L291.086 78.3987C293.111 81.7532 296.719 83.6835 301.877 84.4114C302.257 83.5886 303.08 82.3544 303.745 81.7532C299.092 81.3418 295.516 80.0443 293.902 77.7025ZM291.307 69.7911V71.4051C291.307 72.5127 290.959 73.4937 288.554 74.3481C289.092 74.7595 290.2 75.962 290.548 76.5949C293.491 75.2975 294.187 73.3987 294.187 71.5316V69.7911H291.307ZM296.94 69.7911V72.1962C296.94 73.7785 297.13 74.3481 297.573 74.7911C297.985 75.2658 298.808 75.4557 299.472 75.4557C299.852 75.4557 300.453 75.4557 300.833 75.4557C301.276 75.4557 301.846 75.4241 302.194 75.2658C302.637 75.0759 302.985 74.8228 303.175 74.4747C303.397 74.1582 303.523 73.3987 303.618 72.6392C302.89 72.4177 301.941 71.943 301.434 71.5C301.403 72.038 301.371 72.481 301.308 72.6709C301.245 72.8924 301.15 72.9557 301.055 72.9873C300.991 73.0506 300.833 73.0506 300.707 73.0506C300.548 73.0506 300.327 73.0506 300.2 73.0506C300.074 73.0506 299.979 73.019 299.915 72.9241C299.82 72.8291 299.852 72.6076 299.852 72.1962V69.7911H296.94ZM283.174 74.1266V76.2152C283.174 77.3228 282.731 78.8418 279.439 79.6329C279.977 80.076 280.642 80.8038 280.958 81.3418C284.788 80.0127 285.516 77.9241 285.516 76.2785V74.1266H283.174ZM284.851 85.6772V88.5253C284.851 89.7278 284.218 91.0886 280.452 91.7215C281.085 92.2278 281.845 93.1456 282.224 93.7785C286.623 92.6076 287.731 90.6456 287.731 88.557V85.6772H284.851ZM290.326 85.6456V90.0127C290.326 92.0696 291.022 92.5759 293.839 92.5759C294.44 92.5759 297.035 92.5759 297.637 92.5759C299.377 92.5759 300.137 92.2278 300.327 91.2152C299.63 91.1203 298.618 90.8987 298.048 90.6139C297.985 90.8038 297.795 90.8354 297.257 90.8354C296.719 90.8354 294.662 90.8354 294.25 90.8354C293.396 90.8354 293.238 90.7405 293.238 90.0443V85.6456H290.326ZM283.332 78.4304C284.724 79.2215 286.465 80.4241 287.351 81.2152L288.807 79.6962C287.889 78.8734 286.117 77.7658 284.724 77.038L283.332 78.4304ZM289.377 70.0759H276.243V83.3354H289.63V81.1835H279.06V72.2278H289.377V70.0759Z" fill="#34424F"/>
<path d="M327.227 69.1899V74.1582H330.93V69.1899H327.227ZM320.201 72.5127V78.7785H323.556V75.7405H335.012V78.7468H338.525V72.5127H320.201ZM322.543 78.3038V81.5633H336.088V78.3038H322.543ZM320.644 83.8418V87.2278H338.399V83.8418H320.644ZM324.221 85.4873C324.031 90.9937 323.524 94.0316 317.796 95.7405C318.524 96.4367 319.473 97.8291 319.79 98.7468C326.594 96.4684 327.544 92.2911 327.828 85.4873H324.221ZM330.044 85.1076V94.1266C330.044 97.3861 330.677 98.462 333.462 98.462C333.968 98.462 335.012 98.462 335.582 98.462C337.797 98.462 338.684 97.2595 339 92.7975C338.051 92.576 336.532 91.9747 335.835 91.4051C335.772 94.6329 335.677 95.1392 335.171 95.1392C334.949 95.1392 334.285 95.1392 334.095 95.1392C333.683 95.1392 333.62 95.0127 333.62 94.0949V85.1076H330.044ZM310.454 70.3924V98.7785H313.777V73.7785H317.923V70.3924H310.454ZM316.752 70.3924V71.4684C316.309 73.4937 315.296 77.8608 314.41 80.7089C316.214 82.8291 316.625 84.7911 316.625 86.2785C316.625 87.1646 316.467 87.7975 316.087 88.0823C315.866 88.2722 315.549 88.3354 315.201 88.3354C314.821 88.3671 314.41 88.3354 313.84 88.3038C314.347 89.2215 314.631 90.6456 314.663 91.5633C315.391 91.5633 316.15 91.5316 316.72 91.4684C317.416 91.3734 318.018 91.1519 318.524 90.8038C319.537 90.1076 319.948 88.7785 319.948 86.7215C319.948 84.8861 319.568 82.7658 317.606 80.2975C318.524 77.8291 319.568 74.3797 320.391 71.6582L317.923 70.2658L317.385 70.3924H316.752Z" fill="#34424F"/>
</g>
<defs>
<clipPath id="clip0_2214_195">
<rect width="341" height="106" fill="white"/>
</clipPath>
</defs>
</svg>
