<svg width="341" height="106" viewBox="0 0 341 106" fill="none" xmlns="http://www.w3.org/2000/svg">
<path fill-rule="evenodd" clip-rule="evenodd" d="M36.6177 9.79732C31.4995 9.05609 27.1833 9.60965 23.3422 11.8395C19.2219 14.2314 16.0262 18.3438 12.9197 23.7509C7.49552 33.1921 3.98599 48.394 2.01432 63.3347C0.0324761 78.3525 -0.452235 93.57 0.407414 103.29C0.536051 104.744 1.82035 105.819 3.27597 105.691C4.7316 105.562 5.80734 104.279 5.6787 102.825C4.8626 93.597 5.31317 78.7841 7.26073 64.026C9.21847 49.1909 12.6325 34.8715 17.5091 26.3834C20.4823 21.2083 23.1076 18.091 26.0005 16.4116C28.7837 14.7959 32.183 14.3059 37.2126 15.2572C40.7732 15.9307 43.9155 18.2988 45.5052 23.2306C45.9532 24.6205 47.4439 25.3843 48.8349 24.9367C50.2258 24.489 50.9902 22.9994 50.5422 21.6096C48.9566 16.6904 46.0256 13.321 42.3645 11.4677C43.8705 10.071 45.7426 8.65112 47.7752 7.51748C51.2837 5.56072 54.6667 4.78311 57.2552 5.62968C61.5351 7.02937 63.896 9.54526 65.2604 12.4438C65.4276 12.7989 65.5805 13.1615 65.7203 13.5306C65.7331 13.5672 65.7467 13.6036 65.7612 13.6398C66.7727 16.3701 67.0744 19.4459 67.0744 22.4201C67.0744 23.8803 68.259 25.064 69.7203 25.064C71.1816 25.064 72.3662 23.8803 72.3662 22.4201C72.3662 19.7599 72.1543 16.7233 71.3402 13.733C72.2594 13.1821 73.2341 12.7491 74.2601 12.5835C75.6987 12.3514 77.56 12.5928 79.873 14.639C82.2843 16.7722 83.5234 19.8 84.0364 22.8573C84.4954 25.5926 84.3326 28.1324 84.055 29.589C83.7815 31.0234 84.7236 32.4076 86.1591 32.6808C87.5946 32.954 88.9799 32.0127 89.2533 30.5784C89.46 29.4944 89.6079 28.0908 89.616 26.5055C91.0055 27.2859 92.4544 28.3353 93.727 29.6765C96.1605 32.2415 97.9665 35.876 97.5129 40.9527C96.5123 52.1509 90.8816 61.4992 88.3129 64.6273C87.9247 65.1 87.7125 65.6927 87.7125 66.3043V100.41C87.7125 101.87 88.8971 103.054 90.3584 103.054C91.8197 103.054 93.0043 101.87 93.0043 100.41V67.2173C96.2212 62.9586 101.736 53.146 102.784 41.4229C103.388 34.6552 100.914 29.5662 97.5673 26.0387C94.8621 23.1873 91.5997 21.359 88.9303 20.3767C88.1311 17.0212 86.4973 13.437 83.3808 10.68C79.9787 7.67021 76.5472 6.85827 73.4164 7.36346C71.8754 7.61213 70.4967 8.16763 69.321 8.79849C67.2774 5.25355 63.9821 2.26596 58.9013 0.604326C54.2131 -0.928917 49.1732 0.682181 45.1961 2.90035C41.7768 4.80738 38.6988 7.40473 36.6177 9.79732Z" fill="#34424F"/>
<path d="M76.2132 32.5017C70.478 32.5017 69.6089 40.5473 69.8407 46.5768C70.0546 52.1384 73.6642 59.3241 76.2132 59.3241C78.7621 59.3241 80.2844 53.8357 80.727 51.0915C81.612 44.8949 81.9483 32.5017 76.2132 32.5017Z" fill="#34424F"/>
<path d="M90.0202 46.5768C86.1967 46.5768 86.816 57.3766 87.701 63.3077C87.701 63.3077 93.5424 57.245 93.5424 52.4193C93.5424 51.0915 93.8436 46.5768 90.0202 46.5768Z" fill="#34424F"/>
<path fill-rule="evenodd" clip-rule="evenodd" d="M72.9517 38.0223C72.1655 40.4049 71.9945 43.5944 72.1073 46.5069C72.2003 48.9042 73.0518 51.7709 74.1937 54.033C74.7625 55.1597 75.355 56.0393 75.8773 56.6021C76.1012 56.8434 76.2654 56.9776 76.3687 57.0508C76.4057 57.0182 76.4508 56.9745 76.5041 56.9165C76.793 56.6021 77.1253 56.0682 77.4576 55.3188C78.1131 53.8407 78.5637 51.9974 78.7683 50.7478C79.1943 47.7788 79.4739 43.3929 78.9889 39.8247C78.7433 38.0179 78.3268 36.6228 77.7867 35.7368C77.2957 34.9312 76.8479 34.7369 76.3555 34.7369C75.4777 34.7369 74.8731 35.0202 74.3789 35.4906C73.8344 36.0089 73.3414 36.8414 72.9517 38.0223ZM76.2428 57.1407C76.2428 57.1403 76.2467 57.1382 76.2547 57.1355C76.2467 57.1397 76.2428 57.1411 76.2428 57.1407ZM71.4392 32.4498C72.7131 31.2373 74.3668 30.5233 76.3555 30.5233C78.7296 30.5233 80.3897 31.8652 81.4203 33.5561C82.402 35.1664 82.921 37.2278 83.1974 39.2616C83.7554 43.3668 83.4267 48.1871 82.9695 51.3628C82.9684 51.3707 82.9672 51.3786 82.966 51.3865C82.9652 51.3911 82.9645 51.3957 82.9638 51.4003C82.7246 52.8718 82.1944 55.0996 81.3446 57.0158C80.9227 57.9673 80.3692 58.9641 79.6423 59.7553C78.9171 60.5446 77.8179 61.3356 76.3555 61.3356C74.7832 61.3356 73.5429 60.3071 72.7534 59.4563C71.8759 58.5108 71.0753 57.2642 70.3968 55.92C69.0441 53.2405 67.9847 49.7867 67.8639 46.6688C67.745 43.602 67.8925 39.8126 68.9159 36.7112C69.431 35.1501 70.2157 33.6143 71.4392 32.4498ZM87.8389 63.1791L89.3678 64.6411C88.8064 65.219 87.9629 65.4303 87.1924 65.1859C86.4219 64.9415 85.8582 64.284 85.7388 63.4901C85.2853 60.4753 84.8885 56.166 85.1137 52.548C85.2247 50.7653 85.4959 48.9601 86.1015 47.5347C86.6987 46.1289 87.9295 44.481 90.1571 44.481C91.5644 44.481 92.7751 44.9073 93.7145 45.7196C94.6155 46.4986 95.1043 47.4914 95.3782 48.3652C95.8433 49.8488 95.8157 51.4785 95.8039 52.17C95.8025 52.2556 95.8013 52.3268 95.8013 52.3816C95.8013 55.4712 93.9885 58.6376 92.5066 60.7706C91.7256 61.8947 90.9488 62.8533 90.3684 63.5302C90.0772 63.8698 89.8328 64.1415 89.6587 64.331C89.5716 64.4258 89.5019 64.5002 89.4525 64.5524C89.4278 64.5785 89.4081 64.5991 89.3939 64.614L89.3766 64.6319L89.3711 64.6376L89.3684 64.6404C89.3681 64.6407 89.3678 64.6411 87.8389 63.1791ZM89.3522 52.8078C89.2555 54.3622 89.289 56.0996 89.3984 57.8038C90.6424 55.9031 91.5546 53.9212 91.5546 52.3816C91.5546 52.276 91.5555 52.1666 91.5564 52.0543C91.5622 51.2952 91.5691 50.401 91.3233 49.6167C91.1947 49.2066 91.0421 48.9979 90.9247 48.8963C90.852 48.8335 90.6895 48.7155 90.2715 48.6971C90.2152 48.7673 90.1267 48.9077 90.0146 49.1715C89.689 49.938 89.4537 51.1779 89.3522 52.8078ZM90.3398 48.6358C90.3405 48.6399 90.3265 48.655 90.2957 48.6689C90.3238 48.6386 90.3392 48.6317 90.3398 48.6358Z" fill="#34424F"/>
<path d="M35.2183 39.7834C33.6299 42.4383 34.4416 48.3495 32.306 52.527C27.0126 62.8813 34.6881 68.1929 39.9828 67.1309C45.2774 66.0689 47.1305 50.6701 43.689 42.1742C40.2475 33.6783 36.8067 37.1284 35.2183 39.7834Z" fill="#34424F"/>
<path d="M64.3388 45.624C63.4916 56.8811 57.6322 57.3944 54.8084 56.2439C49.2491 53.0586 51.8964 44.2965 54.8084 33.1456C57.7205 21.9948 65.3977 31.5527 64.3388 45.624Z" fill="#34424F"/>
<path fill-rule="evenodd" clip-rule="evenodd" d="M62.873 28.4897C65.4681 31.811 67.146 38.3176 66.594 45.649C66.1475 51.579 64.3394 55.2586 61.6966 57.1694C59.0446 59.0868 56.0685 58.8512 54.1532 58.0713C54.0661 58.0358 53.9814 57.9945 53.8997 57.9478C50.0053 55.7177 49.3121 51.584 49.6625 47.3698C49.9762 43.5969 51.1794 39.0254 52.4527 34.1877C52.6017 33.6214 52.7518 33.0513 52.9014 32.4785C53.2994 30.9553 53.808 29.6661 54.445 28.6477C55.0777 27.636 55.9186 26.7657 57.0219 26.3176C59.4973 25.3122 61.6204 26.8864 62.873 28.4897ZM58.0342 30.9031C57.698 31.4406 57.3295 32.291 56.9994 33.5543C56.8523 34.1172 56.7069 34.6709 56.5638 35.2153C55.2635 40.1645 54.1647 44.3469 53.8841 47.7225C53.5804 51.3749 54.2976 53.2129 55.8764 54.1868C56.7822 54.5132 58.0777 54.5505 59.2184 53.7257C60.4235 52.8544 61.9691 50.6515 62.3698 45.3295C62.8768 38.5958 61.2452 33.293 59.5379 31.1077C59.1284 30.5836 58.8098 30.3627 58.6447 30.287C58.6212 30.2763 58.6029 30.2694 58.5895 30.265C58.5224 30.3041 58.3169 30.4511 58.0342 30.9031ZM58.5617 30.2577C58.5617 30.2577 58.5621 30.2577 58.5631 30.2579L58.5617 30.2577ZM38.3168 39.2594C37.9098 39.642 37.5131 40.1773 37.1743 40.7435C36.9755 41.0754 36.7833 41.6404 36.6168 42.555C36.4734 43.3422 36.3753 44.2217 36.2622 45.236C36.2457 45.3837 36.2289 45.5342 36.2116 45.6877C35.9541 47.9738 35.6001 50.8749 34.3302 53.3577C31.9583 57.9947 32.6929 60.9882 33.9889 62.6685C35.4067 64.5067 37.8336 65.2804 39.7076 64.9047C40.0634 64.8334 40.7621 64.409 41.5275 62.8821C42.2531 61.4344 42.8263 59.392 43.1546 57.0097C43.8153 52.2163 43.4091 46.644 41.8673 42.84C41.0575 40.8419 40.3283 39.7603 39.7832 39.2165C39.5221 38.9561 39.3372 38.8531 39.2413 38.8131C39.1563 38.7776 39.1129 38.7787 39.0859 38.7811C39.0023 38.7885 38.7411 38.8606 38.3168 39.2594ZM42.7715 36.207C43.8893 37.3221 44.881 38.994 45.792 41.2419C47.6922 45.9301 48.0803 52.2997 47.351 57.5908C46.9843 60.2507 46.3164 62.786 45.3128 64.7883C44.3489 66.7113 42.8303 68.6089 40.5384 69.0684C37.1171 69.7542 33.0582 68.4041 30.6375 65.2655C28.095 61.9692 27.6384 57.1332 30.5605 51.4205C31.4264 49.7277 31.7345 47.5868 32.0022 45.2112C32.0184 45.0672 32.0346 44.9216 32.0509 44.775C32.1616 43.7793 32.2775 42.7367 32.4494 41.7927C32.6442 40.7226 32.9462 39.5538 33.5417 38.5589C33.9971 37.7981 34.6264 36.9072 35.4189 36.1622C36.1942 35.4334 37.3062 34.6765 38.7118 34.5516C40.2182 34.4177 41.6065 35.0448 42.7715 36.207Z" fill="#34424F"/>
<path d="M64.9773 62.4597C60.7342 62.4597 52.2482 75.333 48.5355 81.7697C43.8057 89.9698 44.9289 99.757 53.8393 99.757C62.7496 99.757 64.9773 95.5247 67.364 93.144C69.5559 97.3763 74.0642 99.9388 76.1153 99.757C83.2771 99.1224 83.0102 87.7655 79.8279 81.7697C76.6456 75.333 69.2203 62.4597 64.9773 62.4597Z" fill="#34424F"/>
<path fill-rule="evenodd" clip-rule="evenodd" d="M58.0961 71.1345C55.0567 75.0596 52.0601 79.8016 50.235 82.9667C48.0531 86.7505 47.3509 90.6986 48.0003 93.506C48.3175 94.8772 48.9361 95.9102 49.7885 96.6043C50.6319 97.2912 51.8743 97.7851 53.6995 97.7851C57.7837 97.7851 60.1341 96.8256 61.7023 95.7456C62.5126 95.1876 63.1757 94.5551 63.8043 93.8823C64.0036 93.669 64.2377 93.4071 64.4842 93.1313C64.8975 92.6688 65.3457 92.1673 65.7229 91.7909C66.2016 91.3133 66.88 91.0923 67.5489 91.1961C68.2178 91.2999 68.7969 91.716 69.1076 92.3161C70.0188 94.076 71.4376 95.5266 72.86 96.5111C73.5672 97.0006 74.2384 97.349 74.7985 97.5601C75.3962 97.7854 75.72 97.7992 75.7856 97.7934C76.9444 97.6907 77.7316 97.1903 78.3211 96.4012C78.9578 95.5489 79.4123 94.2792 79.6012 92.671C79.9817 89.4292 79.2009 85.5214 77.8108 82.9015C77.8013 82.8836 77.792 82.8655 77.783 82.8474C76.2214 79.6879 73.6207 74.9559 70.9131 71.043C69.5544 69.0795 68.2184 67.3951 67.0171 66.2248C66.4166 65.6399 65.9001 65.2333 65.4787 64.9835C65.272 64.861 65.1116 64.7904 64.9964 64.7521C64.8891 64.7164 64.839 64.7146 64.8363 64.7145C64.8335 64.7146 64.7747 64.7164 64.6482 64.7574C64.5166 64.8 64.3377 64.8766 64.1096 65.0055C63.6463 65.2673 63.0801 65.6873 62.4222 66.2806C61.1068 67.4669 59.6206 69.1658 58.0961 71.1345ZM62.0188 61.3222C62.8249 60.8667 63.7931 60.4815 64.8364 60.4815C65.8904 60.4815 66.8513 60.8735 67.6454 61.3441C68.4546 61.8237 69.239 62.4733 69.9809 63.196C71.4643 64.641 72.9789 66.5779 74.4044 68.638C77.2575 72.7611 79.9533 77.6705 81.575 80.9487C83.3573 84.324 84.2944 89.0791 83.815 93.1634C83.5731 95.2239 82.9505 97.2877 81.7226 98.9311C80.4476 100.638 78.5827 101.795 76.161 102.01C75.2011 102.095 74.1924 101.857 73.2995 101.52C72.3692 101.17 71.3918 100.647 70.4417 99.9892C69.2327 99.1523 68.0078 98.055 66.9469 96.7266C66.9339 96.7405 66.9208 96.7546 66.9076 96.7687C66.169 97.5593 65.271 98.4315 64.1124 99.2294C61.7429 100.861 58.5248 102.018 53.6995 102.018C51.07 102.018 48.8309 101.289 47.1058 99.8837C45.3896 98.486 44.3525 96.5592 43.8664 94.458C42.9092 90.3205 44.0102 85.2734 46.5576 80.8557L48.357 81.8887L46.5576 80.8557C48.4447 77.5831 51.5469 72.6686 54.7388 68.5465C56.33 66.4916 57.9927 64.5693 59.5774 63.1402C60.3697 62.4258 61.1915 61.7896 62.0188 61.3222Z" fill="#34424F"/>
<path fill-rule="evenodd" clip-rule="evenodd" d="M178.058 15.4511C179.665 14.525 181.722 15.0705 182.652 16.6694L196.364 40.2253L197.907 18.1144C198.005 16.7068 198.98 15.5119 200.345 15.1273C201.709 14.7426 203.169 15.251 203.995 16.3981L221.659 40.9393V18.3462C221.659 16.4984 223.165 15.0006 225.022 15.0006C226.879 15.0006 228.384 16.4984 228.384 18.3462V51.3563C228.384 52.8099 227.441 54.0972 226.05 54.5417C224.659 54.9862 223.139 54.4862 222.288 53.3044L203.968 27.8526L202.312 51.5881C202.209 53.055 201.156 54.2834 199.717 54.6155C198.277 54.9476 196.788 54.3055 196.048 53.0331L176.833 20.023C175.903 18.4241 176.451 16.3772 178.058 15.4511Z" fill="#34424F"/>
<path fill-rule="evenodd" clip-rule="evenodd" d="M163.239 15.1041C164.719 14.7257 166.267 15.4027 166.998 16.7485L184.919 49.7453C185.802 51.371 185.204 53.407 183.584 54.2929C181.963 55.1788 179.934 54.579 179.051 52.9534L167.405 31.5102V51.3493C167.405 53.2007 165.909 54.7016 164.064 54.7016C162.219 54.7016 160.723 53.2007 160.723 51.3493V18.3526C160.723 16.8199 161.759 15.4825 163.239 15.1041Z" fill="#34424F"/>
<path fill-rule="evenodd" clip-rule="evenodd" d="M143.305 21.725V31.7467C144.592 31.7204 145.574 31.5268 146.27 31.1676C146.746 30.922 147.098 30.5929 147.368 30.0701C147.662 29.5019 147.944 28.5341 147.944 26.915C147.944 23.8129 146.957 22.8753 146.165 22.4295C145.477 22.0424 144.526 21.8065 143.305 21.725ZM143.305 38.4406C145.327 38.4097 147.428 38.0849 149.287 37.1252C150.91 36.2874 152.298 34.9938 153.242 33.1682C154.163 31.3879 154.572 29.2818 154.572 26.915C154.572 22.0455 152.798 18.502 149.392 16.5852C146.373 14.8858 142.691 14.8607 139.706 15.1213C137.993 15.2708 136.678 16.7184 136.678 18.4545V51.3566C136.678 53.2043 138.161 54.7022 139.991 54.7022C141.822 54.7022 143.305 53.2043 143.305 51.3566V38.4406Z" fill="#34424F"/>
<path fill-rule="evenodd" clip-rule="evenodd" d="M289.896 15.4511C291.502 14.525 293.56 15.0705 294.49 16.6694L308.202 40.2253L309.745 18.1144C309.843 16.7068 310.818 15.5119 312.183 15.1273C313.547 14.7426 315.007 15.251 315.833 16.3981L333.497 40.9393V18.3462C333.497 16.4984 335.003 15.0006 336.86 15.0006C338.717 15.0006 340.222 16.4984 340.222 18.3462V51.3563C340.222 52.8099 339.279 54.0972 337.888 54.5417C336.497 54.9862 334.977 54.4862 334.126 53.3044L315.806 27.8526L314.149 51.5881C314.047 53.055 312.994 54.2834 311.555 54.6155C310.115 54.9476 308.626 54.3055 307.886 53.0331L288.671 20.023C287.74 18.4241 288.289 16.3772 289.896 15.4511Z" fill="#34424F"/>
<path fill-rule="evenodd" clip-rule="evenodd" d="M275.077 15.1041C276.557 14.7257 278.105 15.4027 278.836 16.7485L296.757 49.7453C297.64 51.371 297.042 53.407 295.422 54.2929C293.801 55.1788 291.772 54.579 290.889 52.9534L279.243 31.5102V51.3493C279.243 53.2007 277.747 54.7016 275.902 54.7016C274.056 54.7016 272.561 53.2007 272.561 51.3493V18.3526C272.561 16.8199 273.597 15.4825 275.077 15.1041Z" fill="#34424F"/>
<path fill-rule="evenodd" clip-rule="evenodd" d="M255.143 21.725V31.7467C256.43 31.7204 257.412 31.5268 258.108 31.1676C258.584 30.922 258.936 30.5929 259.206 30.0701C259.5 29.5019 259.782 28.5341 259.782 26.915C259.782 23.8129 258.795 22.8753 258.003 22.4295C257.315 22.0424 256.364 21.8065 255.143 21.725ZM255.143 38.4406C257.165 38.4097 259.266 38.0849 261.125 37.1252C262.748 36.2874 264.136 34.9938 265.08 33.1682C266.001 31.3879 266.41 29.2818 266.41 26.915C266.41 22.0455 264.635 18.502 261.23 16.5852C258.211 14.8858 254.529 14.8607 251.544 15.1213C249.831 15.2708 248.516 16.7184 248.516 18.4545V51.3566C248.516 53.2043 249.999 54.7022 251.829 54.7022C253.659 54.7022 255.143 53.2043 255.143 51.3566V38.4406Z" fill="#34424F"/>
<path d="M142.423 72.3495C142.791 72.6487 142.986 73.0399 143.009 73.5232C143.032 73.9835 142.894 74.3977 142.596 74.7659C142.297 75.1111 141.917 75.3067 141.458 75.3527C141.021 75.3758 140.63 75.2377 140.285 74.9385C139.481 74.2251 138.435 73.3621 137.148 72.3495C136.803 72.0734 136.596 71.7166 136.527 71.2794C136.481 70.8191 136.607 70.4164 136.906 70.0712C137.205 69.703 137.584 69.4959 138.044 69.4498C138.504 69.4038 138.918 69.5189 139.285 69.795C140.78 70.9687 141.826 71.8202 142.423 72.3495ZM139.354 83.0507C137.906 81.762 136.653 80.7149 135.596 79.9094C135.251 79.6332 135.056 79.2765 135.01 78.8393C134.964 78.402 135.079 78.0108 135.355 77.6656C135.653 77.3204 136.021 77.1248 136.458 77.0787C136.918 77.0097 137.332 77.1133 137.699 77.3894C138.895 78.2639 140.147 79.288 141.458 80.4617C141.826 80.7839 142.021 81.1751 142.044 81.6354C142.09 82.0956 141.963 82.5099 141.665 82.8781C141.366 83.2233 140.987 83.4189 140.527 83.4649C140.09 83.488 139.699 83.3499 139.354 83.0507ZM141.734 87.5383C142.17 87.7224 142.492 88.0331 142.699 88.4703C142.906 88.8846 142.929 89.3103 142.768 89.7476C141.734 92.6703 140.492 95.3513 139.044 97.7907C138.791 98.205 138.423 98.4581 137.941 98.5502C137.458 98.6652 137.01 98.5847 136.596 98.3085C136.205 98.0554 135.952 97.6872 135.837 97.2039C135.722 96.7206 135.791 96.2718 136.044 95.8576C137.492 93.4182 138.688 90.9673 139.63 88.5049C139.791 88.0676 140.067 87.7569 140.458 87.5728C140.872 87.3887 141.297 87.3772 141.734 87.5383ZM162.525 76.3538L163.25 74.8004C163.319 74.6393 163.261 74.5588 163.077 74.5588H158.043C157.859 74.5588 157.767 74.6624 157.767 74.8695V79.5987C157.767 79.8058 157.859 79.9094 158.043 79.9094H163.043C163.456 79.9094 163.813 80.059 164.112 80.3581C164.41 80.6573 164.56 81.014 164.56 81.4283C164.56 82.4869 164.376 83.4649 164.008 84.3625C162.744 87.4232 161.204 90.0237 159.388 92.164C159.25 92.3481 159.261 92.4977 159.422 92.6127C161.146 93.8324 163.238 94.8565 165.698 95.685C166.111 95.8231 166.422 96.0877 166.629 96.479C166.836 96.8472 166.882 97.2499 166.767 97.6872C166.652 98.1244 166.399 98.4466 166.008 98.6537C165.64 98.8839 165.238 98.9414 164.801 98.8263C161.882 97.9518 159.261 96.6631 156.94 94.9601C156.802 94.845 156.641 94.8565 156.457 94.9946C154.411 96.6055 152.032 97.8598 149.319 98.7573C148.883 98.9184 148.446 98.8839 148.009 98.6537C147.595 98.4466 147.296 98.1244 147.113 97.6872C146.952 97.2729 146.975 96.8702 147.182 96.479C147.388 96.0877 147.699 95.8116 148.113 95.6505C150.25 94.891 152.158 93.8785 153.836 92.6127C153.997 92.4746 154.02 92.3481 153.905 92.233C152.342 90.53 151.02 88.5739 149.94 86.3646C149.733 85.9504 149.71 85.5361 149.871 85.1219C150.055 84.7077 150.354 84.4085 150.768 84.2244C151.204 84.0403 151.63 84.0403 152.043 84.2244C152.48 84.3855 152.802 84.6731 153.009 85.0874C153.905 86.8364 155.02 88.4358 156.353 89.8857C156.514 90.0467 156.652 90.0467 156.767 89.8857C158.33 88.0676 159.641 85.8353 160.698 83.1888C160.744 83.0277 160.675 82.9471 160.491 82.9471H148.561C148.354 82.9471 148.25 83.0507 148.25 83.2578C148.25 89.1262 147.273 93.9475 145.32 97.7217C145.09 98.1589 144.733 98.3891 144.251 98.4121C143.791 98.4581 143.412 98.297 143.113 97.9288C142.308 97.0083 142.159 95.9497 142.665 94.753C144.113 91.347 144.837 86.6523 144.837 80.6688V73.4196C144.837 72.8903 145.021 72.4301 145.389 72.0388C145.779 71.6476 146.239 71.452 146.768 71.452H153.836C154.02 71.452 154.112 71.3484 154.112 71.1413V69.9676C154.112 69.4613 154.285 69.0356 154.629 68.6904C154.997 68.3452 155.434 68.1726 155.94 68.1726C156.445 68.1726 156.871 68.3452 157.215 68.6904C157.583 69.0356 157.767 69.4613 157.767 69.9676V71.1413C157.767 71.3484 157.859 71.452 158.043 71.452H165.249C165.686 71.452 166.054 71.6016 166.353 71.9008C166.652 72.1999 166.801 72.5681 166.801 73.0054C166.801 74.064 166.617 75.0651 166.249 76.0086C165.997 76.676 165.721 77.2859 165.422 77.8382C165.215 78.2524 164.893 78.5286 164.456 78.6667C164.02 78.8047 163.594 78.7702 163.181 78.5631C162.79 78.356 162.525 78.0338 162.388 77.5965C162.273 77.1593 162.319 76.7451 162.525 76.3538ZM154.112 79.5987V74.8695C154.112 74.6624 154.02 74.5588 153.836 74.5588H148.561C148.354 74.5588 148.25 74.6624 148.25 74.8695V79.5987C148.25 79.8058 148.354 79.9094 148.561 79.9094H153.836C154.02 79.9094 154.112 79.8058 154.112 79.5987Z" fill="#34424F"/>
<path d="M176.904 72.3495C177.272 72.6487 177.467 73.0399 177.49 73.5232C177.513 73.9835 177.375 74.3977 177.076 74.7659C176.777 75.1111 176.398 75.3067 175.938 75.3527C175.502 75.3758 175.111 75.2377 174.766 74.9385C173.962 74.2251 172.916 73.3621 171.628 72.3495C171.284 72.0734 171.077 71.7166 171.008 71.2794C170.962 70.8191 171.088 70.4164 171.387 70.0712C171.686 69.703 172.065 69.4959 172.525 69.4498C172.985 69.4038 173.398 69.5189 173.766 69.795C175.26 70.9687 176.306 71.8202 176.904 72.3495ZM173.835 83.0507C172.387 81.762 171.134 80.7149 170.077 79.9094C169.732 79.6332 169.537 79.2765 169.491 78.8393C169.445 78.402 169.56 78.0108 169.835 77.6656C170.134 77.3204 170.502 77.1248 170.939 77.0787C171.398 77.0097 171.812 77.1133 172.18 77.3894C173.375 78.2639 174.628 79.288 175.938 80.4617C176.306 80.7839 176.502 81.1751 176.525 81.6354C176.571 82.0956 176.444 82.5099 176.145 82.8781C175.846 83.2233 175.467 83.4189 175.007 83.4649C174.571 83.488 174.18 83.3499 173.835 83.0507ZM176.214 87.5383C176.651 87.7224 176.973 88.0331 177.18 88.4703C177.387 88.8846 177.41 89.3103 177.249 89.7476C176.214 92.6703 174.973 95.3513 173.525 97.7907C173.272 98.205 172.904 98.4581 172.421 98.5502C171.939 98.6652 171.49 98.5847 171.077 98.3085C170.686 98.0554 170.433 97.6872 170.318 97.2039C170.203 96.7206 170.272 96.2718 170.525 95.8576C171.973 93.4182 173.168 90.9673 174.111 88.5049C174.272 88.0676 174.548 87.7569 174.939 87.5728C175.352 87.3887 175.778 87.3772 176.214 87.5383ZM197.006 76.3538L197.73 74.8004C197.799 74.6393 197.742 74.5588 197.558 74.5588H192.524C192.34 74.5588 192.248 74.6624 192.248 74.8695V79.5987C192.248 79.8058 192.34 79.9094 192.524 79.9094H197.523C197.937 79.9094 198.293 80.059 198.592 80.3581C198.891 80.6573 199.041 81.014 199.041 81.4283C199.041 82.4869 198.857 83.4649 198.489 84.3625C197.225 87.4232 195.684 90.0237 193.868 92.164C193.73 92.3481 193.742 92.4977 193.903 92.6127C195.627 93.8324 197.719 94.8565 200.178 95.685C200.592 95.8231 200.902 96.0877 201.109 96.479C201.316 96.8472 201.362 97.2499 201.247 97.6872C201.132 98.1244 200.879 98.4466 200.489 98.6537C200.121 98.8839 199.719 98.9414 199.282 98.8263C196.363 97.9518 193.742 96.6631 191.42 94.9601C191.282 94.845 191.121 94.8565 190.938 94.9946C188.892 96.6055 186.513 97.8598 183.8 98.7573C183.363 98.9184 182.927 98.8839 182.49 98.6537C182.076 98.4466 181.777 98.1244 181.593 97.6872C181.432 97.2729 181.455 96.8702 181.662 96.479C181.869 96.0877 182.179 95.8116 182.593 95.6505C184.731 94.891 186.639 93.8785 188.317 92.6127C188.478 92.4746 188.501 92.3481 188.386 92.233C186.823 90.53 185.501 88.5739 184.421 86.3646C184.214 85.9504 184.191 85.5361 184.352 85.1219C184.536 84.7077 184.834 84.4085 185.248 84.2244C185.685 84.0403 186.11 84.0403 186.524 84.2244C186.961 84.3855 187.283 84.6731 187.489 85.0874C188.386 86.8364 189.501 88.4358 190.834 89.8857C190.995 90.0467 191.133 90.0467 191.248 89.8857C192.811 88.0676 194.121 85.8353 195.179 83.1888C195.225 83.0277 195.156 82.9471 194.972 82.9471H183.041C182.835 82.9471 182.731 83.0507 182.731 83.2578C182.731 89.1262 181.754 93.9475 179.8 97.7217C179.57 98.1589 179.214 98.3891 178.731 98.4121C178.272 98.4581 177.892 98.297 177.594 97.9288C176.789 97.0083 176.64 95.9497 177.145 94.753C178.593 91.347 179.318 86.6523 179.318 80.6688V73.4196C179.318 72.8903 179.501 72.4301 179.869 72.0388C180.26 71.6476 180.72 71.452 181.248 71.452H188.317C188.501 71.452 188.593 71.3484 188.593 71.1413V69.9676C188.593 69.4613 188.765 69.0356 189.11 68.6904C189.478 68.3452 189.915 68.1726 190.42 68.1726C190.926 68.1726 191.351 68.3452 191.696 68.6904C192.064 69.0356 192.248 69.4613 192.248 69.9676V71.1413C192.248 71.3484 192.34 71.452 192.524 71.452H199.73C200.167 71.452 200.535 71.6016 200.834 71.9008C201.132 72.1999 201.282 72.5681 201.282 73.0054C201.282 74.064 201.098 75.0651 200.73 76.0086C200.477 76.676 200.201 77.2859 199.903 77.8382C199.696 78.2524 199.374 78.5286 198.937 78.6667C198.5 78.8047 198.075 78.7702 197.661 78.5631C197.271 78.356 197.006 78.0338 196.868 77.5965C196.753 77.1593 196.799 76.7451 197.006 76.3538ZM188.593 79.5987V74.8695C188.593 74.6624 188.501 74.5588 188.317 74.5588H183.041C182.835 74.5588 182.731 74.6624 182.731 74.8695V79.5987C182.731 79.8058 182.835 79.9094 183.041 79.9094H188.317C188.501 79.9094 188.593 79.8058 188.593 79.5987Z" fill="#34424F"/>
<path d="M205.695 99.068C205.282 99.091 204.914 98.9644 204.592 98.6882C204.293 98.4121 204.132 98.0669 204.109 97.6526C204.086 97.2384 204.213 96.8702 204.488 96.548C204.764 96.2488 205.109 96.0877 205.523 96.0647C208.166 95.9036 209.959 95.7886 210.902 95.7195C211.086 95.7195 211.178 95.6045 211.178 95.3743V94.2006C211.178 93.9935 211.086 93.89 210.902 93.89H206.006C205.638 93.89 205.316 93.7634 205.04 93.5102C204.764 93.2341 204.626 92.9004 204.626 92.5092C204.626 92.1179 204.764 91.7958 205.04 91.5426C205.316 91.2665 205.638 91.1284 206.006 91.1284H210.902C211.086 91.1284 211.178 91.0363 211.178 90.8522V89.8857C211.178 89.6785 211.086 89.575 210.902 89.575H208.557H207.075C206.546 89.575 206.086 89.3794 205.695 88.9881C205.305 88.5969 205.109 88.1366 205.109 87.6073V80.8414C205.109 80.3121 205.305 79.8519 205.695 79.4606C206.086 79.0694 206.546 78.8738 207.075 78.8738H210.902C211.086 78.8738 211.178 78.7817 211.178 78.5976V77.6311C211.178 77.4239 211.086 77.3204 210.902 77.3204H205.73C205.362 77.3204 205.04 77.1938 204.764 76.9407C204.488 76.6645 204.351 76.3308 204.351 75.9396C204.351 75.5484 204.488 75.2262 204.764 74.973C205.04 74.6969 205.362 74.5588 205.73 74.5588H210.902C211.086 74.5588 211.178 74.4552 211.178 74.2481V73.1435C211.178 72.9594 211.086 72.8673 210.902 72.8673C208.925 73.0054 207.465 73.0974 206.523 73.1435C206.109 73.1665 205.741 73.0284 205.419 72.7292C205.121 72.4301 204.96 72.0734 204.937 71.6591C204.914 71.2449 205.04 70.8882 205.316 70.589C205.615 70.2898 205.971 70.1287 206.385 70.1057C210.5 69.8986 214.741 69.4844 219.108 68.863C219.545 68.794 219.936 68.886 220.281 69.1392C220.625 69.3923 220.821 69.7375 220.867 70.1748C220.913 70.612 220.809 71.0032 220.556 71.3484C220.304 71.6706 219.959 71.8662 219.522 71.9353C218.626 72.0734 217.189 72.2575 215.212 72.4876C215.005 72.5336 214.902 72.6372 214.902 72.7983V74.2481C214.902 74.4552 215.005 74.5588 215.212 74.5588H219.798C220.465 74.5588 220.901 74.8925 221.108 75.5599C221.154 75.698 221.246 75.721 221.384 75.6289C221.637 75.4448 221.936 75.3527 222.281 75.3527H224.039C224.246 75.3527 224.349 75.2492 224.349 75.0421C224.395 73.0169 224.418 71.3945 224.418 70.1748C224.418 69.6915 224.591 69.2887 224.936 68.9666C225.28 68.6214 225.694 68.4488 226.177 68.4488C226.66 68.4488 227.062 68.6214 227.384 68.9666C227.705 69.2887 227.866 69.6915 227.866 70.1748C227.866 71.3945 227.843 73.0169 227.797 75.0421C227.797 75.2492 227.889 75.3527 228.073 75.3527H233.349C233.878 75.3527 234.337 75.5484 234.728 75.9396C235.119 76.3078 235.314 76.7566 235.314 77.2859V77.562C235.314 81.037 235.291 83.8907 235.245 86.123C235.222 88.3553 235.13 90.3114 234.969 91.9914C234.831 93.6483 234.682 94.9026 234.521 95.754C234.36 96.5825 234.096 97.2499 233.728 97.7562C233.36 98.2625 232.993 98.5617 232.625 98.6537C232.257 98.7688 231.74 98.8263 231.073 98.8263C230.728 98.8263 229.728 98.7573 228.073 98.6192C227.591 98.5962 227.188 98.4006 226.866 98.0324C226.545 97.6872 226.384 97.2729 226.384 96.7896C226.384 96.3294 226.545 95.9612 226.866 95.685C227.211 95.3858 227.602 95.2593 228.039 95.3053C228.843 95.3973 229.51 95.4434 230.039 95.4434C230.269 95.4434 230.464 95.3628 230.625 95.2017C230.786 95.0176 230.935 94.6379 231.073 94.0626C231.234 93.4642 231.349 92.6127 231.418 91.5081C231.51 90.3804 231.579 88.8616 231.625 86.9515C231.671 85.0183 231.694 82.648 231.694 79.8403V78.7357C231.694 78.5516 231.59 78.4595 231.383 78.4595H227.97C227.763 78.4595 227.66 78.5516 227.66 78.7357C227.407 83.4764 226.935 87.3312 226.246 90.2999C225.579 93.2456 224.614 95.8001 223.349 97.9633C223.12 98.3776 222.763 98.6307 222.281 98.7228C221.798 98.8378 221.35 98.7688 220.936 98.5156C220.568 98.2855 220.327 97.9518 220.212 97.5146C220.189 97.4685 220.143 97.434 220.074 97.411C220.028 97.388 219.993 97.3995 219.97 97.4455C219.74 97.6526 219.488 97.7677 219.212 97.7907C214.775 98.3891 210.27 98.8148 205.695 99.068ZM214.902 81.8425V82.8781C214.902 83.0852 215.005 83.1888 215.212 83.1888H217.177C217.361 83.1888 217.453 83.0852 217.453 82.8781V81.8425C217.453 81.6584 217.361 81.5663 217.177 81.5663H215.212C215.005 81.5663 214.902 81.6584 214.902 81.8425ZM214.902 85.5707V86.6063C214.902 86.8134 215.005 86.9169 215.212 86.9169H217.177C217.361 86.9169 217.453 86.8134 217.453 86.6063V85.5707C217.453 85.3635 217.361 85.26 217.177 85.26H215.212C215.005 85.26 214.902 85.3635 214.902 85.5707ZM214.902 94.2006V95.0636C214.902 95.2478 214.994 95.3398 215.177 95.3398C216.488 95.2017 217.764 95.0636 219.005 94.9256C219.626 94.8565 220.074 95.1097 220.35 95.685C220.373 95.731 220.407 95.7656 220.453 95.7886C220.522 95.7886 220.579 95.7656 220.625 95.7195C221.66 93.8324 222.464 91.5771 223.039 88.9536C223.614 86.3301 224.005 82.9241 224.211 78.7357C224.211 78.5516 224.119 78.4595 223.936 78.4595H222.281C221.913 78.4595 221.591 78.3445 221.315 78.1143C221.039 77.8842 220.855 77.5965 220.763 77.2513C220.717 77.0672 220.625 77.0212 220.488 77.1133C220.281 77.2513 220.051 77.3204 219.798 77.3204H215.212C215.005 77.3204 214.902 77.4239 214.902 77.6311V78.5976C214.902 78.7817 215.005 78.8738 215.212 78.8738H218.763C219.292 78.8738 219.752 79.0694 220.143 79.4606C220.533 79.8519 220.729 80.3121 220.729 80.8414V87.6073C220.729 88.1366 220.533 88.5969 220.143 88.9881C219.752 89.3794 219.292 89.575 218.763 89.575H215.212C215.005 89.575 214.902 89.6785 214.902 89.8857V90.8522C214.902 91.0363 215.005 91.1284 215.212 91.1284H219.35C219.74 91.1284 220.062 91.2665 220.315 91.5426C220.591 91.7958 220.729 92.1179 220.729 92.5092C220.729 92.9004 220.591 93.2341 220.315 93.5102C220.062 93.7634 219.74 93.89 219.35 93.89H215.212C215.005 93.89 214.902 93.9935 214.902 94.2006ZM208.557 81.8425V82.8781C208.557 83.0852 208.661 83.1888 208.868 83.1888H210.902C211.086 83.1888 211.178 83.0852 211.178 82.8781V81.8425C211.178 81.6584 211.086 81.5663 210.902 81.5663H208.868C208.661 81.5663 208.557 81.6584 208.557 81.8425ZM210.902 86.9169C211.086 86.9169 211.178 86.8134 211.178 86.6063V85.5707C211.178 85.3635 211.086 85.26 210.902 85.26H208.868C208.661 85.26 208.557 85.3635 208.557 85.5707V86.6063C208.557 86.8134 208.661 86.9169 208.868 86.9169H210.902Z" fill="#34424F"/>
<path d="M239.659 83.0507C239.222 82.9586 238.889 82.7285 238.659 82.3603C238.429 81.9691 238.372 81.5548 238.486 81.1176C239.199 77.9878 239.716 74.7544 240.038 71.4175C240.084 70.9802 240.268 70.6235 240.59 70.3474C240.912 70.0712 241.291 69.9446 241.728 69.9676C242.164 70.0137 242.521 70.1863 242.797 70.4854C243.072 70.7846 243.199 71.1528 243.176 71.5901C243.153 72.0273 243.095 72.6602 243.003 73.4887C243.003 73.6728 243.095 73.7648 243.279 73.7648H243.762C243.946 73.7648 244.038 73.6728 244.038 73.4887V70.3128C244.038 69.8065 244.21 69.3808 244.555 69.0356C244.923 68.6904 245.36 68.5178 245.865 68.5178C246.371 68.5178 246.796 68.6904 247.141 69.0356C247.486 69.3808 247.658 69.8065 247.658 70.3128V73.4887C247.658 73.6728 247.762 73.7648 247.969 73.7648H249.486C249.923 73.7648 250.29 73.9144 250.589 74.2136C250.888 74.5128 251.037 74.881 251.037 75.3182C251.037 75.7555 250.888 76.1237 250.589 76.4229C250.29 76.722 249.923 76.8716 249.486 76.8716H247.969C247.762 76.8716 247.658 76.9752 247.658 77.1823V84.6731C247.658 84.8572 247.75 84.9263 247.934 84.8803C248.118 84.8342 248.417 84.7652 248.831 84.6731C249.244 84.5581 249.555 84.466 249.762 84.397C250.152 84.2819 250.509 84.3394 250.831 84.5696C251.152 84.7997 251.336 85.1104 251.382 85.5016C251.428 85.9619 251.313 86.3876 251.037 86.7789C250.785 87.1701 250.451 87.4232 250.037 87.5383C249.118 87.8145 248.428 88.0101 247.969 88.1251C247.762 88.1712 247.658 88.2977 247.658 88.5049V97.7907C247.658 98.297 247.486 98.7228 247.141 99.068C246.796 99.4132 246.371 99.5858 245.865 99.5858C245.36 99.5858 244.923 99.4132 244.555 99.068C244.21 98.7228 244.038 98.297 244.038 97.7907V89.4024C244.038 89.1953 243.946 89.1147 243.762 89.1607C242.865 89.3679 241.716 89.621 240.314 89.9202C239.9 90.0122 239.521 89.9317 239.176 89.6785C238.831 89.4024 238.636 89.0457 238.59 88.6084C238.544 88.1712 238.647 87.7799 238.9 87.4347C239.153 87.0665 239.498 86.8364 239.935 86.7443C241.59 86.4452 242.877 86.1805 243.796 85.9504C243.957 85.9274 244.038 85.8008 244.038 85.5707V77.1823C244.038 76.9752 243.946 76.8716 243.762 76.8716H242.866C242.682 76.8716 242.567 76.9752 242.521 77.1823C242.245 78.7932 241.935 80.3581 241.59 81.877C241.498 82.3143 241.256 82.648 240.866 82.8781C240.498 83.1082 240.096 83.1658 239.659 83.0507ZM264.106 95.7886C264.519 95.7886 264.841 95.5009 265.071 94.9256C265.301 94.3502 265.519 93.004 265.726 90.8867C265.933 88.7465 266.105 85.5822 266.243 81.3937C266.22 81.3707 266.197 81.3477 266.174 81.3247C265.048 84.7997 263.531 88.0216 261.623 90.9903C259.715 93.936 257.554 96.4099 255.141 98.4121C254.75 98.7113 254.313 98.8378 253.83 98.7918C253.371 98.7458 252.98 98.5271 252.658 98.1359C252.359 97.7677 252.233 97.3535 252.279 96.8932C252.348 96.456 252.566 96.0762 252.934 95.754C255.738 93.4067 258.152 90.4955 260.175 87.0205C262.198 83.5225 263.68 79.7023 264.623 75.5599C264.669 75.3528 264.6 75.2492 264.416 75.2492H262.244C262.037 75.2492 261.91 75.3412 261.864 75.5254C260.968 78.5861 259.75 81.4628 258.209 84.1553C256.669 86.8479 254.968 89.1032 253.106 90.9213C252.761 91.2434 252.348 91.393 251.865 91.37C251.405 91.324 251.014 91.1169 250.693 90.7487C250.394 90.3804 250.256 89.9662 250.279 89.5059C250.325 89.0227 250.52 88.6199 250.865 88.2977C254.267 85.0298 256.819 80.7724 258.52 75.5254C258.566 75.3412 258.497 75.2492 258.313 75.2492H256.21C256.026 75.2492 255.888 75.3297 255.796 75.4908C254.646 78.0453 253.336 80.2891 251.865 82.2222C251.612 82.5674 251.256 82.7515 250.796 82.7745C250.359 82.7745 249.992 82.6134 249.693 82.2913C249.371 81.9691 249.198 81.5663 249.175 81.0831C249.152 80.5998 249.279 80.174 249.555 79.8058C251.716 76.8141 253.348 73.4081 254.451 69.5879C254.589 69.1277 254.853 68.7709 255.244 68.5178C255.658 68.2416 256.106 68.1266 256.589 68.1726C257.049 68.2186 257.405 68.4373 257.658 68.8285C257.911 69.1967 257.968 69.5994 257.83 70.0367C257.646 70.6811 257.462 71.2564 257.278 71.7627C257.232 71.9468 257.301 72.0388 257.485 72.0388H267.933C268.462 72.0388 268.91 72.246 269.278 72.6602C269.668 73.0514 269.852 73.5117 269.829 74.041C269.714 80.0475 269.577 84.6846 269.416 87.9525C269.278 91.2204 269.025 93.7059 268.657 95.4088C268.312 97.0888 267.933 98.1129 267.519 98.4811C267.128 98.8723 266.531 99.068 265.726 99.068C264.6 99.068 263.037 99.0104 261.037 98.8954C260.577 98.8723 260.186 98.6882 259.864 98.343C259.543 98.0209 259.37 97.6296 259.347 97.1694C259.324 96.7321 259.462 96.3639 259.761 96.0647C260.083 95.7656 260.462 95.6275 260.899 95.6505C262.6 95.7425 263.669 95.7886 264.106 95.7886Z" fill="#34424F"/>
<path d="M281.794 71.2449C281.771 71.2679 281.748 71.3139 281.725 71.383C281.702 71.452 281.691 71.498 281.691 71.521C281.599 71.7051 281.656 71.7972 281.863 71.7972H287.173C287.426 71.7972 287.644 71.8892 287.828 72.0734C288.012 72.2575 288.104 72.4761 288.104 72.7292C288.104 72.9824 288.012 73.2125 287.828 73.4196C287.644 73.6037 287.426 73.6958 287.173 73.6958H285.208C285.024 73.6958 284.932 73.7994 284.932 74.0065V74.5243C284.932 74.7314 285.024 74.835 285.208 74.835H287.449C287.725 74.835 287.955 74.927 288.139 75.1111C288.346 75.2952 288.449 75.5254 288.449 75.8015C288.449 76.0777 288.346 76.3193 288.139 76.5264C287.955 76.7105 287.725 76.8026 287.449 76.8026H285.897C285.851 76.8026 285.817 76.8256 285.794 76.8716C285.771 76.9177 285.771 76.9637 285.794 77.0097C286.139 77.3549 286.507 77.6311 286.897 77.8382C287.311 78.0913 287.575 78.4365 287.69 78.8738C287.805 79.311 287.713 79.7138 287.415 80.082L287.173 80.3581C287.15 80.3812 287.139 80.4157 287.139 80.4617C287.162 80.5077 287.196 80.5307 287.242 80.5307H287.518C287.817 80.5307 288.07 80.6343 288.277 80.8414C288.506 81.0485 288.621 81.3132 288.621 81.6354C288.621 81.9576 288.506 82.2222 288.277 82.4293C288.07 82.6365 287.817 82.74 287.518 82.74H275.932C275.404 82.74 274.944 82.5559 274.553 82.1877C274.162 81.7965 273.967 81.3362 273.967 80.8069V70.5545C273.967 70.0252 274.162 69.5649 274.553 69.1737C274.944 68.7825 275.404 68.5868 275.932 68.5868H287.621C287.943 68.5868 288.219 68.7019 288.449 68.932C288.679 69.1622 288.794 69.4383 288.794 69.7605C288.794 70.0827 288.679 70.3589 288.449 70.589C288.219 70.8191 287.943 70.9342 287.621 70.9342H282.208C282.024 70.9342 281.886 71.0378 281.794 71.2449ZM279.967 74.5933C279.852 74.7544 279.886 74.835 280.07 74.835H281.346C281.53 74.835 281.622 74.7314 281.622 74.5243V74.0065C281.622 73.7994 281.53 73.6958 281.346 73.6958H280.863C280.679 73.6958 280.53 73.7763 280.415 73.9374C280.162 74.3287 280.013 74.5473 279.967 74.5933ZM277.312 71.2449V73.4887C277.312 73.5347 277.335 73.5692 277.381 73.5922C277.45 73.6152 277.496 73.6037 277.519 73.5577C278.047 72.8443 278.53 72.0618 278.967 71.2104C279.059 71.0263 279.001 70.9342 278.794 70.9342H277.622C277.415 70.9342 277.312 71.0378 277.312 71.2449ZM277.312 74.7314V78.2869C277.312 78.4711 277.415 78.5401 277.622 78.4941C278.978 78.1028 279.99 77.6081 280.656 77.0097C280.702 76.9637 280.702 76.9177 280.656 76.8716C280.633 76.8256 280.599 76.8026 280.553 76.8026H279.691C279.231 76.8026 278.829 76.6415 278.484 76.3193C278.162 75.9741 278.001 75.5714 278.001 75.1111C278.001 74.927 277.932 74.8004 277.794 74.7314L277.588 74.5933C277.542 74.5473 277.484 74.5473 277.415 74.5933C277.346 74.6163 277.312 74.6624 277.312 74.7314ZM278.76 80.5307C278.806 80.5307 278.84 80.4962 278.863 80.4272C278.886 80.3581 278.875 80.3121 278.829 80.2891L277.553 79.0119C277.507 78.9658 277.45 78.9543 277.381 78.9773C277.335 79.0004 277.312 79.0349 277.312 79.0809V80.2201C277.312 80.4272 277.415 80.5307 277.622 80.5307H278.76ZM283.139 78.4595C282.242 79.311 281.208 79.9669 280.036 80.4272C280.013 80.4732 280.013 80.5077 280.036 80.5307H286.139C286.162 80.5307 286.173 80.5192 286.173 80.4962C286.173 80.4502 286.162 80.4157 286.139 80.3927C285.196 79.9784 284.334 79.3456 283.553 78.4941C283.415 78.333 283.277 78.3215 283.139 78.4595ZM303.448 70.1057C303.862 70.1517 304.195 70.3359 304.448 70.658C304.701 70.9572 304.804 71.3139 304.758 71.7282C304.597 72.9018 304.276 73.6152 303.793 73.8684C303.333 74.0985 302.184 74.2136 300.345 74.2136C298.759 74.2136 297.782 74.1446 297.414 74.0065C297.069 73.8684 296.897 73.5117 296.897 72.9364V71.1413C296.897 70.9572 296.805 70.8652 296.621 70.8652H294.518C294.311 70.8652 294.207 70.9687 294.207 71.1758C294.161 72.7177 293.449 73.9144 292.069 74.7659C292.046 74.7889 292.035 74.8234 292.035 74.8695C292.035 74.8925 292.058 74.904 292.104 74.904H302.276C302.598 74.904 302.873 75.0191 303.103 75.2492C303.333 75.4793 303.448 75.7555 303.448 76.0777C303.448 76.9061 303.195 77.585 302.69 78.1143C302.069 78.7587 301.345 79.3456 300.517 79.8749C300.471 79.8979 300.448 79.9439 300.448 80.0129C300.448 80.059 300.471 80.0935 300.517 80.1165C301.184 80.2776 302.115 80.4617 303.31 80.6688C303.632 80.7149 303.873 80.8875 304.034 81.1866C304.218 81.4858 304.264 81.7965 304.172 82.1187C304.08 82.4869 303.873 82.7745 303.552 82.9817C303.23 83.1658 302.885 83.2233 302.517 83.1543C300.494 82.763 298.701 82.2913 297.138 81.7389C296.954 81.6699 296.77 81.6699 296.586 81.7389C294.954 82.3143 293.15 82.786 291.173 83.1543C290.805 83.2233 290.46 83.1658 290.139 82.9817C289.817 82.7745 289.61 82.4869 289.518 82.1187C289.426 81.7965 289.472 81.4858 289.656 81.1866C289.84 80.8875 290.093 80.7149 290.414 80.6688C291.61 80.4847 292.472 80.3236 293 80.1855C293.046 80.1625 293.069 80.128 293.069 80.082C293.092 80.036 293.081 80.0014 293.035 79.9784C292.805 79.8634 292.288 79.5642 291.483 79.0809C291.161 78.8738 291.001 78.5861 291.001 78.2179C291.024 77.8267 291.196 77.539 291.518 77.3549C291.541 77.3319 291.552 77.3089 291.552 77.2859C291.552 77.2398 291.529 77.2168 291.483 77.2168H290.552C290.23 77.2168 289.955 77.1133 289.725 76.9061C289.518 76.676 289.414 76.3999 289.414 76.0777C289.414 75.7555 289.518 75.4793 289.725 75.2492C289.955 75.0191 290.23 74.904 290.552 74.904H290.759C290.805 74.881 290.828 74.835 290.828 74.7659L290.139 74.2481C289.794 73.9489 289.633 73.5807 289.656 73.1435C289.702 72.6832 289.897 72.269 290.242 71.9008C290.633 71.4635 290.897 70.9687 291.035 70.4164C291.173 69.8641 291.414 69.4038 291.759 69.0356C292.127 68.6444 292.564 68.4488 293.069 68.4488H298.379C298.908 68.4488 299.368 68.6444 299.759 69.0356C300.149 69.4038 300.345 69.8526 300.345 70.3819V71.5556C300.345 71.7166 300.379 71.8202 300.448 71.8662C300.517 71.8892 300.747 71.9008 301.138 71.9008C301.391 71.9008 301.563 71.8777 301.655 71.8317C301.747 71.7627 301.816 71.6246 301.862 71.4175C301.954 71.0263 302.138 70.7041 302.414 70.4509C302.713 70.1978 303.057 70.0827 303.448 70.1057ZM293.828 77.2168C293.782 77.2168 293.748 77.2398 293.725 77.2859C293.725 77.3319 293.748 77.3664 293.794 77.3894C294.598 77.9187 295.506 78.3905 296.517 78.8047C296.655 78.8508 296.828 78.8393 297.035 78.7702C297.954 78.333 298.701 77.8842 299.276 77.4239C299.322 77.3779 299.333 77.3319 299.31 77.2859C299.287 77.2398 299.253 77.2168 299.207 77.2168H293.828ZM274.346 86.192C274.002 86.192 273.703 86.077 273.45 85.8468C273.22 85.5937 273.105 85.2945 273.105 84.9493C273.105 84.6041 273.22 84.3164 273.45 84.0863C273.703 83.8332 274.002 83.7066 274.346 83.7066H303.241C303.586 83.7066 303.873 83.8332 304.103 84.0863C304.356 84.3164 304.483 84.6041 304.483 84.9493C304.483 85.2945 304.356 85.5937 304.103 85.8468C303.873 86.077 303.586 86.192 303.241 86.192H294.104C293.897 86.192 293.794 86.2956 293.794 86.5027V86.8824C293.794 87.0665 293.897 87.1586 294.104 87.1586H300.724C301.253 87.1586 301.701 87.3542 302.069 87.7454C302.46 88.1366 302.655 88.5969 302.655 89.1262V98.205C302.655 98.7113 302.483 99.137 302.138 99.4822C301.793 99.8274 301.368 100 300.862 100H300.103C299.805 100 299.552 99.8964 299.345 99.6893C299.161 99.5052 299.069 99.2636 299.069 98.9644C299.069 98.8723 299.012 98.8263 298.897 98.8263H278.691C278.576 98.8263 278.519 98.8723 278.519 98.9644C278.519 99.2636 278.415 99.5052 278.208 99.6893C278.024 99.8964 277.783 100 277.484 100H276.726C276.22 100 275.795 99.8274 275.45 99.4822C275.105 99.137 274.933 98.7113 274.933 98.205V89.1262C274.933 88.5969 275.116 88.1366 275.484 87.7454C275.875 87.3542 276.335 87.1586 276.863 87.1586H283.07C283.254 87.1586 283.346 87.0665 283.346 86.8824V86.5027C283.346 86.2956 283.254 86.192 283.07 86.192H274.346ZM278.519 89.7821V90.9558C278.519 91.1399 278.61 91.2319 278.794 91.2319C281.231 90.9558 282.656 90.4725 283.07 89.7821C283.162 89.598 283.104 89.5059 282.898 89.5059H278.829C278.622 89.5059 278.519 89.598 278.519 89.7821ZM278.519 92.0259V93.096C278.519 93.2801 278.622 93.3722 278.829 93.3722H280.208C280.254 93.3722 280.289 93.3492 280.312 93.3031C280.335 93.2571 280.323 93.2226 280.277 93.1996L278.76 91.9223C278.599 91.8073 278.519 91.8418 278.519 92.0259ZM299.069 96.1683V95.8231C299.069 95.616 298.966 95.5124 298.759 95.5124H278.829C278.622 95.5124 278.519 95.616 278.519 95.8231V96.1683C278.519 96.3754 278.622 96.479 278.829 96.479H298.759C298.966 96.479 299.069 96.3754 299.069 96.1683ZM293.794 89.7821V90.1963C293.794 90.4035 293.885 90.53 294.069 90.5761C294.276 90.5991 294.966 90.6106 296.138 90.6106H298.759C298.966 90.6106 299.069 90.5185 299.069 90.3344V89.7821C299.069 89.598 298.966 89.5059 298.759 89.5059H294.104C293.897 89.5059 293.794 89.598 293.794 89.7821ZM286.897 86.5027V86.8824C286.897 87.0665 287.001 87.1586 287.208 87.1586H289.966C290.173 87.1586 290.276 87.0665 290.276 86.8824V86.5027C290.276 86.2956 290.173 86.192 289.966 86.192H287.208C287.001 86.192 286.897 86.2956 286.897 86.5027ZM286.69 89.8166C286.53 90.6221 286.07 91.301 285.311 91.8533C284.553 92.4056 283.346 92.8889 281.691 93.3031C281.691 93.3261 281.702 93.3492 281.725 93.3722H298.759C298.966 93.3722 299.069 93.2801 299.069 93.096V92.8889C299.069 92.7048 298.966 92.6127 298.759 92.6127H294.069C292.483 92.6127 291.449 92.4862 290.966 92.233C290.506 91.9799 290.276 91.4621 290.276 90.6796V89.7821C290.276 89.598 290.173 89.5059 289.966 89.5059H287.035C286.851 89.5059 286.736 89.6095 286.69 89.8166Z" fill="#34424F"/>
<path d="M311.379 98.8954C311.057 99.2406 310.655 99.4132 310.172 99.4132C309.689 99.4132 309.275 99.2406 308.931 98.8954C308.609 98.5732 308.448 98.1704 308.448 97.6872V71.3484C308.448 70.8191 308.643 70.3589 309.034 69.9676C309.425 69.5764 309.884 69.3808 310.413 69.3808H318.068C318.459 69.3808 318.792 69.5189 319.068 69.795C319.344 70.0712 319.482 70.4049 319.482 70.7961C319.482 71.0723 319.459 71.4635 319.413 71.9698C319.413 72.0849 319.459 72.0964 319.551 72.0043C319.918 71.6361 320.378 71.452 320.93 71.452H325.826C326.033 71.452 326.136 71.3484 326.136 71.1413V69.8986C326.136 69.3923 326.32 68.9551 326.688 68.5868C327.079 68.1956 327.527 68 328.033 68C328.539 68 328.975 68.1956 329.343 68.5868C329.734 68.9551 329.929 69.3923 329.929 69.8986V71.1413C329.929 71.3484 330.021 71.452 330.205 71.452H336.412C336.94 71.452 337.4 71.6476 337.791 72.0388C338.182 72.4301 338.377 72.8903 338.377 73.4196V76.8716C338.377 77.3779 338.193 77.8152 337.825 78.1834C337.481 78.5286 337.055 78.7012 336.55 78.7012C336.435 78.7012 336.262 78.6782 336.032 78.6321C335.848 78.5861 335.757 78.6437 335.757 78.8047C335.711 79.196 335.55 79.5297 335.274 79.8058C334.998 80.059 334.665 80.1855 334.274 80.1855H322.964C322.573 80.1855 322.24 80.059 321.964 79.8058C321.688 79.5297 321.527 79.196 321.481 78.8047C321.481 78.6437 321.39 78.5861 321.206 78.6321C321.022 78.6782 320.861 78.7012 320.723 78.7012C320.24 78.7012 319.826 78.5286 319.482 78.1834C319.137 77.8382 318.964 77.4239 318.964 76.9407V73.972C318.941 73.9489 318.907 73.9489 318.861 73.972C317.941 76.3653 316.976 78.4826 315.965 80.3236C315.85 80.5077 315.861 80.6803 315.999 80.8414C317.746 83.1658 318.62 85.5822 318.62 88.0906C318.62 89.6555 318.286 90.8407 317.62 91.6462C316.976 92.4286 315.965 92.8774 314.585 92.9924C314.149 93.0155 313.758 92.8889 313.413 92.6127C313.091 92.3366 312.884 91.9799 312.792 91.5426C312.723 91.1744 312.804 90.8522 313.034 90.5761C313.287 90.2769 313.608 90.0928 313.999 90.0237C314.505 89.9087 314.85 89.667 315.034 89.2988C315.24 88.9076 315.344 88.2517 315.344 87.3312C315.344 85.6512 314.735 83.9827 313.516 82.3258C312.735 81.2672 312.643 80.1855 313.241 79.0809C314.367 76.9867 315.321 74.7889 316.102 72.4876C316.148 72.3265 316.08 72.246 315.896 72.246H312.206C311.999 72.246 311.896 72.338 311.896 72.5221V97.6872C311.896 98.1704 311.723 98.5732 311.379 98.8954ZM322.516 74.7659V76.9407C322.516 77.1248 322.608 77.1938 322.792 77.1478H322.964H334.274H334.446C334.653 77.1938 334.757 77.1363 334.757 76.9752V76.8716V74.7659C334.757 74.5588 334.653 74.4552 334.446 74.4552H322.792C322.608 74.4552 322.516 74.5588 322.516 74.7659ZM337.412 90.3689C337.871 90.415 338.251 90.6106 338.549 90.9558C338.871 91.301 339.021 91.7037 338.998 92.164C338.952 93.0615 338.906 93.7979 338.86 94.3732C338.837 94.9486 338.768 95.5009 338.653 96.0302C338.561 96.5595 338.469 96.9622 338.377 97.2384C338.308 97.5376 338.147 97.8137 337.894 98.0669C337.664 98.32 337.458 98.4926 337.274 98.5847C337.113 98.6767 336.802 98.7573 336.343 98.8263C335.906 98.8954 335.515 98.9299 335.17 98.9299C334.826 98.9529 334.308 98.9644 333.619 98.9644C332.033 98.9644 330.906 98.8839 330.24 98.7228C329.573 98.5847 329.125 98.3315 328.895 97.9633C328.665 97.5951 328.55 96.9622 328.55 96.0647V86.7789C328.55 86.5717 328.447 86.4682 328.24 86.4682H327.033C326.826 86.4682 326.723 86.5602 326.723 86.7443C326.608 89.7821 325.952 92.2215 324.757 94.0626C323.562 95.9036 321.596 97.457 318.861 98.7228C318.401 98.9299 317.93 98.9644 317.447 98.8263C316.988 98.6882 316.62 98.4121 316.344 97.9978C316.114 97.6296 316.057 97.2384 316.171 96.8242C316.309 96.4099 316.574 96.1108 316.965 95.9266C319.148 94.9371 320.711 93.7634 321.654 92.4056C322.596 91.0248 323.125 89.1492 323.24 86.7789C323.24 86.5717 323.148 86.4682 322.964 86.4682H320.516C320.079 86.4682 319.711 86.3186 319.413 86.0194C319.114 85.7202 318.964 85.352 318.964 84.9148C318.964 84.4775 319.114 84.1093 319.413 83.8101C319.711 83.511 320.079 83.3614 320.516 83.3614H336.791C337.228 83.3614 337.595 83.511 337.894 83.8101C338.216 84.1093 338.377 84.4775 338.377 84.9148C338.377 85.352 338.216 85.7202 337.894 86.0194C337.595 86.3186 337.228 86.4682 336.791 86.4682H332.446C332.262 86.4682 332.171 86.5717 332.171 86.7789V94.753C332.171 95.3053 332.239 95.6275 332.377 95.7195C332.515 95.8116 332.987 95.8576 333.791 95.8576C334.274 95.8576 334.607 95.8461 334.791 95.8231C334.975 95.7771 335.147 95.616 335.308 95.3398C335.492 95.0636 335.596 94.6839 335.619 94.2006C335.665 93.7174 335.699 92.9349 335.722 91.8533C335.745 91.393 335.917 91.0248 336.239 90.7487C336.584 90.4495 336.975 90.3229 337.412 90.3689Z" fill="#34424F"/>
</svg>
