<svg width="206" height="169" viewBox="0 0 206 169" fill="none" xmlns="http://www.w3.org/2000/svg">
<rect x="51.5156" y="165.527" width="44.2354" height="19.9773" rx="9.98863" transform="rotate(-90 51.5156 165.527)" fill="#6289A6"/>
<rect x="88.6172" y="165.527" width="44.2354" height="19.9773" rx="9.98863" transform="rotate(-90 88.6172 165.527)" fill="#6289A6"/>
<rect x="41.5273" y="168.381" width="47.0893" height="19.9773" rx="9.98863" transform="rotate(-90 41.5273 168.381)" fill="#8CB5C6"/>
<rect x="78.6289" y="168.381" width="47.0893" height="19.9773" rx="9.98863" transform="rotate(-90 78.6289 168.381)" fill="#8CB5C6"/>
<path d="M88.8073 0C114.357 0 194.805 107.695 183.058 123.029C171.311 138.364 32.5015 141.056 18.6952 123.029C4.88877 105.003 63.2571 0 88.8073 0Z" fill="#8CB5C6"/>
<path d="M183.311 121.324C190.873 105.384 204.096 72.6008 196.487 68.9909C188.878 65.381 171.563 96.2225 163.856 112.094" stroke="black" stroke-width="5" stroke-linecap="round"/>
<path d="M163.859 112.094C167.056 105.357 171.546 90.9799 163.937 87.37C156.328 83.7601 147.745 96.1952 144.405 102.864" stroke="black" stroke-width="5" stroke-linecap="round"/>
<path d="M101.137 73.9355C98.0073 70.6946 90.7447 65.182 86.7299 69.0587C82.7152 72.9354 87.8183 80.5332 90.8717 83.8475" stroke="black" stroke-width="5" stroke-linecap="round"/>
<path d="M155.768 76.123C158.076 72.2544 161.709 63.9293 157.769 61.5781C153.829 59.2268 148.078 66.2872 145.694 70.1113" stroke="black" stroke-width="5" stroke-linecap="round"/>
<ellipse cx="120.724" cy="89.1838" rx="3.56737" ry="4.99432" fill="black"/>
<ellipse cx="133.565" cy="89.1838" rx="3.56737" ry="4.99432" fill="black"/>
<path d="M137.133 122.718C128 129.5 121.436 122.718 121.436 122.718" stroke="black" stroke-width="5" stroke-linecap="round"/>
<path d="M24.4043 115.25L3.00009 136.654" stroke="black" stroke-width="5" stroke-linecap="round"/>
</svg>
