<svg width="262" height="282" viewBox="0 0 262 282" fill="none" xmlns="http://www.w3.org/2000/svg">
<rect width="56.4388" height="25.4885" rx="12.7442" transform="matrix(-2.80556e-07 -1 -1 6.13751e-08 197.1 278.191)" fill="#6289A6"/>
<rect width="56.4388" height="25.4885" rx="12.7442" transform="matrix(-2.80556e-07 -1 -1 6.13751e-08 149.764 278.191)" fill="#6289A6"/>
<rect width="60.08" height="25.4885" rx="12.7442" transform="matrix(-2.66242e-07 -1 -1 6.45885e-08 209.844 281.832)" fill="#8CB5C6"/>
<rect width="60.08" height="25.4885" rx="12.7442" transform="matrix(-2.66242e-07 -1 -1 6.45885e-08 162.506 281.832)" fill="#8CB5C6"/>
<path d="M149.52 67C116.921 67 14.2802 204.406 29.2681 223.97C44.256 243.535 221.359 246.97 238.974 223.97C256.589 200.971 182.119 67 149.52 67Z" fill="#8CB5C6"/>
<path d="M28.9473 221.795C19.2984 201.457 2.42767 159.63 12.1357 155.024C21.8437 150.418 43.9361 189.768 53.7689 210.019" stroke="black" stroke-width="5" stroke-linecap="round"/>
<path d="M53.7637 210.018C49.6856 201.422 43.9565 183.079 53.6645 178.473C63.3725 173.867 74.3233 189.733 78.5853 198.242" stroke="black" stroke-width="5" stroke-linecap="round"/>
<path d="M133.789 161.332C137.782 157.197 147.048 150.164 152.17 155.11C157.293 160.056 150.782 169.75 146.886 173.978" stroke="black" stroke-width="5" stroke-linecap="round"/>
<path d="M64.0879 164.123C61.1422 159.187 56.5073 148.565 61.534 145.565C66.5606 142.566 73.8992 151.574 76.9401 156.453" stroke="black" stroke-width="5" stroke-linecap="round"/>
<ellipse cx="4.55151" cy="6.37212" rx="4.55151" ry="6.37212" transform="matrix(-1 0 0 1 113.35 174.416)" fill="black"/>
<ellipse cx="4.55151" cy="6.37212" rx="4.55151" ry="6.37212" transform="matrix(-1 0 0 1 96.9648 174.416)" fill="black"/>
<path d="M87.8633 223.572C99.5156 232.225 107.89 223.572 107.89 223.572" stroke="black" stroke-width="5" stroke-linecap="round"/>
<path d="M231.691 214.045L259 241.354" stroke="black" stroke-width="5" stroke-linecap="round"/>
<ellipse cx="153.094" cy="32.9283" rx="26.2642" ry="32.9283" fill="#EFF794"/>
<ellipse cx="153.094" cy="32.9283" rx="26.2642" ry="32.9283" fill="#EFF794"/>
<path d="M135.695 23.002C129.841 22.3615 118.062 21.7357 117.775 24.3559C117.488 26.9761 129.114 29.0112 134.962 29.7013" stroke="black" stroke-width="5" stroke-linecap="round"/>
<path d="M134.932 29.9766C129.078 29.3361 117.298 28.7103 117.011 31.3305C116.725 33.9507 128.35 35.9859 134.199 36.6759" stroke="black" stroke-width="5" stroke-linecap="round"/>
<path d="M145.158 60.7617L146.887 79.7767" stroke="black" stroke-width="5" stroke-linecap="round"/>
<path d="M158.125 60.8398L159.854 79.8549" stroke="black" stroke-width="5" stroke-linecap="round"/>
<path d="M161.326 45.8406C164.249 50.9137 171.497 60.5525 177.109 58.5233C182.72 56.4941 176.524 45.8406 172.725 40.7676" stroke="black" stroke-width="5" stroke-linecap="round"/>
<ellipse cx="141.514" cy="15.8466" rx="1.96002" ry="2.74402" transform="rotate(23.9716 141.514 15.8466)" fill="black"/>
<ellipse cx="149.633" cy="16.8837" rx="1.96002" ry="2.74402" transform="rotate(23.9716 149.633 16.8837)" fill="black"/>
</svg>
