<svg width="174" height="130" viewBox="0 0 174 130" fill="none" xmlns="http://www.w3.org/2000/svg">
<rect width="51.4283" height="21.4284" rx="10.7142" transform="matrix(-2.38035e-07 -1 -1 7.23387e-08 139.785 126.43)" fill="#7D5951"/>
<rect width="51.4283" height="21.4284" rx="10.7142" transform="matrix(-2.87875e-07 -1 -1 5.98148e-08 71.4277 126.43)" fill="#7D5951"/>
<rect width="54.6426" height="21.4284" rx="10.7142" transform="matrix(-3.195e-07 -1 -1 5.38222e-08 150.498 129.645)" fill="#9C6D58"/>
<rect width="54.6426" height="21.4284" rx="10.7142" transform="matrix(-2.91999e-07 -1 -1 5.88912e-08 82.1426 129.645)" fill="#9C6D58"/>
<rect x="11.9961" y="11.1953" width="149.599" height="88.97" rx="30" transform="rotate(-0.0744137 11.9961 11.1953)" fill="#DBDCDE"/>
<rect x="12" y="11.1953" width="149.599" height="88.97" rx="30" transform="rotate(-0.0744137 12 11.1953)" fill="#DBDCDE"/>
<rect x="37" y="0.0332031" width="25.1938" height="22.9045" rx="11.4523" transform="rotate(-0.0744137 37 0.0332031)" fill="#DBDCDE"/>
<rect x="62" y="0.0332031" width="25.1938" height="22.9045" rx="11.4523" transform="rotate(-0.0744137 62 0.0332031)" fill="#DBDCDE"/>
<rect x="87" y="0.0332031" width="25.1938" height="22.9045" rx="11.4523" transform="rotate(-0.0744137 87 0.0332031)" fill="#DBDCDE"/>
<rect x="112" y="0.0332031" width="25.1938" height="22.9045" rx="11.4523" transform="rotate(-0.0744137 112 0.0332031)" fill="#DBDCDE"/>
<rect x="173.9" y="30" width="25.1938" height="22.9045" rx="11.4523" transform="rotate(89.9256 173.9 30)" fill="#DBDCDE"/>
<rect x="173.9" y="55" width="25.1938" height="22.9045" rx="11.4523" transform="rotate(89.9256 173.9 55)" fill="#DBDCDE"/>
<rect x="22.9043" y="30" width="25.1938" height="22.9045" rx="11.4523" transform="rotate(89.9256 22.9043 30)" fill="#DBDCDE"/>
<rect x="22.9043" y="55" width="25.1938" height="22.9045" rx="11.4523" transform="rotate(89.9256 22.9043 55)" fill="#DBDCDE"/>
<rect x="37" y="89.0332" width="25.1938" height="22.9045" rx="11.4523" transform="rotate(-0.0744137 37 89.0332)" fill="#DBDCDE"/>
<rect x="62" y="89.0332" width="25.1938" height="22.9045" rx="11.4523" transform="rotate(-0.0744137 62 89.0332)" fill="#DBDCDE"/>
<rect x="87" y="89.0332" width="25.1938" height="22.9045" rx="11.4523" transform="rotate(-0.0744137 87 89.0332)" fill="#DBDCDE"/>
<rect x="112" y="89.0332" width="25.1938" height="22.9045" rx="11.4523" transform="rotate(-0.0744137 112 89.0332)" fill="#DBDCDE"/>
<rect x="11.0547" y="18.0742" width="56.9206" height="62.0313" rx="28.4603" transform="rotate(-0.0744137 11.0547 18.0742)" fill="#A06A5F"/>
<ellipse cx="2.67856" cy="3.74998" rx="2.67856" ry="3.74998" transform="matrix(-1 0 0 1 40.2891 38.7129)" fill="black"/>
<ellipse cx="2.67856" cy="3.74998" rx="2.67856" ry="3.74998" transform="matrix(-1 0 0 1 29.5742 38.7129)" fill="black"/>
<path d="M38.7852 62C38.7852 64.1428 37.6328 68.4285 33.0233 68.4285C28.4138 68.4285 27.0868 64.1428 26.9995 62" stroke="black" stroke-width="5" stroke-linecap="round"/>
<path d="M62.2129 54.6719C66.4248 54.3774 74.761 52.5366 74.4109 47.5294C74.0608 42.5221 65.5363 41.6696 61.3178 41.8693" stroke="black" stroke-width="5" stroke-linecap="round"/>
<path d="M150 23.3652C152.642 21.577 158.536 18.9036 160.982 22.5162C163.427 26.1288 158.848 30.7454 156.253 32.602" stroke="black" stroke-width="5" stroke-linecap="round"/>
<rect x="8" y="10.0332" width="25.1938" height="22.9045" rx="11.4523" transform="rotate(-0.0744137 8 10.0332)" fill="#C8C8C8"/>
<rect x="26" y="10.0332" width="25.1938" height="22.9045" rx="11.4523" transform="rotate(-0.0744137 26 10.0332)" fill="#C8C8C8"/>
<rect x="44" y="10.0332" width="25.1938" height="22.9045" rx="11.4523" transform="rotate(-0.0744137 44 10.0332)" fill="#C8C8C8"/>
<path d="M28.4375 59.2046C31.6003 59.3671 34.2829 54.4687 32.7143 51.395C32.1837 50.3552 25.796 49.7445 24.9837 50.9978C23.1068 53.8937 25.2747 59.0421 28.4375 59.2046Z" fill="black"/>
</svg>
