<svg width="174" height="197" viewBox="0 0 174 197" fill="none" xmlns="http://www.w3.org/2000/svg">
<rect width="51.4283" height="21.4284" rx="10.7142" transform="matrix(-2.38035e-07 -1 -1 7.23387e-08 139.785 193.43)" fill="#7D5951"/>
<rect width="51.4283" height="21.4284" rx="10.7142" transform="matrix(-2.87875e-07 -1 -1 5.98148e-08 71.4277 193.43)" fill="#7D5951"/>
<rect width="54.6426" height="21.4284" rx="10.7142" transform="matrix(-3.195e-07 -1 -1 5.38222e-08 150.498 196.645)" fill="#9C6D58"/>
<rect width="54.6426" height="21.4284" rx="10.7142" transform="matrix(-2.91999e-07 -1 -1 5.88912e-08 82.1426 196.645)" fill="#9C6D58"/>
<rect x="11.9961" y="78.1953" width="149.599" height="88.97" rx="30" transform="rotate(-0.0744137 11.9961 78.1953)" fill="#DBDCDE"/>
<rect x="12" y="78.1953" width="149.599" height="88.97" rx="30" transform="rotate(-0.0744137 12 78.1953)" fill="#DBDCDE"/>
<rect x="37" y="67.0332" width="25.1938" height="22.9045" rx="11.4523" transform="rotate(-0.0744137 37 67.0332)" fill="#DBDCDE"/>
<rect x="62" y="67.0332" width="25.1938" height="22.9045" rx="11.4523" transform="rotate(-0.0744137 62 67.0332)" fill="#DBDCDE"/>
<rect x="87" y="67.0332" width="25.1938" height="22.9045" rx="11.4523" transform="rotate(-0.0744137 87 67.0332)" fill="#DBDCDE"/>
<rect x="112" y="67.0332" width="25.1938" height="22.9045" rx="11.4523" transform="rotate(-0.0744137 112 67.0332)" fill="#DBDCDE"/>
<rect x="173.9" y="97" width="25.1938" height="22.9045" rx="11.4523" transform="rotate(89.9256 173.9 97)" fill="#DBDCDE"/>
<rect x="173.9" y="122" width="25.1938" height="22.9045" rx="11.4523" transform="rotate(89.9256 173.9 122)" fill="#DBDCDE"/>
<rect x="22.9043" y="97" width="25.1938" height="22.9045" rx="11.4523" transform="rotate(89.9256 22.9043 97)" fill="#DBDCDE"/>
<rect x="22.9043" y="122" width="25.1938" height="22.9045" rx="11.4523" transform="rotate(89.9256 22.9043 122)" fill="#DBDCDE"/>
<rect x="37" y="156.033" width="25.1938" height="22.9045" rx="11.4523" transform="rotate(-0.0744137 37 156.033)" fill="#DBDCDE"/>
<rect x="62" y="156.033" width="25.1938" height="22.9045" rx="11.4523" transform="rotate(-0.0744137 62 156.033)" fill="#DBDCDE"/>
<rect x="87" y="156.033" width="25.1938" height="22.9045" rx="11.4523" transform="rotate(-0.0744137 87 156.033)" fill="#DBDCDE"/>
<rect x="112" y="156.033" width="25.1938" height="22.9045" rx="11.4523" transform="rotate(-0.0744137 112 156.033)" fill="#DBDCDE"/>
<rect x="11.0547" y="85.0742" width="56.9206" height="62.0313" rx="28.4603" transform="rotate(-0.0744137 11.0547 85.0742)" fill="#A06A5F"/>
<ellipse cx="2.67856" cy="3.74998" rx="2.67856" ry="3.74998" transform="matrix(-1 0 0 1 40.2891 105.713)" fill="black"/>
<ellipse cx="2.67856" cy="3.74998" rx="2.67856" ry="3.74998" transform="matrix(-1 0 0 1 29.5742 105.713)" fill="black"/>
<path d="M38.7852 129C38.7852 131.143 37.6328 135.429 33.0233 135.429C28.4138 135.429 27.0868 131.143 26.9995 129" stroke="black" stroke-width="5" stroke-linecap="round"/>
<path d="M62.2129 121.672C66.4248 121.377 74.761 119.537 74.4109 114.529C74.0608 109.522 65.5363 108.67 61.3178 108.869" stroke="black" stroke-width="5" stroke-linecap="round"/>
<path d="M150 90.3652C152.642 88.577 158.536 85.9036 160.982 89.5162C163.427 93.1288 158.848 97.7454 156.253 99.602" stroke="black" stroke-width="5" stroke-linecap="round"/>
<rect x="8" y="77.0332" width="25.1938" height="22.9045" rx="11.4523" transform="rotate(-0.0744137 8 77.0332)" fill="#C8C8C8"/>
<rect x="26" y="77.0332" width="25.1938" height="22.9045" rx="11.4523" transform="rotate(-0.0744137 26 77.0332)" fill="#C8C8C8"/>
<rect x="44" y="77.0332" width="25.1938" height="22.9045" rx="11.4523" transform="rotate(-0.0744137 44 77.0332)" fill="#C8C8C8"/>
<path d="M28.4375 126.205C31.6003 126.367 34.2829 121.469 32.7143 118.395C32.1837 117.355 25.796 116.744 24.9837 117.998C23.1068 120.894 25.2747 126.042 28.4375 126.205Z" fill="black"/>
<rect width="19.4576" height="9.72881" rx="4.8644" transform="matrix(-3.08612e-07 -1 -1 5.57956e-08 134.082 82.6094)" fill="#A58B90"/>
<rect width="19.4576" height="9.72881" rx="4.8644" transform="matrix(-3.08612e-07 -1 -1 5.57956e-08 86.8281 82.6094)" fill="#A58B90"/>
<rect width="20.8475" height="9.72881" rx="4.8644" transform="matrix(-1.65773e-07 -1 -1 1.03733e-07 138.945 84)" fill="#B5ACAC"/>
<rect width="20.8475" height="9.72881" rx="4.8644" transform="matrix(-1.65773e-07 -1 -1 1.03733e-07 91.6914 84)" fill="#B5ACAC"/>
<rect width="72.9661" height="45.8644" rx="22.9322" transform="matrix(1 -8.74228e-08 -8.74228e-08 -1 70.1504 77.0508)" fill="#DBDCDE"/>
<rect width="83" height="33" rx="16.5" transform="matrix(1 -8.74228e-08 -8.74228e-08 -1 56 77)" fill="#DBDCDE"/>
<path d="M134.854 38.3398C137.495 36.5516 143.39 33.8782 145.835 37.4908C148.281 41.1035 143.702 45.72 141.106 47.5767" stroke="black" stroke-width="5" stroke-linecap="round"/>
<path d="M75.5584 46.2554C83.1373 33.2454 95.5856 5.46075 100.937 8.76469C106.289 12.0686 88.5014 36.3703 80.9626 49.4035" stroke="black" stroke-width="5" stroke-linecap="round"/>
<path d="M68.8549 45.2043C73.5205 30.8888 79.8307 1.10415 85.7586 3.20547C91.6866 5.30678 79.4228 32.8125 74.8014 47.1422" stroke="black" stroke-width="5" stroke-linecap="round"/>
<ellipse cx="1.73729" cy="2.4322" rx="1.73729" ry="2.4322" transform="matrix(-1 0 0 1 73.625 55.5078)" fill="black"/>
<ellipse cx="1.73729" cy="2.4322" rx="1.73729" ry="2.4322" transform="matrix(-1 0 0 1 66.6758 53.4238)" fill="black"/>
<path d="M73.625 68.7109C73.625 70.1008 72.8776 72.8804 69.8879 72.8804C66.8982 72.8804 66.0376 70.1008 65.9809 68.7109" stroke="black" stroke-width="5" stroke-linecap="round"/>
<path d="M60.9693 67.1626C62.8462 67.2591 64.4381 64.3522 63.5073 62.5282C63.1924 61.9112 59.4017 61.5487 58.9197 62.2925C57.8059 64.011 59.0924 67.0662 60.9693 67.1626Z" fill="black"/>
<rect width="21" height="24" rx="10.5" transform="matrix(-1.65773e-07 -1 -1 1.03733e-07 134 69)" fill="#B5ACAC"/>
<rect width="11" height="12" rx="5.5" transform="matrix(-1.65773e-07 -1 -1 1.03733e-07 109 52)" fill="#B5ACAC"/>
</svg>
