<svg width="670" height="327" viewBox="0 0 670 327" fill="none" xmlns="http://www.w3.org/2000/svg">
<rect width="669.26" height="327" rx="30" fill="#34424F"/>
<path fill-rule="evenodd" clip-rule="evenodd" d="M160.807 65.791C154.125 64.8233 148.49 65.546 143.475 68.4573C138.095 71.58 133.923 76.9491 129.868 84.0083C122.786 96.3345 118.204 116.182 115.63 135.688C113.042 155.294 112.41 175.162 113.532 187.852C113.7 189.751 115.377 191.154 117.277 190.986C119.177 190.819 120.582 189.143 120.414 187.244C119.348 175.197 119.937 155.858 122.479 136.59C125.035 117.222 129.493 98.527 135.859 87.4453C139.741 80.6889 143.169 76.619 146.945 74.4264C150.579 72.317 155.017 71.6773 161.584 72.9193C166.232 73.7986 170.335 76.8903 172.41 83.3291C172.995 85.1437 174.941 86.1409 176.757 85.5565C178.573 84.972 179.571 83.0273 178.986 81.2128C176.916 74.7904 173.089 70.3914 168.31 67.9718C170.276 66.1483 172.72 64.2946 175.374 62.8146C179.954 60.2599 184.371 59.2447 187.75 60.3499C193.338 62.1773 196.42 65.462 198.202 69.2462C198.42 69.7098 198.62 70.1832 198.802 70.665C198.819 70.7129 198.837 70.7604 198.856 70.8077C200.176 74.3722 200.57 78.388 200.57 82.271C200.57 84.1773 202.117 85.7227 204.024 85.7227C205.932 85.7227 207.479 84.1773 207.479 82.271C207.479 78.7978 207.202 74.8333 206.139 70.9294C207.339 70.2101 208.612 69.6448 209.951 69.4286C211.83 69.1255 214.26 69.4407 217.279 72.1122C220.428 74.8972 222.045 78.8502 222.715 82.8417C223.314 86.4129 223.102 89.7288 222.739 91.6304C222.382 93.503 223.612 95.3103 225.486 95.667C227.36 96.0237 229.169 94.7948 229.526 92.9221C229.796 91.5069 229.989 89.6744 230 87.6047C231.814 88.6236 233.705 89.9936 235.367 91.7447C238.544 95.0935 240.902 99.8385 240.309 106.466C239.003 121.086 231.652 133.291 228.298 137.375C227.792 137.992 227.514 138.766 227.514 139.565V184.092C227.514 185.998 229.061 187.543 230.969 187.543C232.877 187.543 234.423 185.998 234.423 184.092V140.757C238.623 135.197 245.823 122.386 247.191 107.08C247.98 98.2446 244.75 91.6006 240.381 86.9952C236.849 83.2726 232.589 80.8855 229.104 79.6032C228.061 75.2223 225.928 70.5429 221.859 66.9435C217.417 63.014 212.937 61.9539 208.85 62.6135C206.838 62.9381 205.038 63.6634 203.503 64.487C200.835 59.8589 196.533 55.9584 189.9 53.789C183.779 51.7872 177.199 53.8906 172.006 56.7866C167.542 59.2763 163.524 62.6674 160.807 65.791Z" fill="white"/>
<path d="M212.514 95.4346C205.027 95.4346 203.892 105.939 204.195 113.811C204.474 121.072 209.186 130.453 212.514 130.453C215.842 130.453 217.83 123.288 218.407 119.705C219.563 111.615 220.002 95.4346 212.514 95.4346Z" fill="white"/>
<path d="M230.54 113.811C225.548 113.811 226.357 127.91 227.512 135.654C227.512 135.654 235.139 127.739 235.139 121.438C235.139 119.705 235.532 113.811 230.54 113.811Z" fill="white"/>
<path fill-rule="evenodd" clip-rule="evenodd" d="M208.255 102.643C207.229 105.753 207.006 109.917 207.153 113.72C207.274 116.85 208.386 120.592 209.877 123.546C210.619 125.017 211.393 126.165 212.075 126.9C212.367 127.215 212.581 127.39 212.716 127.485C212.765 127.443 212.824 127.386 212.893 127.31C213.27 126.9 213.704 126.203 214.138 125.224C214.994 123.294 215.582 120.888 215.849 119.256C216.405 115.38 216.77 109.654 216.137 104.996C215.817 102.637 215.273 100.815 214.568 99.6586C213.927 98.6069 213.342 98.3533 212.699 98.3533C211.553 98.3533 210.764 98.7231 210.119 99.3372C209.408 100.014 208.764 101.101 208.255 102.643ZM212.552 127.603C212.552 127.602 212.557 127.6 212.568 127.596C212.557 127.602 212.552 127.603 212.552 127.603ZM206.281 95.3672C207.944 93.7843 210.103 92.8521 212.699 92.8521C215.799 92.8521 217.966 94.604 219.312 96.8115C220.593 98.914 221.271 101.605 221.632 104.26C222.36 109.62 221.931 115.913 221.334 120.059C221.333 120.07 221.331 120.08 221.33 120.09C221.329 120.096 221.328 120.102 221.327 120.108C221.014 122.03 220.322 124.938 219.213 127.44C218.662 128.682 217.939 129.983 216.99 131.016C216.043 132.047 214.608 133.08 212.699 133.08C210.646 133.08 209.027 131.737 207.996 130.626C206.851 129.392 205.805 127.764 204.92 126.009C203.154 122.511 201.771 118.002 201.613 113.931C201.458 109.927 201.65 104.98 202.986 100.931C203.659 98.8927 204.683 96.8876 206.281 95.3672ZM227.691 135.486L229.688 137.395C228.955 138.15 227.853 138.425 226.847 138.106C225.841 137.787 225.106 136.929 224.95 135.892C224.358 131.956 223.84 126.33 224.134 121.607C224.278 119.279 224.633 116.923 225.423 115.062C226.203 113.226 227.81 111.075 230.718 111.075C232.555 111.075 234.136 111.631 235.363 112.692C236.539 113.709 237.177 115.005 237.535 116.146C238.142 118.083 238.106 120.21 238.09 121.113C238.088 121.225 238.087 121.318 238.087 121.39C238.087 125.423 235.72 129.557 233.785 132.342C232.766 133.81 231.752 135.061 230.994 135.945C230.614 136.388 230.295 136.743 230.067 136.99C229.954 137.114 229.863 137.211 229.798 137.279C229.766 137.313 229.74 137.34 229.722 137.36L229.699 137.383L229.692 137.391L229.688 137.394C229.688 137.395 229.688 137.395 227.691 135.486ZM229.667 121.946C229.541 123.975 229.585 126.244 229.728 128.469C231.352 125.987 232.543 123.4 232.543 121.39C232.543 121.252 232.544 121.109 232.545 120.962C232.553 119.971 232.562 118.804 232.241 117.78C232.073 117.244 231.874 116.972 231.72 116.839C231.625 116.757 231.413 116.603 230.867 116.579C230.794 116.671 230.678 116.854 230.532 117.199C230.107 118.199 229.8 119.818 229.667 121.946ZM230.957 116.499C230.958 116.504 230.939 116.524 230.899 116.542C230.936 116.503 230.956 116.494 230.957 116.499Z" fill="white"/>
<path d="M158.992 104.941C156.918 108.408 157.978 116.125 155.19 121.579C148.279 135.097 158.3 142.032 165.212 140.645C172.125 139.259 174.544 119.155 170.051 108.063C165.558 96.9708 161.066 101.475 158.992 104.941Z" fill="white"/>
<path d="M197.01 112.567C195.904 127.264 188.255 127.934 184.568 126.432C177.31 122.273 180.766 110.834 184.568 96.2754C188.37 81.7171 198.393 94.1956 197.01 112.567Z" fill="white"/>
<path fill-rule="evenodd" clip-rule="evenodd" d="M195.096 90.1964C198.484 94.5326 200.675 103.027 199.954 112.599C199.371 120.341 197.01 125.145 193.56 127.64C190.098 130.143 186.212 129.835 183.712 128.817C183.598 128.771 183.487 128.717 183.381 128.656C178.296 125.744 177.391 120.348 177.849 114.846C178.258 109.92 179.829 103.951 181.491 97.6356C181.686 96.8961 181.882 96.1519 182.077 95.4041C182.597 93.4154 183.261 91.7323 184.093 90.4027C184.919 89.0819 186.016 87.9455 187.457 87.3605C190.689 86.0479 193.461 88.1032 195.096 90.1964ZM188.779 93.3472C188.34 94.049 187.859 95.1593 187.428 96.8086C187.236 97.5435 187.046 98.2663 186.859 98.9771C185.161 105.439 183.727 110.899 183.36 115.306C182.964 120.075 183.9 122.474 185.961 123.746C187.144 124.172 188.835 124.22 190.325 123.144C191.898 122.006 193.916 119.13 194.439 112.182C195.101 103.391 192.971 96.4674 190.742 93.6143C190.207 92.9301 189.791 92.6417 189.576 92.5429C189.545 92.5289 189.521 92.5199 189.504 92.5141C189.416 92.5652 189.148 92.7571 188.779 93.3472ZM189.467 92.5046C189.467 92.5046 189.468 92.5047 189.469 92.5049ZM163.036 104.257C162.505 104.756 161.987 105.455 161.544 106.194C161.285 106.628 161.034 107.365 160.817 108.56C160.63 109.587 160.501 110.736 160.354 112.06C160.332 112.253 160.31 112.449 160.288 112.65C159.951 115.634 159.489 119.422 157.831 122.663C154.735 128.717 155.694 132.625 157.386 134.819C159.237 137.219 162.405 138.229 164.852 137.739C165.316 137.646 166.229 137.091 167.228 135.098C168.175 133.208 168.924 130.541 169.352 127.431C170.215 121.173 169.684 113.898 167.672 108.932C166.614 106.323 165.662 104.911 164.951 104.201C164.61 103.861 164.368 103.727 164.243 103.674C164.132 103.628 164.075 103.629 164.04 103.632C163.931 103.642 163.59 103.736 163.036 104.257ZM168.852 100.272C170.311 101.728 171.606 103.91 172.796 106.845C175.276 112.966 175.783 121.282 174.831 128.19C174.352 131.662 173.48 134.973 172.17 137.587C170.912 140.097 168.929 142.575 165.937 143.175C161.47 144.07 156.171 142.307 153.01 138.21C149.691 133.906 149.095 127.592 152.91 120.134C154.04 117.924 154.443 115.129 154.792 112.027C154.813 111.839 154.834 111.649 154.856 111.458C155 110.158 155.151 108.797 155.376 107.564C155.63 106.167 156.024 104.641 156.802 103.342C157.397 102.349 158.218 101.186 159.253 100.213C160.265 99.2619 161.717 98.2737 163.552 98.1106C165.519 97.9358 167.331 98.7545 168.852 100.272Z" fill="white"/>
<path d="M197.84 134.547C192.3 134.547 181.221 151.354 176.374 159.757C170.199 170.463 171.665 183.241 183.298 183.241C194.931 183.241 197.84 177.715 200.956 174.607C203.818 180.133 209.703 183.478 212.381 183.241C221.731 182.412 221.383 167.585 217.228 159.757C213.074 151.354 203.379 134.547 197.84 134.547Z" fill="white"/>
<path fill-rule="evenodd" clip-rule="evenodd" d="M188.86 145.872C184.892 150.997 180.98 157.188 178.597 161.32C175.748 166.26 174.832 171.414 175.68 175.08C176.094 176.87 176.901 178.218 178.014 179.125C179.115 180.021 180.737 180.666 183.12 180.666C188.452 180.666 191.521 179.414 193.568 178.003C194.626 177.275 195.492 176.449 196.313 175.571C196.573 175.292 196.878 174.95 197.2 174.59C197.74 173.986 198.325 173.332 198.818 172.84C199.442 172.217 200.328 171.928 201.201 172.064C202.075 172.199 202.831 172.743 203.236 173.526C204.426 175.824 206.279 177.718 208.136 179.003C209.059 179.642 209.935 180.097 210.666 180.372C211.447 180.667 211.869 180.685 211.955 180.677C213.468 180.543 214.496 179.89 215.265 178.859C216.097 177.747 216.69 176.089 216.937 173.989C217.433 169.757 216.414 164.655 214.599 161.235C214.587 161.211 214.575 161.188 214.563 161.164C212.524 157.039 209.129 150.861 205.594 145.753C203.82 143.189 202.076 140.99 200.507 139.462C199.723 138.698 199.049 138.168 198.499 137.842C198.229 137.682 198.019 137.589 197.869 137.539C197.729 137.493 197.664 137.49 197.66 137.49C197.656 137.49 197.58 137.493 197.414 137.546C197.243 137.602 197.009 137.702 196.711 137.87C196.106 138.212 195.367 138.76 194.508 139.535C192.791 141.084 190.851 143.302 188.86 145.872ZM193.982 133.061C195.034 132.467 196.298 131.964 197.66 131.964C199.036 131.964 200.291 132.476 201.327 133.09C202.384 133.716 203.408 134.564 204.377 135.508C206.313 137.394 208.291 139.923 210.152 142.613C213.877 147.996 217.396 154.405 219.514 158.685C221.84 163.092 223.064 169.3 222.438 174.632C222.122 177.322 221.309 180.017 219.706 182.162C218.042 184.39 215.607 185.902 212.445 186.182C211.192 186.293 209.875 185.982 208.709 185.543C207.495 185.085 206.219 184.402 204.978 183.544C203.4 182.451 201.801 181.019 200.416 179.284C200.399 179.302 200.382 179.321 200.364 179.339C199.4 180.371 198.227 181.51 196.715 182.552C193.621 184.682 189.42 186.193 183.12 186.193C179.687 186.193 176.764 185.24 174.512 183.406C172.271 181.581 170.917 179.066 170.282 176.322C169.033 170.921 170.47 164.331 173.796 158.564L176.145 159.912L173.796 158.564C176.26 154.291 180.31 147.875 184.477 142.493C186.555 139.81 188.725 137.301 190.794 135.435C191.829 134.502 192.901 133.672 193.982 133.061Z" fill="white"/>
<path fill-rule="evenodd" clip-rule="evenodd" d="M345.464 73.1739C347.562 71.9648 350.247 72.677 351.463 74.7645L369.364 105.518L371.379 76.651C371.507 74.8133 372.78 73.2533 374.561 72.7511C376.342 72.249 378.249 72.9127 379.327 74.4103L402.389 106.45V76.9536C402.389 74.5413 404.354 72.5857 406.779 72.5857C409.203 72.5857 411.168 74.5413 411.168 76.9536V120.051C411.168 121.948 409.937 123.629 408.121 124.209C406.305 124.79 404.32 124.137 403.21 122.594L379.292 89.3649L377.129 120.353C376.995 122.268 375.621 123.872 373.741 124.306C371.862 124.739 369.918 123.901 368.951 122.24L343.865 79.1428C342.65 77.0553 343.366 74.3829 345.464 73.1739Z" fill="white"/>
<path fill-rule="evenodd" clip-rule="evenodd" d="M326.117 72.7209C328.05 72.2268 330.07 73.1108 331.024 74.8678L354.422 117.947C355.575 120.07 354.794 122.728 352.679 123.884C350.563 125.041 347.914 124.258 346.761 122.136L331.556 94.1401V120.041C331.556 122.459 329.603 124.418 327.194 124.418C324.785 124.418 322.832 122.459 322.832 120.041V76.9619C322.832 74.961 324.185 73.2149 326.117 72.7209Z" fill="white"/>
<path fill-rule="evenodd" clip-rule="evenodd" d="M300.092 81.364V94.4479C301.772 94.4135 303.054 94.1609 303.963 93.6919C304.584 93.3713 305.043 92.9415 305.397 92.259C305.78 91.5172 306.149 90.2536 306.149 88.1398C306.149 84.0898 304.86 82.8658 303.826 82.2837C302.928 81.7783 301.686 81.4703 300.092 81.364ZM300.092 103.187C302.732 103.147 305.475 102.723 307.902 101.47C310.021 100.376 311.833 98.6872 313.066 96.3037C314.268 93.9795 314.801 91.2298 314.801 88.1398C314.801 81.7823 312.485 77.1561 308.039 74.6536C304.098 72.4349 299.291 72.4021 295.393 72.7423C293.157 72.9376 291.439 74.8275 291.439 77.094V120.05C291.439 122.462 293.376 124.418 295.766 124.418C298.155 124.418 300.092 122.462 300.092 120.05V103.187Z" fill="white"/>
<path fill-rule="evenodd" clip-rule="evenodd" d="M491.477 73.1734C493.575 71.9644 496.261 72.6765 497.476 74.764L515.377 105.518L517.392 76.6505C517.52 74.8128 518.794 73.2528 520.575 72.7506C522.356 72.2485 524.262 72.9122 525.34 74.4098L548.403 106.45V76.9531C548.403 74.5408 550.368 72.5852 552.792 72.5852C555.217 72.5852 557.182 74.5408 557.182 76.9531V120.05C557.182 121.948 555.951 123.628 554.135 124.209C552.319 124.789 550.334 124.136 549.224 122.593L525.305 89.3644L523.143 120.353C523.009 122.268 521.634 123.872 519.755 124.305C517.875 124.739 515.932 123.9 514.965 122.239L489.879 79.1423C488.664 77.0548 489.38 74.3824 491.477 73.1734Z" fill="white"/>
<path fill-rule="evenodd" clip-rule="evenodd" d="M472.132 72.7204C474.064 72.2264 476.085 73.1103 477.039 74.8673L500.436 117.947C501.589 120.069 500.809 122.727 498.693 123.884C496.578 125.041 493.929 124.258 492.776 122.135L477.571 94.1396V120.041C477.571 122.458 475.618 124.418 473.209 124.418C470.8 124.418 468.847 122.458 468.847 120.041V76.9615C468.847 74.9605 470.199 73.2144 472.132 72.7204Z" fill="white"/>
<path fill-rule="evenodd" clip-rule="evenodd" d="M446.104 81.364V94.4479C447.784 94.4135 449.066 94.1609 449.975 93.6919C450.596 93.3713 451.055 92.9415 451.408 92.259C451.792 91.5172 452.16 90.2536 452.16 88.1398C452.16 84.0898 450.871 82.8658 449.837 82.2837C448.94 81.7783 447.698 81.4703 446.104 81.364ZM446.104 103.187C448.744 103.147 451.487 102.723 453.914 101.47C456.033 100.376 457.844 98.6872 459.077 96.3037C460.28 93.9795 460.813 91.2298 460.813 88.1398C460.813 81.7823 458.497 77.1561 454.051 74.6536C450.109 72.4349 445.302 72.4021 441.405 72.7423C439.168 72.9376 437.451 74.8275 437.451 77.094V120.05C437.451 122.462 439.388 124.418 441.777 124.418C444.167 124.418 446.104 122.462 446.104 120.05V103.187Z" fill="white"/>
<path d="M292.8 235.96V240.32H329.2V235.96H292.8ZM297.52 249.6V253.12H307.92V249.6H297.52ZM297.52 255.72V259.28H307.92V255.72H297.52ZM314.28 243.48V259.88H318.72V243.48H314.28ZM306.24 243.08V262.8C306.24 263.28 306.08 263.44 305.56 263.44C305.08 263.48 303.44 263.48 301.96 263.4C302.56 264.52 303.24 266.28 303.48 267.48C305.96 267.48 307.8 267.44 309.12 266.72C310.48 266.04 310.88 264.92 310.88 262.88V243.08H306.24ZM322.32 242.4V262.28C322.32 262.84 322.12 263 321.48 263C320.8 263.04 318.72 263.04 316.68 262.92C317.36 264.16 318.12 266.2 318.36 267.48C321.32 267.52 323.48 267.36 325 266.64C326.6 265.92 327.04 264.68 327.04 262.36V242.4H322.32ZM298.32 231.6C299.72 233.2 301.2 235.48 301.76 236.92L306.6 235.2C305.92 233.68 304.32 231.56 302.88 230L298.32 231.6ZM318.84 229.92C317.96 232.08 316.32 235 314.96 236.88L319.28 238.36C320.68 236.6 322.44 234.04 324.08 231.48L318.84 229.92ZM295 243.08V267.36H299.52V247.08H307.6V243.08H295ZM343.76 261.32V265.96H365.84V261.32H343.76ZM341.6 249.84V267.56H346.52V254.44H363.2V267.56H368.36V249.84H341.6ZM349.44 229.72C347.72 234.2 344.56 239.96 341.88 243.6L346.2 245.32C348.92 241.84 352.32 236.48 354.92 231.52L349.44 229.72ZM359.04 236.88C363.04 240.32 367.6 245.2 369.48 248.56L373.68 245.36C371.6 241.92 366.8 237.28 362.84 234.08L359.04 236.88ZM337.36 241.36L337.64 246.24C345.52 245.92 357.52 245.44 368.6 244.84L368.84 240.2C357.84 240.68 345.44 241.16 337.36 241.36Z" fill="white"/>
<line x1="106" y1="247" x2="246" y2="247" stroke="white" stroke-width="2"/>
<line x1="424" y1="247" x2="564" y2="247" stroke="white" stroke-width="2"/>
<path d="M305.172 145.408V150.292H325.368V145.408H305.172ZM305.26 156.408V161.116H323.564V156.408H305.26ZM312.564 139.6V159.048H317.712V139.6H312.564ZM302.4 145.408V156.672C302.4 163.096 302.004 172.072 297.56 178.232C298.836 178.716 301.08 180.036 302.004 180.872C306.712 174.228 307.46 163.844 307.46 156.716V145.408H302.4ZM324.136 145.408V146.156C323.52 148.884 322.464 152.272 321.496 154.34L326.072 155.66C327.304 153.24 328.668 149.544 329.68 146.156L325.808 145.232L324.972 145.408H324.136ZM311.288 159.444L306.756 160.72C310.408 170.532 316.612 177.572 326.38 180.916C327.128 179.552 328.624 177.484 329.812 176.428C320.572 173.832 314.28 167.54 311.288 159.444ZM290.784 143.736C293.248 145.1 296.812 147.212 298.528 148.532L301.608 144.264C299.804 143.032 296.152 141.096 293.732 139.908L290.784 143.736ZM288.188 155.704C290.74 157.024 294.392 159.048 296.108 160.368L299.144 155.968C297.296 154.736 293.6 152.888 291.136 151.788L288.188 155.704ZM289.068 177.308L293.776 180.476C296.064 176.164 298.44 171.06 300.42 166.352L296.284 163.184C294.04 168.376 291.136 173.92 289.068 177.308ZM321.672 156.408V157.376C319.428 167.496 312.916 173.7 304.16 176.648C305.216 177.572 306.844 179.772 307.504 181.004C316.7 177.484 323.96 170.004 326.952 157.684L323.652 156.276L322.728 156.408H321.672ZM351.372 145.408V150.292H371.568V145.408H351.372ZM351.46 156.408V161.116H369.764V156.408H351.46ZM358.764 139.6V159.048H363.912V139.6H358.764ZM348.6 145.408V156.672C348.6 163.096 348.204 172.072 343.76 178.232C345.036 178.716 347.28 180.036 348.204 180.872C352.912 174.228 353.66 163.844 353.66 156.716V145.408H348.6ZM370.336 145.408V146.156C369.72 148.884 368.664 152.272 367.696 154.34L372.272 155.66C373.504 153.24 374.868 149.544 375.88 146.156L372.008 145.232L371.172 145.408H370.336ZM357.488 159.444L352.956 160.72C356.608 170.532 362.812 177.572 372.58 180.916C373.328 179.552 374.824 177.484 376.012 176.428C366.772 173.832 360.48 167.54 357.488 159.444ZM336.984 143.736C339.448 145.1 343.012 147.212 344.728 148.532L347.808 144.264C346.004 143.032 342.352 141.096 339.932 139.908L336.984 143.736ZM334.388 155.704C336.94 157.024 340.592 159.048 342.308 160.368L345.344 155.968C343.496 154.736 339.8 152.888 337.336 151.788L334.388 155.704ZM335.268 177.308L339.976 180.476C342.264 176.164 344.64 171.06 346.62 166.352L342.484 163.184C340.24 168.376 337.336 173.92 335.268 177.308ZM367.872 156.408V157.376C365.628 167.496 359.116 173.7 350.36 176.648C351.416 177.572 353.044 179.772 353.704 181.004C362.9 177.484 370.16 170.004 373.152 157.684L369.852 156.276L368.928 156.408H367.872ZM381.952 168.112V171.852H402.5V168.112H381.952ZM380.94 147.168V150.996H402.94V147.168H380.94ZM389.696 144.044V175.592H394.448V144.044H389.696ZM380.72 175.108L381.336 179.508C387.056 178.98 395.064 178.188 402.544 177.396L402.5 173.392C394.58 174.096 386.176 174.712 380.72 175.108ZM386.308 161.072H397.924V163.096H386.308V161.072ZM386.308 156.012H397.924V157.992H386.308V156.012ZM382.084 152.712V166.396H402.28V152.712H382.084ZM400.124 139.864C395.284 140.92 387.628 141.712 381.072 142.02C381.556 143.032 382.04 144.704 382.216 145.76C388.816 145.628 396.824 144.968 402.456 143.824L400.124 139.864ZM402.94 149.588V154.428H418.164V149.588H402.94ZM416.052 149.588V150.732C415.7 167.76 415.348 173.964 414.336 175.284C413.94 175.9 413.5 176.032 412.84 176.032C411.96 176.032 410.288 176.032 408.396 175.856C409.232 177.264 409.804 179.42 409.936 180.872C412.004 180.96 414.072 180.96 415.436 180.696C416.888 180.432 417.9 179.948 418.868 178.452C420.32 176.472 420.672 170.048 421.068 151.92C421.068 151.304 421.112 149.588 421.112 149.588H416.052ZM407.164 140.392C407.12 157.948 407.604 170.268 398.32 177.352C399.508 178.232 401.224 180.036 401.972 181.312C412.136 173.304 412.18 159.18 412.224 140.392H407.164ZM448.304 139.644C446.984 146.156 444.52 152.448 441 156.32C442.1 156.98 444.168 158.476 445.004 159.268C448.568 154.868 451.472 147.872 453.056 140.568L448.304 139.644ZM463.088 146.508V147.652C462.384 166.352 461.548 173.172 460.316 174.712C459.788 175.328 459.392 175.548 458.732 175.548C457.896 175.548 456.4 175.504 454.772 175.328C455.564 176.78 456.092 179.024 456.224 180.52C458.16 180.608 460.008 180.608 461.24 180.344C462.692 180.08 463.66 179.552 464.672 178.056C466.344 175.856 467.136 168.64 467.972 148.884C468.016 148.224 468.06 146.508 468.06 146.508H463.088ZM449.624 146.508L447.204 151.392H465.332V146.508H449.624ZM452.704 148.092C451.032 155.484 447.16 163.756 442.056 167.76C443.42 168.508 445.092 169.74 446.104 170.752C450.9 166.264 454.772 157.552 456.532 149.984L452.704 148.092ZM458.82 148.576C456.796 159.884 452.264 171.368 444.564 176.868C446.016 177.572 447.864 178.892 448.876 179.948C456.136 173.876 460.8 161.908 462.912 150.468L458.82 148.576ZM426.744 163.624L428.02 168.684C432.684 167.32 438.712 165.516 444.256 163.8L443.552 159.136C437.48 160.852 431.056 162.656 426.744 163.624ZM434.664 139.644V180.96H439.504V139.644H434.664ZM428.856 142.152C428.46 147.388 427.712 152.888 426.304 156.408C427.36 156.936 429.252 158.168 430.044 158.784C431.628 154.868 432.684 148.708 433.256 142.9L428.856 142.152ZM430.044 148.136L429.076 153.196H443.156V148.136H430.044ZM480.952 177.352V180.124H506.78V177.352H480.952ZM480.952 173.568V176.164H506.78V173.568H480.952ZM474.66 160.852V164.196H513.292V160.852H474.66ZM476.816 165.604V180.96H481.568V168.332H506.12V180.96H511.092V165.604H476.816ZM482.712 143.648C482.14 145.144 481.216 146.64 479.94 147.784C480.688 148.136 481.964 148.928 482.536 149.368C483.812 148.092 485.044 146.2 485.704 144.352L482.712 143.648ZM495.472 149.016V152.008H508.144V149.016H495.472ZM482.844 145.584V147.96H492.612V145.584H482.844ZM480.292 149.28V151.788H493.36V149.28H480.292ZM498.596 140.7V144.22H506.428V140.7H498.596ZM507.22 149.016V149.5C505.416 153.944 500.312 156.408 494.284 157.332C494.988 158.124 495.868 159.576 496.264 160.5C503.26 159.048 508.892 156.1 511.268 149.764L508.76 148.928L508.012 149.016H507.22ZM500.312 151.7L496.396 152.668C499.212 157.332 504.228 160.016 511.4 161.028C511.928 159.884 513.072 158.168 513.996 157.332C507.528 156.76 502.556 154.956 500.312 151.7ZM496.704 140.7V142.944C496.704 144.484 496.22 145.848 492.876 147.036C493.624 147.608 495.164 149.28 495.648 150.16C499.74 148.356 500.708 145.716 500.708 143.12V140.7H496.704ZM504.536 140.7V144.044C504.536 146.244 504.8 147.036 505.416 147.652C505.988 148.312 507.132 148.576 508.056 148.576C508.584 148.576 509.42 148.576 509.948 148.576C510.564 148.576 511.356 148.532 511.84 148.312C512.456 148.048 512.94 147.696 513.204 147.212C513.512 146.772 513.688 145.716 513.82 144.66C512.808 144.352 511.488 143.692 510.784 143.076C510.74 143.824 510.696 144.44 510.608 144.704C510.52 145.012 510.388 145.1 510.256 145.144C510.168 145.232 509.948 145.232 509.772 145.232C509.552 145.232 509.244 145.232 509.068 145.232C508.892 145.232 508.76 145.188 508.672 145.056C508.54 144.924 508.584 144.616 508.584 144.044V140.7H504.536ZM485.396 146.728V149.632C485.396 151.172 484.78 153.284 480.204 154.384C480.952 155 481.876 156.012 482.316 156.76C487.64 154.912 488.652 152.008 488.652 149.72V146.728H485.396ZM487.728 162.788V166.748C487.728 168.42 486.848 170.312 481.612 171.192C482.492 171.896 483.548 173.172 484.076 174.052C490.192 172.424 491.732 169.696 491.732 166.792V162.788H487.728ZM495.34 162.744V168.816C495.34 171.676 496.308 172.38 500.224 172.38C501.06 172.38 504.668 172.38 505.504 172.38C507.924 172.38 508.98 171.896 509.244 170.488C508.276 170.356 506.868 170.048 506.076 169.652C505.988 169.916 505.724 169.96 504.976 169.96C504.228 169.96 501.368 169.96 500.796 169.96C499.608 169.96 499.388 169.828 499.388 168.86V162.744H495.34ZM485.616 152.712C487.552 153.812 489.972 155.484 491.204 156.584L493.228 154.472C491.952 153.328 489.488 151.788 487.552 150.776L485.616 152.712ZM494.02 141.096H475.76V159.532H494.372V156.54H479.676V144.088H494.02V141.096ZM544.444 139.864V146.772H549.592V139.864H544.444ZM534.676 144.484V153.196H539.34V148.972H555.268V153.152H560.152V144.484H534.676ZM537.932 152.536V157.068H556.764V152.536H537.932ZM535.292 160.236V164.944H559.976V160.236H535.292ZM540.264 162.524C540 170.18 539.296 174.404 531.332 176.78C532.344 177.748 533.664 179.684 534.104 180.96C543.564 177.792 544.884 171.984 545.28 162.524H540.264ZM548.36 161.996V174.536C548.36 179.068 549.24 180.564 553.112 180.564C553.816 180.564 555.268 180.564 556.06 180.564C559.14 180.564 560.372 178.892 560.812 172.688C559.492 172.38 557.38 171.544 556.412 170.752C556.324 175.24 556.192 175.944 555.488 175.944C555.18 175.944 554.256 175.944 553.992 175.944C553.42 175.944 553.332 175.768 553.332 174.492V161.996H548.36ZM521.124 141.536V181.004H525.744V146.244H531.508V141.536H521.124ZM529.88 141.536V143.032C529.264 145.848 527.856 151.92 526.624 155.88C529.132 158.828 529.704 161.556 529.704 163.624C529.704 164.856 529.484 165.736 528.956 166.132C528.648 166.396 528.208 166.484 527.724 166.484C527.196 166.528 526.624 166.484 525.832 166.44C526.536 167.716 526.932 169.696 526.976 170.972C527.988 170.972 529.044 170.928 529.836 170.84C530.804 170.708 531.64 170.4 532.344 169.916C533.752 168.948 534.324 167.1 534.324 164.24C534.324 161.688 533.796 158.74 531.068 155.308C532.344 151.876 533.796 147.08 534.94 143.296L531.508 141.36L530.76 141.536H529.88Z" fill="white"/>
</svg>
