<svg width="357" height="528" viewBox="0 0 357 528" fill="none" xmlns="http://www.w3.org/2000/svg">
<path fill-rule="evenodd" clip-rule="evenodd" d="M74.4833 379.369C77.263 377.767 80.8215 378.71 82.4314 381.476L106.15 422.224L108.82 383.976C108.99 381.541 110.676 379.474 113.036 378.809C115.396 378.143 117.922 379.023 119.351 381.007L149.908 423.459V384.377C149.908 381.18 152.512 378.589 155.724 378.589C158.936 378.589 161.54 381.18 161.54 384.377V441.479C161.54 443.994 159.909 446.22 157.503 446.989C155.097 447.758 152.467 446.893 150.995 444.849L119.305 400.821L116.439 441.88C116.262 444.418 114.44 446.543 111.95 447.117C109.46 447.691 106.885 446.581 105.603 444.38L72.3653 387.277C70.7553 384.511 71.7036 380.971 74.4833 379.369Z" fill="white"/>
<path fill-rule="evenodd" clip-rule="evenodd" d="M48.8498 378.768C51.4104 378.114 54.0874 379.285 55.3518 381.613L86.3528 438.692C87.8801 441.504 86.8461 445.027 84.0432 446.559C81.2403 448.091 77.73 447.054 76.2026 444.242L56.0564 407.148V441.467C56.0564 444.67 53.4688 447.266 50.2767 447.266C47.0847 447.266 44.4971 444.67 44.4971 441.467V384.388C44.4971 381.737 46.2892 379.423 48.8498 378.768Z" fill="white"/>
<path fill-rule="evenodd" clip-rule="evenodd" d="M14.3677 390.222V407.558C16.5938 407.512 18.2928 407.177 19.4965 406.556C20.3194 406.131 20.9283 405.562 21.3961 404.657C21.9046 403.674 22.3927 402 22.3927 399.199C22.3927 393.833 20.6849 392.211 19.3148 391.44C18.1251 390.771 16.48 390.363 14.3677 390.222ZM14.3677 419.137C17.8655 419.083 21.5 418.522 24.7157 416.862C27.5232 415.412 29.9237 413.175 31.5576 410.016C33.1509 406.937 33.857 403.294 33.857 399.199C33.857 390.776 30.788 384.646 24.8974 381.331C19.675 378.391 13.3059 378.347 8.14175 378.798C5.17839 379.057 2.90332 381.561 2.90332 384.564V441.48C2.90332 444.676 5.4697 447.267 8.63549 447.267C11.8013 447.267 14.3677 444.676 14.3677 441.48V419.137Z" fill="white"/>
<path fill-rule="evenodd" clip-rule="evenodd" d="M267.943 379.37C270.723 377.768 274.281 378.711 275.891 381.477L299.61 422.225L302.28 383.977C302.45 381.542 304.136 379.475 306.496 378.809C308.856 378.144 311.382 379.024 312.811 381.008L343.368 423.46V384.378C343.368 381.181 345.972 378.59 349.184 378.59C352.396 378.59 355 381.181 355 384.378V441.48C355 443.995 353.369 446.221 350.963 446.99C348.556 447.759 345.927 446.894 344.455 444.85L312.764 400.822L309.899 441.881C309.722 444.419 307.9 446.543 305.41 447.118C302.92 447.692 300.344 446.582 299.063 444.381L265.825 387.278C264.215 384.512 265.164 380.972 267.943 379.37Z" fill="white"/>
<path fill-rule="evenodd" clip-rule="evenodd" d="M242.31 378.769C244.87 378.115 247.547 379.286 248.812 381.614L279.813 438.693C281.34 441.505 280.306 445.027 277.503 446.56C274.7 448.092 271.19 447.055 269.663 444.243L249.516 407.149V441.468C249.516 444.671 246.929 447.267 243.737 447.267C240.545 447.267 237.957 444.671 237.957 441.468V384.389C237.957 381.738 239.749 379.424 242.31 378.769Z" fill="white"/>
<path fill-rule="evenodd" clip-rule="evenodd" d="M207.828 390.222V407.558C210.054 407.512 211.753 407.177 212.956 406.556C213.779 406.131 214.388 405.562 214.856 404.657C215.365 403.674 215.853 402 215.853 399.199C215.853 393.833 214.145 392.211 212.775 391.44C211.585 390.771 209.94 390.363 207.828 390.222ZM207.828 419.137C211.326 419.083 214.96 418.522 218.176 416.862C220.983 415.412 223.384 413.175 225.018 410.016C226.611 406.937 227.317 403.294 227.317 399.199C227.317 390.776 224.248 384.646 218.357 381.331C213.135 378.391 206.766 378.347 201.602 378.798C198.638 379.057 196.363 381.561 196.363 384.564V441.48C196.363 444.676 198.93 447.267 202.095 447.267C205.261 447.267 207.828 444.676 207.828 441.48V419.137Z" fill="white"/>
<path fill-rule="evenodd" clip-rule="evenodd" d="M124.119 33.2349C106.771 30.7205 92.1404 32.5983 79.1204 40.1626C65.1544 48.2765 54.3222 62.2269 43.7926 80.5688C25.4067 112.596 13.5109 164.165 6.82772 214.847C0.110081 265.791 -1.53289 317.413 1.38097 350.385C1.81699 355.319 6.17024 358.966 11.1042 358.53C16.0382 358.094 19.6845 353.74 19.2485 348.806C16.4822 317.504 18.0094 267.255 24.6109 217.192C31.2468 166.868 42.819 118.293 59.3486 89.4991C69.4266 71.944 78.3253 61.3691 88.1311 55.6722C97.5651 50.1913 109.087 48.5291 126.135 51.7563C138.204 54.0409 148.856 62.0741 154.244 78.8041C155.763 83.5188 160.816 86.1098 165.53 84.5913C170.245 83.0728 172.836 78.0198 171.317 73.3051C165.943 56.6181 156.008 45.1881 143.598 38.9012C148.703 34.1633 155.049 29.3467 161.938 25.5012C173.831 18.8633 185.298 16.2255 194.072 19.0973C208.579 23.8454 216.581 32.3799 221.206 42.2125C221.773 43.4169 222.291 44.647 222.765 45.899C222.808 46.0233 222.854 46.1468 222.904 46.2697C226.332 55.5314 227.355 65.9655 227.355 76.0546C227.355 81.0078 231.37 85.0232 236.323 85.0232C241.276 85.0232 245.292 81.0078 245.292 76.0546C245.292 67.0304 244.573 56.7295 241.814 46.5859C244.93 44.717 248.233 43.248 251.711 42.6864C256.588 41.8989 262.896 42.7178 270.737 49.6591C278.91 56.8955 283.11 67.1665 284.849 77.5377C286.405 86.8165 285.853 95.4322 284.912 100.373C283.985 105.239 287.178 109.935 292.044 110.862C296.91 111.788 301.605 108.595 302.532 103.729C303.233 100.052 303.734 95.291 303.761 89.9132C308.471 92.5607 313.383 96.1203 317.696 100.67C325.945 109.371 332.066 121.7 330.529 138.922C327.137 176.909 308.051 208.621 299.345 219.232C298.029 220.836 297.309 222.846 297.309 224.921V340.615C297.309 345.568 301.325 349.584 306.278 349.584C311.231 349.584 315.247 345.568 315.247 340.615V228.018C326.15 213.571 344.844 180.284 348.395 140.517C350.444 117.559 342.057 100.296 330.713 88.3296C321.544 78.6571 310.485 72.4549 301.437 69.1229C298.728 57.7401 293.19 45.5817 282.627 36.2293C271.095 26.0193 259.464 23.265 248.852 24.9787C243.628 25.8222 238.955 27.7066 234.97 29.8467C228.043 17.8213 216.873 7.68669 199.651 2.05002C183.76 -3.15112 166.677 2.31413 153.196 9.8387C141.606 16.3078 131.173 25.1187 124.119 33.2349Z" fill="white"/>
<path d="M258.954 110.474C239.582 110.474 236.646 137.645 237.429 158.007C238.152 176.79 250.344 201.057 258.954 201.057C267.564 201.057 272.706 182.522 274.2 173.254C277.19 152.327 278.326 110.474 258.954 110.474Z" fill="white"/>
<path d="M305.591 158.007C292.676 158.007 294.768 194.48 297.757 214.509C297.757 214.509 317.488 194.035 317.488 177.738C317.488 173.254 318.505 158.007 305.591 158.007Z" fill="white"/>
<path fill-rule="evenodd" clip-rule="evenodd" d="M247.453 128.838C244.797 136.952 244.219 147.814 244.6 157.732C244.914 165.897 247.792 175.659 251.65 183.363C253.572 187.2 255.574 190.195 257.339 192.112C258.096 192.933 258.65 193.391 259 193.64C259.125 193.529 259.277 193.38 259.457 193.182C260.433 192.112 261.556 190.294 262.679 187.742C264.894 182.708 266.417 176.43 267.108 172.175C268.548 162.064 269.492 147.128 267.854 134.976C267.024 128.823 265.616 124.072 263.791 121.054C262.132 118.311 260.619 117.65 258.955 117.65C255.989 117.65 253.946 118.614 252.276 120.216C250.436 121.981 248.77 124.816 247.453 128.838ZM258.574 193.946C258.574 193.945 258.588 193.938 258.614 193.928C258.588 193.943 258.574 193.947 258.574 193.946ZM242.342 109.86C246.647 105.731 252.235 103.3 258.955 103.3C266.978 103.3 272.587 107.87 276.07 113.628C279.387 119.112 281.14 126.132 282.075 133.058C283.96 147.039 282.849 163.454 281.304 174.269C281.301 174.296 281.297 174.323 281.292 174.35C281.29 174.366 281.288 174.381 281.285 174.397C280.477 179.408 278.685 186.995 275.814 193.521C274.388 196.761 272.518 200.156 270.062 202.85C267.611 205.538 263.897 208.232 258.955 208.232C253.642 208.232 249.451 204.729 246.783 201.832C243.818 198.612 241.113 194.366 238.82 189.789C234.249 180.664 230.669 168.902 230.261 158.284C229.859 147.84 230.358 134.935 233.816 124.373C235.557 119.057 238.208 113.826 242.342 109.86ZM297.758 214.51L302.925 219.489C301.028 221.457 298.178 222.176 295.574 221.344C292.97 220.512 291.066 218.273 290.662 215.569C289.13 205.302 287.789 190.627 288.55 178.306C288.925 172.234 289.841 166.087 291.888 161.233C293.906 156.445 298.065 150.833 305.592 150.833C310.347 150.833 314.438 152.285 317.613 155.051C320.658 157.704 322.309 161.085 323.235 164.061C324.806 169.113 324.713 174.663 324.673 177.018C324.668 177.31 324.664 177.552 324.664 177.739C324.664 188.261 318.539 199.044 313.531 206.308C310.892 210.136 308.267 213.4 306.306 215.706C305.322 216.862 304.496 217.787 303.908 218.433C303.614 218.755 303.378 219.009 303.211 219.187C303.128 219.276 303.061 219.346 303.013 219.396L302.955 219.457L302.936 219.477L302.927 219.486C302.926 219.488 302.925 219.489 297.758 214.51ZM302.872 179.19C302.545 184.484 302.659 190.4 303.028 196.204C307.232 189.731 310.314 182.982 310.314 177.739C310.314 177.379 310.317 177.007 310.32 176.624C310.34 174.039 310.363 170.994 309.533 168.323C309.098 166.926 308.583 166.215 308.186 165.87C307.94 165.656 307.391 165.254 305.978 165.191C305.788 165.43 305.489 165.908 305.111 166.807C304.01 169.417 303.215 173.639 302.872 179.19ZM306.21 164.982C306.212 164.996 306.164 165.048 306.06 165.095C306.155 164.992 306.207 164.968 306.21 164.982Z" fill="white"/>
<path d="M119.945 134.692C114.564 143.66 117.314 163.628 110.079 177.74C92.1462 212.717 118.149 230.66 136.086 227.072C154.023 223.485 160.301 171.467 148.642 142.768C136.983 114.069 125.326 125.723 119.945 134.692Z" fill="white"/>
<path d="M218.599 154.422C215.729 192.448 195.879 194.182 186.313 190.296C167.479 179.536 176.447 149.937 186.313 112.269C196.178 74.6013 222.187 106.888 218.599 154.422Z" fill="white"/>
<path fill-rule="evenodd" clip-rule="evenodd" d="M213.147 96.9708C221.937 108.195 227.621 130.184 225.751 154.961C224.239 175.002 218.114 187.437 209.162 193.895C200.179 200.375 190.098 199.578 183.61 196.943C183.314 196.823 183.028 196.683 182.751 196.525C169.559 188.989 167.211 175.019 168.398 160.777C169.46 148.026 173.536 132.577 177.849 116.227C178.354 114.313 178.862 112.387 179.369 110.451C180.718 105.303 182.44 100.946 184.598 97.5047C186.741 94.0858 189.59 91.1444 193.327 89.63C201.712 86.2322 208.904 91.5525 213.147 96.9708ZM196.756 105.127C195.617 106.944 194.369 109.818 193.251 114.087C192.753 115.989 192.26 117.86 191.775 119.7C187.371 136.426 183.648 150.561 182.698 161.968C181.669 174.312 184.099 180.524 189.447 183.815C192.515 184.918 196.903 185.044 200.767 182.257C204.849 179.312 210.085 171.867 211.442 153.881C213.16 131.125 207.633 113.204 201.849 105.818C200.462 104.047 199.383 103.301 198.824 103.045C198.744 103.009 198.682 102.985 198.637 102.97C198.41 103.103 197.714 103.599 196.756 105.127ZM198.543 102.946C198.543 102.946 198.544 102.946 198.547 102.946ZM129.965 133.367C128.587 134.66 127.243 136.47 126.095 138.383C125.422 139.505 124.771 141.414 124.207 144.505C123.721 147.165 123.389 150.138 123.006 153.566C122.95 154.065 122.893 154.573 122.834 155.092C121.962 162.818 120.763 172.622 116.461 181.013C108.427 196.684 110.915 206.801 115.305 212.479C120.108 218.691 128.329 221.306 134.677 220.037C135.882 219.796 138.249 218.361 140.841 213.201C143.299 208.308 145.241 201.406 146.353 193.355C148.591 177.156 147.215 158.324 141.993 145.468C139.249 138.715 136.779 135.06 134.933 133.222C134.048 132.342 133.422 131.994 133.097 131.859C132.809 131.739 132.662 131.743 132.571 131.751C132.288 131.776 131.403 132.019 129.965 133.367ZM145.055 123.052C148.842 126.82 152.201 132.47 155.287 140.067C161.724 155.911 163.038 177.438 160.568 195.319C159.326 204.308 157.063 212.876 153.664 219.643C150.399 226.142 145.254 232.555 137.491 234.108C125.902 236.425 112.153 231.863 103.953 221.256C95.3401 210.116 93.7936 193.772 103.692 174.466C106.625 168.745 107.669 161.51 108.575 153.482C108.63 152.995 108.685 152.503 108.74 152.008C109.115 148.643 109.508 145.119 110.09 141.929C110.75 138.312 111.773 134.362 113.79 131C115.333 128.429 117.465 125.418 120.149 122.9C122.776 120.437 126.542 117.879 131.303 117.457C136.406 117.005 141.109 119.124 145.055 123.052Z" fill="white"/>
<path d="M220.391 211.819C206.041 211.819 177.342 255.466 164.786 277.289C148.79 305.092 152.588 338.276 182.723 338.276C212.857 338.276 220.391 323.926 228.463 315.854C235.876 330.204 251.122 338.892 258.059 338.276C282.28 336.124 281.377 297.618 270.615 277.289C259.853 255.466 234.741 211.819 220.391 211.819Z" fill="white"/>
<path fill-rule="evenodd" clip-rule="evenodd" d="M197.594 240.757C187.314 254.063 177.179 270.138 171.006 280.867C163.626 293.694 161.251 307.078 163.447 316.595C164.52 321.243 166.613 324.745 169.495 327.098C172.348 329.426 176.55 331.101 182.724 331.101C196.538 331.101 204.487 327.848 209.791 324.187C212.532 322.295 214.775 320.151 216.901 317.87C217.575 317.147 218.367 316.259 219.2 315.325C220.598 313.757 222.114 312.057 223.39 310.781C225.009 309.162 227.304 308.413 229.566 308.765C231.828 309.116 233.787 310.527 234.838 312.561C237.92 318.527 242.719 323.444 247.53 326.782C249.922 328.441 252.192 329.622 254.086 330.338C256.108 331.102 257.203 331.149 257.425 331.129C261.344 330.781 264.007 329.084 266.001 326.409C268.154 323.52 269.692 319.216 270.33 313.764C271.617 302.775 268.976 289.528 264.275 280.646C264.242 280.586 264.211 280.524 264.181 280.463C258.899 269.752 250.103 253.711 240.945 240.447C236.349 233.791 231.831 228.081 227.767 224.113C225.736 222.13 223.989 220.752 222.564 219.906C221.865 219.49 221.323 219.251 220.933 219.121C220.57 219 220.4 218.994 220.391 218.994C220.382 218.994 220.183 219 219.755 219.139C219.31 219.283 218.705 219.543 217.933 219.98C216.366 220.868 214.451 222.291 212.226 224.303C207.777 228.324 202.75 234.083 197.594 240.757ZM210.862 207.494C213.588 205.95 216.863 204.644 220.392 204.644C223.956 204.644 227.207 205.973 229.892 207.568C232.629 209.194 235.283 211.396 237.792 213.846C242.809 218.745 247.932 225.31 252.753 232.294C262.403 246.271 271.521 262.914 277.006 274.027C283.035 285.468 286.204 301.588 284.582 315.434C283.764 322.418 281.658 329.414 277.506 334.986C273.193 340.771 266.886 344.695 258.695 345.422C255.448 345.711 252.036 344.903 249.016 343.762C245.87 342.574 242.564 340.802 239.35 338.572C235.261 335.735 231.118 332.016 227.53 327.512C227.486 327.56 227.442 327.607 227.397 327.655C224.899 330.335 221.861 333.292 217.943 335.997C209.929 341.528 199.044 345.45 182.724 345.45C173.83 345.45 166.257 342.977 160.422 338.215C154.617 333.477 151.109 326.945 149.465 319.822C146.228 305.796 149.952 288.687 158.568 273.711L164.654 277.213L158.568 273.711C164.951 262.617 175.443 245.957 186.239 231.984C191.621 225.018 197.244 218.501 202.604 213.657C205.284 211.235 208.064 209.079 210.862 207.494Z" fill="white"/>
<path d="M23.541 470.074V476.401H49.704V470.074H23.541ZM23.655 484.324V490.423H47.367V484.324H23.655ZM33.117 462.55V487.744H39.786V462.55H33.117ZM19.95 470.074V484.666C19.95 492.988 19.437 504.616 13.68 512.596C15.333 513.223 18.24 514.933 19.437 516.016C25.536 507.409 26.505 493.957 26.505 484.723V470.074H19.95ZM48.108 470.074V471.043C47.31 474.577 45.942 478.966 44.688 481.645L50.616 483.355C52.212 480.22 53.979 475.432 55.29 471.043L50.274 469.846L49.191 470.074H48.108ZM31.464 488.257L25.593 489.91C30.324 502.621 38.361 511.741 51.015 516.073C51.984 514.306 53.922 511.627 55.461 510.259C43.491 506.896 35.34 498.745 31.464 488.257ZM4.902 467.908C8.094 469.675 12.711 472.411 14.934 474.121L18.924 468.592C16.587 466.996 11.856 464.488 8.721 462.949L4.902 467.908ZM1.539 483.412C4.845 485.122 9.576 487.744 11.799 489.454L15.732 483.754C13.338 482.158 8.55 479.764 5.358 478.339L1.539 483.412ZM2.679 511.399L8.778 515.503C11.742 509.917 14.82 503.305 17.385 497.206L12.027 493.102C9.12 499.828 5.358 507.01 2.679 511.399ZM44.916 484.324V485.578C42.009 498.688 33.573 506.725 22.23 510.544C23.598 511.741 25.707 514.591 26.562 516.187C38.475 511.627 47.88 501.937 51.756 485.977L47.481 484.153L46.284 484.324H44.916ZM83.391 470.074V476.401H109.554V470.074H83.391ZM83.505 484.324V490.423H107.217V484.324H83.505ZM92.967 462.55V487.744H99.636V462.55H92.967ZM79.8 470.074V484.666C79.8 492.988 79.287 504.616 73.53 512.596C75.183 513.223 78.09 514.933 79.287 516.016C85.386 507.409 86.355 493.957 86.355 484.723V470.074H79.8ZM107.958 470.074V471.043C107.16 474.577 105.792 478.966 104.538 481.645L110.466 483.355C112.062 480.22 113.829 475.432 115.14 471.043L110.124 469.846L109.041 470.074H107.958ZM91.314 488.257L85.443 489.91C90.174 502.621 98.211 511.741 110.865 516.073C111.834 514.306 113.772 511.627 115.311 510.259C103.341 506.896 95.19 498.745 91.314 488.257ZM64.752 467.908C67.944 469.675 72.561 472.411 74.784 474.121L78.774 468.592C76.437 466.996 71.706 464.488 68.571 462.949L64.752 467.908ZM61.389 483.412C64.695 485.122 69.426 487.744 71.649 489.454L75.582 483.754C73.188 482.158 68.4 479.764 65.208 478.339L61.389 483.412ZM62.529 511.399L68.628 515.503C71.592 509.917 74.67 503.305 77.235 497.206L71.877 493.102C68.97 499.828 65.208 507.01 62.529 511.399ZM104.766 484.324V485.578C101.859 498.688 93.423 506.725 82.08 510.544C83.448 511.741 85.557 514.591 86.412 516.187C98.325 511.627 107.73 501.937 111.606 485.977L107.331 484.153L106.134 484.324H104.766ZM123.006 499.486V504.331H149.625V499.486H123.006ZM121.695 472.354V477.313H150.195V472.354H121.695ZM133.038 468.307V509.176H139.194V468.307H133.038ZM121.41 508.549L122.208 514.249C129.618 513.565 139.992 512.539 149.682 511.513L149.625 506.326C139.365 507.238 128.478 508.036 121.41 508.549ZM128.649 490.366H143.697V492.988H128.649V490.366ZM128.649 483.811H143.697V486.376H128.649V483.811ZM123.177 479.536V497.263H149.34V479.536H123.177ZM146.547 462.892C140.277 464.26 130.359 465.286 121.866 465.685C122.493 466.996 123.12 469.162 123.348 470.53C131.898 470.359 142.272 469.504 149.568 468.022L146.547 462.892ZM150.195 475.489V481.759H169.917V475.489H150.195ZM167.181 475.489V476.971C166.725 499.03 166.269 507.067 164.958 508.777C164.445 509.575 163.875 509.746 163.02 509.746C161.88 509.746 159.714 509.746 157.263 509.518C158.346 511.342 159.087 514.135 159.258 516.016C161.937 516.13 164.616 516.13 166.383 515.788C168.264 515.446 169.575 514.819 170.829 512.881C172.71 510.316 173.166 501.994 173.679 478.51C173.679 477.712 173.736 475.489 173.736 475.489H167.181ZM155.667 463.576C155.61 486.319 156.237 502.279 144.21 511.456C145.749 512.596 147.972 514.933 148.941 516.586C162.108 506.212 162.165 487.915 162.222 463.576H155.667ZM208.962 462.607C207.252 471.043 204.06 479.194 199.5 484.21C200.925 485.065 203.604 487.003 204.687 488.029C209.304 482.329 213.066 473.266 215.118 463.804L208.962 462.607ZM228.114 471.499V472.981C227.202 497.206 226.119 506.041 224.523 508.036C223.839 508.834 223.326 509.119 222.471 509.119C221.388 509.119 219.45 509.062 217.341 508.834C218.367 510.715 219.051 513.622 219.222 515.56C221.73 515.674 224.124 515.674 225.72 515.332C227.601 514.99 228.855 514.306 230.166 512.368C232.332 509.518 233.358 500.17 234.441 474.577C234.498 473.722 234.555 471.499 234.555 471.499H228.114ZM210.672 471.499L207.537 477.826H231.021V471.499H210.672ZM214.662 473.551C212.496 483.127 207.48 493.843 200.868 499.03C202.635 499.999 204.801 501.595 206.112 502.906C212.325 497.092 217.341 485.806 219.621 476.002L214.662 473.551ZM222.585 474.178C219.963 488.827 214.092 503.704 204.117 510.829C205.998 511.741 208.392 513.451 209.703 514.819C219.108 506.953 225.15 491.449 227.886 476.629L222.585 474.178ZM181.032 493.672L182.685 500.227C188.727 498.46 196.536 496.123 203.718 493.9L202.806 487.858C194.94 490.081 186.618 492.418 181.032 493.672ZM191.292 462.607V516.13H197.562V462.607H191.292ZM183.768 465.856C183.255 472.639 182.286 479.764 180.462 484.324C181.83 485.008 184.281 486.604 185.307 487.402C187.359 482.329 188.727 474.349 189.468 466.825L183.768 465.856ZM185.307 473.608L184.053 480.163H202.293V473.608H185.307ZM251.256 511.456V515.047H284.715V511.456H251.256ZM251.256 506.554V509.917H284.715V506.554H251.256ZM243.105 490.081V494.413H293.151V490.081H243.105ZM245.898 496.237V516.13H252.054V499.771H283.86V516.13H290.301V496.237H245.898ZM253.536 467.794C252.795 469.732 251.598 471.67 249.945 473.152C250.914 473.608 252.567 474.634 253.308 475.204C254.961 473.551 256.557 471.1 257.412 468.706L253.536 467.794ZM270.066 474.748V478.624H286.482V474.748H270.066ZM253.707 470.302V473.38H266.361V470.302H253.707ZM250.401 475.09V478.339H267.33V475.09H250.401ZM274.113 463.975V468.535H284.259V463.975H274.113ZM285.285 474.748V475.375C282.948 481.132 276.336 484.324 268.527 485.521C269.439 486.547 270.579 488.428 271.092 489.625C280.155 487.744 287.451 483.925 290.529 475.717L287.28 474.634L286.311 474.748H285.285ZM276.336 478.225L271.263 479.479C274.911 485.521 281.409 488.998 290.7 490.309C291.384 488.827 292.866 486.604 294.063 485.521C285.684 484.78 279.243 482.443 276.336 478.225ZM271.662 463.975V466.882C271.662 468.877 271.035 470.644 266.703 472.183C267.672 472.924 269.667 475.09 270.294 476.23C275.595 473.893 276.849 470.473 276.849 467.11V463.975H271.662ZM281.808 463.975V468.307C281.808 471.157 282.15 472.183 282.948 472.981C283.689 473.836 285.171 474.178 286.368 474.178C287.052 474.178 288.135 474.178 288.819 474.178C289.617 474.178 290.643 474.121 291.27 473.836C292.068 473.494 292.695 473.038 293.037 472.411C293.436 471.841 293.664 470.473 293.835 469.105C292.524 468.706 290.814 467.851 289.902 467.053C289.845 468.022 289.788 468.82 289.674 469.162C289.56 469.561 289.389 469.675 289.218 469.732C289.104 469.846 288.819 469.846 288.591 469.846C288.306 469.846 287.907 469.846 287.679 469.846C287.451 469.846 287.28 469.789 287.166 469.618C286.995 469.447 287.052 469.048 287.052 468.307V463.975H281.808ZM257.013 471.784V475.546C257.013 477.541 256.215 480.277 250.287 481.702C251.256 482.5 252.453 483.811 253.023 484.78C259.92 482.386 261.231 478.624 261.231 475.66V471.784H257.013ZM260.034 492.589V497.719C260.034 499.885 258.894 502.336 252.111 503.476C253.251 504.388 254.619 506.041 255.303 507.181C263.226 505.072 265.221 501.538 265.221 497.776V492.589H260.034ZM269.895 492.532V500.398C269.895 504.103 271.149 505.015 276.222 505.015C277.305 505.015 281.979 505.015 283.062 505.015C286.197 505.015 287.565 504.388 287.907 502.564C286.653 502.393 284.829 501.994 283.803 501.481C283.689 501.823 283.347 501.88 282.378 501.88C281.409 501.88 277.704 501.88 276.963 501.88C275.424 501.88 275.139 501.709 275.139 500.455V492.532H269.895ZM257.298 479.536C259.806 480.961 262.941 483.127 264.537 484.552L267.159 481.816C265.506 480.334 262.314 478.339 259.806 477.028L257.298 479.536ZM268.185 464.488H244.53V488.371H268.641V484.495H249.603V468.364H268.185V464.488ZM333.507 462.892V471.841H340.176V462.892H333.507ZM320.853 468.877V480.163H326.895V474.691H347.529V480.106H353.856V468.877H320.853ZM325.071 479.308V485.179H349.467V479.308H325.071ZM321.651 489.283V495.382H353.628V489.283H321.651ZM328.092 492.247C327.75 502.165 326.838 507.637 316.521 510.715C317.832 511.969 319.542 514.477 320.112 516.13C332.367 512.026 334.077 504.502 334.59 492.247H328.092ZM338.58 491.563V507.808C338.58 513.679 339.72 515.617 344.736 515.617C345.648 515.617 347.529 515.617 348.555 515.617C352.545 515.617 354.141 513.451 354.711 505.414C353.001 505.015 350.265 503.932 349.011 502.906C348.897 508.72 348.726 509.632 347.814 509.632C347.415 509.632 346.218 509.632 345.876 509.632C345.135 509.632 345.021 509.404 345.021 507.751V491.563H338.58ZM303.297 465.058V516.187H309.282V471.157H316.749V465.058H303.297ZM314.64 465.058V466.996C313.842 470.644 312.018 478.51 310.422 483.64C313.671 487.459 314.412 490.993 314.412 493.672C314.412 495.268 314.127 496.408 313.443 496.921C313.044 497.263 312.474 497.377 311.847 497.377C311.163 497.434 310.422 497.377 309.396 497.32C310.308 498.973 310.821 501.538 310.878 503.191C312.189 503.191 313.557 503.134 314.583 503.02C315.837 502.849 316.92 502.45 317.832 501.823C319.656 500.569 320.397 498.175 320.397 494.47C320.397 491.164 319.713 487.345 316.179 482.899C317.832 478.453 319.713 472.24 321.195 467.338L316.749 464.83L315.78 465.058H314.64Z" fill="white"/>
</svg>
