<svg width="277" height="150" viewBox="0 0 277 150" fill="none" xmlns="http://www.w3.org/2000/svg">
<g clip-path="url(#clip0_2214_91)">
<path fill-rule="evenodd" clip-rule="evenodd" d="M0 0H277V120H257.919L238 150L218.081 120H0V0ZM52.416 40.448V41.852H55.368V40.448H52.416ZM58.968 40.448H62.892V37.928H58.968V36.524H63.864V33.68H59.2915C59.3464 33.5833 59.4019 33.4857 59.4578 33.3872C59.7412 32.8882 60.0364 32.3682 60.336 31.844L57.5421 31.232H62.6663C63.6846 31.8258 65.4266 33.1179 66.132 33.788C67.3151 31.912 68.2839 29.5203 69.0646 26.84H69.408V30.656C69.4417 33.9915 68.4348 41.2054 63.4069 45.776H58.968V44.372H62.892V41.852H58.968V40.448ZM55.368 44.372H52.416V45.776H55.368V44.372ZM52.416 48.692V50.132H48.78V41.6447C48.4169 42.1301 48.0442 42.5852 47.664 43.004C47.268 42.176 46.152 40.376 45.504 39.584C47.4122 37.5023 49.0195 34.4176 49.9713 31.232H47.124V24.032H54.792V31.232H51.4329L53.604 31.808C53.4105 32.4314 53.1978 33.0573 52.9676 33.68H55.7141C56.0262 32.8491 56.3113 31.9679 56.5018 31.232H55.872V24.032H63.72V29.2236C65.3581 25.789 66.3033 21.1012 66.78 16.364L71.028 16.976C70.7688 19.0046 70.439 21.019 70.031 22.952H75.708H76.32L76.932 22.7L79.776 23.708C79.416 27.236 78.732 31.232 77.868 33.932L74.808 32.204C75.0847 30.7743 75.3171 28.8128 75.4863 26.84H73.548V30.656C73.512 34.148 74.664 42.104 80.064 46.496C79.308 47.396 78.12 49.196 77.508 50.24C73.62 47.144 71.856 41.06 71.496 38C71.028 41.132 68.976 47.036 64.692 50.24C64.4912 49.8385 64.158 49.2713 63.786 48.692H52.416ZM55.368 36.524V37.928H52.416V36.524H55.368ZM49.932 18.56H46.26V21.692H49.932V23.456H53.676V21.692H57.06V23.456H60.876V21.692H64.692V18.56H60.876V16.472H57.06V18.56H53.676V16.472H49.932V18.56ZM49.932 28.676V26.552H51.804V28.676H49.932ZM58.68 28.676V26.552H60.732V28.676H58.68ZM97.272 42.068V30.476H89.496V34.472H93.24V42.4445C91.8375 43.6542 90.2965 44.8628 88.992 45.776L91.044 49.916C91.1649 49.8003 91.2844 49.6859 91.4028 49.5726C92.9413 48.1002 94.2737 46.8251 95.544 45.488C97.704 48.296 100.656 49.376 105.048 49.556C109.548 49.736 117.54 49.664 122.148 49.448C122.328 48.26 122.976 46.352 123.444 45.416C118.332 45.812 109.476 45.92 105.012 45.74C101.304 45.56 98.676 44.516 97.272 42.068ZM92.664 17.228L89.28 19.352C91.116 21.188 93.276 23.816 94.104 25.58L97.776 23.168C96.804 21.368 94.572 18.92 92.664 17.228ZM117.72 18.632H109.98V19.5242L107.1 16.436C105.911 17.4418 104.078 18.6024 102.298 19.5027L100.224 18.956V37.0051C99.472 37.1737 98.7701 37.3265 98.136 37.46L99.252 41.276C102.168 40.52 105.84 39.548 109.188 38.612L108.72 34.94C107.202 35.3373 105.661 35.7234 104.184 36.0807V22.4467C106.101 21.6959 108.165 20.7537 109.98 19.7028V44.66H113.904V22.268H117.72V36.92C117.72 37.316 117.576 37.46 117.18 37.46C116.784 37.496 115.56 37.496 114.336 37.46C114.876 38.396 115.38 40.016 115.56 41.06C117.648 41.06 119.16 41.024 120.276 40.412C121.392 39.764 121.716 38.756 121.716 36.992V18.632H119.916H117.72ZM146.988 20.936H133.848V25.148H146.988V33.528C143.839 38.403 138.199 42.9156 132.3 45.2C133.272 46.064 134.676 47.828 135.36 48.908C139.684 46.9159 143.73 43.7598 146.988 39.9596V50.24H151.524V39.7301C154.796 43.6064 158.888 46.8618 163.26 48.872C163.98 47.648 165.384 45.848 166.464 44.912C161.036 42.9238 155.829 39.0822 152.59 34.8178C153.583 35.3635 154.812 36.143 155.448 36.668C156.314 35.8022 157.124 34.7555 157.852 33.5695C159.658 35.0681 161.514 36.6485 162.54 37.748L165.528 34.76C164.189 33.5087 161.698 31.5987 159.614 30.0189C160.101 28.7878 160.506 27.4788 160.812 26.12L156.636 25.364C155.913 28.8427 154.333 32.0579 152.085 34.1266C151.889 33.8477 151.702 33.5674 151.524 33.286V25.148H165.168V20.936H151.524V16.436H146.988V20.936ZM140.76 33.7551C139.583 35.7173 138.189 37.4044 136.62 38.72C135.9 37.928 134.244 36.524 133.272 35.876C136.44 33.572 138.636 29.756 139.644 25.364L143.856 26.156C143.511 27.5172 143.084 28.8276 142.582 30.0711C143.886 31.1897 145.254 32.4002 146.052 33.248L143.208 36.272C142.636 35.5856 141.731 34.6772 140.76 33.7551ZM194.436 18.704H176.076V22.556H180.826C180.374 24.2928 179.758 26.243 179.13 27.927C177.997 27.9537 176.946 27.9756 176.004 27.992L176.256 31.988C180.303 31.8194 185.834 31.5876 191.222 31.2927C191.569 31.9631 191.856 32.5898 192.06 33.14L195.48 31.196C194.58 28.928 192.276 25.616 190.26 23.168L187.056 24.86C187.715 25.7102 188.397 26.6641 189.045 27.6406C187.128 27.7043 185.23 27.763 183.428 27.8143C184.159 26.1704 184.915 24.332 185.633 22.5871C185.637 22.5767 185.642 22.5664 185.646 22.556H194.436V18.704ZM183.132 35.84H177.156V39.692H183.132V44.3214C180.34 44.6326 177.77 44.9035 175.68 45.092L176.328 49.412C181.26 48.8 188.172 47.9 194.616 47.036L194.508 43.004L193.896 43.076C191.752 43.3283 189.559 43.5863 187.416 43.834V39.692H193.32V35.84H187.416V32.348H183.132V35.84ZM199.908 20.828H195.768V41.204H199.908V20.828ZM208.188 17.444H203.976V45.056C203.976 45.704 203.76 45.884 203.112 45.92C202.998 45.92 202.846 45.9209 202.663 45.922C201.695 45.9278 199.853 45.9388 198.036 45.848C198.648 47.072 199.26 49.016 199.44 50.24C202.5 50.24 204.84 50.096 206.28 49.412C207.72 48.728 208.188 47.54 208.188 45.092V17.444ZM223.596 49.088L224.748 51.968C229.212 50.636 231.876 47.324 231.876 43.256C231.876 40.232 230.508 38.288 227.988 38.288C226.044 38.288 224.424 39.512 224.424 41.528C224.424 43.616 226.08 44.768 227.88 44.768C228.004 44.768 228.127 44.7618 228.249 44.7493C228.024 46.608 226.397 48.1877 223.596 49.088ZM61.164 84.156H53.388V75.804H72.684V84.156H65.628V86.316H72.108H74.16H76.536V93.732C76.536 95.676 76.14 96.792 74.7 97.404C73.26 98.016 71.316 98.052 68.724 98.052C68.508 96.864 67.896 95.208 67.32 94.128C68.94 94.2 70.884 94.2 71.388 94.2C71.928 94.164 72.108 94.056 72.108 93.66V90.168H65.628V99.24H61.164V90.168H54.288V97.656H49.932V86.316H61.164V84.156ZM57.528 81.096V78.864H68.256V81.096H57.528ZM65.16 65.4H60.696V70.368H55.0038L56.952 69.504C56.448 68.388 55.368 66.804 54.324 65.652L50.4 67.2C51.1264 68.1147 51.8929 69.3309 52.3993 70.368H47.52V79.08H51.66V74.076H74.304V79.08H78.588V70.368H73.102C74 69.4755 75.052 68.3193 76.104 67.092L71.46 65.688C70.848 66.876 69.768 68.532 68.868 69.648L70.888 70.368H65.16V65.4ZM98.64 78.288V76.056H113.76V78.288H98.64ZM98.64 84.048V81.816H113.76V84.048H98.64ZM98.64 72.564V70.332H113.76V72.564H98.64ZM118.152 66.552H94.464V87.828H98.8658C98.2859 91.7756 96.727 94.1451 89.244 95.532C90.144 96.468 91.296 98.232 91.656 99.384C100.645 97.3532 102.768 93.5677 103.521 87.828H107.856V93.552C107.856 97.656 108.9 98.952 113.22 98.952H117.972C121.572 98.952 122.724 97.476 123.192 91.752C122.004 91.464 120.096 90.744 119.232 90.024C119.052 94.272 118.836 94.884 117.576 94.884H113.796C112.5 94.884 112.248 94.704 112.248 93.552V87.828H118.152V66.552ZM156.276 82.788H146.268H144.108H142.272V96.18H146.268V94.128H156.276V82.788ZM146.268 90.6H152.244V86.316H146.268V90.6ZM138.528 74.976V76.992H144.072V74.976H138.528ZM144.072 72.024V70.116H138.528V72.024H144.072ZM138.528 66.804H148.104V80.304H138.528V99.24H134.244V66.804H136.728H138.528ZM154.656 74.976V77.064H160.38V74.976H154.656ZM160.38 72.024V70.08H154.656V72.024H160.38ZM160.38 66.804H150.552V80.34H160.38V94.02C160.38 94.668 160.128 94.92 159.444 94.92C159.339 94.92 159.192 94.9208 159.011 94.9219C158.008 94.9277 155.956 94.9394 154.188 94.848C154.8 95.964 155.52 98.016 155.664 99.24C158.976 99.24 161.244 99.168 162.756 98.448C164.232 97.728 164.736 96.504 164.736 94.056V66.804H162.72H160.38ZM181.62 75.876V74.148H186.732V75.876H181.62ZM181.62 71.412V69.72H186.732V71.412H181.62ZM190.728 66.84H177.804V78.792H190.728V66.84ZM192.348 80.844H176.112V84.012H182.844V92.2587C182.11 91.5101 181.497 90.5685 181.001 89.3843C181.115 88.0922 181.18 86.7605 181.224 85.416H177.768C177.66 89.772 177.3 94.02 175.248 96.54C176.112 97.188 177.264 98.556 177.768 99.456C179.023 97.9702 179.816 96.053 180.324 93.8812C183.202 97.8422 187.69 98.556 194.508 98.556H208.404C208.62 97.476 209.232 95.82 209.808 94.992C206.856 95.136 196.92 95.136 194.508 95.136C191.281 95.1202 188.603 94.9932 186.444 94.3426V90.024H191.7V86.928H186.444V84.012H192.348V80.844ZM208.8 66.948H192.204V69.972H198.573C198.392 70.614 198.191 71.2652 197.985 71.88H193.32V88.368H204.3L201.348 89.916C203.148 91.248 205.38 93.336 206.496 94.776L209.592 92.94C208.476 91.572 206.244 89.628 204.3 88.368H207.72V71.88H201.608C201.886 71.2709 202.172 70.625 202.455 69.972H208.8V66.948ZM197.172 80.952V79.26H203.724V80.952H197.172ZM197.172 85.416V83.688H203.724V85.416H197.172ZM197.172 76.488V74.796H203.724V76.488H197.172ZM199.8 89.7L196.236 88.62C195.012 90.096 192.852 91.572 190.692 92.508C191.484 93.084 192.852 94.344 193.464 95.028C195.696 93.804 198.252 91.752 199.8 89.7ZM220.824 87.468H225.108L226.008 70.296H219.924L220.824 87.468ZM220.752 91.176C220.152 91.608 219.852 92.376 219.852 93.48C219.852 94.536 220.152 95.304 220.752 95.784C221.352 96.24 222.084 96.468 222.948 96.468C223.788 96.468 224.508 96.24 225.108 95.784C225.708 95.304 226.008 94.536 226.008 93.48C226.008 92.376 225.708 91.608 225.108 91.176C224.508 90.72 223.788 90.492 222.948 90.492C222.084 90.492 221.352 90.72 220.752 91.176Z" fill="white"/>
</g>
<defs>
<clipPath id="clip0_2214_91">
<rect width="277" height="150" fill="white"/>
</clipPath>
</defs>
</svg>
