<svg width="690" height="120" viewBox="0 0 690 120" fill="none" xmlns="http://www.w3.org/2000/svg">
<g clip-path="url(#clip0_2214_104)">
<path fill-rule="evenodd" clip-rule="evenodd" d="M653 0H0V120H653V0ZM60.3008 69.9004V71.8496H64.4004V69.9004H60.3008ZM69.4004 69.9004H74.8496V66.4004H69.4004V64.4492H76.1992V60.5H69.8496C70.3125 59.6855 70.8027 58.8223 71.3008 57.9492L67.416 57.0996H74.5332C75.9473 57.9219 78.3691 59.7188 79.3496 60.6504C80.9922 58.0449 82.3398 54.7227 83.4238 51H83.9004V56.3008C83.9453 60.9336 82.5488 70.9512 75.5664 77.3008H69.4004V75.3496H74.8496V71.8496H69.4004V69.9004ZM64.4004 75.3496H60.3008V77.3008H64.4004V75.3496ZM60.3008 81.3496V83.3496H55.25V71.5605C54.7461 72.2344 54.2285 72.8672 53.6992 73.4492C53.1504 72.3008 51.5996 69.8008 50.6992 68.6992C53.3496 65.8086 55.584 61.5234 56.9062 57.0996H52.9492V47.0996H63.5996V57.0996H58.9336L61.9492 57.9004C61.6816 58.7656 61.3867 59.6348 61.0664 60.5H64.8809C65.3145 59.3457 65.7109 58.1211 65.9766 57.0996H65.0996V47.0996H76V54.3086C78.2754 49.5391 79.5879 43.0293 80.25 36.4492L86.1504 37.3008C85.791 40.1172 85.332 42.916 84.7656 45.5996H92.6504H93.5L94.3496 45.25L98.3008 46.6504C97.8008 51.5508 96.8496 57.0996 95.6504 60.8496L91.4004 58.4492C91.7852 56.4648 92.1074 53.7402 92.3418 51H89.6504V56.3008C89.5996 61.1504 91.1992 72.1992 98.6992 78.3008C97.6504 79.5508 96 82.0508 95.1504 83.5C89.75 79.1992 87.3008 70.75 86.8008 66.5C86.1504 70.8496 83.3008 79.0508 77.3496 83.5C77.0703 82.9414 76.6152 82.1543 76.0996 81.3496H60.3008ZM64.4004 64.4492V66.4004H60.3008V64.4492H64.4004ZM56.8496 39.5H51.75V43.8496H56.8496V46.3008H62.0508V43.8496H66.75V46.3008H72.0508V43.8496H77.3496V39.5H72.0508V36.5996H66.75V39.5H62.0508V36.5996H56.8496V39.5ZM56.8496 53.5508V50.5996H59.4492V53.5508H56.8496ZM69 53.5508V50.5996H71.8496V53.5508H69ZM122.6 72.1504V56.0508H111.801V61.5996H117V72.6738C115.053 74.3535 112.912 76.0312 111.1 77.3008L113.949 83.0508L114.395 82.625C116.555 80.5586 118.422 78.7734 120.199 76.9004C123.199 80.8008 127.301 82.3008 133.4 82.5508C136 82.6543 139.441 82.6973 143.033 82.6914C148.074 82.6816 153.414 82.5742 157.15 82.4004C157.4 80.75 158.301 78.0996 158.949 76.8008C151.85 77.3496 139.551 77.5 133.35 77.25C128.199 77 124.551 75.5508 122.6 72.1504ZM116.199 37.6504L111.5 40.5996C114.051 43.1504 117.051 46.8008 118.199 49.25L123.301 45.9004C121.949 43.4004 118.85 40 116.199 37.6504ZM151 39.5996H140.25V40.8379L136.25 36.5508C134.6 37.9473 132.051 39.5605 129.578 40.8105L126.699 40.0508V65.1172C125.654 65.3516 124.682 65.5645 123.801 65.75L125.35 71.0508C129.4 70 134.5 68.6504 139.15 67.3496L138.5 62.25C136.391 62.8027 134.25 63.3379 132.199 63.834V44.8984C134.861 43.8555 137.729 42.5488 140.25 41.0879V75.75H145.699V44.6504H151V65C151 65.5508 150.801 65.75 150.25 65.75C149.916 65.7812 149.156 65.793 148.23 65.7852C147.633 65.7812 146.967 65.7695 146.301 65.75C147.051 67.0508 147.75 69.3008 148 70.75C150.9 70.75 153 70.6992 154.551 69.8496C155.307 69.4102 155.801 68.8535 156.109 68.1113C156.434 67.334 156.551 66.3555 156.551 65.0996V39.5996H154.051H151ZM191.65 42.8008H173.4V48.6504H191.65V60.2871C187.277 67.0586 179.443 73.3281 171.25 76.5C172.6 77.6992 174.551 80.1504 175.5 81.6504C181.506 78.8828 187.125 74.5 191.65 69.2207V83.5H197.949V68.9023C202.494 74.2871 208.178 78.8066 214.25 81.5996C215.25 79.9004 217.199 77.4004 218.699 76.0996C211.16 73.3379 203.93 68.002 199.43 62.0801C200.809 62.8379 202.518 63.9199 203.4 64.6504C204.604 63.4473 205.727 61.9941 206.738 60.3457C209.248 62.4277 211.824 64.623 213.25 66.1504L217.4 62C215.541 60.2617 212.08 57.6113 209.186 55.416C209.861 53.707 210.426 51.8867 210.85 50L205.051 48.9492C204.045 53.7812 201.85 58.248 198.729 61.1211C198.457 60.7344 198.197 60.3438 197.949 59.9531V48.6504H216.9V42.8008H197.949V36.5508H191.65V42.8008ZM183 60.6035C181.365 63.3281 179.43 65.6719 177.25 67.5C176.25 66.4004 173.949 64.4492 172.6 63.5508C177 60.3496 180.051 55.0508 181.449 48.9492L187.301 50.0508C186.822 51.9414 186.229 53.7617 185.531 55.4883C187.342 57.041 189.242 58.7227 190.35 59.9004L186.4 64.0996C185.605 63.1465 184.35 61.8848 183 60.6035ZM257.551 39.6992H232.051V45.0508H238.646C238.02 47.4629 237.162 50.1719 236.291 52.5098C234.717 52.5469 233.258 52.5762 231.949 52.5996L232.301 58.1504C237.922 57.916 245.604 57.5938 253.086 57.1836C253.568 58.1152 253.967 58.9863 254.25 59.75L259 57.0508C258.219 55.0801 256.674 52.543 254.939 50.0859C253.902 48.6152 252.799 47.1738 251.75 45.9004L247.301 48.25C248.215 49.4316 249.162 50.7559 250.062 52.1113C247.4 52.1992 244.764 52.2812 242.26 52.3535C243 50.6895 243.76 48.8809 244.502 47.084L245.342 45.0508H257.551V39.6992ZM241.85 63.5H233.551V68.8496H241.85V75.2793C237.971 75.7109 234.402 76.0879 231.5 76.3496L232.4 82.3496C239.25 81.5 248.85 80.25 257.801 79.0508L257.65 73.4492C254.404 73.832 251.061 74.2266 247.801 74.6035V68.8496H256V63.5H247.801V58.6504H241.85V63.5ZM265.15 42.6504H259.4V70.9492H265.15V42.6504ZM276.65 37.9492H270.801V76.3008C270.801 77.1992 270.5 77.4492 269.6 77.5C268.98 77.5 267.574 77.5195 265.881 77.498C264.842 77.4844 263.693 77.457 262.551 77.4004C263.4 79.0996 264.25 81.8008 264.5 83.5C268.75 83.5 272 83.3008 274 82.3496C276 81.4004 276.65 79.75 276.65 76.3496V37.9492ZM298.051 81.9004L299.65 85.9004C305.85 84.0508 309.551 79.4492 309.551 73.8008C309.551 69.5996 307.65 66.9004 304.15 66.9004C301.449 66.9004 299.199 68.5996 299.199 71.4004C299.199 74.3008 301.5 75.9004 304 75.9004C304.172 75.9004 304.344 75.8926 304.514 75.875C304.201 78.457 301.939 80.6504 298.051 81.9004ZM398.551 65.0508L393.75 61.4492C392.594 62.959 390.863 64.8145 389.164 66.4551C388.18 64.4863 387.445 62.4453 386.9 60.4727V60.3008H396.4V41.5H386.047C386.803 40.2461 387.576 38.873 388.301 37.5L381.5 36.4492C381.182 37.7188 380.666 39.2207 380.094 40.666C379.982 40.9473 379.869 41.2246 379.756 41.5H371.9V60.3008H381.551V64.6992L378.6 63.5L377.801 63.6504H377.699H376.65H371.002L371.551 63.4004C370.949 60.5508 369.051 56.1504 367.051 52.75L362.9 54.5C363.439 55.5039 363.969 56.6074 364.463 57.7363C362.984 57.8262 361.523 57.9121 360.1 57.9941C363.271 53.9531 366.701 48.9688 369.449 44.75L364.6 42.5C363.387 44.9492 361.773 47.8086 360.023 50.6211C359.576 49.9902 359.053 49.3281 358.482 48.6621C360.102 46.1094 361.947 42.5977 363.66 39.3359L364.15 38.4004L358.949 36.5996C358.092 39.1738 356.68 42.5273 355.289 45.3105C354.904 44.9414 354.523 44.5859 354.15 44.25L351.199 48.25C353.225 50.3164 355.547 53.0391 356.939 55.3008C356.199 56.3594 355.459 57.3691 354.738 58.2969C354.039 58.3359 353.365 58.373 352.721 58.4082L351.051 58.5L351.699 63.6504L356.068 63.3242C356.924 63.2598 357.803 63.1934 358.699 63.127V83.5H363.85V62.7383C364.662 62.6777 365.477 62.6172 366.291 62.5547C366.627 63.6172 366.891 64.6055 367.051 65.4492L370.6 63.834V68.5508H375.404C373.748 72.5703 371.041 75.6406 367.699 77.5C368.801 78.3008 370.65 80.3496 371.4 81.5C376.031 78.6348 379.705 73.4023 381.551 65.8848V77.75C381.551 77.9414 381.529 78.0801 381.469 78.1797C381.371 78.3418 381.172 78.4004 380.801 78.4004C380.25 78.4004 378.4 78.4004 376.65 78.3496C377.301 79.8496 377.949 82 378.1 83.5C381.15 83.5 383.301 83.4004 384.949 82.5996C386.551 81.75 386.9 80.3496 386.9 77.8008V72.0098C388.926 75.7617 391.771 79.2539 395.699 81.4492C396.285 80.2773 397.482 78.6484 398.504 77.4648C398.789 77.1348 399.061 76.8398 399.301 76.5996C396.107 75.1934 393.633 73.0547 391.721 70.5703C393.836 68.9863 396.252 66.957 398.551 65.0508ZM377.301 55.6504V53.0508H390.699V55.6504H377.301ZM377.301 48.75V46.0996H390.699V48.75H377.301ZM368.449 65.75L364.25 67.0508C364.791 68.4043 365.297 69.9766 365.688 71.5C366.092 73.0684 366.373 74.582 366.449 75.75L370.9 74.3496C370.752 73.1895 370.434 71.75 370.01 70.2598C369.576 68.7285 369.031 67.1426 368.449 65.75ZM358 66.75L353.199 65.9492C352.801 70.1504 352.051 74.6504 350.65 77.5996C351.801 78.0996 354 79.0508 355 79.6992C356.449 76.5 357.5 71.5508 358 66.75ZM436.6 57.5996V75H457.85V81.0508H412.15V75H430.15V37.1504H436.6V51.5508H454.35V57.5996H436.6ZM486.6 38.6504H472.449V43.8496H484.156C483.162 45.2773 482.031 46.707 480.916 47.8848C479.359 47.0176 477.781 46.2129 476.35 45.5508L473.35 49.5C475.654 50.6387 478.27 52.1621 480.549 53.7207C481.049 54.0625 481.533 54.4082 481.996 54.75H471.301V60.0508H478.75V76.9492C478.75 77.5508 478.551 77.6992 477.85 77.6992C477.15 77.6992 474.801 77.6992 472.65 77.6504C473.449 79.25 474.25 81.6992 474.449 83.4004C477.85 83.4004 480.35 83.3008 482.15 82.3496C484.051 81.4492 484.5 79.8496 484.5 77.0996V60.0508H487.543C486.973 62.4004 486.342 64.6758 485.801 66.3008L490.25 67.3008C491.35 64.3008 492.75 59.5996 493.801 55.4004L490.1 54.5508L489.301 54.75H488.551H486.949L488.301 52.9004C487.506 52.1523 486.445 51.3418 485.236 50.5234C487.789 47.8711 490.389 44.4512 492.35 41.3477V43.5508H501.883C501.75 44.6465 501.576 45.8008 501.389 46.9004H494.051V73.4492H516.449V46.9004H507.385C507.744 45.8398 508.113 44.707 508.475 43.5508H517.949V38.5H492.35V40.7715L488.949 38.3496L487.85 38.6504H486.6ZM499.551 61.75V58.5508H510.699V61.75H499.551ZM499.551 69.0508V65.8496H510.699V69.0508H499.551ZM499.551 54.4492V51.3008H510.699V54.4492H499.551ZM503.85 76.6992L498.949 73.5C496.75 75.6504 492.35 78.3496 488.449 79.75C489.75 80.75 491.5 82.5508 492.449 83.6504C496.35 82.1504 501.1 79.3496 503.85 76.6992ZM510.65 73.8496L506.199 76.8496C509.051 78.8496 512.75 81.8008 514.5 83.6504L519.199 80.3008C517.25 78.4004 513.449 75.6504 510.65 73.8496ZM559.449 56.75L554.65 59.1992C557.199 62.8008 559.85 67.6504 560.75 70.75L566 68.0508C564.9 64.8496 562.051 60.1992 559.449 56.75ZM557.709 50.6992C556.385 53.1895 554.943 55.4102 553.449 57.1992C552.396 56.3203 550.221 54.8242 548.691 53.8984C550.443 57.0371 552.076 60.7363 552.65 63.3008L548.1 65.4004C547.936 64.6152 547.676 63.7031 547.346 62.7188C546.412 62.791 545.479 62.8613 544.551 62.9297V83.5508H539.199V63.3145C539.111 63.3203 539.023 63.3262 538.936 63.332C536.344 63.5117 533.9 63.6699 531.75 63.8008L531.25 58.5996C532.369 58.5625 533.621 58.5195 534.967 58.4668C535.738 57.498 536.527 56.4355 537.316 55.3184C535.82 53.0957 533.393 50.4199 531.301 48.4492L534.1 44.3008C534.492 44.6348 534.895 44.9883 535.297 45.3555C536.713 42.5762 538.139 39.2227 539 36.5996L544.301 38.4492C542.467 41.9375 540.395 45.8672 538.58 48.625C539.244 49.3555 539.848 50.0742 540.35 50.7441C542.135 47.8887 543.771 44.9805 545 42.5L550.051 44.5996C547.199 49.0273 543.639 54.1699 540.393 58.2402C542.039 58.168 543.746 58.0879 545.473 58.0039C544.928 56.8027 544.342 55.623 543.75 54.5508L548 52.6992C548.115 52.8926 548.23 53.0898 548.346 53.2891C552.031 49.3145 554.984 42.9082 556.6 36.5L562.801 37.8496C562.111 40.293 561.277 42.7246 560.334 45.0508H571.699H574.25H577.5C577.5 45.0508 577.5 47.0508 577.449 47.8008C576.699 69.8496 576.051 77.8008 573.949 80.4492C573.379 81.2246 572.816 81.7754 572.209 82.1797C571.324 82.7656 570.344 83.043 569.1 83.25C567.25 83.5 564.199 83.5 561.25 83.3496C561.15 81.6504 560.35 79.0508 559.25 77.3496C562.4 77.5996 565.301 77.5996 566.6 77.5996C567.6 77.5996 568.199 77.4492 568.75 76.75C570.275 75.1797 570.988 67.8496 571.561 50.6992H557.709ZM549.051 65.6504L544.65 67.0996C545.85 70.1504 547.15 74.1992 547.6 76.8008L552.301 75.0996C551.699 72.5508 550.35 68.6504 549.051 65.6504ZM538.35 66.8008L533.4 65.9492C533 70.1992 532.199 74.6504 530.75 77.5996C531.26 77.8027 531.934 78.0977 532.625 78.4199C533.633 78.8887 534.678 79.416 535.301 79.8008C536.75 76.5996 537.85 71.5996 538.35 66.8008ZM594.199 67.1504H600.15L601.4 43.3008H592.949L594.199 67.1504ZM593.152 73.5781C592.951 74.1055 592.85 74.7461 592.85 75.5C592.85 76.3848 593.002 77.123 593.305 77.7168C593.504 78.1074 593.77 78.4355 594.1 78.6992C594.934 79.334 595.949 79.6504 597.15 79.6504C597.818 79.6504 598.434 79.5469 598.994 79.3379C599.41 79.1836 599.795 78.9707 600.15 78.6992C600.982 78.0332 601.4 76.9668 601.4 75.5C601.4 74.4746 601.213 73.6582 600.84 73.0508C600.656 72.75 600.426 72.5 600.15 72.3008C599.316 71.666 598.316 71.3496 597.15 71.3496C595.949 71.3496 594.934 71.666 594.1 72.3008C593.676 72.6055 593.359 73.0312 593.152 73.5781Z" fill="white"/>
<path d="M690 64.7364L652.5 89.8056L652.5 39.6673L690 64.7364Z" fill="white"/>
</g>
<defs>
<clipPath id="clip0_2214_104">
<rect width="690" height="120" fill="white"/>
</clipPath>
</defs>
</svg>
