<svg width="690" height="120" viewBox="0 0 690 120" fill="none" xmlns="http://www.w3.org/2000/svg">
<g clip-path="url(#clip0_2214_103)">
<path fill-rule="evenodd" clip-rule="evenodd" d="M0 0H653V40.0019L690 64.7368L653 89.4717V120H0V0ZM60.3 71.85V69.9H64.4V71.85H60.3ZM74.85 69.9H69.4V71.85H74.85V75.35H69.4V77.3H75.5651C82.5484 70.952 83.9468 60.9326 83.9 56.3V51H83.423C82.3387 54.7226 80.9931 58.0444 79.35 60.65C78.3703 59.7193 75.9509 57.9247 74.5366 57.1H67.4196L71.3 57.95C70.8839 58.6781 70.4739 59.4002 70.0803 60.0934L69.8493 60.5H76.2V64.45H69.4V66.4H74.85V69.9ZM60.3 75.35H64.4V77.3H60.3V75.35ZM60.3 83.35V81.35H76.0917C76.6083 82.1546 77.0712 82.9423 77.35 83.5C83.3 79.05 86.15 70.85 86.8 66.5C87.3 70.75 89.75 79.2 95.15 83.5C96 82.05 97.65 79.55 98.7 78.3C91.2 72.2 89.6 61.15 89.65 56.3V51H92.3421C92.1071 53.74 91.7843 56.4643 91.4 58.45L95.65 60.85C96.85 57.1 97.8 51.55 98.3 46.65L94.35 45.25L93.5 45.6H92.65H84.7652C85.332 42.9153 85.79 40.1175 86.15 37.3L80.25 36.45C79.5879 43.0294 78.2752 49.5403 76 54.3105V47.1H65.1V57.1H65.9747C65.7102 58.1221 65.3142 59.346 64.8807 60.5H61.0661C61.3858 59.6351 61.6813 58.7659 61.95 57.9L58.9346 57.1H63.6V47.1H52.95V57.1H56.9046C55.5826 61.5244 53.3503 65.8088 50.7 68.7C51.6 69.8 53.15 72.3 53.7 73.45C54.2281 72.8683 54.7457 72.2363 55.25 71.5621V83.35H60.3ZM64.4 66.4V64.45H60.3V66.4H64.4ZM51.75 39.5H56.85V36.6H62.05V39.5H66.75V36.6H72.05V39.5H77.35V43.85H72.05V46.3H66.75V43.85H62.05V46.3H56.85V43.85H51.75V39.5ZM56.85 50.6V53.55H59.45V50.6H56.85ZM69 50.6V53.55H71.85V50.6H69ZM122.6 56.05V72.15C124.55 75.55 128.2 77 133.35 77.25C139.55 77.5 151.85 77.35 158.95 76.8C158.3 78.1 157.4 80.75 157.15 82.4C150.75 82.7 139.65 82.8 133.4 82.55C127.3 82.3 123.2 80.8 120.2 76.9C118.436 78.7572 116.585 80.5282 114.448 82.5733L113.95 83.05L111.1 77.3C112.912 76.0317 115.052 74.353 117 72.6729V61.6H111.8V56.05H122.6ZM111.5 40.6L116.2 37.65C118.85 40 121.95 43.4 123.3 45.9L118.2 49.25C117.05 46.8 114.05 43.15 111.5 40.6ZM140.25 39.6H151H154.05H156.55V65.1C156.55 67.55 156.1 68.95 154.55 69.85C153 70.7 150.9 70.75 148 70.75C147.75 69.3 147.05 67.05 146.3 65.75C148 65.8 149.7 65.8 150.25 65.75C150.8 65.75 151 65.55 151 65V44.65H145.7V75.75H140.25V41.0873C137.729 42.5469 134.862 43.8555 132.2 44.8983V63.8344C134.251 63.3381 136.391 62.8018 138.5 62.25L139.15 67.35C134.5 68.65 129.4 70 125.35 71.05L123.8 65.75C124.681 65.5646 125.656 65.3523 126.7 65.1181V40.05L129.58 40.8094C132.052 39.5589 134.599 37.9469 136.25 36.55L140.25 40.8391V39.6ZM173.4 42.8H191.65V36.55H197.95V42.8H216.9V48.65H197.95V59.9528C198.197 60.3436 198.457 60.7329 198.729 61.1202C201.851 58.247 204.045 53.7816 205.05 48.95L210.85 50C210.425 51.8873 209.862 53.7053 209.185 55.4152C212.081 57.6094 215.541 60.2621 217.4 62L213.25 66.15C211.825 64.6229 209.248 62.4279 206.739 60.3465C205.728 61.9937 204.603 63.4475 203.4 64.65C202.517 63.9208 200.81 62.8381 199.431 62.0803C203.93 68.003 211.161 73.3387 218.7 76.1C217.2 77.4 215.25 79.9 214.25 81.6C208.178 78.8081 202.495 74.2867 197.95 68.9029V83.5H191.65V69.2217C187.125 74.4997 181.506 78.8832 175.5 81.65C174.55 80.15 172.6 77.7 171.25 76.5C179.442 73.3272 187.276 67.0598 191.65 60.2888V48.65H173.4V42.8ZM177.25 67.5C179.429 65.6727 181.366 63.3296 183 60.6043C184.348 61.885 185.606 63.1467 186.4 64.1L190.35 59.9C189.242 58.7225 187.342 57.0413 185.531 55.4876C186.228 53.7606 186.821 51.9405 187.3 50.05L181.45 48.95C180.05 55.05 177 60.35 172.6 63.55C173.95 64.45 176.25 66.4 177.25 67.5ZM232.05 39.7H257.55V45.05H245.341L245.324 45.0925L245.324 45.0927C244.327 47.5163 243.276 50.0699 242.261 52.3532C244.764 52.2819 247.4 52.2004 250.063 52.112C249.163 50.7557 248.215 49.4309 247.3 48.25L251.75 45.9C254.55 49.3 257.75 53.9 259 57.05L254.25 59.75C253.967 58.9859 253.568 58.1154 253.086 57.1842C245.602 57.5939 237.92 57.9158 232.3 58.15L231.95 52.6C233.258 52.5773 234.718 52.5468 236.292 52.5097C237.163 50.1708 238.019 47.4622 238.647 45.05H232.05V39.7ZM233.55 63.5H241.85V58.65H247.8V63.5H256V68.85H247.8V74.6028C250.776 74.2588 253.823 73.9003 256.801 73.5498L257.65 73.45L257.8 79.05C248.85 80.25 239.25 81.5 232.4 82.35L231.5 76.35C234.402 76.0881 237.972 75.712 241.85 75.2797V68.85H233.55V63.5ZM259.4 42.65H265.15V70.95H259.4V42.65ZM270.8 37.95H276.65V76.35C276.65 79.75 276 81.4 274 82.35C272 83.3 268.75 83.5 264.5 83.5C264.25 81.8 263.4 79.1 262.55 77.4C265.073 77.5262 267.632 77.5108 268.977 77.5028C269.231 77.5013 269.441 77.5 269.6 77.5C270.5 77.45 270.8 77.2 270.8 76.3V37.95ZM299.65 85.9L298.05 81.9C301.94 80.6496 304.2 78.4555 304.513 75.874C304.343 75.8914 304.172 75.9 304 75.9C301.5 75.9 299.2 74.3 299.2 71.4C299.2 68.6 301.45 66.9 304.15 66.9C307.65 66.9 309.55 69.6 309.55 73.8C309.55 79.45 305.85 84.05 299.65 85.9ZM361.65 62.55H372.45V65.55H356.85V81.3H362.9V70.9H372.45V83.5H378.65V70.9H387.65V75.75C387.65 76.3 387.4 76.45 386.65 76.5C385.95 76.5 383.25 76.5 381 76.4C381.8 77.9 382.65 80.2 382.95 81.85C386.55 81.85 389.25 81.8 391.25 80.95C393.25 80.1 393.8 78.55 393.8 75.85V65.55H390.5H387.65H378.65V62.55H388.45V50.95H361.65V62.55ZM367.4 55.2V58.3H382.3V55.2H367.4ZM371.8 36.5H378V43.4H385.956L383.15 42.4C384.4 40.85 385.9 38.55 386.75 36.9L393.2 38.85C391.739 40.5546 390.278 42.1605 389.031 43.4H396.65V55.5H390.7V48.55H359.25V55.5H353.5V43.4H360.277C359.574 41.9596 358.509 40.2704 357.5 39L362.95 36.85C364.4 38.45 365.9 40.65 366.6 42.2L363.894 43.4H371.8V36.5ZM424.5 51.3V54.4H445.5V51.3H424.5ZM424.5 62.4H445.5V59.3H424.5V62.4ZM424.5 43.35V46.45H445.5V43.35H424.5ZM418.7 38.1H451.6V67.65H443.4V75.6C443.4 77.2 443.75 77.45 445.55 77.45H450.8C452.55 77.45 452.85 76.6 453.1 70.7C454.3 71.7 456.95 72.7 458.6 73.1C457.95 81.05 456.35 83.1 451.35 83.1H444.75C438.75 83.1 437.3 81.3 437.3 75.6V67.65H431.279C430.233 75.6218 427.284 80.8795 414.8 83.7C414.3 82.1 412.7 79.65 411.45 78.35C421.843 76.4237 424.008 73.1327 424.814 67.65H418.7V38.1ZM490.65 60.65H504.55V76.4H490.65V79.25H485.1V60.65H487.65H490.65ZM498.95 71.5H490.65V65.55H498.95V71.5ZM479.9 52.6V49.8H487.6V52.6H479.9ZM487.6 43.05V45.7H479.9V43.05H487.6ZM493.2 38.45H479.9H477.4H473.95V83.5H479.9V57.2H493.2V38.45ZM502.3 52.7V49.8H510.25V52.7H502.3ZM510.25 43V45.7H502.3V43H510.25ZM496.6 38.45H510.25H513.5H516.3V76.3C516.3 79.7 515.6 81.4 513.55 82.4C511.45 83.4 508.3 83.5 503.7 83.5C503.5 81.8 502.5 78.95 501.65 77.4C504.105 77.527 506.955 77.5106 508.348 77.5026C508.6 77.5012 508.804 77.5 508.95 77.5C509.9 77.5 510.25 77.15 510.25 76.25V57.25H496.6V38.45ZM539.75 48.65V51.05H546.85V48.65H539.75ZM539.75 42.5V44.85H546.85V42.5H539.75ZM534.45 38.5H552.4V55.1H534.45V38.5ZM532.1 57.95H554.65V62.35H546.45V66.4H553.75V70.7H546.45V76.6981C549.449 77.6016 553.168 77.778 557.65 77.8C561 77.8 574.8 77.8 578.9 77.6C578.1 78.75 577.25 81.05 576.95 82.55H557.65C548.18 82.55 541.948 81.5586 537.949 76.0573C537.244 79.0736 536.143 81.7364 534.4 83.8C533.7 82.55 532.1 80.65 530.9 79.75C533.75 76.25 534.25 70.35 534.4 64.3H539.2C539.139 66.1674 539.048 68.017 538.89 69.8115C539.579 71.4562 540.43 72.764 541.45 73.8037V62.35H532.1V57.95ZM554.45 38.65H577.5V42.85H568.688C568.294 43.7569 567.898 44.654 567.512 45.5H576V68.4H571.25H556V45.5H562.479C562.766 44.6461 563.044 43.7416 563.296 42.85H554.45V38.65ZM571.25 68.4C573.95 70.15 577.05 72.85 578.6 74.75L574.3 77.3C572.75 75.3 569.65 72.4 567.15 70.55L571.25 68.4ZM561.35 55.75V58.1H570.45V55.75H561.35ZM561.35 61.9V64.3H570.45V61.9H561.35ZM561.35 49.55V51.9H570.45V49.55H561.35ZM560.05 68.75L565 70.25C562.85 73.1 559.3 75.95 556.2 77.65C555.35 76.7 553.45 74.95 552.35 74.15C555.35 72.85 558.35 70.8 560.05 68.75ZM600.15 67.15H594.2L592.95 43.3H601.4L600.15 67.15ZM592.85 75.5C592.85 73.9667 593.267 72.9 594.1 72.3C594.933 71.6667 595.95 71.35 597.15 71.35C598.317 71.35 599.317 71.6667 600.15 72.3C600.983 72.9 601.4 73.9667 601.4 75.5C601.4 76.9667 600.983 78.0333 600.15 78.7C599.317 79.3333 598.317 79.65 597.15 79.65C595.95 79.65 594.933 79.3333 594.1 78.7C593.267 78.0333 592.85 76.9667 592.85 75.5Z" fill="white"/>
</g>
<defs>
<clipPath id="clip0_2214_103">
<rect width="690" height="120" fill="white"/>
</clipPath>
</defs>
</svg>
