<svg width="690" height="120" viewBox="0 0 690 120" fill="none" xmlns="http://www.w3.org/2000/svg">
<path fill-rule="evenodd" clip-rule="evenodd" d="M0 0H653V40.0015L690 64.7364L653 89.4713V120H0V0ZM84.6 48.15H81.4V54.65C81.4 55.041 81.3982 55.4413 81.3943 55.85H84.6V48.15ZM84.6 43.15H81.4H78.4H76.05V54.6C76.05 62.15 75.65 73.15 71.05 80.75C72.4 81.25 74.8 82.55 75.85 83.4C76.6013 82.1188 77.2538 80.73 77.82 79.2671C78.8922 80.3579 80.2457 82.1848 80.9 83.4C83.4712 81.9065 85.8102 80.048 87.8832 77.8098C89.9619 80.1586 92.4371 82.0759 95.4 83.5C96.2 82 97.8 79.9 99.05 78.85C95.9782 77.6067 93.4213 75.7348 91.3132 73.3787C94.1865 68.9302 96.2822 63.4258 97.45 56.8L94.1 55.7L93.15 55.85H92.2H89.95V48.15H92.4793C92.1685 49.5127 91.8415 50.8053 91.55 51.85L95.55 53.9C96.6 51.35 97.75 47.55 98.6 44.2L94.95 42.85L94.15 43.15H93.35H89.95V36.7H84.6V43.15ZM91.3557 60.6H84.7961C85.6031 63.5297 86.6648 66.2605 88.0215 68.7043C89.4173 66.2591 90.5474 63.532 91.3557 60.6ZM84.7116 73.407C83.1913 70.8228 81.9607 67.9051 80.9495 64.7012C80.4919 69.4625 79.6094 74.4731 77.9756 78.8573C80.4585 77.5501 82.7315 75.6957 84.7116 73.407ZM71.4 46.65C70.4 44.9 68.1 42.15 66.35 40.1L70.2 37.4C72 39.25 74.35 41.9 75.5 43.55L71.4 46.65ZM66.1 53.8853V41.1H58.25H56.6H53.1V77.05H58.25V72.8H66.1V54.6104C67.95 56.5089 70.2823 58.9166 71.4 60.5L75.4 57.15C74.05 55.55 71.4 53 69.45 51.25L66.1 53.8853ZM58.25 68V45.8H60.9V68H58.25ZM69.4 82.55L64.3 80.25C65.8 76.4 67.75 70.2 69.1 64.6L73.65 66.9C72.45 72.15 70.9 77.9 69.4 82.55ZM144.6 48.15H141.4V54.65C141.4 55.041 141.398 55.4413 141.394 55.85H144.6V48.15ZM144.6 43.15H141.4H138.4H136.05V54.6C136.05 62.15 135.65 73.15 131.05 80.75C132.4 81.25 134.8 82.55 135.85 83.4C136.601 82.1188 137.254 80.73 137.82 79.2671C138.892 80.3579 140.246 82.1848 140.9 83.4C143.471 81.9065 145.81 80.048 147.883 77.8098C149.962 80.1586 152.437 82.0759 155.4 83.5C156.2 82 157.8 79.9 159.05 78.85C155.978 77.6067 153.421 75.7348 151.313 73.3787C154.186 68.9302 156.282 63.4258 157.45 56.8L154.1 55.7L153.15 55.85H152.2H149.95V48.15H152.479C152.169 49.5127 151.842 50.8053 151.55 51.85L155.55 53.9C156.6 51.35 157.75 47.55 158.6 44.2L154.95 42.85L154.15 43.15H153.35H149.95V36.7H144.6V43.15ZM151.356 60.6H144.796C145.603 63.5297 146.665 66.2605 148.021 68.7043C149.417 66.2591 150.547 63.532 151.356 60.6ZM144.712 73.407C143.191 70.8228 141.961 67.9051 140.95 64.7012C140.492 69.4625 139.609 74.4731 137.976 78.8572C140.459 77.5501 142.731 75.6957 144.712 73.407ZM131.4 46.65C130.4 44.9 128.1 42.15 126.35 40.1L130.2 37.4C132 39.25 134.35 41.9 135.5 43.55L131.4 46.65ZM126.1 53.8853V41.1H118.25H116.6H113.1V77.05H118.25V72.8H126.1V54.6104C127.95 56.5089 130.282 58.9166 131.4 60.5L135.4 57.15C134.05 55.55 131.4 53 129.45 51.25L126.1 53.8853ZM118.25 68V45.8H120.9V68H118.25ZM129.4 82.55L124.3 80.25C125.8 76.4 127.75 70.2 129.1 64.6L133.65 66.9C132.45 72.15 130.9 77.9 129.4 82.55ZM172.9 73.15V68.9H181.7V66.95H173.05V51.4H181.7V49.45H171.75V45.1H181.7V43.1086C178.793 43.3149 175.893 43.4461 173.2 43.5C173 42.3 172.45 40.4 171.9 39.25C179.35 38.9 188.05 38 193.55 36.8L196.2 41.3C193.532 41.8419 190.395 42.2883 187.1 42.6354V45.1H196.75V47.85H201.51C201.54 45.4712 201.543 42.9855 201.546 40.393C201.546 39.4107 201.547 38.413 201.55 37.4H207.3C207.291 41.0401 207.283 44.5262 207.217 47.85H211.65H214.05H217.4C217.4 47.85 217.35 49.8 217.35 50.5C216.9 71.1 216.5 78.4 214.85 80.65C213.75 82.35 212.6 82.9 210.95 83.2C209.4 83.5 207.05 83.5 204.7 83.4C204.55 81.75 203.9 79.3 202.95 77.7C205.1 77.9 207 77.9 208 77.9C208.75 77.9 209.25 77.75 209.7 77.05C210.763 75.664 211.185 69.5391 211.559 53.35H207.04C206.402 66.8322 204.113 77.2319 195.65 83.9C194.922 82.6574 193.385 80.9741 192.111 79.8886C184.904 80.6353 177.641 81.3478 172.2 81.85L171.5 76.85C174.327 76.6448 177.85 76.3877 181.7 76.0928V73.15H172.9ZM187.1 73.15V75.67C189.985 75.4388 192.951 75.1918 195.865 74.9342C199.781 69.4954 200.99 62.3007 201.369 53.35H196.75V49.45H187.1V51.4H196V66.95H187.1V68.9H196.25V73.15H187.1ZM187.1 63.2H191.05V60.9H187.1V63.2ZM187.1 57.4H191.05V55.15H187.1V57.4ZM181.7 55.15V57.4H177.85V55.15H181.7ZM181.7 60.9V63.2H177.85V60.9H181.7ZM247.5 55.5C251.5 51.1 254.3 43.95 255.8 36.55L261.2 37.6C260.702 39.8951 260.09 42.1634 259.379 44.35H272.6H275.15H278.25C278.25 44.35 278.2 46.3 278.15 47.05C277.2 69.5 276.3 77.7 274.4 80.2C273.25 81.9 272.15 82.5 270.5 82.8C269.1 83.1 267 83.1 264.8 83C264.65 81.3 264.05 78.75 263.15 77.1C265 77.3 266.7 77.35 267.65 77.35C268.4 77.35 268.85 77.1 269.45 76.4C270.752 74.772 271.665 67.9514 272.43 49.9H272.2C269.713 62.5767 264.478 75.6356 256.45 82.35C255.3 81.15 253.2 79.65 251.55 78.85C259.574 73.1188 264.57 61.6696 267.118 49.9H264.754C262.605 58.0995 258.415 67.1136 253.3 71.9C252.15 70.75 250.25 69.35 248.7 68.5C253.648 64.6187 257.576 57.2084 259.804 49.9H257.28C255.765 53.3712 253.994 56.4503 252.05 58.85C251.1 57.95 248.75 56.25 247.5 55.5ZM232.75 69.55L231.3 63.8C233.799 63.2389 236.923 62.4306 240.3 61.5145V51.95H236.92C236.39 54.3473 235.767 56.5262 235.05 58.3C234.15 57.6 232 56.2 230.8 55.6C232.4 51.6 233.25 45.35 233.7 39.4L238.7 40.25C238.506 42.2239 238.262 44.2335 237.968 46.2H240.3V36.55H245.8V46.2H249.95V51.95H245.8V59.9953C247.333 59.5662 248.876 59.1307 250.4 58.7L251.2 64C249.428 64.5485 247.612 65.1049 245.8 65.6559V83.5H240.3V67.3148C237.607 68.1207 235.035 68.8818 232.75 69.55ZM309.55 73.8C309.55 79.45 305.85 84.05 299.65 85.9L298.05 81.9C301.94 80.6496 304.2 78.4555 304.513 75.874C304.343 75.8914 304.172 75.9 304 75.9C301.5 75.9 299.2 74.3 299.2 71.4C299.2 68.6 301.45 66.9 304.15 66.9C307.65 66.9 309.55 69.6 309.55 73.8ZM352.9 73.15V68.9H361.7V66.95H353.05V51.4H361.7V49.45H351.75V45.1H361.7V43.1086C358.793 43.3149 355.893 43.4461 353.2 43.5C353 42.3 352.45 40.4 351.9 39.25C359.35 38.9 368.05 38 373.55 36.8L376.2 41.3C373.532 41.8419 370.395 42.2883 367.1 42.6354V45.1H376.75V47.85H381.51C381.54 45.4711 381.543 42.9854 381.546 40.3929C381.546 39.4106 381.547 38.413 381.55 37.4H387.3C387.291 41.0401 387.283 44.5262 387.217 47.85H391.65H394.05H397.4C397.4 47.85 397.35 49.8 397.35 50.5C396.9 71.1 396.5 78.4 394.85 80.65C393.75 82.35 392.6 82.9 390.95 83.2C389.4 83.5 387.05 83.5 384.7 83.4C384.55 81.75 383.9 79.3 382.95 77.7C385.1 77.9 387 77.9 388 77.9C388.75 77.9 389.25 77.75 389.7 77.05C390.763 75.664 391.185 69.5391 391.559 53.35H387.04C386.402 66.8322 384.113 77.2319 375.65 83.9C374.922 82.6574 373.385 80.9741 372.111 79.8886C364.904 80.6353 357.641 81.3478 352.2 81.85L351.5 76.85C354.327 76.6448 357.85 76.3877 361.7 76.0928V73.15H352.9ZM367.1 73.15V75.67C369.985 75.4388 372.951 75.1918 375.865 74.9342C379.781 69.4954 380.99 62.3007 381.369 53.35H376.75V49.45H367.1V51.4H376V66.95H367.1V68.9H376.25V73.15H367.1ZM367.1 63.2H371.05V60.9H367.1V63.2ZM367.1 57.4H371.05V55.15H367.1V57.4ZM361.7 55.15V57.4H357.85V55.15H361.7ZM361.7 60.9V63.2H357.85V60.9H361.7ZM427.5 55.5C431.5 51.1 434.3 43.95 435.8 36.55L441.2 37.6C440.702 39.8951 440.09 42.1634 439.379 44.35H452.6H455.15H458.25C458.25 44.35 458.2 46.3 458.15 47.05C457.2 69.5 456.3 77.7 454.4 80.2C453.25 81.9 452.15 82.5 450.5 82.8C449.1 83.1 447 83.1 444.8 83C444.65 81.3 444.05 78.75 443.15 77.1C445 77.3 446.7 77.35 447.65 77.35C448.4 77.35 448.85 77.1 449.45 76.4C450.752 74.772 451.665 67.9514 452.43 49.9H452.2C449.713 62.5767 444.478 75.6356 436.45 82.35C435.3 81.15 433.2 79.65 431.55 78.85C439.574 73.1188 444.57 61.6696 447.118 49.9H444.754C442.605 58.0995 438.415 67.1136 433.3 71.9C432.15 70.75 430.25 69.35 428.7 68.5C433.648 64.6187 437.576 57.2084 439.804 49.9H437.28C435.765 53.3712 433.994 56.4503 432.05 58.85C431.1 57.95 428.75 56.25 427.5 55.5ZM412.75 69.55L411.3 63.8C413.799 63.2389 416.923 62.4306 420.3 61.5145V51.95H416.92C416.39 54.3473 415.767 56.5262 415.05 58.3C414.15 57.6 412 56.2 410.8 55.6C412.4 51.6 413.25 45.35 413.7 39.4L418.7 40.25C418.506 42.2239 418.262 44.2335 417.968 46.2H420.3V36.55H425.8V46.2H429.95V51.95H425.8V59.9953C427.333 59.5662 428.876 59.1307 430.4 58.7L431.2 64C429.428 64.5485 427.612 65.1049 425.8 65.6559V83.5H420.3V67.3148C417.607 68.1208 415.035 68.8818 412.75 69.55ZM504.6 48.15H501.4V54.65C501.4 55.041 501.398 55.4413 501.394 55.85H504.6V48.15ZM504.6 43.15H501.4H498.4H496.05V54.6C496.05 62.15 495.65 73.15 491.05 80.75C492.4 81.25 494.8 82.55 495.85 83.4C496.601 82.1188 497.254 80.73 497.82 79.2671C498.892 80.3579 500.246 82.1848 500.9 83.4C503.471 81.9065 505.81 80.048 507.883 77.8098C509.962 80.1586 512.437 82.0759 515.4 83.5C516.2 82 517.8 79.9 519.05 78.85C515.978 77.6067 513.421 75.7348 511.313 73.3787C514.186 68.9302 516.282 63.4258 517.45 56.8L514.1 55.7L513.15 55.85H512.2H509.95V48.15H512.479C512.169 49.5127 511.842 50.8053 511.55 51.85L515.55 53.9C516.6 51.35 517.75 47.55 518.6 44.2L514.95 42.85L514.15 43.15H513.35H509.95V36.7H504.6V43.15ZM511.356 60.6H504.796C505.603 63.5297 506.665 66.2605 508.021 68.7043C509.417 66.2591 510.547 63.5321 511.356 60.6ZM504.712 73.407C503.191 70.8228 501.961 67.9051 500.95 64.7012C500.492 69.4625 499.609 74.4731 497.976 78.8572C500.459 77.5501 502.731 75.6957 504.712 73.407ZM491.4 46.65C490.4 44.9 488.1 42.15 486.35 40.1L490.2 37.4C492 39.25 494.35 41.9 495.5 43.55L491.4 46.65ZM486.1 53.8853V41.1H478.25H476.6H473.1V77.05H478.25V72.8H486.1V54.6104C487.95 56.5089 490.282 58.9166 491.4 60.5L495.4 57.15C494.05 55.55 491.4 53 489.45 51.25L486.1 53.8853ZM478.25 68V45.8H480.9V68H478.25ZM489.4 82.55L484.3 80.25C485.8 76.4 487.75 70.2 489.1 64.6L493.65 66.9C492.45 72.15 490.9 77.9 489.4 82.55ZM564.6 48.15H561.4V54.65C561.4 55.041 561.398 55.4413 561.394 55.85H564.6V48.15ZM564.6 43.15H561.4H558.4H556.05V54.6C556.05 62.15 555.65 73.15 551.05 80.75C552.4 81.25 554.8 82.55 555.85 83.4C556.601 82.1188 557.254 80.73 557.82 79.2671C558.892 80.3579 560.246 82.1848 560.9 83.4C563.471 81.9065 565.81 80.048 567.883 77.8098C569.962 80.1587 572.437 82.0759 575.4 83.5C576.2 82 577.8 79.9 579.05 78.85C575.978 77.6067 573.421 75.7348 571.313 73.3787C574.187 68.9302 576.282 63.4258 577.45 56.8L574.1 55.7L573.15 55.85H572.2H569.95V48.15H572.479C572.169 49.5127 571.842 50.8053 571.55 51.85L575.55 53.9C576.6 51.35 577.75 47.55 578.6 44.2L574.95 42.85L574.15 43.15H573.35H569.95V36.7H564.6V43.15ZM571.356 60.6H564.796C565.603 63.5297 566.665 66.2605 568.021 68.7043C569.417 66.2591 570.547 63.5321 571.356 60.6ZM564.712 73.4071C563.191 70.8229 561.961 67.9051 560.95 64.7012C560.492 69.4625 559.609 74.4731 557.976 78.8572C560.459 77.5501 562.731 75.6957 564.712 73.4071ZM551.4 46.65C550.4 44.9 548.1 42.15 546.35 40.1L550.2 37.4C552 39.25 554.35 41.9 555.5 43.55L551.4 46.65ZM546.1 53.8854V41.1H538.25H536.6H533.1V77.05H538.25V72.8H546.1V54.6104C547.95 56.5089 550.282 58.9166 551.4 60.5L555.4 57.15C554.05 55.55 551.4 53 549.45 51.25L546.1 53.8854ZM538.25 68V45.8H540.9V68H538.25ZM549.4 82.55L544.3 80.25C545.8 76.4 547.75 70.2 549.1 64.6L553.65 66.9C552.45 72.15 550.9 77.9 549.4 82.55ZM594.2 67.15H600.15L601.4 43.3H592.95L594.2 67.15ZM594.1 72.3C593.267 72.9 592.85 73.9667 592.85 75.5C592.85 76.9667 593.267 78.0333 594.1 78.7C594.933 79.3333 595.95 79.65 597.15 79.65C598.317 79.65 599.317 79.3333 600.15 78.7C600.983 78.0333 601.4 76.9667 601.4 75.5C601.4 73.9667 600.983 72.9 600.15 72.3C599.317 71.6667 598.317 71.35 597.15 71.35C595.95 71.35 594.933 71.6667 594.1 72.3Z" fill="white"/>
</svg>
