<svg width="690" height="120" viewBox="0 0 690 120" fill="none" xmlns="http://www.w3.org/2000/svg">
<path fill-rule="evenodd" clip-rule="evenodd" d="M0 0H653V40.0019L690 64.7368L653 89.4717V120H0V0ZM60.3 69.9V71.85H64.4V69.9H60.3ZM69.4 69.9H74.85V66.4H69.4V64.45H76.2V60.5H69.8493C69.9257 60.3656 70.0027 60.23 70.0804 60.0932C70.474 59.4001 70.884 58.678 71.3 57.95L67.4196 57.1H74.5366C75.9509 57.9247 78.3703 59.7193 79.35 60.65C80.9931 58.0444 82.3387 54.7226 83.423 51H83.9V56.3C83.9468 60.9326 82.5484 70.952 75.5651 77.3H69.4V75.35H74.85V71.85H69.4V69.9ZM64.4 75.35H60.3V77.3H64.4V75.35ZM60.3 81.35V83.35H55.25V71.5621C54.7457 72.2363 54.2281 72.8683 53.7 73.45C53.15 72.3 51.6 69.8 50.7 68.7C53.3503 65.8088 55.5826 61.5244 56.9046 57.1H52.95V47.1H63.6V57.1H58.9346L61.95 57.9C61.6813 58.7659 61.3858 59.6351 61.0661 60.5H64.8807C65.3142 59.346 65.7102 58.1221 65.9747 57.1H65.1V47.1H76V54.3105C78.2752 49.5403 79.5879 43.0294 80.25 36.45L86.15 37.3C85.79 40.1175 85.332 42.9153 84.7652 45.6H92.65H93.5L94.35 45.25L98.3 46.65C97.8 51.55 96.85 57.1 95.65 60.85L91.4 58.45C91.7843 56.4643 92.1071 53.74 92.3421 51H89.65V56.3C89.6 61.15 91.2 72.2 98.7 78.3C97.65 79.55 96 82.05 95.15 83.5C89.75 79.2 87.3 70.75 86.8 66.5C86.15 70.85 83.3 79.05 77.35 83.5C77.0712 82.9423 76.6083 82.1546 76.0917 81.35H60.3ZM64.4 64.45V66.4H60.3V64.45H64.4ZM56.85 39.5H51.75V43.85H56.85V46.3H62.05V43.85H66.75V46.3H72.05V43.85H77.35V39.5H72.05V36.6H66.75V39.5H62.05V36.6H56.85V39.5ZM56.85 53.55V50.6H59.45V53.55H56.85ZM69 53.55V50.6H71.85V53.55H69ZM122.6 72.15V56.05H111.8V61.6H117V72.6729C115.052 74.353 112.912 76.0317 111.1 77.3L113.95 83.05C114.118 82.8894 114.284 82.7305 114.448 82.5733C116.585 80.5282 118.436 78.7572 120.2 76.9C123.2 80.8 127.3 82.3 133.4 82.55C139.65 82.8 150.75 82.7 157.15 82.4C157.4 80.75 158.3 78.1 158.95 76.8C151.85 77.35 139.55 77.5 133.35 77.25C128.2 77 124.55 75.55 122.6 72.15ZM116.2 37.65L111.5 40.6C114.05 43.15 117.05 46.8 118.2 49.25L123.3 45.9C121.95 43.4 118.85 40 116.2 37.65ZM151 39.6H140.25V40.8391L136.25 36.55C134.599 37.9469 132.052 39.5589 129.58 40.8094L126.7 40.05V65.1181C125.656 65.3523 124.681 65.5646 123.8 65.75L125.35 71.05C129.4 70 134.5 68.65 139.15 67.35L138.5 62.25C136.391 62.8018 134.251 63.3381 132.2 63.8343V44.8983C134.862 43.8554 137.729 42.5469 140.25 41.0873V75.75H145.7V44.65H151V65C151 65.55 150.8 65.75 150.25 65.75C149.7 65.8 148 65.8 146.3 65.75C147.05 67.05 147.75 69.3 148 70.75C150.9 70.75 153 70.7 154.55 69.85C156.1 68.95 156.55 67.55 156.55 65.1V39.6H154.05H151ZM191.65 42.8H173.4V48.65H191.65V60.2888C187.276 67.0598 179.442 73.3272 171.25 76.5C172.6 77.7 174.55 80.15 175.5 81.65C181.506 78.8832 187.125 74.4997 191.65 69.2217V83.5H197.95V68.9029C202.495 74.2867 208.178 78.8081 214.25 81.6C215.25 79.9 217.2 77.4 218.7 76.1C211.161 73.3387 203.93 68.003 199.431 62.0803C200.81 62.8381 202.517 63.9208 203.4 64.65C204.603 63.4475 205.728 61.9937 206.739 60.3465C209.248 62.4279 211.825 64.6229 213.25 66.15L217.4 62C215.541 60.2621 212.081 57.6094 209.185 55.4152C209.862 53.7053 210.425 51.8873 210.85 50L205.05 48.95C204.045 53.7816 201.851 58.247 198.729 61.1202C198.457 60.7329 198.197 60.3436 197.95 59.9528V48.65H216.9V42.8H197.95V36.55H191.65V42.8ZM183 60.6043C181.366 63.3296 179.429 65.6727 177.25 67.5C176.25 66.4 173.95 64.45 172.6 63.55C177 60.35 180.05 55.05 181.45 48.95L187.3 50.05C186.821 51.9405 186.228 53.7606 185.531 55.4876C187.342 57.0413 189.242 58.7225 190.35 59.9L186.4 64.1C185.606 63.1467 184.348 61.885 183 60.6043ZM257.55 39.7H232.05V45.05H238.647C238.019 47.4622 237.163 50.1708 236.292 52.5097C234.718 52.5468 233.258 52.5773 231.95 52.6L232.3 58.15C237.92 57.9158 245.602 57.5939 253.086 57.1842C253.568 58.1154 253.967 58.9859 254.25 59.75L259 57.05C257.75 53.9 254.55 49.3 251.75 45.9L247.3 48.25C248.215 49.4309 249.163 50.7557 250.063 52.112C247.4 52.2004 244.764 52.2819 242.261 52.3532C243.276 50.0698 244.327 47.5161 245.324 45.0925C245.33 45.0783 245.336 45.0642 245.341 45.05H257.55V39.7ZM241.85 63.5H233.55V68.85H241.85V75.2797C237.972 75.712 234.402 76.0881 231.5 76.35L232.4 82.35C239.25 81.5 248.85 80.25 257.8 79.05L257.65 73.45L256.801 73.5499C253.822 73.9004 250.776 74.2588 247.8 74.6028V68.85H256V63.5H247.8V58.65H241.85V63.5ZM265.15 42.65H259.4V70.95H265.15V42.65ZM276.65 37.95H270.8V76.3C270.8 77.2 270.5 77.45 269.6 77.5C269.441 77.5 269.231 77.5013 268.977 77.5028C267.632 77.5108 265.073 77.5262 262.55 77.4C263.4 79.1 264.25 81.8 264.5 83.5C268.75 83.5 272 83.3 274 82.35C276 81.4 276.65 79.75 276.65 76.35V37.95ZM298.05 81.9L299.65 85.9C305.85 84.05 309.55 79.45 309.55 73.8C309.55 69.6 307.65 66.9 304.15 66.9C301.45 66.9 299.2 68.6 299.2 71.4C299.2 74.3 301.5 75.9 304 75.9C304.172 75.9 304.343 75.8914 304.513 75.874C304.2 78.4555 301.94 80.6496 298.05 81.9ZM373.05 62.15L370.15 63.05C370.428 63.4923 370.7 63.973 370.956 64.4685C369.997 64.5382 369.058 64.6035 368.149 64.6649C370.056 62.8732 372.116 60.7113 373.85 58.8L370.75 57.4C370.059 58.3752 369.146 59.5402 368.143 60.7241C367.827 60.3717 367.46 60.0009 367.061 59.6265C368.175 58.4331 369.534 56.7445 370.85 55.1L370.072 54.8H373.3V38.45H359.6H357.45H353.9V83.5H359.6V54.8H366.785C366.24 55.7575 365.552 56.851 364.9 57.7941C364.511 57.4935 364.123 57.2089 363.75 56.95L361.8 59.25C363.242 60.3312 364.908 61.8293 366.002 63.1279C365.401 63.7672 364.802 64.375 364.228 64.9203C363.923 64.9396 363.624 64.9585 363.332 64.977C362.65 65.0202 362.004 65.061 361.4 65.1L361.75 68.35C364.874 68.1203 368.463 67.8061 372.244 67.4463C372.381 67.843 372.494 68.2158 372.576 68.55H369.6V73.25C369.6 73.4004 369.598 73.5504 369.593 73.7H366.6V69.35H362.9V77H368.626C367.807 78.178 366.328 79.2167 363.7 80C364.55 80.75 365.8 82.3 366.3 83.25C372.65 81.05 373.6 77.3 373.6 73.4V68.55H372.886L375.264 67.7177L375.4 68.35C376.677 68.2321 378.039 68.122 379.456 68.0074C381.267 67.8609 383.167 67.7072 385.093 67.5209C385.272 68.036 385.411 68.5202 385.5 68.95L388.65 67.9C388.25 66.2 387.05 63.7 385.8 61.9L382.8 62.75C383.148 63.3157 383.492 63.932 383.813 64.5633C382.63 64.6412 381.482 64.7145 380.383 64.7821C382.364 62.9667 384.461 60.8268 386.25 58.9L383.05 57.45C382.343 58.4322 381.412 59.592 380.387 60.7685C380.05 60.3996 379.667 60.0126 379.255 59.6222C380.43 58.365 381.783 56.7145 383.1 55.1L382.329 54.8H390.55V76.6C390.55 77.25 390.35 77.5 389.7 77.5C389.05 77.5 387.05 77.5 385.2 77.4C385.95 78.95 386.7 81.65 386.9 83.25C390.2 83.25 392.5 83.15 394.2 82.15C395.9 81.15 396.35 79.5 396.35 76.65V38.45H393.55H390.55H376.55V54.8H378.888C378.343 55.7237 377.669 56.7594 377.017 57.6833C376.621 57.3691 376.228 57.0714 375.85 56.8L373.7 59C375.234 60.1802 376.985 61.8247 378.149 63.2029C377.519 63.8505 376.888 64.4662 376.281 65.0193C375.736 65.0484 375.213 65.0752 374.714 65.0993C374.246 64.0902 373.655 63.044 373.05 62.15ZM390.55 42.5H382.25V44.85H390.55V42.5ZM390.55 48.45H382.25V50.75H390.55V48.45ZM359.6 50.75H367.65V48.45H359.6V50.75ZM359.6 44.85H367.65V42.5H359.6V44.85ZM380.05 68.55H376V82.55H380.05V77H386.9V69.35H383.2V73.7H380.05V68.55ZM419.75 44.2H411.9V49.75H416.734C416.625 62.2552 416.257 72.8047 410.85 79.35C412.35 80.4 414.25 82.4 415.15 83.85C419.852 78.2004 421.525 70.088 422.174 60.55H426.234C426.033 72.2144 425.722 76.4191 425.05 77.45C424.65 78.05 424.25 78.2 423.6 78.2C422.8 78.2 421.45 78.2 419.8 78.05C420.65 79.55 421.25 81.85 421.35 83.45C423.45 83.55 425.45 83.5 426.7 83.3C428.15 83 429.15 82.55 430.1 81.1C431.4 79.3 431.65 73.4 431.9 57.5C431.95 56.8 431.95 55.1 431.95 55.1H428.2H426.3H422.442C422.501 53.3523 422.54 51.5671 422.57 49.75H433.7V44.2H425.7V36.6H419.75V44.2ZM434.05 59.5C439.05 55.8 443.05 48.8 444.95 43.3C446.9 48.95 450.9 55.75 455.95 59.45C456.75 57.45 457.85 55 458.95 53.35C454.2 50.5 450.1 43.35 447.7 36.35H441.8C440.1 42.5 436.15 50.3 431.3 53.8C432.25 55.25 433.5 57.75 434.05 59.5ZM443.1 55.55L439.15 59.3C442.3 61.5 446.05 64.8 447.7 67.15L451.95 62.9C450.15 60.6 446.25 57.6 443.1 55.55ZM438.5 68.35L434.85 73C440.75 75.7 448.1 80.2 451.5 83.55L455.45 78.25C451.85 74.95 444.25 70.8 438.5 68.35ZM505.9 36.8H500.05V42.05H488.95V51.95H492.65V56.35H514.05V51.9H517.9V42.05H505.9V36.8ZM512.35 51.2V47.15H494.25V51.2H512.35ZM517.7 59.95H489.65V65.3H495.171C494.722 72.2876 493.198 76.3491 485.15 78.75C486.3 79.85 487.8 82.05 488.3 83.5C498.101 80.2177 500.213 74.4416 500.851 65.3H504.5V76.2C504.5 81.35 505.5 83.05 509.9 83.05H513.25C516.75 83.05 518.15 81.15 518.65 74.1C517.15 73.75 514.75 72.8 513.65 71.9C513.55 77 513.4 77.8 512.6 77.8H510.9C510.25 77.8 510.15 77.6 510.15 76.15V65.3H517.7V59.95ZM483.5 38.7H473.55V83.55H478.8V44.05H482.672C481.872 47.4695 480.786 51.8302 479.8 55C482.65 58.35 483.3 61.45 483.3 63.8C483.3 65.2 483.05 66.2 482.45 66.65C482.1 66.95 481.6 67.05 481.05 67.05C480.527 67.0935 479.967 67.0612 479.237 67.0191C479.128 67.0129 479.016 67.0065 478.9 67C479.7 68.45 480.15 70.7 480.2 72.15C481.35 72.15 482.55 72.1 483.45 72C484.55 71.85 485.5 71.5 486.3 70.95C487.9 69.85 488.55 67.75 488.55 64.5C488.55 61.6 487.95 58.25 484.85 54.35C486.3 50.45 487.95 45 489.25 40.7L485.35 38.5L484.5 38.7H483.5ZM554.85 39H532.65V44.45H554.85V39ZM562.332 59.25C561.888 66.9932 559.993 76.723 553.35 83.45C552.55 82.15 550.3 80.1 548.9 79.4C555.9 72.3 556.55 62.35 556.55 54.9V41L560.714 41.9832C565.388 40.6202 570.039 38.8182 573 37.05L578.25 41.55C573.674 43.8165 567.855 45.6441 562.45 46.9702V53.5H578.6V59.25H574.1V83.55H568.15V59.25H562.332ZM537.55 48.2H534.25V60.95C534.25 66.75 533.95 74.6 530.65 80C531.9 80.65 534.4 82.55 535.35 83.6C538.479 78.6661 539.548 71.4473 539.849 65.3H553.8V48.2H539.95H537.55ZM539.95 53.6V59.95H548V53.6H539.95ZM594.2 67.15H600.15L601.4 43.3H592.95L594.2 67.15ZM594.1 72.3C593.267 72.9 592.85 73.9667 592.85 75.5C592.85 76.9667 593.267 78.0333 594.1 78.7C594.933 79.3333 595.95 79.65 597.15 79.65C598.317 79.65 599.317 79.3333 600.15 78.7C600.983 78.0333 601.4 76.9667 601.4 75.5C601.4 73.9667 600.983 72.9 600.15 72.3C599.317 71.6667 598.317 71.35 597.15 71.35C595.95 71.35 594.933 71.6667 594.1 72.3Z" fill="white"/>
</svg>
