<svg width="208" height="311" viewBox="0 0 208 311" fill="none" xmlns="http://www.w3.org/2000/svg">
<path fill-rule="evenodd" clip-rule="evenodd" d="M75.1312 19.647C64.8676 18.1606 56.2121 19.2707 48.5093 23.7423C40.2467 28.5389 33.8382 36.7857 27.6087 47.6286C16.7313 66.5616 9.69348 97.0466 5.7396 127.008C1.76532 157.124 0.793309 187.64 2.5172 207.132C2.77516 210.049 5.35062 212.204 8.26965 211.946C11.1887 211.689 13.3459 209.115 13.0879 206.198C11.4514 187.694 12.3549 157.989 16.2605 128.394C20.1864 98.6445 27.0327 69.9293 36.8119 52.9078C42.7742 42.53 48.0389 36.2786 53.8402 32.9109C59.4215 29.6708 66.2382 28.6882 76.3242 30.596C83.4644 31.9465 89.7659 36.6954 92.9538 46.5854C93.8521 49.3725 96.8416 50.9042 99.6309 50.0065C102.42 49.1089 103.953 46.1218 103.055 43.3347C99.875 33.47 93.9973 26.7131 86.6555 22.9966C89.6756 20.1958 93.4299 17.3485 97.506 15.0751C104.542 11.1511 111.326 9.59178 116.517 11.2894C125.099 14.0963 129.834 19.1415 132.57 24.9541C132.905 25.6661 133.212 26.3933 133.492 27.1334C133.518 27.2069 133.545 27.2799 133.574 27.3525C135.602 32.8277 136.207 38.9958 136.207 44.96C136.207 47.8881 138.583 50.2618 141.513 50.2618C144.444 50.2618 146.819 47.8881 146.819 44.96C146.819 39.6254 146.394 33.5359 144.762 27.5395C146.605 26.4346 148.56 25.5663 150.617 25.2343C153.502 24.7687 157.235 25.2528 161.873 29.3562C166.708 33.634 169.193 39.7058 170.222 45.8367C171.142 51.322 170.816 56.4152 170.259 59.3361C169.711 62.2125 171.6 64.9884 174.479 65.5363C177.357 66.0842 180.135 64.1965 180.684 61.3202C181.098 59.1465 181.395 56.3317 181.411 53.1526C184.198 54.7177 187.103 56.8219 189.655 59.5116C194.535 64.6553 198.157 71.9438 197.247 82.1242C195.24 104.58 183.949 123.327 178.798 129.6C178.019 130.548 177.594 131.736 177.594 132.963V201.356C177.594 204.284 179.969 206.658 182.9 206.658C185.83 206.658 188.206 204.284 188.206 201.356V134.794C194.657 126.254 205.716 106.576 207.817 83.0672C209.03 69.4955 204.068 59.2904 197.356 52.2164C191.931 46.4985 185.389 42.832 180.036 40.8623C178.433 34.1333 175.157 26.9459 168.907 21.4171C162.085 15.3814 155.204 13.7532 148.925 14.7663C145.835 15.2649 143.07 16.3789 140.713 17.644C136.615 10.5352 130.006 4.54402 119.818 1.21188C110.416 -1.8628 100.309 1.36801 92.3339 5.81619C85.477 9.64044 79.3046 14.849 75.1312 19.647Z" fill="#34424F"/>
<path d="M154.534 65.1768C143.033 65.1768 141.29 81.311 141.755 93.4023C142.184 104.555 149.422 118.965 154.534 118.965C159.645 118.965 162.698 107.959 163.586 102.456C165.36 90.0294 166.035 65.1768 154.534 65.1768Z" fill="#34424F"/>
<path d="M182.222 93.4023C174.554 93.4023 175.796 115.06 177.571 126.953C177.571 126.953 189.285 114.796 189.285 105.119C189.285 102.456 189.889 93.4023 182.222 93.4023Z" fill="#34424F"/>
<path d="M72.324 79.7793C69.1388 85.1035 70.7665 96.9575 66.4839 105.335C55.8688 126.099 71.2608 136.75 81.8784 134.621C92.496 132.491 96.2121 101.611 89.3107 84.5738C82.4093 67.5366 75.5093 74.4552 72.324 79.7793Z" fill="#34424F"/>
<path d="M130.721 91.4919C129.022 114.066 117.272 115.096 111.609 112.788C100.46 106.401 105.769 88.8298 111.609 66.4685C117.449 44.1071 132.844 63.274 130.721 91.4919Z" fill="#34424F"/>
<path d="M132.001 125.254C123.493 125.254 106.475 151.069 99.03 163.977C89.5451 180.421 91.7975 200.048 109.666 200.048C127.534 200.048 132.001 191.56 136.788 186.786C141.183 195.274 150.224 200.412 154.337 200.048C168.699 198.775 168.164 176.001 161.782 163.977C155.401 151.069 140.51 125.254 132.001 125.254Z" fill="#34424F"/>
<path fill-rule="evenodd" clip-rule="evenodd" d="M43.6399 224.894C45.2686 223.956 47.3535 224.508 48.2968 226.129L62.1939 250.004L63.7581 227.594C63.8576 226.167 64.846 224.956 66.2288 224.566C67.6115 224.176 69.0915 224.691 69.9283 225.854L87.8322 250.728V227.828C87.8322 225.956 89.3579 224.438 91.24 224.438C93.1221 224.438 94.6479 225.956 94.6479 227.828V261.286C94.6479 262.759 93.6918 264.064 92.2821 264.514C90.8724 264.965 89.3316 264.458 88.4695 263.26L69.9013 237.464L68.2222 261.521C68.1185 263.007 67.0513 264.252 65.5922 264.589C64.1332 264.926 62.6243 264.275 61.8736 262.985L42.3989 229.528C41.4556 227.907 42.0112 225.833 43.6399 224.894Z" fill="#34424F"/>
<path fill-rule="evenodd" clip-rule="evenodd" d="M28.6206 224.543C30.121 224.159 31.6894 224.845 32.4303 226.209L50.5942 259.653C51.4891 261.3 50.8832 263.364 49.241 264.262C47.5987 265.16 45.5419 264.552 44.647 262.904L32.8431 241.171V261.279C32.8431 263.155 31.327 264.676 29.4567 264.676C27.5865 264.676 26.0703 263.155 26.0703 261.279V227.835C26.0703 226.282 27.1203 224.926 28.6206 224.543Z" fill="#34424F"/>
<path fill-rule="evenodd" clip-rule="evenodd" d="M8.41732 231.253V241.41C9.72167 241.384 10.7171 241.188 11.4224 240.824C11.9045 240.575 12.2613 240.241 12.5354 239.711C12.8333 239.135 13.1193 238.154 13.1193 236.513C13.1193 233.369 12.1187 232.419 11.3159 231.967C10.6189 231.575 9.65495 231.336 8.41732 231.253ZM8.41732 248.195C10.4668 248.164 12.5963 247.834 14.4804 246.862C16.1253 246.013 17.5318 244.702 18.4892 242.851C19.4227 241.047 19.8364 238.912 19.8364 236.513C19.8364 231.578 18.0383 227.986 14.5869 226.044C11.527 224.321 7.79523 224.296 4.76947 224.56C3.03319 224.712 1.7002 226.179 1.7002 227.938V261.286C1.7002 263.159 3.20388 264.677 5.05876 264.677C6.91364 264.677 8.41732 263.159 8.41732 261.286V248.195Z" fill="#34424F"/>
<path fill-rule="evenodd" clip-rule="evenodd" d="M156.991 224.895C158.62 223.956 160.705 224.509 161.648 226.129L175.545 250.004L177.11 227.594C177.209 226.167 178.198 224.956 179.58 224.566C180.963 224.177 182.443 224.692 183.28 225.855L201.184 250.728V227.829C201.184 225.956 202.709 224.438 204.592 224.438C206.474 224.438 207.999 225.956 207.999 227.829V261.286C207.999 262.759 207.043 264.064 205.634 264.515C204.224 264.965 202.683 264.458 201.821 263.261L183.253 237.464L181.574 261.521C181.47 263.008 180.403 264.253 178.944 264.589C177.485 264.926 175.976 264.275 175.225 262.986L155.75 229.528C154.807 227.908 155.363 225.833 156.991 224.895Z" fill="#34424F"/>
<path fill-rule="evenodd" clip-rule="evenodd" d="M141.972 224.543C143.473 224.159 145.041 224.846 145.782 226.21L163.946 259.653C164.841 261.301 164.235 263.365 162.593 264.262C160.95 265.16 158.894 264.552 157.999 262.905L146.195 241.171V261.279C146.195 263.155 144.679 264.677 142.808 264.677C140.938 264.677 139.422 263.155 139.422 261.279V227.835C139.422 226.282 140.472 224.927 141.972 224.543Z" fill="#34424F"/>
<path fill-rule="evenodd" clip-rule="evenodd" d="M121.769 231.253V241.41C123.073 241.384 124.069 241.188 124.774 240.824C125.256 240.575 125.613 240.241 125.887 239.711C126.185 239.135 126.471 238.154 126.471 236.513C126.471 233.369 125.47 232.419 124.667 231.967C123.97 231.575 123.007 231.336 121.769 231.253ZM121.769 248.195C123.818 248.164 125.948 247.834 127.832 246.862C129.477 246.013 130.883 244.702 131.841 242.851C132.774 241.047 133.188 238.912 133.188 236.513C133.188 231.578 131.39 227.986 127.938 226.044C124.879 224.321 121.147 224.296 118.121 224.56C116.385 224.712 115.052 226.179 115.052 227.938V261.286C115.052 263.159 116.555 264.677 118.41 264.677C120.265 264.677 121.769 263.159 121.769 261.286V248.195Z" fill="#34424F"/>
<path d="M7.50689 282.67C7.87883 282.972 8.07642 283.367 8.09967 283.855C8.12291 284.32 7.98343 284.738 7.68123 285.11C7.37903 285.458 6.99547 285.656 6.53054 285.702C6.08886 285.725 5.69368 285.586 5.34498 285.284C4.53136 284.564 3.47366 283.693 2.17187 282.67C1.82317 282.391 1.61396 282.031 1.54422 281.59C1.49772 281.125 1.62558 280.719 1.92778 280.37C2.22998 279.999 2.61354 279.789 3.07847 279.743C3.5434 279.696 3.96183 279.813 4.33377 280.091C5.84478 281.276 6.90248 282.136 7.50689 282.67ZM4.40351 293.474C2.93899 292.172 1.67207 291.115 0.602743 290.302C0.254049 290.023 0.0564552 289.663 0.00996269 289.222C-0.0365299 288.781 0.0797015 288.386 0.358657 288.037C0.660858 287.689 1.0328 287.491 1.47448 287.445C1.9394 287.375 2.35784 287.479 2.72978 287.758C3.93858 288.641 5.2055 289.675 6.53054 290.86C6.90248 291.185 7.10008 291.58 7.12332 292.045C7.16982 292.509 7.04196 292.928 6.73976 293.299C6.43756 293.648 6.05399 293.845 5.58907 293.892C5.14739 293.915 4.7522 293.776 4.40351 293.474ZM6.8095 298.004C7.25118 298.19 7.57662 298.503 7.78584 298.945C7.99506 299.363 8.0183 299.793 7.85558 300.234C6.8095 303.185 5.5542 305.891 4.08968 308.354C3.83397 308.772 3.46203 309.028 2.97386 309.121C2.48569 309.237 2.03239 309.156 1.61396 308.877C1.21877 308.621 0.96306 308.25 0.846828 307.762C0.730597 307.274 0.800336 306.821 1.05604 306.403C2.52056 303.94 3.72937 301.466 4.68246 298.98C4.84519 298.538 5.12414 298.225 5.51933 298.039C5.93776 297.853 6.36782 297.841 6.8095 298.004ZM27.8358 286.713L28.568 285.145C28.6377 284.982 28.5796 284.901 28.3937 284.901H23.3027C23.1168 284.901 23.0238 285.005 23.0238 285.214V289.989C23.0238 290.198 23.1168 290.302 23.3027 290.302H28.3588C28.7772 290.302 29.1375 290.453 29.4397 290.755C29.7419 291.057 29.893 291.417 29.893 291.836C29.893 292.904 29.7071 293.892 29.3351 294.798C28.0566 297.888 26.4991 300.513 24.6626 302.674C24.5232 302.86 24.5348 303.011 24.6975 303.127C26.441 304.358 28.5564 305.392 31.0437 306.228C31.4622 306.368 31.776 306.635 31.9852 307.03C32.1944 307.402 32.2409 307.808 32.1247 308.25C32.0085 308.691 31.7527 309.016 31.3576 309.225C30.9856 309.458 30.5788 309.516 30.1371 309.4C27.1849 308.517 24.5348 307.216 22.1869 305.496C22.0474 305.38 21.8847 305.392 21.6987 305.531C19.6298 307.158 17.2238 308.424 14.4808 309.33C14.0391 309.493 13.5974 309.458 13.1557 309.225C12.7373 309.016 12.4351 308.691 12.2491 308.25C12.0864 307.831 12.1096 307.425 12.3189 307.03C12.5281 306.635 12.8419 306.356 13.2603 306.193C15.4222 305.427 17.3517 304.405 19.0487 303.127C19.2114 302.987 19.2346 302.86 19.1184 302.743C17.5377 301.024 16.201 299.049 15.1084 296.819C14.8992 296.401 14.876 295.983 15.0387 295.564C15.2246 295.146 15.5268 294.844 15.9453 294.658C16.387 294.473 16.817 294.473 17.2355 294.658C17.6771 294.821 18.0026 295.111 18.2118 295.53C19.1184 297.295 20.2458 298.91 21.5941 300.374C21.7568 300.536 21.8963 300.536 22.0126 300.374C23.5933 298.538 24.9183 296.285 25.9877 293.613C26.0342 293.45 25.9644 293.369 25.7785 293.369H13.7136C13.5044 293.369 13.3998 293.474 13.3998 293.683C13.3998 299.607 12.4118 304.474 10.4359 308.284C10.2035 308.726 9.84314 308.958 9.35497 308.981C8.89004 309.028 8.50648 308.865 8.20427 308.494C7.39065 307.564 7.23955 306.496 7.75097 305.287C9.21549 301.849 9.94775 297.109 9.94775 291.069V283.751C9.94775 283.216 10.1337 282.752 10.5057 282.357C10.9008 281.962 11.3658 281.764 11.9004 281.764H19.0487C19.2346 281.764 19.3276 281.66 19.3276 281.451V280.266C19.3276 279.755 19.502 279.325 19.8507 278.976C20.2226 278.628 20.6643 278.454 21.1757 278.454C21.6871 278.454 22.1172 278.628 22.4659 278.976C22.8378 279.325 23.0238 279.755 23.0238 280.266V281.451C23.0238 281.66 23.1168 281.764 23.3027 281.764H30.5904C31.0321 281.764 31.4041 281.915 31.7063 282.217C32.0085 282.519 32.1596 282.891 32.1596 283.332C32.1596 284.401 31.9736 285.412 31.6016 286.364C31.3459 287.038 31.067 287.654 30.7648 288.211C30.5556 288.629 30.2301 288.908 29.7884 289.048C29.3468 289.187 28.9167 289.152 28.4983 288.943C28.1031 288.734 27.8358 288.409 27.6963 287.967C27.58 287.526 27.6265 287.108 27.8358 286.713ZM19.3276 289.989V285.214C19.3276 285.005 19.2346 284.901 19.0487 284.901H13.7136C13.5044 284.901 13.3998 285.005 13.3998 285.214V289.989C13.3998 290.198 13.5044 290.302 13.7136 290.302H19.0487C19.2346 290.302 19.3276 290.198 19.3276 289.989Z" fill="#34424F"/>
<path d="M42.3763 282.67C42.7482 282.972 42.9458 283.367 42.9691 283.855C42.9923 284.32 42.8528 284.738 42.5506 285.11C42.2484 285.458 41.8649 285.656 41.4 285.702C40.9583 285.725 40.5631 285.586 40.2144 285.284C39.4008 284.564 38.3431 283.693 37.0413 282.67C36.6926 282.391 36.4834 282.031 36.4136 281.59C36.3671 281.125 36.495 280.719 36.7972 280.37C37.0994 279.999 37.483 279.789 37.9479 279.743C38.4128 279.696 38.8312 279.813 39.2032 280.091C40.7142 281.276 41.7719 282.136 42.3763 282.67ZM39.2729 293.474C37.8084 292.172 36.5415 291.115 35.4722 290.302C35.1235 290.023 34.9259 289.663 34.8794 289.222C34.8329 288.781 34.9491 288.386 35.2281 288.037C35.5303 287.689 35.9022 287.491 36.3439 287.445C36.8088 287.375 37.2272 287.479 37.5992 287.758C38.808 288.641 40.0749 289.675 41.4 290.86C41.7719 291.185 41.9695 291.58 41.9927 292.045C42.0392 292.509 41.9114 292.928 41.6092 293.299C41.307 293.648 40.9234 293.845 40.4585 293.892C40.0168 293.915 39.6216 293.776 39.2729 293.474ZM41.6789 298.004C42.1206 298.19 42.446 298.503 42.6553 298.945C42.8645 299.363 42.8877 299.793 42.725 300.234C41.6789 303.185 40.4236 305.891 38.9591 308.354C38.7034 308.772 38.3314 309.028 37.8433 309.121C37.3551 309.237 36.9018 309.156 36.4834 308.877C36.0882 308.621 35.8325 308.25 35.7162 307.762C35.6 307.274 35.6697 306.821 35.9255 306.403C37.39 303.94 38.5988 301.466 39.5519 298.98C39.7146 298.538 39.9936 298.225 40.3887 298.039C40.8072 297.853 41.2372 297.841 41.6789 298.004ZM62.7052 286.713L63.4374 285.145C63.5072 284.982 63.449 284.901 63.2631 284.901H58.1721C57.9862 284.901 57.8932 285.005 57.8932 285.214V289.989C57.8932 290.198 57.9862 290.302 58.1721 290.302H63.2282C63.6466 290.302 64.007 290.453 64.3092 290.755C64.6114 291.057 64.7625 291.417 64.7625 291.836C64.7625 292.904 64.5765 293.892 64.2046 294.798C62.926 297.888 61.3685 300.513 59.532 302.674C59.3926 302.86 59.4042 303.011 59.5669 303.127C61.3104 304.358 63.4258 305.392 65.9131 306.228C66.3316 306.368 66.6454 306.635 66.8546 307.03C67.0638 307.402 67.1103 307.808 66.9941 308.25C66.8779 308.691 66.6222 309.016 66.227 309.225C65.855 309.458 65.4482 309.516 65.0065 309.4C62.0543 308.517 59.4042 307.216 57.0563 305.496C56.9168 305.38 56.7541 305.392 56.5681 305.531C54.4992 307.158 52.0932 308.424 49.3502 309.33C48.9085 309.493 48.4668 309.458 48.0251 309.225C47.6067 309.016 47.3045 308.691 47.1185 308.25C46.9558 307.831 46.9791 307.425 47.1883 307.03C47.3975 306.635 47.7113 306.356 48.1297 306.193C50.2917 305.427 52.2211 304.405 53.9181 303.127C54.0808 302.987 54.104 302.86 53.9878 302.743C52.4071 301.024 51.0704 299.049 49.9778 296.819C49.7686 296.401 49.7454 295.983 49.9081 295.564C50.0941 295.146 50.3963 294.844 50.8147 294.658C51.2564 294.473 51.6864 294.473 52.1049 294.658C52.5465 294.821 52.872 295.111 53.0812 295.53C53.9878 297.295 55.1153 298.91 56.4635 300.374C56.6263 300.536 56.7657 300.536 56.882 300.374C58.4627 298.538 59.7878 296.285 60.8571 293.613C60.9036 293.45 60.8338 293.369 60.6479 293.369H48.583C48.3738 293.369 48.2692 293.474 48.2692 293.683C48.2692 299.607 47.2813 304.474 45.3053 308.284C45.0729 308.726 44.7125 308.958 44.2244 308.981C43.7594 309.028 43.3759 308.865 43.0737 308.494C42.2601 307.564 42.109 306.496 42.6204 305.287C44.0849 301.849 44.8172 297.109 44.8172 291.069V283.751C44.8172 283.216 45.0031 282.752 45.3751 282.357C45.7703 281.962 46.2352 281.764 46.7698 281.764H53.9181C54.104 281.764 54.197 281.66 54.197 281.451V280.266C54.197 279.755 54.3714 279.325 54.7201 278.976C55.092 278.628 55.5337 278.454 56.0451 278.454C56.5565 278.454 56.9866 278.628 57.3353 278.976C57.7072 279.325 57.8932 279.755 57.8932 280.266V281.451C57.8932 281.66 57.9862 281.764 58.1721 281.764H65.4598C65.9015 281.764 66.2735 281.915 66.5757 282.217C66.8779 282.519 67.029 282.891 67.029 283.332C67.029 284.401 66.843 285.412 66.4711 286.364C66.2153 287.038 65.9364 287.654 65.6342 288.211C65.425 288.629 65.0995 288.908 64.6579 289.048C64.2162 289.187 63.7861 289.152 63.3677 288.943C62.9725 288.734 62.7052 288.409 62.5657 287.967C62.4495 287.526 62.4959 287.108 62.7052 286.713ZM54.197 289.989V285.214C54.197 285.005 54.104 284.901 53.9181 284.901H48.583C48.3738 284.901 48.2692 285.005 48.2692 285.214V289.989C48.2692 290.198 48.3738 290.302 48.583 290.302H53.9181C54.104 290.302 54.197 290.198 54.197 289.989Z" fill="#34424F"/>
<path d="M71.4922 309.644C71.0738 309.667 70.7019 309.539 70.3764 309.26C70.0742 308.981 69.9115 308.633 69.8883 308.215C69.865 307.797 69.9929 307.425 70.2718 307.1C70.5508 306.798 70.8995 306.635 71.3179 306.612C73.9912 306.449 75.8044 306.333 76.7575 306.263C76.9435 306.263 77.0365 306.147 77.0365 305.915V304.73C77.0365 304.521 76.9435 304.416 76.7575 304.416H71.8061C71.4341 304.416 71.1087 304.288 70.8297 304.033C70.5508 303.754 70.4113 303.417 70.4113 303.022C70.4113 302.627 70.5508 302.302 70.8297 302.046C71.1087 301.768 71.4341 301.628 71.8061 301.628H76.7575C76.9435 301.628 77.0365 301.535 77.0365 301.349V300.374C77.0365 300.165 76.9435 300.06 76.7575 300.06H74.3864H72.887C72.3524 300.06 71.8874 299.863 71.4922 299.468C71.0971 299.073 70.8995 298.608 70.8995 298.074V291.243C70.8995 290.709 71.0971 290.244 71.4922 289.849C71.8874 289.454 72.3524 289.257 72.887 289.257H76.7575C76.9435 289.257 77.0365 289.164 77.0365 288.978V288.002C77.0365 287.793 76.9435 287.689 76.7575 287.689H71.5271C71.1552 287.689 70.8297 287.561 70.5508 287.305C70.2718 287.026 70.1323 286.69 70.1323 286.295C70.1323 285.9 70.2718 285.574 70.5508 285.319C70.8297 285.04 71.1552 284.901 71.5271 284.901H76.7575C76.9435 284.901 77.0365 284.796 77.0365 284.587V283.472C77.0365 283.286 76.9435 283.193 76.7575 283.193C74.7584 283.332 73.2822 283.425 72.3291 283.472C71.9107 283.495 71.5387 283.356 71.2133 283.054C70.9111 282.752 70.7484 282.391 70.7251 281.973C70.7019 281.555 70.8297 281.195 71.1087 280.893C71.4109 280.591 71.7712 280.428 72.1896 280.405C76.3507 280.196 80.6397 279.778 85.0565 279.151C85.4981 279.081 85.8933 279.174 86.242 279.429C86.5907 279.685 86.7883 280.033 86.8348 280.475C86.8813 280.916 86.7767 281.311 86.521 281.66C86.2653 281.985 85.9166 282.182 85.4749 282.252C84.5683 282.391 83.1154 282.577 81.1162 282.81C80.907 282.856 80.8024 282.961 80.8024 283.123V284.587C80.8024 284.796 80.907 284.901 81.1162 284.901H85.7538C86.428 284.901 86.8697 285.238 87.0789 285.911C87.1254 286.051 87.2184 286.074 87.3578 285.981C87.6135 285.795 87.9157 285.702 88.2644 285.702H90.0428C90.252 285.702 90.3566 285.598 90.3566 285.389C90.4031 283.344 90.4263 281.706 90.4263 280.475C90.4263 279.987 90.6007 279.58 90.9494 279.255C91.2981 278.907 91.7165 278.732 92.2047 278.732C92.6928 278.732 93.0997 278.907 93.4251 279.255C93.7506 279.58 93.9133 279.987 93.9133 280.475C93.9133 281.706 93.89 283.344 93.8435 285.389C93.8435 285.598 93.9365 285.702 94.1225 285.702H99.4575C99.9922 285.702 100.457 285.9 100.852 286.295C101.247 286.666 101.445 287.119 101.445 287.654V287.933C101.445 291.441 101.422 294.322 101.375 296.575C101.352 298.829 101.259 300.803 101.096 302.499C100.957 304.172 100.806 305.438 100.643 306.298C100.48 307.134 100.213 307.808 99.8411 308.319C99.4691 308.83 99.0972 309.132 98.7253 309.225C98.3533 309.342 97.8303 309.4 97.1561 309.4C96.8074 309.4 95.7962 309.33 94.1225 309.191C93.6343 309.167 93.2275 308.97 92.9021 308.598C92.5766 308.25 92.4139 307.831 92.4139 307.344C92.4139 306.879 92.5766 306.507 92.9021 306.228C93.2508 305.926 93.646 305.799 94.0876 305.845C94.9013 305.938 95.5754 305.984 96.1101 305.984C96.3425 305.984 96.5401 305.903 96.7028 305.74C96.8656 305.555 97.0167 305.171 97.1561 304.59C97.3189 303.986 97.4351 303.127 97.5048 302.012C97.5978 300.873 97.6675 299.34 97.714 297.411C97.7605 295.46 97.7838 293.067 97.7838 290.233V289.117C97.7838 288.932 97.6792 288.839 97.47 288.839H94.0179C93.8087 288.839 93.7041 288.932 93.7041 289.117C93.4484 293.903 92.9718 297.795 92.2744 300.792C91.6003 303.766 90.6239 306.344 89.3454 308.528C89.1129 308.947 88.7526 309.202 88.2644 309.295C87.7763 309.411 87.323 309.342 86.9045 309.086C86.5326 308.854 86.2885 308.517 86.1723 308.075C86.149 308.029 86.1025 307.994 86.0328 307.971C85.9863 307.948 85.9514 307.959 85.9282 308.006C85.6957 308.215 85.44 308.331 85.1611 308.354C80.6745 308.958 76.1183 309.388 71.4922 309.644ZM80.8024 292.254V293.299C80.8024 293.508 80.907 293.613 81.1162 293.613H83.1038C83.2897 293.613 83.3827 293.508 83.3827 293.299V292.254C83.3827 292.068 83.2897 291.975 83.1038 291.975H81.1162C80.907 291.975 80.8024 292.068 80.8024 292.254ZM80.8024 296.018V297.063C80.8024 297.272 80.907 297.377 81.1162 297.377H83.1038C83.2897 297.377 83.3827 297.272 83.3827 297.063V296.018C83.3827 295.808 83.2897 295.704 83.1038 295.704H81.1162C80.907 295.704 80.8024 295.808 80.8024 296.018ZM80.8024 304.73V305.601C80.8024 305.787 80.8954 305.88 81.0813 305.88C82.4064 305.74 83.6965 305.601 84.9518 305.462C85.5795 305.392 86.0328 305.648 86.3118 306.228C86.335 306.275 86.3699 306.31 86.4164 306.333C86.4861 306.333 86.5442 306.31 86.5907 306.263C87.6368 304.358 88.4504 302.081 89.0316 299.433C89.6127 296.784 90.0079 293.346 90.2171 289.117C90.2171 288.932 90.1241 288.839 89.9382 288.839H88.2644C87.8925 288.839 87.5671 288.722 87.2881 288.49C87.0091 288.258 86.8232 287.967 86.7302 287.619C86.6837 287.433 86.5907 287.387 86.4512 287.479C86.242 287.619 86.0096 287.689 85.7538 287.689H81.1162C80.907 287.689 80.8024 287.793 80.8024 288.002V288.978C80.8024 289.164 80.907 289.257 81.1162 289.257H84.7078C85.2424 289.257 85.7074 289.454 86.1025 289.849C86.4977 290.244 86.6953 290.709 86.6953 291.243V298.074C86.6953 298.608 86.4977 299.073 86.1025 299.468C85.7074 299.863 85.2424 300.06 84.7078 300.06H81.1162C80.907 300.06 80.8024 300.165 80.8024 300.374V301.349C80.8024 301.535 80.907 301.628 81.1162 301.628H85.3005C85.6957 301.628 86.0212 301.768 86.2769 302.046C86.5558 302.302 86.6953 302.627 86.6953 303.022C86.6953 303.417 86.5558 303.754 86.2769 304.033C86.0212 304.288 85.6957 304.416 85.3005 304.416H81.1162C80.907 304.416 80.8024 304.521 80.8024 304.73ZM74.3864 292.254V293.299C74.3864 293.508 74.491 293.613 74.7002 293.613H76.7575C76.9435 293.613 77.0365 293.508 77.0365 293.299V292.254C77.0365 292.068 76.9435 291.975 76.7575 291.975H74.7002C74.491 291.975 74.3864 292.068 74.3864 292.254ZM76.7575 297.377C76.9435 297.377 77.0365 297.272 77.0365 297.063V296.018C77.0365 295.808 76.9435 295.704 76.7575 295.704H74.7002C74.491 295.704 74.3864 295.808 74.3864 296.018V297.063C74.3864 297.272 74.491 297.377 74.7002 297.377H76.7575Z" fill="#34424F"/>
<path d="M105.839 293.474C105.397 293.381 105.06 293.148 104.827 292.777C104.595 292.382 104.537 291.963 104.653 291.522C105.374 288.362 105.897 285.098 106.222 281.729C106.269 281.288 106.455 280.928 106.78 280.649C107.106 280.37 107.489 280.242 107.931 280.266C108.372 280.312 108.733 280.486 109.012 280.788C109.291 281.09 109.419 281.462 109.395 281.904C109.372 282.345 109.314 282.984 109.221 283.82C109.221 284.006 109.314 284.099 109.5 284.099H109.988C110.174 284.099 110.267 284.006 110.267 283.82V280.614C110.267 280.103 110.441 279.673 110.79 279.325C111.162 278.976 111.604 278.802 112.115 278.802C112.627 278.802 113.057 278.976 113.405 279.325C113.754 279.673 113.928 280.103 113.928 280.614V283.82C113.928 284.006 114.033 284.099 114.242 284.099H115.776C116.218 284.099 116.59 284.25 116.892 284.552C117.194 284.854 117.346 285.226 117.346 285.667C117.346 286.109 117.194 286.48 116.892 286.782C116.59 287.085 116.218 287.236 115.776 287.236H114.242C114.033 287.236 113.928 287.34 113.928 287.549V295.111C113.928 295.297 114.021 295.367 114.207 295.321C114.393 295.274 114.695 295.204 115.114 295.111C115.532 294.995 115.846 294.902 116.055 294.833C116.451 294.716 116.811 294.775 117.136 295.007C117.462 295.239 117.648 295.553 117.694 295.948C117.741 296.412 117.624 296.842 117.346 297.237C117.09 297.632 116.753 297.888 116.334 298.004C115.404 298.283 114.707 298.48 114.242 298.596C114.033 298.643 113.928 298.771 113.928 298.98V308.354C113.928 308.865 113.754 309.295 113.405 309.644C113.057 309.992 112.627 310.166 112.115 310.166C111.604 310.166 111.162 309.992 110.79 309.644C110.441 309.295 110.267 308.865 110.267 308.354V299.886C110.267 299.677 110.174 299.595 109.988 299.642C109.081 299.851 107.919 300.106 106.501 300.409C106.083 300.501 105.699 300.42 105.35 300.165C105.002 299.886 104.804 299.526 104.758 299.084C104.711 298.643 104.816 298.248 105.071 297.899C105.327 297.528 105.676 297.295 106.118 297.202C107.791 296.9 109.093 296.633 110.023 296.401C110.186 296.378 110.267 296.25 110.267 296.018V287.549C110.267 287.34 110.174 287.236 109.988 287.236H109.081C108.896 287.236 108.779 287.34 108.733 287.549C108.454 289.175 108.14 290.755 107.791 292.289C107.698 292.73 107.454 293.067 107.059 293.299C106.687 293.532 106.28 293.59 105.839 293.474ZM130.561 306.333C130.979 306.333 131.305 306.042 131.537 305.462C131.77 304.881 131.991 303.522 132.2 301.384C132.409 299.224 132.583 296.029 132.723 291.801C132.7 291.778 132.676 291.754 132.653 291.731C131.514 295.239 129.98 298.492 128.05 301.489C126.121 304.463 123.936 306.96 121.495 308.981C121.1 309.283 120.658 309.411 120.17 309.365C119.705 309.318 119.31 309.098 118.984 308.703C118.682 308.331 118.554 307.913 118.601 307.448C118.671 307.007 118.891 306.623 119.263 306.298C122.099 303.928 124.54 300.989 126.586 297.481C128.632 293.95 130.131 290.093 131.084 285.911C131.131 285.702 131.061 285.598 130.875 285.598H128.678C128.469 285.598 128.341 285.691 128.295 285.876C127.388 288.966 126.156 291.87 124.598 294.589C123.041 297.307 121.321 299.584 119.438 301.419C119.089 301.744 118.671 301.895 118.182 301.872C117.717 301.826 117.322 301.617 116.997 301.245C116.695 300.873 116.555 300.455 116.578 299.99C116.625 299.502 116.822 299.096 117.171 298.771C120.612 295.472 123.192 291.173 124.912 285.876C124.959 285.691 124.889 285.598 124.703 285.598H122.576C122.39 285.598 122.25 285.679 122.158 285.842C120.995 288.42 119.67 290.686 118.182 292.637C117.927 292.986 117.566 293.172 117.101 293.195C116.66 293.195 116.288 293.032 115.986 292.707C115.66 292.382 115.486 291.975 115.463 291.487C115.439 290.999 115.567 290.569 115.846 290.198C118.031 287.177 119.682 283.739 120.798 279.882C120.937 279.418 121.204 279.058 121.6 278.802C122.018 278.523 122.471 278.407 122.96 278.454C123.424 278.5 123.785 278.721 124.04 279.116C124.296 279.487 124.354 279.894 124.215 280.335C124.029 280.986 123.843 281.567 123.657 282.078C123.61 282.264 123.68 282.357 123.866 282.357H134.432C134.966 282.357 135.419 282.566 135.791 282.984C136.187 283.379 136.373 283.844 136.349 284.378C136.233 290.442 136.094 295.123 135.931 298.422C135.791 301.721 135.536 304.23 135.164 305.95C134.815 307.646 134.432 308.679 134.013 309.051C133.618 309.446 133.014 309.644 132.2 309.644C131.061 309.644 129.48 309.585 127.458 309.469C126.993 309.446 126.598 309.26 126.272 308.912C125.947 308.586 125.772 308.191 125.749 307.727C125.726 307.285 125.865 306.914 126.167 306.612C126.493 306.31 126.877 306.17 127.318 306.193C129.038 306.286 130.119 306.333 130.561 306.333Z" fill="#34424F"/>
<path d="M148.449 281.555C148.426 281.578 148.403 281.625 148.379 281.695C148.356 281.764 148.344 281.811 148.344 281.834C148.251 282.02 148.31 282.113 148.519 282.113H153.889C154.144 282.113 154.365 282.206 154.551 282.391C154.737 282.577 154.83 282.798 154.83 283.054C154.83 283.309 154.737 283.542 154.551 283.751C154.365 283.936 154.144 284.029 153.889 284.029H151.901C151.715 284.029 151.622 284.134 151.622 284.343V284.866C151.622 285.075 151.715 285.179 151.901 285.179H154.168C154.447 285.179 154.679 285.272 154.865 285.458C155.074 285.644 155.179 285.876 155.179 286.155C155.179 286.434 155.074 286.678 154.865 286.887C154.679 287.073 154.447 287.166 154.168 287.166H152.598C152.552 287.166 152.517 287.189 152.494 287.236C152.471 287.282 152.471 287.328 152.494 287.375C152.843 287.723 153.215 288.002 153.61 288.211C154.028 288.467 154.295 288.815 154.412 289.257C154.528 289.698 154.435 290.105 154.133 290.477L153.889 290.755C153.865 290.779 153.854 290.813 153.854 290.86C153.877 290.906 153.912 290.93 153.958 290.93H154.237C154.54 290.93 154.795 291.034 155.004 291.243C155.237 291.452 155.353 291.719 155.353 292.045C155.353 292.37 155.237 292.637 155.004 292.846C154.795 293.055 154.54 293.16 154.237 293.16H142.521C141.987 293.16 141.522 292.974 141.126 292.602C140.731 292.207 140.534 291.743 140.534 291.208V280.858C140.534 280.324 140.731 279.859 141.126 279.464C141.522 279.069 141.987 278.872 142.521 278.872H154.342C154.667 278.872 154.946 278.988 155.179 279.22C155.411 279.453 155.528 279.731 155.528 280.057C155.528 280.382 155.411 280.661 155.179 280.893C154.946 281.125 154.667 281.241 154.342 281.241H148.867C148.681 281.241 148.542 281.346 148.449 281.555ZM146.601 284.935C146.485 285.098 146.52 285.179 146.706 285.179H147.996C148.182 285.179 148.275 285.075 148.275 284.866V284.343C148.275 284.134 148.182 284.029 147.996 284.029H147.508C147.322 284.029 147.17 284.111 147.054 284.273C146.799 284.668 146.647 284.889 146.601 284.935ZM143.916 281.555V283.82C143.916 283.867 143.939 283.902 143.986 283.925C144.055 283.948 144.102 283.936 144.125 283.89C144.66 283.17 145.148 282.38 145.59 281.52C145.683 281.334 145.625 281.241 145.415 281.241H144.23C144.021 281.241 143.916 281.346 143.916 281.555ZM143.916 285.075V288.664C143.916 288.85 144.021 288.92 144.23 288.873C145.601 288.478 146.624 287.979 147.298 287.375C147.345 287.328 147.345 287.282 147.298 287.236C147.275 287.189 147.24 287.166 147.194 287.166H146.322C145.857 287.166 145.45 287.003 145.102 286.678C144.776 286.329 144.613 285.923 144.613 285.458C144.613 285.272 144.544 285.145 144.404 285.075L144.195 284.935C144.148 284.889 144.09 284.889 144.021 284.935C143.951 284.959 143.916 285.005 143.916 285.075ZM145.381 290.93C145.427 290.93 145.462 290.895 145.485 290.825C145.508 290.755 145.497 290.709 145.45 290.686L144.16 289.396C144.114 289.35 144.055 289.338 143.986 289.361C143.939 289.385 143.916 289.419 143.916 289.466V290.616C143.916 290.825 144.021 290.93 144.23 290.93H145.381ZM149.809 288.839C148.902 289.698 147.856 290.36 146.671 290.825C146.647 290.871 146.647 290.906 146.671 290.93H152.843C152.866 290.93 152.877 290.918 152.877 290.895C152.877 290.848 152.866 290.813 152.843 290.79C151.889 290.372 151.018 289.733 150.227 288.873C150.088 288.711 149.948 288.699 149.809 288.839ZM170.347 280.405C170.765 280.452 171.103 280.637 171.358 280.963C171.614 281.265 171.719 281.625 171.672 282.043C171.509 283.228 171.184 283.948 170.696 284.204C170.231 284.436 169.068 284.552 167.209 284.552C165.605 284.552 164.617 284.482 164.245 284.343C163.896 284.204 163.722 283.844 163.722 283.263V281.451C163.722 281.265 163.629 281.172 163.443 281.172H161.316C161.107 281.172 161.002 281.276 161.002 281.485C160.956 283.042 160.235 284.25 158.84 285.11C158.817 285.133 158.805 285.168 158.805 285.214C158.805 285.238 158.829 285.249 158.875 285.249H169.161C169.487 285.249 169.766 285.365 169.998 285.598C170.231 285.83 170.347 286.109 170.347 286.434C170.347 287.27 170.091 287.956 169.58 288.49C168.952 289.141 168.22 289.733 167.383 290.267C167.337 290.291 167.313 290.337 167.313 290.407C167.313 290.453 167.337 290.488 167.383 290.511C168.057 290.674 168.999 290.86 170.208 291.069C170.533 291.115 170.777 291.29 170.94 291.592C171.126 291.894 171.172 292.207 171.079 292.533C170.986 292.904 170.777 293.195 170.452 293.404C170.126 293.59 169.777 293.648 169.406 293.578C167.36 293.183 165.547 292.707 163.966 292.149C163.78 292.08 163.594 292.08 163.408 292.149C161.758 292.73 159.933 293.206 157.934 293.578C157.562 293.648 157.213 293.59 156.887 293.404C156.562 293.195 156.353 292.904 156.26 292.533C156.167 292.207 156.213 291.894 156.399 291.592C156.585 291.29 156.841 291.115 157.166 291.069C158.375 290.883 159.247 290.72 159.782 290.581C159.828 290.558 159.851 290.523 159.851 290.477C159.875 290.43 159.863 290.395 159.816 290.372C159.584 290.256 159.061 289.954 158.247 289.466C157.922 289.257 157.759 288.966 157.759 288.595C157.782 288.2 157.957 287.909 158.282 287.723C158.305 287.7 158.317 287.677 158.317 287.654C158.317 287.607 158.294 287.584 158.247 287.584H157.306C156.98 287.584 156.701 287.479 156.469 287.27C156.26 287.038 156.155 286.759 156.155 286.434C156.155 286.109 156.26 285.83 156.469 285.598C156.701 285.365 156.98 285.249 157.306 285.249H157.515C157.562 285.226 157.585 285.179 157.585 285.11L156.887 284.587C156.539 284.285 156.376 283.913 156.399 283.472C156.446 283.007 156.643 282.589 156.992 282.217C157.387 281.776 157.655 281.276 157.794 280.719C157.934 280.161 158.178 279.696 158.526 279.325C158.898 278.93 159.34 278.732 159.851 278.732H165.221C165.756 278.732 166.221 278.93 166.616 279.325C167.011 279.696 167.209 280.15 167.209 280.684V281.869C167.209 282.031 167.244 282.136 167.313 282.182C167.383 282.206 167.616 282.217 168.011 282.217C168.266 282.217 168.441 282.194 168.534 282.148C168.627 282.078 168.697 281.938 168.743 281.729C168.836 281.334 169.022 281.009 169.301 280.754C169.603 280.498 169.952 280.382 170.347 280.405ZM160.618 287.584C160.572 287.584 160.537 287.607 160.514 287.654C160.514 287.7 160.537 287.735 160.584 287.758C161.397 288.293 162.315 288.769 163.338 289.187C163.478 289.234 163.652 289.222 163.861 289.152C164.791 288.711 165.547 288.258 166.128 287.793C166.174 287.747 166.186 287.7 166.163 287.654C166.139 287.607 166.105 287.584 166.058 287.584H160.618ZM140.917 296.645C140.569 296.645 140.266 296.529 140.011 296.296C139.778 296.041 139.662 295.739 139.662 295.39C139.662 295.042 139.778 294.751 140.011 294.519C140.266 294.263 140.569 294.136 140.917 294.136H170.138C170.486 294.136 170.777 294.263 171.01 294.519C171.265 294.751 171.393 295.042 171.393 295.39C171.393 295.739 171.265 296.041 171.01 296.296C170.777 296.529 170.486 296.645 170.138 296.645H160.897C160.688 296.645 160.584 296.749 160.584 296.958V297.342C160.584 297.528 160.688 297.621 160.897 297.621H167.592C168.127 297.621 168.58 297.818 168.952 298.213C169.347 298.608 169.545 299.073 169.545 299.607V308.772C169.545 309.283 169.371 309.713 169.022 310.062C168.673 310.41 168.243 310.584 167.732 310.584H166.965C166.662 310.584 166.407 310.48 166.198 310.271C166.012 310.085 165.919 309.841 165.919 309.539C165.919 309.446 165.861 309.4 165.744 309.4H145.311C145.195 309.4 145.136 309.446 145.136 309.539C145.136 309.841 145.032 310.085 144.823 310.271C144.637 310.48 144.393 310.584 144.09 310.584H143.323C142.812 310.584 142.382 310.41 142.033 310.062C141.684 309.713 141.51 309.283 141.51 308.772V299.607C141.51 299.073 141.696 298.608 142.068 298.213C142.463 297.818 142.928 297.621 143.463 297.621H149.739C149.925 297.621 150.018 297.528 150.018 297.342V296.958C150.018 296.749 149.925 296.645 149.739 296.645H140.917ZM145.136 300.269V301.454C145.136 301.64 145.229 301.733 145.415 301.733C147.88 301.454 149.321 300.966 149.739 300.269C149.832 300.083 149.774 299.99 149.565 299.99H145.45C145.241 299.99 145.136 300.083 145.136 300.269ZM145.136 302.534V303.615C145.136 303.801 145.241 303.893 145.45 303.893H146.845C146.892 303.893 146.926 303.87 146.95 303.824C146.973 303.777 146.961 303.742 146.915 303.719L145.381 302.43C145.218 302.314 145.136 302.348 145.136 302.534ZM165.919 306.716V306.368C165.919 306.159 165.814 306.054 165.605 306.054H145.45C145.241 306.054 145.136 306.159 145.136 306.368V306.716C145.136 306.925 145.241 307.03 145.45 307.03H165.605C165.814 307.03 165.919 306.925 165.919 306.716ZM160.584 300.269V300.687C160.584 300.896 160.677 301.024 160.863 301.071C161.072 301.094 161.769 301.106 162.955 301.106H165.605C165.814 301.106 165.919 301.013 165.919 300.827V300.269C165.919 300.083 165.814 299.99 165.605 299.99H160.897C160.688 299.99 160.584 300.083 160.584 300.269ZM153.61 296.958V297.342C153.61 297.528 153.714 297.621 153.924 297.621H156.713C156.922 297.621 157.027 297.528 157.027 297.342V296.958C157.027 296.749 156.922 296.645 156.713 296.645H153.924C153.714 296.645 153.61 296.749 153.61 296.958ZM153.4 300.304C153.238 301.117 152.773 301.802 152.006 302.36C151.239 302.918 150.018 303.406 148.344 303.824C148.344 303.847 148.356 303.87 148.379 303.893H165.605C165.814 303.893 165.919 303.801 165.919 303.615V303.406C165.919 303.22 165.814 303.127 165.605 303.127H160.863C159.259 303.127 158.212 302.999 157.724 302.743C157.259 302.488 157.027 301.965 157.027 301.175V300.269C157.027 300.083 156.922 299.99 156.713 299.99H153.749C153.563 299.99 153.447 300.095 153.4 300.304Z" fill="#34424F"/>
<path d="M178.367 309.469C178.042 309.818 177.635 309.992 177.147 309.992C176.658 309.992 176.24 309.818 175.891 309.469C175.566 309.144 175.403 308.737 175.403 308.25V281.66C175.403 281.125 175.601 280.661 175.996 280.266C176.391 279.871 176.856 279.673 177.391 279.673H185.132C185.527 279.673 185.864 279.813 186.143 280.091C186.422 280.37 186.561 280.707 186.561 281.102C186.561 281.381 186.538 281.776 186.492 282.287C186.492 282.403 186.538 282.415 186.631 282.322C187.003 281.95 187.468 281.764 188.026 281.764H192.977C193.186 281.764 193.291 281.66 193.291 281.451V280.196C193.291 279.685 193.477 279.243 193.849 278.872C194.244 278.477 194.697 278.279 195.209 278.279C195.72 278.279 196.162 278.477 196.534 278.872C196.929 279.243 197.127 279.685 197.127 280.196V281.451C197.127 281.66 197.22 281.764 197.406 281.764H203.682C204.217 281.764 204.682 281.962 205.077 282.357C205.472 282.752 205.67 283.216 205.67 283.751V287.236C205.67 287.747 205.484 288.188 205.112 288.56C204.763 288.908 204.333 289.083 203.822 289.083C203.705 289.083 203.531 289.059 203.299 289.013C203.113 288.966 203.02 289.024 203.02 289.187C202.973 289.582 202.81 289.919 202.531 290.198C202.253 290.453 201.915 290.581 201.52 290.581H190.083C189.688 290.581 189.351 290.453 189.072 290.198C188.793 289.919 188.63 289.582 188.584 289.187C188.584 289.024 188.491 288.966 188.305 289.013C188.119 289.059 187.956 289.083 187.817 289.083C187.328 289.083 186.91 288.908 186.561 288.56C186.213 288.211 186.038 287.793 186.038 287.305V284.308C186.015 284.285 185.98 284.285 185.934 284.308C185.004 286.724 184.027 288.862 183.005 290.72C182.888 290.906 182.9 291.081 183.039 291.243C184.806 293.59 185.69 296.029 185.69 298.562C185.69 300.141 185.352 301.338 184.678 302.151C184.027 302.941 183.005 303.394 181.61 303.51C181.168 303.533 180.773 303.406 180.424 303.127C180.099 302.848 179.89 302.488 179.797 302.046C179.727 301.675 179.808 301.349 180.041 301.071C180.296 300.769 180.622 300.583 181.017 300.513C181.528 300.397 181.877 300.153 182.063 299.781C182.272 299.386 182.377 298.724 182.377 297.795C182.377 296.099 181.761 294.414 180.529 292.742C179.739 291.673 179.646 290.581 180.25 289.466C181.389 287.352 182.354 285.133 183.144 282.81C183.191 282.647 183.121 282.566 182.935 282.566H179.204C178.995 282.566 178.89 282.659 178.89 282.845V308.25C178.89 308.737 178.716 309.144 178.367 309.469ZM189.63 285.11V287.305C189.63 287.491 189.723 287.561 189.909 287.514H190.083H201.52H201.695C201.904 287.561 202.008 287.503 202.008 287.34V287.236V285.11C202.008 284.901 201.904 284.796 201.695 284.796H189.909C189.723 284.796 189.63 284.901 189.63 285.11ZM204.693 300.862C205.158 300.908 205.542 301.106 205.844 301.454C206.17 301.802 206.321 302.209 206.297 302.674C206.251 303.58 206.204 304.323 206.158 304.904C206.135 305.485 206.065 306.042 205.949 306.577C205.856 307.111 205.763 307.518 205.67 307.797C205.6 308.099 205.437 308.377 205.182 308.633C204.949 308.888 204.74 309.063 204.554 309.156C204.391 309.249 204.077 309.33 203.612 309.4C203.171 309.469 202.776 309.504 202.427 309.504C202.078 309.527 201.555 309.539 200.858 309.539C199.254 309.539 198.115 309.458 197.441 309.295C196.766 309.156 196.313 308.9 196.081 308.528C195.848 308.157 195.732 307.518 195.732 306.612V297.237C195.732 297.028 195.627 296.924 195.418 296.924H194.198C193.988 296.924 193.884 297.017 193.884 297.202C193.768 300.269 193.105 302.732 191.896 304.59C190.688 306.449 188.7 308.017 185.934 309.295C185.469 309.504 184.992 309.539 184.504 309.4C184.039 309.26 183.667 308.981 183.388 308.563C183.156 308.191 183.098 307.797 183.214 307.378C183.353 306.96 183.621 306.658 184.016 306.472C186.224 305.473 187.805 304.288 188.758 302.918C189.711 301.524 190.246 299.63 190.362 297.237C190.362 297.028 190.269 296.924 190.083 296.924H187.607C187.166 296.924 186.794 296.773 186.492 296.471C186.189 296.169 186.038 295.797 186.038 295.355C186.038 294.914 186.189 294.542 186.492 294.24C186.794 293.938 187.166 293.787 187.607 293.787H204.066C204.507 293.787 204.879 293.938 205.182 294.24C205.507 294.542 205.67 294.914 205.67 295.355C205.67 295.797 205.507 296.169 205.182 296.471C204.879 296.773 204.507 296.924 204.066 296.924H199.672C199.486 296.924 199.393 297.028 199.393 297.237V305.287C199.393 305.845 199.463 306.17 199.602 306.263C199.742 306.356 200.218 306.403 201.032 306.403C201.52 306.403 201.857 306.391 202.043 306.368C202.229 306.321 202.404 306.159 202.566 305.88C202.752 305.601 202.857 305.218 202.88 304.73C202.927 304.242 202.962 303.452 202.985 302.36C203.008 301.895 203.182 301.524 203.508 301.245C203.857 300.943 204.252 300.815 204.693 300.862Z" fill="#34424F"/>
</svg>
