<svg width="208" height="311" viewBox="0 0 208 311" fill="none" xmlns="http://www.w3.org/2000/svg">
<g clip-path="url(#clip0_2214_171)">
<path d="M14.629 284.956H29.776V288.619H14.629V284.956ZM14.695 293.206H28.423V296.737H14.695V293.206ZM20.173 280.6H24.034V295.186H20.173V280.6ZM12.55 284.956H16.345V293.437C16.345 298.783 15.784 306.571 12.253 311.554C11.56 310.927 9.877 309.937 8.92 309.574C12.253 304.954 12.55 298.222 12.55 293.404V284.956ZM28.852 284.956H29.479L30.106 284.824L33.01 285.517C32.251 288.058 31.228 290.83 30.304 292.645L26.872 291.655C27.598 290.104 28.39 287.563 28.852 285.517V284.956ZM19.216 295.483C21.46 301.555 26.179 306.274 33.109 308.221C32.218 309.013 31.096 310.564 30.535 311.587C23.209 309.079 18.556 303.799 15.817 296.44L19.216 295.483ZM3.838 283.702L6.049 280.831C7.864 281.722 10.603 283.174 11.956 284.098L9.646 287.299C8.359 286.309 5.686 284.725 3.838 283.702ZM1.891 292.678L4.102 289.741C5.95 290.566 8.722 291.952 10.108 292.876L7.831 296.176C6.544 295.186 3.805 293.668 1.891 292.678ZM2.551 308.881C4.102 306.34 6.28 302.182 7.963 298.288L11.065 300.664C9.58 304.195 7.798 308.023 6.082 311.257L2.551 308.881ZM27.004 293.206H27.796L28.489 293.107L30.964 294.163C28.72 303.403 23.275 309.013 16.378 311.653C15.883 310.729 14.662 309.079 13.87 308.386C20.437 306.175 25.321 301.522 27.004 293.932V293.206ZM49.279 284.956H64.426V288.619H49.279V284.956ZM49.345 293.206H63.073V296.737H49.345V293.206ZM54.823 280.6H58.684V295.186H54.823V280.6ZM47.2 284.956H50.995V293.437C50.995 298.783 50.434 306.571 46.903 311.554C46.21 310.927 44.527 309.937 43.57 309.574C46.903 304.954 47.2 298.222 47.2 293.404V284.956ZM63.502 284.956H64.129L64.756 284.824L67.66 285.517C66.901 288.058 65.878 290.83 64.954 292.645L61.522 291.655C62.248 290.104 63.04 287.563 63.502 285.517V284.956ZM53.866 295.483C56.11 301.555 60.829 306.274 67.759 308.221C66.868 309.013 65.746 310.564 65.185 311.587C57.859 309.079 53.206 303.799 50.467 296.44L53.866 295.483ZM38.488 283.702L40.699 280.831C42.514 281.722 45.253 283.174 46.606 284.098L44.296 287.299C43.009 286.309 40.336 284.725 38.488 283.702ZM36.541 292.678L38.752 289.741C40.6 290.566 43.372 291.952 44.758 292.876L42.481 296.176C41.194 295.186 38.455 293.668 36.541 292.678ZM37.201 308.881C38.752 306.34 40.93 302.182 42.613 298.288L45.715 300.664C44.23 304.195 42.448 308.023 40.732 311.257L37.201 308.881ZM61.654 293.206H62.446L63.139 293.107L65.614 294.163C63.37 303.403 57.925 309.013 51.028 311.653C50.533 310.729 49.312 309.079 48.52 308.386C55.087 306.175 59.971 301.522 61.654 293.932V293.206ZM72.214 301.984H87.625V304.789H72.214V301.984ZM71.455 286.276H87.955V289.147H71.455V286.276ZM78.022 283.933H81.586V307.594H78.022V283.933ZM71.29 307.231C75.382 306.934 81.685 306.472 87.625 305.944L87.658 308.947C82.048 309.541 76.042 310.135 71.752 310.531L71.29 307.231ZM75.481 296.704V298.222H84.193V296.704H75.481ZM75.481 292.909V294.394H84.193V292.909H75.481ZM72.313 290.434H87.46V300.697H72.313V290.434ZM85.843 280.798L87.592 283.768C83.368 284.626 77.362 285.121 72.412 285.22C72.28 284.428 71.917 283.174 71.554 282.415C76.471 282.184 82.213 281.59 85.843 280.798ZM87.955 288.091H99.373V291.721H87.955V288.091ZM97.789 288.091H101.584C101.584 288.091 101.551 289.378 101.551 289.84C101.254 303.436 100.99 308.254 99.901 309.739C99.175 310.861 98.416 311.224 97.327 311.422C96.304 311.62 94.753 311.62 93.202 311.554C93.103 310.465 92.674 308.848 92.047 307.792C93.466 307.924 94.72 307.924 95.38 307.924C95.875 307.924 96.205 307.825 96.502 307.363C97.261 306.373 97.525 301.72 97.789 288.949V288.091ZM91.123 281.194H94.918C94.885 295.285 94.852 305.878 87.229 311.884C86.668 310.927 85.381 309.574 84.49 308.914C91.453 303.601 91.09 294.361 91.123 281.194ZM121.978 280.633L125.542 281.326C124.354 286.804 122.176 292.051 119.503 295.351C118.876 294.757 117.325 293.635 116.5 293.14C119.14 290.236 120.988 285.517 121.978 280.633ZM133.066 285.781H136.795C136.795 285.781 136.762 287.068 136.729 287.563C136.102 302.38 135.508 307.792 134.254 309.442C133.495 310.564 132.769 310.96 131.68 311.158C130.756 311.356 129.37 311.356 127.918 311.29C127.819 310.168 127.423 308.485 126.829 307.396C128.05 307.528 129.172 307.561 129.799 307.561C130.294 307.561 130.591 307.396 130.987 306.934C131.911 305.779 132.538 300.664 133.066 286.639V285.781ZM122.968 285.781H134.749V289.444H121.153L122.968 285.781ZM125.278 286.969L128.149 288.388C126.829 294.064 123.925 300.598 120.328 303.964C119.569 303.205 118.315 302.281 117.292 301.72C121.12 298.717 124.024 292.513 125.278 286.969ZM129.865 287.332L132.934 288.751C131.35 297.331 127.852 306.307 122.407 310.861C121.648 310.069 120.262 309.079 119.173 308.551C124.948 304.426 128.347 295.813 129.865 287.332ZM105.808 298.618C109.042 297.892 113.86 296.539 118.414 295.252L118.942 298.75C114.784 300.037 110.263 301.39 106.765 302.413L105.808 298.618ZM111.748 280.633H115.378V311.62H111.748V280.633ZM107.392 282.514L110.692 283.075C110.263 287.431 109.471 292.051 108.283 294.988C107.689 294.526 106.27 293.602 105.478 293.206C106.534 290.566 107.095 286.441 107.392 282.514ZM108.283 287.002H118.117V290.797H107.557L108.283 287.002ZM146.464 308.914H165.835V310.993H146.464V308.914ZM146.464 306.076H165.835V308.023H146.464V306.076ZM141.745 296.539H170.719V299.047H141.745V296.539ZM143.362 300.103H169.069V311.62H165.34V302.149H146.926V311.62H143.362V300.103ZM147.784 283.636L150.028 284.164C149.533 285.55 148.609 286.969 147.652 287.926C147.223 287.596 146.266 287.002 145.705 286.738C146.662 285.88 147.355 284.758 147.784 283.636ZM157.354 287.662H166.858V289.906H157.354V287.662ZM147.883 285.088H155.209V286.87H147.883V285.088ZM145.969 287.86H155.77V289.741H145.969V287.86ZM159.697 281.425H165.571V284.065H159.697V281.425ZM166.165 287.662H166.759L167.32 287.596L169.201 288.223C167.419 292.975 163.195 295.186 157.948 296.275C157.651 295.582 156.991 294.493 156.463 293.899C160.984 293.206 164.812 291.358 166.165 288.025V287.662ZM160.984 289.675C162.667 292.117 166.396 293.47 171.247 293.899C170.554 294.526 169.696 295.813 169.3 296.671C163.921 295.912 160.159 293.899 158.047 290.401L160.984 289.675ZM158.278 281.425H161.281V283.24C161.281 285.187 160.555 287.167 157.486 288.52C157.123 287.86 155.968 286.606 155.407 286.177C157.915 285.286 158.278 284.263 158.278 283.108V281.425ZM164.152 281.425H167.188V283.933C167.188 284.362 167.155 284.593 167.254 284.692C167.32 284.791 167.419 284.824 167.551 284.824C167.683 284.824 167.914 284.824 168.079 284.824C168.211 284.824 168.376 284.824 168.442 284.758C168.541 284.725 168.64 284.659 168.706 284.428C168.772 284.23 168.805 283.768 168.838 283.207C169.366 283.669 170.356 284.164 171.115 284.395C171.016 285.187 170.884 285.979 170.653 286.309C170.455 286.672 170.092 286.936 169.63 287.134C169.267 287.299 168.673 287.332 168.211 287.332C167.815 287.332 167.188 287.332 166.792 287.332C166.099 287.332 165.241 287.134 164.812 286.639C164.35 286.177 164.152 285.583 164.152 283.933V281.425ZM149.797 285.946H152.239V288.19C152.239 289.906 151.48 292.084 147.487 293.47C147.157 292.909 146.464 292.15 145.903 291.688C149.335 290.863 149.797 289.279 149.797 288.124V285.946ZM151.546 297.991H154.549V300.994C154.549 303.172 153.394 305.218 148.807 306.439C148.411 305.779 147.619 304.822 146.959 304.294C150.886 303.634 151.546 302.215 151.546 300.961V297.991ZM157.255 297.958H160.291V302.545C160.291 303.271 160.456 303.37 161.347 303.37C161.776 303.37 163.921 303.37 164.482 303.37C165.043 303.37 165.241 303.337 165.307 303.139C165.901 303.436 166.957 303.667 167.683 303.766C167.485 304.822 166.693 305.185 164.878 305.185C164.251 305.185 161.545 305.185 160.918 305.185C157.981 305.185 157.255 304.657 157.255 302.512V297.958ZM149.962 290.434L151.414 288.982C152.866 289.741 154.714 290.896 155.671 291.754L154.153 293.338C153.229 292.513 151.414 291.259 149.962 290.434ZM156.265 281.722V283.966H145.507V293.305H156.529V295.549H142.57V281.722H156.265ZM194.083 280.798H197.944V285.979H194.083V280.798ZM186.757 284.263H205.864V290.764H202.201V287.629H190.255V290.797H186.757V284.263ZM189.199 290.302H203.323V293.701H189.199V290.302ZM187.219 296.077H205.732V299.608H187.219V296.077ZM190.948 297.793H194.71C194.413 304.888 193.423 309.244 186.328 311.62C185.998 310.663 185.008 309.211 184.249 308.485C190.222 306.703 190.75 303.535 190.948 297.793ZM197.02 297.397H200.749V306.769C200.749 307.726 200.815 307.858 201.244 307.858C201.442 307.858 202.135 307.858 202.366 307.858C202.894 307.858 202.993 307.33 203.059 303.964C203.785 304.558 205.369 305.185 206.359 305.416C206.029 310.069 205.105 311.323 202.795 311.323C202.201 311.323 201.112 311.323 200.584 311.323C197.68 311.323 197.02 310.201 197.02 306.802V297.397ZM176.593 282.052H184.381V285.583H180.058V311.653H176.593V282.052ZM183.16 282.052H183.82L184.381 281.92L186.955 283.372C186.097 286.21 185.008 289.807 184.051 292.381C186.097 294.955 186.493 297.166 186.493 299.08C186.493 301.225 186.064 302.611 185.008 303.337C184.48 303.7 183.853 303.931 183.127 304.03C182.533 304.096 181.741 304.129 180.982 304.129C180.949 303.172 180.652 301.687 180.124 300.73C180.718 300.763 181.147 300.796 181.543 300.763C181.906 300.763 182.236 300.697 182.467 300.499C182.863 300.202 183.028 299.542 183.028 298.618C183.028 297.067 182.599 295.021 180.718 292.81C181.642 289.84 182.698 285.286 183.16 283.174V282.052Z" fill="#34424F"/>
<path fill-rule="evenodd" clip-rule="evenodd" d="M42.9388 230.107C44.5675 229.169 46.6524 229.721 47.5957 231.342L61.4928 255.217L63.057 232.807C63.1565 231.38 64.1449 230.169 65.5277 229.779C66.9104 229.389 68.3904 229.904 69.2272 231.067L87.1311 255.941V233.041C87.1311 231.169 88.6568 229.651 90.5389 229.651C92.421 229.651 93.9468 231.169 93.9468 233.041V266.499C93.9468 267.972 92.9907 269.277 91.581 269.727C90.1713 270.178 88.6305 269.671 87.7684 268.473L69.2002 242.677L67.5211 266.734C67.4174 268.22 66.3502 269.465 64.8911 269.802C63.4321 270.139 61.9232 269.488 61.1725 268.198L41.6978 234.741C40.7545 233.12 41.3101 231.046 42.9388 230.107Z" fill="#34424F"/>
<path fill-rule="evenodd" clip-rule="evenodd" d="M27.9194 229.756C29.4198 229.372 30.9882 230.058 31.7291 231.422L49.893 264.866C50.7879 266.513 50.182 268.577 48.5398 269.475C46.8975 270.373 44.8407 269.765 43.9458 268.117L32.1419 246.384V266.492C32.1419 268.368 30.6258 269.889 28.7555 269.889C26.8853 269.889 25.3691 268.368 25.3691 266.492V233.048C25.3691 231.495 26.4191 230.139 27.9194 229.756Z" fill="#34424F"/>
<path fill-rule="evenodd" clip-rule="evenodd" d="M7.71712 236.466V246.623C9.02147 246.597 10.0169 246.401 10.7222 246.037C11.2043 245.788 11.5611 245.454 11.8352 244.924C12.1331 244.348 12.4191 243.367 12.4191 241.726C12.4191 238.582 11.4185 237.632 10.6157 237.18C9.9187 236.788 8.95475 236.549 7.71712 236.466ZM7.71712 253.408C9.7666 253.377 11.8961 253.047 13.7802 252.075C15.4251 251.226 16.8316 249.915 17.789 248.064C18.7225 246.26 19.1362 244.125 19.1362 241.726C19.1362 236.791 17.3381 233.199 13.8867 231.257C10.8268 229.534 7.09503 229.509 4.06927 229.773C2.33299 229.925 1 231.392 1 233.151V266.499C1 268.372 2.50368 269.89 4.35856 269.89C6.21344 269.89 7.71712 268.372 7.71712 266.499V253.408Z" fill="#34424F"/>
<path fill-rule="evenodd" clip-rule="evenodd" d="M156.29 230.108C157.919 229.169 160.004 229.722 160.947 231.342L174.844 255.217L176.409 232.807C176.508 231.38 177.497 230.169 178.879 229.779C180.262 229.39 181.742 229.905 182.579 231.068L200.483 255.941V233.042C200.483 231.169 202.008 229.651 203.891 229.651C205.773 229.651 207.298 231.169 207.298 233.042V266.499C207.298 267.972 206.342 269.277 204.933 269.728C203.523 270.178 201.982 269.671 201.12 268.474L182.552 242.677L180.873 266.734C180.769 268.221 179.702 269.466 178.243 269.802C176.784 270.139 175.275 269.488 174.524 268.199L155.049 234.741C154.106 233.121 154.662 231.046 156.29 230.108Z" fill="#34424F"/>
<path fill-rule="evenodd" clip-rule="evenodd" d="M141.271 229.756C142.772 229.372 144.34 230.059 145.081 231.423L163.245 264.866C164.14 266.514 163.534 268.578 161.892 269.475C160.249 270.373 158.193 269.765 157.298 268.118L145.494 246.384V266.492C145.494 268.368 143.978 269.89 142.107 269.89C140.237 269.89 138.721 268.368 138.721 266.492V233.048C138.721 231.495 139.771 230.14 141.271 229.756Z" fill="#34424F"/>
<path fill-rule="evenodd" clip-rule="evenodd" d="M121.069 236.466V246.623C122.373 246.597 123.369 246.401 124.074 246.037C124.556 245.788 124.913 245.454 125.187 244.924C125.485 244.348 125.771 243.367 125.771 241.726C125.771 238.582 124.77 237.632 123.967 237.18C123.27 236.788 122.307 236.549 121.069 236.466ZM121.069 253.408C123.118 253.377 125.248 253.047 127.132 252.075C128.777 251.226 130.183 249.915 131.141 248.064C132.074 246.26 132.488 244.125 132.488 241.726C132.488 236.791 130.69 233.199 127.238 231.257C124.179 229.534 120.447 229.509 117.421 229.773C115.685 229.925 114.352 231.392 114.352 233.151V266.499C114.352 268.372 115.855 269.89 117.71 269.89C119.565 269.89 121.069 268.372 121.069 266.499V253.408Z" fill="#34424F"/>
<path fill-rule="evenodd" clip-rule="evenodd" d="M74.6099 22.7103C64.3213 21.2191 55.6447 22.3328 47.9231 26.8188C39.6404 31.6308 33.2163 39.9042 26.9716 50.7821C16.0677 69.7761 9.01276 100.359 5.04925 130.417C1.06528 160.63 0.0909042 191.245 1.819 210.799C2.07759 213.726 4.65932 215.888 7.58546 215.629C10.5116 215.371 12.6741 212.789 12.4155 209.863C10.7749 191.299 11.6807 161.498 15.5957 131.808C19.5312 101.962 26.3942 73.1547 36.1973 56.0783C42.1741 45.6671 47.4516 39.3955 53.267 36.0169C58.8619 32.7664 65.6953 31.7806 75.8058 33.6946C82.9634 35.0495 89.2803 39.8137 92.4759 49.7355C93.3765 52.5316 96.3732 54.0683 99.1693 53.1677C101.965 52.2671 103.502 49.2704 102.601 46.4743C99.414 36.5779 93.522 29.7992 86.1623 26.0707C89.1897 23.2609 92.9532 20.4044 97.0392 18.1237C104.092 14.1871 110.892 12.6227 116.096 14.3258C124.7 17.1417 129.446 22.2032 132.188 28.0346C132.524 28.7488 132.832 29.4783 133.113 30.2209C133.139 30.2946 133.166 30.3678 133.195 30.4407C135.228 35.9335 135.835 42.1215 135.835 48.1049C135.835 51.0425 138.216 53.4238 141.154 53.4238C144.091 53.4238 146.473 51.0425 146.473 48.1049C146.473 42.753 146.047 36.644 144.41 30.6282C146.258 29.5198 148.217 28.6487 150.28 28.3156C153.172 27.8485 156.913 28.3342 161.563 32.4508C166.41 36.7424 168.901 42.8338 169.932 48.9845C170.855 54.4874 170.528 59.597 169.97 62.5273C169.42 65.413 171.314 68.1978 174.199 68.7475C177.085 69.2971 179.87 67.4034 180.42 64.5178C180.835 62.3371 181.132 59.5133 181.149 56.3239C183.942 57.894 186.855 60.005 189.413 62.7034C194.305 67.8637 197.935 75.1756 197.023 85.3889C195.012 107.917 183.693 126.724 178.529 133.017C177.749 133.969 177.322 135.161 177.322 136.391V205.005C177.322 207.943 179.704 210.324 182.641 210.324C185.579 210.324 187.96 207.943 187.96 205.005V138.228C194.427 129.661 205.513 109.919 207.619 86.3349C208.834 72.7195 203.86 62.4815 197.133 55.3847C191.695 49.6484 185.136 45.9701 179.77 43.994C178.164 37.2433 174.879 30.0327 168.615 24.4861C161.775 18.431 154.877 16.7975 148.584 17.8139C145.486 18.3141 142.714 19.4317 140.351 20.7009C136.243 13.5691 129.619 7.55866 119.405 4.21579C109.981 1.1312 99.8494 4.37241 91.8545 8.83493C84.9809 12.6715 78.7934 17.8969 74.6099 22.7103Z" fill="#34424F"/>
<path d="M154.576 68.5176C143.087 68.5176 141.346 84.6316 141.81 96.7077C142.239 107.847 149.47 122.238 154.576 122.238C159.682 122.238 162.731 111.246 163.618 105.75C165.391 93.3391 166.065 68.5176 154.576 68.5176Z" fill="#34424F"/>
<path d="M182.234 96.7077C174.575 96.7077 175.816 118.338 177.588 130.217C177.588 130.217 189.29 118.074 189.29 108.409C189.29 105.75 189.893 96.7077 182.234 96.7077Z" fill="#34424F"/>
<path fill-rule="evenodd" clip-rule="evenodd" d="M147.754 79.4074C146.178 84.2195 145.836 90.6613 146.062 96.5434C146.248 101.385 147.955 107.175 150.243 111.744C151.383 114.019 152.57 115.796 153.617 116.933C154.066 117.42 154.395 117.691 154.602 117.839C154.676 117.773 154.766 117.685 154.873 117.567C155.452 116.932 156.118 115.854 156.784 114.341C158.097 111.355 159.001 107.632 159.411 105.109C160.264 99.1123 160.824 90.2542 159.853 83.0476C159.36 79.3985 158.526 76.5807 157.443 74.7913C156.459 73.1644 155.562 72.7719 154.575 72.7719C152.816 72.7719 151.604 73.3441 150.614 74.2941C149.523 75.3408 148.535 77.0222 147.754 79.4074ZM154.349 118.02C154.349 118.02 154.357 118.015 154.373 118.01C154.357 118.018 154.349 118.021 154.349 118.02ZM144.723 68.1526C147.276 65.7038 150.59 64.2617 154.575 64.2617C159.333 64.2617 162.66 66.972 164.725 70.3869C166.692 73.6393 167.733 77.8027 168.286 81.9102C169.405 90.2016 168.746 99.937 167.83 106.351C167.827 106.367 167.825 106.383 167.823 106.399C167.821 106.408 167.82 106.417 167.818 106.427C167.339 109.399 166.276 113.898 164.573 117.768C163.728 119.69 162.619 121.703 161.162 123.301C159.709 124.895 157.506 126.493 154.575 126.493C151.424 126.493 148.939 124.415 147.357 122.697C145.598 120.787 143.994 118.27 142.634 115.555C139.923 110.143 137.8 103.168 137.558 96.8705C137.32 90.6765 137.615 83.0232 139.666 76.7593C140.699 73.6064 142.271 70.5046 144.723 68.1526ZM177.588 130.216L180.652 133.169C179.527 134.336 177.837 134.763 176.292 134.269C174.748 133.776 173.619 132.447 173.379 130.844C172.471 124.755 171.675 116.052 172.127 108.745C172.349 105.144 172.893 101.498 174.106 98.6194C175.303 95.7801 177.77 92.4518 182.234 92.4518C185.054 92.4518 187.48 93.3127 189.363 94.9533C191.168 96.5267 192.148 98.5319 192.697 100.297C193.629 103.293 193.573 106.584 193.55 107.981C193.547 108.154 193.545 108.298 193.545 108.409C193.545 114.648 189.912 121.044 186.942 125.352C185.377 127.622 183.82 129.558 182.657 130.925C182.074 131.611 181.584 132.16 181.235 132.542C181.06 132.734 180.921 132.884 180.822 132.99C180.772 133.042 180.733 133.084 180.704 133.114L180.67 133.15L180.659 133.162L180.653 133.167C180.653 133.168 180.652 133.169 177.588 130.216ZM180.621 109.269C180.427 112.409 180.494 115.918 180.713 119.36C183.206 115.521 185.034 111.518 185.034 108.409C185.034 108.195 185.036 107.974 185.038 107.747C185.05 106.214 185.063 104.408 184.571 102.824C184.313 101.996 184.007 101.574 183.772 101.369C183.626 101.242 183.301 101.004 182.463 100.967C182.35 101.109 182.173 101.392 181.948 101.925C181.296 103.473 180.824 105.977 180.621 109.269ZM182.6 100.843C182.601 100.851 182.573 100.882 182.511 100.91C182.568 100.849 182.599 100.835 182.6 100.843Z" fill="#34424F"/>
<path d="M72.134 82.8816C68.9426 88.2005 70.5734 100.043 66.2827 108.412C55.6474 129.155 71.0687 139.796 81.7065 137.669C92.3443 135.541 96.0675 104.692 89.153 87.6714C82.2384 70.6509 75.3253 77.5627 72.134 82.8816Z" fill="#34424F"/>
<path d="M130.642 94.5826C128.94 117.135 117.167 118.163 111.494 115.858C100.324 109.477 105.643 91.9232 111.494 69.5838C117.344 47.2445 132.769 66.3925 130.642 94.5826Z" fill="#34424F"/>
<path fill-rule="evenodd" clip-rule="evenodd" d="M127.408 60.5087C132.621 67.1655 135.992 80.2064 134.883 94.9004C133.986 106.786 130.354 114.161 125.045 117.99C119.717 121.833 113.738 121.361 109.89 119.798C109.715 119.727 109.545 119.644 109.381 119.55C101.558 115.081 100.165 106.796 100.869 98.3495C101.499 90.7875 103.916 81.6251 106.474 71.9291C106.774 70.7939 107.075 69.6514 107.376 68.5033C108.175 65.4504 109.197 62.8665 110.477 60.8253C111.748 58.7977 113.437 57.0533 115.653 56.1552C120.626 54.1401 124.891 57.2953 127.408 60.5087ZM117.687 65.3457C117.012 66.4231 116.271 68.1276 115.608 70.6595C115.313 71.7877 115.021 72.8974 114.733 73.9885C112.121 83.9081 109.914 92.2906 109.35 99.0562C108.74 106.377 110.18 110.06 113.352 112.012C115.172 112.667 117.774 112.741 120.066 111.088C122.487 109.342 125.592 104.927 126.397 94.26C127.416 80.7639 124.138 70.1357 120.708 65.7558C119.885 64.7054 119.245 64.2627 118.913 64.111C118.866 64.0894 118.829 64.0756 118.803 64.0668C118.668 64.1452 118.255 64.4398 117.687 65.3457ZM118.747 64.0522C118.747 64.0522 118.748 64.0523 118.75 64.0526ZM78.0763 82.094C77.2586 82.8608 76.4618 83.9338 75.781 85.0685C75.3818 85.7338 74.9955 86.8661 74.661 88.6992C74.3731 90.277 74.176 92.0398 73.9487 94.0728C73.9156 94.3687 73.8819 94.6704 73.8472 94.978C73.3297 99.5599 72.6187 105.375 70.0675 110.351C65.3025 119.645 66.7783 125.644 69.3819 129.012C72.2301 132.696 77.1057 134.247 80.8703 133.494C81.585 133.351 82.9887 132.5 84.5263 129.44C85.984 126.539 87.1355 122.445 87.7951 117.67C89.1224 108.063 88.3064 96.8946 85.2091 89.2705C83.5821 85.2657 82.1172 83.098 81.0221 82.0081C80.4976 81.486 80.1261 81.2797 79.9336 81.1995C79.7628 81.1284 79.6755 81.1305 79.6214 81.1353C79.4535 81.1502 78.9286 81.2946 78.0763 82.094ZM87.0254 75.9761C89.271 78.2111 91.2632 81.562 93.0935 86.0674C96.9108 95.4638 97.6904 108.23 96.2253 118.835C95.4887 124.166 94.1469 129.248 92.1307 133.261C90.1944 137.115 87.1435 140.918 82.5393 141.839C75.6662 143.214 67.5122 140.508 62.6491 134.217C57.5414 127.61 56.6242 117.918 62.4946 106.468C64.234 103.075 64.853 98.7842 65.3907 94.023C65.4233 93.7343 65.4558 93.4425 65.4885 93.1488C65.711 91.1531 65.9438 89.0633 66.2891 87.1715C66.6804 85.0266 67.2871 82.684 68.4835 80.69C69.3984 79.1652 70.6625 77.3796 72.2547 75.8864C73.8122 74.4257 76.0461 72.9087 78.8698 72.6584C81.8961 72.39 84.685 73.6468 87.0254 75.9761Z" fill="#34424F"/>
<path d="M131.706 128.621C123.196 128.621 106.176 154.506 98.7292 167.449C89.2427 183.938 91.4954 203.617 109.367 203.617C127.238 203.617 131.706 195.107 136.493 190.32C140.89 198.83 149.932 203.983 154.046 203.617C168.41 202.341 167.875 179.505 161.492 167.449C155.109 154.506 140.217 128.621 131.706 128.621Z" fill="#34424F"/>
<path fill-rule="evenodd" clip-rule="evenodd" d="M118.184 145.782C112.088 153.673 106.077 163.207 102.416 169.57C98.0391 177.177 96.6305 185.115 97.9332 190.759C98.5695 193.515 99.8104 195.592 101.52 196.988C103.212 198.369 105.704 199.362 109.365 199.362C117.558 199.362 122.272 197.433 125.418 195.261C127.043 194.139 128.373 192.868 129.634 191.515C130.034 191.086 130.504 190.56 130.998 190.005C131.827 189.076 132.726 188.067 133.483 187.311C134.443 186.35 135.804 185.906 137.146 186.115C138.487 186.324 139.649 187.16 140.272 188.367C142.1 191.905 144.946 194.821 147.799 196.8C149.218 197.784 150.564 198.485 151.688 198.909C152.886 199.362 153.536 199.39 153.667 199.378C155.992 199.172 157.571 198.166 158.753 196.579C160.031 194.866 160.942 192.313 161.321 189.08C162.085 182.563 160.518 174.706 157.73 169.439C157.711 169.403 157.692 169.367 157.674 169.33C154.542 162.978 149.325 153.465 143.894 145.598C141.168 141.651 138.489 138.265 136.079 135.912C134.874 134.736 133.838 133.918 132.993 133.416C132.578 133.17 132.257 133.028 132.026 132.951C131.81 132.879 131.71 132.876 131.705 132.875C131.699 132.876 131.581 132.879 131.327 132.962C131.063 133.047 130.704 133.201 130.247 133.46C129.317 133.987 128.182 134.831 126.862 136.024C124.223 138.409 121.242 141.824 118.184 145.782ZM126.053 126.055C127.67 125.14 129.612 124.365 131.705 124.365C133.819 124.365 135.746 125.153 137.339 126.099C138.962 127.064 140.536 128.37 142.024 129.823C145 132.728 148.038 136.622 150.897 140.763C156.62 149.053 162.028 158.923 165.281 165.513C168.856 172.299 170.735 181.859 169.774 190.07C169.288 194.212 168.04 198.361 165.577 201.666C163.019 205.097 159.278 207.424 154.421 207.855C152.495 208.026 150.472 207.547 148.681 206.871C146.815 206.166 144.854 205.115 142.948 203.793C140.523 202.11 138.066 199.904 135.938 197.234C135.912 197.262 135.886 197.29 135.859 197.318C134.378 198.908 132.576 200.661 130.252 202.265C125.499 205.546 119.044 207.872 109.365 207.872C104.091 207.872 99.5994 206.405 96.139 203.581C92.6964 200.771 90.616 196.897 89.641 192.673C87.7211 184.355 89.9294 174.208 95.0393 165.326L98.6487 167.403L95.0393 165.326C98.8247 158.747 105.047 148.866 111.45 140.579C114.642 136.448 117.977 132.583 121.156 129.71C122.745 128.274 124.393 126.995 126.053 126.055Z" fill="#34424F"/>
</g>
<defs>
<clipPath id="clip0_2214_171">
<rect width="208" height="311" fill="white"/>
</clipPath>
</defs>
</svg>
