<svg width="350" height="225" viewBox="0 0 350 225" fill="none" xmlns="http://www.w3.org/2000/svg">
<g clip-path="url(#clip0_1345_110)">
<path d="M270 225C314.183 225 350 189.183 350 145L350 5.42373e-06L-1.5299e-05 1.52588e-05L0 225L270 225Z" fill="#CB5656"/>
<path fill-rule="evenodd" clip-rule="evenodd" d="M143.743 146.826C144.591 146.337 145.678 146.625 146.169 147.47L153.411 159.91L154.226 148.233C154.278 147.489 154.793 146.858 155.513 146.655C156.234 146.452 157.005 146.72 157.441 147.326L166.771 160.288V148.355C166.771 147.379 167.566 146.588 168.546 146.588C169.527 146.588 170.322 147.379 170.322 148.355V165.789C170.322 166.557 169.824 167.237 169.089 167.472C168.355 167.706 167.552 167.442 167.103 166.818L157.427 153.376L156.552 165.912C156.498 166.686 155.942 167.335 155.182 167.511C154.421 167.686 153.635 167.347 153.244 166.675L143.096 149.241C142.604 148.396 142.894 147.315 143.743 146.826Z" fill="white"/>
<path fill-rule="evenodd" clip-rule="evenodd" d="M135.916 146.643C136.698 146.443 137.515 146.801 137.901 147.511L147.366 164.938C147.832 165.797 147.517 166.872 146.661 167.34C145.805 167.808 144.733 167.491 144.267 166.633L138.116 155.308V165.786C138.116 166.763 137.326 167.556 136.352 167.556C135.377 167.556 134.587 166.763 134.587 165.786V148.359C134.587 147.549 135.134 146.843 135.916 146.643Z" fill="white"/>
<path fill-rule="evenodd" clip-rule="evenodd" d="M125.388 150.14V155.433C126.068 155.419 126.586 155.316 126.954 155.127C127.205 154.997 127.391 154.823 127.534 154.547C127.689 154.247 127.838 153.736 127.838 152.881C127.838 151.242 127.317 150.747 126.898 150.512C126.535 150.307 126.033 150.183 125.388 150.14ZM125.388 158.968C126.456 158.952 127.565 158.78 128.547 158.273C129.404 157.831 130.137 157.147 130.636 156.183C131.123 155.243 131.338 154.131 131.338 152.881C131.338 150.309 130.401 148.437 128.603 147.425C127.008 146.528 125.064 146.514 123.487 146.652C122.582 146.731 121.888 147.495 121.888 148.412V165.789C121.888 166.765 122.671 167.556 123.638 167.556C124.604 167.556 125.388 166.765 125.388 165.789V158.968Z" fill="white"/>
<path fill-rule="evenodd" clip-rule="evenodd" d="M202.807 146.826C203.656 146.337 204.742 146.625 205.234 147.47L212.475 159.91L213.29 148.233C213.342 147.489 213.857 146.858 214.578 146.655C215.298 146.452 216.069 146.72 216.506 147.326L225.835 160.288V148.355C225.835 147.379 226.63 146.588 227.611 146.588C228.592 146.588 229.387 147.379 229.387 148.355V165.789C229.387 166.557 228.888 167.237 228.154 167.472C227.419 167.706 226.616 167.442 226.167 166.818L216.491 153.376L215.617 165.912C215.562 166.686 215.006 167.335 214.246 167.511C213.486 167.686 212.699 167.347 212.308 166.675L202.16 149.241C201.669 148.396 201.958 147.315 202.807 146.826Z" fill="white"/>
<path fill-rule="evenodd" clip-rule="evenodd" d="M194.98 146.643C195.762 146.443 196.579 146.801 196.965 147.511L206.43 164.938C206.897 165.797 206.581 166.872 205.725 167.34C204.87 167.808 203.798 167.491 203.331 166.633L197.181 155.308V165.786C197.181 166.763 196.391 167.556 195.416 167.556C194.441 167.556 193.651 166.763 193.651 165.786V148.359C193.651 147.549 194.199 146.843 194.98 146.643Z" fill="white"/>
<path fill-rule="evenodd" clip-rule="evenodd" d="M184.453 150.14V155.433C185.133 155.419 185.652 155.316 186.019 155.127C186.27 154.997 186.456 154.823 186.599 154.547C186.754 154.247 186.903 153.736 186.903 152.881C186.903 151.242 186.382 150.747 185.964 150.512C185.601 150.307 185.098 150.183 184.453 150.14ZM184.453 158.968C185.521 158.952 186.631 158.78 187.613 158.273C188.47 157.831 189.203 157.147 189.702 156.183C190.188 155.243 190.404 154.131 190.404 152.881C190.404 150.309 189.467 148.437 187.668 147.425C186.074 146.528 184.129 146.514 182.552 146.652C181.648 146.731 180.953 147.495 180.953 148.412V165.789C180.953 166.765 181.737 167.556 182.703 167.556C183.67 167.556 184.453 166.765 184.453 165.789V158.968Z" fill="white"/>
<path fill-rule="evenodd" clip-rule="evenodd" d="M158.895 40.147C153.598 39.3794 149.132 39.9527 145.156 42.2621C140.892 44.7394 137.585 48.9986 134.37 54.5987C128.757 64.3769 125.125 80.1215 123.085 95.5955C121.034 111.149 120.532 126.91 121.422 136.977C121.555 138.483 122.884 139.597 124.39 139.464C125.897 139.33 127.01 138.001 126.877 136.495C126.032 126.938 126.499 111.596 128.514 96.3115C130.54 80.9468 134.073 66.1163 139.12 57.3252C142.197 51.9654 144.914 48.7368 147.908 46.9974C150.788 45.324 154.306 44.8165 159.511 45.8018C163.196 46.4994 166.447 48.952 168.093 54.0599C168.556 55.4993 170.099 56.2904 171.538 55.8268C172.978 55.3632 173.769 53.8204 173.305 52.381C171.664 47.2862 168.631 43.7965 164.842 41.877C166.401 40.4305 168.338 38.9599 170.442 37.7858C174.073 35.7592 177.574 34.9538 180.253 35.8306C184.682 37.2803 187.125 39.886 188.537 42.888C188.71 43.2557 188.868 43.6313 189.013 44.0136C189.026 44.0515 189.04 44.0892 189.055 44.1267C190.102 46.9544 190.414 50.1401 190.414 53.2204C190.414 54.7327 191.64 55.9586 193.152 55.9586C194.665 55.9586 195.891 54.7327 195.891 53.2204C195.891 50.4652 195.671 47.3202 194.829 44.2233C195.78 43.6526 196.789 43.2042 197.851 43.0327C199.339 42.7923 201.266 43.0423 203.659 45.1616C206.155 47.3709 207.437 50.5068 207.968 53.6732C208.443 56.5062 208.274 59.1367 207.987 60.6452C207.704 62.1308 208.679 63.5644 210.165 63.8474C211.65 64.1304 213.084 63.1555 213.367 61.6699C213.581 60.5473 213.734 59.0935 213.742 57.4516C215.18 58.2599 216.68 59.3467 217.997 60.7359C220.515 63.3924 222.384 67.1567 221.915 72.4145C220.879 84.0125 215.052 93.6945 212.394 96.9342C211.992 97.4239 211.772 98.0377 211.772 98.6711V133.994C211.772 135.506 212.998 136.732 214.51 136.732C216.023 136.732 217.249 135.506 217.249 133.994V99.6167C220.578 95.206 226.285 85.0431 227.369 72.9016C227.995 65.8922 225.434 60.6216 221.971 56.9681C219.171 54.015 215.795 52.1214 213.033 51.1041C212.206 47.6288 210.515 43.9167 207.29 41.0613C203.769 37.944 200.217 37.1031 196.977 37.6263C195.383 37.8839 193.956 38.4592 192.739 39.1126C190.624 35.4411 187.214 32.3468 181.956 30.6259C177.104 29.0379 171.889 30.7065 167.773 33.0039C164.234 34.979 161.049 37.669 158.895 40.147Z" fill="white"/>
<path d="M200.062 63.729C194.147 63.729 193.251 72.0246 193.49 78.2415C193.711 83.976 197.433 91.385 200.062 91.385C202.691 91.385 204.261 85.726 204.717 82.8965C205.63 76.5073 205.976 63.729 200.062 63.729Z" fill="white"/>
<path d="M214.301 78.2415C210.358 78.2415 210.996 89.3769 211.909 95.4923C211.909 95.4923 217.933 89.2412 217.933 84.2656C217.933 82.8965 218.244 78.2415 214.301 78.2415Z" fill="white"/>
<path fill-rule="evenodd" clip-rule="evenodd" d="M196.551 69.3357C195.739 71.813 195.563 75.1293 195.679 78.1575C195.775 80.6501 196.654 83.6308 197.832 85.9828C198.419 87.1543 199.03 88.0688 199.569 88.654C199.8 88.9049 199.969 89.0444 200.076 89.1205C200.114 89.0867 200.16 89.0412 200.215 88.9809C200.514 88.654 200.856 88.0988 201.199 87.3197C201.875 85.7828 202.34 83.8662 202.551 82.567C202.991 79.48 203.279 74.9197 202.779 71.2097C202.526 69.3311 202.096 67.8805 201.539 66.9593C201.032 66.1217 200.57 65.9197 200.062 65.9197C199.157 65.9197 198.533 66.2143 198.023 66.7033C197.461 67.2422 196.953 68.1078 196.551 69.3357ZM199.946 89.214C199.946 89.2136 199.95 89.2114 199.958 89.2086C199.95 89.213 199.946 89.2144 199.946 89.214ZM194.99 63.5416C196.304 62.281 198.01 61.5386 200.062 61.5386C202.512 61.5386 204.224 62.9338 205.287 64.6919C206.3 66.3663 206.836 68.5096 207.121 70.6242C207.696 74.8927 207.357 79.9046 206.886 83.2064C206.885 83.2147 206.883 83.2229 206.882 83.2311C206.881 83.2359 206.881 83.2407 206.88 83.2455C206.633 84.7754 206.086 87.0917 205.209 89.0842C204.774 90.0735 204.203 91.1099 203.453 91.9325C202.705 92.7532 201.571 93.5757 200.062 93.5757C198.44 93.5757 197.16 92.5063 196.346 91.6217C195.441 90.6385 194.615 89.3424 193.915 87.9448C192.519 85.1587 191.426 81.5677 191.301 78.3259C191.179 75.1372 191.331 71.1972 192.387 67.9724C192.918 66.3493 193.728 64.7525 194.99 63.5416ZM211.909 95.4924L213.487 97.0125C212.908 97.6134 212.037 97.8331 211.242 97.579C210.447 97.3249 209.866 96.6412 209.743 95.8158C209.275 92.6811 208.865 88.2005 209.098 84.4388C209.212 82.5852 209.492 80.7083 210.117 79.2262C210.733 77.7645 212.003 76.0511 214.301 76.0511C215.753 76.0511 217.002 76.4943 217.971 77.3389C218.901 78.1489 219.405 79.1812 219.688 80.0897C220.167 81.6323 220.139 83.3267 220.127 84.0457C220.125 84.1347 220.124 84.2088 220.124 84.2658C220.124 87.4781 218.254 90.7704 216.725 92.9882C215.919 94.157 215.118 95.1536 214.519 95.8575C214.219 96.2106 213.966 96.4931 213.787 96.6901C213.697 96.7886 213.625 96.866 213.574 96.9203C213.549 96.9475 213.528 96.9689 213.514 96.9843L213.496 97.003L213.49 97.0089L213.487 97.0118C213.487 97.0122 213.487 97.0125 211.909 95.4924ZM213.471 84.7088C213.371 86.325 213.405 88.1315 213.518 89.9035C214.802 87.9272 215.743 85.8666 215.743 84.2658C215.743 84.1559 215.744 84.0422 215.745 83.9254C215.751 83.1361 215.758 82.2064 215.504 81.3909C215.371 80.9645 215.214 80.7475 215.093 80.6419C215.018 80.5766 214.85 80.4539 214.419 80.4348C214.361 80.5078 214.27 80.6538 214.154 80.9281C213.818 81.725 213.575 83.0142 213.471 84.7088ZM214.49 80.371C214.49 80.3753 214.476 80.391 214.444 80.4054C214.473 80.374 214.489 80.3668 214.49 80.371Z" fill="white"/>
<path d="M157.621 71.1229C155.978 73.8612 156.817 79.9577 154.608 84.2661C149.133 94.9451 157.072 100.423 162.549 99.3279C168.025 98.2327 169.942 82.351 166.382 73.5888C162.823 64.8265 159.264 68.3847 157.621 71.1229Z" fill="white"/>
<path d="M187.741 77.1467C186.865 88.7568 180.804 89.2861 177.883 88.0996C172.133 84.8144 174.871 75.7776 177.883 64.2771C180.896 52.7766 188.836 62.6342 187.741 77.1467Z" fill="white"/>
<path fill-rule="evenodd" clip-rule="evenodd" d="M186.077 59.6065C188.761 63.0335 190.496 69.7471 189.925 77.3117C189.463 83.4304 187.593 87.2271 184.86 89.1986C182.117 91.177 179.04 90.9339 177.059 90.1292C176.969 90.0926 176.881 90.05 176.796 90.0017C172.769 87.7007 172.052 83.4355 172.414 79.0873C172.739 75.1944 173.983 70.4774 175.3 65.4858C175.454 64.9014 175.609 64.3133 175.764 63.7222C176.176 62.1506 176.702 60.8203 177.36 59.7695C178.015 58.7257 178.884 57.8276 180.025 57.3653C182.586 56.3279 184.781 57.9523 186.077 59.6065ZM181.072 62.0966C180.725 62.6513 180.344 63.5288 180.002 64.8322C179.85 65.4131 179.7 65.9844 179.552 66.5461C178.207 71.6527 177.071 75.9682 176.78 79.4511C176.466 83.2198 177.208 85.1162 178.841 86.1211C179.778 86.4579 181.117 86.4964 182.297 85.6454C183.543 84.7464 185.142 82.4734 185.556 76.982C186.081 70.0341 184.393 64.5626 182.628 62.3078C182.204 61.767 181.875 61.5391 181.704 61.461C181.679 61.4499 181.661 61.4428 181.647 61.4383C181.577 61.4786 181.365 61.6303 181.072 62.0966ZM181.618 61.4308C181.618 61.4307 181.618 61.4308 181.619 61.4309ZM160.68 70.7188C160.259 71.1136 159.849 71.666 159.499 72.2501C159.293 72.5927 159.094 73.1756 158.922 74.1192C158.774 74.9315 158.673 75.839 158.556 76.8856C158.538 77.038 158.521 77.1933 158.503 77.3516C158.237 79.7104 157.871 82.7039 156.557 85.2656C154.104 90.0502 154.864 93.1389 156.204 94.8727C157.671 96.7693 160.181 97.5677 162.119 97.18C162.487 97.1065 163.209 96.6686 164.001 95.093C164.751 93.5993 165.344 91.4919 165.684 89.0338C166.367 84.088 165.947 78.3383 164.352 74.4134C163.515 72.3516 162.761 71.2357 162.197 70.6746C161.927 70.4059 161.736 70.2996 161.637 70.2584C161.549 70.2217 161.504 70.2228 161.476 70.2253C161.389 70.233 161.119 70.3073 160.68 70.7188ZM165.288 67.5693C166.444 68.7199 167.469 70.445 168.411 72.7644C170.377 77.6017 170.778 84.174 170.024 89.6334C169.645 92.3779 168.954 94.9939 167.916 97.0599C166.919 99.044 165.348 101.002 162.978 101.476C159.44 102.184 155.242 100.791 152.738 97.5523C150.109 94.1511 149.637 89.1612 152.659 83.2668C153.554 81.5202 153.873 79.3111 154.15 76.86C154.167 76.7114 154.183 76.5612 154.2 76.4099C154.315 75.3826 154.435 74.3067 154.612 73.3328C154.814 72.2286 155.126 71.0226 155.742 69.996C156.213 69.2111 156.864 68.2918 157.683 67.5231C158.485 66.7712 159.635 65.9902 161.089 65.8613C162.647 65.7231 164.083 66.3701 165.288 67.5693Z" fill="white"/>
<path d="M188.288 94.6709C183.907 94.6709 175.145 107.997 171.312 114.66C166.428 123.148 167.588 133.28 176.788 133.28C185.988 133.28 188.288 128.899 190.753 126.434C193.016 130.815 197.671 133.468 199.789 133.28C207.184 132.623 206.908 120.866 203.622 114.66C200.337 107.997 192.67 94.6709 188.288 94.6709Z" fill="white"/>
<path fill-rule="evenodd" clip-rule="evenodd" d="M181.328 103.506C178.189 107.569 175.095 112.477 173.21 115.752C170.957 119.669 170.232 123.755 170.902 126.66C171.23 128.08 171.869 129.149 172.749 129.867C173.62 130.578 174.903 131.089 176.788 131.089C181.005 131.089 183.432 130.096 185.052 128.978C185.888 128.401 186.573 127.746 187.222 127.05C187.428 126.829 187.67 126.558 187.924 126.273C188.351 125.794 188.814 125.275 189.204 124.885C189.698 124.391 190.398 124.162 191.089 124.27C191.78 124.377 192.378 124.808 192.699 125.429C193.64 127.25 195.105 128.752 196.574 129.771C197.304 130.277 197.997 130.638 198.576 130.856C199.193 131.09 199.527 131.104 199.595 131.098C200.791 130.992 201.604 130.474 202.213 129.657C202.871 128.775 203.34 127.461 203.535 125.796C203.928 122.441 203.122 118.397 201.686 115.685C201.676 115.666 201.667 115.648 201.658 115.629C200.045 112.359 197.359 107.461 194.563 103.411C193.16 101.379 191.781 99.636 190.54 98.4247C189.92 97.8193 189.387 97.3985 188.951 97.14C188.738 97.0132 188.572 96.9401 188.453 96.9004C188.343 96.8635 188.291 96.8617 188.288 96.8616C188.285 96.8617 188.224 96.8635 188.094 96.9059C187.958 96.95 187.773 97.0293 187.538 97.1628C187.059 97.4337 186.475 97.8685 185.795 98.4825C184.437 99.7102 182.902 101.469 181.328 103.506ZM185.379 93.3505C186.211 92.8791 187.211 92.4805 188.288 92.4805C189.377 92.4805 190.369 92.8862 191.189 93.3733C192.024 93.8696 192.835 94.5419 193.601 95.2899C195.132 96.7855 196.696 98.7901 198.169 100.922C201.115 105.19 203.899 110.271 205.573 113.664C207.414 117.157 208.382 122.079 207.886 126.306C207.637 128.438 206.994 130.574 205.726 132.275C204.409 134.042 202.483 135.24 199.983 135.462C198.991 135.55 197.95 135.303 197.028 134.955C196.067 134.592 195.058 134.051 194.076 133.37C192.828 132.504 191.563 131.369 190.468 129.994C190.454 130.008 190.441 130.023 190.427 130.037C189.664 130.856 188.737 131.758 187.54 132.584C185.094 134.273 181.77 135.47 176.788 135.47C174.072 135.47 171.76 134.715 169.979 133.261C168.206 131.815 167.135 129.82 166.633 127.646C165.645 123.364 166.782 118.14 169.412 113.568L171.271 114.637L169.412 113.568C171.361 110.18 174.565 105.094 177.861 100.828C179.504 98.7008 181.221 96.7113 182.857 95.2322C183.676 94.4928 184.524 93.8344 185.379 93.3505Z" fill="white"/>
<path d="M129.021 177.794H136.824V179.681H129.021V177.794ZM129.055 182.044H136.127V183.863H129.055V182.044ZM131.877 175.55H133.866V183.064H131.877V175.55ZM127.95 177.794H129.905V182.163C129.905 184.917 129.616 188.929 127.797 191.496C127.44 191.173 126.573 190.663 126.08 190.476C127.797 188.096 127.95 184.628 127.95 182.146V177.794ZM136.348 177.794H136.671L136.994 177.726L138.49 178.083C138.099 179.392 137.572 180.82 137.096 181.755L135.328 181.245C135.702 180.446 136.11 179.137 136.348 178.083V177.794ZM131.384 183.217C132.54 186.345 134.971 188.776 138.541 189.779C138.082 190.187 137.504 190.986 137.215 191.513C133.441 190.221 131.044 187.501 129.633 183.71L131.384 183.217ZM123.462 177.148L124.601 175.669C125.536 176.128 126.947 176.876 127.644 177.352L126.454 179.001C125.791 178.491 124.414 177.675 123.462 177.148ZM122.459 181.772L123.598 180.259C124.55 180.684 125.978 181.398 126.692 181.874L125.519 183.574C124.856 183.064 123.445 182.282 122.459 181.772ZM122.799 190.119C123.598 188.81 124.72 186.668 125.587 184.662L127.185 185.886C126.42 187.705 125.502 189.677 124.618 191.343L122.799 190.119ZM135.396 182.044H135.804L136.161 181.993L137.436 182.537C136.28 187.297 133.475 190.187 129.922 191.547C129.667 191.071 129.038 190.221 128.63 189.864C132.013 188.725 134.529 186.328 135.396 182.418V182.044ZM146.871 177.794H154.674V179.681H146.871V177.794ZM146.905 182.044H153.977V183.863H146.905V182.044ZM149.727 175.55H151.716V183.064H149.727V175.55ZM145.8 177.794H147.755V182.163C147.755 184.917 147.466 188.929 145.647 191.496C145.29 191.173 144.423 190.663 143.93 190.476C145.647 188.096 145.8 184.628 145.8 182.146V177.794ZM154.198 177.794H154.521L154.844 177.726L156.34 178.083C155.949 179.392 155.422 180.82 154.946 181.755L153.178 181.245C153.552 180.446 153.96 179.137 154.198 178.083V177.794ZM149.234 183.217C150.39 186.345 152.821 188.776 156.391 189.779C155.932 190.187 155.354 190.986 155.065 191.513C151.291 190.221 148.894 187.501 147.483 183.71L149.234 183.217ZM141.312 177.148L142.451 175.669C143.386 176.128 144.797 176.876 145.494 177.352L144.304 179.001C143.641 178.491 142.264 177.675 141.312 177.148ZM140.309 181.772L141.448 180.259C142.4 180.684 143.828 181.398 144.542 181.874L143.369 183.574C142.706 183.064 141.295 182.282 140.309 181.772ZM140.649 190.119C141.448 188.81 142.57 186.668 143.437 184.662L145.035 185.886C144.27 187.705 143.352 189.677 142.468 191.343L140.649 190.119ZM153.246 182.044H153.654L154.011 181.993L155.286 182.537C154.13 187.297 151.325 190.187 147.772 191.547C147.517 191.071 146.888 190.221 146.48 189.864C149.863 188.725 152.379 186.328 153.246 182.418V182.044ZM158.686 186.566H166.625V188.011H158.686V186.566ZM158.295 178.474H166.795V179.953H158.295V178.474ZM161.678 177.267H163.514V189.456H161.678V177.267ZM158.21 189.269C160.318 189.116 163.565 188.878 166.625 188.606L166.642 190.153C163.752 190.459 160.658 190.765 158.448 190.969L158.21 189.269ZM160.369 183.846V184.628H164.857V183.846H160.369ZM160.369 181.891V182.656H164.857V181.891H160.369ZM158.737 180.616H166.54V185.903H158.737V180.616ZM165.707 175.652L166.608 177.182C164.432 177.624 161.338 177.879 158.788 177.93C158.72 177.522 158.533 176.876 158.346 176.485C160.879 176.366 163.837 176.06 165.707 175.652ZM166.795 179.409H172.677V181.279H166.795V179.409ZM171.861 179.409H173.816C173.816 179.409 173.799 180.072 173.799 180.31C173.646 187.314 173.51 189.796 172.949 190.561C172.575 191.139 172.184 191.326 171.623 191.428C171.096 191.53 170.297 191.53 169.498 191.496C169.447 190.935 169.226 190.102 168.903 189.558C169.634 189.626 170.28 189.626 170.62 189.626C170.875 189.626 171.045 189.575 171.198 189.337C171.589 188.827 171.725 186.43 171.861 179.851V179.409ZM168.427 175.856H170.382C170.365 183.115 170.348 188.572 166.421 191.666C166.132 191.173 165.469 190.476 165.01 190.136C168.597 187.399 168.41 182.639 168.427 175.856ZM184.322 175.567L186.158 175.924C185.546 178.746 184.424 181.449 183.047 183.149C182.724 182.843 181.925 182.265 181.5 182.01C182.86 180.514 183.812 178.083 184.322 175.567ZM190.034 178.219H191.955C191.955 178.219 191.938 178.882 191.921 179.137C191.598 186.77 191.292 189.558 190.646 190.408C190.255 190.986 189.881 191.19 189.32 191.292C188.844 191.394 188.13 191.394 187.382 191.36C187.331 190.782 187.127 189.915 186.821 189.354C187.45 189.422 188.028 189.439 188.351 189.439C188.606 189.439 188.759 189.354 188.963 189.116C189.439 188.521 189.762 185.886 190.034 178.661V178.219ZM184.832 178.219H190.901V180.106H183.897L184.832 178.219ZM186.022 178.831L187.501 179.562C186.821 182.486 185.325 185.852 183.472 187.586C183.081 187.195 182.435 186.719 181.908 186.43C183.88 184.883 185.376 181.687 186.022 178.831ZM188.385 179.018L189.966 179.749C189.15 184.169 187.348 188.793 184.543 191.139C184.152 190.731 183.438 190.221 182.877 189.949C185.852 187.824 187.603 183.387 188.385 179.018ZM175.992 184.832C177.658 184.458 180.14 183.761 182.486 183.098L182.758 184.9C180.616 185.563 178.287 186.26 176.485 186.787L175.992 184.832ZM179.052 175.567H180.922V191.53H179.052V175.567ZM176.808 176.536L178.508 176.825C178.287 179.069 177.879 181.449 177.267 182.962C176.961 182.724 176.23 182.248 175.822 182.044C176.366 180.684 176.655 178.559 176.808 176.536ZM177.267 178.848H182.333V180.803H176.893L177.267 178.848ZM196.936 190.136H206.915V191.207H196.936V190.136ZM196.936 188.674H206.915V189.677H196.936V188.674ZM194.505 183.761H209.431V185.053H194.505V183.761ZM195.338 185.597H208.581V191.53H206.66V186.651H197.174V191.53H195.338V185.597ZM197.616 177.114L198.772 177.386C198.517 178.1 198.041 178.831 197.548 179.324C197.327 179.154 196.834 178.848 196.545 178.712C197.038 178.27 197.395 177.692 197.616 177.114ZM202.546 179.188H207.442V180.344H202.546V179.188ZM197.667 177.862H201.441V178.78H197.667V177.862ZM196.681 179.29H201.73V180.259H196.681V179.29ZM203.753 175.975H206.779V177.335H203.753V175.975ZM207.085 179.188H207.391L207.68 179.154L208.649 179.477C207.731 181.925 205.555 183.064 202.852 183.625C202.699 183.268 202.359 182.707 202.087 182.401C204.416 182.044 206.388 181.092 207.085 179.375V179.188ZM204.416 180.225C205.283 181.483 207.204 182.18 209.703 182.401C209.346 182.724 208.904 183.387 208.7 183.829C205.929 183.438 203.991 182.401 202.903 180.599L204.416 180.225ZM203.022 175.975H204.569V176.91C204.569 177.913 204.195 178.933 202.614 179.63C202.427 179.29 201.832 178.644 201.543 178.423C202.835 177.964 203.022 177.437 203.022 176.842V175.975ZM206.048 175.975H207.612V177.267C207.612 177.488 207.595 177.607 207.646 177.658C207.68 177.709 207.731 177.726 207.799 177.726C207.867 177.726 207.986 177.726 208.071 177.726C208.139 177.726 208.224 177.726 208.258 177.692C208.309 177.675 208.36 177.641 208.394 177.522C208.428 177.42 208.445 177.182 208.462 176.893C208.734 177.131 209.244 177.386 209.635 177.505C209.584 177.913 209.516 178.321 209.397 178.491C209.295 178.678 209.108 178.814 208.87 178.916C208.683 179.001 208.377 179.018 208.139 179.018C207.935 179.018 207.612 179.018 207.408 179.018C207.051 179.018 206.609 178.916 206.388 178.661C206.15 178.423 206.048 178.117 206.048 177.267V175.975ZM198.653 178.304H199.911V179.46C199.911 180.344 199.52 181.466 197.463 182.18C197.293 181.891 196.936 181.5 196.647 181.262C198.415 180.837 198.653 180.021 198.653 179.426V178.304ZM199.554 184.509H201.101V186.056C201.101 187.178 200.506 188.232 198.143 188.861C197.939 188.521 197.531 188.028 197.191 187.756C199.214 187.416 199.554 186.685 199.554 186.039V184.509ZM202.495 184.492H204.059V186.855C204.059 187.229 204.144 187.28 204.603 187.28C204.824 187.28 205.929 187.28 206.218 187.28C206.507 187.28 206.609 187.263 206.643 187.161C206.949 187.314 207.493 187.433 207.867 187.484C207.765 188.028 207.357 188.215 206.422 188.215C206.099 188.215 204.705 188.215 204.382 188.215C202.869 188.215 202.495 187.943 202.495 186.838V184.492ZM198.738 180.616L199.486 179.868C200.234 180.259 201.186 180.854 201.679 181.296L200.897 182.112C200.421 181.687 199.486 181.041 198.738 180.616ZM201.985 176.128V177.284H196.443V182.095H202.121V183.251H194.93V176.128H201.985ZM221.467 175.652H223.456V178.321H221.467V175.652ZM217.693 177.437H227.536V180.786H225.649V179.171H219.495V180.803H217.693V177.437ZM218.951 180.548H226.227V182.299H218.951V180.548ZM217.931 183.523H227.468V185.342H217.931V183.523ZM219.852 184.407H221.79C221.637 188.062 221.127 190.306 217.472 191.53C217.302 191.037 216.792 190.289 216.401 189.915C219.478 188.997 219.75 187.365 219.852 184.407ZM222.98 184.203H224.901V189.031C224.901 189.524 224.935 189.592 225.156 189.592C225.258 189.592 225.615 189.592 225.734 189.592C226.006 189.592 226.057 189.32 226.091 187.586C226.465 187.892 227.281 188.215 227.791 188.334C227.621 190.731 227.145 191.377 225.955 191.377C225.649 191.377 225.088 191.377 224.816 191.377C223.32 191.377 222.98 190.799 222.98 189.048V184.203ZM212.457 176.298H216.469V178.117H214.242V191.547H212.457V176.298ZM215.84 176.298H216.18L216.469 176.23L217.795 176.978C217.353 178.44 216.792 180.293 216.299 181.619C217.353 182.945 217.557 184.084 217.557 185.07C217.557 186.175 217.336 186.889 216.792 187.263C216.52 187.45 216.197 187.569 215.823 187.62C215.517 187.654 215.109 187.671 214.718 187.671C214.701 187.178 214.548 186.413 214.276 185.92C214.582 185.937 214.803 185.954 215.007 185.937C215.194 185.937 215.364 185.903 215.483 185.801C215.687 185.648 215.772 185.308 215.772 184.832C215.772 184.033 215.551 182.979 214.582 181.84C215.058 180.31 215.602 177.964 215.84 176.876V176.298Z" fill="white"/>
<path fill-rule="evenodd" clip-rule="evenodd" d="M158.73 40.2132C153.456 39.4489 149.009 40.0197 145.051 42.3191C140.806 44.7856 137.513 49.0262 134.312 54.6019C128.723 64.3376 125.107 80.0135 123.076 95.4202C121.033 110.906 120.534 126.598 121.42 136.621C121.552 138.121 122.876 139.23 124.375 139.097C125.875 138.965 126.984 137.641 126.851 136.141C126.01 126.626 126.475 111.351 128.481 96.133C130.498 80.8352 134.016 66.0693 139.041 57.3165C142.104 51.9801 144.81 48.7655 147.79 47.0337C150.658 45.3676 154.161 44.8623 159.343 45.8434C163.012 46.5378 166.25 48.9798 167.888 54.0654C168.349 55.4986 169.885 56.2863 171.318 55.8247C172.752 55.3631 173.539 53.827 173.078 52.3938C171.444 47.3213 168.424 43.8467 164.651 41.9356C166.203 40.4954 168.132 39.0313 170.226 37.8623C173.842 35.8445 177.327 35.0426 179.994 35.9156C184.404 37.3589 186.837 39.9533 188.243 42.9422C188.415 43.3083 188.573 43.6823 188.717 44.0629C188.73 44.1006 188.744 44.1382 188.759 44.1755C189.801 46.9909 190.112 50.1627 190.112 53.2296C190.112 54.7353 191.332 55.9559 192.838 55.9559C194.344 55.9559 195.564 54.7353 195.564 53.2296C195.564 50.4864 195.346 47.3551 194.507 44.2717C195.454 43.7035 196.459 43.257 197.516 43.0863C198.998 42.8469 200.916 43.0958 203.299 45.2059C205.784 47.4056 207.061 50.5278 207.589 53.6805C208.062 56.5011 207.894 59.1201 207.608 60.6221C207.327 62.1012 208.297 63.5286 209.776 63.8103C211.255 64.0921 212.683 63.1214 212.965 61.6423C213.177 60.5246 213.33 59.0772 213.338 57.4424C214.77 58.2472 216.263 59.3292 217.574 60.7123C220.082 63.3573 221.942 67.1052 221.475 72.3401C220.444 83.8875 214.642 93.5274 211.996 96.753C211.596 97.2405 211.377 97.8517 211.377 98.4823V133.651C211.377 135.157 212.597 136.378 214.103 136.378C215.609 136.378 216.829 135.157 216.829 133.651V99.4238C220.144 95.0323 225.827 84.9137 226.906 72.8251C227.529 65.8462 224.98 60.5986 221.531 56.961C218.744 54.0208 215.382 52.1354 212.632 51.1225C211.808 47.6623 210.125 43.9664 206.914 41.1234C203.408 38.0198 199.872 37.1825 196.647 37.7034C195.059 37.9599 193.638 38.5327 192.427 39.1832C190.321 35.5277 186.926 32.447 181.691 30.7335C176.86 29.1525 171.667 30.8138 167.569 33.1011C164.046 35.0676 160.874 37.746 158.73 40.2132Z" fill="white"/>
<path d="M199.72 63.6919C193.831 63.6919 192.939 71.9514 193.177 78.1412C193.396 83.8507 197.102 91.2274 199.72 91.2274C202.337 91.2274 203.9 85.5931 204.354 82.7759C205.263 76.4146 205.608 63.6919 199.72 63.6919Z" fill="white"/>
<path d="M213.896 78.1412C209.971 78.1412 210.606 89.2281 211.515 95.3168C211.515 95.3168 217.513 89.093 217.513 84.139C217.513 82.7759 217.822 78.1412 213.896 78.1412Z" fill="white"/>
<path fill-rule="evenodd" clip-rule="evenodd" d="M196.224 69.2739C195.416 71.7404 195.241 75.0423 195.356 78.0573C195.452 80.5391 196.327 83.5067 197.5 85.8485C198.084 87.0149 198.692 87.9254 199.229 88.5081C199.459 88.7578 199.628 88.8968 199.734 88.9726C199.772 88.9388 199.818 88.8936 199.873 88.8335C200.17 88.508 200.511 87.9553 200.852 87.1796C201.526 85.6494 201.988 83.7411 202.199 82.4475C202.636 79.374 202.923 74.8336 202.425 71.1398C202.173 69.2693 201.745 67.8251 201.19 66.9078C200.686 66.0739 200.226 65.8728 199.72 65.8728C198.818 65.8728 198.197 66.1661 197.69 66.653C197.13 67.1895 196.624 68.0514 196.224 69.2739ZM199.604 89.0656C199.604 89.0652 199.608 89.063 199.617 89.0603C199.608 89.0646 199.604 89.066 199.604 89.0656ZM194.67 63.5051C195.979 62.2499 197.677 61.5107 199.72 61.5107C202.159 61.5107 203.864 62.8999 204.923 64.6503C205.931 66.3174 206.464 68.4514 206.748 70.5568C207.321 74.8067 206.984 79.7967 206.514 83.0842C206.513 83.0924 206.512 83.1006 206.51 83.1088C206.51 83.1136 206.509 83.1183 206.508 83.1231C206.262 84.6464 205.718 86.9526 204.845 88.9364C204.411 89.9213 203.843 90.9533 203.096 91.7723C202.351 92.5894 201.222 93.4083 199.72 93.4083C198.105 93.4083 196.831 92.3435 196.02 91.4628C195.119 90.484 194.296 89.1934 193.599 87.802C192.21 85.028 191.122 81.4526 190.998 78.2249C190.876 75.0501 191.027 71.1273 192.078 67.9166C192.607 66.3005 193.413 64.7106 194.67 63.5051ZM211.516 95.3167L213.086 96.8301C212.51 97.4285 211.643 97.6472 210.852 97.3942C210.06 97.1412 209.481 96.4605 209.359 95.6387C208.893 92.5176 208.485 88.0566 208.716 84.3112C208.83 82.4657 209.109 80.597 209.731 79.1213C210.345 77.666 211.609 75.9601 213.897 75.9601C215.343 75.9601 216.586 76.4013 217.551 77.2422C218.477 78.0487 218.979 79.0765 219.26 79.981C219.738 81.5169 219.709 83.204 219.697 83.9198C219.696 84.0085 219.695 84.0822 219.695 84.1389C219.695 87.3373 217.832 90.6153 216.31 92.8234C215.508 93.9871 214.71 94.9794 214.114 95.6802C213.815 96.0317 213.564 96.313 213.385 96.5091C213.296 96.6073 213.224 96.6843 213.173 96.7384C213.148 96.7654 213.128 96.7867 213.113 96.8021L213.095 96.8207L213.09 96.8266L213.087 96.8295C213.086 96.8298 213.086 96.8301 211.516 95.3167ZM213.07 84.5801C212.971 86.1892 213.005 87.9878 213.118 89.7521C214.395 87.7845 215.332 85.7328 215.332 84.1389C215.332 84.0296 215.333 83.9164 215.334 83.8001C215.34 83.0142 215.347 82.0886 215.095 81.2766C214.963 80.8521 214.806 80.636 214.685 80.5309C214.611 80.4658 214.444 80.3437 214.014 80.3247C213.957 80.3973 213.866 80.5427 213.751 80.8158C213.416 81.6092 213.174 82.8928 213.07 84.5801ZM214.085 80.2612C214.085 80.2654 214.071 80.2811 214.039 80.2954C214.068 80.2641 214.084 80.2569 214.085 80.2612Z" fill="white"/>
<path d="M157.463 71.0536C155.827 73.7799 156.663 79.8499 154.464 84.1395C149.012 94.772 156.917 100.226 162.369 99.1358C167.822 98.0452 169.73 82.2328 166.186 73.5087C162.642 64.7846 159.099 68.3273 157.463 71.0536Z" fill="white"/>
<path d="M187.452 77.0512C186.58 88.6106 180.545 89.1377 177.637 87.9563C171.912 84.6854 174.638 75.688 177.637 64.2376C180.636 52.7872 188.543 62.6018 187.452 77.0512Z" fill="white"/>
<path fill-rule="evenodd" clip-rule="evenodd" d="M185.795 59.587C188.467 62.9991 190.195 69.6834 189.627 77.2151C189.167 83.3071 187.305 87.0873 184.584 89.0502C181.853 91.02 178.789 90.778 176.816 89.9768C176.727 89.9403 176.639 89.8979 176.555 89.8499C172.545 87.5588 171.831 83.3122 172.192 78.983C172.515 75.107 173.754 70.4106 175.065 65.4407C175.219 64.8589 175.373 64.2733 175.527 63.6848C175.937 62.12 176.461 60.7956 177.117 59.7493C177.768 58.7101 178.634 57.8159 179.77 57.3556C182.319 56.3227 184.505 57.94 185.795 59.587ZM180.813 62.0663C180.466 62.6186 180.087 63.4922 179.747 64.79C179.596 65.3683 179.446 65.9371 179.299 66.4964C177.96 71.5808 176.828 75.8774 176.539 79.3452C176.227 83.0975 176.965 84.9856 178.591 85.9862C179.523 86.3214 180.857 86.3598 182.032 85.5125C183.273 84.6174 184.864 82.3543 185.277 76.8868C185.799 69.9692 184.119 64.5215 182.361 62.2765C181.939 61.7381 181.611 61.5112 181.441 61.4335C181.417 61.4224 181.398 61.4153 181.384 61.4108C181.315 61.451 181.104 61.602 180.813 62.0663ZM181.356 61.4033C181.356 61.4033 181.356 61.4034 181.357 61.4035ZM160.509 70.6509C160.09 71.044 159.682 71.594 159.333 72.1756C159.128 72.5166 158.93 73.097 158.759 74.0365C158.611 74.8453 158.51 75.7488 158.394 76.7909C158.377 76.9426 158.36 77.0972 158.342 77.2549C158.077 79.6034 157.712 82.5838 156.404 85.1344C153.962 89.8981 154.718 92.9734 156.053 94.6996C157.513 96.588 160.012 97.3828 161.942 96.9969C162.308 96.9236 163.027 96.4876 163.816 94.919C164.563 93.4318 165.153 91.3335 165.491 88.8861C166.171 83.9619 165.753 78.2372 164.165 74.3294C163.332 72.2766 162.581 71.1655 162.019 70.6069C161.751 70.3393 161.56 70.2336 161.461 70.1925C161.374 70.156 161.329 70.1571 161.301 70.1596C161.215 70.1672 160.946 70.2412 160.509 70.6509ZM165.096 67.5151C166.247 68.6607 167.269 70.3783 168.207 72.6876C170.163 77.5039 170.563 84.0475 169.812 89.4831C169.434 92.2157 168.747 94.8203 167.713 96.8772C166.721 98.8528 165.157 100.802 162.797 101.274C159.274 101.979 155.095 100.592 152.602 97.3676C149.984 93.9811 149.514 89.013 152.523 83.1443C153.414 81.4052 153.732 79.2058 154.007 76.7654C154.024 76.6174 154.041 76.4678 154.057 76.3173C154.171 75.2944 154.291 74.2232 154.468 73.2535C154.668 72.1541 154.979 70.9534 155.593 69.9313C156.061 69.1497 156.709 68.2345 157.526 67.4692C158.324 66.7205 159.469 65.9429 160.916 65.8146C162.467 65.677 163.897 66.3212 165.096 67.5151Z" fill="white"/>
<path d="M187.997 94.499C183.635 94.499 174.911 107.767 171.094 114.401C166.232 122.852 167.386 132.94 176.547 132.94C185.707 132.94 187.997 128.578 190.451 126.124C192.704 130.486 197.339 133.127 199.447 132.94C206.81 132.286 206.536 120.581 203.264 114.401C199.993 107.767 192.359 94.499 187.997 94.499Z" fill="white"/>
<path fill-rule="evenodd" clip-rule="evenodd" d="M181.068 103.296C177.943 107.34 174.862 112.227 172.985 115.488C170.742 119.388 170.02 123.456 170.688 126.349C171.014 127.762 171.65 128.826 172.526 129.542C173.394 130.249 174.671 130.759 176.548 130.759C180.747 130.759 183.163 129.77 184.776 128.657C185.609 128.082 186.291 127.43 186.937 126.737C187.142 126.517 187.382 126.247 187.636 125.963C188.061 125.486 188.522 124.969 188.909 124.582C189.402 124.089 190.099 123.862 190.787 123.969C191.475 124.076 192.07 124.504 192.389 125.123C193.326 126.936 194.785 128.431 196.247 129.446C196.975 129.95 197.665 130.309 198.241 130.527C198.855 130.759 199.188 130.773 199.255 130.767C200.447 130.661 201.256 130.146 201.862 129.332C202.517 128.454 202.984 127.146 203.178 125.488C203.57 122.148 202.767 118.121 201.338 115.421C201.328 115.403 201.318 115.384 201.309 115.365C199.703 112.11 197.03 107.233 194.246 103.201C192.849 101.178 191.475 99.4422 190.24 98.2362C189.623 97.6335 189.092 97.2145 188.658 96.9571C188.446 96.8309 188.281 96.7581 188.162 96.7186C188.052 96.6818 188.001 96.68 187.998 96.6799C187.995 96.68 187.935 96.6818 187.804 96.7241C187.669 96.768 187.485 96.8469 187.251 96.9798C186.774 97.2495 186.192 97.6824 185.516 98.2937C184.163 99.5161 182.635 101.267 181.068 103.296ZM185.101 93.1842C185.93 92.7148 186.925 92.3179 187.998 92.3179C189.082 92.3179 190.07 92.7218 190.886 93.2068C191.718 93.701 192.525 94.3704 193.287 95.1151C194.812 96.6042 196.37 98.6001 197.835 100.723C200.769 104.972 203.54 110.031 205.208 113.409C207.04 116.887 208.004 121.787 207.511 125.996C207.262 128.119 206.622 130.246 205.36 131.939C204.049 133.698 202.131 134.891 199.641 135.112C198.654 135.2 197.617 134.954 196.699 134.607C195.743 134.246 194.738 133.707 193.761 133.03C192.518 132.167 191.259 131.037 190.168 129.668C190.155 129.682 190.141 129.697 190.127 129.711C189.368 130.526 188.445 131.425 187.254 132.247C184.817 133.928 181.509 135.121 176.548 135.121C173.844 135.121 171.542 134.369 169.768 132.921C168.004 131.481 166.937 129.495 166.438 127.33C165.453 123.066 166.585 117.865 169.205 113.313L171.055 114.378L169.205 113.313C171.145 109.941 174.334 104.876 177.616 100.629C179.252 98.5111 180.962 96.5303 182.591 95.0576C183.405 94.3214 184.25 93.6659 185.101 93.1842Z" fill="white"/>
<path d="M153.351 42.1558C153.58 32.7489 160.716 19.0286 169.526 16C161.61 29.0779 159.201 38.3701 161.61 42.1558" stroke="white" stroke-width="5" stroke-linecap="round" stroke-linejoin="round"/>
<path d="M193.273 43.1881C190.864 39.4024 193.273 30.1101 201.189 17.0322C194.374 19.3747 188.562 28.1132 186.172 36.305" stroke="white" stroke-width="5" stroke-linecap="round" stroke-linejoin="round"/>
<path d="M215.112 53.8568C214.832 49.099 217.648 41.13 223.902 30.7983C216.51 33.3391 210.704 40.6518 208.759 49.3828" stroke="white" stroke-width="5" stroke-linecap="round" stroke-linejoin="round"/>
</g>
<defs>
<clipPath id="clip0_1345_110">
<rect width="350" height="225" fill="white"/>
</clipPath>
</defs>
</svg>
