<svg width="30" height="31" viewBox="0 0 30 31" fill="none" xmlns="http://www.w3.org/2000/svg">
<path d="M15.0033 8.08328C10.7468 8.08328 7.31344 11.5174 7.31344 15.7749C7.31344 20.0324 10.7468 23.4665 15.0033 23.4665C19.2599 23.4665 22.6933 20.0324 22.6933 15.7749C22.6933 11.5174 19.2599 8.08328 15.0033 8.08328ZM15.0033 20.7755C12.2527 20.7755 10.0039 18.5329 10.0039 15.7749C10.0039 13.0169 12.246 10.7743 15.0033 10.7743C17.7607 10.7743 20.0028 13.0169 20.0028 15.7749C20.0028 18.5329 17.754 20.7755 15.0033 20.7755ZM24.8015 7.76865C24.8015 8.76609 23.9983 9.5627 23.0078 9.5627C22.0106 9.5627 21.2142 8.75939 21.2142 7.76865C21.2142 6.77791 22.0173 5.97461 23.0078 5.97461C23.9983 5.97461 24.8015 6.77791 24.8015 7.76865ZM29.8946 9.58947C29.7808 7.18626 29.232 5.05751 27.4718 3.30363C25.7184 1.54975 23.5901 1.00083 21.1874 0.880336C18.7111 0.739758 11.2889 0.739758 8.8126 0.880336C6.41662 0.994137 4.28834 1.54306 2.52817 3.29694C0.767987 5.05081 0.225878 7.17957 0.10541 9.58278C-0.0351366 12.0596 -0.0351366 19.4835 0.10541 21.9603C0.219186 24.3635 0.767987 26.4923 2.52817 28.2462C4.28834 30 6.40993 30.549 8.8126 30.6695C11.2889 30.81 18.7111 30.81 21.1874 30.6695C23.5901 30.5557 25.7184 30.0067 27.4718 28.2462C29.2253 26.4923 29.7741 24.3635 29.8946 21.9603C30.0351 19.4835 30.0351 12.0663 29.8946 9.58947ZM26.6955 24.6179C26.1735 25.93 25.1629 26.9408 23.8444 27.4696C21.8701 28.2529 17.1852 28.0721 15.0033 28.0721C12.8215 28.0721 8.12995 28.2462 6.1623 27.4696C4.85053 26.9475 3.83993 25.9367 3.31121 24.6179C2.52817 22.6431 2.70887 17.9572 2.70887 15.7749C2.70887 13.5926 2.53486 8.89997 3.31121 6.93188C3.83324 5.61982 4.84384 4.609 6.1623 4.08016C8.13664 3.29694 12.8215 3.47768 15.0033 3.47768C17.1852 3.47768 21.8767 3.30363 23.8444 4.08016C25.1562 4.6023 26.1668 5.61313 26.6955 6.93188C27.4785 8.90667 27.2978 13.5926 27.2978 15.7749C27.2978 17.9572 27.4785 22.6498 26.6955 24.6179Z" fill="white"/>
</svg>
