<svg width="30" height="31" viewBox="0 0 30 31" fill="none" xmlns="http://www.w3.org/2000/svg">
<path d="M26.7857 0.774902H3.21429C2.3618 0.774902 1.54424 1.11355 0.941442 1.71634C0.338647 2.31914 0 3.13671 0 3.98919L0 27.5606C0 28.4131 0.338647 29.2307 0.941442 29.8335C1.54424 30.4363 2.3618 30.7749 3.21429 30.7749H12.4051V20.5756H8.18638V15.7749H12.4051V12.116C12.4051 7.95414 14.8828 5.65526 18.6777 5.65526C20.4951 5.65526 22.3955 5.97937 22.3955 5.97937V10.0642H20.3016C18.2384 10.0642 17.5949 11.3445 17.5949 12.6577V15.7749H22.2007L21.4641 20.5756H17.5949V30.7749H26.7857C27.6382 30.7749 28.4558 30.4363 29.0586 29.8335C29.6614 29.2307 30 28.4131 30 27.5606V3.98919C30 3.13671 29.6614 2.31914 29.0586 1.71634C28.4558 1.11355 27.6382 0.774902 26.7857 0.774902Z" fill="white"/>
</svg>
