<svg width="496" height="154" viewBox="0 0 496 154" fill="none" xmlns="http://www.w3.org/2000/svg">
<path fill-rule="evenodd" clip-rule="evenodd" d="M53.3497 14.2741C45.8928 13.1941 39.6044 14.0007 34.0081 17.2494C28.0051 20.7343 23.3491 26.7258 18.8232 34.6035C10.9205 48.3588 5.80734 70.507 2.93474 92.2747C0.0473156 114.155 -0.658878 136.326 0.593577 150.487C0.780992 152.606 2.65213 154.172 4.77288 153.985C6.89364 153.798 8.46092 151.928 8.2735 149.809C7.0845 136.365 7.74094 114.783 10.5784 93.2818C13.4307 71.6679 18.4047 50.8055 25.5096 38.439C29.8414 30.8992 33.6663 26.3574 37.8811 23.9106C41.9361 21.5567 46.8886 20.8427 54.2164 22.2288C59.4039 23.21 63.9821 26.6602 66.2982 33.8456C66.9509 35.8705 69.1228 36.9833 71.1493 36.3311C73.1758 35.6789 74.2895 33.5087 73.6368 31.4838C71.3267 24.3169 67.0563 19.4078 61.7223 16.7077C63.9165 14.6728 66.6441 12.6041 69.6055 10.9525C74.7171 8.10161 79.6458 6.96869 83.4172 8.20209C89.6527 10.2413 93.0924 13.9068 95.0803 18.1299C95.3238 18.6471 95.5466 19.1754 95.7503 19.7132C95.7689 19.7665 95.7888 19.8196 95.8099 19.8724C97.2836 23.8502 97.7231 28.3315 97.7231 32.6647C97.7231 34.792 99.449 36.5166 101.578 36.5166C103.707 36.5166 105.433 34.792 105.433 32.6647C105.433 28.7889 105.124 24.3648 103.938 20.0082C105.277 19.2055 106.697 18.5746 108.192 18.3334C110.288 17.9952 113 18.3469 116.37 21.3281C119.883 24.436 121.688 28.8473 122.436 33.3016C123.104 37.2868 122.867 40.9872 122.463 43.1093C122.064 45.1991 123.437 47.2158 125.528 47.6139C127.62 48.0119 129.638 46.6405 130.036 44.5508C130.337 42.9715 130.553 40.9265 130.565 38.6168C132.589 39.7539 134.7 41.2827 136.554 43.2368C140.1 46.9739 142.731 52.2691 142.07 59.6655C140.612 75.9805 132.409 89.6004 128.666 94.1578C128.101 94.8466 127.792 95.7101 127.792 96.6011V146.291C127.792 148.418 129.517 150.143 131.646 150.143C133.775 150.143 135.501 148.418 135.501 146.291V97.9313C140.188 91.7267 148.223 77.4303 149.749 60.3506C150.63 50.4904 147.025 43.0761 142.149 37.9367C138.208 33.7824 133.455 31.1186 129.566 29.6876C128.401 24.7988 126.021 19.5769 121.481 15.5601C116.524 11.175 111.524 9.99206 106.963 10.7281C104.718 11.0904 102.709 11.8997 100.996 12.8188C98.0189 7.65409 93.2178 3.30135 85.8154 0.880465C78.985 -1.35337 71.6423 0.993894 65.8478 4.22562C60.8661 7.00404 56.3817 10.7882 53.3497 14.2741Z" fill="white"/>
<path d="M111.046 47.3535C102.691 47.3535 101.424 59.0753 101.762 67.8598C102.074 75.9626 107.333 86.4316 111.046 86.4316C114.76 86.4316 116.978 78.4354 117.622 74.4373C118.912 65.4094 119.402 47.3535 111.046 47.3535Z" fill="white"/>
<path d="M131.162 67.8598C125.591 67.8598 126.494 83.5942 127.783 92.2353C127.783 92.2353 136.294 83.4024 136.294 76.3719C136.294 74.4373 136.732 67.8598 131.162 67.8598Z" fill="white"/>
<path fill-rule="evenodd" clip-rule="evenodd" d="M106.306 55.3962C105.161 58.8674 104.911 63.5143 105.076 67.7574C105.211 71.2502 106.452 75.4267 108.115 78.7224C108.944 80.364 109.807 81.6453 110.568 82.4654C110.895 82.8169 111.134 83.0124 111.284 83.1191C111.338 83.0716 111.404 83.008 111.482 82.9234C111.902 82.4653 112.387 81.6875 112.871 80.5957C113.826 78.4422 114.482 75.7566 114.78 73.9361C115.401 69.6105 115.808 63.2206 115.102 58.0221C114.744 55.3898 114.137 53.3572 113.35 52.0663C112.635 50.8927 111.982 50.6096 111.265 50.6096C109.986 50.6096 109.105 51.0224 108.385 51.7076C107.592 52.4627 106.874 53.6756 106.306 55.3962ZM111.101 83.25C111.101 83.2495 111.107 83.2464 111.118 83.2425C111.107 83.2486 111.101 83.2506 111.101 83.25ZM104.102 47.2774C105.958 45.511 108.368 44.4707 111.265 44.4707C114.724 44.4707 117.142 46.4258 118.644 48.8892C120.074 51.2354 120.83 54.2386 121.233 57.2016C122.046 63.1827 121.567 70.2055 120.901 74.8321C120.899 74.8437 120.898 74.8552 120.896 74.8667C120.895 74.8734 120.894 74.8801 120.893 74.8868C120.544 77.0306 119.772 80.2763 118.534 83.0681C117.919 84.4543 117.113 85.9067 116.054 87.0593C114.997 88.2093 113.396 89.3617 111.265 89.3617C108.974 89.3617 107.167 87.8632 106.017 86.6237C104.739 85.2461 103.572 83.4299 102.584 81.4717C100.613 77.5677 99.0695 72.5358 98.8934 67.9934C98.7202 63.5253 98.9351 58.0045 100.426 53.486C101.177 51.2116 102.32 48.9741 104.102 47.2774ZM127.995 92.0475L130.223 94.1774C129.405 95.0195 128.176 95.3273 127.053 94.9712C125.931 94.6152 125.11 93.6572 124.936 92.5006C124.275 88.1082 123.697 81.83 124.025 76.5589C124.187 73.9616 124.582 71.3317 125.464 69.255C126.334 67.2068 128.127 64.8059 131.373 64.8059C133.423 64.8059 135.187 65.427 136.556 66.6104C137.868 67.7454 138.58 69.1919 138.98 70.4648C139.657 72.6264 139.617 75.0007 139.6 76.0081C139.598 76.1328 139.596 76.2366 139.596 76.3165C139.596 80.8177 136.955 85.4309 134.796 88.5385C133.658 90.1763 132.526 91.5728 131.681 92.559C131.256 93.0538 130.9 93.4496 130.647 93.7257C130.52 93.8638 130.418 93.9722 130.346 94.0483C130.31 94.0863 130.282 94.1163 130.261 94.138L130.236 94.1641L130.228 94.1724L130.224 94.1765C130.223 94.177 130.223 94.1774 127.995 92.0475ZM130.2 76.9373C130.059 79.2019 130.108 81.7332 130.267 84.2161C132.08 81.447 133.409 78.5596 133.409 76.3165C133.409 76.1626 133.41 76.0033 133.411 75.8396C133.42 74.7336 133.43 73.4309 133.072 72.2882C132.885 71.6907 132.662 71.3866 132.491 71.2387C132.385 71.1471 132.148 70.9752 131.539 70.9484C131.458 71.0507 131.329 71.2553 131.165 71.6396C130.691 72.7563 130.348 74.5627 130.2 76.9373ZM131.639 70.8591C131.64 70.8651 131.62 70.8871 131.575 70.9073C131.616 70.8633 131.638 70.8531 131.639 70.8591Z" fill="white"/>
<path d="M51.3254 57.9629C49.0113 61.8309 50.1938 70.4431 47.0824 76.5292C39.3704 91.6147 50.553 99.3532 58.2668 97.806C65.9807 96.2588 68.6805 73.824 63.6665 61.4462C58.6525 49.0683 53.6396 54.0948 51.3254 57.9629Z" fill="white"/>
<path d="M93.7515 66.4722C92.5173 82.8729 83.9806 83.6207 79.8666 81.9445C71.767 77.3037 75.6239 64.5382 79.8666 48.2923C84.1092 32.0464 95.2942 45.9714 93.7515 66.4722Z" fill="white"/>
<path fill-rule="evenodd" clip-rule="evenodd" d="M91.6109 41.5081C95.3916 46.347 97.8362 55.8265 97.032 66.5077C96.3814 75.1472 93.7472 80.5082 89.8969 83.292C86.0332 86.0855 81.6973 85.7422 78.9068 84.606C78.7798 84.5543 78.6565 84.4941 78.5375 84.426C72.8637 81.1769 71.8537 75.1545 72.3642 69.0148C72.8212 63.518 74.5742 56.8577 76.4292 49.8096C76.6464 48.9845 76.865 48.154 77.0831 47.3194C77.6629 45.1002 78.4039 43.222 79.3319 41.7382C80.2538 40.2643 81.4788 38.9963 83.0862 38.3434C86.6927 36.8787 89.7859 39.1722 91.6109 41.5081ZM84.5611 45.0241C84.0712 45.8073 83.5344 47.0463 83.0535 48.8868C82.8392 49.7069 82.6273 50.5135 82.4189 51.3067C80.5244 58.5173 78.9235 64.6106 78.5147 69.5286C78.0723 74.8499 79.1171 77.5277 81.4173 78.9466C82.737 79.4221 84.6244 79.4764 86.2863 78.2749C88.0421 77.0054 90.2938 73.7959 90.8777 66.0422C91.6164 56.2318 89.2393 48.506 86.7518 45.3222C86.1552 44.5587 85.691 44.2369 85.4505 44.1266C85.4162 44.1109 85.3896 44.1009 85.3701 44.0945C85.2724 44.1514 84.9729 44.3656 84.5611 45.0241ZM85.3296 44.0839C85.3296 44.0839 85.3302 44.0839 85.3316 44.0841L85.3296 44.0839ZM55.8344 57.1986C55.2414 57.756 54.6636 58.536 54.1699 59.3608C53.8803 59.8444 53.6002 60.6675 53.3577 62C53.1489 63.1469 53.0059 64.4283 52.8411 65.9061C52.8171 66.1212 52.7926 66.3405 52.7674 66.5641C52.3922 69.8947 51.8765 74.1214 50.0263 77.7386C46.5706 84.4944 47.6409 88.8557 49.5291 91.3038C51.5947 93.9818 55.1306 95.109 57.8608 94.5617C58.3791 94.4578 59.3971 93.8395 60.5122 91.6149C61.5693 89.5057 62.4044 86.5301 62.8828 83.0593C63.8454 76.0758 63.2535 67.9573 61.0073 62.4153C59.8274 59.5041 58.765 57.9284 57.9708 57.1361C57.5905 56.7567 57.3211 56.6067 57.1814 56.5484C57.0576 56.4967 56.9943 56.4982 56.955 56.5017C56.8332 56.5126 56.4526 56.6175 55.8344 57.1986ZM62.3246 52.7515C63.9531 54.3761 65.3979 56.8119 66.7253 60.0869C69.4936 66.9172 70.059 76.1973 68.9965 83.9059C68.4623 87.7812 67.4892 91.4749 66.0271 94.392C64.6228 97.1937 62.4102 99.9584 59.0712 100.628C54.0866 101.627 48.1732 99.66 44.6463 95.0874C40.9421 90.2848 40.277 83.2392 44.5343 74.9163C45.7958 72.45 46.2447 69.3309 46.6346 65.8699C46.6582 65.66 46.6818 65.448 46.7056 65.2344C46.8669 63.7838 47.0358 62.2647 47.2861 60.8895C47.57 59.3304 48.0099 57.6275 48.8776 56.178C49.5411 55.0696 50.4578 53.7717 51.6125 52.6863C52.7421 51.6245 54.3622 50.5217 56.4099 50.3398C58.6047 50.1447 60.6273 51.0583 62.3246 52.7515Z" fill="white"/>
<path d="M94.6713 91C88.4895 91 76.126 109.755 70.717 119.133C63.826 131.08 65.4624 145.339 78.4441 145.339C91.4258 145.339 94.6713 139.173 98.1485 135.704C101.342 141.871 107.91 145.604 110.898 145.339C121.333 144.414 120.944 127.868 116.307 119.133C111.671 109.755 100.853 91 94.6713 91Z" fill="white"/>
<path fill-rule="evenodd" clip-rule="evenodd" d="M84.6478 103.64C80.2196 109.358 75.8538 116.267 73.1947 120.878C70.0159 126.391 68.9928 132.143 69.939 136.233C70.4011 138.231 71.3024 139.736 72.5442 140.747C73.773 141.748 75.583 142.467 78.2422 142.467C84.1926 142.467 87.6168 141.069 89.9017 139.496C91.0821 138.683 92.0483 137.761 92.9641 136.781C93.2544 136.471 93.5955 136.089 93.9546 135.687C94.5568 135.013 95.2098 134.283 95.7593 133.734C96.4567 133.039 97.4451 132.717 98.4196 132.868C99.3942 133.019 100.238 133.625 100.691 134.499C102.018 137.064 104.085 139.177 106.158 140.611C107.188 141.324 108.166 141.832 108.982 142.14C109.852 142.468 110.324 142.488 110.42 142.479C112.108 142.33 113.255 141.601 114.114 140.451C115.042 139.209 115.704 137.36 115.979 135.017C116.533 130.294 115.396 124.6 113.37 120.783C113.356 120.757 113.343 120.731 113.33 120.704C111.055 116.101 107.266 109.207 103.321 103.506C101.341 100.646 99.3951 98.1917 97.6448 96.4867C96.7699 95.6344 96.0174 95.042 95.4035 94.6782C95.1023 94.4997 94.8687 94.3968 94.7009 94.341C94.5445 94.289 94.4716 94.2864 94.4677 94.2863C94.4636 94.2864 94.3779 94.289 94.1936 94.3487C94.0019 94.4108 93.7412 94.5224 93.4088 94.7102C92.7338 95.0917 91.909 95.7036 90.9505 96.568C89.034 98.2962 86.8688 100.771 84.6478 103.64ZM90.3627 89.3439C91.5371 88.6803 92.9477 88.1191 94.4678 88.1191C96.0033 88.1191 97.4033 88.6902 98.5602 89.3759C99.7391 90.0746 100.882 91.021 101.963 92.0739C104.124 94.1792 106.331 97.001 108.408 100.002C112.564 106.01 116.492 113.162 118.855 117.938C121.451 122.856 122.816 129.783 122.118 135.734C121.766 138.736 120.858 141.743 119.07 144.137C117.212 146.623 114.495 148.31 110.967 148.622C109.568 148.746 108.099 148.399 106.798 147.909C105.442 147.398 104.018 146.637 102.634 145.678C100.873 144.459 99.0882 142.861 97.5426 140.925C97.5237 140.946 97.5046 140.966 97.4854 140.987C96.4092 142.138 95.1009 143.409 93.4129 144.572C89.9608 146.949 85.2723 148.635 78.2422 148.635C74.4113 148.635 71.1491 147.572 68.6358 145.525C66.1353 143.489 64.6244 140.681 63.9162 137.62C62.5217 131.592 64.1257 124.239 67.8371 117.803L70.4586 119.308L67.8371 117.803C70.5865 113.035 75.106 105.875 79.7564 99.8691C82.0747 96.8753 84.497 94.0747 86.8059 91.9926C87.9601 90.9518 89.1574 90.025 90.3627 89.3439Z" fill="white"/>
<path fill-rule="evenodd" clip-rule="evenodd" d="M259.398 22.5107C261.74 21.1615 264.737 21.9562 266.093 24.2857L286.069 58.6047L288.317 26.3909C288.46 24.3402 289.881 22.5993 291.869 22.0389C293.857 21.4786 295.984 22.2192 297.187 23.8904L322.923 59.6449V26.7286C322.923 24.0366 325.116 21.8543 327.821 21.8543C330.527 21.8543 332.72 24.0366 332.72 26.7286V74.8217C332.72 76.9394 331.346 78.8149 329.319 79.4625C327.293 80.1101 325.078 79.3816 323.839 77.6598L297.148 40.5787L294.734 75.1594C294.585 77.2965 293.051 79.0862 290.954 79.57C288.857 80.0538 286.688 79.1184 285.608 77.2646L257.615 29.1716C256.259 26.8421 257.057 23.8599 259.398 22.5107Z" fill="white"/>
<path fill-rule="evenodd" clip-rule="evenodd" d="M237.814 22.0052C239.971 21.4539 242.226 22.4403 243.291 24.401L269.4 72.4745C270.687 74.843 269.816 77.8093 267.455 79.1C265.095 80.3906 262.138 79.5169 260.852 77.1484L243.884 45.9074V74.8114C243.884 77.5088 241.705 79.6954 239.016 79.6954C236.328 79.6954 234.148 77.5088 234.148 74.8114V26.7379C234.148 24.505 235.658 22.5564 237.814 22.0052Z" fill="white"/>
<path fill-rule="evenodd" clip-rule="evenodd" d="M208.781 31.6513V46.2521C210.655 46.2137 212.086 45.9317 213.1 45.4084C213.793 45.0506 214.306 44.571 214.7 43.8094C215.128 42.9816 215.539 41.5716 215.539 39.2127C215.539 34.6931 214.101 33.3272 212.947 32.6777C211.945 32.1137 210.56 31.77 208.781 31.6513ZM208.781 56.0045C211.727 55.9595 214.788 55.4863 217.496 54.0881C219.86 52.8675 221.882 50.9828 223.258 48.323C224.6 45.7294 225.195 42.6609 225.195 39.2127C225.195 32.1182 222.61 26.9557 217.649 24.163C213.251 21.6872 207.886 21.6506 203.537 22.0302C201.041 22.2481 199.125 24.3571 199.125 26.8864V74.822C199.125 77.514 201.286 79.6963 203.953 79.6963C206.619 79.6963 208.781 77.514 208.781 74.822V56.0045Z" fill="white"/>
<path fill-rule="evenodd" clip-rule="evenodd" d="M422.361 22.5107C424.702 21.1615 427.699 21.9562 429.055 24.2857L449.032 58.6047L451.28 26.3909C451.423 24.3402 452.844 22.5993 454.832 22.0389C456.819 21.4786 458.947 22.2192 460.15 23.8904L485.886 59.6449V26.7286C485.886 24.0366 488.079 21.8543 490.784 21.8543C493.49 21.8543 495.683 24.0366 495.683 26.7286V74.8217C495.683 76.9394 494.309 78.8149 492.282 79.4625C490.256 80.1101 488.041 79.3816 486.802 77.6598L460.111 40.5787L457.697 75.1594C457.548 77.2965 456.014 79.0862 453.917 79.57C451.819 80.0538 449.65 79.1184 448.571 77.2646L420.577 29.1716C419.222 26.8421 420.02 23.8599 422.361 22.5107Z" fill="white"/>
<path fill-rule="evenodd" clip-rule="evenodd" d="M400.777 22.0052C402.934 21.4539 405.189 22.4403 406.253 24.401L432.363 72.4745C433.65 74.843 432.779 77.8093 430.418 79.1C428.057 80.3906 425.101 79.5169 423.815 77.1484L406.847 45.9074V74.8114C406.847 77.5088 404.668 79.6954 401.979 79.6954C399.291 79.6954 397.111 77.5088 397.111 74.8114V26.7379C397.111 24.505 398.621 22.5564 400.777 22.0052Z" fill="white"/>
<path fill-rule="evenodd" clip-rule="evenodd" d="M371.731 31.6513V46.2521C373.606 46.2137 375.037 45.9317 376.05 45.4084C376.743 45.0506 377.256 44.571 377.65 43.8094C378.079 42.9816 378.49 41.5716 378.49 39.2127C378.49 34.6931 377.051 33.3272 375.897 32.6777C374.895 32.1137 373.51 31.77 371.731 31.6513ZM371.731 56.0045C374.677 55.9595 377.738 55.4863 380.446 54.0881C382.811 52.8675 384.832 50.9828 386.209 48.323C387.55 45.7294 388.145 42.6609 388.145 39.2127C388.145 32.1182 385.56 26.9557 380.599 24.163C376.201 21.6872 370.837 21.6506 366.487 22.0302C363.991 22.2481 362.075 24.3571 362.075 26.8864V74.822C362.075 77.514 364.237 79.6963 366.903 79.6963C369.569 79.6963 371.731 77.514 371.731 74.822V56.0045Z" fill="white"/>
<path d="M216.785 111.127V116.278H237.933V111.127H216.785ZM216.877 122.73V127.696H236.044V122.73H216.877ZM224.526 105V125.515H229.916V105H224.526ZM213.882 111.127V123.008C213.882 129.785 213.468 139.253 208.814 145.751C210.15 146.262 212.5 147.654 213.468 148.536C218.398 141.527 219.181 130.574 219.181 123.055V111.127H213.882ZM236.643 111.127V111.916C235.998 114.793 234.892 118.367 233.879 120.549L238.671 121.941C239.961 119.388 241.389 115.489 242.449 111.916L238.394 110.941L237.519 111.127H236.643ZM223.189 125.932L218.444 127.278C222.268 137.629 228.765 145.055 238.993 148.582C239.776 147.143 241.343 144.962 242.587 143.848C232.911 141.11 226.323 134.473 223.189 125.932ZM201.718 109.363C204.299 110.802 208.031 113.03 209.828 114.422L213.053 109.92C211.164 108.62 207.34 106.578 204.805 105.325L201.718 109.363ZM199 121.987C201.672 123.38 205.497 125.515 207.294 126.907L210.473 122.266C208.538 120.966 204.667 119.017 202.087 117.857L199 121.987ZM199.922 144.776L204.852 148.118C207.247 143.57 209.735 138.186 211.809 133.219L207.478 129.878C205.128 135.354 202.087 141.203 199.922 144.776ZM234.063 122.73V123.751C231.713 134.426 224.894 140.97 215.725 144.08C216.831 145.055 218.536 147.376 219.227 148.675C228.857 144.962 236.459 137.072 239.592 124.076L236.137 122.591L235.169 122.73H234.063Z" fill="white"/>
<path d="M267.468 111.127V116.278H288.616V111.127H267.468ZM267.56 122.73V127.696H286.727V122.73H267.56ZM275.208 105V125.515H280.599V105H275.208ZM264.565 111.127V123.008C264.565 129.785 264.15 139.253 259.497 145.751C260.833 146.262 263.183 147.654 264.15 148.536C269.08 141.527 269.863 130.574 269.863 123.055V111.127H264.565ZM287.326 111.127V111.916C286.681 114.793 285.575 118.367 284.561 120.549L289.353 121.941C290.643 119.388 292.072 115.489 293.131 111.916L289.077 110.941L288.201 111.127H287.326ZM273.872 125.932L269.126 127.278C272.951 137.629 279.447 145.055 289.676 148.582C290.459 147.143 292.026 144.962 293.27 143.848C283.594 141.11 277.005 134.473 273.872 125.932ZM252.401 109.363C254.981 110.802 258.713 113.03 260.51 114.422L263.736 109.92C261.846 108.62 258.022 106.578 255.488 105.325L252.401 109.363ZM249.683 121.987C252.355 123.38 256.179 125.515 257.976 126.907L261.155 122.266C259.22 120.966 255.35 119.017 252.77 117.857L249.683 121.987ZM250.604 144.776L255.534 148.118C257.93 143.57 260.418 138.186 262.491 133.219L258.16 129.878C255.811 135.354 252.77 141.203 250.604 144.776ZM284.746 122.73V123.751C282.396 134.426 275.577 140.97 266.408 144.08C267.514 145.055 269.218 147.376 269.91 148.675C279.539 144.962 287.142 137.072 290.275 124.076L286.819 122.591L285.852 122.73H284.746Z" fill="white"/>
<path d="M301.794 135.076V139.021H323.311V135.076H301.794ZM300.734 112.983V117.021H323.771V112.983H300.734ZM309.903 109.688V142.966H314.879V109.688H309.903ZM300.503 142.456L301.148 147.097C307.138 146.54 315.524 145.705 323.357 144.869L323.311 140.646C315.017 141.388 306.217 142.038 300.503 142.456ZM306.355 127.65H318.519V129.785H306.355V127.65ZM306.355 122.312H318.519V124.401H306.355V122.312ZM301.932 118.831V133.266H323.08V118.831H301.932ZM320.823 105.278C315.754 106.392 307.737 107.228 300.872 107.553C301.379 108.62 301.886 110.384 302.07 111.498C308.981 111.359 317.367 110.662 323.265 109.456L320.823 105.278ZM323.771 115.536V120.641H339.713V115.536H323.771ZM337.502 115.536V116.743C337.133 134.705 336.765 141.249 335.705 142.641C335.29 143.291 334.829 143.43 334.138 143.43C333.217 143.43 331.466 143.43 329.485 143.245C330.36 144.73 330.959 147.004 331.097 148.536C333.263 148.629 335.428 148.629 336.857 148.35C338.377 148.072 339.437 147.561 340.451 145.983C341.971 143.895 342.34 137.118 342.754 117.996C342.754 117.346 342.8 115.536 342.8 115.536H337.502ZM328.195 105.835C328.148 124.354 328.655 137.35 318.933 144.823C320.177 145.751 321.974 147.654 322.758 149C333.401 140.553 333.447 125.654 333.493 105.835H328.195Z" fill="white"/>
<path d="M373.579 105.046C372.196 111.916 369.616 118.553 365.93 122.637C367.082 123.333 369.247 124.911 370.123 125.747C373.855 121.105 376.896 113.726 378.555 106.021L373.579 105.046ZM389.06 112.287V113.494C388.323 133.219 387.447 140.414 386.157 142.038C385.604 142.688 385.189 142.92 384.498 142.92C383.623 142.92 382.056 142.873 380.352 142.688C381.181 144.219 381.734 146.587 381.872 148.165C383.899 148.257 385.835 148.257 387.125 147.979C388.645 147.7 389.659 147.143 390.718 145.565C392.469 143.245 393.299 135.633 394.174 114.793C394.22 114.097 394.266 112.287 394.266 112.287H389.06ZM374.961 112.287L372.427 117.439H391.41V112.287H374.961ZM378.186 113.958C376.435 121.755 372.381 130.481 367.036 134.705C368.464 135.494 370.215 136.793 371.275 137.861C376.297 133.127 380.352 123.937 382.195 115.954L378.186 113.958ZM384.59 114.468C382.471 126.397 377.725 138.511 369.662 144.312C371.183 145.055 373.118 146.447 374.178 147.561C381.78 141.156 386.664 128.532 388.875 116.464L384.59 114.468ZM351.002 130.342L352.338 135.679C357.222 134.241 363.534 132.338 369.34 130.527L368.602 125.608C362.244 127.418 355.517 129.321 351.002 130.342ZM359.295 105.046V148.629H364.364V105.046H359.295ZM353.213 107.692C352.799 113.215 352.015 119.017 350.541 122.73C351.647 123.287 353.628 124.586 354.457 125.236C356.116 121.105 357.222 114.608 357.821 108.481L353.213 107.692ZM354.457 114.004L353.444 119.342H368.188V114.004H354.457Z" fill="white"/>
<path d="M410.07 144.823V147.747H437.116V144.823H410.07ZM410.07 140.831V143.57H437.116V140.831H410.07ZM403.481 127.418V130.945H443.935V127.418H403.481ZM405.739 132.43V148.629H410.715V135.308H436.425V148.629H441.631V132.43H405.739ZM411.913 109.27C411.314 110.848 410.346 112.426 409.01 113.633C409.794 114.004 411.13 114.84 411.729 115.304C413.065 113.958 414.355 111.962 415.046 110.013L411.913 109.27ZM425.275 114.932V118.089H438.544V114.932H425.275ZM412.051 111.312V113.819H422.28V111.312H412.051ZM409.379 115.211V117.857H423.063V115.211H409.379ZM428.546 106.16V109.873H436.747V106.16H428.546ZM437.577 114.932V115.443C435.688 120.131 430.343 122.73 424.031 123.705C424.768 124.54 425.689 126.072 426.104 127.046C433.43 125.515 439.328 122.405 441.816 115.722L439.189 114.84L438.406 114.932H437.577ZM430.343 117.764L426.242 118.785C429.191 123.705 434.444 126.536 441.954 127.603C442.507 126.397 443.705 124.586 444.672 123.705C437.899 123.101 432.693 121.198 430.343 117.764ZM426.565 106.16V108.527C426.565 110.152 426.058 111.591 422.556 112.844C423.34 113.447 424.952 115.211 425.459 116.139C429.744 114.236 430.758 111.451 430.758 108.713V106.16H426.565ZM434.766 106.16V109.688C434.766 112.008 435.043 112.844 435.688 113.494C436.287 114.19 437.485 114.468 438.452 114.468C439.005 114.468 439.881 114.468 440.433 114.468C441.079 114.468 441.908 114.422 442.415 114.19C443.06 113.911 443.567 113.54 443.843 113.03C444.166 112.565 444.35 111.451 444.488 110.338C443.428 110.013 442.046 109.316 441.309 108.667C441.263 109.456 441.217 110.105 441.125 110.384C441.032 110.709 440.894 110.802 440.756 110.848C440.664 110.941 440.433 110.941 440.249 110.941C440.019 110.941 439.696 110.941 439.512 110.941C439.328 110.941 439.189 110.895 439.097 110.755C438.959 110.616 439.005 110.291 439.005 109.688V106.16H434.766ZM414.724 112.519V115.582C414.724 117.207 414.079 119.435 409.287 120.595C410.07 121.245 411.038 122.312 411.498 123.101C417.073 121.152 418.133 118.089 418.133 115.675V112.519H414.724ZM417.166 129.46V133.637C417.166 135.401 416.244 137.397 410.761 138.325C411.683 139.068 412.788 140.414 413.341 141.342C419.746 139.624 421.358 136.747 421.358 133.684V129.46H417.166ZM425.137 129.414V135.819C425.137 138.835 426.15 139.578 430.251 139.578C431.126 139.578 434.904 139.578 435.78 139.578C438.314 139.578 439.42 139.068 439.696 137.582C438.683 137.443 437.208 137.118 436.379 136.7C436.287 136.979 436.01 137.025 435.227 137.025C434.444 137.025 431.449 137.025 430.85 137.025C429.606 137.025 429.375 136.886 429.375 135.865V129.414H425.137ZM414.954 118.831C416.981 119.992 419.515 121.755 420.805 122.916L422.925 120.688C421.589 119.481 419.009 117.857 416.981 116.789L414.954 118.831ZM423.754 106.578H404.633V126.025H424.123V122.869H408.734V109.734H423.754V106.578Z" fill="white"/>
<path d="M478.86 105.278V112.565H484.251V105.278H478.86ZM468.631 110.152V119.342H473.515V114.886H490.195V119.295H495.309V110.152H468.631ZM472.041 118.646V123.426H491.761V118.646H472.041ZM469.276 126.768V131.734H495.125V126.768H469.276ZM474.483 129.181C474.207 137.257 473.469 141.713 465.13 144.219C466.189 145.241 467.572 147.283 468.032 148.629C477.939 145.287 479.321 139.16 479.736 129.181H474.483ZM482.961 128.624V141.852C482.961 146.633 483.882 148.211 487.937 148.211C488.674 148.211 490.195 148.211 491.024 148.211C494.249 148.211 495.539 146.447 496 139.903C494.618 139.578 492.406 138.696 491.393 137.861C491.3 142.595 491.162 143.338 490.425 143.338C490.102 143.338 489.135 143.338 488.858 143.338C488.259 143.338 488.167 143.152 488.167 141.806V128.624H482.961ZM454.44 107.042V148.675H459.278V112.008H465.314V107.042H454.44ZM463.609 107.042V108.62C462.964 111.591 461.49 117.996 460.2 122.173C462.826 125.283 463.425 128.16 463.425 130.342C463.425 131.641 463.195 132.57 462.642 132.987C462.319 133.266 461.858 133.359 461.352 133.359C460.799 133.405 460.2 133.359 459.37 133.312C460.108 134.658 460.522 136.747 460.568 138.093C461.628 138.093 462.734 138.046 463.563 137.954C464.577 137.814 465.452 137.489 466.189 136.979C467.664 135.958 468.263 134.008 468.263 130.992C468.263 128.3 467.71 125.19 464.853 121.57C466.189 117.949 467.71 112.89 468.908 108.899L465.314 106.857L464.531 107.042H463.609Z" fill="white"/>
</svg>
