<svg width="496" height="154" viewBox="0 0 496 154" fill="none" xmlns="http://www.w3.org/2000/svg">
<path fill-rule="evenodd" clip-rule="evenodd" d="M53.3497 14.2741C45.8928 13.1941 39.6044 14.0007 34.0081 17.2494C28.0051 20.7343 23.3491 26.7258 18.8232 34.6035C10.9205 48.3588 5.80734 70.507 2.93474 92.2747C0.0473156 114.155 -0.658878 136.326 0.593577 150.487C0.780992 152.606 2.65213 154.172 4.77288 153.985C6.89364 153.798 8.46092 151.928 8.2735 149.809C7.0845 136.365 7.74094 114.783 10.5784 93.2818C13.4307 71.6679 18.4047 50.8055 25.5096 38.439C29.8414 30.8992 33.6663 26.3574 37.8811 23.9106C41.9361 21.5567 46.8886 20.8427 54.2164 22.2288C59.4039 23.21 63.9821 26.6602 66.2982 33.8456C66.9509 35.8705 69.1228 36.9833 71.1493 36.3311C73.1758 35.6789 74.2895 33.5087 73.6368 31.4838C71.3267 24.3169 67.0563 19.4078 61.7223 16.7077C63.9165 14.6728 66.6441 12.6041 69.6055 10.9525C74.7171 8.10161 79.6458 6.96869 83.4172 8.20209C89.6527 10.2413 93.0924 13.9068 95.0803 18.1299C95.3238 18.6471 95.5466 19.1754 95.7503 19.7132C95.7689 19.7665 95.7888 19.8196 95.8099 19.8724C97.2836 23.8502 97.7231 28.3315 97.7231 32.6647C97.7231 34.792 99.449 36.5166 101.578 36.5166C103.707 36.5166 105.433 34.792 105.433 32.6647C105.433 28.7889 105.124 24.3648 103.938 20.0082C105.277 19.2055 106.697 18.5746 108.192 18.3334C110.288 17.9952 113 18.3469 116.37 21.3281C119.883 24.436 121.688 28.8473 122.436 33.3016C123.104 37.2868 122.867 40.9872 122.463 43.1093C122.064 45.1991 123.437 47.2158 125.528 47.6139C127.62 48.0119 129.638 46.6405 130.036 44.5508C130.337 42.9715 130.553 40.9265 130.565 38.6168C132.589 39.7539 134.7 41.2827 136.554 43.2368C140.1 46.9739 142.731 52.2691 142.07 59.6655C140.612 75.9805 132.409 89.6004 128.666 94.1578C128.101 94.8466 127.792 95.7101 127.792 96.6011V146.291C127.792 148.418 129.517 150.143 131.646 150.143C133.775 150.143 135.501 148.418 135.501 146.291V97.9313C140.188 91.7267 148.223 77.4303 149.749 60.3506C150.63 50.4904 147.025 43.0761 142.149 37.9367C138.208 33.7824 133.455 31.1186 129.566 29.6876C128.401 24.7988 126.021 19.5769 121.481 15.5601C116.524 11.175 111.524 9.99206 106.963 10.7281C104.718 11.0904 102.709 11.8997 100.996 12.8188C98.0189 7.65409 93.2178 3.30135 85.8154 0.880465C78.985 -1.35337 71.6423 0.993894 65.8478 4.22562C60.8661 7.00404 56.3817 10.7882 53.3497 14.2741Z" fill="white"/>
<path d="M111.046 47.3531C102.691 47.3531 101.424 59.0749 101.762 67.8594C102.074 75.9622 107.333 86.4312 111.046 86.4312C114.76 86.4312 116.978 78.435 117.622 74.4369C118.912 65.409 119.402 47.3531 111.046 47.3531Z" fill="white"/>
<path d="M131.162 67.8594C125.591 67.8594 126.494 83.5938 127.783 92.2348C127.783 92.2348 136.294 83.402 136.294 76.3715C136.294 74.4369 136.732 67.8594 131.162 67.8594Z" fill="white"/>
<path fill-rule="evenodd" clip-rule="evenodd" d="M106.306 55.3961C105.161 58.8673 104.911 63.5141 105.076 67.7573C105.211 71.25 106.452 75.4266 108.115 78.7222C108.944 80.3638 109.807 81.6452 110.568 82.4652C110.895 82.8167 111.134 83.0122 111.284 83.1189C111.338 83.0714 111.404 83.0078 111.482 82.9232C111.902 82.4651 112.387 81.6873 112.871 80.5956C113.826 78.4421 114.482 75.7565 114.78 73.9359C115.401 69.6104 115.808 63.2205 115.102 58.0219C114.744 55.3896 114.137 53.357 113.35 52.0662C112.635 50.8926 111.982 50.6095 111.265 50.6095C109.986 50.6095 109.105 51.0222 108.385 51.7075C107.592 52.4626 106.874 53.6755 106.306 55.3961ZM111.101 83.2499C111.101 83.2493 111.107 83.2463 111.118 83.2424C111.107 83.2485 111.101 83.2504 111.101 83.2499ZM104.102 47.2773C105.958 45.5108 108.368 44.4706 111.265 44.4706C114.724 44.4706 117.142 46.4256 118.644 48.889C120.074 51.2352 120.83 54.2384 121.233 57.2015C122.046 63.1825 121.567 70.2053 120.901 74.832C120.899 74.8435 120.898 74.8551 120.896 74.8666C120.895 74.8733 120.894 74.88 120.893 74.8867C120.544 77.0305 119.772 80.2761 118.534 83.068C117.919 84.4542 117.113 85.9065 116.054 87.0591C114.997 88.2091 113.396 89.3616 111.265 89.3616C108.974 89.3616 107.167 87.8631 106.017 86.6236C104.739 85.246 103.572 83.4298 102.584 81.4715C100.613 77.5676 99.0695 72.5357 98.8934 67.9932C98.7202 63.5252 98.9351 58.0044 100.426 53.4858C101.177 51.2115 102.32 48.9739 104.102 47.2773ZM127.995 92.0473L130.223 94.1773C129.405 95.0193 128.176 95.3271 127.053 94.9711C125.931 94.6151 125.11 93.657 124.936 92.5005C124.275 88.1081 123.697 81.8298 124.025 76.5588C124.187 73.9615 124.582 71.3315 125.464 69.2548C126.334 67.2067 128.127 64.8058 131.373 64.8058C133.423 64.8058 135.187 65.4268 136.556 66.6102C137.868 67.7452 138.58 69.1917 138.98 70.4647C139.657 72.6262 139.617 75.0005 139.6 76.008C139.598 76.1327 139.596 76.2365 139.596 76.3163C139.596 80.8176 136.955 85.4308 134.796 88.5384C133.658 90.1761 132.526 91.5726 131.681 92.5588C131.256 93.0537 130.9 93.4495 130.647 93.7255C130.52 93.8636 130.418 93.972 130.346 94.0481C130.31 94.0862 130.282 94.1162 130.261 94.1378L130.236 94.1639L130.228 94.1722L130.224 94.1763C130.223 94.1768 130.223 94.1773 127.995 92.0473ZM130.2 76.9372C130.059 79.2018 130.108 81.733 130.267 84.216C132.08 81.4468 133.409 78.5594 133.409 76.3163C133.409 76.1624 133.41 76.0031 133.411 75.8395C133.42 74.7335 133.43 73.4307 133.072 72.2881C132.885 71.6906 132.662 71.3865 132.491 71.2386C132.385 71.147 132.148 70.9751 131.539 70.9483C131.458 71.0505 131.329 71.2551 131.165 71.6395C130.691 72.7561 130.348 74.5626 130.2 76.9372ZM131.639 70.8589C131.64 70.8649 131.62 70.8869 131.575 70.9072C131.616 70.8631 131.638 70.853 131.639 70.8589Z" fill="white"/>
<path d="M51.3254 57.9617C49.0113 61.8298 50.1938 70.4419 47.0824 76.528C39.3704 91.6135 50.553 99.352 58.2668 97.8048C65.9807 96.2576 68.6805 73.8228 63.6665 61.445C58.6525 49.0671 53.6396 54.0936 51.3254 57.9617Z" fill="white"/>
<path d="M93.7515 66.471C92.5173 82.8717 83.9806 83.6195 79.8666 81.9433C71.767 77.3026 75.6239 64.537 79.8666 48.2911C84.1092 32.0452 95.2942 45.9702 93.7515 66.471Z" fill="white"/>
<path fill-rule="evenodd" clip-rule="evenodd" d="M91.6109 41.5078C95.3916 46.3467 97.8362 55.8262 97.032 66.5075C96.3814 75.147 93.7472 80.5079 89.8969 83.2917C86.0332 86.0852 81.6973 85.742 78.9068 84.6057C78.7798 84.554 78.6565 84.4939 78.5375 84.4258C72.8637 81.1767 71.8537 75.1543 72.3642 69.0146C72.8212 63.5178 74.5742 56.8575 76.4292 49.8094C76.6464 48.9842 76.865 48.1537 77.0831 47.3192C77.6629 45.1 78.4039 43.2217 79.3319 41.738C80.2538 40.2641 81.4788 38.996 83.0862 38.3432C86.6927 36.8784 89.7859 39.172 91.6109 41.5078ZM84.5611 45.0239C84.0712 45.8071 83.5344 47.0461 83.0535 48.8865C82.8392 49.7066 82.6273 50.5133 82.4189 51.3064C80.5244 58.517 78.9235 64.6104 78.5147 69.5283C78.0723 74.8497 79.1171 77.5274 81.4173 78.9463C82.737 79.4218 84.6244 79.4762 86.2863 78.2746C88.0421 77.0052 90.2938 73.7957 90.8777 66.0419C91.6164 56.2315 89.2393 48.5057 86.7518 45.322C86.1552 44.5584 85.691 44.2366 85.4505 44.1264C85.4162 44.1107 85.3896 44.1006 85.3701 44.0942C85.2724 44.1512 84.9729 44.3654 84.5611 45.0239ZM85.3296 44.0836C85.3296 44.0836 85.3302 44.0837 85.3316 44.0839L85.3296 44.0836ZM55.8344 57.1983C55.2414 57.7558 54.6636 58.5357 54.1699 59.3605C53.8803 59.8442 53.6002 60.6673 53.3577 61.9997C53.1489 63.1467 53.0059 64.428 52.8411 65.9058C52.8171 66.1209 52.7926 66.3402 52.7674 66.5639C52.3922 69.8945 51.8765 74.1212 50.0263 77.7384C46.5706 84.4942 47.6409 88.8555 49.5291 91.3035C51.5947 93.9815 55.1306 95.1088 57.8608 94.5615C58.3791 94.4576 59.3971 93.8393 60.5122 91.6146C61.5693 89.5055 62.4044 86.5298 62.8828 83.059C63.8454 76.0756 63.2535 67.957 61.0073 62.415C59.8274 59.5039 58.765 57.9281 57.9708 57.1359C57.5905 56.7564 57.3211 56.6064 57.1814 56.5482C57.0576 56.4965 56.9943 56.498 56.955 56.5015C56.8332 56.5123 56.4526 56.6173 55.8344 57.1983ZM62.3246 52.7512C63.9531 54.3758 65.3979 56.8117 66.7253 60.0867C69.4936 66.917 70.059 76.197 68.9965 83.9057C68.4623 87.7809 67.4892 91.4747 66.0271 94.3918C64.6228 97.1934 62.4102 99.9581 59.0712 100.628C54.0866 101.627 48.1732 99.6597 44.6463 95.0871C40.9421 90.2846 40.277 83.239 44.5343 74.916C45.7958 72.4498 46.2447 69.3306 46.6346 65.8697C46.6582 65.6598 46.6818 65.4477 46.7056 65.2342C46.8669 63.7835 47.0358 62.2644 47.2861 60.8892C47.57 59.3301 48.0099 57.6273 48.8776 56.1778C49.5411 55.0694 50.4578 53.7714 51.6125 52.686C52.7421 51.6242 54.3622 50.5215 56.4099 50.3395C58.6047 50.1444 60.6273 51.058 62.3246 52.7512Z" fill="white"/>
<path d="M94.6713 90.9999C88.4895 90.9999 76.126 109.755 70.717 119.133C63.826 131.08 65.4624 145.339 78.4441 145.339C91.4258 145.339 94.6713 139.173 98.1485 135.704C101.342 141.87 107.91 145.604 110.898 145.339C121.333 144.414 120.944 127.868 116.307 119.133C111.671 109.755 100.853 90.9999 94.6713 90.9999Z" fill="white"/>
<path fill-rule="evenodd" clip-rule="evenodd" d="M84.6478 103.639C80.2196 109.357 75.8538 116.266 73.1947 120.877C70.0159 126.39 68.9928 132.142 69.939 136.232C70.4011 138.23 71.3024 139.735 72.5442 140.746C73.773 141.747 75.583 142.466 78.2422 142.466C84.1926 142.466 87.6168 141.069 89.9017 139.495C91.0821 138.682 92.0483 137.761 92.9641 136.78C93.2544 136.47 93.5955 136.088 93.9546 135.686C94.5568 135.012 95.2098 134.282 95.7593 133.733C96.4567 133.038 97.4451 132.716 98.4196 132.867C99.3942 133.018 100.238 133.624 100.691 134.499C102.018 137.063 104.085 139.176 106.158 140.61C107.188 141.323 108.166 141.831 108.982 142.139C109.852 142.467 110.324 142.487 110.42 142.479C112.108 142.329 113.255 141.6 114.114 140.45C115.042 139.209 115.704 137.359 115.979 135.016C116.533 130.293 115.396 124.599 113.37 120.782C113.356 120.756 113.343 120.73 113.33 120.703C111.055 116.1 107.266 109.206 103.321 103.505C101.341 100.645 99.3951 98.1907 97.6448 96.4857C96.7699 95.6335 96.0174 95.0411 95.4035 94.6773C95.1023 94.4988 94.8687 94.3958 94.7009 94.34C94.5445 94.288 94.4716 94.2855 94.4677 94.2854C94.4636 94.2855 94.3779 94.2881 94.1936 94.3478C94.0019 94.4098 93.7412 94.5215 93.4088 94.7093C92.7338 95.0907 91.909 95.7027 90.9505 96.567C89.034 98.2953 86.8688 100.77 84.6478 103.639ZM90.3627 89.343C91.5371 88.6793 92.9477 88.1182 94.4678 88.1182C96.0033 88.1182 97.4033 88.6893 98.5602 89.375C99.7391 90.0737 100.882 91.0201 101.963 92.073C104.124 94.1783 106.331 97.0001 108.408 100.001C112.564 106.009 116.492 113.161 118.855 117.937C121.451 122.855 122.816 129.783 122.118 135.733C121.766 138.735 120.858 141.742 119.07 144.136C117.212 146.622 114.495 148.309 110.967 148.622C109.568 148.745 108.099 148.398 106.798 147.908C105.442 147.397 104.018 146.636 102.634 145.678C100.873 144.458 99.0882 142.86 97.5426 140.924C97.5237 140.945 97.5046 140.965 97.4854 140.986C96.4092 142.137 95.1009 143.408 93.4129 144.571C89.9608 146.948 85.2723 148.634 78.2422 148.634C74.4113 148.634 71.1491 147.571 68.6358 145.524C66.1353 143.488 64.6244 140.68 63.9162 137.619C62.5217 131.591 64.1257 124.238 67.8371 117.802L70.4586 119.307L67.8371 117.802C70.5865 113.034 75.106 105.874 79.7564 99.8682C82.0747 96.8744 84.497 94.0738 86.8059 91.9917C87.9601 90.9509 89.1574 90.024 90.3627 89.343Z" fill="white"/>
<path fill-rule="evenodd" clip-rule="evenodd" d="M259.398 22.5112C261.74 21.162 264.737 21.9566 266.093 24.2861L286.069 58.6052L288.317 26.3914C288.46 24.3407 289.881 22.5997 291.869 22.0394C293.857 21.479 295.984 22.2197 297.187 23.8909L322.923 59.6454V26.7291C322.923 24.0371 325.116 21.8548 327.821 21.8548C330.527 21.8548 332.72 24.0371 332.72 26.7291V74.8221C332.72 76.9399 331.346 78.8153 329.319 79.4629C327.293 80.1105 325.078 79.382 323.839 77.6603L297.148 40.5792L294.734 75.1598C294.585 77.2969 293.051 79.0866 290.954 79.5705C288.857 80.0543 286.688 79.1188 285.608 77.2651L257.615 29.172C256.259 26.8425 257.057 23.8604 259.398 22.5112Z" fill="white"/>
<path fill-rule="evenodd" clip-rule="evenodd" d="M237.814 22.0056C239.971 21.4543 242.226 22.4407 243.291 24.4014L269.4 72.475C270.687 74.8435 269.816 77.8098 267.455 79.1004C265.095 80.3911 262.138 79.5173 260.852 77.1488L243.884 45.9079V74.8119C243.884 77.5092 241.705 79.6958 239.016 79.6958C236.328 79.6958 234.148 77.5092 234.148 74.8119V26.7384C234.148 24.5055 235.658 22.5569 237.814 22.0056Z" fill="white"/>
<path fill-rule="evenodd" clip-rule="evenodd" d="M208.781 31.6517V46.2525C210.655 46.2141 212.086 45.9321 213.1 45.4088C213.793 45.051 214.306 44.5714 214.7 43.8098C215.128 42.982 215.539 41.572 215.539 39.2131C215.539 34.6935 214.101 33.3276 212.947 32.6781C211.945 32.1141 210.56 31.7704 208.781 31.6517ZM208.781 56.0049C211.727 55.9599 214.788 55.4867 217.496 54.0885C219.86 52.8679 221.882 50.9832 223.258 48.3234C224.6 45.7298 225.195 42.6613 225.195 39.2131C225.195 32.1186 222.61 26.9561 217.649 24.1634C213.251 21.6875 207.886 21.651 203.537 22.0306C201.041 22.2485 199.125 24.3575 199.125 26.8868V74.8224C199.125 77.5144 201.286 79.6967 203.953 79.6967C206.619 79.6967 208.781 77.5144 208.781 74.8224V56.0049Z" fill="white"/>
<path fill-rule="evenodd" clip-rule="evenodd" d="M422.361 22.5111C424.702 21.1619 427.699 21.9566 429.055 24.2861L449.032 58.6051L451.28 26.3913C451.423 24.3406 452.844 22.5997 454.832 22.0394C456.819 21.479 458.947 22.2196 460.15 23.8909L485.886 59.6454V26.729C485.886 24.037 488.079 21.8548 490.784 21.8548C493.49 21.8548 495.683 24.037 495.683 26.729V74.8221C495.683 76.9399 494.309 78.8153 492.282 79.4629C490.256 80.1105 488.041 79.382 486.802 77.6603L460.111 40.5791L457.697 75.1598C457.548 77.2969 456.014 79.0866 453.917 79.5704C451.819 80.0543 449.65 79.1188 448.571 77.265L420.577 29.172C419.222 26.8425 420.02 23.8603 422.361 22.5111Z" fill="white"/>
<path fill-rule="evenodd" clip-rule="evenodd" d="M400.777 22.0056C402.934 21.4543 405.189 22.4407 406.253 24.4014L432.363 72.4749C433.65 74.8434 432.779 77.8098 430.418 79.1004C428.057 80.3911 425.101 79.5173 423.815 77.1488L406.847 45.9079V74.8119C406.847 77.5092 404.668 79.6958 401.979 79.6958C399.291 79.6958 397.111 77.5092 397.111 74.8119V26.7383C397.111 24.5054 398.621 22.5569 400.777 22.0056Z" fill="white"/>
<path fill-rule="evenodd" clip-rule="evenodd" d="M371.731 31.6517V46.2524C373.606 46.214 375.037 45.9321 376.05 45.4087C376.743 45.0509 377.256 44.5714 377.65 43.8097C378.079 42.982 378.49 41.5719 378.49 39.213C378.49 34.6935 377.051 33.3276 375.897 32.678C374.895 32.114 373.51 31.7703 371.731 31.6517ZM371.731 56.0049C374.677 55.9598 377.738 55.4866 380.446 54.0885C382.811 52.8678 384.832 50.9831 386.209 48.3234C387.55 45.7297 388.145 42.6612 388.145 39.213C388.145 32.1185 385.56 26.956 380.599 24.1634C376.201 21.6875 370.837 21.6509 366.487 22.0306C363.991 22.2484 362.075 24.3575 362.075 26.8867V74.8224C362.075 77.5144 364.237 79.6966 366.903 79.6966C369.569 79.6966 371.731 77.5144 371.731 74.8224V56.0049Z" fill="white"/>
<path d="M207.496 105.408C208.032 105.844 208.316 106.414 208.35 107.118C208.383 107.789 208.182 108.392 207.747 108.929C207.312 109.432 206.759 109.717 206.089 109.784C205.453 109.817 204.884 109.616 204.381 109.18C203.209 108.141 201.685 106.883 199.81 105.408C199.307 105.006 199.006 104.486 198.905 103.849C198.838 103.178 199.023 102.592 199.458 102.089C199.893 101.552 200.446 101.25 201.116 101.183C201.786 101.116 202.388 101.284 202.924 101.686C205.101 103.396 206.625 104.637 207.496 105.408ZM203.025 120.999C200.915 119.121 199.09 117.596 197.549 116.422C197.047 116.02 196.762 115.5 196.695 114.863C196.628 114.226 196.795 113.656 197.197 113.153C197.633 112.65 198.169 112.365 198.805 112.298C199.475 112.198 200.078 112.349 200.613 112.751C202.355 114.025 204.18 115.517 206.089 117.227C206.625 117.696 206.91 118.266 206.943 118.937C207.01 119.608 206.826 120.211 206.391 120.748C205.955 121.25 205.403 121.535 204.733 121.603C204.096 121.636 203.527 121.435 203.025 120.999ZM206.491 127.537C207.127 127.805 207.596 128.258 207.898 128.895C208.199 129.499 208.233 130.119 207.998 130.756C206.491 135.014 204.683 138.92 202.573 142.474C202.204 143.078 201.668 143.447 200.965 143.581C200.262 143.748 199.609 143.631 199.006 143.229C198.437 142.86 198.068 142.323 197.901 141.619C197.733 140.915 197.834 140.261 198.202 139.658C200.312 136.104 202.054 132.533 203.427 128.945C203.661 128.308 204.063 127.856 204.632 127.587C205.235 127.319 205.855 127.302 206.491 127.537ZM236.784 111.242L237.838 108.979C237.939 108.744 237.855 108.627 237.587 108.627H230.253C229.985 108.627 229.851 108.778 229.851 109.079V115.97C229.851 116.271 229.985 116.422 230.253 116.422H237.537C238.14 116.422 238.659 116.64 239.094 117.076C239.53 117.512 239.747 118.032 239.747 118.635C239.747 120.178 239.48 121.603 238.944 122.91C237.102 127.37 234.858 131.158 232.212 134.276C232.011 134.545 232.028 134.763 232.262 134.93C234.774 136.707 237.822 138.199 241.405 139.406C242.008 139.608 242.46 139.993 242.762 140.563C243.063 141.1 243.13 141.686 242.963 142.323C242.795 142.96 242.427 143.43 241.857 143.732C241.321 144.067 240.735 144.151 240.099 143.983C235.846 142.709 232.028 140.831 228.645 138.35C228.444 138.183 228.21 138.199 227.942 138.401C224.961 140.748 221.495 142.575 217.543 143.882C216.907 144.117 216.27 144.067 215.634 143.732C215.031 143.43 214.596 142.96 214.328 142.323C214.093 141.72 214.127 141.133 214.428 140.563C214.73 139.993 215.182 139.591 215.785 139.356C218.899 138.25 221.679 136.774 224.124 134.93C224.358 134.729 224.392 134.545 224.224 134.377C221.947 131.896 220.021 129.046 218.447 125.827C218.146 125.224 218.112 124.62 218.347 124.017C218.615 123.413 219.05 122.977 219.653 122.709C220.289 122.441 220.909 122.441 221.512 122.709C222.148 122.944 222.617 123.363 222.918 123.966C224.224 126.515 225.849 128.845 227.791 130.957C228.026 131.192 228.227 131.192 228.394 130.957C230.671 128.308 232.58 125.056 234.121 121.2C234.188 120.965 234.087 120.848 233.82 120.848H216.438C216.136 120.848 215.986 120.999 215.986 121.301C215.986 129.851 214.562 136.875 211.716 142.374C211.381 143.011 210.862 143.346 210.158 143.38C209.489 143.447 208.936 143.212 208.501 142.675C207.328 141.334 207.111 139.792 207.847 138.048C209.957 133.086 211.012 126.246 211.012 117.529V106.967C211.012 106.196 211.28 105.525 211.816 104.955C212.385 104.385 213.055 104.1 213.826 104.1H224.124C224.392 104.1 224.526 103.95 224.526 103.648V101.938C224.526 101.2 224.777 100.58 225.279 100.077C225.815 99.574 226.452 99.3226 227.188 99.3226C227.925 99.3226 228.545 99.574 229.047 100.077C229.583 100.58 229.851 101.2 229.851 101.938V103.648C229.851 103.95 229.985 104.1 230.253 104.1H240.752C241.388 104.1 241.924 104.318 242.36 104.754C242.795 105.19 243.013 105.727 243.013 106.364C243.013 107.906 242.745 109.364 242.209 110.739C241.841 111.712 241.439 112.6 241.003 113.405C240.702 114.008 240.233 114.411 239.597 114.612C238.96 114.813 238.341 114.763 237.738 114.461C237.169 114.159 236.783 113.69 236.583 113.053C236.415 112.416 236.482 111.812 236.784 111.242ZM224.526 115.97V109.079C224.526 108.778 224.392 108.627 224.124 108.627H216.438C216.136 108.627 215.986 108.778 215.986 109.079V115.97C215.986 116.271 216.136 116.422 216.438 116.422H224.124C224.392 116.422 224.526 116.271 224.526 115.97Z" fill="white"/>
<path d="M257.732 105.408C258.268 105.844 258.553 106.414 258.586 107.118C258.619 107.789 258.419 108.392 257.983 108.929C257.548 109.432 256.995 109.717 256.325 109.784C255.689 109.817 255.12 109.616 254.617 109.18C253.445 108.141 251.921 106.883 250.046 105.408C249.543 105.006 249.242 104.486 249.142 103.849C249.075 103.178 249.259 102.592 249.694 102.089C250.13 101.552 250.682 101.25 251.352 101.183C252.022 101.116 252.625 101.284 253.16 101.686C255.337 103.396 256.861 104.637 257.732 105.408ZM253.261 120.999C251.151 119.121 249.326 117.596 247.785 116.422C247.283 116.02 246.998 115.5 246.931 114.863C246.864 114.226 247.032 113.656 247.434 113.153C247.869 112.65 248.405 112.365 249.041 112.298C249.711 112.198 250.314 112.349 250.85 112.751C252.591 114.025 254.416 115.517 256.325 117.227C256.861 117.696 257.146 118.266 257.179 118.937C257.246 119.608 257.062 120.211 256.627 120.748C256.191 121.25 255.639 121.535 254.969 121.603C254.333 121.636 253.763 121.435 253.261 120.999ZM256.727 127.537C257.364 127.805 257.832 128.258 258.134 128.895C258.435 129.499 258.469 130.119 258.234 130.756C256.727 135.014 254.919 138.92 252.809 142.474C252.44 143.078 251.905 143.447 251.201 143.581C250.498 143.748 249.845 143.631 249.242 143.229C248.673 142.86 248.304 142.323 248.137 141.619C247.969 140.915 248.07 140.261 248.438 139.658C250.548 136.104 252.29 132.533 253.663 128.945C253.897 128.308 254.299 127.856 254.869 127.587C255.471 127.319 256.091 127.302 256.727 127.537ZM287.02 111.242L288.075 108.979C288.175 108.744 288.091 108.627 287.823 108.627H280.489C280.221 108.627 280.087 108.778 280.087 109.079V115.97C280.087 116.271 280.221 116.422 280.489 116.422H287.773C288.376 116.422 288.895 116.64 289.331 117.076C289.766 117.512 289.984 118.032 289.984 118.635C289.984 120.178 289.716 121.603 289.18 122.91C287.338 127.37 285.094 131.158 282.448 134.276C282.247 134.545 282.264 134.763 282.498 134.93C285.01 136.707 288.058 138.199 291.641 139.406C292.244 139.608 292.696 139.993 292.998 140.563C293.299 141.1 293.366 141.686 293.199 142.323C293.031 142.96 292.663 143.43 292.094 143.732C291.558 144.067 290.972 144.151 290.335 143.983C286.082 142.709 282.264 140.831 278.881 138.35C278.68 138.183 278.446 138.199 278.178 138.401C275.197 140.748 271.731 142.575 267.779 143.882C267.143 144.117 266.507 144.067 265.87 143.732C265.267 143.43 264.832 142.96 264.564 142.323C264.33 141.72 264.363 141.133 264.665 140.563C264.966 139.993 265.418 139.591 266.021 139.356C269.136 138.25 271.915 136.774 274.36 134.93C274.595 134.729 274.628 134.545 274.461 134.377C272.183 131.896 270.258 129.046 268.683 125.827C268.382 125.224 268.349 124.62 268.583 124.017C268.851 123.413 269.286 122.977 269.889 122.709C270.525 122.441 271.145 122.441 271.748 122.709C272.384 122.944 272.853 123.363 273.154 123.966C274.461 126.515 276.085 128.845 278.027 130.957C278.262 131.192 278.463 131.192 278.63 130.957C280.908 128.308 282.817 125.056 284.357 121.2C284.424 120.965 284.324 120.848 284.056 120.848H266.674C266.373 120.848 266.222 120.999 266.222 121.301C266.222 129.851 264.799 136.875 261.952 142.374C261.617 143.011 261.098 143.346 260.395 143.38C259.725 143.447 259.172 143.212 258.737 142.675C257.565 141.334 257.347 139.792 258.084 138.048C260.194 133.086 261.249 126.246 261.249 117.529V106.967C261.249 106.196 261.516 105.525 262.052 104.955C262.622 104.385 263.291 104.1 264.062 104.1H274.36C274.628 104.1 274.762 103.95 274.762 103.648V101.938C274.762 101.2 275.013 100.58 275.516 100.077C276.051 99.574 276.688 99.3226 277.425 99.3226C278.161 99.3226 278.781 99.574 279.283 100.077C279.819 100.58 280.087 101.2 280.087 101.938V103.648C280.087 103.95 280.221 104.1 280.489 104.1H290.988C291.625 104.1 292.161 104.318 292.596 104.754C293.031 105.19 293.249 105.727 293.249 106.364C293.249 107.906 292.981 109.364 292.445 110.739C292.077 111.712 291.675 112.6 291.24 113.405C290.938 114.008 290.469 114.411 289.833 114.612C289.197 114.813 288.577 114.763 287.974 114.461C287.405 114.159 287.02 113.69 286.819 113.053C286.651 112.416 286.718 111.812 287.02 111.242ZM274.762 115.97V109.079C274.762 108.778 274.628 108.627 274.36 108.627H266.674C266.373 108.627 266.222 108.778 266.222 109.079V115.97C266.222 116.271 266.373 116.422 266.674 116.422H274.36C274.628 116.422 274.762 116.271 274.762 115.97Z" fill="white"/>
<path d="M299.679 144.335C299.076 144.369 298.541 144.184 298.072 143.782C297.636 143.38 297.402 142.877 297.368 142.273C297.335 141.67 297.519 141.133 297.921 140.664C298.323 140.228 298.825 139.993 299.428 139.96C303.279 139.725 305.892 139.557 307.265 139.457C307.533 139.457 307.667 139.289 307.667 138.954V137.244C307.667 136.942 307.533 136.791 307.265 136.791H300.131C299.595 136.791 299.127 136.607 298.725 136.238C298.323 135.836 298.122 135.349 298.122 134.779C298.122 134.209 298.323 133.74 298.725 133.371C299.127 132.969 299.595 132.768 300.131 132.768H307.265C307.533 132.768 307.667 132.634 307.667 132.365V130.957C307.667 130.655 307.533 130.504 307.265 130.504H303.849H301.689C300.918 130.504 300.249 130.219 299.679 129.649C299.11 129.079 298.825 128.409 298.825 127.638V117.78C298.825 117.009 299.11 116.338 299.679 115.769C300.249 115.199 300.918 114.914 301.689 114.914H307.265C307.533 114.914 307.667 114.779 307.667 114.511V113.103C307.667 112.801 307.533 112.65 307.265 112.65H299.729C299.194 112.65 298.725 112.466 298.323 112.097C297.921 111.695 297.72 111.209 297.72 110.639C297.72 110.069 297.921 109.599 298.323 109.23C298.725 108.828 299.194 108.627 299.729 108.627H307.265C307.533 108.627 307.667 108.476 307.667 108.174V106.565C307.667 106.297 307.533 106.162 307.265 106.162C304.385 106.364 302.258 106.498 300.885 106.565C300.282 106.598 299.746 106.397 299.277 105.961C298.842 105.525 298.608 105.006 298.574 104.402C298.541 103.799 298.725 103.279 299.127 102.843C299.562 102.407 300.081 102.173 300.684 102.139C306.679 101.837 312.858 101.234 319.221 100.328C319.857 100.228 320.427 100.362 320.929 100.731C321.431 101.1 321.716 101.603 321.783 102.24C321.85 102.877 321.699 103.447 321.331 103.95C320.963 104.419 320.46 104.704 319.824 104.805C318.518 105.006 316.425 105.274 313.544 105.609C313.243 105.676 313.092 105.827 313.092 106.062V108.174C313.092 108.476 313.243 108.627 313.544 108.627H320.226C321.197 108.627 321.833 109.113 322.135 110.085C322.202 110.287 322.336 110.32 322.537 110.186C322.905 109.918 323.34 109.784 323.843 109.784H326.405C326.706 109.784 326.857 109.633 326.857 109.331C326.924 106.38 326.957 104.017 326.957 102.24C326.957 101.535 327.209 100.949 327.711 100.479C328.213 99.9764 328.816 99.7249 329.52 99.7249C330.223 99.7249 330.809 99.9764 331.278 100.479C331.747 100.949 331.981 101.535 331.981 102.24C331.981 104.017 331.948 106.38 331.881 109.331C331.881 109.633 332.015 109.784 332.282 109.784H339.969C340.739 109.784 341.409 110.069 341.978 110.639C342.547 111.175 342.832 111.829 342.832 112.6V113.002C342.832 118.065 342.799 122.223 342.732 125.475C342.698 128.727 342.564 131.577 342.33 134.025C342.129 136.439 341.911 138.266 341.677 139.507C341.442 140.714 341.057 141.686 340.521 142.424C339.985 143.162 339.45 143.598 338.914 143.732C338.378 143.899 337.624 143.983 336.653 143.983C336.151 143.983 334.694 143.882 332.282 143.681C331.579 143.648 330.993 143.363 330.524 142.826C330.055 142.323 329.821 141.72 329.821 141.016C329.821 140.345 330.055 139.809 330.524 139.406C331.027 138.971 331.596 138.786 332.232 138.853C333.404 138.987 334.376 139.054 335.146 139.054C335.481 139.054 335.766 138.937 336 138.702C336.234 138.434 336.452 137.881 336.653 137.043C336.887 136.171 337.055 134.93 337.155 133.321C337.289 131.678 337.39 129.465 337.457 126.682C337.524 123.866 337.557 120.412 337.557 116.322V114.712C337.557 114.444 337.407 114.31 337.105 114.31H332.132C331.83 114.31 331.68 114.444 331.68 114.712C331.311 121.619 330.625 127.235 329.62 131.561C328.649 135.852 327.242 139.574 325.4 142.726C325.065 143.329 324.546 143.698 323.843 143.832C323.14 144 322.486 143.899 321.884 143.53C321.348 143.195 320.996 142.709 320.829 142.072C320.795 142.005 320.728 141.955 320.628 141.921C320.561 141.888 320.51 141.904 320.477 141.971C320.142 142.273 319.774 142.441 319.372 142.474C312.908 143.346 306.344 143.966 299.679 144.335ZM313.092 119.239V120.748C313.092 121.049 313.243 121.2 313.544 121.2H316.408C316.676 121.2 316.81 121.049 316.81 120.748V119.239C316.81 118.971 316.676 118.836 316.408 118.836H313.544C313.243 118.836 313.092 118.971 313.092 119.239ZM313.092 124.67V126.179C313.092 126.481 313.243 126.632 313.544 126.632H316.408C316.676 126.632 316.81 126.481 316.81 126.179V124.67C316.81 124.369 316.676 124.218 316.408 124.218H313.544C313.243 124.218 313.092 124.369 313.092 124.67ZM313.092 137.244V138.501C313.092 138.769 313.226 138.903 313.494 138.903C315.403 138.702 317.262 138.501 319.07 138.3C319.975 138.199 320.628 138.568 321.03 139.406C321.063 139.473 321.113 139.524 321.18 139.557C321.281 139.557 321.364 139.524 321.431 139.457C322.939 136.707 324.111 133.421 324.948 129.599C325.785 125.777 326.355 120.815 326.656 114.712C326.656 114.444 326.522 114.31 326.254 114.31H323.843C323.307 114.31 322.838 114.142 322.436 113.807C322.034 113.472 321.766 113.053 321.632 112.55C321.565 112.281 321.431 112.214 321.231 112.349C320.929 112.55 320.594 112.65 320.226 112.65H313.544C313.243 112.65 313.092 112.801 313.092 113.103V114.511C313.092 114.779 313.243 114.914 313.544 114.914H318.719C319.489 114.914 320.159 115.199 320.728 115.769C321.298 116.338 321.582 117.009 321.582 117.78V127.638C321.582 128.409 321.298 129.079 320.728 129.649C320.159 130.219 319.489 130.504 318.719 130.504H313.544C313.243 130.504 313.092 130.655 313.092 130.957V132.365C313.092 132.634 313.243 132.768 313.544 132.768H319.573C320.142 132.768 320.611 132.969 320.979 133.371C321.381 133.74 321.582 134.209 321.582 134.779C321.582 135.349 321.381 135.836 320.979 136.238C320.611 136.607 320.142 136.791 319.573 136.791H313.544C313.243 136.791 313.092 136.942 313.092 137.244ZM303.849 119.239V120.748C303.849 121.049 304 121.2 304.301 121.2H307.265C307.533 121.2 307.667 121.049 307.667 120.748V119.239C307.667 118.971 307.533 118.836 307.265 118.836H304.301C304 118.836 303.849 118.971 303.849 119.239ZM307.265 126.632C307.533 126.632 307.667 126.481 307.667 126.179V124.67C307.667 124.369 307.533 124.218 307.265 124.218H304.301C304 124.218 303.849 124.369 303.849 124.67V126.179C303.849 126.481 304 126.632 304.301 126.632H307.265Z" fill="white"/>
<path d="M349.162 120.999C348.526 120.865 348.04 120.53 347.705 119.993C347.37 119.423 347.286 118.82 347.454 118.183C348.492 113.623 349.246 108.912 349.714 104.05C349.781 103.413 350.049 102.893 350.518 102.491C350.987 102.089 351.54 101.904 352.176 101.938C352.812 102.005 353.331 102.256 353.733 102.692C354.135 103.128 354.319 103.665 354.286 104.302C354.252 104.939 354.169 105.861 354.035 107.068C354.035 107.336 354.169 107.47 354.437 107.47H355.14C355.408 107.47 355.542 107.336 355.542 107.068V102.441C355.542 101.703 355.793 101.083 356.295 100.58C356.831 100.077 357.468 99.8255 358.204 99.8255C358.941 99.8255 359.561 100.077 360.063 100.58C360.565 101.083 360.817 101.703 360.817 102.441V107.068C360.817 107.336 360.967 107.47 361.269 107.47H363.479C364.115 107.47 364.651 107.688 365.087 108.124C365.522 108.56 365.74 109.096 365.74 109.733C365.74 110.37 365.522 110.907 365.087 111.343C364.651 111.779 364.115 111.997 363.479 111.997H361.269C360.967 111.997 360.817 112.147 360.817 112.449V123.363C360.817 123.631 360.951 123.732 361.219 123.665C361.486 123.598 361.922 123.497 362.525 123.363C363.128 123.195 363.58 123.061 363.881 122.96C364.45 122.793 364.97 122.877 365.438 123.212C365.907 123.547 366.175 124 366.242 124.57C366.309 125.24 366.142 125.861 365.74 126.431C365.371 127.001 364.886 127.37 364.283 127.537C362.943 127.94 361.939 128.224 361.269 128.392C360.967 128.459 360.817 128.644 360.817 128.945V142.474C360.817 143.212 360.565 143.832 360.063 144.335C359.561 144.838 358.941 145.09 358.204 145.09C357.468 145.09 356.831 144.838 356.295 144.335C355.793 143.832 355.542 143.212 355.542 142.474V130.253C355.542 129.951 355.408 129.834 355.14 129.901C353.834 130.203 352.159 130.572 350.116 131.007C349.514 131.142 348.961 131.024 348.459 130.655C347.956 130.253 347.672 129.733 347.605 129.096C347.538 128.459 347.688 127.889 348.057 127.386C348.425 126.85 348.927 126.515 349.564 126.38C351.975 125.945 353.851 125.559 355.19 125.224C355.425 125.19 355.542 125.006 355.542 124.67V112.449C355.542 112.147 355.408 111.997 355.14 111.997H353.834C353.566 111.997 353.398 112.147 353.331 112.449C352.93 114.796 352.477 117.076 351.975 119.289C351.841 119.926 351.489 120.412 350.92 120.748C350.384 121.083 349.798 121.167 349.162 120.999ZM384.779 139.557C385.382 139.557 385.851 139.138 386.186 138.3C386.521 137.462 386.839 135.5 387.14 132.416C387.442 129.297 387.693 124.687 387.894 118.585C387.86 118.551 387.827 118.518 387.793 118.484C386.152 123.547 383.942 128.241 381.162 132.566C378.383 136.858 375.234 140.463 371.718 143.38C371.149 143.815 370.512 144 369.809 143.933C369.139 143.866 368.57 143.547 368.101 142.977C367.666 142.441 367.481 141.837 367.548 141.167C367.649 140.53 367.967 139.976 368.503 139.507C372.589 136.087 376.105 131.846 379.052 126.783C382 121.686 384.16 116.121 385.533 110.085C385.6 109.784 385.499 109.633 385.231 109.633H382.067C381.765 109.633 381.581 109.767 381.514 110.035C380.208 114.494 378.433 118.686 376.189 122.608C373.945 126.531 371.467 129.817 368.754 132.466C368.252 132.935 367.649 133.153 366.945 133.12C366.276 133.053 365.706 132.751 365.237 132.214C364.802 131.678 364.601 131.074 364.635 130.404C364.702 129.7 364.986 129.113 365.489 128.644C370.445 123.883 374.163 117.68 376.641 110.035C376.708 109.767 376.608 109.633 376.34 109.633H373.275C373.007 109.633 372.806 109.75 372.672 109.985C370.998 113.706 369.089 116.976 366.945 119.792C366.577 120.295 366.058 120.563 365.388 120.597C364.752 120.597 364.216 120.362 363.781 119.893C363.312 119.423 363.061 118.836 363.027 118.132C362.994 117.428 363.178 116.808 363.58 116.271C366.728 111.913 369.106 106.95 370.713 101.385C370.914 100.714 371.299 100.194 371.869 99.8255C372.471 99.4232 373.125 99.2555 373.828 99.3226C374.498 99.3896 375.017 99.7082 375.385 100.278C375.754 100.815 375.837 101.401 375.636 102.038C375.368 102.977 375.1 103.815 374.833 104.553C374.766 104.821 374.866 104.955 375.134 104.955H390.356C391.126 104.955 391.779 105.257 392.315 105.861C392.884 106.431 393.152 107.101 393.119 107.872C392.951 116.623 392.75 123.38 392.516 128.141C392.315 132.902 391.946 136.523 391.41 139.004C390.908 141.452 390.356 142.944 389.753 143.48C389.183 144.05 388.313 144.335 387.14 144.335C385.499 144.335 383.222 144.251 380.308 144.084C379.638 144.05 379.069 143.782 378.6 143.279C378.131 142.81 377.88 142.24 377.847 141.569C377.813 140.932 378.014 140.395 378.45 139.96C378.918 139.524 379.471 139.323 380.107 139.356C382.586 139.49 384.143 139.557 384.779 139.557Z" fill="white"/>
<path d="M410.55 103.799C410.517 103.832 410.483 103.899 410.45 104C410.417 104.1 410.4 104.168 410.4 104.201C410.266 104.469 410.35 104.603 410.651 104.603H418.387C418.756 104.603 419.074 104.737 419.342 105.006C419.61 105.274 419.744 105.592 419.744 105.961C419.744 106.33 419.61 106.665 419.342 106.967C419.074 107.235 418.756 107.37 418.387 107.37H415.524C415.256 107.37 415.122 107.52 415.122 107.822V108.577C415.122 108.878 415.256 109.029 415.524 109.029H418.789C419.191 109.029 419.526 109.163 419.794 109.432C420.095 109.7 420.246 110.035 420.246 110.437C420.246 110.84 420.095 111.192 419.794 111.494C419.526 111.762 419.191 111.896 418.789 111.896H416.529C416.462 111.896 416.411 111.929 416.378 111.997C416.344 112.064 416.344 112.131 416.378 112.198C416.88 112.701 417.416 113.103 417.985 113.405C418.588 113.774 418.973 114.276 419.141 114.914C419.308 115.551 419.174 116.137 418.739 116.674L418.387 117.076C418.354 117.11 418.337 117.16 418.337 117.227C418.371 117.294 418.421 117.328 418.488 117.328H418.89C419.325 117.328 419.693 117.478 419.995 117.78C420.33 118.082 420.497 118.468 420.497 118.937C420.497 119.406 420.33 119.792 419.995 120.094C419.693 120.395 419.325 120.546 418.89 120.546H402.01C401.24 120.546 400.57 120.278 400.001 119.742C399.432 119.172 399.147 118.501 399.147 117.73V102.793C399.147 102.022 399.432 101.351 400.001 100.781C400.57 100.211 401.24 99.9261 402.01 99.9261H419.04C419.509 99.9261 419.911 100.094 420.246 100.429C420.581 100.764 420.748 101.167 420.748 101.636C420.748 102.105 420.581 102.508 420.246 102.843C419.911 103.178 419.509 103.346 419.04 103.346H411.153C410.885 103.346 410.684 103.497 410.55 103.799ZM407.888 108.677C407.721 108.912 407.771 109.029 408.039 109.029H409.897C410.165 109.029 410.299 108.878 410.299 108.577V107.822C410.299 107.52 410.165 107.37 409.897 107.37H409.194C408.926 107.37 408.708 107.487 408.541 107.722C408.173 108.292 407.955 108.61 407.888 108.677ZM404.02 103.799V107.068C404.02 107.135 404.053 107.185 404.12 107.219C404.221 107.252 404.288 107.235 404.321 107.168C405.091 106.129 405.795 104.989 406.431 103.748C406.565 103.48 406.481 103.346 406.18 103.346H404.472C404.17 103.346 404.02 103.497 404.02 103.799ZM404.02 108.878V114.059C404.02 114.327 404.17 114.427 404.472 114.36C406.448 113.79 407.921 113.069 408.893 112.198C408.96 112.131 408.96 112.064 408.893 111.997C408.859 111.929 408.809 111.896 408.742 111.896H407.486C406.816 111.896 406.23 111.661 405.728 111.192C405.259 110.689 405.024 110.102 405.024 109.432C405.024 109.163 404.924 108.979 404.723 108.878L404.422 108.677C404.355 108.61 404.271 108.61 404.17 108.677C404.07 108.711 404.02 108.778 404.02 108.878ZM406.13 117.328C406.197 117.328 406.247 117.277 406.28 117.177C406.314 117.076 406.297 117.009 406.23 116.976L404.371 115.115C404.304 115.048 404.221 115.031 404.12 115.064C404.053 115.098 404.02 115.148 404.02 115.215V116.875C404.02 117.177 404.17 117.328 404.472 117.328H406.13ZM412.51 114.31C411.204 115.551 409.696 116.506 407.988 117.177C407.955 117.244 407.955 117.294 407.988 117.328H416.88C416.914 117.328 416.93 117.311 416.93 117.277C416.93 117.21 416.914 117.16 416.88 117.126C415.507 116.523 414.251 115.601 413.113 114.36C412.912 114.126 412.711 114.109 412.51 114.31ZM442.099 102.139C442.702 102.206 443.187 102.474 443.556 102.944C443.924 103.38 444.075 103.899 444.008 104.503C443.773 106.213 443.304 107.252 442.601 107.621C441.931 107.956 440.257 108.124 437.578 108.124C435.267 108.124 433.843 108.023 433.307 107.822C432.805 107.621 432.554 107.101 432.554 106.263V103.648C432.554 103.38 432.42 103.245 432.152 103.245H429.088C428.786 103.245 428.635 103.396 428.635 103.698C428.569 105.945 427.53 107.688 425.521 108.929C425.487 108.962 425.471 109.012 425.471 109.079C425.471 109.113 425.504 109.13 425.571 109.13H440.391C440.86 109.13 441.262 109.297 441.596 109.633C441.931 109.968 442.099 110.37 442.099 110.84C442.099 112.047 441.73 113.036 440.994 113.807C440.089 114.746 439.034 115.601 437.829 116.372C437.762 116.406 437.728 116.473 437.728 116.573C437.728 116.64 437.762 116.691 437.829 116.724C438.8 116.959 440.156 117.227 441.898 117.529C442.367 117.596 442.718 117.847 442.953 118.283C443.221 118.719 443.288 119.172 443.154 119.641C443.02 120.178 442.718 120.597 442.25 120.898C441.781 121.167 441.278 121.25 440.742 121.15C437.795 120.58 435.183 119.893 432.906 119.088C432.638 118.987 432.37 118.987 432.102 119.088C429.724 119.926 427.095 120.613 424.215 121.15C423.679 121.25 423.176 121.167 422.708 120.898C422.239 120.597 421.937 120.178 421.803 119.641C421.669 119.172 421.736 118.719 422.004 118.283C422.272 117.847 422.641 117.596 423.11 117.529C424.851 117.261 426.107 117.026 426.877 116.825C426.944 116.791 426.978 116.741 426.978 116.674C427.011 116.607 426.994 116.556 426.927 116.523C426.593 116.355 425.839 115.919 424.667 115.215C424.198 114.914 423.964 114.494 423.964 113.958C423.997 113.388 424.248 112.969 424.717 112.701C424.751 112.667 424.767 112.634 424.767 112.6C424.767 112.533 424.734 112.499 424.667 112.499H423.31C422.842 112.499 422.44 112.349 422.105 112.047C421.803 111.712 421.653 111.309 421.653 110.84C421.653 110.37 421.803 109.968 422.105 109.633C422.44 109.297 422.842 109.13 423.31 109.13H423.612C423.679 109.096 423.712 109.029 423.712 108.929L422.708 108.174C422.205 107.738 421.971 107.202 422.004 106.565C422.071 105.894 422.356 105.291 422.858 104.754C423.428 104.117 423.813 103.396 424.014 102.592C424.215 101.787 424.566 101.116 425.069 100.58C425.605 100.01 426.241 99.7249 426.978 99.7249H434.714C435.484 99.7249 436.154 100.01 436.724 100.58C437.293 101.116 437.578 101.77 437.578 102.541V104.251C437.578 104.486 437.628 104.637 437.728 104.704C437.829 104.737 438.164 104.754 438.733 104.754C439.101 104.754 439.353 104.721 439.487 104.654C439.62 104.553 439.721 104.352 439.788 104.05C439.922 103.48 440.19 103.011 440.592 102.642C441.027 102.273 441.529 102.105 442.099 102.139ZM428.083 112.499C428.016 112.499 427.966 112.533 427.932 112.6C427.932 112.667 427.966 112.717 428.033 112.751C429.205 113.522 430.528 114.209 432.001 114.813C432.202 114.88 432.453 114.863 432.755 114.763C434.094 114.126 435.183 113.472 436.02 112.801C436.087 112.734 436.104 112.667 436.07 112.6C436.037 112.533 435.987 112.499 435.92 112.499H428.083ZM399.699 125.576C399.197 125.576 398.762 125.408 398.393 125.073C398.058 124.704 397.891 124.268 397.891 123.765C397.891 123.262 398.058 122.843 398.393 122.508C398.762 122.139 399.197 121.955 399.699 121.955H441.797C442.3 121.955 442.718 122.139 443.053 122.508C443.422 122.843 443.606 123.262 443.606 123.765C443.606 124.268 443.422 124.704 443.053 125.073C442.718 125.408 442.3 125.576 441.797 125.576H428.485C428.183 125.576 428.033 125.727 428.033 126.028V126.582C428.033 126.85 428.183 126.984 428.485 126.984H438.13C438.9 126.984 439.553 127.269 440.089 127.839C440.659 128.409 440.943 129.079 440.943 129.851V143.078C440.943 143.815 440.692 144.436 440.19 144.939C439.687 145.442 439.068 145.693 438.331 145.693H437.226C436.791 145.693 436.422 145.542 436.121 145.24C435.853 144.972 435.719 144.62 435.719 144.184C435.719 144.05 435.635 143.983 435.468 143.983H406.029C405.862 143.983 405.778 144.05 405.778 144.184C405.778 144.62 405.627 144.972 405.326 145.24C405.058 145.542 404.706 145.693 404.271 145.693H403.166C402.429 145.693 401.809 145.442 401.307 144.939C400.805 144.436 400.553 143.815 400.553 143.078V129.851C400.553 129.079 400.821 128.409 401.357 127.839C401.927 127.269 402.596 126.984 403.367 126.984H412.409C412.677 126.984 412.811 126.85 412.811 126.582V126.028C412.811 125.727 412.677 125.576 412.409 125.576H399.699ZM405.778 130.806V132.516C405.778 132.784 405.912 132.919 406.18 132.919C409.73 132.516 411.806 131.812 412.409 130.806C412.543 130.538 412.459 130.404 412.158 130.404H406.23C405.929 130.404 405.778 130.538 405.778 130.806ZM405.778 134.075V135.634C405.778 135.903 405.929 136.037 406.23 136.037H408.24C408.307 136.037 408.357 136.003 408.39 135.936C408.424 135.869 408.407 135.819 408.34 135.785L406.13 133.924C405.895 133.757 405.778 133.807 405.778 134.075ZM435.719 140.111V139.608C435.719 139.306 435.568 139.155 435.267 139.155H406.23C405.929 139.155 405.778 139.306 405.778 139.608V140.111C405.778 140.412 405.929 140.563 406.23 140.563H435.267C435.568 140.563 435.719 140.412 435.719 140.111ZM428.033 130.806V131.41C428.033 131.712 428.167 131.896 428.435 131.963C428.736 131.997 429.741 132.013 431.449 132.013H435.267C435.568 132.013 435.719 131.879 435.719 131.611V130.806C435.719 130.538 435.568 130.404 435.267 130.404H428.485C428.183 130.404 428.033 130.538 428.033 130.806ZM417.985 126.028V126.582C417.985 126.85 418.136 126.984 418.438 126.984H422.456C422.758 126.984 422.909 126.85 422.909 126.582V126.028C422.909 125.727 422.758 125.576 422.456 125.576H418.438C418.136 125.576 417.985 125.727 417.985 126.028ZM417.684 130.857C417.45 132.03 416.78 133.019 415.675 133.824C414.569 134.629 412.811 135.333 410.4 135.936C410.4 135.97 410.417 136.003 410.45 136.037H435.267C435.568 136.037 435.719 135.903 435.719 135.634V135.333C435.719 135.064 435.568 134.93 435.267 134.93H428.435C426.124 134.93 424.617 134.746 423.913 134.377C423.243 134.008 422.909 133.254 422.909 132.114V130.806C422.909 130.538 422.758 130.404 422.456 130.404H418.186C417.918 130.404 417.751 130.555 417.684 130.857Z" fill="white"/>
<path d="M453.653 144.084C453.184 144.587 452.598 144.838 451.895 144.838C451.192 144.838 450.589 144.587 450.086 144.084C449.617 143.614 449.383 143.028 449.383 142.323V103.95C449.383 103.178 449.668 102.508 450.237 101.938C450.806 101.368 451.476 101.083 452.247 101.083H463.399C463.968 101.083 464.454 101.284 464.856 101.686C465.258 102.089 465.459 102.575 465.459 103.145C465.459 103.547 465.425 104.117 465.358 104.855C465.358 105.022 465.425 105.039 465.559 104.905C466.095 104.369 466.765 104.1 467.569 104.1H474.702C475.003 104.1 475.154 103.95 475.154 103.648V101.837C475.154 101.1 475.422 100.463 475.958 99.9261C476.527 99.3561 477.18 99.0711 477.917 99.0711C478.654 99.0711 479.29 99.3561 479.826 99.9261C480.396 100.463 480.68 101.1 480.68 101.837V103.648C480.68 103.95 480.814 104.1 481.082 104.1H490.125C490.895 104.1 491.565 104.385 492.134 104.955C492.703 105.525 492.988 106.196 492.988 106.967V111.997C492.988 112.734 492.72 113.371 492.184 113.908C491.682 114.411 491.062 114.662 490.326 114.662C490.158 114.662 489.907 114.629 489.572 114.561C489.304 114.494 489.17 114.578 489.17 114.813C489.103 115.383 488.869 115.869 488.467 116.271C488.065 116.64 487.579 116.825 487.01 116.825H470.532C469.963 116.825 469.478 116.64 469.076 116.271C468.674 115.869 468.439 115.383 468.372 114.813C468.372 114.578 468.238 114.494 467.97 114.561C467.703 114.629 467.468 114.662 467.267 114.662C466.564 114.662 465.961 114.411 465.459 113.908C464.956 113.405 464.705 112.801 464.705 112.097V107.772C464.672 107.738 464.621 107.738 464.554 107.772C463.215 111.259 461.808 114.344 460.335 117.026C460.167 117.294 460.184 117.546 460.385 117.78C462.93 121.167 464.203 124.687 464.203 128.342C464.203 130.622 463.717 132.349 462.746 133.522C461.808 134.662 460.335 135.316 458.325 135.484C457.689 135.517 457.119 135.333 456.617 134.93C456.148 134.528 455.847 134.008 455.713 133.371C455.612 132.835 455.73 132.365 456.064 131.963C456.433 131.527 456.902 131.259 457.471 131.158C458.208 130.991 458.71 130.639 458.978 130.102C459.28 129.532 459.43 128.577 459.43 127.235C459.43 124.788 458.543 122.357 456.768 119.943C455.629 118.401 455.495 116.825 456.366 115.215C458.007 112.164 459.397 108.962 460.535 105.609C460.602 105.375 460.502 105.257 460.234 105.257H454.859C454.557 105.257 454.407 105.391 454.407 105.66V142.323C454.407 143.028 454.155 143.614 453.653 144.084ZM469.879 108.929V112.097C469.879 112.365 470.013 112.466 470.281 112.399H470.532H487.01H487.261C487.563 112.466 487.713 112.382 487.713 112.147V111.997V108.929C487.713 108.627 487.563 108.476 487.261 108.476H470.281C470.013 108.476 469.879 108.627 469.879 108.929ZM491.581 131.661C492.251 131.728 492.804 132.013 493.239 132.516C493.708 133.019 493.926 133.606 493.892 134.276C493.825 135.584 493.758 136.657 493.691 137.495C493.658 138.333 493.557 139.138 493.39 139.909C493.256 140.68 493.122 141.267 492.988 141.67C492.888 142.105 492.653 142.508 492.285 142.877C491.95 143.245 491.648 143.497 491.38 143.631C491.146 143.765 490.694 143.882 490.024 143.983C489.388 144.084 488.818 144.134 488.316 144.134C487.814 144.167 487.06 144.184 486.055 144.184C483.745 144.184 482.104 144.067 481.132 143.832C480.161 143.631 479.508 143.262 479.173 142.726C478.838 142.189 478.671 141.267 478.671 139.96V126.431C478.671 126.129 478.52 125.978 478.219 125.978H476.46C476.159 125.978 476.008 126.112 476.008 126.38C475.841 130.806 474.886 134.36 473.145 137.043C471.403 139.725 468.54 141.988 464.554 143.832C463.885 144.134 463.198 144.184 462.495 143.983C461.825 143.782 461.289 143.38 460.887 142.776C460.552 142.24 460.468 141.67 460.636 141.066C460.837 140.463 461.222 140.027 461.791 139.758C464.973 138.317 467.25 136.607 468.624 134.629C469.997 132.617 470.767 129.884 470.934 126.431C470.934 126.129 470.8 125.978 470.532 125.978H466.966C466.329 125.978 465.794 125.76 465.358 125.324C464.923 124.888 464.705 124.352 464.705 123.715C464.705 123.078 464.923 122.541 465.358 122.105C465.794 121.67 466.329 121.452 466.966 121.452H490.677C491.314 121.452 491.849 121.67 492.285 122.105C492.754 122.541 492.988 123.078 492.988 123.715C492.988 124.352 492.754 124.888 492.285 125.324C491.849 125.76 491.314 125.978 490.677 125.978H484.347C484.079 125.978 483.946 126.129 483.946 126.431V138.048C483.946 138.853 484.046 139.323 484.247 139.457C484.448 139.591 485.134 139.658 486.307 139.658C487.01 139.658 487.496 139.641 487.763 139.608C488.031 139.541 488.283 139.306 488.517 138.903C488.785 138.501 488.936 137.948 488.969 137.244C489.036 136.54 489.086 135.4 489.12 133.824C489.153 133.153 489.405 132.617 489.873 132.214C490.376 131.779 490.945 131.594 491.581 131.661Z" fill="white"/>
</svg>
