<svg width="496" height="180" viewBox="0 0 496 180" fill="none" xmlns="http://www.w3.org/2000/svg">
<path fill-rule="evenodd" clip-rule="evenodd" d="M53.3497 40.2741C45.8928 39.1941 39.6044 40.0007 34.0081 43.2494C28.0051 46.7343 23.3491 52.7258 18.8232 60.6035C10.9205 74.3588 5.80734 96.507 2.93474 118.275C0.0473156 140.155 -0.658878 162.326 0.593577 176.487C0.780992 178.606 2.65213 180.172 4.77288 179.985C6.89364 179.798 8.46092 177.928 8.2735 175.809C7.0845 162.365 7.74094 140.783 10.5784 119.282C13.4307 97.6679 18.4047 76.8055 25.5096 64.439C29.8414 56.8992 33.6663 52.3574 37.8811 49.9106C41.9361 47.5567 46.8886 46.8427 54.2164 48.2288C59.4039 49.21 63.9821 52.6602 66.2982 59.8456C66.9509 61.8705 69.1228 62.9833 71.1493 62.3311C73.1758 61.6789 74.2895 59.5087 73.6368 57.4838C71.3267 50.3169 67.0563 45.4078 61.7223 42.7077C63.9165 40.6728 66.6441 38.6041 69.6055 36.9525C74.7171 34.1016 79.6458 32.9687 83.4172 34.2021C89.6527 36.2413 93.0924 39.9068 95.0803 44.1299C95.3238 44.6471 95.5466 45.1754 95.7503 45.7132C95.7689 45.7665 95.7888 45.8196 95.8099 45.8724C97.2836 49.8502 97.7231 54.3315 97.7231 58.6647C97.7231 60.792 99.449 62.5166 101.578 62.5166C103.707 62.5166 105.433 60.792 105.433 58.6647C105.433 54.7889 105.124 50.3648 103.938 46.0082C105.277 45.2055 106.697 44.5746 108.192 44.3334C110.288 43.9952 113 44.3469 116.37 47.3281C119.883 50.436 121.688 54.8473 122.436 59.3016C123.104 63.2868 122.867 66.9872 122.463 69.1093C122.064 71.1991 123.437 73.2158 125.528 73.6139C127.62 74.0119 129.638 72.6405 130.036 70.5508C130.337 68.9715 130.553 66.9265 130.565 64.6168C132.589 65.7539 134.7 67.2827 136.554 69.2368C140.1 72.9739 142.731 78.2691 142.07 85.6655C140.612 101.98 132.409 115.6 128.666 120.158C128.101 120.847 127.792 121.71 127.792 122.601V172.291C127.792 174.418 129.517 176.143 131.646 176.143C133.775 176.143 135.501 174.418 135.501 172.291V123.931C140.188 117.727 148.223 103.43 149.749 86.3506C150.63 76.4904 147.025 69.0761 142.149 63.9367C138.208 59.7824 133.455 57.1186 129.566 55.6876C128.401 50.7988 126.021 45.5769 121.481 41.5601C116.524 37.175 111.524 35.9921 106.963 36.7281C104.718 37.0904 102.709 37.8997 100.996 38.8188C98.0189 33.6541 93.2178 29.3014 85.8154 26.8805C78.985 24.6466 71.6423 26.9939 65.8478 30.2256C60.8661 33.004 56.3817 36.7882 53.3497 40.2741Z" fill="black"/>
<path d="M111.046 73.3535C102.691 73.3535 101.424 85.0753 101.762 93.8598C102.074 101.963 107.333 112.432 111.046 112.432C114.76 112.432 116.978 104.435 117.622 100.437C118.912 91.4094 119.402 73.3535 111.046 73.3535Z" fill="black"/>
<path d="M131.162 93.8598C125.591 93.8598 126.494 109.594 127.783 118.235C127.783 118.235 136.294 109.402 136.294 102.372C136.294 100.437 136.732 93.8598 131.162 93.8598Z" fill="black"/>
<path fill-rule="evenodd" clip-rule="evenodd" d="M106.306 81.3962C105.161 84.8674 104.911 89.5143 105.076 93.7574C105.211 97.2502 106.452 101.427 108.115 104.722C108.944 106.364 109.807 107.645 110.568 108.465C110.895 108.817 111.134 109.012 111.284 109.119C111.338 109.072 111.404 109.008 111.482 108.923C111.902 108.465 112.387 107.687 112.871 106.596C113.826 104.442 114.482 101.757 114.78 99.9361C115.401 95.6105 115.808 89.2206 115.102 84.0221C114.744 81.3898 114.137 79.3572 113.35 78.0663C112.635 76.8927 111.982 76.6096 111.265 76.6096C109.986 76.6096 109.105 77.0224 108.385 77.7076C107.592 78.4627 106.874 79.6756 106.306 81.3962ZM111.101 109.25C111.101 109.249 111.107 109.246 111.118 109.243C111.107 109.249 111.101 109.251 111.101 109.25ZM104.102 73.2774C105.958 71.511 108.368 70.4707 111.265 70.4707C114.724 70.4707 117.142 72.4258 118.644 74.8892C120.074 77.2354 120.83 80.2386 121.233 83.2016C122.046 89.1827 121.567 96.2055 120.901 100.832C120.899 100.844 120.898 100.855 120.896 100.867C120.895 100.873 120.894 100.88 120.893 100.887C120.544 103.031 119.772 106.276 118.534 109.068C117.919 110.454 117.113 111.907 116.054 113.059C114.997 114.209 113.396 115.362 111.265 115.362C108.974 115.362 107.167 113.863 106.017 112.624C104.739 111.246 103.572 109.43 102.584 107.472C100.613 103.568 99.0695 98.5358 98.8934 93.9934C98.7202 89.5253 98.9351 84.0045 100.426 79.486C101.177 77.2116 102.32 74.9741 104.102 73.2774ZM127.995 118.048L130.223 120.177C129.405 121.019 128.176 121.327 127.053 120.971C125.931 120.615 125.11 119.657 124.936 118.501C124.275 114.108 123.697 107.83 124.025 102.559C124.187 99.9616 124.582 97.3317 125.464 95.255C126.334 93.2068 128.127 90.8059 131.373 90.8059C133.423 90.8059 135.187 91.427 136.556 92.6104C137.868 93.7454 138.58 95.1919 138.98 96.4648C139.657 98.6264 139.617 101.001 139.6 102.008C139.598 102.133 139.596 102.237 139.596 102.316C139.596 106.818 136.955 111.431 134.796 114.539C133.658 116.176 132.526 117.573 131.681 118.559C131.256 119.054 130.9 119.45 130.647 119.726C130.52 119.864 130.418 119.972 130.346 120.048C130.31 120.086 130.282 120.116 130.261 120.138L130.236 120.164L130.228 120.172L130.224 120.176C130.223 120.177 130.223 120.177 127.995 118.048ZM130.2 102.937C130.059 105.202 130.108 107.733 130.267 110.216C132.08 107.447 133.409 104.56 133.409 102.316C133.409 102.163 133.41 102.003 133.411 101.84C133.42 100.734 133.43 99.4309 133.072 98.2882C132.885 97.6907 132.662 97.3866 132.491 97.2387C132.385 97.1471 132.148 96.9752 131.539 96.9484C131.458 97.0507 131.329 97.2553 131.165 97.6396C130.691 98.7563 130.348 100.563 130.2 102.937ZM131.639 96.8591C131.64 96.8651 131.62 96.8871 131.575 96.9073C131.616 96.8633 131.638 96.8531 131.639 96.8591Z" fill="black"/>
<path d="M51.3254 83.9629C49.0113 87.8309 50.1938 96.4431 47.0824 102.529C39.3704 117.615 50.553 125.353 58.2668 123.806C65.9807 122.259 68.6805 99.824 63.6665 87.4462C58.6525 75.0683 53.6396 80.0948 51.3254 83.9629Z" fill="black"/>
<path d="M93.7515 92.4722C92.5173 108.873 83.9806 109.621 79.8666 107.945C71.767 103.304 75.6239 90.5382 79.8666 74.2923C84.1092 58.0464 95.2942 71.9714 93.7515 92.4722Z" fill="black"/>
<path fill-rule="evenodd" clip-rule="evenodd" d="M91.6109 67.5081C95.3916 72.347 97.8362 81.8265 97.032 92.5077C96.3814 101.147 93.7472 106.508 89.8969 109.292C86.0332 112.085 81.6973 111.742 78.9068 110.606C78.7798 110.554 78.6565 110.494 78.5375 110.426C72.8637 107.177 71.8537 101.155 72.3642 95.0148C72.8212 89.518 74.5742 82.8577 76.4292 75.8096C76.6464 74.9845 76.865 74.154 77.0831 73.3194C77.6629 71.1002 78.4039 69.222 79.3319 67.7382C80.2538 66.2643 81.4788 64.9963 83.0862 64.3434C86.6927 62.8787 89.7859 65.1722 91.6109 67.5081ZM84.5611 71.0241C84.0712 71.8073 83.5344 73.0463 83.0535 74.8868C82.8392 75.7069 82.6273 76.5135 82.4189 77.3067C80.5244 84.5173 78.9235 90.6106 78.5147 95.5286C78.0723 100.85 79.1171 103.528 81.4173 104.947C82.737 105.422 84.6244 105.476 86.2863 104.275C88.0421 103.005 90.2938 99.7959 90.8777 92.0422C91.6164 82.2318 89.2393 74.506 86.7518 71.3222C86.1552 70.5587 85.691 70.2369 85.4505 70.1266C85.4162 70.1109 85.3896 70.1009 85.3701 70.0945C85.2724 70.1514 84.9729 70.3656 84.5611 71.0241ZM85.3296 70.0839C85.3296 70.0839 85.3302 70.0839 85.3316 70.0841L85.3296 70.0839ZM55.8344 83.1986C55.2414 83.756 54.6636 84.536 54.1699 85.3608C53.8803 85.8444 53.6002 86.6675 53.3577 88C53.1489 89.1469 53.0059 90.4283 52.8411 91.9061C52.8171 92.1212 52.7926 92.3405 52.7674 92.5641C52.3922 95.8947 51.8765 100.121 50.0263 103.739C46.5706 110.494 47.6409 114.856 49.5291 117.304C51.5947 119.982 55.1306 121.109 57.8608 120.562C58.3791 120.458 59.3971 119.84 60.5122 117.615C61.5693 115.506 62.4044 112.53 62.8828 109.059C63.8454 102.076 63.2535 93.9573 61.0073 88.4153C59.8274 85.5041 58.765 83.9284 57.9708 83.1361C57.5905 82.7567 57.3211 82.6067 57.1814 82.5484C57.0576 82.4967 56.9943 82.4982 56.955 82.5017C56.8332 82.5126 56.4526 82.6175 55.8344 83.1986ZM62.3246 78.7515C63.9531 80.3761 65.3979 82.8119 66.7253 86.0869C69.4936 92.9172 70.059 102.197 68.9965 109.906C68.4623 113.781 67.4892 117.475 66.0271 120.392C64.6228 123.194 62.4102 125.958 59.0712 126.628C54.0866 127.627 48.1732 125.66 44.6463 121.087C40.9421 116.285 40.277 109.239 44.5343 100.916C45.7958 98.45 46.2447 95.3309 46.6346 91.8699C46.6582 91.66 46.6818 91.448 46.7056 91.2344C46.8669 89.7838 47.0358 88.2647 47.2861 86.8895C47.57 85.3304 48.0099 83.6275 48.8776 82.178C49.5411 81.0696 50.4578 79.7717 51.6125 78.6863C52.7421 77.6245 54.3622 76.5217 56.4099 76.3398C58.6047 76.1447 60.6273 77.0583 62.3246 78.7515Z" fill="black"/>
<path d="M94.6713 117C88.4895 117 76.126 135.755 70.717 145.133C63.826 157.08 65.4624 171.339 78.4441 171.339C91.4258 171.339 94.6713 165.173 98.1485 161.704C101.342 167.871 107.91 171.604 110.898 171.339C121.333 170.414 120.944 153.868 116.307 145.133C111.671 135.755 100.853 117 94.6713 117Z" fill="black"/>
<path fill-rule="evenodd" clip-rule="evenodd" d="M84.6478 129.64C80.2196 135.358 75.8538 142.267 73.1947 146.878C70.0159 152.391 68.9928 158.143 69.939 162.233C70.4011 164.231 71.3024 165.736 72.5442 166.747C73.773 167.748 75.583 168.467 78.2422 168.467C84.1926 168.467 87.6168 167.069 89.9017 165.496C91.0821 164.683 92.0483 163.761 92.9641 162.781C93.2544 162.471 93.5955 162.089 93.9546 161.687C94.5568 161.013 95.2098 160.283 95.7593 159.734C96.4567 159.039 97.4451 158.717 98.4196 158.868C99.3942 159.019 100.238 159.625 100.691 160.499C102.018 163.064 104.085 165.177 106.158 166.611C107.188 167.324 108.166 167.832 108.982 168.14C109.852 168.468 110.324 168.488 110.42 168.479C112.108 168.33 113.255 167.601 114.114 166.451C115.042 165.209 115.704 163.36 115.979 161.017C116.533 156.294 115.396 150.6 113.37 146.783C113.356 146.757 113.343 146.731 113.33 146.704C111.055 142.101 107.266 135.207 103.321 129.506C101.341 126.646 99.3951 124.192 97.6448 122.487C96.7699 121.634 96.0174 121.042 95.4035 120.678C95.1023 120.5 94.8687 120.397 94.7009 120.341C94.5445 120.289 94.4716 120.286 94.4677 120.286C94.4636 120.286 94.3779 120.289 94.1936 120.349C94.0019 120.411 93.7412 120.522 93.4088 120.71C92.7338 121.092 91.909 121.704 90.9505 122.568C89.034 124.296 86.8688 126.771 84.6478 129.64ZM90.3627 115.344C91.5371 114.68 92.9477 114.119 94.4678 114.119C96.0033 114.119 97.4033 114.69 98.5602 115.376C99.7391 116.075 100.882 117.021 101.963 118.074C104.124 120.179 106.331 123.001 108.408 126.002C112.564 132.01 116.492 139.162 118.855 143.938C121.451 148.856 122.816 155.783 122.118 161.734C121.766 164.736 120.858 167.743 119.07 170.137C117.212 172.623 114.495 174.31 110.967 174.622C109.568 174.746 108.099 174.399 106.798 173.909C105.442 173.398 104.018 172.637 102.634 171.678C100.873 170.459 99.0882 168.861 97.5426 166.925C97.5237 166.946 97.5046 166.966 97.4854 166.987C96.4092 168.138 95.1009 169.409 93.4129 170.572C89.9608 172.949 85.2723 174.635 78.2422 174.635C74.4113 174.635 71.1491 173.572 68.6358 171.525C66.1353 169.489 64.6244 166.681 63.9162 163.62C62.5217 157.592 64.1257 150.239 67.8371 143.803L70.4586 145.308L67.8371 143.803C70.5865 139.035 75.106 131.875 79.7564 125.869C82.0747 122.875 84.497 120.075 86.8059 117.993C87.9601 116.952 89.1574 116.025 90.3627 115.344Z" fill="black"/>
<path fill-rule="evenodd" clip-rule="evenodd" d="M259.398 48.5107C261.74 47.1615 264.737 47.9562 266.093 50.2857L286.069 84.6047L288.317 52.3909C288.46 50.3402 289.881 48.5993 291.869 48.0389C293.857 47.4786 295.984 48.2192 297.187 49.8904L322.923 85.6449V52.7286C322.923 50.0366 325.116 47.8543 327.821 47.8543C330.527 47.8543 332.72 50.0366 332.72 52.7286V100.822C332.72 102.939 331.346 104.815 329.319 105.462C327.293 106.11 325.078 105.382 323.839 103.66L297.148 66.5787L294.734 101.159C294.585 103.296 293.051 105.086 290.954 105.57C288.857 106.054 286.688 105.118 285.608 103.265L257.615 55.1716C256.259 52.8421 257.057 49.8599 259.398 48.5107Z" fill="black"/>
<path fill-rule="evenodd" clip-rule="evenodd" d="M237.814 48.0052C239.971 47.4539 242.226 48.4403 243.291 50.401L269.4 98.4745C270.687 100.843 269.816 103.809 267.455 105.1C265.095 106.391 262.138 105.517 260.852 103.148L243.884 71.9074V100.811C243.884 103.509 241.705 105.695 239.016 105.695C236.328 105.695 234.148 103.509 234.148 100.811V52.7379C234.148 50.505 235.658 48.5564 237.814 48.0052Z" fill="black"/>
<path fill-rule="evenodd" clip-rule="evenodd" d="M208.781 57.6513V72.2521C210.655 72.2137 212.086 71.9317 213.1 71.4084C213.793 71.0506 214.306 70.571 214.7 69.8094C215.128 68.9816 215.539 67.5716 215.539 65.2127C215.539 60.6931 214.101 59.3272 212.947 58.6777C211.945 58.1137 210.56 57.77 208.781 57.6513ZM208.781 82.0045C211.727 81.9595 214.788 81.4863 217.496 80.0881C219.86 78.8675 221.882 76.9828 223.258 74.323C224.6 71.7294 225.195 68.6609 225.195 65.2127C225.195 58.1182 222.61 52.9557 217.649 50.163C213.251 47.6872 207.886 47.6506 203.537 48.0302C201.041 48.2481 199.125 50.3571 199.125 52.8864V100.822C199.125 103.514 201.286 105.696 203.953 105.696C206.619 105.696 208.781 103.514 208.781 100.822V82.0045Z" fill="black"/>
<path fill-rule="evenodd" clip-rule="evenodd" d="M422.361 48.5107C424.702 47.1615 427.699 47.9562 429.055 50.2857L449.032 84.6047L451.28 52.3909C451.423 50.3402 452.844 48.5993 454.832 48.0389C456.819 47.4786 458.947 48.2192 460.15 49.8904L485.886 85.6449V52.7286C485.886 50.0366 488.079 47.8543 490.784 47.8543C493.49 47.8543 495.683 50.0366 495.683 52.7286V100.822C495.683 102.939 494.309 104.815 492.282 105.462C490.256 106.11 488.041 105.382 486.802 103.66L460.111 66.5787L457.697 101.159C457.548 103.296 456.014 105.086 453.917 105.57C451.819 106.054 449.65 105.118 448.571 103.265L420.577 55.1716C419.222 52.8421 420.02 49.8599 422.361 48.5107Z" fill="black"/>
<path fill-rule="evenodd" clip-rule="evenodd" d="M400.777 48.0052C402.934 47.4539 405.189 48.4403 406.253 50.401L432.363 98.4745C433.65 100.843 432.779 103.809 430.418 105.1C428.057 106.391 425.101 105.517 423.815 103.148L406.847 71.9074V100.811C406.847 103.509 404.668 105.695 401.979 105.695C399.291 105.695 397.111 103.509 397.111 100.811V52.7379C397.111 50.505 398.621 48.5564 400.777 48.0052Z" fill="black"/>
<path fill-rule="evenodd" clip-rule="evenodd" d="M371.731 57.6513V72.2521C373.606 72.2137 375.037 71.9317 376.05 71.4084C376.743 71.0506 377.256 70.571 377.65 69.8094C378.079 68.9816 378.49 67.5716 378.49 65.2127C378.49 60.6931 377.051 59.3272 375.897 58.6777C374.895 58.1137 373.51 57.77 371.731 57.6513ZM371.731 82.0045C374.677 81.9595 377.738 81.4863 380.446 80.0881C382.811 78.8675 384.832 76.9828 386.209 74.323C387.55 71.7294 388.145 68.6609 388.145 65.2127C388.145 58.1182 385.56 52.9557 380.599 50.163C376.201 47.6872 370.837 47.6506 366.487 48.0302C363.991 48.2481 362.075 50.3571 362.075 52.8864V100.822C362.075 103.514 364.237 105.696 366.903 105.696C369.569 105.696 371.731 103.514 371.731 100.822V82.0045Z" fill="black"/>
<path d="M216.785 137.127V142.278H237.933V137.127H216.785ZM216.877 148.73V153.696H236.044V148.73H216.877ZM224.526 131V151.515H229.916V131H224.526ZM213.882 137.127V149.008C213.882 155.785 213.468 165.253 208.814 171.751C210.15 172.262 212.5 173.654 213.468 174.536C218.398 167.527 219.181 156.574 219.181 149.055V137.127H213.882ZM236.643 137.127V137.916C235.998 140.793 234.892 144.367 233.879 146.549L238.671 147.941C239.961 145.388 241.389 141.489 242.449 137.916L238.394 136.941L237.519 137.127H236.643ZM223.189 151.932L218.444 153.278C222.268 163.629 228.765 171.055 238.993 174.582C239.776 173.143 241.343 170.962 242.587 169.848C232.911 167.11 226.323 160.473 223.189 151.932ZM201.718 135.363C204.299 136.802 208.031 139.03 209.828 140.422L213.053 135.92C211.164 134.62 207.34 132.578 204.805 131.325L201.718 135.363ZM199 147.987C201.672 149.38 205.497 151.515 207.294 152.907L210.473 148.266C208.538 146.966 204.667 145.017 202.087 143.857L199 147.987ZM199.922 170.776L204.852 174.118C207.247 169.57 209.735 164.186 211.809 159.219L207.478 155.878C205.128 161.354 202.087 167.203 199.922 170.776ZM234.063 148.73V149.751C231.713 160.426 224.894 166.97 215.725 170.08C216.831 171.055 218.536 173.376 219.227 174.675C228.857 170.962 236.459 163.072 239.592 150.076L236.137 148.591L235.169 148.73H234.063Z" fill="black"/>
<path d="M267.468 137.127V142.278H288.616V137.127H267.468ZM267.56 148.73V153.696H286.727V148.73H267.56ZM275.208 131V151.515H280.599V131H275.208ZM264.565 137.127V149.008C264.565 155.785 264.15 165.253 259.497 171.751C260.833 172.262 263.183 173.654 264.15 174.536C269.08 167.527 269.863 156.574 269.863 149.055V137.127H264.565ZM287.326 137.127V137.916C286.681 140.793 285.575 144.367 284.561 146.549L289.353 147.941C290.643 145.388 292.072 141.489 293.131 137.916L289.077 136.941L288.201 137.127H287.326ZM273.872 151.932L269.126 153.278C272.951 163.629 279.447 171.055 289.676 174.582C290.459 173.143 292.026 170.962 293.27 169.848C283.594 167.11 277.005 160.473 273.872 151.932ZM252.401 135.363C254.981 136.802 258.713 139.03 260.51 140.422L263.736 135.92C261.846 134.62 258.022 132.578 255.488 131.325L252.401 135.363ZM249.683 147.987C252.355 149.38 256.179 151.515 257.976 152.907L261.155 148.266C259.22 146.966 255.35 145.017 252.77 143.857L249.683 147.987ZM250.604 170.776L255.534 174.118C257.93 169.57 260.418 164.186 262.491 159.219L258.16 155.878C255.811 161.354 252.77 167.203 250.604 170.776ZM284.746 148.73V149.751C282.396 160.426 275.577 166.97 266.408 170.08C267.514 171.055 269.218 173.376 269.91 174.675C279.539 170.962 287.142 163.072 290.275 150.076L286.819 148.591L285.852 148.73H284.746Z" fill="black"/>
<path d="M301.794 161.076V165.021H323.311V161.076H301.794ZM300.734 138.983V143.021H323.771V138.983H300.734ZM309.903 135.688V168.966H314.879V135.688H309.903ZM300.503 168.456L301.148 173.097C307.138 172.54 315.524 171.705 323.357 170.869L323.311 166.646C315.017 167.388 306.217 168.038 300.503 168.456ZM306.355 153.65H318.519V155.785H306.355V153.65ZM306.355 148.312H318.519V150.401H306.355V148.312ZM301.932 144.831V159.266H323.08V144.831H301.932ZM320.823 131.278C315.754 132.392 307.737 133.228 300.872 133.553C301.379 134.62 301.886 136.384 302.07 137.498C308.981 137.359 317.367 136.662 323.265 135.456L320.823 131.278ZM323.771 141.536V146.641H339.713V141.536H323.771ZM337.502 141.536V142.743C337.133 160.705 336.765 167.249 335.705 168.641C335.29 169.291 334.829 169.43 334.138 169.43C333.217 169.43 331.466 169.43 329.485 169.245C330.36 170.73 330.959 173.004 331.097 174.536C333.263 174.629 335.428 174.629 336.857 174.35C338.377 174.072 339.437 173.561 340.451 171.983C341.971 169.895 342.34 163.118 342.754 143.996C342.754 143.346 342.8 141.536 342.8 141.536H337.502ZM328.195 131.835C328.148 150.354 328.655 163.35 318.933 170.823C320.177 171.751 321.974 173.654 322.758 175C333.401 166.553 333.447 151.654 333.493 131.835H328.195Z" fill="black"/>
<path d="M373.579 131.046C372.196 137.916 369.616 144.553 365.93 148.637C367.082 149.333 369.247 150.911 370.123 151.747C373.855 147.105 376.896 139.726 378.555 132.021L373.579 131.046ZM389.06 138.287V139.494C388.323 159.219 387.447 166.414 386.157 168.038C385.604 168.688 385.189 168.92 384.498 168.92C383.623 168.92 382.056 168.873 380.352 168.688C381.181 170.219 381.734 172.587 381.872 174.165C383.899 174.257 385.835 174.257 387.125 173.979C388.645 173.7 389.659 173.143 390.718 171.565C392.469 169.245 393.299 161.633 394.174 140.793C394.22 140.097 394.266 138.287 394.266 138.287H389.06ZM374.961 138.287L372.427 143.439H391.41V138.287H374.961ZM378.186 139.958C376.435 147.755 372.381 156.481 367.036 160.705C368.464 161.494 370.215 162.793 371.275 163.861C376.297 159.127 380.352 149.937 382.195 141.954L378.186 139.958ZM384.59 140.468C382.471 152.397 377.725 164.511 369.662 170.312C371.183 171.055 373.118 172.447 374.178 173.561C381.78 167.156 386.664 154.532 388.875 142.464L384.59 140.468ZM351.002 156.342L352.338 161.679C357.222 160.241 363.534 158.338 369.34 156.527L368.602 151.608C362.244 153.418 355.517 155.321 351.002 156.342ZM359.295 131.046V174.629H364.364V131.046H359.295ZM353.213 133.692C352.799 139.215 352.015 145.017 350.541 148.73C351.647 149.287 353.628 150.586 354.457 151.236C356.116 147.105 357.222 140.608 357.821 134.481L353.213 133.692ZM354.457 140.004L353.444 145.342H368.188V140.004H354.457Z" fill="black"/>
<path d="M410.07 170.823V173.747H437.116V170.823H410.07ZM410.07 166.831V169.57H437.116V166.831H410.07ZM403.481 153.418V156.945H443.935V153.418H403.481ZM405.739 158.43V174.629H410.715V161.308H436.425V174.629H441.631V158.43H405.739ZM411.913 135.27C411.314 136.848 410.346 138.426 409.01 139.633C409.794 140.004 411.13 140.84 411.729 141.304C413.065 139.958 414.355 137.962 415.046 136.013L411.913 135.27ZM425.275 140.932V144.089H438.544V140.932H425.275ZM412.051 137.312V139.819H422.28V137.312H412.051ZM409.379 141.211V143.857H423.063V141.211H409.379ZM428.546 132.16V135.873H436.747V132.16H428.546ZM437.577 140.932V141.443C435.688 146.131 430.343 148.73 424.031 149.705C424.768 150.54 425.689 152.072 426.104 153.046C433.43 151.515 439.328 148.405 441.816 141.722L439.189 140.84L438.406 140.932H437.577ZM430.343 143.764L426.242 144.785C429.191 149.705 434.444 152.536 441.954 153.603C442.507 152.397 443.705 150.586 444.672 149.705C437.899 149.101 432.693 147.198 430.343 143.764ZM426.565 132.16V134.527C426.565 136.152 426.058 137.591 422.556 138.844C423.34 139.447 424.952 141.211 425.459 142.139C429.744 140.236 430.758 137.451 430.758 134.713V132.16H426.565ZM434.766 132.16V135.688C434.766 138.008 435.043 138.844 435.688 139.494C436.287 140.19 437.485 140.468 438.452 140.468C439.005 140.468 439.881 140.468 440.433 140.468C441.079 140.468 441.908 140.422 442.415 140.19C443.06 139.911 443.567 139.54 443.843 139.03C444.166 138.565 444.35 137.451 444.488 136.338C443.428 136.013 442.046 135.316 441.309 134.667C441.263 135.456 441.217 136.105 441.125 136.384C441.032 136.709 440.894 136.802 440.756 136.848C440.664 136.941 440.433 136.941 440.249 136.941C440.019 136.941 439.696 136.941 439.512 136.941C439.328 136.941 439.189 136.895 439.097 136.755C438.959 136.616 439.005 136.291 439.005 135.688V132.16H434.766ZM414.724 138.519V141.582C414.724 143.207 414.079 145.435 409.287 146.595C410.07 147.245 411.038 148.312 411.498 149.101C417.073 147.152 418.133 144.089 418.133 141.675V138.519H414.724ZM417.166 155.46V159.637C417.166 161.401 416.244 163.397 410.761 164.325C411.683 165.068 412.788 166.414 413.341 167.342C419.746 165.624 421.358 162.747 421.358 159.684V155.46H417.166ZM425.137 155.414V161.819C425.137 164.835 426.15 165.578 430.251 165.578C431.126 165.578 434.904 165.578 435.78 165.578C438.314 165.578 439.42 165.068 439.696 163.582C438.683 163.443 437.208 163.118 436.379 162.7C436.287 162.979 436.01 163.025 435.227 163.025C434.444 163.025 431.449 163.025 430.85 163.025C429.606 163.025 429.375 162.886 429.375 161.865V155.414H425.137ZM414.954 144.831C416.981 145.992 419.515 147.755 420.805 148.916L422.925 146.688C421.589 145.481 419.009 143.857 416.981 142.789L414.954 144.831ZM423.754 132.578H404.633V152.025H424.123V148.869H408.734V135.734H423.754V132.578Z" fill="black"/>
<path d="M478.86 131.278V138.565H484.251V131.278H478.86ZM468.631 136.152V145.342H473.515V140.886H490.195V145.295H495.309V136.152H468.631ZM472.041 144.646V149.426H491.761V144.646H472.041ZM469.276 152.768V157.734H495.125V152.768H469.276ZM474.483 155.181C474.207 163.257 473.469 167.713 465.13 170.219C466.189 171.241 467.572 173.283 468.032 174.629C477.939 171.287 479.321 165.16 479.736 155.181H474.483ZM482.961 154.624V167.852C482.961 172.633 483.882 174.211 487.937 174.211C488.674 174.211 490.195 174.211 491.024 174.211C494.249 174.211 495.539 172.447 496 165.903C494.618 165.578 492.406 164.696 491.393 163.861C491.3 168.595 491.162 169.338 490.425 169.338C490.102 169.338 489.135 169.338 488.858 169.338C488.259 169.338 488.167 169.152 488.167 167.806V154.624H482.961ZM454.44 133.042V174.675H459.278V138.008H465.314V133.042H454.44ZM463.609 133.042V134.62C462.964 137.591 461.49 143.996 460.2 148.173C462.826 151.283 463.425 154.16 463.425 156.342C463.425 157.641 463.195 158.57 462.642 158.987C462.319 159.266 461.858 159.359 461.352 159.359C460.799 159.405 460.2 159.359 459.37 159.312C460.108 160.658 460.522 162.747 460.568 164.093C461.628 164.093 462.734 164.046 463.563 163.954C464.577 163.814 465.452 163.489 466.189 162.979C467.664 161.958 468.263 160.008 468.263 156.992C468.263 154.3 467.71 151.19 464.853 147.57C466.189 143.949 467.71 138.89 468.908 134.899L465.314 132.857L464.531 133.042H463.609Z" fill="black"/>
</svg>
