<svg width="171" height="74" viewBox="0 0 171 74" fill="none" xmlns="http://www.w3.org/2000/svg">
<path fill-rule="evenodd" clip-rule="evenodd" d="M34.8846 0.774376C36.2238 0.00258233 37.9382 0.457168 38.7139 1.78972L50.1411 21.4215L51.4273 2.994C51.5091 1.82092 52.3218 0.825049 53.4589 0.504499C54.5959 0.183948 55.8128 0.607631 56.5009 1.56363L71.2228 22.0165V3.18718C71.2228 1.64725 72.4774 0.3989 74.025 0.3989C75.5727 0.3989 76.8273 1.64725 76.8273 3.18718V30.6982C76.8273 31.9096 76.0411 32.9825 74.8819 33.3529C73.7227 33.7234 72.4558 33.3066 71.7469 32.3217L56.4787 11.1099L55.098 30.8914C55.0127 32.1139 54.1352 33.1377 52.9355 33.4144C51.7357 33.6912 50.495 33.1561 49.8777 32.0956L33.8641 4.58463C33.0885 3.25208 33.5454 1.54617 34.8846 0.774376Z" fill="white"/>
<path fill-rule="evenodd" clip-rule="evenodd" d="M22.5346 0.485186C23.7682 0.169832 25.058 0.734092 25.6671 1.85568L40.6029 29.3555C41.3388 30.7104 40.8406 32.4073 39.4902 33.1456C38.1398 33.8839 36.4486 33.384 35.7127 32.0292L26.0066 14.1582V30.6923C26.0066 32.2353 24.7599 33.4861 23.2221 33.4861C21.6842 33.4861 20.4375 32.2353 20.4375 30.6923V3.1925C20.4375 1.91519 21.3009 0.800539 22.5346 0.485186Z" fill="white"/>
<path fill-rule="evenodd" clip-rule="evenodd" d="M5.92177 6.00315V14.3553C6.99431 14.3334 7.81286 14.1721 8.39276 13.8727C8.78921 13.668 9.08256 13.3937 9.30798 12.958C9.55296 12.4845 9.78811 11.6779 9.78811 10.3285C9.78811 7.74318 8.96531 6.96183 8.3052 6.59025C7.73205 6.26762 6.93945 6.07103 5.92177 6.00315ZM5.92177 19.9341C7.607 19.9083 9.35802 19.6376 10.9073 18.8378C12.2599 18.1396 13.4164 17.0615 14.2036 15.54C14.9712 14.0563 15.3114 12.301 15.3114 10.3285C15.3114 6.27019 13.8328 3.31707 10.9948 1.71956C8.47879 0.303271 5.41024 0.282348 2.92223 0.499524C1.49453 0.624146 0.398438 1.8306 0.398438 3.27743V30.6984C0.398438 32.2383 1.63488 33.4867 3.16011 33.4867C4.68533 33.4867 5.92177 32.2383 5.92177 30.6984V19.9341Z" fill="white"/>
<path fill-rule="evenodd" clip-rule="evenodd" d="M128.092 0.774376C129.431 0.00258233 131.145 0.457168 131.921 1.78972L143.348 21.4215L144.634 2.994C144.716 1.82092 145.529 0.825049 146.666 0.504499C147.803 0.183948 149.02 0.607631 149.708 1.56363L164.43 22.0165V3.18718C164.43 1.64725 165.684 0.3989 167.232 0.3989C168.78 0.3989 170.034 1.64725 170.034 3.18718V30.6982C170.034 31.9096 169.248 32.9825 168.089 33.3529C166.93 33.7234 165.663 33.3066 164.954 32.3217L149.686 11.1099L148.305 30.8914C148.22 32.1139 147.342 33.1377 146.142 33.4144C144.943 33.6912 143.702 33.1561 143.085 32.0956L127.071 4.58463C126.296 3.25208 126.752 1.54617 128.092 0.774376Z" fill="white"/>
<path fill-rule="evenodd" clip-rule="evenodd" d="M115.742 0.485186C116.975 0.169832 118.265 0.734092 118.874 1.85568L133.81 29.3555C134.546 30.7104 134.048 32.4073 132.697 33.1456C131.347 33.8839 129.656 33.384 128.92 32.0292L119.214 14.1582V30.6923C119.214 32.2353 117.967 33.4861 116.429 33.4861C114.891 33.4861 113.645 32.2353 113.645 30.6923V3.1925C113.645 1.91519 114.508 0.800539 115.742 0.485186Z" fill="white"/>
<path fill-rule="evenodd" clip-rule="evenodd" d="M99.1288 6.00315V14.3553C100.201 14.3334 101.02 14.1721 101.6 13.8727C101.996 13.668 102.29 13.3937 102.515 12.958C102.76 12.4845 102.995 11.6779 102.995 10.3285C102.995 7.74318 102.172 6.96183 101.512 6.59025C100.939 6.26762 100.146 6.07103 99.1288 6.00315ZM99.1288 19.9341C100.814 19.9083 102.565 19.6376 104.114 18.8378C105.467 18.1396 106.623 17.0615 107.411 15.54C108.178 14.0563 108.518 12.301 108.518 10.3285C108.518 6.27019 107.04 3.31707 104.202 1.71956C101.686 0.303271 98.6173 0.282348 96.1293 0.499524C94.7016 0.624146 93.6055 1.8306 93.6055 3.27743V30.6984C93.6055 32.2383 94.8419 33.4867 96.3671 33.4867C97.8924 33.4867 99.1288 32.2383 99.1288 30.6984V19.9341Z" fill="white"/>
<path d="M11.151 46.2507V49.2477H23.544V46.2507H11.151ZM11.205 53.0007V55.8897H22.437V53.0007H11.205ZM15.687 42.6867V54.6207H18.846V42.6867H15.687ZM9.45 46.2507V53.1627C9.45 57.1047 9.207 62.6127 6.48 66.3927C7.263 66.6897 8.64 67.4997 9.207 68.0127C12.096 63.9357 12.555 57.5637 12.555 53.1897V46.2507H9.45ZM22.788 46.2507V46.7097C22.41 48.3837 21.762 50.4627 21.168 51.7317L23.976 52.5417C24.732 51.0567 25.569 48.7887 26.19 46.7097L23.814 46.1427L23.301 46.2507H22.788ZM14.904 54.8637L12.123 55.6467C14.364 61.6677 18.171 65.9877 24.165 68.0397C24.624 67.2027 25.542 65.9337 26.271 65.2857C20.601 63.6927 16.74 59.8317 14.904 54.8637ZM2.322 45.2247C3.834 46.0617 6.021 47.3577 7.074 48.1677L8.964 45.5487C7.857 44.7927 5.616 43.6047 4.131 42.8757L2.322 45.2247ZM0.729 52.5687C2.295 53.3787 4.536 54.6207 5.589 55.4307L7.452 52.7307C6.318 51.9747 4.05 50.8407 2.538 50.1657L0.729 52.5687ZM1.269 65.8257L4.158 67.7697C5.562 65.1237 7.02 61.9917 8.235 59.1027L5.697 57.1587C4.32 60.3447 2.538 63.7467 1.269 65.8257ZM21.276 53.0007V53.5947C19.899 59.8047 15.903 63.6117 10.53 65.4207C11.178 65.9877 12.177 67.3377 12.582 68.0937C18.225 65.9337 22.68 61.3437 24.516 53.7837L22.491 52.9197L21.924 53.0007H21.276ZM39.501 46.2507V49.2477H51.894V46.2507H39.501ZM39.555 53.0007V55.8897H50.787V53.0007H39.555ZM44.037 42.6867V54.6207H47.196V42.6867H44.037ZM37.8 46.2507V53.1627C37.8 57.1047 37.557 62.6127 34.83 66.3927C35.613 66.6897 36.99 67.4997 37.557 68.0127C40.446 63.9357 40.905 57.5637 40.905 53.1897V46.2507H37.8ZM51.138 46.2507V46.7097C50.76 48.3837 50.112 50.4627 49.518 51.7317L52.326 52.5417C53.082 51.0567 53.919 48.7887 54.54 46.7097L52.164 46.1427L51.651 46.2507H51.138ZM43.254 54.8637L40.473 55.6467C42.714 61.6677 46.521 65.9877 52.515 68.0397C52.974 67.2027 53.892 65.9337 54.621 65.2857C48.951 63.6927 45.09 59.8317 43.254 54.8637ZM30.672 45.2247C32.184 46.0617 34.371 47.3577 35.424 48.1677L37.314 45.5487C36.207 44.7927 33.966 43.6047 32.481 42.8757L30.672 45.2247ZM29.079 52.5687C30.645 53.3787 32.886 54.6207 33.939 55.4307L35.802 52.7307C34.668 51.9747 32.4 50.8407 30.888 50.1657L29.079 52.5687ZM29.619 65.8257L32.508 67.7697C33.912 65.1237 35.37 61.9917 36.585 59.1027L34.047 57.1587C32.67 60.3447 30.888 63.7467 29.619 65.8257ZM49.626 53.0007V53.5947C48.249 59.8047 44.253 63.6117 38.88 65.4207C39.528 65.9877 40.527 67.3377 40.932 68.0937C46.575 65.9337 51.03 61.3437 52.866 53.7837L50.841 52.9197L50.274 53.0007H49.626ZM58.266 60.1827V62.4777H70.875V60.1827H58.266ZM57.645 47.3307V49.6797H71.145V47.3307H57.645ZM63.018 45.4137V64.7727H65.934V45.4137H63.018ZM57.51 64.4757L57.888 67.1757C61.398 66.8517 66.312 66.3657 70.902 65.8797L70.875 63.4227C66.015 63.8547 60.858 64.2327 57.51 64.4757ZM60.939 55.8627H68.067V57.1047H60.939V55.8627ZM60.939 52.7577H68.067V53.9727H60.939V52.7577ZM58.347 50.7327V59.1297H70.74V50.7327H58.347ZM69.417 42.8487C66.447 43.4967 61.749 43.9827 57.726 44.1717C58.023 44.7927 58.32 45.8187 58.428 46.4667C62.478 46.3857 67.392 45.9807 70.848 45.2787L69.417 42.8487ZM71.145 48.8157V51.7857H80.487V48.8157H71.145ZM79.191 48.8157V49.5177C78.975 59.9667 78.759 63.7737 78.138 64.5837C77.895 64.9617 77.625 65.0427 77.22 65.0427C76.68 65.0427 75.654 65.0427 74.493 64.9347C75.006 65.7987 75.357 67.1217 75.438 68.0127C76.707 68.0667 77.976 68.0667 78.813 67.9047C79.704 67.7427 80.325 67.4457 80.919 66.5277C81.81 65.3127 82.026 61.3707 82.269 50.2467C82.269 49.8687 82.296 48.8157 82.296 48.8157H79.191ZM73.737 43.1727C73.71 53.9457 74.007 61.5057 68.31 65.8527C69.039 66.3927 70.092 67.4997 70.551 68.2827C76.788 63.3687 76.815 54.7017 76.842 43.1727H73.737ZM98.982 42.7137C98.172 46.7097 96.66 50.5707 94.5 52.9467C95.175 53.3517 96.444 54.2697 96.957 54.7557C99.144 52.0557 100.926 47.7627 101.898 43.2807L98.982 42.7137ZM108.054 46.9257V47.6277C107.622 59.1027 107.109 63.2877 106.353 64.2327C106.029 64.6107 105.786 64.7457 105.381 64.7457C104.868 64.7457 103.95 64.7187 102.951 64.6107C103.437 65.5017 103.761 66.8787 103.842 67.7967C105.03 67.8507 106.164 67.8507 106.92 67.6887C107.811 67.5267 108.405 67.2027 109.026 66.2847C110.052 64.9347 110.538 60.5067 111.051 48.3837C111.078 47.9787 111.105 46.9257 111.105 46.9257H108.054ZM99.792 46.9257L98.307 49.9227H109.431V46.9257H99.792ZM101.682 47.8977C100.656 52.4337 98.28 57.5097 95.148 59.9667C95.985 60.4257 97.011 61.1817 97.632 61.8027C100.575 59.0487 102.951 53.7027 104.031 49.0587L101.682 47.8977ZM105.435 48.1947C104.193 55.1337 101.412 62.1807 96.687 65.5557C97.578 65.9877 98.712 66.7977 99.333 67.4457C103.788 63.7197 106.65 56.3757 107.946 49.3557L105.435 48.1947ZM85.752 57.4287L86.535 60.5337C89.397 59.6967 93.096 58.5897 96.498 57.5367L96.066 54.6747C92.34 55.7277 88.398 56.8347 85.752 57.4287ZM90.612 42.7137V68.0667H93.582V42.7137H90.612ZM87.048 44.2527C86.805 47.4657 86.346 50.8407 85.482 53.0007C86.13 53.3247 87.291 54.0807 87.777 54.4587C88.749 52.0557 89.397 48.2757 89.748 44.7117L87.048 44.2527ZM87.777 47.9247L87.183 51.0297H95.823V47.9247H87.777ZM119.016 65.8527V67.5537H134.865V65.8527H119.016ZM119.016 63.5307V65.1237H134.865V63.5307H119.016ZM115.155 55.7277V57.7797H138.861V55.7277H115.155ZM116.478 58.6437V68.0667H119.394V60.3177H134.46V68.0667H137.511V58.6437H116.478ZM120.096 45.1707C119.745 46.0887 119.178 47.0067 118.395 47.7087C118.854 47.9247 119.637 48.4107 119.988 48.6807C120.771 47.8977 121.527 46.7367 121.932 45.6027L120.096 45.1707ZM127.926 48.4647V50.3007H135.702V48.4647H127.926ZM120.177 46.3587V47.8167H126.171V46.3587H120.177ZM118.611 48.6267V50.1657H126.63V48.6267H118.611ZM129.843 43.3617V45.5217H134.649V43.3617H129.843ZM135.135 48.4647V48.7617C134.028 51.4887 130.896 53.0007 127.197 53.5677C127.629 54.0537 128.169 54.9447 128.412 55.5117C132.705 54.6207 136.161 52.8117 137.619 48.9237L136.08 48.4107L135.621 48.4647H135.135ZM130.896 50.1117L128.493 50.7057C130.221 53.5677 133.299 55.2147 137.7 55.8357C138.024 55.1337 138.726 54.0807 139.293 53.5677C135.324 53.2167 132.273 52.1097 130.896 50.1117ZM128.682 43.3617V44.7387C128.682 45.6837 128.385 46.5207 126.333 47.2497C126.792 47.6007 127.737 48.6267 128.034 49.1667C130.545 48.0597 131.139 46.4397 131.139 44.8467V43.3617H128.682ZM133.488 43.3617V45.4137C133.488 46.7637 133.65 47.2497 134.028 47.6277C134.379 48.0327 135.081 48.1947 135.648 48.1947C135.972 48.1947 136.485 48.1947 136.809 48.1947C137.187 48.1947 137.673 48.1677 137.97 48.0327C138.348 47.8707 138.645 47.6547 138.807 47.3577C138.996 47.0877 139.104 46.4397 139.185 45.7917C138.564 45.6027 137.754 45.1977 137.322 44.8197C137.295 45.2787 137.268 45.6567 137.214 45.8187C137.16 46.0077 137.079 46.0617 136.998 46.0887C136.944 46.1427 136.809 46.1427 136.701 46.1427C136.566 46.1427 136.377 46.1427 136.269 46.1427C136.161 46.1427 136.08 46.1157 136.026 46.0347C135.945 45.9537 135.972 45.7647 135.972 45.4137V43.3617H133.488ZM121.743 47.0607V48.8427C121.743 49.7877 121.365 51.0837 118.557 51.7587C119.016 52.1367 119.583 52.7577 119.853 53.2167C123.12 52.0827 123.741 50.3007 123.741 48.8967V47.0607H121.743ZM123.174 56.9157V59.3457C123.174 60.3717 122.634 61.5327 119.421 62.0727C119.961 62.5047 120.609 63.2877 120.933 63.8277C124.686 62.8287 125.631 61.1547 125.631 59.3727V56.9157H123.174ZM127.845 56.8887V60.6147C127.845 62.3697 128.439 62.8017 130.842 62.8017C131.355 62.8017 133.569 62.8017 134.082 62.8017C135.567 62.8017 136.215 62.5047 136.377 61.6407C135.783 61.5597 134.919 61.3707 134.433 61.1277C134.379 61.2897 134.217 61.3167 133.758 61.3167C133.299 61.3167 131.544 61.3167 131.193 61.3167C130.464 61.3167 130.329 61.2357 130.329 60.6417V56.8887H127.845ZM121.878 50.7327C123.066 51.4077 124.551 52.4337 125.307 53.1087L126.549 51.8127C125.766 51.1107 124.254 50.1657 123.066 49.5447L121.878 50.7327ZM127.035 43.6047H115.83V54.9177H127.251V53.0817H118.233V45.4407H127.035V43.6047ZM157.977 42.8487V47.0877H161.136V42.8487H157.977ZM151.983 45.6837V51.0297H154.845V48.4377H164.619V51.0027H167.616V45.6837H151.983ZM153.981 50.6247V53.4057H165.537V50.6247H153.981ZM152.361 55.3497V58.2387H167.508V55.3497H152.361ZM155.412 56.7537C155.25 61.4517 154.818 64.0437 149.931 65.5017C150.552 66.0957 151.362 67.2837 151.632 68.0667C157.437 66.1227 158.247 62.5587 158.49 56.7537H155.412ZM160.38 56.4297V64.1247C160.38 66.9057 160.92 67.8237 163.296 67.8237C163.728 67.8237 164.619 67.8237 165.105 67.8237C166.995 67.8237 167.751 66.7977 168.021 62.9907C167.211 62.8017 165.915 62.2887 165.321 61.8027C165.267 64.5567 165.186 64.9887 164.754 64.9887C164.565 64.9887 163.998 64.9887 163.836 64.9887C163.485 64.9887 163.431 64.8807 163.431 64.0977V56.4297H160.38ZM143.667 43.8747V68.0937H146.502V46.7637H150.039V43.8747H143.667ZM149.04 43.8747V44.7927C148.662 46.5207 147.798 50.2467 147.042 52.6767C148.581 54.4857 148.932 56.1597 148.932 57.4287C148.932 58.1847 148.797 58.7247 148.473 58.9677C148.284 59.1297 148.014 59.1837 147.717 59.1837C147.393 59.2107 147.042 59.1837 146.556 59.1567C146.988 59.9397 147.231 61.1547 147.258 61.9377C147.879 61.9377 148.527 61.9107 149.013 61.8567C149.607 61.7757 150.12 61.5867 150.552 61.2897C151.416 60.6957 151.767 59.5617 151.767 57.8067C151.767 56.2407 151.443 54.4317 149.769 52.3257C150.552 50.2197 151.443 47.2767 152.145 44.9547L150.039 43.7667L149.58 43.8747H149.04Z" fill="white"/>
</svg>
