<svg width="169" height="195" viewBox="0 0 169 195" fill="none" xmlns="http://www.w3.org/2000/svg">
<path d="M147.5 195H5.5L8 151L13 95.5L28 62.5L37 50.5L47.5 45L61.5 40.5L66 35.5L76 30L87.5 28L106.5 35.5L115.5 40.5H128L136.5 45L144.5 57.5L161.5 70.5L165 97.5L149.5 133L147.5 195Z" fill="#CB5656"/>
<path fill-rule="evenodd" clip-rule="evenodd" d="M60.7985 38.0121C52.4403 36.8006 45.3917 37.7054 39.1189 41.3497C32.3903 45.2588 27.1716 51.9799 22.0986 60.8168C13.2406 76.2469 7.50932 101.092 4.28949 125.51C1.05304 150.054 0.261478 174.924 1.66533 190.81C1.8754 193.187 3.97272 194.944 6.34983 194.734C8.72694 194.524 10.4837 192.426 10.2736 190.049C8.94087 174.968 9.67666 150.759 12.8571 126.64C16.0542 102.394 21.6295 78.9915 29.5932 65.1192C34.4486 56.6614 38.7359 51.5666 43.4601 48.822C48.0053 46.1814 53.5565 45.3805 61.77 46.9353C67.5846 48.036 72.7162 51.9063 75.3123 59.9666C76.0439 62.238 78.4783 63.4863 80.7498 62.7547C83.0212 62.0232 84.2696 59.5887 83.538 57.3172C80.9486 49.2777 76.1621 43.7709 70.1833 40.742C72.6427 38.4593 75.7 36.1388 79.0193 34.2861C84.7488 31.0881 90.2734 29.8172 94.5006 31.2008C101.49 33.4883 105.345 37.6001 107.574 42.3373C107.846 42.9176 108.096 43.5102 108.324 44.1134C108.345 44.1733 108.368 44.2328 108.391 44.292C110.043 48.7542 110.536 53.7811 110.536 58.6419C110.536 61.0283 112.47 62.9628 114.857 62.9628C117.243 62.9628 119.178 61.0283 119.178 58.6419C119.178 54.2942 118.831 49.3314 117.502 44.4443C119.003 43.5439 120.595 42.8362 122.27 42.5656C124.62 42.1862 127.659 42.5807 131.436 45.925C135.374 49.4113 137.398 54.3598 138.236 59.3564C138.985 63.8268 138.719 67.9777 138.266 70.3582C137.819 72.7024 139.358 74.9648 141.702 75.4113C144.046 75.8578 146.309 74.3194 146.755 71.9752C147.093 70.2037 147.334 67.9097 147.347 65.3187C149.617 66.5943 151.983 68.3092 154.061 70.5013C158.035 74.6933 160.984 80.6333 160.243 88.9302C158.609 107.232 149.414 122.51 145.219 127.622C144.585 128.395 144.239 129.364 144.239 130.363V186.103C144.239 188.489 146.173 190.424 148.56 190.424C150.946 190.424 152.881 188.489 152.881 186.103V131.855C158.134 124.895 167.14 108.858 168.851 89.6988C169.838 78.638 165.798 70.321 160.332 64.5558C155.915 59.8957 150.587 56.9076 146.228 55.3023C144.923 49.8183 142.254 43.9606 137.165 39.4547C131.609 34.5357 126.005 33.2087 120.893 34.0343C118.376 34.4407 116.125 35.3486 114.205 36.3796C110.867 30.586 105.486 25.7033 97.1888 22.9877C89.5327 20.4818 81.3023 23.1149 74.8075 26.7401C69.2236 29.8568 64.1971 34.1018 60.7985 38.0121Z" fill="white"/>
<path d="M125.76 75.2246C116.427 75.2246 115.012 88.3151 115.39 98.1254C115.738 107.174 121.612 118.866 125.76 118.866C129.908 118.866 132.385 109.936 133.106 105.471C134.546 95.3888 135.093 75.2246 125.76 75.2246Z" fill="white"/>
<path d="M148.229 98.1254C142.007 98.1254 143.015 115.697 144.455 125.347C144.455 125.347 153.961 115.483 153.961 107.631C153.961 105.471 154.451 98.1254 148.229 98.1254Z" fill="white"/>
<path fill-rule="evenodd" clip-rule="evenodd" d="M120.22 84.0715C118.94 87.9807 118.662 93.2138 118.846 97.9923C118.997 101.926 120.383 106.629 122.242 110.341C123.168 112.189 124.133 113.632 124.983 114.556C125.348 114.952 125.615 115.172 125.783 115.292C125.843 115.239 125.917 115.167 126.004 115.072C126.474 114.556 127.015 113.68 127.556 112.45C128.623 110.025 129.357 107.001 129.69 104.95C130.383 100.079 130.838 92.8831 130.049 87.0287C129.649 84.0642 128.971 81.7752 128.092 80.3215C127.292 78.9998 126.563 78.681 125.762 78.681C124.333 78.681 123.348 79.1458 122.544 79.9176C121.657 80.7679 120.855 82.1338 120.22 84.0715ZM125.578 115.439C125.578 115.439 125.585 115.435 125.598 115.431C125.585 115.438 125.578 115.44 125.578 115.439ZM117.758 74.9284C119.832 72.9391 122.524 71.7676 125.762 71.7676C129.627 71.7676 132.329 73.9693 134.007 76.7435C135.605 79.3857 136.45 82.7678 136.9 86.1047C137.809 92.8403 137.274 100.749 136.529 105.96C136.528 105.973 136.526 105.986 136.524 105.998C136.522 106.006 136.521 106.014 136.52 106.021C136.131 108.435 135.267 112.091 133.884 115.235C133.197 116.796 132.296 118.431 131.113 119.729C129.932 121.024 128.143 122.322 125.762 122.322C123.202 122.322 121.183 120.635 119.898 119.239C118.469 117.687 117.166 115.642 116.061 113.437C113.859 109.04 112.134 103.374 111.937 98.258C111.744 93.2262 111.984 87.0089 113.65 81.9202C114.489 79.3589 115.766 76.8391 117.758 74.9284ZM144.457 125.347L146.946 127.745C146.032 128.694 144.659 129.04 143.404 128.639C142.15 128.239 141.232 127.16 141.038 125.857C140.299 120.911 139.654 113.84 140.02 107.904C140.201 104.979 140.642 102.017 141.628 99.6787C142.601 97.3722 144.604 94.6684 148.231 94.6684C150.522 94.6684 152.493 95.3678 154.022 96.7005C155.489 97.9787 156.285 99.6077 156.731 101.041C157.488 103.475 157.443 106.149 157.424 107.284C157.421 107.424 157.419 107.541 157.419 107.631C157.419 112.7 154.468 117.896 152.056 121.395C150.784 123.24 149.52 124.812 148.575 125.923C148.101 126.48 147.703 126.926 147.419 127.237C147.278 127.392 147.164 127.514 147.084 127.6C147.043 127.643 147.011 127.677 146.988 127.701L146.96 127.73L146.951 127.74L146.947 127.744C146.946 127.745 146.946 127.745 144.457 125.347ZM146.92 108.33C146.763 110.881 146.818 113.731 146.996 116.527C149.021 113.409 150.506 110.157 150.506 107.631C150.506 107.458 150.507 107.278 150.509 107.094C150.518 105.849 150.529 104.381 150.129 103.095C149.92 102.422 149.672 102.079 149.48 101.913C149.362 101.81 149.097 101.616 148.417 101.586C148.325 101.701 148.181 101.931 147.999 102.364C147.469 103.622 147.086 105.656 146.92 108.33ZM148.528 101.485C148.529 101.492 148.506 101.517 148.456 101.54C148.502 101.49 148.527 101.479 148.528 101.485Z" fill="white"/>
<path d="M58.7879 86.8928C56.1954 91.2137 57.5202 100.834 54.0345 107.633C45.3947 124.484 57.9226 133.129 66.5644 131.4C75.2062 129.672 78.2308 104.611 72.6137 90.7838C66.9965 76.9569 61.3805 82.5718 58.7879 86.8928Z" fill="white"/>
<path d="M106.318 96.3983C104.935 114.719 95.3716 115.554 90.7626 113.682C81.6887 108.498 86.0096 94.2378 90.7626 76.09C95.5156 57.9422 108.046 73.4975 106.318 96.3983Z" fill="white"/>
<path fill-rule="evenodd" clip-rule="evenodd" d="M103.691 68.7194C107.926 74.1273 110.665 84.7212 109.764 96.6582C109.035 106.314 106.084 112.305 101.771 115.416C97.4432 118.538 92.5863 118.154 89.4605 116.884C89.3183 116.827 89.18 116.759 89.0467 116.683C82.6911 113.052 81.5599 106.322 82.1316 99.4601C82.6435 93.3171 84.6072 85.8738 86.6852 77.997C86.9285 77.0748 87.1733 76.1467 87.4176 75.214C88.0671 72.7339 88.8971 70.6348 89.9366 68.9767C90.9693 67.3295 92.3416 65.9123 94.1421 65.1828C98.182 63.5458 101.647 66.109 103.691 68.7194ZM95.7942 72.6489C95.2455 73.5241 94.6441 74.9088 94.1054 76.9656C93.8654 77.8822 93.628 78.7837 93.3946 79.6701C91.2725 87.7284 89.4792 94.5381 89.0212 100.034C88.5256 105.981 89.696 108.974 92.2726 110.56C93.751 111.091 95.8651 111.152 97.7268 109.809C99.6935 108.39 102.216 104.803 102.87 96.138C103.697 85.1742 101.035 76.5401 98.2482 72.982C97.5799 72.1287 97.06 71.769 96.7905 71.6459C96.7521 71.6283 96.7222 71.6171 96.7004 71.6099C96.591 71.6736 96.2555 71.9129 95.7942 72.6489ZM96.6551 71.5981C96.6551 71.5981 96.6558 71.5981 96.6573 71.5984ZM63.6156 86.2547C62.9513 86.8776 62.304 87.7493 61.751 88.671C61.4266 89.2116 61.1129 90.1314 60.8411 91.6205C60.6072 92.9023 60.4471 94.3343 60.2625 95.9859C60.2356 96.2263 60.2082 96.4713 60.18 96.7213C59.7596 100.443 59.182 105.167 57.1095 109.21C53.2385 116.76 54.4375 121.634 56.5526 124.37C58.8663 127.362 62.8271 128.622 65.8854 128.011C66.466 127.894 67.6063 127.203 68.8554 124.717C70.0396 122.36 70.975 119.035 71.5109 115.156C72.5891 107.351 71.9262 98.2782 69.41 92.0847C68.0883 88.8313 66.8983 87.0703 66.0087 86.1849C65.5826 85.7608 65.2808 85.5932 65.1244 85.5281C64.9857 85.4703 64.9147 85.472 64.8708 85.4759C64.7344 85.488 64.308 85.6053 63.6156 86.2547ZM70.8856 81.2847C72.7098 83.1003 74.3282 85.8225 75.8151 89.4826C78.9162 97.1159 79.5495 107.487 78.3593 116.102C77.7609 120.433 76.6709 124.561 75.033 127.821C73.46 130.952 70.9816 134.042 67.2412 134.79C61.6577 135.906 55.0337 133.708 51.083 128.598C46.9337 123.231 46.1886 115.357 50.9575 106.055C52.3706 103.299 52.8734 99.8133 53.3102 95.9455C53.3367 95.7109 53.3631 95.4739 53.3897 95.2353C53.5704 93.614 53.7596 91.9164 54.04 90.3795C54.3579 88.6371 54.8508 86.734 55.8227 85.1141C56.5659 83.8754 57.5929 82.4249 58.8863 81.2118C60.1516 80.0252 61.9664 78.7928 64.2602 78.5894C66.7187 78.3715 68.9843 79.3924 70.8856 81.2847Z" fill="white"/>
<path d="M107.181 124.051C100.268 124.051 86.4407 145.079 80.3915 155.593C72.6849 168.988 74.5149 184.976 89.0332 184.976C103.551 184.976 107.181 178.062 111.07 174.173C114.641 181.087 121.987 185.272 125.329 184.976C136.998 183.939 136.563 165.387 131.378 155.593C126.193 145.079 114.095 124.051 107.181 124.051Z" fill="white"/>
<path fill-rule="evenodd" clip-rule="evenodd" d="M96.1982 137.992C91.2454 144.403 86.3623 152.148 83.3882 157.317C79.8327 163.497 78.6884 169.945 79.7467 174.53C80.2636 176.769 81.2717 178.456 82.6606 179.59C84.035 180.712 86.0594 181.519 89.0337 181.519C95.6891 181.519 99.519 179.952 102.075 178.188C103.395 177.276 104.475 176.243 105.5 175.144C105.825 174.796 106.206 174.368 106.608 173.918C107.281 173.162 108.012 172.343 108.626 171.729C109.406 170.949 110.512 170.588 111.602 170.757C112.692 170.927 113.635 171.606 114.142 172.586C115.626 175.461 117.939 177.83 120.256 179.438C121.409 180.237 122.502 180.806 123.415 181.151C124.389 181.519 124.917 181.542 125.024 181.532C126.912 181.364 128.195 180.547 129.155 179.258C130.193 177.866 130.934 175.793 131.241 173.166C131.861 167.872 130.589 161.489 128.324 157.21C128.308 157.181 128.293 157.152 128.278 157.122C125.734 151.962 121.496 144.234 117.084 137.843C114.87 134.636 112.693 131.885 110.735 129.974C109.757 129.018 108.915 128.354 108.228 127.947C107.891 127.746 107.63 127.631 107.442 127.568C107.267 127.51 107.186 127.507 107.182 127.507C107.177 127.507 107.081 127.51 106.875 127.577C106.661 127.647 106.369 127.772 105.997 127.982C105.242 128.41 104.32 129.096 103.248 130.065C101.104 132.002 98.6823 134.777 96.1982 137.992ZM102.59 121.967C103.904 121.223 105.481 120.594 107.182 120.594C108.899 120.594 110.465 121.234 111.759 122.003C113.077 122.786 114.356 123.847 115.565 125.027C117.982 127.387 120.45 130.55 122.773 133.915C127.422 140.649 131.815 148.667 134.458 154.021C137.362 159.534 138.889 167.3 138.108 173.97C137.714 177.335 136.699 180.706 134.698 183.39C132.62 186.177 129.582 188.068 125.635 188.418C124.071 188.557 122.427 188.168 120.972 187.619C119.456 187.046 117.864 186.192 116.316 185.118C114.345 183.751 112.349 181.959 110.621 179.79C110.6 179.813 110.578 179.835 110.557 179.859C109.353 181.15 107.89 182.574 106.002 183.877C102.141 186.542 96.8967 188.432 89.0337 188.432C84.7489 188.432 81.1002 187.24 78.2891 184.946C75.4924 182.663 73.8024 179.516 73.0104 176.085C71.4507 169.327 73.2447 161.084 77.3958 153.869L80.3279 155.556L77.3958 153.869C80.4709 148.524 85.526 140.498 90.7273 133.766C93.3202 130.409 96.0295 127.27 98.612 124.936C99.9029 123.769 101.242 122.73 102.59 121.967Z" fill="white"/>
</svg>
