<svg width="278" height="150" viewBox="0 0 278 150" fill="none" xmlns="http://www.w3.org/2000/svg">
<path fill-rule="evenodd" clip-rule="evenodd" d="M0.763672 0H277.764V120H258.682L238.764 150L218.845 120H0.763672V0ZM72.6757 23.788H70.3717V28.468C70.3717 28.7495 70.3704 29.0377 70.3676 29.332H72.6757V23.788ZM72.6757 20.188H70.3717H68.2117H66.5197V28.432C66.5197 33.868 66.2317 41.788 62.9197 47.26C63.8917 47.62 65.6197 48.556 66.3757 49.168C66.9166 48.2455 67.3864 47.2456 67.7941 46.1923C68.5661 46.9777 69.5405 48.293 70.0117 49.168C71.863 48.0927 73.547 46.7546 75.0396 45.1431C76.5363 46.8342 78.3184 48.2146 80.4517 49.24C81.0277 48.16 82.1797 46.648 83.0797 45.892C80.868 44.9968 79.027 43.6491 77.5092 41.9527C79.5779 38.7497 81.0869 34.7865 81.9277 30.016L79.5157 29.224L78.8317 29.332H78.1477H76.5277V23.788H78.3487C78.125 24.7691 77.8896 25.6998 77.6797 26.452L80.5597 27.928C81.3157 26.092 82.1437 23.356 82.7557 20.944L80.1277 19.972L79.5517 20.188H78.9757H76.5277V15.544H72.6757V20.188ZM77.5398 32.752H72.8169C73.3979 34.8614 74.1623 36.8276 75.1391 38.5871C76.1441 36.8265 76.9578 34.8631 77.5398 32.752ZM72.756 41.9731C71.6614 40.1124 70.7754 38.0117 70.0473 35.7049C69.7178 39.133 69.0824 42.7406 67.9061 45.8972C69.6938 44.9561 71.3303 43.6209 72.756 41.9731ZM63.1717 22.708C62.4517 21.448 60.7957 19.468 59.5357 17.992L62.3077 16.048C63.6037 17.38 65.2957 19.288 66.1237 20.476L63.1717 22.708ZM59.3557 27.9174V18.712H53.7037H52.5157H49.9957V44.596H53.7037V41.536H59.3557V28.4395C60.6876 29.8064 62.3669 31.5399 63.1717 32.68L66.0517 30.268C65.0797 29.116 63.1717 27.28 61.7677 26.02L59.3557 27.9174ZM53.7037 38.08V22.096H55.6117V38.08H53.7037ZM61.7317 48.556L58.0597 46.9C59.1397 44.128 60.5437 39.664 61.5157 35.632L64.7917 37.288C63.9277 41.068 62.8117 45.208 61.7317 48.556ZM115.876 23.788H113.572V28.468C113.572 28.7495 113.57 29.0377 113.568 29.332H115.876V23.788ZM115.876 20.188H113.572H111.412H109.72V28.432C109.72 33.868 109.432 41.788 106.12 47.26C107.092 47.62 108.82 48.556 109.576 49.168C110.117 48.2455 110.586 47.2456 110.994 46.1923C111.766 46.9777 112.741 48.293 113.212 49.168C115.063 48.0927 116.747 46.7546 118.24 45.1431C119.736 46.8342 121.518 48.2146 123.652 49.24C124.228 48.16 125.38 46.648 126.28 45.892C124.068 44.9968 122.227 43.6491 120.709 41.9527C122.778 38.7497 124.287 34.7865 125.128 30.016L122.716 29.224L122.032 29.332H121.348H119.728V23.788H121.549C121.325 24.7691 121.09 25.6998 120.88 26.452L123.76 27.928C124.516 26.092 125.344 23.356 125.956 20.944L123.328 19.972L122.752 20.188H122.176H119.728V15.544H115.876V20.188ZM120.74 32.752H116.017C116.598 34.8614 117.362 36.8276 118.339 38.5871C119.344 36.8265 120.158 34.8631 120.74 32.752ZM115.956 41.9731C114.861 40.1124 113.975 38.0117 113.247 35.7048C112.918 39.133 112.282 42.7406 111.106 45.8972C112.894 44.9561 114.53 43.6209 115.956 41.9731ZM106.372 22.708C105.652 21.448 103.996 19.468 102.736 17.992L105.508 16.048C106.804 17.38 108.496 19.288 109.324 20.476L106.372 22.708ZM102.556 27.9174V18.712H96.9037H95.7157H93.1957V44.596H96.9037V41.536H102.556V28.4395C103.888 29.8064 105.567 31.5399 106.372 32.68L109.252 30.268C108.28 29.116 106.372 27.28 104.968 26.02L102.556 27.9174ZM96.9037 38.08V22.096H98.8117V38.08H96.9037ZM104.932 48.556L101.26 46.9C102.34 44.128 103.744 39.664 104.716 35.632L107.992 37.288C107.128 41.068 106.012 45.208 104.932 48.556ZM136.252 41.788V38.728H142.588V37.324H136.36V26.128H142.588V24.724H135.424V21.592H142.588V20.1582C140.495 20.3067 138.407 20.4012 136.468 20.44C136.324 19.576 135.928 18.208 135.532 17.38C140.896 17.128 147.16 16.48 151.12 15.616L153.028 18.856C151.107 19.2462 148.848 19.5676 146.476 19.8175V21.592H153.424V23.572H156.851C156.873 21.8592 156.875 20.0695 156.876 18.2029C156.877 17.4956 156.878 16.7773 156.88 16.048H161.02C161.014 18.6689 161.007 21.1789 160.96 23.572H164.152H165.88H168.292C168.292 23.572 168.256 24.976 168.256 25.48C167.932 40.312 167.644 45.568 166.456 47.188C165.664 48.412 164.836 48.808 163.648 49.024C162.532 49.24 160.84 49.24 159.148 49.168C159.04 47.98 158.572 46.216 157.888 45.064C159.436 45.208 160.804 45.208 161.524 45.208C162.064 45.208 162.424 45.1 162.748 44.596C163.513 43.598 163.817 39.1882 164.086 27.532H160.833C160.373 37.2392 158.725 44.727 152.632 49.528C152.107 48.6333 151.001 47.4213 150.084 46.6398C144.894 47.1774 139.665 47.6904 135.748 48.052L135.244 44.452C137.279 44.3043 139.816 44.1191 142.588 43.9068V41.788H136.252ZM146.476 41.788V43.6024C148.553 43.4359 150.688 43.2581 152.786 43.0726C155.606 39.1567 156.477 33.9765 156.749 27.532H153.424V24.724H146.476V26.128H152.884V37.324H146.476V38.728H153.064V41.788H146.476ZM146.476 34.624H149.32V32.968H146.476V34.624ZM146.476 30.448H149.32V28.828H146.476V30.448ZM142.588 28.828V30.448H139.816V28.828H142.588ZM142.588 32.968V34.624H139.816V32.968H142.588ZM189.964 29.08C192.844 25.912 194.86 20.764 195.94 15.436L199.828 16.192C199.469 17.8445 199.028 19.4777 198.516 21.052H208.036H209.872H212.104C212.104 21.052 212.068 22.456 212.032 22.996C211.348 39.16 210.7 45.064 209.332 46.864C208.504 48.088 207.712 48.52 206.524 48.736C205.516 48.952 204.004 48.952 202.42 48.88C202.312 47.656 201.88 45.82 201.232 44.632C202.564 44.776 203.788 44.812 204.472 44.812C205.012 44.812 205.336 44.632 205.768 44.128C206.705 42.9558 207.363 38.045 207.914 25.048H207.748C205.957 34.1752 202.188 43.5776 196.408 48.412C195.58 47.548 194.068 46.468 192.88 45.892C198.657 41.7655 202.254 33.5221 204.089 25.048H202.387C200.839 30.9517 197.822 37.4418 194.14 40.888C193.312 40.06 191.944 39.052 190.828 38.44C194.39 35.6455 197.219 30.31 198.822 25.048H197.005C195.914 27.5473 194.639 29.7642 193.24 31.492C192.556 30.844 190.864 29.62 189.964 29.08ZM179.344 39.196L178.3 35.056C180.099 34.652 182.348 34.0701 184.78 33.4105V26.524H182.346C181.964 28.25 181.516 29.8189 181 31.096C180.352 30.592 178.804 29.584 177.94 29.152C179.092 26.272 179.704 21.772 180.028 17.488L183.628 18.1C183.488 19.5212 183.312 20.9681 183.101 22.384H184.78V15.436H188.74V22.384H191.728V26.524H188.74V32.3166C189.843 32.0077 190.954 31.6941 192.052 31.384L192.628 35.2C191.352 35.5949 190.045 35.9955 188.74 36.3922V49.24H184.78V37.5867C182.841 38.1669 180.989 38.7149 179.344 39.196ZM234.64 42.256C234.64 46.324 231.976 49.636 227.512 50.968L226.36 48.088C229.161 47.1877 230.788 45.608 231.013 43.7493C230.891 43.7618 230.768 43.768 230.644 43.768C228.844 43.768 227.188 42.616 227.188 40.528C227.188 38.512 228.808 37.288 230.752 37.288C233.272 37.288 234.64 39.232 234.64 42.256ZM49.8517 90.788V87.728H56.1877V86.324H49.9597V75.128H56.1877V73.724H49.0237V70.592H56.1877V69.1582C54.0947 69.3067 52.0069 69.4012 50.0677 69.44C49.9237 68.576 49.5277 67.208 49.1317 66.38C54.4957 66.128 60.7597 65.48 64.7197 64.616L66.6277 67.856C64.7067 68.2462 62.448 68.5676 60.0757 68.8175V70.592H67.0237V72.572H70.4508C70.4728 70.8592 70.4746 69.0696 70.4764 67.2029C70.4771 66.4957 70.4778 65.7774 70.4797 65.048H74.6197C74.6135 67.6689 74.6074 70.1789 74.5602 72.572H77.7517H79.4797H81.8917C81.8917 72.572 81.8557 73.976 81.8557 74.48C81.5317 89.312 81.2437 94.568 80.0557 96.188C79.2637 97.412 78.4357 97.808 77.2477 98.024C76.1317 98.24 74.4397 98.24 72.7477 98.168C72.6397 96.98 72.1717 95.216 71.4877 94.064C73.0357 94.208 74.4037 94.208 75.1237 94.208C75.6637 94.208 76.0237 94.1 76.3477 93.596C77.1128 92.598 77.4168 88.1882 77.6858 76.532H74.4328C73.9731 86.2392 72.3253 93.727 66.2317 98.528C65.7072 97.6333 64.6011 96.4213 63.6836 95.6398C58.4942 96.1774 53.2651 96.6904 49.3477 97.052L48.8437 93.452C50.879 93.3043 53.4157 93.1191 56.1877 92.9068V90.788H49.8517ZM60.0757 90.788V92.6024C62.1532 92.4359 64.2883 92.2581 66.3863 92.0726C69.2058 88.1567 70.0765 82.9765 70.349 76.532H67.0237V73.724H60.0757V75.128H66.4837V86.324H60.0757V87.728H66.6637V90.788H60.0757ZM60.0757 83.624H62.9197V81.968H60.0757V83.624ZM60.0757 79.448H62.9197V77.828H60.0757V79.448ZM56.1877 77.828V79.448H53.4157V77.828H56.1877ZM56.1877 81.968V83.624H53.4157V81.968H56.1877ZM103.564 78.08C106.444 74.912 108.46 69.764 109.54 64.436L113.428 65.192C113.069 66.8445 112.628 68.4777 112.116 70.052H121.636H123.472H125.704C125.704 70.052 125.668 71.456 125.632 71.996C124.948 88.16 124.3 94.064 122.932 95.864C122.104 97.088 121.312 97.52 120.124 97.736C119.116 97.952 117.604 97.952 116.02 97.88C115.912 96.656 115.48 94.82 114.832 93.632C116.164 93.776 117.388 93.812 118.072 93.812C118.612 93.812 118.936 93.632 119.368 93.128C120.305 91.9558 120.963 87.045 121.514 74.048H121.348C119.557 83.1752 115.788 92.5776 110.008 97.412C109.18 96.548 107.668 95.468 106.48 94.892C112.257 90.7655 115.854 82.5221 117.689 74.048H115.987C114.439 79.9517 111.422 86.4418 107.74 89.888C106.912 89.06 105.544 88.052 104.428 87.44C107.99 84.6455 110.819 79.31 112.422 74.048H110.605C109.514 76.5473 108.239 78.7642 106.84 80.492C106.156 79.844 104.464 78.62 103.564 78.08ZM92.9437 88.196L91.8997 84.056C93.6993 83.652 95.9484 83.0701 98.3797 82.4105V75.524H95.9458C95.5642 77.25 95.1163 78.8189 94.5997 80.096C93.9517 79.592 92.4037 78.584 91.5397 78.152C92.6917 75.272 93.3037 70.772 93.6277 66.488L97.2277 67.1C97.0877 68.5212 96.9123 69.9681 96.7006 71.384H98.3797V64.436H102.34V71.384H105.328V75.524H102.34V81.3166C103.443 81.0077 104.554 80.6941 105.652 80.384L106.228 84.2C104.952 84.5949 103.645 84.9955 102.34 85.3922V98.24H98.3797V86.5867C96.441 87.1669 94.5887 87.7149 92.9437 88.196ZM159.076 72.788H156.772V77.468C156.772 77.7495 156.77 78.0377 156.768 78.332H159.076V72.788ZM159.076 69.188H156.772H154.612H152.92V77.432C152.92 82.868 152.632 90.788 149.32 96.26C150.292 96.62 152.02 97.556 152.776 98.168C153.317 97.2455 153.786 96.2456 154.194 95.1923C154.966 95.9777 155.941 97.293 156.412 98.168C158.263 97.0927 159.947 95.7546 161.44 94.1431C162.936 95.8342 164.718 97.2146 166.852 98.24C167.428 97.16 168.58 95.648 169.48 94.892C167.268 93.9968 165.427 92.6491 163.909 90.9527C165.978 87.7497 167.487 83.7866 168.328 79.016L165.916 78.224L165.232 78.332H164.548H162.928V72.788H164.749C164.525 73.7691 164.29 74.6998 164.08 75.452L166.96 76.928C167.716 75.092 168.544 72.356 169.156 69.944L166.528 68.972L165.952 69.188H165.376H162.928V64.544H159.076V69.188ZM163.94 81.752H159.217C159.798 83.8614 160.562 85.8276 161.539 87.5871C162.544 85.8265 163.358 83.8631 163.94 81.752ZM159.156 90.9731C158.061 89.1124 157.175 87.0117 156.447 84.7048C156.118 88.133 155.482 91.7406 154.306 94.8972C156.094 93.9561 157.73 92.6209 159.156 90.9731ZM149.572 71.708C148.852 70.448 147.196 68.468 145.936 66.992L148.708 65.048C150.004 66.38 151.696 68.288 152.524 69.476L149.572 71.708ZM145.756 76.9174V67.712H140.104H138.916H136.396V93.596H140.104V90.536H145.756V77.4395C147.088 78.8064 148.767 80.5399 149.572 81.68L152.452 79.268C151.48 78.116 149.572 76.28 148.168 75.02L145.756 76.9174ZM140.104 87.08V71.096H142.012V87.08H140.104ZM148.132 97.556L144.46 95.9C145.54 93.128 146.944 88.664 147.916 84.632L151.192 86.288C150.328 90.068 149.212 94.208 148.132 97.556ZM202.276 72.788H199.972V77.468C199.972 77.7495 199.97 78.0377 199.968 78.332H202.276V72.788ZM202.276 69.188H199.972H197.812H196.12V77.432C196.12 82.868 195.832 90.788 192.52 96.26C193.492 96.62 195.22 97.556 195.976 98.168C196.517 97.2455 196.986 96.2456 197.394 95.1923C198.166 95.9777 199.141 97.293 199.612 98.168C201.463 97.0927 203.147 95.7546 204.64 94.1431C206.136 95.8342 207.918 97.2146 210.052 98.24C210.628 97.16 211.78 95.648 212.68 94.892C210.468 93.9968 208.627 92.649 207.109 90.9526C209.178 87.7497 210.687 83.7865 211.528 79.016L209.116 78.224L208.432 78.332H207.748H206.128V72.788H207.949C207.725 73.7691 207.49 74.6998 207.28 75.452L210.16 76.928C210.916 75.092 211.744 72.356 212.356 69.944L209.728 68.972L209.152 69.188H208.576H206.128V64.544H202.276V69.188ZM207.14 81.752H202.417C202.998 83.8614 203.762 85.8276 204.739 87.5871C205.744 85.8265 206.558 83.8631 207.14 81.752ZM202.356 90.9731C201.261 89.1124 200.375 87.0117 199.647 84.7048C199.318 88.133 198.682 91.7406 197.506 94.8972C199.294 93.9561 200.93 92.6209 202.356 90.9731ZM192.772 71.708C192.052 70.448 190.396 68.468 189.136 66.992L191.908 65.048C193.204 66.38 194.896 68.288 195.724 69.476L192.772 71.708ZM188.956 76.9174V67.712H183.304H182.116H179.596V93.596H183.304V90.536H188.956V77.4395C190.288 78.8064 191.967 80.5399 192.772 81.68L195.652 79.268C194.68 78.116 192.772 76.28 191.368 75.02L188.956 76.9174ZM183.304 87.08V71.096H185.212V87.08H183.304ZM191.332 97.556L187.66 95.9C188.74 93.128 190.144 88.664 191.116 84.632L194.392 86.288C193.528 90.068 192.412 94.208 191.332 97.556ZM223.588 86.468H227.872L228.772 69.296H222.688L223.588 86.468ZM223.516 90.176C222.916 90.608 222.616 91.376 222.616 92.48C222.616 93.536 222.916 94.304 223.516 94.784C224.116 95.24 224.848 95.468 225.712 95.468C226.552 95.468 227.272 95.24 227.872 94.784C228.472 94.304 228.772 93.536 228.772 92.48C228.772 91.376 228.472 90.608 227.872 90.176C227.272 89.72 226.552 89.492 225.712 89.492C224.848 89.492 224.116 89.72 223.516 90.176Z" fill="white"/>
</svg>
