<svg width="300" height="382" viewBox="0 0 300 382" fill="none" xmlns="http://www.w3.org/2000/svg">
<path fill-rule="evenodd" clip-rule="evenodd" d="M299.871 202.901C299.957 205.288 300 207.688 300 210.1C300 305.038 232.843 382 150 382H0V210.1V38H0.000450936L0.000449487 0H299.871V202.901Z" fill="#CB5656"/>
<path fill-rule="evenodd" clip-rule="evenodd" d="M94.8846 226.138C96.2238 225.366 97.9382 225.82 98.7139 227.153L110.141 246.785L111.427 228.357C111.509 227.184 112.322 226.188 113.459 225.868C114.596 225.547 115.813 225.971 116.501 226.927L131.223 247.38V228.55C131.223 227.011 132.477 225.762 134.025 225.762C135.573 225.762 136.827 227.011 136.827 228.55V256.061C136.827 257.273 136.041 258.346 134.882 258.716C133.723 259.087 132.456 258.67 131.747 257.685L116.479 236.473L115.098 256.255C115.013 257.477 114.135 258.501 112.935 258.778C111.736 259.054 110.495 258.519 109.878 257.459L93.8641 229.948C93.0885 228.615 93.5454 226.909 94.8846 226.138Z" fill="white"/>
<path fill-rule="evenodd" clip-rule="evenodd" d="M82.5346 225.848C83.7682 225.533 85.058 226.097 85.6671 227.219L100.603 254.719C101.339 256.074 100.841 257.771 99.4902 258.509C98.1398 259.247 96.4486 258.747 95.7127 257.392L86.0066 239.521V256.056C86.0066 257.599 84.7599 258.849 83.2221 258.849C81.6842 258.849 80.4375 257.599 80.4375 256.056V228.556C80.4375 227.278 81.3009 226.164 82.5346 225.848Z" fill="white"/>
<path fill-rule="evenodd" clip-rule="evenodd" d="M65.9218 231.366V239.719C66.9943 239.697 67.8129 239.535 68.3928 239.236C68.7892 239.031 69.0826 238.757 69.308 238.321C69.553 237.848 69.7881 237.041 69.7881 235.692C69.7881 233.106 68.9653 232.325 68.3052 231.954C67.732 231.631 66.9395 231.434 65.9218 231.366ZM65.9218 245.297C67.607 245.272 69.358 245.001 70.9073 244.201C72.2599 243.503 73.4164 242.425 74.2036 240.903C74.9712 239.42 75.3114 237.664 75.3114 235.692C75.3114 231.633 73.8328 228.68 70.9948 227.083C68.4788 225.667 65.4102 225.646 62.9222 225.863C61.4945 225.987 60.3984 227.194 60.3984 228.641V256.062C60.3984 257.602 61.6349 258.85 63.1601 258.85C64.6853 258.85 65.9218 257.602 65.9218 256.062V245.297Z" fill="white"/>
<path fill-rule="evenodd" clip-rule="evenodd" d="M188.09 226.138C189.429 225.366 191.143 225.82 191.919 227.153L203.346 246.785L204.632 228.357C204.714 227.184 205.527 226.188 206.664 225.868C207.801 225.547 209.018 225.971 209.706 226.927L224.428 247.38V228.55C224.428 227.011 225.682 225.762 227.23 225.762C228.778 225.762 230.032 227.011 230.032 228.55V256.061C230.032 257.273 229.246 258.346 228.087 258.716C226.928 259.087 225.661 258.67 224.952 257.685L209.684 236.473L208.303 256.255C208.218 257.477 207.34 258.501 206.141 258.778C204.941 259.054 203.7 258.519 203.083 257.459L187.069 229.948C186.294 228.615 186.75 226.909 188.09 226.138Z" fill="white"/>
<path fill-rule="evenodd" clip-rule="evenodd" d="M175.74 225.848C176.973 225.533 178.263 226.097 178.872 227.219L193.808 254.719C194.544 256.074 194.046 257.771 192.695 258.509C191.345 259.247 189.654 258.747 188.918 257.392L179.212 239.521V256.056C179.212 257.599 177.965 258.849 176.427 258.849C174.889 258.849 173.643 257.599 173.643 256.056V228.556C173.643 227.278 174.506 226.164 175.74 225.848Z" fill="white"/>
<path fill-rule="evenodd" clip-rule="evenodd" d="M159.128 231.366V239.719C160.2 239.697 161.019 239.535 161.599 239.236C161.995 239.031 162.289 238.757 162.514 238.321C162.759 237.848 162.994 237.041 162.994 235.692C162.994 233.106 162.171 232.325 161.511 231.954C160.938 231.631 160.146 231.434 159.128 231.366ZM159.128 245.297C160.813 245.272 162.564 245.001 164.113 244.201C165.466 243.503 166.622 242.425 167.41 240.903C168.177 239.42 168.517 237.664 168.517 235.692C168.517 231.633 167.039 228.68 164.201 227.083C161.685 225.667 158.616 225.646 156.128 225.863C154.701 225.987 153.604 227.194 153.604 228.641V256.062C153.604 257.602 154.841 258.85 156.366 258.85C157.891 258.85 159.128 257.602 159.128 256.062V245.297Z" fill="white"/>
<path fill-rule="evenodd" clip-rule="evenodd" d="M118.799 59.3753C110.44 58.1639 103.392 59.0686 97.1189 62.713C90.3903 66.6221 85.1716 73.3432 80.0986 82.18C71.2406 97.6102 65.5093 122.455 62.2895 146.873C59.053 171.417 58.2615 196.288 59.6653 212.173C59.8754 214.55 61.9727 216.307 64.3498 216.097C66.7269 215.887 68.4837 213.79 68.2736 211.413C66.9409 196.332 67.6767 172.122 70.8571 148.003C74.0542 123.757 79.6295 100.355 87.5932 86.4825C92.4486 78.0247 96.7359 72.9299 101.46 70.1852C106.005 67.5446 111.556 66.7438 119.77 68.2986C125.585 69.3993 130.716 73.2696 133.312 81.3298C134.044 83.6013 136.478 84.8496 138.75 84.118C141.021 83.3864 142.27 80.952 141.538 78.6805C138.949 70.6409 134.162 65.1342 128.183 62.1052C130.643 59.8226 133.7 57.5021 137.019 55.6493C142.749 52.4513 148.273 51.1805 152.501 52.564C159.49 54.8516 163.345 58.9634 165.574 63.7006C165.846 64.2808 166.096 64.8735 166.324 65.4767C166.345 65.5366 166.368 65.5961 166.391 65.6553C168.043 70.1174 168.536 75.1444 168.536 80.0052C168.536 82.3915 170.47 84.3261 172.857 84.3261C175.243 84.3261 177.178 82.3915 177.178 80.0052C177.178 75.6575 176.831 70.6947 175.502 65.8076C177.003 64.9072 178.595 64.1995 180.27 63.9289C182.62 63.5495 185.659 63.944 189.436 67.2882C193.374 70.7746 195.398 75.723 196.236 80.7197C196.985 85.1901 196.719 89.341 196.266 91.7215C195.819 94.0657 197.358 96.3281 199.702 96.7746C202.046 97.2211 204.309 95.6827 204.755 93.3385C205.093 91.5669 205.334 89.273 205.347 86.682C207.617 87.9575 209.983 89.6725 212.061 91.8645C216.035 96.0566 218.984 101.997 218.243 110.294C216.609 128.595 207.414 143.873 203.219 148.986C202.585 149.758 202.239 150.727 202.239 151.726V207.466C202.239 209.853 204.173 211.787 206.56 211.787C208.946 211.787 210.881 209.853 210.881 207.466V153.219C216.134 146.258 225.14 130.221 226.851 111.062C227.838 100.001 223.798 91.6842 218.332 85.919C213.915 81.259 208.587 78.2709 204.228 76.6656C202.923 71.1815 200.254 65.3238 195.165 60.818C189.609 55.8989 184.005 54.572 178.893 55.3976C176.376 55.804 174.125 56.7119 172.205 57.7429C168.867 51.9493 163.486 47.0666 155.189 44.3509C147.533 41.8451 139.302 44.4782 132.807 48.1034C127.224 51.2201 122.197 55.4651 118.799 59.3753Z" fill="white"/>
<path d="M183.76 96.5879C174.427 96.5879 173.012 109.678 173.39 119.489C173.738 128.538 179.612 140.229 183.76 140.229C187.908 140.229 190.385 131.299 191.106 126.834C192.546 116.752 193.093 96.5879 183.76 96.5879Z" fill="white"/>
<path d="M206.229 119.489C200.007 119.489 201.015 137.06 202.455 146.71C202.455 146.71 211.961 136.846 211.961 128.995C211.961 126.834 212.451 119.489 206.229 119.489Z" fill="white"/>
<path fill-rule="evenodd" clip-rule="evenodd" d="M178.22 105.435C176.94 109.344 176.662 114.577 176.846 119.356C176.997 123.289 178.383 127.992 180.242 131.704C181.168 133.553 182.133 134.996 182.983 135.919C183.348 136.315 183.615 136.535 183.783 136.655C183.843 136.602 183.917 136.53 184.004 136.435C184.474 135.919 185.015 135.043 185.556 133.814C186.623 131.388 187.357 128.364 187.69 126.314C188.383 121.442 188.838 114.246 188.049 108.392C187.649 105.428 186.971 103.138 186.092 101.685C185.292 100.363 184.563 100.044 183.762 100.044C182.333 100.044 181.348 100.509 180.544 101.281C179.657 102.131 178.855 103.497 178.22 105.435ZM183.578 136.803C183.578 136.802 183.585 136.799 183.598 136.794C183.585 136.801 183.578 136.803 183.578 136.803ZM175.758 96.2917C177.832 94.3024 180.524 93.1309 183.762 93.1309C187.627 93.1309 190.329 95.3326 192.007 98.1068C193.605 100.749 194.45 104.131 194.9 107.468C195.809 114.204 195.274 122.112 194.529 127.323C194.528 127.336 194.526 127.349 194.524 127.362C194.522 127.369 194.521 127.377 194.52 127.384C194.131 129.799 193.267 133.454 191.884 136.598C191.197 138.159 190.296 139.795 189.113 141.093C187.932 142.388 186.143 143.685 183.762 143.685C181.202 143.685 179.183 141.998 177.898 140.602C176.469 139.051 175.166 137.005 174.061 134.8C171.859 130.404 170.134 124.737 169.937 119.621C169.744 114.589 169.984 108.372 171.65 103.284C172.489 100.722 173.766 98.2024 175.758 96.2917ZM202.457 146.71L204.946 149.109C204.032 150.057 202.659 150.404 201.404 150.003C200.15 149.602 199.232 148.523 199.038 147.22C198.299 142.274 197.654 135.204 198.02 129.267C198.201 126.342 198.642 123.381 199.628 121.042C200.601 118.735 202.604 116.032 206.231 116.032C208.522 116.032 210.493 116.731 212.022 118.064C213.489 119.342 214.285 120.971 214.731 122.405C215.488 124.839 215.443 127.513 215.424 128.647C215.421 128.788 215.419 128.904 215.419 128.994C215.419 134.064 212.468 139.259 210.056 142.758C208.784 144.603 207.52 146.175 206.575 147.286C206.101 147.843 205.703 148.289 205.419 148.6C205.278 148.756 205.164 148.878 205.084 148.963C205.043 149.006 205.011 149.04 204.988 149.064L204.96 149.094L204.951 149.103L204.947 149.108C204.946 149.108 204.946 149.109 202.457 146.71ZM204.92 129.694C204.763 132.244 204.818 135.095 204.996 137.891C207.021 134.772 208.506 131.52 208.506 128.994C208.506 128.821 208.507 128.642 208.509 128.457C208.518 127.212 208.529 125.745 208.129 124.458C207.92 123.785 207.672 123.443 207.48 123.276C207.362 123.173 207.097 122.979 206.417 122.949C206.325 123.064 206.181 123.295 205.999 123.728C205.469 124.985 205.086 127.019 204.92 129.694ZM206.528 122.849C206.529 122.855 206.506 122.88 206.456 122.903C206.502 122.853 206.527 122.842 206.528 122.849Z" fill="white"/>
<path d="M116.788 108.256C114.195 112.577 115.52 122.197 112.035 128.996C103.395 145.847 115.923 154.492 124.564 152.764C133.206 151.035 136.231 125.974 130.614 112.147C124.996 98.3202 119.38 103.935 116.788 108.256Z" fill="white"/>
<path d="M164.318 117.762C162.935 136.082 153.372 136.918 148.763 135.045C139.689 129.861 144.01 115.601 148.763 97.4533C153.516 79.3055 166.046 94.8608 164.318 117.762Z" fill="white"/>
<path fill-rule="evenodd" clip-rule="evenodd" d="M161.691 90.0827C165.926 95.4905 168.665 106.085 167.764 118.022C167.035 127.677 164.084 133.668 159.771 136.779C155.443 139.901 150.586 139.517 147.46 138.248C147.318 138.19 147.18 138.123 147.047 138.046C140.691 134.415 139.56 127.685 140.132 120.823C140.644 114.68 142.607 107.237 144.685 99.3603C144.928 98.4381 145.173 97.51 145.418 96.5773C146.067 94.0972 146.897 91.9981 147.937 90.3399C148.969 88.6928 150.342 87.2756 152.142 86.546C156.182 84.909 159.647 87.4723 161.691 90.0827ZM153.794 94.0121C153.245 94.8874 152.644 96.2721 152.105 98.3289C151.865 99.2454 151.628 100.147 151.395 101.033C149.272 109.092 147.479 115.901 147.021 121.398C146.526 127.345 147.696 130.337 150.273 131.923C151.751 132.454 153.865 132.515 155.727 131.172C157.694 129.753 160.216 126.167 160.87 117.501C161.697 106.537 159.035 97.9034 156.248 94.3453C155.58 93.492 155.06 93.1323 154.791 93.0091C154.752 92.9916 154.722 92.9803 154.7 92.9732C154.591 93.0369 154.256 93.2762 153.794 94.0121ZM154.655 92.9614C154.655 92.9613 154.656 92.9614 154.657 92.9617L154.655 92.9614ZM121.616 107.618C120.951 108.241 120.304 109.113 119.751 110.034C119.427 110.575 119.113 111.495 118.841 112.984C118.607 114.266 118.447 115.698 118.262 117.349C118.236 117.59 118.208 117.835 118.18 118.085C117.76 121.807 117.182 126.53 115.109 130.573C111.239 138.123 112.437 142.997 114.553 145.733C116.866 148.726 120.827 149.985 123.885 149.374C124.466 149.258 125.606 148.567 126.855 146.08C128.04 143.723 128.975 140.398 129.511 136.519C130.589 128.715 129.926 119.642 127.41 113.448C126.088 110.195 124.898 108.434 124.009 107.548C123.583 107.124 123.281 106.956 123.124 106.891C122.986 106.834 122.915 106.835 122.871 106.839C122.734 106.851 122.308 106.969 121.616 107.618ZM128.886 102.648C130.71 104.464 132.328 107.186 133.815 110.846C136.916 118.479 137.549 128.85 136.359 137.465C135.761 141.796 134.671 145.924 133.033 149.184C131.46 152.315 128.982 155.405 125.241 156.153C119.658 157.27 113.034 155.071 109.083 149.961C104.934 144.594 104.189 136.72 108.957 127.419C110.371 124.662 110.873 121.177 111.31 117.309C111.337 117.074 111.363 116.837 111.39 116.599C111.57 114.977 111.76 113.28 112.04 111.743C112.358 110 112.851 108.097 113.823 106.477C114.566 105.239 115.593 103.788 116.886 102.575C118.152 101.389 119.966 100.156 122.26 99.9527C124.719 99.7347 126.984 100.756 128.886 102.648Z" fill="white"/>
<path d="M165.181 145.414C158.268 145.414 144.441 166.442 138.391 176.957C130.685 190.352 132.515 206.339 147.033 206.339C161.551 206.339 165.181 199.425 169.07 195.537C172.641 202.45 179.987 206.636 183.329 206.339C194.998 205.302 194.563 186.751 189.378 176.957C184.193 166.442 172.095 145.414 165.181 145.414Z" fill="white"/>
<path fill-rule="evenodd" clip-rule="evenodd" d="M154.198 159.356C149.245 165.766 144.362 173.511 141.388 178.68C137.833 184.86 136.688 191.308 137.747 195.893C138.264 198.133 139.272 199.82 140.661 200.953C142.035 202.075 144.059 202.882 147.034 202.882C153.689 202.882 157.519 201.315 160.075 199.551C161.395 198.64 162.475 197.606 163.5 196.508C163.825 196.159 164.206 195.732 164.608 195.281C165.281 194.526 166.012 193.707 166.626 193.092C167.406 192.312 168.512 191.951 169.602 192.121C170.692 192.29 171.635 192.97 172.142 193.95C173.626 196.824 175.939 199.193 178.256 200.801C179.409 201.601 180.502 202.17 181.415 202.514C182.389 202.882 182.917 202.905 183.024 202.895C184.912 202.728 186.195 201.91 187.155 200.622C188.193 199.23 188.934 197.156 189.241 194.529C189.861 189.235 188.589 182.853 186.324 178.574C186.308 178.544 186.293 178.515 186.278 178.485C183.734 173.325 179.496 165.597 175.084 159.206C172.87 155.999 170.693 153.248 168.735 151.337C167.757 150.382 166.915 149.718 166.228 149.31C165.891 149.11 165.63 148.994 165.442 148.932C165.267 148.873 165.186 148.871 165.182 148.87C165.177 148.871 165.081 148.873 164.875 148.94C164.661 149.01 164.369 149.135 163.997 149.346C163.242 149.773 162.32 150.459 161.248 151.428C159.104 153.366 156.682 156.14 154.198 159.356ZM160.59 143.33C161.904 142.586 163.481 141.957 165.182 141.957C166.899 141.957 168.465 142.597 169.759 143.366C171.077 144.149 172.356 145.21 173.565 146.39C175.982 148.75 178.45 151.914 180.773 155.278C185.422 162.012 189.815 170.03 192.458 175.384C195.362 180.897 196.889 188.663 196.108 195.334C195.714 198.699 194.699 202.069 192.698 204.753C190.62 207.541 187.582 209.431 183.635 209.782C182.071 209.921 180.427 209.531 178.972 208.982C177.456 208.409 175.864 207.556 174.316 206.481C172.345 205.115 170.349 203.323 168.621 201.153C168.6 201.176 168.578 201.199 168.557 201.222C167.353 202.513 165.89 203.937 164.002 205.241C160.141 207.906 154.897 209.795 147.034 209.795C142.749 209.795 139.1 208.604 136.289 206.309C133.492 204.027 131.802 200.88 131.01 197.448C129.451 190.691 131.245 182.448 135.396 175.233L138.328 176.92L135.396 175.233C138.471 169.888 143.526 161.861 148.727 155.129C151.32 151.773 154.03 148.633 156.612 146.299C157.903 145.132 159.242 144.094 160.59 143.33Z" fill="white"/>
<path d="M110.272 62.4545C110.636 47.5455 121.945 25.8 135.909 21C123.363 41.7273 119.545 56.4545 123.363 62.4545" stroke="white" stroke-width="5" stroke-linecap="round" stroke-linejoin="round"/>
<path d="M173.546 64.0913C169.728 58.0913 173.546 43.364 186.091 22.6367C175.291 26.3493 166.079 40.199 162.291 53.1822" stroke="white" stroke-width="5" stroke-linecap="round" stroke-linejoin="round"/>
<path d="M208.161 81.0005C207.717 73.4599 212.181 60.8298 222.092 44.4551C210.377 48.482 201.174 60.0719 198.092 73.9096" stroke="white" stroke-width="5" stroke-linecap="round" stroke-linejoin="round"/>
<path d="M71.151 271.614H83.544V274.611H71.151V271.614ZM71.205 278.364H82.437V281.253H71.205V278.364ZM75.687 268.05H78.846V279.984H75.687V268.05ZM69.45 271.614H72.555V278.553C72.555 282.927 72.096 289.299 69.207 293.376C68.64 292.863 67.263 292.053 66.48 291.756C69.207 287.976 69.45 282.468 69.45 278.526V271.614ZM82.788 271.614H83.301L83.814 271.506L86.19 272.073C85.569 274.152 84.732 276.42 83.976 277.905L81.168 277.095C81.762 275.826 82.41 273.747 82.788 272.073V271.614ZM74.904 280.227C76.74 285.195 80.601 289.056 86.271 290.649C85.542 291.297 84.624 292.566 84.165 293.403C78.171 291.351 74.364 287.031 72.123 281.01L74.904 280.227ZM62.322 270.588L64.131 268.239C65.616 268.968 67.857 270.156 68.964 270.912L67.074 273.531C66.021 272.721 63.834 271.425 62.322 270.588ZM60.729 277.932L62.538 275.529C64.05 276.204 66.318 277.338 67.452 278.094L65.589 280.794C64.536 279.984 62.295 278.742 60.729 277.932ZM61.269 291.189C62.538 289.11 64.32 285.708 65.697 282.522L68.235 284.466C67.02 287.355 65.562 290.487 64.158 293.133L61.269 291.189ZM81.276 278.364H81.924L82.491 278.283L84.516 279.147C82.68 286.707 78.225 291.297 72.582 293.457C72.177 292.701 71.178 291.351 70.53 290.784C75.903 288.975 79.899 285.168 81.276 278.958V278.364ZM99.501 271.614H111.894V274.611H99.501V271.614ZM99.555 278.364H110.787V281.253H99.555V278.364ZM104.037 268.05H107.196V279.984H104.037V268.05ZM97.8 271.614H100.905V278.553C100.905 282.927 100.446 289.299 97.557 293.376C96.99 292.863 95.613 292.053 94.83 291.756C97.557 287.976 97.8 282.468 97.8 278.526V271.614ZM111.138 271.614H111.651L112.164 271.506L114.54 272.073C113.919 274.152 113.082 276.42 112.326 277.905L109.518 277.095C110.112 275.826 110.76 273.747 111.138 272.073V271.614ZM103.254 280.227C105.09 285.195 108.951 289.056 114.621 290.649C113.892 291.297 112.974 292.566 112.515 293.403C106.521 291.351 102.714 287.031 100.473 281.01L103.254 280.227ZM90.672 270.588L92.481 268.239C93.966 268.968 96.207 270.156 97.314 270.912L95.424 273.531C94.371 272.721 92.184 271.425 90.672 270.588ZM89.079 277.932L90.888 275.529C92.4 276.204 94.668 277.338 95.802 278.094L93.939 280.794C92.886 279.984 90.645 278.742 89.079 277.932ZM89.619 291.189C90.888 289.11 92.67 285.708 94.047 282.522L96.585 284.466C95.37 287.355 93.912 290.487 92.508 293.133L89.619 291.189ZM109.626 278.364H110.274L110.841 278.283L112.866 279.147C111.03 286.707 106.575 291.297 100.932 293.457C100.527 292.701 99.528 291.351 98.88 290.784C104.253 288.975 108.249 285.168 109.626 278.958V278.364ZM118.266 285.546H130.875V287.841H118.266V285.546ZM117.645 272.694H131.145V275.043H117.645V272.694ZM123.018 270.777H125.934V290.136H123.018V270.777ZM117.51 289.839C120.858 289.596 126.015 289.218 130.875 288.786L130.902 291.243C126.312 291.729 121.398 292.215 117.888 292.539L117.51 289.839ZM120.939 281.226V282.468H128.067V281.226H120.939ZM120.939 278.121V279.336H128.067V278.121H120.939ZM118.347 276.096H130.74V284.493H118.347V276.096ZM129.417 268.212L130.848 270.642C127.392 271.344 122.478 271.749 118.428 271.83C118.32 271.182 118.023 270.156 117.726 269.535C121.749 269.346 126.447 268.86 129.417 268.212ZM131.145 274.179H140.487V277.149H131.145V274.179ZM139.191 274.179H142.296C142.296 274.179 142.269 275.232 142.269 275.61C142.026 286.734 141.81 290.676 140.919 291.891C140.325 292.809 139.704 293.106 138.813 293.268C137.976 293.43 136.707 293.43 135.438 293.376C135.357 292.485 135.006 291.162 134.493 290.298C135.654 290.406 136.68 290.406 137.22 290.406C137.625 290.406 137.895 290.325 138.138 289.947C138.759 289.137 138.975 285.33 139.191 274.881V274.179ZM133.737 268.536H136.842C136.815 280.065 136.788 288.732 130.551 293.646C130.092 292.863 129.039 291.756 128.31 291.216C134.007 286.869 133.71 279.309 133.737 268.536ZM158.982 268.077L161.898 268.644C160.926 273.126 159.144 277.419 156.957 280.119C156.444 279.633 155.175 278.715 154.5 278.31C156.66 275.934 158.172 272.073 158.982 268.077ZM168.054 272.289H171.105C171.105 272.289 171.078 273.342 171.051 273.747C170.538 285.87 170.052 290.298 169.026 291.648C168.405 292.566 167.811 292.89 166.92 293.052C166.164 293.214 165.03 293.214 163.842 293.16C163.761 292.242 163.437 290.865 162.951 289.974C163.95 290.082 164.868 290.109 165.381 290.109C165.786 290.109 166.029 289.974 166.353 289.596C167.109 288.651 167.622 284.466 168.054 272.991V272.289ZM159.792 272.289H169.431V275.286H158.307L159.792 272.289ZM161.682 273.261L164.031 274.422C162.951 279.066 160.575 284.412 157.632 287.166C157.011 286.545 155.985 285.789 155.148 285.33C158.28 282.873 160.656 277.797 161.682 273.261ZM165.435 273.558L167.946 274.719C166.65 281.739 163.788 289.083 159.333 292.809C158.712 292.161 157.578 291.351 156.687 290.919C161.412 287.544 164.193 280.497 165.435 273.558ZM145.752 282.792C148.398 282.198 152.34 281.091 156.066 280.038L156.498 282.9C153.096 283.953 149.397 285.06 146.535 285.897L145.752 282.792ZM150.612 268.077H153.582V293.43H150.612V268.077ZM147.048 269.616L149.748 270.075C149.397 273.639 148.749 277.419 147.777 279.822C147.291 279.444 146.13 278.688 145.482 278.364C146.346 276.204 146.805 272.829 147.048 269.616ZM147.777 273.288H155.823V276.393H147.183L147.777 273.288ZM179.016 291.216H194.865V292.917H179.016V291.216ZM179.016 288.894H194.865V290.487H179.016V288.894ZM175.155 281.091H198.861V283.143H175.155V281.091ZM176.478 284.007H197.511V293.43H194.46V285.681H179.394V293.43H176.478V284.007ZM180.096 270.534L181.932 270.966C181.527 272.1 180.771 273.261 179.988 274.044C179.637 273.774 178.854 273.288 178.395 273.072C179.178 272.37 179.745 271.452 180.096 270.534ZM187.926 273.828H195.702V275.664H187.926V273.828ZM180.177 271.722H186.171V273.18H180.177V271.722ZM178.611 273.99H186.63V275.529H178.611V273.99ZM189.843 268.725H194.649V270.885H189.843V268.725ZM195.135 273.828H195.621L196.08 273.774L197.619 274.287C196.161 278.175 192.705 279.984 188.412 280.875C188.169 280.308 187.629 279.417 187.197 278.931C190.896 278.364 194.028 276.852 195.135 274.125V273.828ZM190.896 275.475C192.273 277.473 195.324 278.58 199.293 278.931C198.726 279.444 198.024 280.497 197.7 281.199C193.299 280.578 190.221 278.931 188.493 276.069L190.896 275.475ZM188.682 268.725H191.139V270.21C191.139 271.803 190.545 273.423 188.034 274.53C187.737 273.99 186.792 272.964 186.333 272.613C188.385 271.884 188.682 271.047 188.682 270.102V268.725ZM193.488 268.725H195.972V270.777C195.972 271.128 195.945 271.317 196.026 271.398C196.08 271.479 196.161 271.506 196.269 271.506C196.377 271.506 196.566 271.506 196.701 271.506C196.809 271.506 196.944 271.506 196.998 271.452C197.079 271.425 197.16 271.371 197.214 271.182C197.268 271.02 197.295 270.642 197.322 270.183C197.754 270.561 198.564 270.966 199.185 271.155C199.104 271.803 198.996 272.451 198.807 272.721C198.645 273.018 198.348 273.234 197.97 273.396C197.673 273.531 197.187 273.558 196.809 273.558C196.485 273.558 195.972 273.558 195.648 273.558C195.081 273.558 194.379 273.396 194.028 272.991C193.65 272.613 193.488 272.127 193.488 270.777V268.725ZM181.743 272.424H183.741V274.26C183.741 275.664 183.12 277.446 179.853 278.58C179.583 278.121 179.016 277.5 178.557 277.122C181.365 276.447 181.743 275.151 181.743 274.206V272.424ZM183.174 282.279H185.631V284.736C185.631 286.518 184.686 288.192 180.933 289.191C180.609 288.651 179.961 287.868 179.421 287.436C182.634 286.896 183.174 285.735 183.174 284.709V282.279ZM187.845 282.252H190.329V286.005C190.329 286.599 190.464 286.68 191.193 286.68C191.544 286.68 193.299 286.68 193.758 286.68C194.217 286.68 194.379 286.653 194.433 286.491C194.919 286.734 195.783 286.923 196.377 287.004C196.215 287.868 195.567 288.165 194.082 288.165C193.569 288.165 191.355 288.165 190.842 288.165C188.439 288.165 187.845 287.733 187.845 285.978V282.252ZM181.878 276.096L183.066 274.908C184.254 275.529 185.766 276.474 186.549 277.176L185.307 278.472C184.551 277.797 183.066 276.771 181.878 276.096ZM187.035 268.968V270.804H178.233V278.445H187.251V280.281H175.83V268.968H187.035ZM217.977 268.212H221.136V272.451H217.977V268.212ZM211.983 271.047H227.616V276.366H224.619V273.801H214.845V276.393H211.983V271.047ZM213.981 275.988H225.537V278.769H213.981V275.988ZM212.361 280.713H227.508V283.602H212.361V280.713ZM215.412 282.117H218.49C218.247 287.922 217.437 291.486 211.632 293.43C211.362 292.647 210.552 291.459 209.931 290.865C214.818 289.407 215.25 286.815 215.412 282.117ZM220.38 281.793H223.431V289.461C223.431 290.244 223.485 290.352 223.836 290.352C223.998 290.352 224.565 290.352 224.754 290.352C225.186 290.352 225.267 289.92 225.321 287.166C225.915 287.652 227.211 288.165 228.021 288.354C227.751 292.161 226.995 293.187 225.105 293.187C224.619 293.187 223.728 293.187 223.296 293.187C220.92 293.187 220.38 292.269 220.38 289.488V281.793ZM203.667 269.238H210.039V272.127H206.502V293.457H203.667V269.238ZM209.04 269.238H209.58L210.039 269.13L212.145 270.318C211.443 272.64 210.552 275.583 209.769 277.689C211.443 279.795 211.767 281.604 211.767 283.17C211.767 284.925 211.416 286.059 210.552 286.653C210.12 286.95 209.607 287.139 209.013 287.22C208.527 287.274 207.879 287.301 207.258 287.301C207.231 286.518 206.988 285.303 206.556 284.52C207.042 284.547 207.393 284.574 207.717 284.547C208.014 284.547 208.284 284.493 208.473 284.331C208.797 284.088 208.932 283.548 208.932 282.792C208.932 281.523 208.581 279.849 207.042 278.04C207.798 275.61 208.662 271.884 209.04 270.156V269.238Z" fill="white"/>
</svg>
