<svg width="172" height="275" viewBox="0 0 172 275" fill="none" xmlns="http://www.w3.org/2000/svg">
<path fill-rule="evenodd" clip-rule="evenodd" d="M35.8846 205.774C37.2238 205.003 38.9382 205.457 39.7139 206.79L51.1411 226.421L52.4273 207.994C52.5091 206.821 53.3218 205.825 54.4589 205.504C55.5959 205.184 56.8128 205.608 57.5009 206.564L72.2228 227.017V208.187C72.2228 206.647 73.4774 205.399 75.025 205.399C76.5727 205.399 77.8273 206.647 77.8273 208.187V235.698C77.8273 236.91 77.0411 237.982 75.8819 238.353C74.7227 238.723 73.4558 238.307 72.7469 237.322L57.4787 216.11L56.098 235.891C56.0127 237.114 55.1352 238.138 53.9355 238.414C52.7357 238.691 51.495 238.156 50.8777 237.096L34.8641 209.585C34.0885 208.252 34.5454 206.546 35.8846 205.774Z" fill="black"/>
<path fill-rule="evenodd" clip-rule="evenodd" d="M23.5346 205.485C24.7682 205.17 26.058 205.734 26.6671 206.856L41.6029 234.356C42.3388 235.71 41.8406 237.407 40.4902 238.146C39.1398 238.884 37.4486 238.384 36.7127 237.029L27.0066 219.158V235.692C27.0066 237.235 25.7599 238.486 24.2221 238.486C22.6842 238.486 21.4375 237.235 21.4375 235.692V208.192C21.4375 206.915 22.3009 205.801 23.5346 205.485Z" fill="black"/>
<path fill-rule="evenodd" clip-rule="evenodd" d="M6.92177 211.003V219.355C7.99431 219.333 8.81286 219.172 9.39276 218.873C9.78921 218.668 10.0826 218.394 10.308 217.958C10.553 217.485 10.7881 216.678 10.7881 215.329C10.7881 212.743 9.96531 211.962 9.3052 211.59C8.73205 211.268 7.93945 211.071 6.92177 211.003ZM6.92177 224.934C8.607 224.908 10.358 224.638 11.9073 223.838C13.2599 223.14 14.4164 222.061 15.2036 220.54C15.9712 219.056 16.3114 217.301 16.3114 215.329C16.3114 211.27 14.8328 208.317 11.9948 206.72C9.47879 205.303 6.41024 205.282 3.92223 205.5C2.49453 205.624 1.39844 206.831 1.39844 208.277V235.698C1.39844 237.238 2.63488 238.487 4.16011 238.487C5.68533 238.487 6.92177 237.238 6.92177 235.698V224.934Z" fill="black"/>
<path fill-rule="evenodd" clip-rule="evenodd" d="M129.091 205.774C130.43 205.003 132.144 205.457 132.92 206.79L144.347 226.421L145.633 207.994C145.715 206.821 146.528 205.825 147.665 205.504C148.802 205.184 150.019 205.608 150.707 206.564L165.429 227.017V208.187C165.429 206.647 166.683 205.399 168.231 205.399C169.779 205.399 171.033 206.647 171.033 208.187V235.698C171.033 236.91 170.247 237.982 169.088 238.353C167.929 238.723 166.662 238.307 165.953 237.322L150.685 216.11L149.304 235.891C149.219 237.114 148.341 238.138 147.142 238.414C145.942 238.691 144.701 238.156 144.084 237.096L128.07 209.585C127.295 208.252 127.751 206.546 129.091 205.774Z" fill="black"/>
<path fill-rule="evenodd" clip-rule="evenodd" d="M116.741 205.485C117.974 205.17 119.264 205.734 119.873 206.856L134.809 234.356C135.545 235.71 135.047 237.407 133.696 238.146C132.346 238.884 130.655 238.384 129.919 237.029L120.213 219.158V235.692C120.213 237.235 118.966 238.486 117.428 238.486C115.89 238.486 114.644 237.235 114.644 235.692V208.192C114.644 206.915 115.507 205.801 116.741 205.485Z" fill="black"/>
<path fill-rule="evenodd" clip-rule="evenodd" d="M100.128 211.003V219.355C101.2 219.333 102.019 219.172 102.599 218.873C102.995 218.668 103.289 218.394 103.514 217.958C103.759 217.485 103.994 216.678 103.994 215.329C103.994 212.743 103.171 211.962 102.511 211.59C101.938 211.268 101.146 211.071 100.128 211.003ZM100.128 224.934C101.813 224.908 103.564 224.638 105.113 223.838C106.466 223.14 107.622 222.061 108.41 220.54C109.177 219.056 109.517 217.301 109.517 215.329C109.517 211.27 108.039 208.317 105.201 206.72C102.685 205.303 99.6163 205.282 97.1283 205.5C95.7006 205.624 94.6045 206.831 94.6045 208.277V235.698C94.6045 237.238 95.8409 238.487 97.3662 238.487C98.8914 238.487 100.128 237.238 100.128 235.698V224.934Z" fill="black"/>
<path fill-rule="evenodd" clip-rule="evenodd" d="M59.7985 39.0121C51.4403 37.8006 44.3918 38.7054 38.1189 42.3497C31.3903 46.2588 26.1716 52.9799 21.0986 61.8168C12.2406 77.2469 6.50932 102.092 3.28949 126.51C0.053035 151.054 -0.738522 175.924 0.665328 191.81C0.875398 194.187 2.97272 195.944 5.34983 195.734C7.72694 195.524 9.48367 193.426 9.2736 191.049C7.94087 175.968 8.67666 151.759 11.8571 127.64C15.0542 103.394 20.6295 79.9915 28.5932 66.1192C33.4486 57.6614 37.7359 52.5666 42.4601 49.822C47.0053 47.1814 52.5565 46.3805 60.77 47.9353C66.5846 49.036 71.7162 52.9063 74.3123 60.9666C75.0439 63.238 77.4783 64.4863 79.7498 63.7547C82.0212 63.0232 83.2696 60.5887 82.538 58.3172C79.9486 50.2777 75.1621 44.7709 69.1833 41.742C71.6427 39.4593 74.7 37.1388 78.0193 35.2861C83.7488 32.0881 89.2734 30.8172 93.5006 32.2008C100.49 34.4883 104.345 38.6001 106.574 43.3373C106.846 43.9176 107.096 44.5102 107.324 45.1134C107.345 45.1733 107.368 45.2328 107.391 45.292C109.043 49.7542 109.536 54.7811 109.536 59.6419C109.536 62.0283 111.47 63.9628 113.857 63.9628C116.243 63.9628 118.178 62.0283 118.178 59.6419C118.178 55.2942 117.831 50.3314 116.502 45.4443C118.003 44.5439 119.595 43.8362 121.27 43.5656C123.62 43.1862 126.659 43.5807 130.436 46.925C134.374 50.4113 136.398 55.3598 137.236 60.3564C137.985 64.8268 137.719 68.9777 137.266 71.3582C136.819 73.7024 138.358 75.9648 140.702 76.4113C143.046 76.8578 145.309 75.3194 145.755 72.9752C146.093 71.2037 146.334 68.9097 146.347 66.3187C148.617 67.5942 150.983 69.3092 153.061 71.5013C157.035 75.6933 159.984 81.6333 159.243 89.9302C157.609 108.232 148.414 123.51 144.219 128.622C143.585 129.395 143.239 130.364 143.239 131.363V187.103C143.239 189.489 145.173 191.424 147.56 191.424C149.946 191.424 151.881 189.489 151.881 187.103V132.855C157.134 125.895 166.14 109.858 167.851 90.6988C168.838 79.638 164.798 71.321 159.332 65.5558C154.915 60.8957 149.587 57.9076 145.228 56.3023C143.923 50.8183 141.254 44.9606 136.165 40.4547C130.609 35.5357 125.005 34.2087 119.893 35.0343C117.376 35.4407 115.125 36.3486 113.205 37.3796C109.867 31.586 104.486 26.7033 96.1888 23.9877C88.5327 21.4818 80.3023 24.1149 73.8074 27.7401C68.2236 30.8568 63.1971 35.1018 59.7985 39.0121Z" fill="black"/>
<path d="M124.76 76.2246C115.427 76.2246 114.012 89.3151 114.39 99.1254C114.738 108.174 120.612 119.866 124.76 119.866C128.908 119.866 131.385 110.936 132.106 106.471C133.546 96.3888 134.093 76.2246 124.76 76.2246Z" fill="black"/>
<path d="M147.229 99.1254C141.007 99.1254 142.015 116.697 143.455 126.347C143.455 126.347 152.961 116.483 152.961 108.631C152.961 106.471 153.451 99.1254 147.229 99.1254Z" fill="black"/>
<path fill-rule="evenodd" clip-rule="evenodd" d="M119.219 85.0715C117.939 88.9807 117.661 94.2138 117.845 98.9923C117.996 102.926 119.382 107.629 121.241 111.341C122.167 113.189 123.132 114.632 123.982 115.556C124.347 115.952 124.614 116.172 124.782 116.292C124.842 116.239 124.916 116.167 125.003 116.072C125.473 115.556 126.014 114.68 126.555 113.45C127.622 111.025 128.356 108.001 128.689 105.95C129.382 101.079 129.837 93.8831 129.048 88.0287C128.648 85.0642 127.97 82.7752 127.091 81.3215C126.291 79.9998 125.562 79.681 124.761 79.681C123.332 79.681 122.347 80.1458 121.543 80.9176C120.656 81.7679 119.854 83.1338 119.219 85.0715ZM124.577 116.439C124.577 116.439 124.584 116.435 124.597 116.431C124.584 116.438 124.577 116.44 124.577 116.439ZM116.757 75.9284C118.831 73.9391 121.523 72.7676 124.761 72.7676C128.626 72.7676 131.328 74.9693 133.006 77.7435C134.604 80.3857 135.449 83.7678 135.899 87.1047C136.808 93.8403 136.273 101.749 135.528 106.96C135.527 106.973 135.525 106.986 135.523 106.998C135.521 107.006 135.52 107.014 135.519 107.021C135.13 109.435 134.266 113.091 132.883 116.235C132.196 117.796 131.295 119.431 130.112 120.729C128.931 122.024 127.142 123.322 124.761 123.322C122.201 123.322 120.182 121.635 118.897 120.239C117.468 118.687 116.165 116.642 115.06 114.437C112.858 110.04 111.133 104.374 110.936 99.258C110.743 94.2262 110.983 88.0089 112.649 82.9202C113.488 80.3589 114.765 77.8391 116.757 75.9284ZM143.456 126.347L145.945 128.745C145.031 129.694 143.658 130.04 142.403 129.639C141.149 129.239 140.231 128.16 140.037 126.857C139.299 121.911 138.653 114.84 139.019 108.904C139.2 105.979 139.641 103.017 140.627 100.679C141.6 98.3722 143.603 95.6684 147.23 95.6684C149.521 95.6684 151.492 96.3678 153.021 97.7005C154.488 98.9787 155.284 100.608 155.73 102.041C156.487 104.475 156.442 107.149 156.423 108.284C156.42 108.424 156.418 108.541 156.418 108.631C156.418 113.7 153.467 118.896 151.055 122.395C149.783 124.24 148.519 125.812 147.574 126.923C147.1 127.48 146.702 127.926 146.418 128.237C146.277 128.392 146.163 128.514 146.083 128.6C146.042 128.643 146.01 128.677 145.987 128.701L145.959 128.73L145.95 128.74L145.946 128.744C145.945 128.745 145.945 128.745 143.456 126.347ZM145.919 109.33C145.762 111.881 145.817 114.731 145.995 117.527C148.02 114.409 149.505 111.157 149.505 108.631C149.505 108.458 149.506 108.278 149.508 108.094C149.517 106.849 149.529 105.381 149.128 104.095C148.919 103.422 148.671 103.079 148.479 102.913C148.361 102.81 148.096 102.616 147.416 102.586C147.324 102.701 147.18 102.931 146.998 103.364C146.468 104.622 146.085 106.656 145.919 109.33ZM147.527 102.485C147.528 102.492 147.505 102.517 147.455 102.54C147.501 102.49 147.526 102.479 147.527 102.485Z" fill="black"/>
<path d="M57.7879 87.8928C55.1954 92.2137 56.5202 101.834 53.0345 108.633C44.3947 125.484 56.9226 134.129 65.5644 132.4C74.2062 130.672 77.2308 105.611 71.6137 91.7838C65.9965 77.9569 60.3805 83.5718 57.7879 87.8928Z" fill="black"/>
<path d="M105.318 97.3983C103.935 115.719 94.3716 116.554 89.7626 114.682C80.6887 109.498 85.0096 95.2378 89.7626 77.09C94.5156 58.9422 107.046 74.4975 105.318 97.3983Z" fill="black"/>
<path fill-rule="evenodd" clip-rule="evenodd" d="M102.691 69.7194C106.926 75.1273 109.665 85.7212 108.764 97.6582C108.035 107.314 105.084 113.305 100.771 116.416C96.4432 119.538 91.5863 119.154 88.4605 117.884C88.3183 117.827 88.18 117.759 88.0467 117.683C81.6911 114.052 80.5599 107.322 81.1316 100.46C81.6435 94.3171 83.6072 86.8738 85.6852 78.997C85.9285 78.0748 86.1733 77.1467 86.4176 76.214C87.0671 73.7339 87.8971 71.6348 88.9366 69.9767C89.9693 68.3295 91.3416 66.9123 93.1421 66.1828C97.182 64.5458 100.647 67.109 102.691 69.7194ZM94.7942 73.6489C94.2455 74.5241 93.6441 75.9088 93.1054 77.9656C92.8654 78.8822 92.628 79.7837 92.3946 80.6701C90.2725 88.7284 88.4792 95.5381 88.0212 101.034C87.5256 106.981 88.696 109.974 91.2726 111.56C92.751 112.091 94.8651 112.152 96.7268 110.809C98.6935 109.39 101.216 105.803 101.87 97.138C102.697 86.1742 100.035 77.5401 97.2482 73.982C96.5799 73.1287 96.06 72.769 95.7905 72.6459C95.7521 72.6283 95.7222 72.6171 95.7004 72.6099C95.591 72.6736 95.2555 72.9129 94.7942 73.6489ZM95.6551 72.5981C95.6551 72.5981 95.6558 72.5981 95.6573 72.5984L95.6551 72.5981ZM62.6156 87.2547C61.9513 87.8776 61.304 88.7493 60.751 89.671C60.4266 90.2116 60.1129 91.1314 59.8411 92.6205C59.6072 93.9023 59.4471 95.3343 59.2625 96.9859C59.2356 97.2263 59.2082 97.4713 59.18 97.7213C58.7596 101.443 58.182 106.167 56.1095 110.21C52.2385 117.76 53.4375 122.634 55.5526 125.37C57.8663 128.362 61.8271 129.622 64.8854 129.011C65.466 128.894 66.6063 128.203 67.8554 125.717C69.0396 123.36 69.975 120.035 70.5109 116.156C71.5891 108.351 70.9262 99.2782 68.41 93.0847C67.0883 89.8313 65.8983 88.0703 65.0087 87.1849C64.5826 86.7608 64.2808 86.5932 64.1244 86.5281C63.9857 86.4703 63.9147 86.472 63.8708 86.4759C63.7344 86.488 63.308 86.6053 62.6156 87.2547ZM69.8856 82.2847C71.7098 84.1003 73.3282 86.8225 74.8151 90.4826C77.9162 98.1159 78.5495 108.487 77.3593 117.102C76.7609 121.433 75.6709 125.561 74.033 128.821C72.46 131.952 69.9816 135.042 66.2412 135.79C60.6577 136.906 54.0337 134.708 50.083 129.598C45.9337 124.231 45.1886 116.357 49.9575 107.055C51.3706 104.299 51.8734 100.813 52.3102 96.9455C52.3367 96.7109 52.3631 96.4739 52.3897 96.2353C52.5704 94.614 52.7596 92.9164 53.04 91.3795C53.3579 89.6371 53.8508 87.734 54.8227 86.1141C55.5659 84.8754 56.5929 83.4249 57.8863 82.2118C59.1516 81.0252 60.9664 79.7928 63.2602 79.5894C65.7187 79.3715 67.9843 80.3924 69.8856 82.2847Z" fill="black"/>
<path d="M106.181 125.051C99.2676 125.051 85.4407 146.079 79.3915 156.593C71.6849 169.988 73.5149 185.976 88.0332 185.976C102.551 185.976 106.181 179.062 110.07 175.173C113.641 182.087 120.987 186.272 124.329 185.976C135.998 184.939 135.563 166.387 130.378 156.593C125.193 146.079 113.095 125.051 106.181 125.051Z" fill="black"/>
<path fill-rule="evenodd" clip-rule="evenodd" d="M95.1982 138.992C90.2454 145.403 85.3623 153.148 82.3882 158.317C78.8327 164.497 77.6884 170.945 78.7467 175.53C79.2636 177.769 80.2717 179.456 81.6606 180.59C83.035 181.712 85.0594 182.519 88.0337 182.519C94.6891 182.519 98.519 180.952 101.075 179.188C102.395 178.276 103.475 177.243 104.5 176.144C104.825 175.796 105.206 175.368 105.608 174.918C106.281 174.162 107.012 173.343 107.626 172.729C108.406 171.949 109.512 171.588 110.602 171.757C111.692 171.927 112.635 172.606 113.142 173.586C114.626 176.461 116.939 178.83 119.256 180.438C120.409 181.237 121.502 181.806 122.415 182.151C123.389 182.519 123.917 182.542 124.024 182.532C125.912 182.364 127.195 181.547 128.155 180.258C129.193 178.866 129.934 176.793 130.241 174.166C130.861 168.872 129.589 162.489 127.324 158.21C127.308 158.181 127.293 158.152 127.278 158.122C124.734 152.962 120.496 145.234 116.084 138.843C113.87 135.636 111.693 132.885 109.735 130.974C108.757 130.018 107.915 129.354 107.228 128.947C106.891 128.746 106.63 128.631 106.442 128.568C106.267 128.51 106.186 128.507 106.182 128.507C106.177 128.507 106.081 128.51 105.875 128.577C105.661 128.647 105.369 128.772 104.997 128.982C104.242 129.41 103.32 130.096 102.248 131.065C100.104 133.002 97.6823 135.777 95.1982 138.992ZM101.59 122.967C102.904 122.223 104.481 121.594 106.182 121.594C107.899 121.594 109.465 122.234 110.759 123.003C112.077 123.786 113.356 124.847 114.565 126.027C116.982 128.387 119.45 131.55 121.773 134.915C126.422 141.649 130.815 149.667 133.458 155.021C136.362 160.534 137.889 168.3 137.108 174.97C136.714 178.335 135.699 181.706 133.698 184.39C131.62 187.177 128.582 189.068 124.635 189.418C123.071 189.557 121.427 189.168 119.972 188.619C118.456 188.046 116.864 187.192 115.316 186.118C113.345 184.751 111.349 182.959 109.621 180.79C109.6 180.813 109.578 180.835 109.557 180.859C108.353 182.15 106.89 183.574 105.002 184.877C101.141 187.542 95.8967 189.432 88.0337 189.432C83.7489 189.432 80.1002 188.24 77.2891 185.946C74.4924 183.663 72.8024 180.516 72.0104 177.085C70.4507 170.327 72.2447 162.084 76.3958 154.869L79.3279 156.556L76.3958 154.869C79.4709 149.524 84.526 141.498 89.7273 134.766C92.3202 131.409 95.0295 128.27 97.612 125.936C98.9029 124.769 100.242 123.73 101.59 122.967Z" fill="black"/>
<path d="M12.151 250.614V253.611H24.544V250.614H12.151ZM12.205 257.364V260.253H23.437V257.364H12.205ZM16.687 247.05V258.984H19.846V247.05H16.687ZM10.45 250.614V257.526C10.45 261.468 10.207 266.976 7.48 270.756C8.263 271.053 9.64 271.863 10.207 272.376C13.096 268.299 13.555 261.927 13.555 257.553V250.614H10.45ZM23.788 250.614V251.073C23.41 252.747 22.762 254.826 22.168 256.095L24.976 256.905C25.732 255.42 26.569 253.152 27.19 251.073L24.814 250.506L24.301 250.614H23.788ZM15.904 259.227L13.123 260.01C15.364 266.031 19.171 270.351 25.165 272.403C25.624 271.566 26.542 270.297 27.271 269.649C21.601 268.056 17.74 264.195 15.904 259.227ZM3.322 249.588C4.834 250.425 7.021 251.721 8.074 252.531L9.964 249.912C8.857 249.156 6.616 247.968 5.131 247.239L3.322 249.588ZM1.729 256.932C3.295 257.742 5.536 258.984 6.589 259.794L8.452 257.094C7.318 256.338 5.05 255.204 3.538 254.529L1.729 256.932ZM2.269 270.189L5.158 272.133C6.562 269.487 8.02 266.355 9.235 263.466L6.697 261.522C5.32 264.708 3.538 268.11 2.269 270.189ZM22.276 257.364V257.958C20.899 264.168 16.903 267.975 11.53 269.784C12.178 270.351 13.177 271.701 13.582 272.457C19.225 270.297 23.68 265.707 25.516 258.147L23.491 257.283L22.924 257.364H22.276ZM40.501 250.614V253.611H52.894V250.614H40.501ZM40.555 257.364V260.253H51.787V257.364H40.555ZM45.037 247.05V258.984H48.196V247.05H45.037ZM38.8 250.614V257.526C38.8 261.468 38.557 266.976 35.83 270.756C36.613 271.053 37.99 271.863 38.557 272.376C41.446 268.299 41.905 261.927 41.905 257.553V250.614H38.8ZM52.138 250.614V251.073C51.76 252.747 51.112 254.826 50.518 256.095L53.326 256.905C54.082 255.42 54.919 253.152 55.54 251.073L53.164 250.506L52.651 250.614H52.138ZM44.254 259.227L41.473 260.01C43.714 266.031 47.521 270.351 53.515 272.403C53.974 271.566 54.892 270.297 55.621 269.649C49.951 268.056 46.09 264.195 44.254 259.227ZM31.672 249.588C33.184 250.425 35.371 251.721 36.424 252.531L38.314 249.912C37.207 249.156 34.966 247.968 33.481 247.239L31.672 249.588ZM30.079 256.932C31.645 257.742 33.886 258.984 34.939 259.794L36.802 257.094C35.668 256.338 33.4 255.204 31.888 254.529L30.079 256.932ZM30.619 270.189L33.508 272.133C34.912 269.487 36.37 266.355 37.585 263.466L35.047 261.522C33.67 264.708 31.888 268.11 30.619 270.189ZM50.626 257.364V257.958C49.249 264.168 45.253 267.975 39.88 269.784C40.528 270.351 41.527 271.701 41.932 272.457C47.575 270.297 52.03 265.707 53.866 258.147L51.841 257.283L51.274 257.364H50.626ZM59.266 264.546V266.841H71.875V264.546H59.266ZM58.645 251.694V254.043H72.145V251.694H58.645ZM64.018 249.777V269.136H66.934V249.777H64.018ZM58.51 268.839L58.888 271.539C62.398 271.215 67.312 270.729 71.902 270.243L71.875 267.786C67.015 268.218 61.858 268.596 58.51 268.839ZM61.939 260.226H69.067V261.468H61.939V260.226ZM61.939 257.121H69.067V258.336H61.939V257.121ZM59.347 255.096V263.493H71.74V255.096H59.347ZM70.417 247.212C67.447 247.86 62.749 248.346 58.726 248.535C59.023 249.156 59.32 250.182 59.428 250.83C63.478 250.749 68.392 250.344 71.848 249.642L70.417 247.212ZM72.145 253.179V256.149H81.487V253.179H72.145ZM80.191 253.179V253.881C79.975 264.33 79.759 268.137 79.138 268.947C78.895 269.325 78.625 269.406 78.22 269.406C77.68 269.406 76.654 269.406 75.493 269.298C76.006 270.162 76.357 271.485 76.438 272.376C77.707 272.43 78.976 272.43 79.813 272.268C80.704 272.106 81.325 271.809 81.919 270.891C82.81 269.676 83.026 265.734 83.269 254.61C83.269 254.232 83.296 253.179 83.296 253.179H80.191ZM74.737 247.536C74.71 258.309 75.007 265.869 69.31 270.216C70.039 270.756 71.092 271.863 71.551 272.646C77.788 267.732 77.815 259.065 77.842 247.536H74.737ZM99.982 247.077C99.172 251.073 97.66 254.934 95.5 257.31C96.175 257.715 97.444 258.633 97.957 259.119C100.144 256.419 101.926 252.126 102.898 247.644L99.982 247.077ZM109.054 251.289V251.991C108.622 263.466 108.109 267.651 107.353 268.596C107.029 268.974 106.786 269.109 106.381 269.109C105.868 269.109 104.95 269.082 103.951 268.974C104.437 269.865 104.761 271.242 104.842 272.16C106.03 272.214 107.164 272.214 107.92 272.052C108.811 271.89 109.405 271.566 110.026 270.648C111.052 269.298 111.538 264.87 112.051 252.747C112.078 252.342 112.105 251.289 112.105 251.289H109.054ZM100.792 251.289L99.307 254.286H110.431V251.289H100.792ZM102.682 252.261C101.656 256.797 99.28 261.873 96.148 264.33C96.985 264.789 98.011 265.545 98.632 266.166C101.575 263.412 103.951 258.066 105.031 253.422L102.682 252.261ZM106.435 252.558C105.193 259.497 102.412 266.544 97.687 269.919C98.578 270.351 99.712 271.161 100.333 271.809C104.788 268.083 107.65 260.739 108.946 253.719L106.435 252.558ZM86.752 261.792L87.535 264.897C90.397 264.06 94.096 262.953 97.498 261.9L97.066 259.038C93.34 260.091 89.398 261.198 86.752 261.792ZM91.612 247.077V272.43H94.582V247.077H91.612ZM88.048 248.616C87.805 251.829 87.346 255.204 86.482 257.364C87.13 257.688 88.291 258.444 88.777 258.822C89.749 256.419 90.397 252.639 90.748 249.075L88.048 248.616ZM88.777 252.288L88.183 255.393H96.823V252.288H88.777ZM120.016 270.216V271.917H135.865V270.216H120.016ZM120.016 267.894V269.487H135.865V267.894H120.016ZM116.155 260.091V262.143H139.861V260.091H116.155ZM117.478 263.007V272.43H120.394V264.681H135.46V272.43H138.511V263.007H117.478ZM121.096 249.534C120.745 250.452 120.178 251.37 119.395 252.072C119.854 252.288 120.637 252.774 120.988 253.044C121.771 252.261 122.527 251.1 122.932 249.966L121.096 249.534ZM128.926 252.828V254.664H136.702V252.828H128.926ZM121.177 250.722V252.18H127.171V250.722H121.177ZM119.611 252.99V254.529H127.63V252.99H119.611ZM130.843 247.725V249.885H135.649V247.725H130.843ZM136.135 252.828V253.125C135.028 255.852 131.896 257.364 128.197 257.931C128.629 258.417 129.169 259.308 129.412 259.875C133.705 258.984 137.161 257.175 138.619 253.287L137.08 252.774L136.621 252.828H136.135ZM131.896 254.475L129.493 255.069C131.221 257.931 134.299 259.578 138.7 260.199C139.024 259.497 139.726 258.444 140.293 257.931C136.324 257.58 133.273 256.473 131.896 254.475ZM129.682 247.725V249.102C129.682 250.047 129.385 250.884 127.333 251.613C127.792 251.964 128.737 252.99 129.034 253.53C131.545 252.423 132.139 250.803 132.139 249.21V247.725H129.682ZM134.488 247.725V249.777C134.488 251.127 134.65 251.613 135.028 251.991C135.379 252.396 136.081 252.558 136.648 252.558C136.972 252.558 137.485 252.558 137.809 252.558C138.187 252.558 138.673 252.531 138.97 252.396C139.348 252.234 139.645 252.018 139.807 251.721C139.996 251.451 140.104 250.803 140.185 250.155C139.564 249.966 138.754 249.561 138.322 249.183C138.295 249.642 138.268 250.02 138.214 250.182C138.16 250.371 138.079 250.425 137.998 250.452C137.944 250.506 137.809 250.506 137.701 250.506C137.566 250.506 137.377 250.506 137.269 250.506C137.161 250.506 137.08 250.479 137.026 250.398C136.945 250.317 136.972 250.128 136.972 249.777V247.725H134.488ZM122.743 251.424V253.206C122.743 254.151 122.365 255.447 119.557 256.122C120.016 256.5 120.583 257.121 120.853 257.58C124.12 256.446 124.741 254.664 124.741 253.26V251.424H122.743ZM124.174 261.279V263.709C124.174 264.735 123.634 265.896 120.421 266.436C120.961 266.868 121.609 267.651 121.933 268.191C125.686 267.192 126.631 265.518 126.631 263.736V261.279H124.174ZM128.845 261.252V264.978C128.845 266.733 129.439 267.165 131.842 267.165C132.355 267.165 134.569 267.165 135.082 267.165C136.567 267.165 137.215 266.868 137.377 266.004C136.783 265.923 135.919 265.734 135.433 265.491C135.379 265.653 135.217 265.68 134.758 265.68C134.299 265.68 132.544 265.68 132.193 265.68C131.464 265.68 131.329 265.599 131.329 265.005V261.252H128.845ZM122.878 255.096C124.066 255.771 125.551 256.797 126.307 257.472L127.549 256.176C126.766 255.474 125.254 254.529 124.066 253.908L122.878 255.096ZM128.035 247.968H116.83V259.281H128.251V257.445H119.233V249.804H128.035V247.968ZM158.977 247.212V251.451H162.136V247.212H158.977ZM152.983 250.047V255.393H155.845V252.801H165.619V255.366H168.616V250.047H152.983ZM154.981 254.988V257.769H166.537V254.988H154.981ZM153.361 259.713V262.602H168.508V259.713H153.361ZM156.412 261.117C156.25 265.815 155.818 268.407 150.931 269.865C151.552 270.459 152.362 271.647 152.632 272.43C158.437 270.486 159.247 266.922 159.49 261.117H156.412ZM161.38 260.793V268.488C161.38 271.269 161.92 272.187 164.296 272.187C164.728 272.187 165.619 272.187 166.105 272.187C167.995 272.187 168.751 271.161 169.021 267.354C168.211 267.165 166.915 266.652 166.321 266.166C166.267 268.92 166.186 269.352 165.754 269.352C165.565 269.352 164.998 269.352 164.836 269.352C164.485 269.352 164.431 269.244 164.431 268.461V260.793H161.38ZM144.667 248.238V272.457H147.502V251.127H151.039V248.238H144.667ZM150.04 248.238V249.156C149.662 250.884 148.798 254.61 148.042 257.04C149.581 258.849 149.932 260.523 149.932 261.792C149.932 262.548 149.797 263.088 149.473 263.331C149.284 263.493 149.014 263.547 148.717 263.547C148.393 263.574 148.042 263.547 147.556 263.52C147.988 264.303 148.231 265.518 148.258 266.301C148.879 266.301 149.527 266.274 150.013 266.22C150.607 266.139 151.12 265.95 151.552 265.653C152.416 265.059 152.767 263.925 152.767 262.17C152.767 260.604 152.443 258.795 150.769 256.689C151.552 254.583 152.443 251.64 153.145 249.318L151.039 248.13L150.58 248.238H150.04Z" fill="black"/>
</svg>
